<svg xmlns="http://www.w3.org/2000/svg" viewBox="0 0 183.23 59.05"><g id="レイヤー_2" data-name="レイヤー 2"><g id="レイヤー_1-2" data-name="レイヤー 1"><path d="M60.64,17.25a.85.85,0,0,0,0,.17A.38.38,0,0,0,60.64,17.25Z"/><g id="レイヤー_2-2" data-name="レイヤー 2"><g id="レイヤー_1-2-2" data-name="レイヤー 1-2"><path d="M19,3.06h3.41v9.87a5.6,5.6,0,0,0,.39,2.42,2.6,2.6,0,0,0,2.65,1.35,2.57,2.57,0,0,0,2.64-1.35,5.6,5.6,0,0,0,.39-2.42V3.06h3.42v9.88a8.26,8.26,0,0,1-.8,4c-1,1.75-2.87,2.62-5.65,2.62s-4.66-.87-5.65-2.62a8.26,8.26,0,0,1-.8-4Z"/><path d="M49.63,7.29A3.53,3.53,0,0,1,51,8.36a3.46,3.46,0,0,1,.68,1.53,10.76,10.76,0,0,1,.11,1.75l0,7.49H48.59V11.57a2.41,2.41,0,0,0-.22-1.11,1.52,1.52,0,0,0-1.52-.83,1.78,1.78,0,0,0-1.78,1.07,3.27,3.27,0,0,0-.25,1.36v7.07H41.69V12.06a3.88,3.88,0,0,0-.22-1.54,1.52,1.52,0,0,0-1.53-.86,1.84,1.84,0,0,0-1.79.86A3.27,3.27,0,0,0,37.9,12v7.15H34.75V7.27h3V9a4.7,4.7,0,0,1,1.09-1.32,4.3,4.3,0,0,1,4.54-.1,3.59,3.59,0,0,1,1,1.43,3.93,3.93,0,0,1,1.51-1.54A4.59,4.59,0,0,1,48.08,7,4.23,4.23,0,0,1,49.63,7.29Z"/><path d="M64.5,8.53A6.32,6.32,0,0,1,66,13a7.09,7.09,0,0,1-1.42,4.78,4.59,4.59,0,0,1-3.66,1.65,3.86,3.86,0,0,1-2.37-.71,4.64,4.64,0,0,1-1-1.14v6.19H54.42V7.25h3V9a4.88,4.88,0,0,1,1.07-1.23A4,4,0,0,1,61,7,4.68,4.68,0,0,1,64.5,8.53Zm-2.38,2.23A2.24,2.24,0,0,0,60.06,9.7a2.33,2.33,0,0,0-2.34,1.61,5.94,5.94,0,0,0-.34,2.15,3.41,3.41,0,0,0,1.12,2.91,2.53,2.53,0,0,0,1.56.5,2.28,2.28,0,0,0,2-1,4.64,4.64,0,0,0,.69-2.67A4.68,4.68,0,0,0,62.12,10.76Z"/><path d="M71.29,5.83H68.14V3h3.15ZM68.14,7.25h3.15V19.13H68.14Z"/><path d="M80.68,7,81,7v3.18l-.52,0h-.37a2.57,2.57,0,0,0-2.52,1.22,4.74,4.74,0,0,0-.36,2.11v5.68H74.05V7.25h3V9.32A6.46,6.46,0,0,1,78.27,7.7,3.4,3.4,0,0,1,80.54,7Z"/><path d="M90.52,7.49a4.84,4.84,0,0,1,2.06,1.76,5.85,5.85,0,0,1,.94,2.46,13.85,13.85,0,0,1,.1,2.35H85a2.85,2.85,0,0,0,1.24,2.51,3.17,3.17,0,0,0,1.72.45,2.59,2.59,0,0,0,1.72-.55,2.55,2.55,0,0,0,.64-.81h3.17a3.86,3.86,0,0,1-1.15,2.14,5.75,5.75,0,0,1-4.47,1.74,6.47,6.47,0,0,1-4.19-1.47c-1.2-1-1.81-2.56-1.81-4.75a6.45,6.45,0,0,1,1.64-4.74,5.73,5.73,0,0,1,4.25-1.65A6.78,6.78,0,0,1,90.52,7.49Zm-4.65,2.69A3.24,3.24,0,0,0,85.05,12H90.4a2.57,2.57,0,0,0-.83-1.87,2.7,2.7,0,0,0-1.84-.64A2.45,2.45,0,0,0,85.87,10.18Z"/><path d="M35.41,24.69v2.85H30.6V40.76H27.22V27.54H22.4V24.69Z"/><path d="M41.83,28.6l.26,0V31.8c-.19,0-.37,0-.52,0H41.2A2.57,2.57,0,0,0,38.68,33a4.71,4.71,0,0,0-.36,2.11v5.68H35.19V28.88h3V31a6.48,6.48,0,0,1,1.25-1.62,3.4,3.4,0,0,1,2.27-.73Z"/><path d="M44.77,43l.39,0A5,5,0,0,0,46,43a1.62,1.62,0,0,0,.7-.25,1.74,1.74,0,0,0,.51-.78,2,2,0,0,0,.2-.72l-4.37-12.4h3.46l2.59,8.76,2.45-8.76h3.31L50.8,40.57a16.57,16.57,0,0,1-1.86,4.19,3.56,3.56,0,0,1-2.75.81h-.67l-.75,0Z"/><path d="M66,39.31a5.54,5.54,0,0,1-4.57,1.85,5.52,5.52,0,0,1-4.57-1.85,7.4,7.4,0,0,1,0-8.93,5.51,5.51,0,0,1,4.57-1.88A5.52,5.52,0,0,1,66,30.38a7.4,7.4,0,0,1,0,8.93Zm-2.49-1.72a4.48,4.48,0,0,0,.73-2.75,4.46,4.46,0,0,0-.73-2.75,2.75,2.75,0,0,0-4.19,0,4.46,4.46,0,0,0-.74,2.75,4.48,4.48,0,0,0,.74,2.75,2.75,2.75,0,0,0,4.19,0Z"/><path d="M72.67,28.88V36a3.75,3.75,0,0,0,.24,1.53,1.65,1.65,0,0,0,1.66.9,2.18,2.18,0,0,0,2.17-1.28,4.76,4.76,0,0,0,.3-1.85V28.88h3.15V40.76h-3V39.08l-.22.33a2.09,2.09,0,0,1-.41.48,4.21,4.21,0,0,1-1.41.89,4.75,4.75,0,0,1-1.59.24A3.55,3.55,0,0,1,70,39.13,7.32,7.32,0,0,1,69.49,36V28.88Z"/><path d="M81.82,31.2V29h1.65V25.67h3.08V29h1.93V31.2H86.55v6.28a1.44,1.44,0,0,0,.18.91,2.06,2.06,0,0,0,1.14.18h.61v2.32L87,40.92a3.89,3.89,0,0,1-3-.76,2.24,2.24,0,0,1-.53-1.64V31.2Z"/><path d="M7.31,52.9a10.7,10.7,0,0,0,4.19,2,3.35,3.35,0,0,0-.53.65A9.14,9.14,0,0,1,9.72,55v3.81h-.8v-.36H2.72v.4H1.94V55.1a12.23,12.23,0,0,1-1.41.57A3.28,3.28,0,0,0,0,55a12.12,12.12,0,0,0,4.21-2.12H.38v-.7H2.9a6.23,6.23,0,0,0-.56-1.09l.66-.2a4.34,4.34,0,0,1,.66,1.26H5.37V50.79c-1,.07-2.13.1-3.1.1a4.31,4.31,0,0,0-.19-.61,50.68,50.68,0,0,0,6.85-.5l.44.59a32,32,0,0,1-3.23.38V52.2H7.79a9.36,9.36,0,0,0,.7-1.42L9.3,51c-.24.41-.48.84-.71,1.17h2.59v.7ZM1.37,50.79H.62V48.6H5.37v-1h.81v1H11v2.19h-.78V49.32H1.37Zm4,4.38H2.72v1H5.37ZM2.72,57.88H5.37V56.8H2.72Zm5.91-3.32A9.07,9.07,0,0,1,6.35,52.9H6.14v1.54H5.37V52.9H5.23A11,11,0,0,1,3,54.56Zm.29.61H6.14v1H8.92Zm0,2.71V56.8H6.14v1.08Z"/><path d="M16.09,54.26h2.77V55H16.09v3.9h-.78V55h-2.8v-.79h2.8V52.39H12.87v-.77h2.44v-4h.78v4h2.44v.77H16.09ZM13.82,51a13.4,13.4,0,0,0-.91-2.53l.67-.2a12.31,12.31,0,0,1,1,2.5Zm4.85-2.59a25.38,25.38,0,0,1-1.26,2.63l-.64-.2a14.3,14.3,0,0,0,1.09-2.66Zm.68.64h.8v6.83h-.8Zm3.86-1.25v10c0,.59-.17.85-.53,1a8.94,8.94,0,0,1-2.19.15,4.57,4.57,0,0,0-.31-.83h1.89c.23,0,.32-.09.32-.33v-10Z"/><path d="M26.72,49.66a8.9,8.9,0,0,0-.09-1.26h1.09a10.66,10.66,0,0,0-.08,1.26v2.08A40.07,40.07,0,0,1,33,53.81l-.39.94a32.3,32.3,0,0,0-4.92-2V57a12.47,12.47,0,0,0,.06,1.44h-1.1A9.92,9.92,0,0,0,26.72,57Z"/><path d="M43.63,52.34a8.47,8.47,0,0,1-1.81,3.57,8.85,8.85,0,0,1-4.42,2.58l-.68-.78a8.32,8.32,0,0,0,4.36-2.31,6.42,6.42,0,0,0,1.51-2.87H34.74v-.9c.43,0,.84.06,1.17.06H42.5a2,2,0,0,0,.65-.08l.63.4A2.41,2.41,0,0,0,43.63,52.34Zm-6.71-3.5h4.9a7.83,7.83,0,0,0,1.08-.07v.94h-7v-.94A7.59,7.59,0,0,0,36.92,48.84Z"/><path d="M50.64,51.23A14.65,14.65,0,0,0,54,48.31l.74.69a20.34,20.34,0,0,1-3.35,2.79V57.1a9,9,0,0,0,.07,1.27H50.38a10.83,10.83,0,0,0,.08-1.27V52.38a25.26,25.26,0,0,1-4.78,2.06l-.45-.86A21.33,21.33,0,0,0,50.64,51.23Z"/><path d="M66.2,50a12.23,12.23,0,0,1-3.09,3.44l-.75-.59A8.45,8.45,0,0,0,65.15,50H58a8.22,8.22,0,0,0-1.39.08V49a10.71,10.71,0,0,0,1.39.12h7.19A5.66,5.66,0,0,0,66,49l.54.52Zm-8.07,8.44-.82-.67a4.37,4.37,0,0,0,1.08-.54c2-1.19,2.25-3,2.25-5.14a6.17,6.17,0,0,0,0-.86h1c-.06,3.4-.39,5.64-3.51,7.18Z"/><path d="M73.14,49v1.2H76a2.23,2.23,0,0,0,.81-.1l.6.39a4.32,4.32,0,0,0-.17.71A12,12,0,0,1,76,54.94a7.85,7.85,0,0,1-4.87,3.49l-.72-.82a8.06,8.06,0,0,0,1.19-.33,6.74,6.74,0,0,0,3.47-2.58A9.79,9.79,0,0,0,76.3,51H69.24v2.31a4.21,4.21,0,0,0,0,.71h-1a4.82,4.82,0,0,0,0-.76V51a7.21,7.21,0,0,0,0-.93,10.87,10.87,0,0,0,1.14,0h2.76V49a6.8,6.8,0,0,0-.06-.9h1A7,7,0,0,0,73.14,49Z"/><path d="M80.53,49.66a8.9,8.9,0,0,0-.09-1.26h1.09q-.07.63-.09,1.26v2.08a40.39,40.39,0,0,1,5.32,2.07l-.39.94a32,32,0,0,0-4.93-2V57a12.47,12.47,0,0,0,.06,1.44h-1A9.93,9.93,0,0,0,80.53,57Z"/><path d="M90,50v2.45c0,1.88-.15,4.63-1.2,6.5a3.69,3.69,0,0,0-.71-.48,12.84,12.84,0,0,0,1.11-6V49.24h4.6V47.6h.84v1.64H99.4V50Zm.06,7.4a9.52,9.52,0,0,0,1.13-3.79l.74.16a10,10,0,0,1-1.15,4Zm6,.54c.53,0,.6-.34.65-2.17a4.26,4.26,0,0,0,.75.35c-.1,2-.31,2.58-1.34,2.58H94.2c-1,0-1.31-.29-1.31-1.27V52.54h.81v4.92c0,.41.1.5.59.5ZM96,53A14.26,14.26,0,0,0,93.1,51l.56-.53a14.86,14.86,0,0,1,2.87,1.83Zm1.86.4a14.36,14.36,0,0,1,1.83,4l-.79.34a14.53,14.53,0,0,0-1.78-4.1Z"/><path d="M109,54.82a8,8,0,0,0,3,1.55,3.06,3.06,0,0,0-.54.65,8.16,8.16,0,0,1-1.82-.85v.18a4.65,4.65,0,0,1-.53,2.29,1.09,1.09,0,0,1-.75.26h-1.47a1.68,1.68,0,0,0-.21-.69,12.94,12.94,0,0,0,1.39.07.54.54,0,0,0,.39-.1c.15-.15.26-.57.37-1.51h-2.89c-.55,1.17-1.59,1.92-3.72,2.38a2.13,2.13,0,0,0-.42-.65c1.81-.34,2.75-.9,3.24-1.73h-2.48v-.43a11.15,11.15,0,0,1-1.54.69,1.77,1.77,0,0,0-.5-.59,9.37,9.37,0,0,0,2.87-1.5h-2.6v-.68h3.3a6.28,6.28,0,0,0,.52-.75h-2.35V50h8v3.39H105.5a4.94,4.94,0,0,1-.47.75h6.68v.68Zm-5.2-5.66H101v-.7h2.81V47.6h.8v.86h3.32V47.6h.8v.86h2.85v.7h-2.85v.65h-.8v-.65h-3.32v.65h-.8ZM109.39,56A7.28,7.28,0,0,1,108,54.82h-3.55A7.83,7.83,0,0,1,102.91,56h2.42a6.11,6.11,0,0,0,.22-.94h.81a6,6,0,0,1-.2.94Zm-6.34-4.6h6.43v-.85h-6.43Zm0,1.42h6.43V52h-6.43Z"/><path d="M162.89,48.67h.1c.06,0,.28-.08.28-.18s-.22-.14-.28-.21a2.78,2.78,0,0,1-.28-.47c-.13-.24-.28-.47-.41-.72-.23-.44-.44-.85-.64-1.31a1.44,1.44,0,0,0-.2-.39.25.25,0,0,0,.16-.14c0-.14-.1-.24-.11-.36,0-.27.47-.35.19-.62s-.62-.27-.65-.65c0-.12-.08-.26-.08-.37a.56.56,0,0,1,.17-.36c.41-.53.62-.73,1.13-1.39a14.44,14.44,0,0,0,1.28-2,19,19,0,0,1,1.26-2.25c.24-.33.42-.66.65-1a1.18,1.18,0,0,0,.26-.54,2.55,2.55,0,0,0-.25-1.12,12.13,12.13,0,0,0-1.79-2.36c-.27-.34-.6-.61-.87-1a4.78,4.78,0,0,0-.34-.42h0c.12-.07.17-.12.08-.22s-.32-.39-.49-.57a3,3,0,0,0-.83-.63,2.63,2.63,0,0,1-.54-.46,7.84,7.84,0,0,0-.95-.68,2.9,2.9,0,0,1-.73-.9,1,1,0,0,0-.33-.36l-.32-.08a1.3,1.3,0,0,1-.8-.63,1.11,1.11,0,0,0-.16-.39c-.1-.11-.23-.09-.33-.19a1.76,1.76,0,0,1-.25-.58,3.82,3.82,0,0,0-.21-.46L156,23.41a7.27,7.27,0,0,0-.62-.94.88.88,0,0,0-.24-.23h0a3.71,3.71,0,0,0-.51-1.29c-.29-.36-.75-.73-1.06-1.05-.49-.52-.76-1.22-1.22-1.78a7.77,7.77,0,0,0-1.85-1.63c-.24-.15-.49-.27-.72-.43-.07,0-.14-.1-.21-.15h0a.24.24,0,0,0-.17-.14c-.22-.11-.43-.2-.64-.33s-.51-.55-.82-.79a3.33,3.33,0,0,0-.58-.33,1.15,1.15,0,0,0-.58-.09,1.37,1.37,0,0,1-.08-.35,4.86,4.86,0,0,0,0-.54.29.29,0,0,0-.11-.19v-.06h.27a.94.94,0,0,1-.19-.32c.11.06.24.17.36.16a.77.77,0,0,1-.24-.53c.06.09.13.18.18.27a8.18,8.18,0,0,1,0-1.4,3.23,3.23,0,0,1,.14.51,2.26,2.26,0,0,0-.11-1,.34.34,0,0,1,.17.2v-.1a1.18,1.18,0,0,0-.16-.29h.38a.74.74,0,0,0-.27-.19h.24a.73.73,0,0,1-.31-.17c-.09-.07-.19-.22-.3-.24H147a1,1,0,0,1-.53-.33h.18a.67.67,0,0,1-.15-.14.57.57,0,0,0,.16-.15c.15-.24,0-.64,0-.91a3.46,3.46,0,0,1,.19-.7,1.32,1.32,0,0,0,0-.56,12.29,12.29,0,0,1,0-1.82,3.74,3.74,0,0,0-.11-1.2h0a5,5,0,0,0-.7-2.72c-.64-1-2.13-1.12-3-1.14a21.59,21.59,0,0,0-3.58.51h0a.54.54,0,0,1,0-.18h0a.23.23,0,0,0,.13-.24c0-.18-.25-.22-.45-.22a.18.18,0,0,0-.16,0,.69.69,0,0,0-.5-.11.88.88,0,0,0-.35.1.35.35,0,0,0-.1.26l-.14.09a.55.55,0,0,0-.17.2V.74a.64.64,0,0,0-.14-.22c-.13-.11-.18-.19-.35-.32a.64.64,0,0,0-.41-.18,2.66,2.66,0,0,0-.69,0,5.62,5.62,0,0,0-1.43.54,2.14,2.14,0,0,0-.65.55,1,1,0,0,0-.27.55,3.47,3.47,0,0,1-.14.58l-.1.06c-.2.07-1.23.43-1.44.52a3.06,3.06,0,0,0-.51.26l-.89.56a1.32,1.32,0,0,0-.65.74l-1.23,2.91c-.11.27,0,.48.24.49h.47c.3,0,.41.12.75.14h.61a13.14,13.14,0,0,0,.12,2.66,5.86,5.86,0,0,0-1.8.44c-.19.13-.23.3,0,.39.15.64.75,2.57.92,3a5.68,5.68,0,0,0,.49,1.1c.24.41,1.69,2.53,1.9,2.89s.16.39.11.78-.31,1.35-.38,1.69-.17.78.32.81,1.22,0,1.52,0a1.23,1.23,0,0,0,.95-.41,7.87,7.87,0,0,0,1-1.82,4.38,4.38,0,0,0,.28-1,5.7,5.7,0,0,0,.06-.58h.52a1.53,1.53,0,0,0,.47-.11,1.26,1.26,0,0,0,.4-.46,2.55,2.55,0,0,0,.13-.29.9.9,0,0,1,.46,0,1,1,0,0,1,.3.2,2.65,2.65,0,0,1,.34.33,10.87,10.87,0,0,0-1.51,1.28l-.59.59a4.68,4.68,0,0,0-.56.53c-.1.13-.23.37-.07.48l.22.15a6.22,6.22,0,0,0-.31,1.2,17.75,17.75,0,0,0-.31,3,11.41,11.41,0,0,1,0,1.17,2.48,2.48,0,0,0-.07.72A8.28,8.28,0,0,0,136.5,29c.09.24.15.49.23.73a1.22,1.22,0,0,0,.07.17.57.57,0,0,0,0,.26c0,.17.17.22.22.37a1.68,1.68,0,0,1,0,.5,1.42,1.42,0,0,0,.24.55,2.44,2.44,0,0,1,.09.54,5.53,5.53,0,0,0,.2.66c.09.34.23.68.29,1,.24,1.4,1.63,6.44,1.9,7.86a8.66,8.66,0,0,0,.46,2,5.16,5.16,0,0,1,.36,1.09c.14.57.46,1.13.65,1.68a11,11,0,0,1,.32,1.71M143,.55a2.68,2.68,0,0,1,2.67,2.53L145,2.54a7.4,7.4,0,0,0-.82-.66A4.47,4.47,0,0,0,143,1.47a6.92,6.92,0,0,0-2.17-.23H140a.67.67,0,0,0-.2,0,.21.21,0,0,0,0-.11V1.07A13.37,13.37,0,0,1,143,.55ZM137.75,1c0,.09.17.05.27.06a.81.81,0,0,0,.22,0h.23a1.72,1.72,0,0,0,.43-.16l.42-.17L138.14,2a1,1,0,0,0-.55-.72l.08-.11A.53.53,0,0,0,137.75,1Zm-3.68.55a.59.59,0,0,1,.14-.27,2,2,0,0,1,.62-.53c.24-.13.85-.4,1-.45a1.25,1.25,0,0,1,.43-.07,1.77,1.77,0,0,1,.46,0,.53.53,0,0,1,.34.15,2.74,2.74,0,0,1,.36.32c.09.09.06.21,0,.33l-.17.22H137a2.7,2.7,0,0,0-.49.12,2.67,2.67,0,0,1-.4,0,1.29,1.29,0,0,0-.67.12,1,1,0,0,1-.38.11A2.72,2.72,0,0,0,134,2a3.14,3.14,0,0,1,.07-.41Zm-2.42,1.88.22-.15a2.69,2.69,0,0,1-.16.29,1.63,1.63,0,0,1-.17.2,5.7,5.7,0,0,0-.81.22l.12-.08a6.35,6.35,0,0,0,.8-.44Zm-1.2.93h0c0,.14.12.16.23.16H131a3.62,3.62,0,0,1-.06.46,4.09,4.09,0,0,0-.05.78v.1a4.75,4.75,0,0,0-.69,1.32,3.36,3.36,0,0,0-1,.09c.26-.56,1.13-2.65,1.25-2.87ZM131.2,8h.11a.72.72,0,0,0,.61.26c0,.15-.11.47,0,.48h.18a6.73,6.73,0,0,0,.12,1.1c0,.1.08.36.14.66l-1,.14A12.29,12.29,0,0,1,131.2,8Zm1.49,10.33a2.94,2.94,0,0,0,.42,0,5,5,0,0,1-.17,1.21,4.52,4.52,0,0,1-.23.5c.08-.35.15-.7.18-.88.11-.4.11-.43-.2-.87ZM131,11.64l-.07-.14h.25Zm3.5-2.71a.94.94,0,0,1,.12.18,1.27,1.27,0,0,1-.18.27,3.26,3.26,0,0,0-.47.75c-.11.27-.24.54-.33.83h-.84l-.24-1.19a6.42,6.42,0,0,1-.13-1.23h2.09v.13c0,.1-.08.14-.17.19s.09,0,.14.07Zm-5,2.6h1.08l.19.38a.85.85,0,0,0-.05.83,2.22,2.22,0,0,0,.37.44,2,2,0,0,1,.44.66,1.34,1.34,0,0,1,.07.27.76.76,0,0,0-.26.3,1.15,1.15,0,0,0-.6.28.68.68,0,0,0-.17.21c-.06-.13-.11-.27-.18-.46-.14-.41-.68-2.16-.88-2.91Zm6.5,7.06a3.76,3.76,0,0,1-.38,1.08,6.75,6.75,0,0,1-.79,1.38,1.27,1.27,0,0,1-.74.43q-.72,0-1.44,0c-.23,0-.2-.14-.16-.36V21c.21-.39.57-1.07.65-1.3a5.57,5.57,0,0,0,.19-1.35c.29,0,.49-.24.77-.27a1.77,1.77,0,0,1,.46,0,7.36,7.36,0,0,0,1.15,0H136Z"/><path d="M183.09,58.58h.14c-9.29-7.21-21.39-12.84-34.37-12.84-13.16,0-25,5.8-34.37,13.12,9.34-5.38,21.21-10.31,34.37-10.31C161.78,48.55,173.82,53.31,183.09,58.58Z"/></g></g></g></g></svg>