<svg xmlns="http://www.w3.org/2000/svg" viewBox="0 0 171.53 62.96"><g id="レイヤー_2" data-name="レイヤー 2"><g id="レイヤー_1-2" data-name="レイヤー 1"><path d="M6.71,47.83a35.14,35.14,0,0,0-5.58-2.27l0,4.72a14.45,14.45,0,0,0,.07,1.61H0A11.66,11.66,0,0,0,.1,50.28V42.11A10.05,10.05,0,0,0,0,40.7H1.22c0,.42-.09,1-.09,1.41v2.34a45.32,45.32,0,0,1,6,2.33Z"/><path d="M19.39,44.74a3.52,3.52,0,0,0-.16.38,9.59,9.59,0,0,1-2.05,4,10.1,10.1,0,0,1-5,2.9l-.77-.9a9.29,9.29,0,0,0,4.93-2.58,7.23,7.23,0,0,0,1.71-3.22H10.5c-.34,0-.84,0-1.33,0v-1c.49,0,.95.07,1.33.07H18a2,2,0,0,0,.73-.09Zm-9-3.61a11.06,11.06,0,0,0,1.2.06h5.55a10.93,10.93,0,0,0,1.22-.06v1c-.32,0-.77,0-1.25,0H11.63c-.42,0-.84,0-1.2,0Z"/><path d="M31.78,41.38a22.44,22.44,0,0,1-3.76,3v6.05a9,9,0,0,0,.08,1.43H26.87A12.2,12.2,0,0,0,27,50.46V45a27.72,27.72,0,0,1-5.35,2.23l-.57-1a23.11,23.11,0,0,0,6.24-2.58,14.92,14.92,0,0,0,3.67-3.11Z"/><path d="M45.11,42c-.09.12-.26.32-.35.46a13.25,13.25,0,0,1-3.5,3.87l-.84-.66a9.61,9.61,0,0,0,3.15-3.24H35.46c-.5,0-1,0-1.57.09V41.4a11.73,11.73,0,0,0,1.57.12H43.6a6.15,6.15,0,0,0,.9-.08Zm-5.57,1.85c0,3.85-.38,6.36-3.91,8.09l-.92-.75a5.29,5.29,0,0,0,1.21-.61c2.25-1.34,2.55-3.43,2.55-5.77a8,8,0,0,0,0-1Z"/><path d="M57.47,43a6.31,6.31,0,0,0-.19.8A13,13,0,0,1,55.89,48,8.93,8.93,0,0,1,50.39,52L49.57,51a7.91,7.91,0,0,0,1.35-.36,7.54,7.54,0,0,0,3.92-2.91,10.68,10.68,0,0,0,1.35-4.16h-8v2.59c0,.24,0,.59,0,.8H47.15a6,6,0,0,0,.06-.86V43.67a6.17,6.17,0,0,0-.06-1.05,12.76,12.76,0,0,0,1.29.05h3.12V41.33a6.66,6.66,0,0,0-.07-1h1.19a8.28,8.28,0,0,0-.07,1v1.34h3.27a2.48,2.48,0,0,0,.92-.11Z"/><path d="M67.58,47.83A35,35,0,0,0,62,45.56v4.72c0,.45,0,1.16.07,1.61h-1.2A11.72,11.72,0,0,0,61,50.28V42.11a10.05,10.05,0,0,0-.1-1.41h1.22c0,.42-.08,1-.08,1.41v2.34a45.86,45.86,0,0,1,6,2.33Z"/><path d="M71.72,42.52v2.74c0,2.12-.17,5.2-1.36,7.3a4,4,0,0,0-.8-.53c1.14-2,1.25-4.78,1.25-6.77V41.63H76V39.8h1v1.83h5.39v.89Zm.07,8.3a10.74,10.74,0,0,0,1.28-4.25l.84.18a11.32,11.32,0,0,1-1.31,4.44Zm6.72.61c.61,0,.69-.38.75-2.44a3.77,3.77,0,0,0,.84.39c-.11,2.28-.35,2.9-1.52,2.9H76.44C75.27,52.28,75,52,75,50.85v-5.5h.91v5.52c0,.46.11.56.67.56Zm-.11-5.61a16,16,0,0,0-3.21-2.15l.64-.61a17.51,17.51,0,0,1,3.25,2.06Zm2.1.45a15.76,15.76,0,0,1,2.08,4.55l-.9.38a15.78,15.78,0,0,0-2-4.59Z"/><path d="M93.13,47.91a8.87,8.87,0,0,0,3.46,1.72,3.88,3.88,0,0,0-.6.75,8.91,8.91,0,0,1-2.06-1,1,1,0,0,1,0,.19c-.15,1.62-.32,2.31-.6,2.59a1.32,1.32,0,0,1-.84.29c-.32,0-1,0-1.67,0a1.74,1.74,0,0,0-.24-.77,15.53,15.53,0,0,0,1.57.07c.23,0,.34,0,.45-.11S92.86,51,93,50H89.71c-.61,1.31-1.79,2.15-4.2,2.67A2.5,2.5,0,0,0,85,51.9c2-.38,3.11-1,3.67-1.94H85.89v-.48a13.53,13.53,0,0,1-1.74.77,2,2,0,0,0-.56-.66,10.45,10.45,0,0,0,3.24-1.68H83.89v-.77h3.74a6,6,0,0,0,.58-.84H85.55V42.49h9.09V46.3H89.22a5.87,5.87,0,0,1-.53.84h7.55v.77Zm-5.88-6.36H84.07v-.78h3.18v-1h.91v1h3.75v-1h.91v1H96v.78H92.82v.73h-.91v-.73H88.16v.73h-.91Zm6.37,7.69a7.93,7.93,0,0,1-1.57-1.33H88a9,9,0,0,1-1.73,1.33H89a6.71,6.71,0,0,0,.25-1.05h.91c-.06.36-.13.71-.22,1.05Zm-7.17-5.17h7.27v-1H86.45Zm0,1.6h7.27v-1H86.45Z"/><path d="M18.66,6.32V10.4H11.77v19H6.92v-19H0V6.32Z"/><path d="M27.72,11.92l.38,0v4.57c-.28,0-.53-.06-.75-.07h-.53c-1.79,0-3,.58-3.61,1.75a6.67,6.67,0,0,0-.52,3v8.14H18.21v-17h4.25v3A9.49,9.49,0,0,1,24.25,13a4.9,4.9,0,0,1,3.25-1.05Z"/><path d="M31.85,32.61l.56,0a7.3,7.3,0,0,0,1.25,0,2.21,2.21,0,0,0,1-.36,2.49,2.49,0,0,0,.73-1.11,2.5,2.5,0,0,0,.28-1L29.42,12.32h4.95l3.72,12.56L41.6,12.32h4.74L40.5,29.07q-1.7,4.84-2.68,6c-.65.77-2,1.16-3.94,1.16h-1c-.24,0-.6,0-1.08,0Z"/><path d="M62.19,27.27Q60,29.92,55.64,29.93t-6.55-2.66a9.85,9.85,0,0,1-2.15-6.41,9.91,9.91,0,0,1,2.15-6.39q2.16-2.7,6.55-2.7t6.55,2.7a10,10,0,0,1,2.15,6.39A9.91,9.91,0,0,1,62.19,27.27ZM58.62,24.8a6.42,6.42,0,0,0,1.05-3.94,6.4,6.4,0,0,0-1.05-3.94,4,4,0,0,0-6,0,6.33,6.33,0,0,0-1.06,3.94,6.35,6.35,0,0,0,1.06,3.94,3.93,3.93,0,0,0,6,0Z"/><path d="M71.64,12.32V22.58A5.38,5.38,0,0,0,72,24.77a2.36,2.36,0,0,0,2.38,1.3,3.11,3.11,0,0,0,3.11-1.85,6.67,6.67,0,0,0,.43-2.64V12.32h4.52v17H78.09V26.94l-.31.47a3.26,3.26,0,0,1-.59.69,6.32,6.32,0,0,1-2,1.28,6.84,6.84,0,0,1-2.28.34q-3.78,0-5.08-2.71a10.44,10.44,0,0,1-.73-4.43V12.32Z"/><path d="M84.65,15.65V12.47H87V7.72h4.4v4.75H94.2v3.18H91.43v9A2,2,0,0,0,91.7,26a2.94,2.94,0,0,0,1.62.26h.43l.45,0v3.33l-2.11.07c-2.11.08-3.54-.29-4.31-1.09A3.26,3.26,0,0,1,87,26.13V15.65Z"/><path d="M113.81,49.08a2.4,2.4,0,1,0-2.39-2.4A2.39,2.39,0,0,0,113.81,49.08Z"/><path d="M157.94,54.5a53.8,53.8,0,0,0-8.66-2.93l.08-.23c.17-.55.11-1.22.35-1.43s-.15-.29.14-.38a7.61,7.61,0,0,1,3-.06,7.86,7.86,0,0,0,4.79-.67,20.37,20.37,0,0,0,3.48-2.28,16.5,16.5,0,0,0,2.07-2.1,13.11,13.11,0,0,0,1.26-1.2c.23-.36-.12-.32.21-.68a17.11,17.11,0,0,1,1.95-1.43c.59-.38.68-.64,1.26-.87s.65,0,1.35-.79,1.17-1.23,1.43-1.61.41-.24.35-.91a2.86,2.86,0,0,0-1-1.84c-.55-.5-1.6-1.17-2-1.49a5.5,5.5,0,0,0-.59-.47c-.17-.11-.38-.11-.52-.32a2.23,2.23,0,0,0-.36-.38,1,1,0,0,0-.29-.56c-.23-.19-.29-.19-.36-.32a3,3,0,0,0-.37-.56c-.18-.23-.3-.33-.39-.44a6,6,0,0,0-.8-.79,1,1,0,0,0-.65-.16c-.12,0-.21.23-.29.17l-.31-.23a.52.52,0,0,0-.48-.09.83.83,0,0,0-.38.22S149.36,15,149.06,14.51,135.94.24,135.7.09s-.7-.29-2,.94-1.31,1.58-1.05,1.81S143.24,14,143.24,14l.88.7s-3.87-.06-5.39,1.88A8.16,8.16,0,0,0,137,21.14a1.56,1.56,0,0,1-.24.91,26.16,26.16,0,0,1-2.51,1.23l0,.17,2.08.67a4.9,4.9,0,0,0,0,1.88,1.93,1.93,0,0,0,.91,1.05l.44.18a7.6,7.6,0,0,0,.23,1.08.57.57,0,0,1,0,.5,41.1,41.1,0,0,0-3.59,3.71c-.38.7-4.56,8.77-5.09,9.65s-1,1.51-1,1.51a5.34,5.34,0,0,1-.39,1.58,2.51,2.51,0,0,0-.29,1s.59.61.44.82a1.12,1.12,0,0,0-.26.55c0,.15.11.62-.09.56s-.32-.32-.49-.3-.42.59-.3.91a.37.37,0,0,1-.29.53,12.39,12.39,0,0,0-1.39,2.33A55.12,55.12,0,0,0,117,54.5,46.69,46.69,0,0,0,103.36,63a84.72,84.72,0,0,1,20.85-8.51,55.36,55.36,0,0,1,13.24-1.69,53.27,53.27,0,0,1,10.68,1.12A81.76,81.76,0,0,1,171.53,63,46.51,46.51,0,0,0,157.94,54.5Zm4.51-16.6a9.59,9.59,0,0,0,1.4-.76l.18.11s-.76.82-1.05,1.17a4.47,4.47,0,0,1-1.23.79c-.29.18-.61,0-1.23.18s-.93,1-1.11,1.2a4.15,4.15,0,0,1-1.26.52c-.67.24-2,.56-2.33.68a2.63,2.63,0,0,0-.85.49c-.29.21-.76.06-1.08-.11s-.15,0-.73.26a1.43,1.43,0,0,1-1.17-.06,1.47,1.47,0,0,1,.2-.64c.18-.23.12-.41.15-1.2a3.88,3.88,0,0,1,.23-1.26,8.89,8.89,0,0,1,1-.06c.55,0,1.05.12,1.81.12a6.44,6.44,0,0,0,1.2-.12,8,8,0,0,1,1.37-.32c.82-.06.47,0,.82,0a3,3,0,0,1,.7-.08,2.89,2.89,0,0,0,1.05-.09c.47-.15.68-.5.88-.59A5.71,5.71,0,0,0,162.45,37.9ZM150.38,23.28a12,12,0,0,1,.23-2.87c.18,0,3.22,2.87,3.78,3.28s6.89,7.16,6.89,7.16-.58,1-.87,1.49a3.08,3.08,0,0,0,0,1.67,1.41,1.41,0,0,1-.7-.29,1,1,0,0,0-.85-.12,5.67,5.67,0,0,0-.62.09c-.26.06-.4,0-.93-.12a1,1,0,0,0-.79.06l-.21-.47-.58-.11-.56-.33s0-.67-.06-1-.46-.73-.64-.91a1.81,1.81,0,0,1-.32-.79c-.09-.32-.76-.47-1.17-.93a8.63,8.63,0,0,1-1.17-1.7c-.2-.46-1.58-1.37-1.58-1.37S150.32,24.48,150.38,23.28Z"/></g></g></svg>