<svg xmlns="http://www.w3.org/2000/svg" viewBox="0 0 180 180"><defs><style>.cls-1{fill:gold;}.cls-2{fill:#ffbe00;}</style></defs><g id="Layer_2" data-name="Layer 2"><g id="レイヤー_1" data-name="レイヤー 1"><rect class="cls-1" width="180" height="180"/><path class="cls-2" d="M180,39.52A255.13,255.13,0,0,0,0,120v60H180Z"/><path d="M49.48,150.3A36.11,36.11,0,0,0,43.9,148l0,4.72c0,.45,0,1.16.06,1.61h-1.2a11.64,11.64,0,0,0,.08-1.61v-8.16a10.12,10.12,0,0,0-.09-1.42H44c0,.42-.08,1-.08,1.42v2.33a45.86,45.86,0,0,1,6,2.33Z"/><path d="M62.16,147.22a3,3,0,0,0-.17.38,9.48,9.48,0,0,1-2,4,10.1,10.1,0,0,1-5,2.9l-.77-.89A9.4,9.4,0,0,0,59.11,151a7.38,7.38,0,0,0,1.71-3.22H53.27c-.34,0-.85,0-1.34,0v-1c.49,0,1,.07,1.34.07h7.45a2,2,0,0,0,.73-.1Zm-9-3.62a9,9,0,0,0,1.2.06H60a9,9,0,0,0,1.22-.06v1c-.33,0-.77,0-1.25,0H54.4c-.42,0-.84,0-1.2,0Z"/><path d="M74.55,143.86a22.61,22.61,0,0,1-3.77,3v6.05a8.75,8.75,0,0,0,.09,1.43H69.63a10,10,0,0,0,.09-1.43v-5.42a28,28,0,0,1-5.35,2.23l-.58-1A23.05,23.05,0,0,0,70,146.2a15.36,15.36,0,0,0,3.67-3.11Z"/><path d="M87.88,144.5a5.07,5.07,0,0,0-.35.46,13.42,13.42,0,0,1-3.5,3.87l-.84-.66a9.78,9.78,0,0,0,3.15-3.23H78.23c-.51,0-1,0-1.57.08v-1.15a11.6,11.6,0,0,0,1.57.13h8.14a5.82,5.82,0,0,0,.89-.09Zm-5.58,1.85c0,3.85-.37,6.36-3.9,8.1l-.93-.76a5.51,5.51,0,0,0,1.22-.6c2.24-1.35,2.55-3.43,2.55-5.77a6.48,6.48,0,0,0-.06-1Z"/><path d="M100.24,145.47a7.15,7.15,0,0,0-.2.8,12.65,12.65,0,0,1-1.38,4.24,8.89,8.89,0,0,1-5.51,3.92l-.81-.92a7.32,7.32,0,0,0,1.35-.37,7.58,7.58,0,0,0,3.92-2.91A10.44,10.44,0,0,0,99,146.07H91v2.59a6.8,6.8,0,0,0,0,.8H89.92a5.8,5.8,0,0,0,0-.85v-2.47a7.53,7.53,0,0,0,0-1,12.57,12.57,0,0,0,1.29.06h3.12V143.8a6.74,6.74,0,0,0-.07-1h1.19a6.74,6.74,0,0,0-.07,1v1.35h3.26a2.44,2.44,0,0,0,.93-.12Z"/><path d="M110.35,150.3a36.11,36.11,0,0,0-5.58-2.27l0,4.72a14.45,14.45,0,0,0,.07,1.61h-1.21a11.57,11.57,0,0,0,.09-1.61v-8.16a10.19,10.19,0,0,0-.1-1.42h1.22c0,.42-.09,1-.09,1.42v2.33a45.32,45.32,0,0,1,6,2.33Z"/><path d="M114.49,145v2.75c0,2.11-.17,5.19-1.36,7.29a4.63,4.63,0,0,0-.8-.53c1.13-2,1.25-4.77,1.25-6.76v-3.63h5.17v-1.84h1v1.84h5.39V145Zm.07,8.31a10.79,10.79,0,0,0,1.27-4.26l.84.18a11.48,11.48,0,0,1-1.3,4.44Zm6.72.6c.6,0,.69-.38.74-2.44a4,4,0,0,0,.84.4c-.11,2.28-.35,2.89-1.51,2.89h-2.14c-1.18,0-1.49-.32-1.49-1.42v-5.51h.91v5.52c0,.46.12.56.68.56Zm-.11-5.6a16,16,0,0,0-3.21-2.16l.63-.6a16.7,16.7,0,0,1,3.25,2.06Zm2.1.45a15.48,15.48,0,0,1,2.07,4.55l-.89.38a15.76,15.76,0,0,0-2-4.6Z"/><path d="M135.9,150.38a8.89,8.89,0,0,0,3.46,1.73,3.82,3.82,0,0,0-.6.74,9.1,9.1,0,0,1-2.06-.95c0,.07,0,.14,0,.18-.16,1.62-.32,2.31-.6,2.59a1.26,1.26,0,0,1-.84.29c-.33,0-1,0-1.67,0a1.83,1.83,0,0,0-.24-.77,15.43,15.43,0,0,0,1.57.07.59.59,0,0,0,.45-.12c.17-.16.29-.63.42-1.69h-3.28c-.62,1.32-1.79,2.16-4.2,2.67a2.52,2.52,0,0,0-.48-.72c2-.38,3.11-1,3.67-1.95h-2.81V152a12.8,12.8,0,0,1-1.74.77,2,2,0,0,0-.56-.65,10.39,10.39,0,0,0,3.23-1.69h-2.94v-.77h3.74a5.37,5.37,0,0,0,.59-.84h-2.66V145h9.09v3.81H132a5.37,5.37,0,0,1-.53.84H139v.77ZM130,144h-3.18v-.78H130v-1h.91v1h3.76v-1h.91v1h3.22V144h-3.22v.73h-.91V144h-3.76v.73H130Zm6.38,7.7a8.32,8.32,0,0,1-1.57-1.34h-4a9.4,9.4,0,0,1-1.74,1.34h2.73a5.87,5.87,0,0,0,.26-1.06H133a8.63,8.63,0,0,1-.23,1.06Zm-7.17-5.17h7.27v-1h-7.27Zm0,1.59h7.27v-1h-7.27Z"/><path d="M61.43,108.79v4.08H54.54v18.95H49.69V112.87H42.77v-4.08Z"/><path d="M70.48,114.39l.39,0V119l-.75-.06-.54,0c-1.79,0-3,.58-3.61,1.75a6.89,6.89,0,0,0-.51,3v8.14H61v-17h4.25v3a9.68,9.68,0,0,1,1.8-2.33,4.88,4.88,0,0,1,3.25-1Z"/><path d="M74.61,135.09l.57,0a6.44,6.44,0,0,0,1.25-.05,2.26,2.26,0,0,0,1-.36,2.3,2.3,0,0,0,.72-1.11,2.56,2.56,0,0,0,.29-1l-6.26-17.78h5l3.72,12.56,3.51-12.56h4.74l-5.84,16.75q-1.69,4.85-2.68,6c-.66.78-2,1.16-3.94,1.16h-1l-1.08-.06Z"/><path d="M105,129.74c-1.43,1.77-3.62,2.66-6.54,2.66s-5.11-.89-6.55-2.66a10.55,10.55,0,0,1,0-12.79q2.16-2.7,6.55-2.7c2.92,0,5.11.9,6.54,2.7a10.55,10.55,0,0,1,0,12.79Zm-3.56-2.46a7.94,7.94,0,0,0,0-7.89,4,4,0,0,0-6,0,7.94,7.94,0,0,0,0,7.89,3.94,3.94,0,0,0,6,0Z"/><path d="M114.4,114.79v10.27a5.35,5.35,0,0,0,.35,2.19,2.35,2.35,0,0,0,2.37,1.29,3.1,3.1,0,0,0,3.11-1.84,6.72,6.72,0,0,0,.44-2.64v-9.27h4.52v17h-4.33v-2.4c0,.05-.15.21-.31.47a3,3,0,0,1-.6.68,6,6,0,0,1-2,1.28,6.85,6.85,0,0,1-2.29.35q-3.77,0-5.08-2.72a10.55,10.55,0,0,1-.73-4.42V114.79Z"/><path d="M127.42,118.12V115h2.37V110.2h4.41V115H137v3.17H134.2v9c0,.7.09,1.13.27,1.3s.71.26,1.62.26h.43l.45,0V132l-2.11.08c-2.11.07-3.55-.29-4.32-1.1a3.25,3.25,0,0,1-.75-2.36V118.12Z"/><path d="M61.24,80.06a2.92,2.92,0,1,0-2.91-2.92A2.92,2.92,0,0,0,61.24,80.06Z"/><path d="M114.93,86.64a67.35,67.35,0,0,0-10.54-3.56,1.71,1.71,0,0,0,.09-.27c.22-.67.15-1.5.43-1.74s-.18-.36.18-.46a9,9,0,0,1,3.63-.08,9.68,9.68,0,0,0,5.83-.81,24.6,24.6,0,0,0,4.23-2.78,21.14,21.14,0,0,0,2.53-2.56,16.55,16.55,0,0,0,1.53-1.46c.28-.43-.15-.39.25-.82a19.43,19.43,0,0,1,2.38-1.74c.71-.46.82-.78,1.53-1.07s.78,0,1.63-1,1.43-1.49,1.75-2,.49-.29.42-1.1A3.48,3.48,0,0,0,129.63,63c-.68-.61-2-1.43-2.42-1.82a6,6,0,0,0-.71-.56c-.21-.15-.46-.15-.64-.4a2.93,2.93,0,0,0-.43-.46,1.25,1.25,0,0,0-.35-.68c-.29-.24-.36-.24-.44-.39a4.79,4.79,0,0,0-.45-.68c-.23-.28-.37-.4-.48-.54a7.35,7.35,0,0,0-1-1,1.36,1.36,0,0,0-.8-.2c-.14,0-.25.28-.35.21s-.27-.21-.37-.28a.62.62,0,0,0-.59-.1,1,1,0,0,0-.46.26s-15.69-17.91-16-18.44-16-17.36-16.25-17.54-.86-.35-2.39,1.14-1.6,1.92-1.28,2.21S97.05,37.36,97.05,37.36l1.06.86s-4.7-.08-6.55,2.28a9.88,9.88,0,0,0-2.08,5.57,1.92,1.92,0,0,1-.29,1.1c-.11.18-3.06,1.5-3.06,1.5l0,.21,2.53.81a6,6,0,0,0,0,2.28,2.3,2.3,0,0,0,1.1,1.28l.54.22a10.24,10.24,0,0,0,.28,1.31.72.72,0,0,1,0,.61,50,50,0,0,0-4.38,4.52c-.46.84-5.54,10.66-6.19,11.73s-1.2,1.85-1.2,1.85a6.62,6.62,0,0,1-.47,1.92,3,3,0,0,0-.35,1.21s.71.75.53,1a1.39,1.39,0,0,0-.32.67c0,.18.14.75-.1.68s-.4-.39-.61-.36-.5.71-.36,1.11-.1.56-.35.63a14.9,14.9,0,0,0-1.69,2.84,69,69,0,0,0-10.09,3.45c-6,2.61-12,6-16.53,10.3A102.91,102.91,0,0,1,73.89,86.59,67.44,67.44,0,0,1,90,84.53a65.25,65.25,0,0,1,13,1.36,99.65,99.65,0,0,1,28.47,11C126.92,92.61,121,89.25,114.93,86.64Zm5.49-20.19a11.64,11.64,0,0,0,1.7-.92l.22.14s-.93,1-1.28,1.42a5.73,5.73,0,0,1-1.5,1c-.35.21-.74,0-1.49.21s-1.14,1.25-1.35,1.46a5,5,0,0,1-1.53.64c-.82.29-2.38.68-2.85.82a3.28,3.28,0,0,0-1,.6,1.33,1.33,0,0,1-1.31-.14c-.39-.21-.18,0-.89.32a1.76,1.76,0,0,1-1.43-.07,1.84,1.84,0,0,1,.25-.78c.22-.28.15-.5.18-1.46a4.62,4.62,0,0,1,.29-1.53,11,11,0,0,1,1.21-.07c.67,0,1.28.14,2.2.14a7.58,7.58,0,0,0,1.46-.14,10.17,10.17,0,0,1,1.67-.39c1-.07.57,0,1,0a3.71,3.71,0,0,1,.85-.1,3.34,3.34,0,0,0,1.28-.11c.57-.18.82-.61,1.07-.71A7.28,7.28,0,0,0,120.42,66.45ZM105.73,48.67c.07-1.46.07-3.53.28-3.49s3.92,3.49,4.59,4S119,57.88,119,57.88s-.71,1.17-1.06,1.81a3.8,3.8,0,0,0,0,2,1.62,1.62,0,0,1-.85-.36,1.29,1.29,0,0,0-1-.14,7.52,7.52,0,0,0-.75.11,2.45,2.45,0,0,1-1.13-.14,1.28,1.28,0,0,0-1,.07l-.25-.57-.71-.14-.67-.4s0-.81-.08-1.28-.56-.89-.78-1.1a2.3,2.3,0,0,1-.39-1c-.1-.39-.92-.57-1.42-1.14a9.77,9.77,0,0,1-1.42-2.06c-.25-.57-1.93-1.67-1.93-1.67S105.66,50.13,105.73,48.67Z"/></g></g></svg>