<svg xmlns="http://www.w3.org/2000/svg" viewBox="0 0 126.72 141.63"><g id="レイヤー_2" data-name="レイヤー 2"><g id="レイヤー_1-2" data-name="レイヤー 1"><path d="M25.42,79.48H29V89.74a5.87,5.87,0,0,0,.4,2.52,2.7,2.7,0,0,0,2.76,1.4,2.68,2.68,0,0,0,2.74-1.4,5.84,5.84,0,0,0,.41-2.52V79.48h3.55V89.75A8.61,8.61,0,0,1,38,93.9q-1.53,2.71-5.87,2.72T26.24,93.9a8.62,8.62,0,0,1-.82-4.15Z"/><path d="M57.24,83.88A3.55,3.55,0,0,1,58.68,85a3.63,3.63,0,0,1,.71,1.59,11.59,11.59,0,0,1,.11,1.82l0,7.79H56.17V88.32a2.56,2.56,0,0,0-.23-1.15,1.62,1.62,0,0,0-1.59-.87,1.86,1.86,0,0,0-1.85,1.12,3.51,3.51,0,0,0-.26,1.41v7.36H49V88.83a4,4,0,0,0-.23-1.6,1.58,1.58,0,0,0-1.59-.89,1.9,1.9,0,0,0-1.86.89,3.38,3.38,0,0,0-.26,1.52v7.44H41.77V83.86h3.14v1.8A5.28,5.28,0,0,1,46,84.29a4.49,4.49,0,0,1,4.73-.11,3.71,3.71,0,0,1,1.07,1.49,4,4,0,0,1,1.57-1.6,4.83,4.83,0,0,1,2.22-.51A4.32,4.32,0,0,1,57.24,83.88Z"/><path d="M72.7,85.16a6.56,6.56,0,0,1,1.51,4.69,7.39,7.39,0,0,1-1.48,5,4.78,4.78,0,0,1-3.8,1.71,4,4,0,0,1-2.47-.74,5.07,5.07,0,0,1-1-1.19v6.44H62.22V83.83h3.09v1.83a5.06,5.06,0,0,1,1.12-1.27A4.13,4.13,0,0,1,69,83.56,4.88,4.88,0,0,1,72.7,85.16Zm-2.48,2.32a2.31,2.31,0,0,0-2.14-1.1,2.44,2.44,0,0,0-2.44,1.67,6.25,6.25,0,0,0-.34,2.24,3.57,3.57,0,0,0,1.16,3,2.63,2.63,0,0,0,1.62.51,2.38,2.38,0,0,0,2.08-1,5.45,5.45,0,0,0,.06-5.31Z"/><path d="M79.75,82.36H76.48v-3h3.27Zm-3.27,1.47h3.27V96.19H76.48Z"/><path d="M89.5,83.54l.28,0v3.31c-.2,0-.38,0-.54,0l-.39,0a2.7,2.7,0,0,0-2.62,1.27,5,5,0,0,0-.37,2.2v5.91H82.61V83.83h3.08V86A6.72,6.72,0,0,1,87,84.3a3.54,3.54,0,0,1,2.36-.76Z"/><path d="M99.73,84.08a5.06,5.06,0,0,1,2.13,1.83,6.21,6.21,0,0,1,1,2.56,16.23,16.23,0,0,1,.1,2.45H94a2.93,2.93,0,0,0,1.3,2.6A3.26,3.26,0,0,0,97,94a2.72,2.72,0,0,0,1.79-.57,2.56,2.56,0,0,0,.66-.85h3.3a4,4,0,0,1-1.19,2.24,6,6,0,0,1-4.65,1.8,6.77,6.77,0,0,1-4.36-1.52c-1.25-1-1.88-2.66-1.88-5a6.7,6.7,0,0,1,1.7-4.92,6,6,0,0,1,4.42-1.72A7.16,7.16,0,0,1,99.73,84.08Zm-4.84,2.79A3.42,3.42,0,0,0,94,88.79H99.6a2.74,2.74,0,0,0-.86-2,2.87,2.87,0,0,0-1.92-.66A2.57,2.57,0,0,0,94.89,86.87Z"/><path d="M42.47,102v3h-5v13.75H34V104.93h-5v-3Z"/><path d="M49.13,106l.28,0v3.31l-.55,0h-.38a2.7,2.7,0,0,0-2.62,1.27,5,5,0,0,0-.37,2.2v5.91H42.23V106.32h3.09v2.16a6.72,6.72,0,0,1,1.3-1.69A3.52,3.52,0,0,1,49,106Z"/><path d="M52.18,121.05l.41,0a6.6,6.6,0,0,0,.9,0,1.64,1.64,0,0,0,.73-.27,1.71,1.71,0,0,0,.53-.8,2.07,2.07,0,0,0,.21-.75l-4.54-12.9H54l2.7,9.12,2.55-9.12h3.43l-4.23,12.15a16.78,16.78,0,0,1-2,4.36,3.69,3.69,0,0,1-2.86.85H53l-.78,0Z"/><path d="M74.26,117.17a5.79,5.79,0,0,1-4.75,1.93,5.76,5.76,0,0,1-4.75-1.93,7.66,7.66,0,0,1,0-9.29,5.71,5.71,0,0,1,4.75-1.95,5.74,5.74,0,0,1,4.75,1.95,7.7,7.7,0,0,1,0,9.29Zm-2.59-1.79a5.76,5.76,0,0,0,0-5.72,2.55,2.55,0,0,0-2.17-1,2.58,2.58,0,0,0-2.19,1,5.76,5.76,0,0,0,0,5.72,2.59,2.59,0,0,0,2.19,1A2.55,2.55,0,0,0,71.67,115.38Z"/><path d="M81.17,106.32v7.45a3.87,3.87,0,0,0,.25,1.59,1.72,1.72,0,0,0,1.72.94A2.27,2.27,0,0,0,85.4,115a4.85,4.85,0,0,0,.32-1.92v-6.72H89v12.36H85.85v-1.75l-.22.34a2.32,2.32,0,0,1-.43.5,4.7,4.7,0,0,1-1.47.93,4.85,4.85,0,0,1-1.65.25,3.69,3.69,0,0,1-3.69-2,7.67,7.67,0,0,1-.53-3.21v-7.45Z"/><path d="M90.67,108.74v-2.3h1.72V103h3.2v3.45h2v2.3h-2v6.53a1.51,1.51,0,0,0,.19.94,2.09,2.09,0,0,0,1.18.19h.64v2.41l-1.53.06c-1.53.05-2.57-.21-3.13-.8a2.37,2.37,0,0,1-.55-1.71v-7.6Z"/><path d="M8.26,134.75A12.16,12.16,0,0,0,13,137a4.08,4.08,0,0,0-.6.73,10.29,10.29,0,0,1-1.41-.49v4.27h-.91v-.4h-7v.45H2.2v-4.29a13.67,13.67,0,0,1-1.6.64,3.48,3.48,0,0,0-.6-.72,13.86,13.86,0,0,0,4.76-2.39H.43V134H3.28a6,6,0,0,0-.63-1.23l.78-.21a4.93,4.93,0,0,1,.74,1.41l-.09,0h2v-1.58c-1.19.07-2.41.11-3.52.11a2.6,2.6,0,0,0-.21-.69,58.92,58.92,0,0,0,7.75-.56l.5.66a36.08,36.08,0,0,1-3.65.42V134H8.81a10.86,10.86,0,0,0,.8-1.6l.91.28c-.27.47-.55.94-.8,1.32h2.93v.78Zm-6.71-2.36H.7v-2.47H6.08V128.8H7v1.12h5.42v2.47h-.88v-1.66h-10Zm4.53,4.91h-3v1.18h3Zm-3,3h3v-1.22h-3Zm6.68-3.72a10.51,10.51,0,0,1-2.57-1.87H7v1.73H6.08v-1.73H5.91a12.36,12.36,0,0,1-2.55,1.87Zm.33.68H7v1.18h3.14Zm0,3v-1.22H7v1.22Z"/><path d="M18.2,136.28h3.14v.88H18.2v4.39h-.88v-4.39H14.15v-.88h3.17v-2.1H14.56v-.87h2.76v-4.5h.88v4.5H21v.87H18.2Zm-2.56-3.61a16.12,16.12,0,0,0-1-2.85l.76-.22a13.62,13.62,0,0,1,1.09,2.8Zm5.48-2.92a26.48,26.48,0,0,1-1.42,3l-.73-.23a16.7,16.7,0,0,0,1.24-3Zm.77.72h.91v7.67h-.91Zm4.37-1.4v11.22c0,.66-.2,1-.61,1.1a8.94,8.94,0,0,1-2.48.17,4,4,0,0,0-.35-.92c1,0,1.88,0,2.15,0s.36-.1.36-.36V129.07Z"/><path d="M30.23,131.11a10,10,0,0,0-.1-1.41h1.23a14,14,0,0,0-.1,1.41v2.34a44.79,44.79,0,0,1,6,2.33l-.43,1.05a37.26,37.26,0,0,0-5.58-2.29c0,2.16,0,4.36,0,4.74s0,1.16.07,1.61H30.14a11.57,11.57,0,0,0,.09-1.61Z"/><path d="M49.36,134.12a9.59,9.59,0,0,1-2,4,10.1,10.1,0,0,1-5,2.9l-.77-.88a9.44,9.44,0,0,0,4.93-2.59,7.26,7.26,0,0,0,1.71-3.23H40.63c-.34,0-.84,0-1.33.06v-1.06c.49,0,1,.07,1.33.07h7.45a2,2,0,0,0,.73-.1l.71.45A3.45,3.45,0,0,0,49.36,134.12Zm-7.6-3.93h5.55a8.73,8.73,0,0,0,1.22-.07v1c-.32,0-.77,0-1.25,0H41.76c-.4,0-.84,0-1.2,0v-1A8.92,8.92,0,0,0,41.76,130.19Z"/><path d="M57.29,132.88a16.63,16.63,0,0,0,3.81-3.28l.84.77a23.44,23.44,0,0,1-3.79,3.14v6a9,9,0,0,0,.08,1.43H57a12.34,12.34,0,0,0,.08-1.43v-5.29a29.12,29.12,0,0,1-5.4,2.31l-.51-1A24,24,0,0,0,57.29,132.88Z"/><path d="M74.89,131.49a13.38,13.38,0,0,1-3.5,3.87l-.84-.66a9.61,9.61,0,0,0,3.15-3.24H65.59c-.5,0-1,0-1.57.09V130.4a11.73,11.73,0,0,0,1.57.12h8.14a6.15,6.15,0,0,0,.9-.08l.61.59ZM65.76,141l-.92-.75a5.29,5.29,0,0,0,1.21-.61c2.25-1.34,2.55-3.43,2.55-5.77a8,8,0,0,0,0-1h1.12C69.67,136.73,69.29,139.24,65.76,141Z"/><path d="M82.74,130.33v1.34H86a2.48,2.48,0,0,0,.92-.11l.67.43c-.06.19-.14.54-.19.8A13,13,0,0,1,86,137a8.83,8.83,0,0,1-5.5,3.92L79.7,140a7.08,7.08,0,0,0,1.35-.36,7.58,7.58,0,0,0,3.92-2.9,10.78,10.78,0,0,0,1.35-4.17h-8v2.59c0,.24,0,.59,0,.8H77.28a6,6,0,0,0,.06-.86v-2.46a6.11,6.11,0,0,0-.06-1,12.76,12.76,0,0,0,1.29,0h3.12v-1.34a6.74,6.74,0,0,0-.07-1h1.19A8.41,8.41,0,0,0,82.74,130.33Z"/><path d="M91.1,131.11a10,10,0,0,0-.1-1.41h1.24a11.54,11.54,0,0,0-.1,1.41v2.34a45.32,45.32,0,0,1,6,2.33l-.44,1.05a37.16,37.16,0,0,0-5.57-2.29c0,2.16,0,4.36,0,4.74s0,1.16.07,1.61H91a11.64,11.64,0,0,0,.08-1.61Z"/><path d="M101.85,131.52v2.74c0,2.12-.17,5.2-1.36,7.3a4,4,0,0,0-.8-.53c1.14-2,1.25-4.78,1.25-6.77v-3.62h5.17V128.8h1v1.84h5.4v.88Zm.07,8.3a10.74,10.74,0,0,0,1.28-4.25l.84.18a11.32,11.32,0,0,1-1.31,4.44Zm6.73.61c.6,0,.68-.38.74-2.44a3.77,3.77,0,0,0,.84.39c-.11,2.29-.35,2.9-1.52,2.9h-2.14c-1.17,0-1.48-.32-1.48-1.43v-5.5H106v5.52c0,.46.11.56.67.56Zm-.12-5.61a16.6,16.6,0,0,0-3.2-2.15l.63-.61a17.51,17.51,0,0,1,3.25,2.06Zm2.1.45a15.5,15.5,0,0,1,2.08,4.55l-.9.38a15.78,15.78,0,0,0-2-4.59Z"/><path d="M123.26,136.91a9.19,9.19,0,0,0,3.46,1.74,3.25,3.25,0,0,0-.6.73,8.91,8.91,0,0,1-2.06-1,1.2,1.2,0,0,1,0,.2c-.15,1.61-.32,2.3-.6,2.58a1.32,1.32,0,0,1-.84.29c-.32,0-1,0-1.67,0a1.74,1.74,0,0,0-.24-.77,15.53,15.53,0,0,0,1.57.07c.23,0,.34,0,.45-.11s.3-.63.42-1.69h-3.28c-.61,1.31-1.79,2.15-4.2,2.67a2.68,2.68,0,0,0-.47-.73c2-.37,3.1-1,3.66-1.94H116v-.48a13.53,13.53,0,0,1-1.74.77,2.1,2.1,0,0,0-.56-.66,10.45,10.45,0,0,0,3.24-1.68H114v-.77h3.74a6,6,0,0,0,.58-.84h-2.66v-3.81h9.09v3.81h-5.42a5.87,5.87,0,0,1-.53.84h7.55v.77Zm-5.88-6.36H114.2v-.78h3.18v-1h.91v1H122v-1H123v1h3.22v.78H123v.73H122v-.73h-3.75v.73h-.91Zm6.37,7.69a7.93,7.93,0,0,1-1.57-1.33h-4a8.59,8.59,0,0,1-1.73,1.33h2.73a6.46,6.46,0,0,0,.25-1.05h.91a10.21,10.21,0,0,1-.22,1.05Zm-7.17-5.17h7.27v-.95h-7.27Zm0,1.6h7.27v-1h-7.27Z"/><path d="M80.77,58.55l.11,0c.08,0,.34-.09.35-.22s-.27-.17-.34-.24a2.59,2.59,0,0,1-.34-.58c-.16-.29-.34-.56-.49-.86-.28-.53-.54-1-.77-1.58a2,2,0,0,0-.25-.47c.09,0,.17-.08.2-.17s-.13-.28-.13-.43c0-.32.56-.42.22-.75s-.74-.31-.78-.77c0-.15-.1-.32-.1-.45a.73.73,0,0,1,.21-.44c.49-.63.74-.88,1.35-1.67a18.52,18.52,0,0,0,1.55-2.4,23.52,23.52,0,0,1,1.52-2.72c.28-.39.51-.78.78-1.17a1.51,1.51,0,0,0,.31-.65,2.93,2.93,0,0,0-.31-1.35,14.46,14.46,0,0,0-2.14-2.85c-.33-.41-.73-.72-1-1.15-.13-.18-.27-.34-.41-.51l0,0c.14-.08.2-.14.09-.27s-.38-.46-.59-.68a3.64,3.64,0,0,0-1-.75,3.43,3.43,0,0,1-.64-.56A7.84,7.84,0,0,0,76.94,34a3.63,3.63,0,0,1-.87-1.08,1.08,1.08,0,0,0-.39-.43,2.79,2.79,0,0,0-.39-.1,1.56,1.56,0,0,1-1-.76,1.2,1.2,0,0,0-.19-.47c-.12-.13-.28-.11-.4-.23a2,2,0,0,1-.29-.69c-.08-.19-.17-.38-.26-.56l-.8-1.51A8.45,8.45,0,0,0,71.64,27a1.28,1.28,0,0,0-.29-.28h0a4.21,4.21,0,0,0-.61-1.56c-.35-.44-.9-.87-1.27-1.27-.6-.62-.92-1.46-1.47-2.13a9.54,9.54,0,0,0-2.23-2c-.29-.18-.59-.32-.87-.51-.08-.05-.16-.12-.25-.19a.06.06,0,0,1,0,0c0-.11-.11-.13-.2-.18-.27-.13-.53-.24-.78-.39a12.58,12.58,0,0,1-1-.95,5.47,5.47,0,0,0-.7-.4,1.48,1.48,0,0,0-.7-.1,1.27,1.27,0,0,1-.09-.43c0-.21,0-.43,0-.64a.37.37,0,0,0-.12-.24l0-.07a1.75,1.75,0,0,0,.33.05,1,1,0,0,1-.24-.38c.13.06.29.2.43.18a.89.89,0,0,1-.29-.63c.07.11.16.22.22.32a8.56,8.56,0,0,1,0-1.68,2.72,2.72,0,0,1,.17.62A2.51,2.51,0,0,0,61.47,13a.46.46,0,0,1,.21.24s0-.08,0-.11a1.24,1.24,0,0,0-.19-.36,3.64,3.64,0,0,1,.45,0,.87.87,0,0,0-.32-.24,1,1,0,0,1,.3,0,1,1,0,0,1-.39-.2c-.1-.09-.22-.27-.35-.3a1.24,1.24,0,0,0,.38.05,1.16,1.16,0,0,1-.63-.41.5.5,0,0,0,.21.05.86.86,0,0,1-.18-.17.51.51,0,0,0,.2-.18c.18-.28,0-.76,0-1.09a4.71,4.71,0,0,1,.22-.84,1.73,1.73,0,0,0,0-.68c-.11-.72,0-1.46,0-2.19a4.33,4.33,0,0,0-.13-1.44h0a5.91,5.91,0,0,0-.84-3.27C59.64.68,57.84.5,56.77.49a25.66,25.66,0,0,0-4.31.6s0,0,0,0,0-.13,0-.22h0a.27.27,0,0,0,.16-.28c0-.22-.3-.27-.54-.28a.23.23,0,0,0-.07-.14A.85.85,0,0,0,51.41,0,.94.94,0,0,0,51,.16a.42.42,0,0,0-.11.31l-.18.11a.83.83,0,0,0-.19.23.24.24,0,0,0,0,.08.65.65,0,0,0-.17-.26,4.09,4.09,0,0,0-.42-.39A.83.83,0,0,0,49.4,0a4.51,4.51,0,0,0-.83,0,7.63,7.63,0,0,0-1.73.65,2.92,2.92,0,0,0-.78.67,1.18,1.18,0,0,0-.32.65c0,.19-.12.5-.17.71l-.12.07c-.24.09-1.48.51-1.73.62a4,4,0,0,0-.62.32c-.21.13-.72.44-1.07.67a1.55,1.55,0,0,0-.78.89c-.22.52-1.35,3.19-1.48,3.51s0,.58.29.58h.56c.36,0,.5.14.91.16l.74,0a15.14,15.14,0,0,0,.14,3.2,7.18,7.18,0,0,0-2.18.53c-.22.16-.26.36,0,.47.18.77.91,3.09,1.11,3.65a7,7,0,0,0,.59,1.33c.28.49,2,3,2.29,3.47s.19.48.12.94-.37,1.62-.45,2-.2.94.38,1,1.48,0,1.84,0a1.52,1.52,0,0,0,1.14-.5,9.78,9.78,0,0,0,1.25-2.19,5.74,5.74,0,0,0,.34-1.21c0-.22.06-.47.07-.69l.62-.05a1.83,1.83,0,0,0,.57-.14,1.45,1.45,0,0,0,.49-.55l.15-.34a1.28,1.28,0,0,1,.55,0,1.51,1.51,0,0,1,.37.25,3.73,3.73,0,0,1,.41.39A12.33,12.33,0,0,0,50.2,22.7l-.71.71a6.7,6.7,0,0,0-.67.64c-.12.15-.28.44-.08.57l.27.19a7.28,7.28,0,0,0-.38,1.44,22.4,22.4,0,0,0-.38,3.56,11.07,11.07,0,0,1,0,1.41,3.62,3.62,0,0,0-.08.87A9.7,9.7,0,0,0,49,34.91a7.85,7.85,0,0,1,.27.87,2,2,0,0,0,.09.2.87.87,0,0,0,0,.32c0,.21.21.27.27.45s0,.42,0,.6.18.43.28.66a1.81,1.81,0,0,1,.11.65,5.57,5.57,0,0,0,.25.79c.11.41.28.82.35,1.24.28,1.68,2,7.75,2.28,9.45a11.11,11.11,0,0,0,.55,2.41,5.82,5.82,0,0,1,.44,1.32,21.39,21.39,0,0,0,.78,2,15.23,15.23,0,0,1,.39,2.06M56.8.63a3.22,3.22,0,0,1,3.21,3L59.25,3a7.53,7.53,0,0,0-1-.79,5.7,5.7,0,0,0-1.51-.5,8.79,8.79,0,0,0-2.61-.28,4.73,4.73,0,0,1-.65,0c-.12,0-.22,0-.35,0h-.24a.32.32,0,0,0,0-.14.18.18,0,0,0,0-.07A15.29,15.29,0,0,1,56.8.63Zm-6.3.62c0,.11.21.06.33.07a1.2,1.2,0,0,0,.27,0l.28-.05a2.45,2.45,0,0,0,.51-.2l.51-.2L51,2.44a1.21,1.21,0,0,0-.65-.87l.09-.13A.41.41,0,0,0,50.5,1.25Zm-4.42.67a.59.59,0,0,1,.17-.33A2.34,2.34,0,0,1,47,1C47.28.8,48,.47,48.2.41a1.76,1.76,0,0,1,.51-.09c.19,0,.36,0,.55,0a.62.62,0,0,1,.41.18,3.74,3.74,0,0,1,.44.39c.11.11.07.25,0,.4s-.11.14-.2.26l-.29,0c-.2,0-.4.11-.6.14a3.65,3.65,0,0,1-.47,0,1.49,1.49,0,0,0-.81.15.89.89,0,0,1-.45.12A3.45,3.45,0,0,0,46,2.46C46,2.25,46.06,2,46.08,1.92ZM43.16,4.17A2.29,2.29,0,0,1,43.43,4l-.2.35a1.37,1.37,0,0,1-.19.23,7.68,7.68,0,0,0-1,.27.34.34,0,0,1,.14-.09C42.4,4.65,43,4.3,43.16,4.17ZM41.72,5.29l0,0c0,.16.15.19.28.2h.35A5.35,5.35,0,0,1,42.3,6a5.86,5.86,0,0,0-.07.94.37.37,0,0,1,0,.11,6.4,6.4,0,0,0-.83,1.6,4.69,4.69,0,0,0-1.14.1C40.52,8.07,41.57,5.56,41.72,5.29Zm.9,4.3h.13a.88.88,0,0,0,.74.3c-.07.18-.13.57,0,.58l.22,0a6.86,6.86,0,0,0,.15,1.32c0,.12.08.43.16.79l-1.25.18A15.29,15.29,0,0,1,42.62,9.59ZM44.42,22a2,2,0,0,0,.5,0,6.1,6.1,0,0,1-.2,1.45c0,.12-.15.35-.27.6.08-.42.17-.84.2-1.06C44.73,22.58,44.74,22.55,44.42,22Zm-2.05-8-.09-.17.3,0Zm4.21-3.26a.6.6,0,0,1,.14.21,2.3,2.3,0,0,1-.21.33,3.6,3.6,0,0,0-.56.89c-.14.33-.29.66-.4,1l-1,0c-.12-.6-.26-1.26-.29-1.44a7.7,7.7,0,0,1-.16-1.48h.31c.27,0,1.1,0,2.2,0a.76.76,0,0,1,0,.15c0,.13-.11.17-.22.24C46.45,10.69,46.52,10.67,46.58,10.72Zm-6,3.12c.26,0,.73,0,1.3,0a4.91,4.91,0,0,1,.22.46,1.06,1.06,0,0,0-.06,1,2.53,2.53,0,0,0,.45.53,2.48,2.48,0,0,1,.53.8,1,1,0,0,1,.08.33,1,1,0,0,0-.31.35,1.39,1.39,0,0,0-.71.34.9.9,0,0,0-.22.26c-.06-.16-.12-.33-.21-.56C41.47,16.8,40.83,14.74,40.59,13.84Zm7.82,8.5a4.92,4.92,0,0,1-.45,1.3,8.3,8.3,0,0,1-1,1.66,1.59,1.59,0,0,1-.89.52,16.84,16.84,0,0,1-1.73,0c-.28,0-.24-.17-.19-.44,0,0,0-.07,0-.12.25-.47.67-1.29.77-1.57A6.12,6.12,0,0,0,45.22,22c.35-.05.6-.3.93-.33a3.51,3.51,0,0,1,.56,0,9.12,9.12,0,0,0,1.38,0l.4,0C48.46,21.87,48.43,22.11,48.41,22.34Z"/><path d="M105.08,70.47h.16C94.06,61.79,79.51,55,63.87,55,48,55,33.75,62,22.51,70.81,33.75,64.33,48,58.4,63.87,58.4,79.43,58.4,93.92,64.13,105.08,70.47Z"/></g></g></svg>