<svg xmlns="http://www.w3.org/2000/svg" viewBox="0 0 96.59 134.76"><g id="レイヤー_2" data-name="レイヤー 2"><g id="レイヤー_1-2" data-name="レイヤー 1"><path d="M6.71,130a37.13,37.13,0,0,0-5.58-2.27l0,4.72A14.63,14.63,0,0,0,1.22,134H0A11.8,11.8,0,0,0,.1,132.4v-8.16a10.3,10.3,0,0,0-.1-1.42H1.22c0,.42-.09,1-.09,1.42v2.34a46.74,46.74,0,0,1,6,2.32Z"/><path d="M19.39,126.87a3.52,3.52,0,0,0-.16.38,9.59,9.59,0,0,1-2.05,4,10.1,10.1,0,0,1-5,2.9l-.77-.9a9.29,9.29,0,0,0,4.93-2.58,7.28,7.28,0,0,0,1.71-3.22H10.5c-.34,0-.84,0-1.33,0v-1c.49,0,.95.07,1.33.07H18a2,2,0,0,0,.73-.1Zm-9-3.61a11.2,11.2,0,0,0,1.2,0h5.55a11.13,11.13,0,0,0,1.22,0v1c-.32,0-.77,0-1.25,0H11.63c-.42,0-.84,0-1.2,0Z"/><path d="M31.78,123.51a23,23,0,0,1-3.76,3v6A9,9,0,0,0,28.1,134H26.87a12.34,12.34,0,0,0,.08-1.43v-5.42a27.71,27.71,0,0,1-5.35,2.22l-.57-1a23.11,23.11,0,0,0,6.24-2.58,15.13,15.13,0,0,0,3.67-3.11Z"/><path d="M45.11,124.15c-.09.13-.26.33-.35.47a13.11,13.11,0,0,1-3.5,3.86l-.84-.66a9.5,9.5,0,0,0,3.15-3.23H35.46c-.5,0-1,0-1.57.08v-1.15a11.73,11.73,0,0,0,1.57.13H43.6a6.15,6.15,0,0,0,.9-.08ZM39.54,126c0,3.86-.38,6.36-3.91,8.1l-.92-.76a5.24,5.24,0,0,0,1.21-.6c2.25-1.34,2.55-3.43,2.55-5.77a8.19,8.19,0,0,0,0-1Z"/><path d="M57.47,125.12a5.57,5.57,0,0,0-.19.8,12.85,12.85,0,0,1-1.39,4.24,8.91,8.91,0,0,1-5.5,3.93l-.82-.93a7.91,7.91,0,0,0,1.35-.36,7.56,7.56,0,0,0,3.92-2.92,10.63,10.63,0,0,0,1.35-4.16h-8v2.59c0,.24,0,.59,0,.8H47.15a5.77,5.77,0,0,0,.06-.85v-2.47a6.28,6.28,0,0,0-.06-1.05,12.57,12.57,0,0,0,1.29.06h3.12v-1.35a6.62,6.62,0,0,0-.07-1h1.19a8.26,8.26,0,0,0-.07,1v1.35h3.27a2.48,2.48,0,0,0,.92-.11Z"/><path d="M67.58,130A37,37,0,0,0,62,127.68v4.72c0,.45,0,1.17.07,1.62h-1.2A11.87,11.87,0,0,0,61,132.4v-8.16a10.3,10.3,0,0,0-.1-1.42h1.22c0,.42-.08,1-.08,1.42v2.34a47.32,47.32,0,0,1,6,2.32Z"/><path d="M71.72,124.64v2.75c0,2.12-.17,5.2-1.36,7.3a3.59,3.59,0,0,0-.8-.53c1.14-2,1.25-4.78,1.25-6.77v-3.63H76v-1.83h1v1.83h5.39v.88Zm.07,8.31a10.79,10.79,0,0,0,1.28-4.26l.84.18a11.37,11.37,0,0,1-1.31,4.45Zm6.72.6c.61,0,.69-.37.75-2.43a4.28,4.28,0,0,0,.84.39c-.11,2.28-.35,2.9-1.52,2.9H76.44c-1.17,0-1.48-.32-1.48-1.43v-5.51h.91V133c0,.47.11.56.67.56ZM78.4,128a16.4,16.4,0,0,0-3.21-2.16l.64-.6a17.51,17.51,0,0,1,3.25,2.06Zm2.1.45A15.64,15.64,0,0,1,82.58,133l-.9.38a15.94,15.94,0,0,0-2-4.6Z"/><path d="M93.13,130a9,9,0,0,0,3.46,1.72,3.82,3.82,0,0,0-.6.74,8.87,8.87,0,0,1-2.06-.95.74.74,0,0,1,0,.18c-.15,1.63-.32,2.31-.6,2.59a1.27,1.27,0,0,1-.84.3c-.32,0-1,0-1.67,0a1.74,1.74,0,0,0-.24-.77,15.53,15.53,0,0,0,1.57.07c.23,0,.34,0,.45-.11s.29-.63.42-1.7H89.71c-.61,1.32-1.79,2.16-4.2,2.68A2.37,2.37,0,0,0,85,134c2-.38,3.11-1,3.67-1.95H85.89v-.47a13.53,13.53,0,0,1-1.74.77,1.81,1.81,0,0,0-.56-.66A10.45,10.45,0,0,0,86.83,130H83.89v-.77h3.74a6,6,0,0,0,.58-.84H85.55v-3.81h9.09v3.81H89.22a5.87,5.87,0,0,1-.53.84h7.55V130Zm-5.88-6.36H84.07v-.79h3.18v-1h.91v1h3.75v-1h.91v1H96v.79H92.82v.73h-.91v-.73H88.16v.73h-.91Zm6.37,7.69A8.28,8.28,0,0,1,92.05,130H88a9.38,9.38,0,0,1-1.73,1.33H89a6.71,6.71,0,0,0,.25-1.05h.91c-.06.36-.13.71-.22,1.05Zm-7.17-5.17h7.27v-1H86.45Zm0,1.6h7.27v-1H86.45Z"/><path d="M18.66,88.45v4.07H11.77v19H6.92v-19H0V88.45Z"/><path d="M27.72,94.05l.38,0v4.56l-.75-.06-.53,0c-1.79,0-3,.59-3.61,1.75a6.75,6.75,0,0,0-.52,3v8.14H18.21v-17h4.25v3a9.39,9.39,0,0,1,1.79-2.32,4.9,4.9,0,0,1,3.25-1Z"/><path d="M31.85,114.74l.56,0a7.33,7.33,0,0,0,1.25,0,2.84,2.84,0,0,0,2-2.5L29.42,94.45h4.95L38.09,107,41.6,94.45h4.74L40.5,111.2c-1.13,3.22-2,5.23-2.68,6s-2,1.17-3.94,1.17h-1c-.24,0-.6,0-1.08-.06Z"/><path d="M62.19,109.39c-1.44,1.78-3.62,2.66-6.55,2.66s-5.11-.88-6.55-2.66a10.59,10.59,0,0,1,0-12.79q2.16-2.7,6.55-2.7t6.55,2.7a10.59,10.59,0,0,1,0,12.79Zm-3.57-2.46a7.94,7.94,0,0,0,0-7.89,4,4,0,0,0-6,0,7.87,7.87,0,0,0,0,7.89,3.93,3.93,0,0,0,6,0Z"/><path d="M71.64,94.45v10.26A5.38,5.38,0,0,0,72,106.9a2.37,2.37,0,0,0,2.38,1.3,3.11,3.11,0,0,0,3.11-1.85,6.74,6.74,0,0,0,.43-2.64V94.45h4.52v17H78.09v-2.41c0,.05-.14.21-.31.47a3.26,3.26,0,0,1-.59.69,6.32,6.32,0,0,1-2,1.28,6.84,6.84,0,0,1-2.28.34c-2.52,0-4.21-.9-5.08-2.72a10.39,10.39,0,0,1-.73-4.42V94.45Z"/><path d="M84.65,97.77V94.6H87V89.85h4.4V94.6H94.2v3.17H91.43v9a2,2,0,0,0,.27,1.31,2.94,2.94,0,0,0,1.62.26h.43l.45,0v3.33l-2.11.08c-2.11.07-3.54-.29-4.31-1.09a3.26,3.26,0,0,1-.75-2.36V97.77Z"/><path d="M18.48,59.71a2.92,2.92,0,1,0-2.92-2.92A2.92,2.92,0,0,0,18.48,59.71Z"/><path d="M72.16,66.29a66.88,66.88,0,0,0-10.53-3.56l.09-.27c.21-.67.14-1.49.42-1.74s-.17-.36.18-.46A9,9,0,0,1,66,60.18a9.6,9.6,0,0,0,5.83-.81A24.72,24.72,0,0,0,76,56.59,20.22,20.22,0,0,0,78.54,54a18.3,18.3,0,0,0,1.53-1.45c.28-.43-.14-.4.25-.82A18.42,18.42,0,0,1,82.7,50c.71-.46.82-.78,1.53-1.06s.78,0,1.64-1,1.42-1.49,1.74-2,.5-.28.43-1.1a3.45,3.45,0,0,0-1.18-2.24c-.67-.61-2-1.42-2.42-1.82a5.27,5.27,0,0,0-.71-.56c-.21-.15-.46-.15-.63-.39a2.6,2.6,0,0,0-.44-.47,1.17,1.17,0,0,0-.35-.68c-.28-.23-.35-.23-.44-.39a4,4,0,0,0-.45-.68c-.22-.28-.37-.4-.47-.54a9,9,0,0,0-1-1,1.39,1.39,0,0,0-.79-.19c-.15,0-.25.28-.36.21s-.26-.21-.37-.29a.63.63,0,0,0-.58-.1,1.06,1.06,0,0,0-.47.27s-15.68-17.91-16-18.45S45.39.29,45.11.11s-.85-.35-2.39,1.14-1.59,1.92-1.28,2.21S54.28,17,54.28,17l1.07.85s-4.7-.07-6.56,2.28a9.88,9.88,0,0,0-2.08,5.57,2,2,0,0,1-.29,1.11c-.1.17-3.05,1.49-3.05,1.49l0,.21,2.53.82a5.92,5.92,0,0,0,0,2.27,2.33,2.33,0,0,0,1.11,1.29l.53.21a10.28,10.28,0,0,0,.28,1.32.7.7,0,0,1,0,.6,50.08,50.08,0,0,0-4.37,4.52C43,40.41,38,50.22,37.32,51.29s-1.21,1.85-1.21,1.85a6.83,6.83,0,0,1-.46,1.92,3,3,0,0,0-.36,1.21s.71.75.54,1a1.41,1.41,0,0,0-.32.68c0,.17.14.74-.11.67s-.39-.39-.6-.36-.5.72-.36,1.11-.11.56-.36.64a15.1,15.1,0,0,0-1.69,2.84,67.25,67.25,0,0,0-10.08,3.44c-6,2.61-12,6-16.54,10.31A102.85,102.85,0,0,1,31.13,66.24a67.36,67.36,0,0,1,16.1-2.06,66,66,0,0,1,13,1.36A99.49,99.49,0,0,1,88.7,76.6C84.15,72.26,78.18,68.9,72.16,66.29ZM77.65,46.1a10.5,10.5,0,0,0,1.71-.92l.21.14s-.92,1-1.28,1.42a5.85,5.85,0,0,1-1.49,1c-.36.22-.75,0-1.5.22S74.17,49.16,74,49.38a5.09,5.09,0,0,1-1.53.63c-.82.29-2.38.68-2.84.82a3.27,3.27,0,0,0-1,.61,1.35,1.35,0,0,1-1.32-.15c-.39-.21-.18,0-.89.33a1.71,1.71,0,0,1-1.42-.08,1.69,1.69,0,0,1,.25-.78c.21-.28.14-.5.17-1.46a4.62,4.62,0,0,1,.29-1.53,11.19,11.19,0,0,1,1.21-.07c.67,0,1.28.14,2.2.14a7.58,7.58,0,0,0,1.46-.14,10.46,10.46,0,0,1,1.67-.39c1-.07.58,0,1,0a3.31,3.31,0,0,1,.85-.11,3.51,3.51,0,0,0,1.28-.1c.57-.18.82-.61,1.07-.72A5.7,5.7,0,0,0,77.65,46.1ZM63,28.32c.07-1.46.07-3.52.28-3.49s3.92,3.49,4.6,4,8.39,8.71,8.39,8.71-.71,1.18-1.07,1.81a3.77,3.77,0,0,0,0,2,1.7,1.7,0,0,1-.86-.35,1.27,1.27,0,0,0-1-.15,7.52,7.52,0,0,0-.75.11,2.46,2.46,0,0,1-1.13-.14,1.26,1.26,0,0,0-1,.07l-.26-.57-.7-.14-.68-.4s0-.81-.07-1.27-.57-.89-.79-1.11a2.24,2.24,0,0,1-.39-1c-.1-.39-.92-.57-1.42-1.13a10.49,10.49,0,0,1-1.42-2.07c-.25-.57-1.92-1.67-1.92-1.67S62.89,29.78,63,28.32Z"/></g></g></svg>