<svg xmlns="http://www.w3.org/2000/svg" viewBox="0 0 50 45.56"><defs><style>.cls-1{fill:#d2de94;}.cls-2{fill:#fff;}.cls-3{fill:#231815;}.cls-4{fill:#169e3d;}.cls-5{fill:#f2c81f;}.cls-6{fill:#07713e;}.cls-7{fill:#d71718;}.cls-8{fill:#8f4c2a;}.cls-9{fill:#f6d9e6;}.cls-10{fill:#169243;}</style></defs><g id="Layer_2" data-name="Layer 2"><g id="レイヤー_1" data-name="レイヤー 1"><path class="cls-1" d="M19.09,7.4A16.91,16.91,0,1,0,36,24.31,16.91,16.91,0,0,0,19.09,7.4Z"/><path class="cls-2" d="M11.59,8.74l.64.27.14-.14A5.41,5.41,0,0,1,13.66,7c-2.75-.82-5.21-1.29-5.3-.85C8.19,6.94,10.49,8.19,11.59,8.74Z"/><path class="cls-2" d="M31,24.31A11.88,11.88,0,1,1,19.09,12.43,11.88,11.88,0,0,1,31,24.31Z"/><path class="cls-2" d="M12,13.6s-3.17,1.8-3.11,2.22,2.59.19,4.71-.1a3.13,3.13,0,0,1,2.27,2.74c0,1.77-.26,2.66-1.39,3.08s-3.37.82-5.16,1.42-3,1.42-2.83,2.26,5.23-.07,5.94-.35c0,0-1.19,4.78-.22,5.23s3.82-3.75,5-3.61,1.49,3.19,2.34,3.11.85-2.19,1.48-2.4,1.77,1.34,2,2.76c0,0,.5-2.48-1.41-6.79A14.1,14.1,0,0,0,25,11.93c-.92-6.86-5.37-6.81-7.85-6.5C15,5.69,11,7.48,12,13.6Z"/><path class="cls-3" d="M17.11,5.29a6.29,6.29,0,0,0-4.2,2.37,6.66,6.66,0,0,0-1.24,4.12,12,12,0,0,0,.14,1.75c-1.44.82-3.1,1.85-3.1,2.29v0c0,.17.18.35,1.73.3.87,0,2-.13,3.11-.27a2.92,2.92,0,0,1,2.14,2.59v.29c0,1.62-.34,2.3-1.3,2.66a20.77,20.77,0,0,1-2.26.62c-.92.23-2,.49-2.9.79-1.86.62-2.94,1.46-2.94,2.26a1,1,0,0,0,0,.17.38.38,0,0,0,.21.26c.84.47,4.54-.13,5.67-.43a18.39,18.39,0,0,0-.54,3.7c0,.72.12,1.29.47,1.45.55.25,1.49-.68,2.59-1.77.89-.88,1.91-1.89,2.4-1.83s.88.92,1.21,1.67.64,1.49,1.15,1.44.78-.73,1-1.4c.15-.44.31-.93.53-1a.47.47,0,0,1,.36.09A4.11,4.11,0,0,1,22.78,30a.15.15,0,0,0,.14.12.14.14,0,0,0,.14-.11,4.91,4.91,0,0,0,.06-.89,15,15,0,0,0-1.45-5.9,14.42,14.42,0,0,0,3.57-9.41,13.72,13.72,0,0,0-.13-1.88C24.11,4.42,18.84,5.07,17.11,5.29ZM12,13.73a.14.14,0,0,0,.07-.13v0A11.47,11.47,0,0,1,12,11.79a6.4,6.4,0,0,1,1.18-4,6,6,0,0,1,4-2.26,7.47,7.47,0,0,1,4.42.55C23.34,7.05,24.44,9,24.83,12A14.84,14.84,0,0,1,25,13.8a14.12,14.12,0,0,1-3.55,9.27.18.18,0,0,0,0,.1.14.14,0,0,0,0,.06,15,15,0,0,1,1.45,5.85,4,4,0,0,0-1.33-1.9.74.74,0,0,0-.61-.11c-.35.11-.52.63-.7,1.18s-.38,1.18-.75,1.21-.59-.63-.87-1.28c-.37-.85-.76-1.74-1.43-1.83s-1.6.89-2.63,1.91c-.85.84-1.9,1.88-2.28,1.71-.59-.27-.19-3.13.29-5.07a.13.13,0,0,0,0-.14.2.2,0,0,0-.15,0c-.65.27-4.9,1-5.67.53,0,0-.07,0-.07-.06-.13-.69.94-1.51,2.73-2.11.91-.3,1.95-.56,2.88-.78s1.72-.42,2.29-.63c1.28-.49,1.51-1.55,1.48-3.23a3.26,3.26,0,0,0-2.37-2.86h0A16,16,0,0,1,9,15.77,15.36,15.36,0,0,1,12,13.73Z"/><path class="cls-3" d="M11,27.11c-.35.12-3.4,1.17-3.65,2.22a.64.64,0,0,0,.2.61,1.18,1.18,0,0,0,1,.41c.76-.12,1.53-1,2.58-3a.16.16,0,0,0,0-.16A.14.14,0,0,0,11,27.11Z"/><path class="cls-3" d="M16.64,29.78a6.05,6.05,0,0,1-.87,1.66,2.5,2.5,0,0,0-.66,2.06.7.7,0,0,0,.51.49,1,1,0,0,0,1-.19c.92-.86.33-3.87.3-4a.13.13,0,0,0-.12-.11A.14.14,0,0,0,16.64,29.78Z"/><path class="cls-3" d="M12.39,24.87c-.71.28-5.8,1.13-5.94.35a.8.8,0,0,1,0-.43A1.24,1.24,0,0,0,6,26.19c.31.86,5-.1,6.15-.36C12.29,25.26,12.39,24.87,12.39,24.87Z"/><path class="cls-3" d="M17.12,26.49c-1.11-.14-3.93,3.9-4.9,3.62a1.62,1.62,0,0,0,.59,1c1.08.68,4-2.6,5.14-3.92C17.72,26.83,17.45,26.53,17.12,26.49Z"/><path class="cls-4" d="M21.36,10.43a1.05,1.05,0,0,0-.42-.28,5,5,0,0,0-.85,2.78c-.14,1.7.79,3.93,2.31,4.29C19.33,14,21.6,10.67,21.36,10.43Z"/><polygon class="cls-5" points="50 7.02 39.62 9.89 48.27 0 40.71 0.66 26.62 16.78 34.7 14.54 16.7 35.32 50 7.02"/><path class="cls-2" d="M34.65,21.8c-.57-5.28-7.6-6.24-8.28-3.5-.23.91.78,1.7,1.75,2.22-1.07-.38-2.33-.61-2.59.23s.37,1.63,1,2.25c-.6-.38-1.25-.62-1.55-.13-.51.81.46,2.39.86,3,1.16,1.07,1.66,2.59.86,3.38a1.07,1.07,0,0,1-1.05.2c-.11.1-.22.21-.35.31a.94.94,0,0,1,.22.81C28.64,30.17,35.38,28.59,34.65,21.8Z"/><path class="cls-3" d="M26.23,18.27a1,1,0,0,0,0,.29,2.08,2.08,0,0,0,1,1.56,2.2,2.2,0,0,0-1.38.05.87.87,0,0,0-.45.54,1.74,1.74,0,0,0-.05.39,2.43,2.43,0,0,0,.6,1.45,1.13,1.13,0,0,0-.63-.08.69.69,0,0,0-.44.32c-.55.88.42,2.48.86,3.13l0,0A3.47,3.47,0,0,1,27,28.2a1.21,1.21,0,0,1-.35.92.93.93,0,0,1-.92.16.16.16,0,0,0-.13,0l-.34.3a.14.14,0,0,0,0,.19.82.82,0,0,1,.19.69.16.16,0,0,0,0,.13.11.11,0,0,0,.12.05c3-.36,10-1.95,9.25-8.9h0a5.83,5.83,0,0,0-5.45-5.1C27.72,16.57,26.5,17.19,26.23,18.27Zm2,2.31a.15.15,0,0,0-.07-.19c-.88-.47-1.89-1.21-1.68-2.05s1.34-1.48,2.82-1.38a5.54,5.54,0,0,1,5.19,4.85,8.19,8.19,0,0,1,.05,1c0,5.76-6,7.23-8.87,7.6,0,0,0,0,0,0a1.09,1.09,0,0,0-.21-.6,2.6,2.6,0,0,1,.22-.19,1.17,1.17,0,0,0,1.1-.25,1.51,1.51,0,0,0,.43-1.09v0A3.69,3.69,0,0,0,26,25.75a5.28,5.28,0,0,1-1-2.32.9.9,0,0,1,.13-.49.38.38,0,0,1,.26-.19,1.63,1.63,0,0,1,1.09.37.14.14,0,0,0,.19,0,.15.15,0,0,0,0-.19c-.57-.55-1.2-1.37-1-2.11a.56.56,0,0,1,.3-.37,3.15,3.15,0,0,1,2.1.23A.14.14,0,0,0,28.25,20.58Zm-2.58,10h0s0,0,0,.05S25.66,30.56,25.67,30.54Z"/><path class="cls-3" d="M23.64,17.55a6.81,6.81,0,0,1-2.18,4.37c-.95.88-1.55-.31-.79-.76A9.89,9.89,0,0,0,23.64,17.55Z"/><path class="cls-3" d="M11.11,23.1a8.7,8.7,0,0,0-3.25,1c-.57.32-.69,1,.37.64C8.72,24.57,9.51,23.88,11.11,23.1Z"/><path class="cls-6" d="M26,9.07A6.09,6.09,0,0,0,21.79,3.7C17.07,1.82,15.14,3.52,13.68,6c0,0-5-.88-5.63-.09-.42.55-.3,1.23,4.1,3.14,0,0-4-1.84-3.79-2.83s10.46,2,12.58,4a1.05,1.05,0,0,1,.42.28c.24.24-2,3.54,1,6.79,1.77.43,3.3-.7,3.39-4.71A8.43,8.43,0,0,0,26,9.07Z"/><path class="cls-3" d="M15,8.43a.6.6,0,0,0,.06-.11Z"/><path class="cls-3" d="M15.19,11.81a11.19,11.19,0,0,1-.37-3.1v0c-.41.49-1,1-1.25.91a7.49,7.49,0,0,0-1.5,4S8.91,15.4,9,15.82s2.59.19,4.71-.1a12.37,12.37,0,0,0,4-.94,2.77,2.77,0,0,0,1.84-2.59,5.72,5.72,0,0,0-3.13,1.67S15.61,13.51,15.19,11.81Z"/><path class="cls-3" d="M15,8.53,15,8.47Z"/><path class="cls-3" d="M14.87,8.64l.05-.06Z"/><path class="cls-7" d="M13.51,9.55s.69-1.08,1.21-2a15.94,15.94,0,0,0,1.36-3.58,6.9,6.9,0,0,1,0,2A4.87,4.87,0,0,0,17.4,3.75a5.23,5.23,0,0,1,.33,1.94,3.27,3.27,0,0,0,1-1.56,8.57,8.57,0,0,1-.09,2.35,3.54,3.54,0,0,0,.8-1.08A7.2,7.2,0,0,1,19.1,8s.28,0,.75-.75a31.66,31.66,0,0,1-.37,4.95,10.91,10.91,0,0,0-1-4.52c-.59-1.06-1.37-1.28-1.89-1.09s-1.13,1.09-1.51,1.74S13.66,9.83,13.51,9.55Z"/><path class="cls-2" d="M16.22,13.78a5.87,5.87,0,0,1,3.23-1.73h0a10.63,10.63,0,0,0-1-4.38c-.59-1.06-1.37-1.28-1.89-1.09a4.3,4.3,0,0,0-1.5,1.74,3.16,3.16,0,0,1-.28.39,11.59,11.59,0,0,0,.37,3.1A3.55,3.55,0,0,0,16.22,13.78Z"/><path class="cls-8" d="M16.31,13.69l.4-.36a10.08,10.08,0,0,0-.13-2.77c-.16-1.18-.6-2.67-1.13-2.81l-.36.57a.57.57,0,0,1-.08.13,13.28,13.28,0,0,0,.22,2.42C15.4,11.86,15.82,13.51,16.31,13.69Z"/><path class="cls-9" d="M19.45,12.05a5.88,5.88,0,0,0-3.72,2.32.14.14,0,0,0,0,.2.13.13,0,0,0,.19,0,5.75,5.75,0,0,1,3.54-2.2.14.14,0,0,0,.12-.16A.15.15,0,0,0,19.45,12.05Z"/><path class="cls-3" d="M16.19,13.14c.42,0,0-1.42-.11-2.46s-.32-2.43-.8-2.31-.19,1.63,0,2.5S15.76,13.19,16.19,13.14Z"/><path class="cls-3" d="M24.1,13.87c0,.58-.3,1-.66,1s-.66-.46-.66-1,.29-1,.66-1S24.1,13.3,24.1,13.87Z"/><path class="cls-4" d="M23.44,12.84l-.11,0a1.11,1.11,0,0,1,.44,1,1,1,0,0,1-.56,1,.46.46,0,0,0,.23.06c.36,0,.66-.46.66-1S23.8,12.84,23.44,12.84Z"/><path class="cls-2" d="M21.53,33s2.24-.24,2.66-1.06-1.85-1.42-1.85-1.42,2.22,1.12,3.06.21-2-2.64-2-2.64,2.34,2.06,3.3,1.11c1.57-1.55-1.9-6-5.64-4.18-2.94,1.41-2.85,3.63-3.3,5.72-.2,1-1.55.63-3.6.56C14.17,31.32,16.65,33.59,21.53,33Z"/><path class="cls-3" d="M21,24.91c-2.57,1.23-2.89,3.09-3.2,4.89l-.17.94c-.13.63-.83.61-2.27.51l-1.19-.07a.15.15,0,0,0-.14.09.16.16,0,0,0,0,.16c.1.09,2.58,2.3,7.46,1.73.1,0,2.33-.26,2.78-1.14a.54.54,0,0,0,.07-.27.69.69,0,0,0-.05-.24,1.13,1.13,0,0,0-.22-.28,1.61,1.61,0,0,0,1.39-.39.66.66,0,0,0,.19-.48.45.45,0,0,0,0-.11,1.65,1.65,0,0,0-.43-.81,1.41,1.41,0,0,0,1.55-.12c.64-.63.56-1.74-.2-2.83A4.47,4.47,0,0,0,21,24.91Zm-3.1,5.88.18-.94c.31-1.81.61-3.52,3.05-4.68a4.17,4.17,0,0,1,5.24,1.49c.68,1,.77,1.93.23,2.46s-1.28.11-2-.32a8.76,8.76,0,0,0-1.11-.8.14.14,0,0,0-.19,0,.14.14,0,0,0,0,.19,9.61,9.61,0,0,0,1.11.81,2.57,2.57,0,0,1,1,1.26.17.17,0,0,1,0,.07.44.44,0,0,1-.12.3c-.39.42-1.14.34-1.78.17a5.86,5.86,0,0,0-1.14-.42.14.14,0,0,0-.17.08.11.11,0,0,0,0,.05.13.13,0,0,0,.08.13,7.56,7.56,0,0,0,1.14.43,1.36,1.36,0,0,1,.66.53.27.27,0,0,1,0,.12.25.25,0,0,1,0,.14c-.32.62-1.95.92-2.56,1h0a10.11,10.11,0,0,1-6.88-1.39l.72,0C16.73,31.63,17.72,31.69,17.91,30.79Z"/><path class="cls-10" d="M35.68,39.86a.55.55,0,0,0-.28-.15,2.38,2.38,0,0,0,.34-1.17,3.12,3.12,0,0,0-.31-1.24,1.91,1.91,0,0,1-.1-.27l-.16-.86a3.37,3.37,0,0,0-.42-1.5.79.79,0,0,0-.64-.29c-.72,0-1.63,1.19-1.64,1.2a.71.71,0,0,0-.14.42v.08s0,.18.05.26l-1.09,1.31c-.61.74-1.36,1.65-1.51,1.81h0l-.31.32-.33.34a5.2,5.2,0,0,1,.43-.89c2.57-3.71,3.29-4.82,3.4-5.29a1.85,1.85,0,0,0,.46-.17,1.33,1.33,0,0,0,.47.19,1.6,1.6,0,0,0,1.22-.54,11.12,11.12,0,0,0,.94-1.15.7.7,0,0,0,.13-.42.71.71,0,0,0-.21-.51l-.09-.09,0,0a.62.62,0,0,0,.07-.29.67.67,0,0,0-.12-.39.73.73,0,0,0-.75-.3l-.64.16a1.05,1.05,0,0,0-.49-.13,2.51,2.51,0,0,0-1.43.52,1.25,1.25,0,0,0-.62-.47,1,1,0,0,0-.83.1l-.21-.1a1.06,1.06,0,0,0-.85.13l-.09-.07a1,1,0,0,0-.94,0,.71.71,0,0,0-.61-.14l-.61.15a1,1,0,0,0-.49-.13,2.23,2.23,0,0,0-.82.17.69.69,0,0,0-.65-.19l-.68.16L25,30.33a.88.88,0,0,0,.37-.7c0-.31-.16-1-1.66-1a3.33,3.33,0,0,0-1.28.26A5.87,5.87,0,0,0,21,28.64a4,4,0,0,0-2.28.63.72.72,0,0,0-.37-.25,40.49,40.49,0,0,0-10.59-.93C3.05,28.5,0,30.18,0,32.38a1.92,1.92,0,0,0,.71,1.53A4.68,4.68,0,0,0,4,34.68a.7.7,0,0,0,.58-.6.71.71,0,0,0-.4-.74,1.92,1.92,0,0,1-.93-.73s0,0,0-.09S3.9,32,6.31,32a8.59,8.59,0,0,1,1.76.13L4.43,38.14a.72.72,0,0,0,.08.84.71.71,0,0,0,.82.17l.91-.43C6,39.11,3.19,44.3,3.19,44.3a.71.71,0,0,0,.22.93.71.71,0,0,0,.94-.13l.8-1a.73.73,0,0,0,.57.32,22.66,22.66,0,0,1,5.79,1.07.73.73,0,0,0,.79-.25c.07-.1,1.87-2.4,6.69-2.19a32,32,0,0,1,3.65.35,31.86,31.86,0,0,0,5.74.32c5.81-.1,7.54-2.71,7.61-2.82a.76.76,0,0,0,.11-.38.74.74,0,0,0-.21-.51ZM22.69,36a5.16,5.16,0,0,0,1.91-1.86l.19-.33,0,0,.37-.19h0l.07-.05a.08.08,0,0,1,.09,0,1.07,1.07,0,0,0,.59.25,1.38,1.38,0,0,0,.78-.2h.08a.93.93,0,0,0,.45.19.9.9,0,0,0,.59-.13.06.06,0,0,1,.08,0,.54.54,0,0,0,.27.07h.61a.42.42,0,0,0,.27-.06.09.09,0,0,1,.07,0,.6.6,0,0,0,.24.06H30a.56.56,0,0,0,.42-.21.07.07,0,0,1,.06,0l.06,0,.11.11a.14.14,0,0,1,0,.06.09.09,0,0,1,0,.06.45.45,0,0,0-.11.13l-.53.86-.8,1.3a.08.08,0,0,1-.09,0,1.33,1.33,0,0,0-.49-.09,5,5,0,0,0-2.8,1.11.06.06,0,0,1-.09,0,.08.08,0,0,1,0-.09.6.6,0,0,0,.06-.24.58.58,0,0,0,0-.19c-.11-.32-.41-.48-.9-.47a2.46,2.46,0,0,0-1.36.75.1.1,0,0,1-.07,0,.1.1,0,0,1-.06,0v0l-.06-.18a1,1,0,0,0-.56-.46.09.09,0,0,1-.05-.07A.07.07,0,0,1,22.69,36Zm5.55,1.51-.14.21-.08.13a11,11,0,0,0-.72,1.34s0,0,0,0l-.2.21a7.21,7.21,0,0,1-1.19,1.12.08.08,0,0,1-.08,0,.07.07,0,0,1,0-.08,5.22,5.22,0,0,1,2.35-3.06.07.07,0,0,1,.09,0A.08.08,0,0,1,28.24,37.51ZM16.9,31.93l1.44-1.6s0,0,.07,0a.07.07,0,0,1,.06.05.55.55,0,0,0,.18.22.56.56,0,0,0,.63,0,1.92,1.92,0,0,1,1.24-.44.08.08,0,0,1,.07.05.06.06,0,0,1,0,.08,8.39,8.39,0,0,0-.8,1c-.88,1.3-1.41,1.3-1.66,1.3a.3.3,0,0,1-.22-.09.08.08,0,0,1-.05,0h0a.61.61,0,0,0-.39-.36l-.2-.05a.5.5,0,0,0-.27,0,.08.08,0,0,1-.09,0A.07.07,0,0,1,16.9,31.93Zm-.75.83.29-.33a.08.08,0,0,1,.09,0,.07.07,0,0,1,0,.06v0a.28.28,0,0,0,0,.09.5.5,0,0,0,0,.12v.07a.07.07,0,0,1-.08.08l-.3,0a.07.07,0,0,1-.08,0A.06.06,0,0,1,16.15,32.76Zm-4.55,5.6-.09.14c-.67,1.07-1.28,2.28-.81,3.11a1.22,1.22,0,0,0,.25.31A.07.07,0,0,1,11,42a.09.09,0,0,1-.06.06c-1.78.33-3.43.71-4.94,1.07a.08.08,0,0,1-.09,0,.09.09,0,0,1,0-.1l7.72-9.22a.54.54,0,0,0,0-.67.55.55,0,0,0-.65-.2l-1.63.64s-.07,0-.09,0a.08.08,0,0,1,0-.09l.54-.9,0,0a8.16,8.16,0,0,1,3.33.6.08.08,0,0,1,.05.07.06.06,0,0,1,0,.08l-.11,0a.69.69,0,0,0-.24.21l-1.32,2C12.66,36.75,11.78,38.05,11.6,38.36Zm.88,2.53a.07.07,0,0,1-.09,0,.1.1,0,0,1,0-.09,3,3,0,0,1,.28-.46,11.69,11.69,0,0,1,2-2.29.07.07,0,0,1,.09,0,.08.08,0,0,1,0,.09,3.47,3.47,0,0,1-.52,1A6.49,6.49,0,0,1,12.48,40.89Zm3.34.44a.1.1,0,0,1-.07,0l-.94.1a.08.08,0,0,1-.08-.06.09.09,0,0,1,0-.09,7.16,7.16,0,0,0,.73-.63.06.06,0,0,1,.08,0,.06.06,0,0,1,0,.06,1.21,1.21,0,0,0,.14.43l.05.09A.08.08,0,0,1,15.82,41.33Zm1.91-4.77L16.8,38a.09.09,0,0,1-.08,0,.09.09,0,0,1-.06-.07A1.68,1.68,0,0,0,16,36.83a1.34,1.34,0,0,0-.68-.28.07.07,0,0,1-.06,0,.08.08,0,0,1,0-.08,19.21,19.21,0,0,0,1.8-2.81.12.12,0,0,1,0,0h.07a1.59,1.59,0,0,0,.87.26,3.14,3.14,0,0,0,2.16-.69.07.07,0,0,1,.06,0,.07.07,0,0,1,.06,0l.08.13a1.15,1.15,0,0,0,1,.49.08.08,0,0,1,.08.05.08.08,0,0,1,0,.09,2.19,2.19,0,0,0-.81,1,.06.06,0,0,1-.08,0,.09.09,0,0,1-.07-.06l0-.16a.88.88,0,0,0-.5-.58,1.34,1.34,0,0,0-1.57.59,1.41,1.41,0,0,0-.25.77.9.9,0,0,0,0,.28.74.74,0,0,0,.11.24.09.09,0,0,1,0,.07.07.07,0,0,1,0,.05l-.37.15A.6.6,0,0,0,17.73,36.56Zm1.73,4.06-.13.19a.57.57,0,0,0-.08.29v.12a0,0,0,0,1,0,.06.07.07,0,0,1-.06,0h-.47a.08.08,0,0,1-.07,0,.08.08,0,0,1,0-.09,7.75,7.75,0,0,0,.66-.63.08.08,0,0,1,.13.1Zm0-2.28h0a11.4,11.4,0,0,1-1.31,1.46.11.11,0,0,1-.11,0,.08.08,0,0,1,0-.11c1.55-2.19,2-2.91,2-3.21a.51.51,0,0,0-.06-.21.07.07,0,0,1,0-.09,2.05,2.05,0,0,0,.32-.34,1.92,1.92,0,0,0,.21-.46.07.07,0,0,1,.08-.05.07.07,0,0,1,.07.06A1.05,1.05,0,0,0,21,36a.93.93,0,0,0,.42.24.09.09,0,0,1,.06.06s0,.07,0,.08A7.82,7.82,0,0,0,19.49,38.34ZM24.93,42s0,.07-.08.06l-1.3-.2c-.6-.1-1.34-.22-2.17-.33,0,0,0,0-.05,0a0,0,0,0,1,0,0,.43.43,0,0,0,0,0l.06-.09a7,7,0,0,1,1-1.46.09.09,0,0,1,.07,0s0,0,.06,0a1.07,1.07,0,0,0,1,.42,2.18,2.18,0,0,0,.39,0,.07.07,0,0,1,.07,0s0,0,0,.06v.07a1.79,1.79,0,0,0,.27,1,1.42,1.42,0,0,0,.69.52A.07.07,0,0,1,24.93,42ZM25,37.79l-.29.31h0l-.05.06a2.09,2.09,0,0,1-1,.8.11.11,0,0,1-.08,0,.1.1,0,0,1,0-.09l.14-.34,0,0a11.44,11.44,0,0,1,1.15-.82.09.09,0,0,1,.1,0A.09.09,0,0,1,25,37.79ZM30.65,42a13.23,13.23,0,0,1-2.43.25,17.36,17.36,0,0,1-2.6-.13c-.05,0-.08,0-.07-.08a.07.07,0,0,1,.07-.07,2.35,2.35,0,0,0,1.5-.77.1.1,0,0,1,.07,0,.07.07,0,0,1,.06,0l.09.16a1.51,1.51,0,0,0,1.31.58,1.91,1.91,0,0,0,1.2-.59.08.08,0,0,1,.11,0,1.78,1.78,0,0,0,.44.35l.24.13h0a.08.08,0,0,1,0,.09A.06.06,0,0,1,30.65,42Zm2.28-2.57h0a1.8,1.8,0,0,1-1.49.77.54.54,0,0,1-.28,0l-.05-.05a.08.08,0,0,1,0-.07l1.67-2a.06.06,0,0,1,.07,0,.1.1,0,0,1,.07,0,1.87,1.87,0,0,1,.18.76A1.22,1.22,0,0,1,32.93,39.45Z"/><path class="cls-2" d="M35.57,40a.47.47,0,0,0-.29-.14.06.06,0,0,1-.06,0,.09.09,0,0,1,0-.07,2.19,2.19,0,0,0,.36-1.17,3.09,3.09,0,0,0-.29-1.18,1.64,1.64,0,0,1-.11-.3L35,36.19a3.45,3.45,0,0,0-.39-1.42.67.67,0,0,0-.51-.24c-.64,0-1.52,1.13-1.52,1.14a.59.59,0,0,0-.11.33v.06l0,.28a.08.08,0,0,1,0,.07L31.4,37.76c-.6.73-1.36,1.65-1.51,1.81l-.3.31a7.59,7.59,0,0,1-.56.57.07.07,0,0,1-.09,0,.09.09,0,0,1,0-.09,5.37,5.37,0,0,1,.54-1.24c2.63-3.78,3.32-4.86,3.39-5.28a.07.07,0,0,1,.07-.06,1.55,1.55,0,0,0,.5-.19.08.08,0,0,1,.08,0,1.12,1.12,0,0,0,.45.18A1.42,1.42,0,0,0,35,33.3a10.64,10.64,0,0,0,.92-1.13.57.57,0,0,0,.11-.33.52.52,0,0,0-.17-.39l-.09-.1-.06,0a.07.07,0,0,1,0-.1.48.48,0,0,0,.09-.27.55.55,0,0,0-.1-.31.55.55,0,0,0-.58-.23l-.67.16h-.06a.86.86,0,0,0-.44-.12,2.4,2.4,0,0,0-1.41.53.07.07,0,0,1-.06,0,.05.05,0,0,1,0,0,1,1,0,0,0-.58-.46.85.85,0,0,0-.74.1.11.11,0,0,1-.08,0,.84.84,0,0,0-.22-.1.88.88,0,0,0-.77.13.06.06,0,0,1-.09,0l0,0-.07-.05a.86.86,0,0,0-.83,0,.08.08,0,0,1-.09,0,.59.59,0,0,0-.51-.13l-.63.16h-.06a.89.89,0,0,0-.45-.12,2.05,2.05,0,0,0-.81.18.1.1,0,0,1-.09,0,.51.51,0,0,0-.53-.19l-.72.17a.06.06,0,0,1-.07,0,.57.57,0,0,0-.21-.13.15.15,0,0,1,0-.06.09.09,0,0,1,0-.08.77.77,0,0,0,.4-.65c0-.26-.15-.88-1.51-.88a3.22,3.22,0,0,0-1.25.26h-.05A5.67,5.67,0,0,0,21,28.79a3.87,3.87,0,0,0-2.24.64.07.07,0,0,1-.06,0,.1.1,0,0,1-.05,0,.54.54,0,0,0-.34-.23,39.93,39.93,0,0,0-10.54-.94c-4.59.41-7.57,2-7.58,4.16a1.76,1.76,0,0,0,.65,1.39,4.56,4.56,0,0,0,3.11.74.56.56,0,0,0,.46-.47.55.55,0,0,0-.32-.57c-.47-.22-1-.64-1-.86a.27.27,0,0,1,.09-.21c.18-.19.84-.62,3.18-.62a8.56,8.56,0,0,1,1.9.15s0,0,.06.05a.06.06,0,0,1,0,.07l-3.7,6.16a.54.54,0,0,0-.08.28.51.51,0,0,0,.15.37.55.55,0,0,0,.64.13l1.12-.53a.08.08,0,0,1,.09,0,.06.06,0,0,1,0,.09L3.33,44.38a.5.5,0,0,0-.07.27.55.55,0,0,0,1,.35l.87-1a.11.11,0,0,1,.07,0s0,0,.07,0a.55.55,0,0,0,.49.33,23,23,0,0,1,5.83,1.07.57.57,0,0,0,.62-.19c.07-.1,1.92-2.47,6.82-2.25a35.44,35.44,0,0,1,3.67.34,30.32,30.32,0,0,0,5.71.33c5.73-.1,7.41-2.64,7.48-2.75a.53.53,0,0,0,.09-.3.52.52,0,0,0-.17-.39ZM18.38,30.52a1,1,0,0,0,.17.19.72.72,0,0,0,.81,0,2,2,0,0,1,1-.41,8,8,0,0,0-.7.9c-.83,1.23-1.3,1.23-1.53,1.23-.06,0-.11,0-.14-.06h0a.73.73,0,0,0-.49-.43l-.19-.05-.14,0Zm-6.46,2.13a3.24,3.24,0,0,1,1.21.08.65.65,0,0,0-.19,0l-1.43.55C11.65,33.1,11.9,32.67,11.92,32.65Zm2.77.77-1.32,2c-.85,1.26-1.72,2.56-1.91,2.88l-.08.13a5.35,5.35,0,0,0-1,2.53,1.46,1.46,0,0,0,.19.74,1.1,1.1,0,0,0,.19.25c-1.64.31-3.17.66-4.58,1l7.57-9h0a.7.7,0,0,0,.16-.46.71.71,0,0,0-.13-.41.67.67,0,0,0-.22-.19,14,14,0,0,1,1.38.38A.84.84,0,0,0,14.69,33.42Zm.37,7.86a5.34,5.34,0,0,0,.44-.39,1,1,0,0,0,.12.34Zm4-.13h-.18l.19-.17a.51.51,0,0,0,0,.13A.13.13,0,0,0,19.1,41.15Zm.26-2.9h0a9.65,9.65,0,0,1-.62.75c1.23-1.77,1.47-2.23,1.47-2.52a.51.51,0,0,0-.05-.22,1.93,1.93,0,0,0,.31-.33c.05-.09.1-.17.14-.26a1.18,1.18,0,0,0,.26.43,1,1,0,0,0,.35.22A8.12,8.12,0,0,0,19.36,38.25Zm1.32-3.57a1,1,0,0,0-.56-.62,1.5,1.5,0,0,0-1.77.64,1.57,1.57,0,0,0-.28.86,1.26,1.26,0,0,0,.05.33.88.88,0,0,0,.09.2l-.3.12a.71.71,0,0,0-.31.26l-.83,1.25a1.87,1.87,0,0,0-.64-1,1.51,1.51,0,0,0-.64-.27,24.87,24.87,0,0,0,1.73-2.67,1.77,1.77,0,0,0,.87.24,3.29,3.29,0,0,0,2.19-.68l0,.08a1.33,1.33,0,0,0,1,.54A2.44,2.44,0,0,0,20.68,34.68Zm.85,6.68A7.67,7.67,0,0,1,22.42,40a1.31,1.31,0,0,0,1,.41,2.14,2.14,0,0,0,.32,0,1.93,1.93,0,0,0,.29,1.08,1.34,1.34,0,0,0,.36.35c-.39-.05-.84-.13-.84-.13-.57-.09-1.28-.21-2.06-.31ZM30,33.89h0a.68.68,0,0,0,.48-.21h0a.53.53,0,0,0-.09.11l-.53.86-.76,1.24a1.27,1.27,0,0,0-.48-.07,5.15,5.15,0,0,0-2.72,1s0,0,0-.08a.67.67,0,0,0,0-.24q-.2-.59-1.05-.57a2.4,2.4,0,0,0-1.37.72l-.05-.13a1.17,1.17,0,0,0-.49-.47,5.34,5.34,0,0,0,1.84-1.85l.05-.08.13-.21.36-.19,0,0a1.31,1.31,0,0,0,.63.25,1.51,1.51,0,0,0,.82-.2,1.17,1.17,0,0,0,.47.19,1,1,0,0,0,.66-.14.68.68,0,0,0,.31.08h.6a.7.7,0,0,0,.32-.06.66.66,0,0,0,.27.06ZM26.68,39a5.57,5.57,0,0,1,1.24-1.23l0,0a9.26,9.26,0,0,0-.73,1.35l-.18.2a8.88,8.88,0,0,1-1,.94A5.69,5.69,0,0,1,26.68,39Zm.48,2.43a.79.79,0,0,1,.05.1,1.57,1.57,0,0,0,1.07.62h-.06A15.79,15.79,0,0,1,26.15,42,3.09,3.09,0,0,0,27.16,41.39Zm2.74.16a2.29,2.29,0,0,0,.41.32l.07,0a13.3,13.3,0,0,1-1.34.16A2.27,2.27,0,0,0,29.9,41.55Zm2.76-3.13.18-.22a1.56,1.56,0,0,1,.13.57,1.13,1.13,0,0,1-.17.6,1.66,1.66,0,0,1-1.36.7h-.11Zm-19.88,2a13.49,13.49,0,0,1,1.76-2.05,3.28,3.28,0,0,1-.38.63,7.67,7.67,0,0,1-1.48,1.57S12.74,40.47,12.78,40.42Z"/><path class="cls-10" d="M30.47,33.5l-.06,0a.57.57,0,0,1-.42.21h-.6a.53.53,0,0,1-.24-.06.09.09,0,0,0-.07,0,.43.43,0,0,1-.27.06H28.2a.54.54,0,0,1-.27-.07.08.08,0,0,0-.08,0,.88.88,0,0,1-.6.13,1,1,0,0,1-.44-.18.1.1,0,0,0-.09,0,1.33,1.33,0,0,1-.77.2,1.07,1.07,0,0,1-.59-.25.07.07,0,0,0-.09,0l-.07,0h0l-.38.19,0,0-.19.33A5.16,5.16,0,0,1,22.69,36a.07.07,0,0,0,0,.07.08.08,0,0,0,.05.07,1,1,0,0,1,.55.47l.07.17v0a.08.08,0,0,0,.05,0,.06.06,0,0,0,.07,0,2.46,2.46,0,0,1,1.36-.75c.49,0,.79.15.9.47a.63.63,0,0,1,0,.19.79.79,0,0,1,0,.24.08.08,0,0,0,.11.1A5.07,5.07,0,0,1,28.61,36a1.28,1.28,0,0,1,.48.09.09.09,0,0,0,.1,0l.79-1.3.53-.86a.49.49,0,0,1,.12-.13.11.11,0,0,0,0-.06s0,0,0-.06l-.1-.11Zm-.48.39h0a.68.68,0,0,0,.48-.21h0a.53.53,0,0,0-.09.11l-.53.86-.76,1.24a1.27,1.27,0,0,0-.48-.07,5.15,5.15,0,0,0-2.72,1s0,0,0-.08a.67.67,0,0,0,0-.24q-.2-.59-1.05-.57a2.4,2.4,0,0,0-1.37.72l-.05-.13a1.17,1.17,0,0,0-.49-.47,5.34,5.34,0,0,0,1.84-1.85l.05-.08.13-.21.36-.19,0,0a1.31,1.31,0,0,0,.63.25,1.51,1.51,0,0,0,.82-.2,1.17,1.17,0,0,0,.47.19,1,1,0,0,0,.66-.14.68.68,0,0,0,.31.08h.6a.7.7,0,0,0,.32-.06.66.66,0,0,0,.27.06Zm-4.71-.17h0Z"/><path class="cls-10" d="M28.14,37.39a5.3,5.3,0,0,0-2.35,3.06.08.08,0,0,0,0,.09s.06,0,.08,0a7.21,7.21,0,0,0,1.19-1.12l.2-.2v0A11,11,0,0,1,28,37.85l.08-.13.14-.21a.08.08,0,0,0-.1-.12ZM26.68,39a5.57,5.57,0,0,1,1.24-1.23l0,0a9.26,9.26,0,0,0-.73,1.35l-.18.2a8.88,8.88,0,0,1-1,.94A5.69,5.69,0,0,1,26.68,39Z"/><path class="cls-10" d="M20.52,30.15a1.94,1.94,0,0,0-1.25.44.54.54,0,0,1-.62,0,.63.63,0,0,1-.18-.22.07.07,0,0,0-.06-.05.06.06,0,0,0-.07,0l-1.44,1.6a.07.07,0,0,0,0,.09.07.07,0,0,0,.09,0,.62.62,0,0,1,.27,0l.2.05a.61.61,0,0,1,.39.36h0a.06.06,0,0,0,.05,0,.3.3,0,0,0,.22.09c.25,0,.78,0,1.66-1.3a8.39,8.39,0,0,1,.8-1,.08.08,0,0,0,0-.08A.08.08,0,0,0,20.52,30.15ZM17,31.9h0Zm2.4-1.18a2,2,0,0,1,1-.41,8,8,0,0,0-.7.9c-.83,1.23-1.3,1.23-1.53,1.23h0c-.06,0-.11,0-.14-.06h0a.73.73,0,0,0-.49-.43l-.19-.05-.14,0,1.23-1.36a1.54,1.54,0,0,0,.17.19A.72.72,0,0,0,19.36,30.72Z"/><path class="cls-10" d="M16.44,32.43l-.29.34a.06.06,0,0,0,0,.09.08.08,0,0,0,.08,0,1.06,1.06,0,0,1,.3,0,.1.1,0,0,0,.07,0,.07.07,0,0,0,0,0v-.07a.5.5,0,0,1,0-.12.28.28,0,0,1,0-.09h0a.08.08,0,0,0,0-.07A.08.08,0,0,0,16.44,32.43Z"/><path class="cls-10" d="M11.84,32.51l0,0-.54.9a.1.1,0,0,0,0,.09.08.08,0,0,0,.09,0L13,32.91a.55.55,0,0,1,.62.87h0L5.9,43a.12.12,0,0,0,0,.1.08.08,0,0,0,.09,0c1.51-.36,3.16-.74,4.94-1.07A.09.09,0,0,0,11,42a.08.08,0,0,0,0-.08,1.26,1.26,0,0,1-.26-.31c-.47-.83.15-2,.82-3.11l.08-.14c.19-.31,1.06-1.61,1.9-2.87l1.32-2a.64.64,0,0,1,.25-.21l.1,0a.08.08,0,0,0,.05-.07.09.09,0,0,0-.05-.08A8.18,8.18,0,0,0,11.84,32.51Zm1.29.22a.65.65,0,0,0-.19,0l-1.43.55c.14-.22.39-.65.41-.67A3.24,3.24,0,0,1,13.13,32.73Zm.61,1.15h0a.7.7,0,0,0,.16-.46.71.71,0,0,0-.13-.41.67.67,0,0,0-.22-.19,14,14,0,0,1,1.38.38.84.84,0,0,0-.24.22l-1.32,2c-.85,1.26-1.72,2.56-1.91,2.88l-.08.13a5.35,5.35,0,0,0-1,2.53,1.48,1.48,0,0,0,.19.74,1.1,1.1,0,0,0,.19.25c-1.64.31-3.17.66-4.58,1Z"/><path class="cls-10" d="M14.69,38a12,12,0,0,0-2,2.29,3,3,0,0,0-.28.46.1.1,0,0,0,0,.09.08.08,0,0,0,.09,0,6.33,6.33,0,0,0,1.81-1.79,3.34,3.34,0,0,0,.52-1,.08.08,0,0,0,0-.09A.07.07,0,0,0,14.69,38Zm-1.91,2.38a13.49,13.49,0,0,1,1.76-2.05,3.28,3.28,0,0,1-.38.63,7.67,7.67,0,0,1-1.48,1.57S12.74,40.47,12.78,40.42Z"/><path class="cls-10" d="M15.49,40.69a7.16,7.16,0,0,1-.73.63.08.08,0,0,0,0,.09.08.08,0,0,0,.08.06l.94-.1a.1.1,0,0,0,.07,0,.08.08,0,0,0,0-.08l-.05-.09a1.21,1.21,0,0,1-.14-.43.06.06,0,0,0,0-.06A.08.08,0,0,0,15.49,40.69Zm0,.2a1,1,0,0,0,.12.34l-.56.05A5.34,5.34,0,0,0,15.5,40.89Z"/><path class="cls-10" d="M20.25,33.15a3.14,3.14,0,0,1-2.16.69,1.59,1.59,0,0,1-.87-.26h-.07a.07.07,0,0,0,0,0,20.65,20.65,0,0,1-1.81,2.81.08.08,0,0,0,0,.08.07.07,0,0,0,.06,0,1.51,1.51,0,0,1,.69.28,1.71,1.71,0,0,1,.62,1.09.09.09,0,0,0,.06.07.09.09,0,0,0,.08,0l.93-1.39a.58.58,0,0,1,.24-.2l.37-.16a.08.08,0,0,0,.05-.05.13.13,0,0,0,0-.06.8.8,0,0,1-.11-.25.86.86,0,0,1,0-.28,1.37,1.37,0,0,1,.26-.77,1.35,1.35,0,0,1,1.57-.59.93.93,0,0,1,.5.59l0,.15a.1.1,0,0,0,.08.07.08.08,0,0,0,.08-.06,2.07,2.07,0,0,1,.8-1,.1.1,0,0,0,0-.1.08.08,0,0,0-.08-.05,1.16,1.16,0,0,1-1-.49l-.08-.12a.07.07,0,0,0-.06,0A.07.07,0,0,0,20.25,33.15Zm0,.17,0,.07a1.3,1.3,0,0,0,1,.55,2.55,2.55,0,0,0-.61.74,1,1,0,0,0-.56-.62,1.5,1.5,0,0,0-1.77.64,1.57,1.57,0,0,0-.28.86,1.13,1.13,0,0,0,.05.32.78.78,0,0,0,.09.21l-.3.12a.71.71,0,0,0-.31.26h0l-.83,1.25a1.87,1.87,0,0,0-.64-1,1.51,1.51,0,0,0-.64-.27,26.09,26.09,0,0,0,1.73-2.67,1.77,1.77,0,0,0,.87.24A3.29,3.29,0,0,0,20.28,33.32Z"/><path class="cls-10" d="M19.33,40.52a7.75,7.75,0,0,1-.66.63.08.08,0,0,0,0,.09.08.08,0,0,0,.07,0h.47a.07.07,0,0,0,.06,0s0,0,0-.06V41.1a.57.57,0,0,1,.08-.29l.13-.19a.08.08,0,0,0-.13-.1Zm-.22.45a.51.51,0,0,0,0,.13v0h-.18Z"/><path class="cls-10" d="M20.55,35.39a2,2,0,0,1-.21.45,1.72,1.72,0,0,1-.32.34.07.07,0,0,0,0,.09.51.51,0,0,1,.06.21c0,.3-.45,1-2,3.21a.08.08,0,0,0,0,.11.11.11,0,0,0,.11,0,11.4,11.4,0,0,0,1.31-1.46h0a7.82,7.82,0,0,1,1.93-2,.08.08,0,0,0,0-.08.09.09,0,0,0-.06-.06A1,1,0,0,1,21,36a1.05,1.05,0,0,1-.28-.6.07.07,0,0,0-.07-.06S20.56,35.35,20.55,35.39Zm-.08.54c.05-.09.1-.17.14-.26a1.18,1.18,0,0,0,.26.43,1,1,0,0,0,.35.22,8.12,8.12,0,0,0-1.86,1.93h0a9.65,9.65,0,0,1-.62.75c1.23-1.77,1.47-2.23,1.47-2.52a.43.43,0,0,0-.05-.21A2.45,2.45,0,0,0,20.47,35.93Z"/><path class="cls-10" d="M22.36,39.83a7.6,7.6,0,0,0-1,1.46l-.05.09,0,0a0,0,0,0,0,0,0s0,0,.05,0c.83.11,1.57.23,2.17.33l1.3.2a.08.08,0,0,0,0-.15,1.42,1.42,0,0,1-.69-.52,1.87,1.87,0,0,1-.27-1v-.07a.09.09,0,0,0,0-.07.09.09,0,0,0-.07,0,2.09,2.09,0,0,1-.38,0,1.09,1.09,0,0,1-1-.42.07.07,0,0,0-.06,0A.09.09,0,0,0,22.36,39.83Zm-.83,1.53A7.67,7.67,0,0,1,22.42,40a1.31,1.31,0,0,0,1,.41,2.14,2.14,0,0,0,.32,0,1.93,1.93,0,0,0,.29,1.08,1.34,1.34,0,0,0,.36.35c-.39-.05-.84-.13-.84-.13-.57-.09-1.28-.21-2.06-.31Zm2,.48Z"/><path class="cls-10" d="M24.89,37.66a10.22,10.22,0,0,0-1.14.82,0,0,0,0,0,0,0l-.15.34a.1.1,0,0,0,0,.09.11.11,0,0,0,.08,0,2.09,2.09,0,0,0,1-.8l.05-.06h0l.29-.31a.08.08,0,0,0,0-.11A.09.09,0,0,0,24.89,37.66Zm-.41.47a2.1,2.1,0,0,1-.68.59.87.87,0,0,1,.06-.13A7.67,7.67,0,0,1,24.48,38.13Z"/><path class="cls-10" d="M27.12,41.21a2.42,2.42,0,0,1-1.5.78.08.08,0,0,0-.08.07.08.08,0,0,0,.07.08,17.56,17.56,0,0,0,2.61.13h0A14.16,14.16,0,0,0,30.65,42a.07.07,0,0,0,.06-.07.08.08,0,0,0-.05-.08h0l-.25-.12a2,2,0,0,1-.43-.35.08.08,0,0,0-.11,0,1.93,1.93,0,0,1-1.2.59,1.49,1.49,0,0,1-1.31-.59l-.09-.15a.08.08,0,0,0-.06,0A.09.09,0,0,0,27.12,41.21Zm0,.18a.79.79,0,0,1,.05.1,1.57,1.57,0,0,0,1.07.62h-.06A15.79,15.79,0,0,1,26.15,42,3.09,3.09,0,0,0,27.16,41.39Zm2.74.16a2.29,2.29,0,0,0,.41.32l.07,0a13.3,13.3,0,0,1-1.34.16A2.27,2.27,0,0,0,29.9,41.55Z"/><path class="cls-10" d="M32.8,38l-1.67,2a.1.1,0,0,0,0,.07l.05.05a.54.54,0,0,0,.28,0,1.8,1.8,0,0,0,1.49-.77h0a1.22,1.22,0,0,0,.19-.68,1.87,1.87,0,0,0-.18-.76.1.1,0,0,0-.07,0A.06.06,0,0,0,32.8,38Zm-.14.42.18-.22a1.56,1.56,0,0,1,.13.57,1.13,1.13,0,0,1-.17.6,1.66,1.66,0,0,1-1.36.7h-.11Z"/><path class="cls-10" d="M15.23,33.69l-.06.05-1.31,2c-.8,1.2-1.72,2.56-1.9,2.87l-.09.14c-.36.59-1.22,2-.81,2.68a1.1,1.1,0,0,0,1.06.44,4.74,4.74,0,0,0,4.12-3.16,1.56,1.56,0,0,0-.46-1.52,1.18,1.18,0,0,0-1.26,0,2,2,0,0,0-.42.28l.56-.8c1.83-2.62,2.05-3,2.05-3.16a.09.09,0,0,0,0,0C16.66,33.29,16.58,33.11,15.23,33.69Zm-3.39,7.65c-.12-.22.15-.82.47-1.26.88-1.21,2.11-2.63,2.7-2.64a.26.26,0,0,1,.26.12.48.48,0,0,1,0,.22,3.07,3.07,0,0,1-.69,1.57c-1.31,1.72-2.09,2.08-2.52,2.09C11.89,41.45,11.85,41.37,11.84,41.34Z"/><path class="cls-10" d="M30.92,34.06a.08.08,0,0,0-.05,0l-.52.84c-.31.51-.68,1.12-1.11,1.79a.34.34,0,0,0-.09-.14.63.63,0,0,0-.53-.2,5.68,5.68,0,0,0-3.59,2l0,0a2.12,2.12,0,0,1-1.54,1c-.16,0-.26,0-.31-.11a.36.36,0,0,1-.05-.19,2.23,2.23,0,0,1,.31-.89A12.16,12.16,0,0,1,25.14,37a.33.33,0,0,0,.18-.26.13.13,0,0,0,0-.06c0-.16-.27-.18-.49-.18a3.19,3.19,0,0,0-1.68,1.34l-.4.35a2.55,2.55,0,0,0,.24-1,.87.87,0,0,0-.1-.44.62.62,0,0,0-.59-.32c-.79,0-1.95,1.38-2.46,2.09s-2.11,2.34-2.54,2.35c-.11,0-.14,0-.16-.07s.07-.69.38-1.13c2.19-3.08,2.13-3.23,2.1-3.29s-.12-.28-1.47.3a.15.15,0,0,0-.06,0L17,38.45c-.57.85-1.18,1.9-.84,2.51.16.3.51.44,1.05.43,1.06,0,2.26-1.59,2.9-2.44l.12-.16A6.07,6.07,0,0,1,22.13,37h0A6.73,6.73,0,0,1,21,39c-.78,1.18-1.29,2-1.3,2a.14.14,0,0,0,0,.07.14.14,0,0,0,0,.06.12.12,0,0,0,.11.07l1.09,0a.12.12,0,0,0,.11-.08,8.45,8.45,0,0,1,1.74-2.32,1.87,1.87,0,0,0,0,.32.87.87,0,0,0,.11.44.68.68,0,0,0,.63.27,2.12,2.12,0,0,0,1-.37,3,3,0,0,0-.15.9,1.39,1.39,0,0,0,.2.76,1.12,1.12,0,0,0,1,.44c.77,0,1.46-.82,1.91-1.42,0,.07,0,.14,0,.21a1.33,1.33,0,0,0,.22.79,1.1,1.1,0,0,0,1,.41c.48,0,.93-.47,1.28-.84l0,0a1.67,1.67,0,0,0,.66.68,3.44,3.44,0,0,0,2.36.31,10.51,10.51,0,0,1-4.74,1,23.86,23.86,0,0,1-4.75-.44,37.4,37.4,0,0,0-4.57-.53c-4.3-.23-10.09,1.16-13.21,1.91a.12.12,0,0,0-.09.14.12.12,0,0,0,.12.11,23.71,23.71,0,0,1,6,1.1.13.13,0,0,0,.15,0s2-2.64,7.18-2.42c1.71.08,2.72.22,3.7.35a30.91,30.91,0,0,0,5.65.32c5.5-.1,7.07-2.45,7.14-2.55a.14.14,0,0,0,0-.16l-.21-.2a.12.12,0,0,0-.16,0,4.1,4.1,0,0,1-2.69.77,3.32,3.32,0,0,0,1.67-.68,2.39,2.39,0,0,0,1-1.81,2.73,2.73,0,0,0-.25-1,3,3,0,0,1-.14-.37l-.16-.89A3.61,3.61,0,0,0,34.29,35a.21.21,0,0,0-.17-.08c-.36,0-1.12.88-1.19,1a.09.09,0,0,0,0,.07v0s0,.2.12.46c-.25.28-.75.89-1.29,1.54-.67.81-1.37,1.66-1.54,1.83l-.29.32c-.49.52-.9,1-1.29,1a.16.16,0,0,1-.16-.08,3.31,3.31,0,0,1,.63-2.15c3.42-4.92,3.35-5.07,3.31-5.15S32.28,33.48,30.92,34.06ZM25.35,41c-.21-.39.38-1.68.86-2.36s1.67-1.78,2.35-1.79a.29.29,0,0,1,.26.08.31.31,0,0,1,.05.2.81.81,0,0,1,0,.25l-.36.57-.09.14a8.72,8.72,0,0,0-.73,1.37l-.25.27c-.43.48-1.24,1.37-1.82,1.38h0A.23.23,0,0,1,25.35,41Zm6.86-2.92L33.07,37a3.78,3.78,0,0,0,.24.84,2.17,2.17,0,0,1,.24.94,1.69,1.69,0,0,1-.26.9,2.19,2.19,0,0,1-1.84,1,.94.94,0,0,1-.77-.3.52.52,0,0,1-.13-.27C30.9,39.69,31.59,38.82,32.21,38.06Z"/><path class="cls-10" d="M18.83,35a.85.85,0,0,0-.16.7.49.49,0,0,0,.27.31.92.92,0,0,0,1-.44.94.94,0,0,0,.18-.53,1,1,0,0,0,0-.17.49.49,0,0,0-.27-.31A.92.92,0,0,0,18.83,35Z"/><path class="cls-10" d="M24.52,29.62c0,.11-.16.16-.7.16a4.53,4.53,0,0,1-1-.12C24,29.27,24.52,29.5,24.52,29.62Zm-2-.07-.14,0A5.38,5.38,0,0,0,21,29.3a3.24,3.24,0,0,0-2,.56l0,0-.06.24a0,0,0,0,0,0,.05h0a2.46,2.46,0,0,1,1.56-.52,9.24,9.24,0,0,1,1,.16l.26.06a5.76,5.76,0,0,0-1.65,1.72c-.9,1.34-1.56,1.52-2.08,1.52a.76.76,0,0,1-.75-.49l0,0-.2-.05s0,0,0,0a.06.06,0,0,0,0,0,1,1,0,0,0,1,.74,3,3,0,0,0,2.88-2l.07-.12,0,0a3.15,3.15,0,0,1,1.15-1.25,8.16,8.16,0,0,0,1.24.16c.74,0,1.24-.24,1.24-.46s-.07-.39-1-.39A3,3,0,0,0,22.48,29.55Z"/><path class="cls-10" d="M7.77,28.58C2.76,29,.51,30.81.5,32.39A1.46,1.46,0,0,0,1,33.53a4.15,4.15,0,0,0,2.84.66A.21.21,0,0,0,4,34a.21.21,0,0,0-.12-.21c-.33-.15-1.19-.66-1.22-1.16a.6.6,0,0,1,.18-.46c.26-.27,1.05-.72,3.43-.72a8.52,8.52,0,0,1,2.18.2.23.23,0,0,1,.19.13.42.42,0,0,1-.07.36L4.86,38.4a.21.21,0,0,0,0,.25.2.2,0,0,0,.24.05l2.29-1.07L3.63,44.55a.17.17,0,0,0,0,.1.24.24,0,0,0,.09.17.22.22,0,0,0,.28,0l9.39-11.22a.21.21,0,0,0,0-.25.22.22,0,0,0-.25-.08l-2.78,1.09,1.2-2c.26-.43,2.22-.06,3.9.54a.21.21,0,0,0,.22-.06l2.65-2.94a.18.18,0,0,0,0-.2.21.21,0,0,0-.15-.14A40.57,40.57,0,0,0,7.77,28.58Z"/><path class="cls-5" d="M1.3,33.21a1,1,0,0,1-.39-.81h0c0-1.34,2.17-3,6.9-3.39a39,39,0,0,1,10,.84l-2.32,2.57c-.84-.29-3.72-1.21-4.26-.32h0L9.67,34.63a.2.2,0,0,0,0,.24.2.2,0,0,0,.23.06l2.6-1L5,42.9l3.08-5.64a.16.16,0,0,0,0-.1.19.19,0,0,0,0-.14A.23.23,0,0,0,7.81,37L5.56,38,9,32.36a.93.93,0,0,0,.15-.48.75.75,0,0,0,0-.26.65.65,0,0,0-.47-.37A8.85,8.85,0,0,0,6.31,31c-1.94,0-3.19.29-3.73.86a1,1,0,0,0-.3.71v.06a1.7,1.7,0,0,0,.82,1.12A3.24,3.24,0,0,1,1.3,33.21Z"/><path class="cls-10" d="M35.53,31.81l-.1-.1h0l0,0-.19.25-.24.32c-.23.35-.77.81-.89.75s0,0,0,0,0-.21.09-.3l0-.09c0-.1.83-1.23,1.13-1.66a0,0,0,0,0,0-.05l-.05,0-.73.18,0,0-.15.22a.41.41,0,0,0-.1-.26.34.34,0,0,0-.28-.11,2.1,2.1,0,0,0-1.85,1.5c-.3.43-.55.68-.7.71a.08.08,0,0,1-.08,0,.15.15,0,0,1-.06-.09.5.5,0,0,1,.14-.32l.11-.13A3.17,3.17,0,0,0,32,31.8a.74.74,0,0,0,0-.57.48.48,0,0,0-.32-.27c-.29-.1-.57.23-.72.47a.59.59,0,0,0,0-.23.43.43,0,0,0-.27-.24c-.29-.1-.66.31-.83.53v0a.59.59,0,0,0-.23-.51c-.24-.13-.58.12-.79.43,0,0-.4.61-.64.9-.54.67-.73.78-.79.75l0,0c0-.07.05-.21.09-.3l0-.09c.05-.1.81-1.23,1.1-1.66a0,0,0,0,0,0-.05s0,0,0,0l-.71.18h0l-.15.23a.46.46,0,0,0-.1-.27.37.37,0,0,0-.28-.1A2.08,2.08,0,0,0,25.4,32.5a2.68,2.68,0,0,1-.45.36L24.7,33,26,31v-.05s0,0,0,0l-.73.17,0,0-.82,1.21c-.23.35-.77.8-.89.75s0,0,0,0,0-.2.09-.29l0-.09c0-.1.81-1.24,1.1-1.66a0,0,0,0,0,0-.05s0,0-.05,0l-.7.17,0,0-.83,1.28,0,0a3.79,3.79,0,0,1-.68.38l.12-.12a2.09,2.09,0,0,0,.62-1.27.51.51,0,0,0,0-.22.37.37,0,0,0-.37-.23,2.35,2.35,0,0,0-1.86,1.18.83.83,0,0,0,0,.89.69.69,0,0,0,.75.27A3.31,3.31,0,0,0,23,32.66a.43.43,0,0,1,0,.05.65.65,0,0,0,.11.37.51.51,0,0,0,.36.21.66.66,0,0,0,.44-.17l-.19.3c-.47.2-1,.41-1.35.61-.93.47-1.14,1-1.15,1.19h0a.6.6,0,0,0,.15.4.42.42,0,0,0,.33.12c1,0,2.13-1.22,2.48-1.86,0,0,.26-.44.3-.49l.49-.25a3.3,3.3,0,0,0,.49-.37.78.78,0,0,0,.09.21.61.61,0,0,0,.47.3,1.22,1.22,0,0,0,.89-.45.52.52,0,0,0,.44.45c.28,0,.55-.33.57-.35a8.89,8.89,0,0,0,.64-.82c.3-.41.72-1,.83-.95l0,0a7.05,7.05,0,0,1-1.22,2,0,0,0,0,0,0,.05l0,0h.62s0,0,.11-.1c1.26-1.84,1.53-1.95,1.58-1.94h0a6.92,6.92,0,0,1-1.17,2s0,0,0,.05l0,0H30l0,0s.57-.85.76-1.1l.15-.23c.18-.27.52-.77.66-.7v0s0,.19-.25.6l-.09.15-.34.58a.74.74,0,0,0,0,.62.43.43,0,0,0,.37.23c.27,0,.64-.32.65-.34a2,2,0,0,0,.2-.25.58.58,0,0,0,.1.21.6.6,0,0,0,.47.3,1.21,1.21,0,0,0,.88-.45.54.54,0,0,0,.45.45c.27,0,.64-.33.65-.34a12.4,12.4,0,0,0,.88-1.09A0,0,0,0,0,35.53,31.81ZM21.33,33a.14.14,0,0,1-.08-.1c-.06-.25.29-.8.42-1s.69-.91,1.09-.74a.2.2,0,0,1,.11.13c.05.19-.14.58-.51,1.07C22.19,32.61,21.64,33.16,21.33,33Zm2.08.89c-.31.56-1.07,1.63-1.7,1.63-.22,0-.25-.05-.25-.23s.49-.75.94-1c.19-.1.6-.28,1.05-.48ZM27.21,32l-.26.39,0,.06c-.17.24-.66.73-1,.59a.13.13,0,0,1-.07-.1c-.06-.24.27-.8.39-1,.24-.34.72-.88,1-.74a.16.16,0,0,1,.09.11C27.45,31.44,27.38,31.67,27.21,32Zm6.68,0-.26.39,0,.06c-.18.24-.67.73-1,.59a.15.15,0,0,1-.07-.1c-.06-.24.28-.8.4-1,.23-.34.71-.88,1-.74a.21.21,0,0,1,.1.11A1.05,1.05,0,0,1,33.89,32Z"/></g></g></svg>