<svg xmlns="http://www.w3.org/2000/svg" viewBox="0 0 70 55.57"><defs><style>.cls-1{fill:#f4c21f;}.cls-2{fill:#ec8615;}.cls-3{fill:#f5aa19;}.cls-4{fill:#d35b14;}.cls-5{fill:#e46f10;}.cls-6{fill:#21a3db;}.cls-7{fill:#10357b;}</style></defs><g id="Layer_2" data-name="Layer 2"><g id="レイヤー_1" data-name="レイヤー 1"><polygon class="cls-1" points="42.36 24.23 41.6 17.71 57.14 0 42.36 24.23"/><polygon class="cls-2" points="42.36 24.23 51.1 17.71 57.14 0 42.36 24.23"/><polygon class="cls-3" points="42.36 24.23 51.1 17.71 70 16.76 42.36 24.23"/><polygon class="cls-4" points="42.36 24.23 48.53 26.75 70 16.76 42.36 24.23"/><polygon class="cls-5" points="42.36 24.23 37.44 32.34 0 55.57 42.36 24.23"/><polygon class="cls-1" points="42.36 24.23 33.15 26.75 0 55.57 42.36 24.23"/><polygon class="cls-5" points="42.36 24.23 48.53 26.75 44.66 43.88 42.36 24.23"/><polygon class="cls-4" points="42.36 24.23 37.44 32.34 44.66 43.88 42.36 24.23"/><polygon class="cls-3" points="42.36 24.23 41.6 17.71 23.87 16.76 42.36 24.23"/><polygon class="cls-2" points="42.36 24.23 33.15 26.75 23.87 16.76 42.36 24.23"/><path class="cls-6" d="M30.37,19.12a.35.35,0,0,0-.3.18l-.07.13a.28.28,0,0,0,0,.32l-.66,1.14-.07.11a.35.35,0,0,0-.28.17l-.07.12a.29.29,0,0,0-.05.18.3.3,0,0,0,.05.17.34.34,0,0,0,.29.17H30a.36.36,0,0,0,.3-.17l.07-.13a.32.32,0,0,0,0-.16.33.33,0,0,0,0-.17L31,20a.47.47,0,0,0,.06-.1.38.38,0,0,0,.28-.17l.08-.13a.38.38,0,0,0,0-.34.35.35,0,0,0-.3-.18Z"/><path class="cls-6" d="M33.24,19.28a1.44,1.44,0,0,0-.51.53,1,1,0,0,0-.13.47.78.78,0,0,0,.25.57l0,0,0,0s0,0,0-.06a.34.34,0,0,0-.29-.17h-.14a.35.35,0,0,0-.3.17l-.23.41a.33.33,0,0,0,0,.29.35.35,0,0,0,.22.21,1.87,1.87,0,0,0,.56.09,1.33,1.33,0,0,0,.74-.22,1.41,1.41,0,0,0,.55-.56.89.89,0,0,0,.13-.46.79.79,0,0,0-.12-.42l.05,0h.15a.33.33,0,0,0,.29-.18l.21-.35a.37.37,0,0,0,0-.29.31.31,0,0,0-.2-.2,1.33,1.33,0,0,0-.55-.12A1.31,1.31,0,0,0,33.24,19.28Z"/><path class="cls-6" d="M37.42,19.12l-.11,0a.35.35,0,0,0-.11,0h-.59a.33.33,0,0,0-.29.18l-.08.13a.29.29,0,0,0,0,.16.42.42,0,0,0,0,.16c-.12.22-.65,1.14-.66,1.14l-.06.11a.35.35,0,0,0-.28.17l-.08.12a.37.37,0,0,0,0,.18.38.38,0,0,0,0,.17.36.36,0,0,0,.3.17h.77a.35.35,0,0,0,.11,0l.12,0H37a.35.35,0,0,0,.3-.17l.07-.13a.33.33,0,0,0,.05-.16.34.34,0,0,0-.05-.17L38.07,20l.07-.1a.4.4,0,0,0,.28-.17l.07-.13a.35.35,0,0,0-.29-.52Z"/><path class="cls-6" d="M40.38,19.12a.33.33,0,0,0-.29.18l-.08.13a.29.29,0,0,0,0,.16.42.42,0,0,0,0,.16l-.66,1.14a.67.67,0,0,1-.06.11.35.35,0,0,0-.28.17l-.08.12a.37.37,0,0,0,0,.18.38.38,0,0,0,0,.17.36.36,0,0,0,.3.17H40a.34.34,0,0,0,.29-.17l.08-.13a.32.32,0,0,0,0-.16.33.33,0,0,0,0-.17L41,20a.79.79,0,0,1,.06-.1.38.38,0,0,0,.28-.17l.08-.13a.38.38,0,0,0,0-.34.35.35,0,0,0-.3-.18Z"/><path class="cls-6" d="M44.52,19.12a.33.33,0,0,0-.21.09.33.33,0,0,0-.21-.09h-.75a.34.34,0,0,0-.3.18l-.07.13a.28.28,0,0,0,0,.32l-.66,1.14-.07.11a.35.35,0,0,0-.28.17l-.07.12a.37.37,0,0,0,0,.18.41.41,0,0,0,0,.17.34.34,0,0,0,.29.17h.75a.33.33,0,0,0,.14,0,.42.42,0,0,0,.15,0H44a.36.36,0,0,0,.3-.17l.07-.13a.31.31,0,0,0,0-.34.43.43,0,0,0-.09-.1s0-.05,0-.06-.05-.34-.09-.57l.45-.28.28-.17.08,0h0a.35.35,0,0,0,.3-.17l.07-.13a.38.38,0,0,0,0-.34.35.35,0,0,0-.3-.18Z"/><path class="cls-6" d="M48.06,19.08a.36.36,0,0,0-.26.11l-1.47,1.65a1.2,1.2,0,0,1-.11.12l0,0a.36.36,0,0,0-.23.17l-.07.12a.37.37,0,0,0,0,.18.41.41,0,0,0,0,.17.34.34,0,0,0,.29.17h.4a.35.35,0,0,0,.24-.12.31.31,0,0,0,.23.12h.71a.34.34,0,0,0,.29-.17l.08-.13a.38.38,0,0,0,0-.34h0s.41-1.65.41-1.65,0-.05,0-.08a.32.32,0,0,0-.08-.21.3.3,0,0,0-.26-.13Z"/><path class="cls-6" d="M52.68,19.12a.36.36,0,0,0-.27.15.37.37,0,0,0-.24-.1H52a.38.38,0,0,0-.21.07.31.31,0,0,0-.24-.12h-.7a.33.33,0,0,0-.29.18l-.08.13a.29.29,0,0,0,0,.16.34.34,0,0,0,0,.17h0L50,21.38a.36.36,0,0,0,0,.1.37.37,0,0,0,.35.35h.15a.37.37,0,0,0,.26-.12s.13-.15.17-.21a.26.26,0,0,0,.07.19.32.32,0,0,0,.27.14h.15a.36.36,0,0,0,.26-.12L53,20.09l.13-.16a.36.36,0,0,0,.25-.16l.07-.13a.34.34,0,0,0,.05-.17.37.37,0,0,0-.05-.17.34.34,0,0,0-.29-.17h-.43Z"/><path class="cls-6" d="M55.89,19.08a.35.35,0,0,0-.26.11l-1.47,1.65-.11.12,0,0a.36.36,0,0,0-.23.17l-.08.12a.37.37,0,0,0,0,.18.38.38,0,0,0,0,.17.38.38,0,0,0,.3.17h.4a.31.31,0,0,0,.23-.12.35.35,0,0,0,.24.12h.71a.34.34,0,0,0,.29-.17l.08-.13a.38.38,0,0,0,0-.34h0s.42-1.65.42-1.65,0-.05,0-.08a.32.32,0,0,0-.08-.21.31.31,0,0,0-.27-.13Z"/><path class="cls-3" d="M30.37,19.37a.08.08,0,0,0-.08.05l-.08.13s0,0,0,0,0,0,0,.05a.08.08,0,0,0,.07.05h0l-.08.13L29.55,21l-.09.16s0,.06-.17.06a.09.09,0,0,0-.08.05l-.08.13a.07.07,0,0,0,0,.09.1.1,0,0,0,.08,0H30a.09.09,0,0,0,.08,0l.08-.13v0a.06.06,0,0,0,0-.05s0-.05-.08-.06h0l.08-.13.68-1.2.1-.15s0-.07.17-.07a.09.09,0,0,0,.08-.05l.07-.13a.07.07,0,0,0,0-.09.08.08,0,0,0-.08-.05Z"/><path class="cls-3" d="M33.37,19.49a1.29,1.29,0,0,0-.43.44.57.57,0,0,0,.08.74l.08.08a.18.18,0,0,1,0,.24.48.48,0,0,1-.41.3c-.09,0-.12,0-.13,0a.42.42,0,0,1,.06-.18.07.07,0,0,0,0-.09.09.09,0,0,0-.08,0h-.14a.08.08,0,0,0-.08,0l-.24.4a.14.14,0,0,0,0,.09.1.1,0,0,0,.06.05,1.61,1.61,0,0,0,.48.08,1.14,1.14,0,0,0,.61-.18,1.35,1.35,0,0,0,.47-.48.6.6,0,0,0-.08-.75l-.08-.08a.18.18,0,0,1,0-.22.46.46,0,0,1,.37-.26H34a.27.27,0,0,1-.06.16.09.09,0,0,0,0,.05.06.06,0,0,0,0,0A.1.1,0,0,0,34,20h.15a.1.1,0,0,0,.08-.05l.21-.36a.09.09,0,0,0,0-.07.06.06,0,0,0,0-.06,1.27,1.27,0,0,0-.46-.1A1.07,1.07,0,0,0,33.37,19.49Z"/><path class="cls-3" d="M37.42,19.37a.1.1,0,0,0-.08.05l-.07.13a.06.06,0,0,0,0,0s0,0,0,.05a.1.1,0,0,0,.08.05h0l-.07.13-.23.39h-.19l.4-.7a.08.08,0,0,0,0,0s0,0,0,0a.09.09,0,0,0-.08-.05h-.59a.1.1,0,0,0-.08.05l-.07.13a.06.06,0,0,0,0,0,.09.09,0,0,0,0,.05.1.1,0,0,0,.08.05h0l-.07.13L35.8,21l-.1.16s0,.06-.17.06a.1.1,0,0,0-.08.05l-.07.13a.07.07,0,0,0,0,.09.09.09,0,0,0,.08,0h.77a.09.09,0,0,0,.08,0l.08-.13v0a.06.06,0,0,0,0-.05s0-.05-.08-.06h0l.07-.13.32-.55h.19l-.5.86s0,0,0,0a.09.09,0,0,0,0,.05.11.11,0,0,0,.09,0H37a.08.08,0,0,0,.08,0l.08-.13s0,0,0,0,0,0,0,0a.1.1,0,0,0-.09-.06h0a1.11,1.11,0,0,1,.07-.13l.69-1.2.09-.15s0-.07.17-.07a.08.08,0,0,0,.08-.05l.08-.13a.14.14,0,0,0,0-.09.1.1,0,0,0-.08-.05Z"/><path class="cls-3" d="M40.38,19.37a.1.1,0,0,0-.08.05l-.07.13a.06.06,0,0,0,0,0,.09.09,0,0,0,0,.05.09.09,0,0,0,.08.05h0l-.07.13L39.57,21l-.1.16s0,.06-.16.06a.11.11,0,0,0-.09.05l-.07.13a.07.07,0,0,0,0,.09.1.1,0,0,0,.08,0H40a.1.1,0,0,0,.08,0l.07-.13a0,0,0,0,0,0,0s0,0,0-.05,0-.05-.08-.06h0l.07-.13.69-1.2.1-.15s0-.07.17-.07a.1.1,0,0,0,.08-.05l.07-.13a.07.07,0,0,0,0-.09.1.1,0,0,0-.08-.05Z"/><path class="cls-3" d="M44.52,19.37a.08.08,0,0,0-.08.05l-.08.13a.07.07,0,0,0,0,.05.06.06,0,0,0,0,0h0l0,0-.18.12-.48.3.1-.16.09-.16,0-.05.11,0a.1.1,0,0,0,.08,0l.08-.13a.11.11,0,0,0,0-.05.08.08,0,0,0-.09-.09h-.76s-.07,0-.08,0l-.08.13s0,0,0,0,0,0,0,.05a.08.08,0,0,0,.07.05h0s-.07.14-.07.14L42.53,21l-.09.16s0,.06-.17.06a.09.09,0,0,0-.08.05l-.08.13a.14.14,0,0,0,0,.09.11.11,0,0,0,.09,0h.74a.1.1,0,0,0,.08,0l.08-.13v0a.08.08,0,0,0,0-.05.08.08,0,0,0-.07-.05l.07-.14.17-.28,0,.26v.15h0a.16.16,0,0,0-.08.05l-.07.13s0,0,0,0a.05.05,0,0,0,0,0,.08.08,0,0,0,.08,0H44a.09.09,0,0,0,.08,0l.08-.12s0,0,0,0a.08.08,0,0,0,0-.05s-.05-.05-.08-.06h0a1.54,1.54,0,0,1,0-.17s-.08-.56-.11-.74l.59-.37.27-.17a.46.46,0,0,1,.2-.09h0a.09.09,0,0,0,.08,0l.07-.13a.09.09,0,0,0-.08-.14h-.5Z"/><path class="cls-3" d="M47.35,20.68H47.2l.21-.24Zm.52.41.41-1.65v0a.07.07,0,0,0,0-.06.1.1,0,0,0-.07,0h-.13a.08.08,0,0,0-.07,0L46.52,21l-.12.12c-.09.1-.13.11-.13.11h0a.13.13,0,0,0-.07.05l-.08.13a.43.43,0,0,0,0,0,.08.08,0,0,0,0,0,.1.1,0,0,0,.08,0h.4a.1.1,0,0,0,.08,0l.07-.13a.06.06,0,0,0,0,0,.09.09,0,0,0,0-.05l0,0,.12-.13.12-.14h.36a.2.2,0,0,1,0,.05c0,.13,0,.17,0,.18h-.1a.09.09,0,0,0-.08.05l-.08.13s0,0,0,0a.09.09,0,0,0,0,.05.11.11,0,0,0,.09,0h.7a.1.1,0,0,0,.08,0l.07-.13a.08.08,0,0,0,0,0s0,0,0-.05a.09.09,0,0,0-.06,0h0l0-.15"/><path class="cls-3" d="M52.68,19.37a.1.1,0,0,0-.08.05l-.07.13a.06.06,0,0,0,0,0,.09.09,0,0,0,0,.05.05.05,0,0,0,0,0,.07.07,0,0,1,0,0l-.07.1-.48.57c.12-.38.26-.85.26-.85v0a.08.08,0,0,0,0-.05.09.09,0,0,0-.07,0H52a.19.19,0,0,0-.08,0l-.79.92.16-.47a.82.82,0,0,1,.07-.19h.11a.08.08,0,0,0,.08-.05l.08-.13a.07.07,0,0,0,0-.05.06.06,0,0,0,0,0,.1.1,0,0,0-.08-.05h-.7a.09.09,0,0,0-.08.05l-.08.12s0,0,0,.05a.08.08,0,0,0,0,0,.11.11,0,0,0,.07.06s0,.07,0,.14l-.53,1.62v0l0,.05a.09.09,0,0,0,.08,0h.14a.08.08,0,0,0,.07,0l.89-1.05c-.12.41-.27,1-.27,1a0,0,0,0,0,0,0,.11.11,0,0,0,0,.05.09.09,0,0,0,.08,0h.15a.11.11,0,0,0,.07,0l1.33-1.62.15-.17a.16.16,0,0,1,.13-.06.1.1,0,0,0,.08-.05l.07-.13a.08.08,0,0,0,0-.09.08.08,0,0,0-.08-.05Z"/><path class="cls-3" d="M55.18,20.68H55l.22-.24Zm.51.41.42-1.65v0a.14.14,0,0,0,0-.06.12.12,0,0,0-.08,0h-.12a.12.12,0,0,0-.08,0L54.34,21a1.2,1.2,0,0,1-.11.12c-.09.1-.13.11-.13.11h-.05a.18.18,0,0,0-.07.05l-.07.13a.08.08,0,0,0,0,0s0,0,0,0a.09.09,0,0,0,.08,0h.39a.11.11,0,0,0,.09,0l.07-.13a.06.06,0,0,0,0,0,.09.09,0,0,0,0-.05l0,0,.12-.13.12-.14h.36v.05a.5.5,0,0,1-.06.18h-.09a.11.11,0,0,0-.09.05l-.07.13a.06.06,0,0,0,0,0,.09.09,0,0,0,0,.05.1.1,0,0,0,.08,0h.71a.1.1,0,0,0,.08,0l.07-.13a.06.06,0,0,0,0,0,.09.09,0,0,0,0-.05.09.09,0,0,0-.06,0h0l0-.15"/><path class="cls-7" d="M29.21,21.47l.08-.13a.28.28,0,0,0,.25-.11l.09-.16.7-1.2.08-.16c.05-.07,0-.11-.12-.11l.08-.13h.77l-.07.13a.27.27,0,0,0-.25.11l-.1.16L30,21.07l-.09.16c0,.07,0,.11.12.11l-.07.13Z"/><path class="cls-7" d="M32.18,21.44l.24-.4h.14c-.13.23-.09.35.15.35A.58.58,0,0,0,33.2,21a.27.27,0,0,0,0-.36l-.07-.07A.47.47,0,0,1,33,20a1.09,1.09,0,0,1,.39-.41.94.94,0,0,1,.5-.15,1.06,1.06,0,0,1,.42.09l-.21.36H34c.12-.21.09-.32-.09-.32a.52.52,0,0,0-.45.31.25.25,0,0,0,0,.33l.07.08a.49.49,0,0,1,.07.64,1.29,1.29,0,0,1-.43.44,1.07,1.07,0,0,1-.57.16A1.5,1.5,0,0,1,32.18,21.44Z"/><path class="cls-7" d="M35.46,21.47l.08-.13a.25.25,0,0,0,.24-.11l.1-.16.69-1.2.09-.16c0-.07,0-.11-.12-.11l.07-.13h.59l-.48.84h.41l.25-.44.09-.16c0-.07,0-.11-.12-.11l.07-.13h.78l-.08.13a.25.25,0,0,0-.24.11l-.1.16-.7,1.2-.08.16c0,.07,0,.11.12.11l-.08.13h-.58l.57-1h-.4l-.35.6-.09.16c0,.07,0,.11.12.11l-.08.13Z"/><path class="cls-7" d="M39.23,21.47l.08-.13a.25.25,0,0,0,.24-.11l.1-.16.69-1.2.09-.16c0-.07,0-.11-.12-.11l.08-.13h.77l-.07.13a.27.27,0,0,0-.25.11l-.1.16-.69,1.2-.09.16c0,.07,0,.11.12.11l-.07.13Z"/><path class="cls-7" d="M42.2,21.47l.07-.13a.28.28,0,0,0,.25-.11l.09-.16.7-1.2.08-.16c0-.07,0-.11-.12-.11l.08-.13h.75L44,19.6l-.14,0a.19.19,0,0,0-.09.09l-.1.16-.28.5.8-.51.19-.13a.42.42,0,0,0,.13-.1s0,0-.07,0h0l.08-.13H45L45,19.6h0a.48.48,0,0,0-.25.1l-.27.17-.64.4.12.81,0,.16a.1.1,0,0,0,.11.1l-.07.13h-.72l.07-.13c.05,0,.08,0,.09,0s0,0,0-.09v-.14l-.05-.54h0l-.31.54-.08.16c0,.07,0,.11.09.11l-.08.13Z"/><path class="cls-7" d="M46.56,21.47l.07-.13c-.08,0-.1,0-.08-.06a1.86,1.86,0,0,1,.17-.21l.15-.16h.53l0,.16a1.19,1.19,0,0,1-.06.21s-.08.06-.18.06l-.07.13h.7l.07-.13c-.06,0-.08,0-.07-.11l0-.16.41-1.65h-.13l-1.47,1.65-.12.13c-.08.08-.14.13-.18.13h0l-.07.13Zm1-1.37-.17.68H47l.61-.68"/><path class="cls-7" d="M50.28,21.48l.53-1.61a.81.81,0,0,0,.06-.22s0,0-.1,0l.07-.13h.7l-.07.13h0c-.09,0-.15,0-.17,0s0,.1-.08.22l-.3.91L52,19.51h.18l-.39,1.29.77-.93.08-.09a.7.7,0,0,0,.08-.12s0-.06-.1-.06l.07-.13h.43L53,19.6a.26.26,0,0,0-.21.1l-.14.17-1.33,1.61H51.2l.39-1.38-1.16,1.38Z"/><path class="cls-7" d="M54.39,21.47l.07-.13c-.08,0-.1,0-.08-.06a1.11,1.11,0,0,1,.17-.21l.15-.16h.52l0,.16c0,.11,0,.19-.06.21s-.09.06-.18.06l-.08.13h.71l.07-.13c-.06,0-.09,0-.07-.11l0-.16L56,19.42h-.13l-1.47,1.65-.12.13c-.08.08-.14.13-.18.13h-.06l-.07.13Zm1-1.37-.17.68h-.44l.61-.68"/><path class="cls-6" d="M21.86,27.34l-.28.48s-.32.53-.32.53-.09.14-.27.14a.46.46,0,0,0-.32.13C20.74,28.53,21.34,27.89,21.86,27.34Zm3.26-5.13a.56.56,0,0,0-.37.15L22.31,25c.26-1.06.52-2.14.52-2.14a.49.49,0,0,0,0-.12.46.46,0,0,0-.11-.3.47.47,0,0,0-.38-.19H20.19a.51.51,0,0,0-.43.24l-.24.43a.48.48,0,0,0,0,.5.62.62,0,0,0,.18.18c0,.07-.08.14-.13.24l-2.33,4a4.56,4.56,0,0,1-.41.64.9.9,0,0,1-.26,0,.48.48,0,0,0-.43.25l-.25.42a.48.48,0,0,0,0,.5.5.5,0,0,0,.43.25H18a.47.47,0,0,0,.42-.25l.25-.43a.46.46,0,0,0,.06-.23.59.59,0,0,0-.07-.25.53.53,0,0,0-.12-.14l.17-.3L19.46,27c-.12.51-.31,1.28-.31,1.28a.37.37,0,0,0,0,.11.5.5,0,0,0,.1.31.51.51,0,0,0,.39.19h.53a.48.48,0,0,0,.36-.16l.09-.1a.18.18,0,0,0-.05.07l-.25.42a.57.57,0,0,0-.06.25.51.51,0,0,0,.06.25.48.48,0,0,0,.43.25h2.31a.47.47,0,0,0,.42-.25l.25-.43a.52.52,0,0,0,.07-.25.51.51,0,0,0-.07-.24.55.55,0,0,0-.18-.19,2,2,0,0,1,.13-.23l2.32-4a3.58,3.58,0,0,1,.42-.63.51.51,0,0,1,.26,0,.5.5,0,0,0,.43-.24l.25-.43a.54.54,0,0,0,.06-.25.57.57,0,0,0-.06-.25.51.51,0,0,0-.43-.24h-1.8"/><path class="cls-6" d="M26,24.61a.48.48,0,0,0-.43.25l-.2.33a.46.46,0,0,0-.05.23.58.58,0,0,0,.06.26.71.71,0,0,0,.12.13l-.08.13-1.24,2.15-.26.42c0,.06-.15.07-.21.07a.48.48,0,0,0-.43.25l-.2.33a.5.5,0,0,0,0,.5.48.48,0,0,0,.43.25h1.93a.48.48,0,0,0,.43-.25l.19-.34a.46.46,0,0,0,.06-.22.58.58,0,0,0-.06-.26.43.43,0,0,0-.11-.12,1.23,1.23,0,0,0,.08-.15s1.24-2.15,1.24-2.15l.26-.42c0-.05.13-.06.2-.06a.5.5,0,0,0,.43-.25l.2-.34a.53.53,0,0,0,0-.49.48.48,0,0,0-.43-.25Z"/><path class="cls-6" d="M28.42,24.61a.47.47,0,0,0-.42.25l-.2.33a.46.46,0,0,0-.06.23.48.48,0,0,0,.07.26.53.53,0,0,0,.1.12,1.45,1.45,0,0,1-.08.14l-1.24,2.15-.26.42s-.09.07-.2.07a.48.48,0,0,0-.43.25l-.19.33a.5.5,0,0,0,0,.5.48.48,0,0,0,.43.25h2.8a.48.48,0,0,0,.42-.25l.63-1.08a.48.48,0,0,0,0-.49.48.48,0,0,0-.43-.25h-.49l.83-1.43L30,26c0-.06.12-.06.2-.06a.52.52,0,0,0,.43-.25l.19-.34a.48.48,0,0,0,0-.49.49.49,0,0,0-.43-.26H28.42Z"/><path class="cls-6" d="M31.67,24.61a.48.48,0,0,0-.43.25l-.19.33a.46.46,0,0,0-.06.23.48.48,0,0,0,.07.26.53.53,0,0,0,.1.12,1.45,1.45,0,0,1-.08.14l-1.24,2.15-.25.42s-.1.07-.21.07a.48.48,0,0,0-.43.25l-.19.33a.5.5,0,0,0,0,.5.48.48,0,0,0,.43.25H32a.48.48,0,0,0,.42-.25L33,28.58a.53.53,0,0,0,0-.49.5.5,0,0,0-.43-.25h-.49L33,26.42,33.2,26c0-.06.13-.06.21-.06a.49.49,0,0,0,.42-.25l.2-.34a.48.48,0,0,0,0-.49.49.49,0,0,0-.43-.26H31.67Z"/><path class="cls-6" d="M34.91,24.61a.48.48,0,0,0-.43.25l-.2.33a.46.46,0,0,0-.06.23.59.59,0,0,0,.07.26l.11.13-.07.13-1.24,2.15s-.26.42-.26.42-.15.07-.22.07a.47.47,0,0,0-.42.25l-.2.33a.5.5,0,0,0,0,.5.48.48,0,0,0,.43.25h1.93a.48.48,0,0,0,.42-.25l.2-.34A.46.46,0,0,0,35,29.1a.59.59,0,0,0-.07-.26.29.29,0,0,0-.1-.12l.07-.15s1.25-2.15,1.25-2.15l.25-.42a.28.28,0,0,1,.21-.06.49.49,0,0,0,.42-.25l.2-.34a.48.48,0,0,0,0-.49.48.48,0,0,0-.43-.25Z"/><path class="cls-6" d="M37.79,27a7.2,7.2,0,0,1-1,1.42c.1-.21.24-.5.47-.9a7.88,7.88,0,0,1,1-1.38A9.62,9.62,0,0,1,37.79,27Zm2.47-1.49a1.28,1.28,0,0,0-1.42-1,3.22,3.22,0,0,0-1.92.71A6,6,0,0,0,35.35,27a3.11,3.11,0,0,0-.56,2,1.25,1.25,0,0,0,1.39,1,3.28,3.28,0,0,0,2-.71,6,6,0,0,0,1.58-1.83,3.07,3.07,0,0,0,.55-2"/><path class="cls-6" d="M43.3,24.61a.47.47,0,0,0-.42.25l-.2.33a.46.46,0,0,0-.06.23.59.59,0,0,0,.07.26.53.53,0,0,0,.1.12l-.08.15-.25.43L42.24,25a.49.49,0,0,0-.49-.41h-1a.48.48,0,0,0-.42.25l-.2.33a.46.46,0,0,0-.06.23.48.48,0,0,0,.07.26.38.38,0,0,0,.1.12l-.07.13L39,28.09a4.56,4.56,0,0,1-.3.47.47.47,0,0,1-.16,0,.48.48,0,0,0-.43.25l-.19.33a.47.47,0,0,0-.07.25.43.43,0,0,0,.07.25.47.47,0,0,0,.42.25h1.43a.47.47,0,0,0,.42-.25l.2-.34a.46.46,0,0,0,.06-.22.48.48,0,0,0-.07-.26.29.29,0,0,0-.1-.12,1.11,1.11,0,0,1,.08-.15l.24-.41c.1.68.21,1.37.21,1.37a.49.49,0,0,0,.49.41h.49a.5.5,0,0,0,.43-.24l1.89-3.27.26-.42v0s.08,0,.19,0a.5.5,0,0,0,.43-.25l.19-.34a.45.45,0,0,0,.07-.25.42.42,0,0,0-.07-.24.48.48,0,0,0-.43-.25Z"/><path class="cls-6" d="M47.86,22.64a4.5,4.5,0,0,0-1.44,1.53,2.13,2.13,0,0,0,.17,2.69l.21.24c.11.13.21.29,0,.64-.53.91-1,.91-1.17.91h-.16a1.87,1.87,0,0,1,.19-.43.5.5,0,0,0,.06-.24.54.54,0,0,0-.06-.25.5.5,0,0,0-.43-.25H44.8a.48.48,0,0,0-.43.25l-.78,1.36a.48.48,0,0,0,0,.42.46.46,0,0,0,.3.29,4.66,4.66,0,0,0,1.56.27,3.72,3.72,0,0,0,2.05-.62A4.78,4.78,0,0,0,49,27.79a2.59,2.59,0,0,0,.38-1.3,2.23,2.23,0,0,0-.54-1.42l-.22-.26a.47.47,0,0,1-.13-.29.54.54,0,0,1,.09-.27c.43-.74.82-.79,1-.79a3.43,3.43,0,0,1-.17.34.5.5,0,0,0-.06.24.51.51,0,0,0,.06.25.48.48,0,0,0,.43.25h.45a.48.48,0,0,0,.43-.25l.7-1.2a.51.51,0,0,0,0-.4.47.47,0,0,0-.27-.3,3.48,3.48,0,0,0-1.49-.34A3.32,3.32,0,0,0,47.86,22.64Z"/><path class="cls-6" d="M50.06,24.61a.5.5,0,0,0-.43.25L49,25.94a.48.48,0,0,0,0,.49.5.5,0,0,0,.43.25h.23l-.94,1.62-.2.33h-.18a.55.55,0,0,0-.42.25l-.16.27a.57.57,0,0,0-.06.25.51.51,0,0,0,.06.25.48.48,0,0,0,.43.25h1.93a.5.5,0,0,0,.43-.25l.15-.28a.39.39,0,0,0,.06-.21.58.58,0,0,0-.06-.26.69.69,0,0,0-.11-.13l1.32-2.28a.49.49,0,0,0,.38.18h.32a.5.5,0,0,0,.43-.25l.62-1.08a.48.48,0,0,0,0-.49.48.48,0,0,0-.43-.25Z"/><path class="cls-6" d="M55.14,24.47a.52.52,0,0,0-.37.16l-3.36,3.59a1.68,1.68,0,0,1-.38.35h-.09a.52.52,0,0,0-.37.24l-.19.34a.45.45,0,0,0-.07.25.47.47,0,0,0,.07.25.5.5,0,0,0,.42.25h1a.5.5,0,0,0,.43-.25l.19-.34a.46.46,0,0,0,.06-.23.78.78,0,0,0,0-.16l.23-.26h.2a.54.54,0,0,0-.15.15l-.19.34a.55.55,0,0,0-.07.25.59.59,0,0,0,.07.25.5.5,0,0,0,.43.25h1.75a.5.5,0,0,0,.43-.25l.19-.34a.45.45,0,0,0,.07-.25.54.54,0,0,0,0-.22.5.5,0,0,0-.15-.17h0s.72-3.61.72-3.61,0-.06,0-.1a.51.51,0,0,0-.11-.31.5.5,0,0,0-.39-.18Z"/><path class="cls-6" d="M57.64,24.61a.46.46,0,0,0-.42.25l-.2.33a.46.46,0,0,0-.06.23.48.48,0,0,0,.07.26.53.53,0,0,0,.1.12,1.45,1.45,0,0,1-.08.14l-1.24,2.15-.26.42s-.09.07-.2.07a.48.48,0,0,0-.43.25l-.19.33a.5.5,0,0,0,0,.5.48.48,0,0,0,.42.25H57a.48.48,0,0,0,.43-.25v0a.41.41,0,0,0,.07.11.5.5,0,0,0,.37.17h1.18a.48.48,0,0,0,.43-.25l.19-.34a.45.45,0,0,0,.07-.25.48.48,0,0,0-.21-.39v-.11s.05-.6.07-1a2.85,2.85,0,0,0,1.4-1.2,1.49,1.49,0,0,0,.24-.75.89.89,0,0,0-.12-.45c-.3-.52-1-.58-1.52-.58Z"/><path class="cls-6" d="M60.9,26a1.47,1.47,0,0,0,.36,2l.19.17a.41.41,0,0,1,.1.1,0,0,0,0,1,0,0,.78.78,0,0,1-.73.44h0a.52.52,0,0,0,.07-.25.51.51,0,0,0-.07-.24.5.5,0,0,0-.43-.25H60a.5.5,0,0,0-.43.25l-.52.92a.47.47,0,0,0,0,.43.46.46,0,0,0,.33.29,4.85,4.85,0,0,0,1.26.18,3.21,3.21,0,0,0,1.63-.43,3,3,0,0,0,1.18-1.14,1.73,1.73,0,0,0,.27-.89,1.52,1.52,0,0,0-.6-1.17l-.2-.16-.09-.1a.63.63,0,0,1,.47-.33.68.68,0,0,0,0,.14.48.48,0,0,0,.07.26.49.49,0,0,0,.42.24h.32a.48.48,0,0,0,.43-.25l.46-.8a.5.5,0,0,0-.27-.71,3.58,3.58,0,0,0-1.22-.22A2.83,2.83,0,0,0,60.9,26Z"/><path class="cls-3" d="M25.12,22.54a.17.17,0,0,0-.13.05l-3.29,3.5.81-3.35v0a.17.17,0,0,0,0-.1.16.16,0,0,0-.13-.06H20.19a.16.16,0,0,0-.14.08l-.25.43a.19.19,0,0,0,0,.08.11.11,0,0,0,0,.08.16.16,0,0,0,.14.08.74.74,0,0,1,.24,0,3.65,3.65,0,0,1-.33.64l-2.32,4a3.85,3.85,0,0,1-.48.72.76.76,0,0,1-.49.11.15.15,0,0,0-.14.09l-.25.42a.29.29,0,0,0,0,.09.24.24,0,0,0,0,.08.18.18,0,0,0,.15.08H18a.18.18,0,0,0,.15-.08l.24-.43a.15.15,0,0,0,0-.16.17.17,0,0,0-.14-.09.38.38,0,0,1-.16,0,.34.34,0,0,1,0-.11l.29-.54s1.15-2,1.87-3.24l-.84,3.49v0a.2.2,0,0,0,0,.11.2.2,0,0,0,.13.06h.53a.18.18,0,0,0,.12-.05l3.28-3.49L21.86,28l-.32.54a.58.58,0,0,1-.55.29.16.16,0,0,0-.15.09l-.24.43a.15.15,0,0,0,0,.16.15.15,0,0,0,.14.08H23a.18.18,0,0,0,.15-.08l.24-.43a.13.13,0,0,0,0-.08.11.11,0,0,0,0-.08.14.14,0,0,0-.14-.09.86.86,0,0,1-.23,0,3.15,3.15,0,0,1,.32-.65l2.33-4a3.25,3.25,0,0,1,.48-.71c0-.06.18-.13.48-.13a.19.19,0,0,0,.15-.08l.24-.42a.15.15,0,0,0,0-.09.13.13,0,0,0,0-.08.16.16,0,0,0-.14-.08Z"/><path class="cls-3" d="M26,24.94a.16.16,0,0,0-.14.08l-.2.34a.17.17,0,0,0,0,.16.17.17,0,0,0,.14.09H26s0,0,0,0l-.24.44-1.24,2.15-.26.43a.51.51,0,0,1-.5.23.18.18,0,0,0-.15.08l-.19.34a.17.17,0,0,0,0,.16.16.16,0,0,0,.14.08h1.93a.16.16,0,0,0,.14-.08l.2-.34a.17.17,0,0,0,0-.16.18.18,0,0,0-.15-.08.44.44,0,0,1-.15,0s0,0,0,0l.24-.44L27,26.26l.26-.44a.5.5,0,0,1,.48-.21.19.19,0,0,0,.15-.09l.19-.34a.17.17,0,0,0,0-.16.17.17,0,0,0-.14-.09H26Z"/><path class="cls-3" d="M28.42,24.94a.16.16,0,0,0-.14.08l-.2.34a.17.17,0,0,0,0,.16.19.19,0,0,0,.15.09h.15l0,0-.24.44s-1.24,2.15-1.24,2.15l-.26.43a.5.5,0,0,1-.49.23A.16.16,0,0,0,26,29l-.2.34a.17.17,0,0,0,0,.16.18.18,0,0,0,.15.08h2.8a.17.17,0,0,0,.14-.08l.62-1.08a.15.15,0,0,0,0-.16.16.16,0,0,0-.14-.08H29a.16.16,0,0,0-.14.08l-.06.1a3.17,3.17,0,0,1-.27.41s0,0-.12,0H28a2.83,2.83,0,0,1,.2-.39l1.25-2.16.27-.43a.49.49,0,0,1,.48-.22.17.17,0,0,0,.14-.09l.2-.34a.17.17,0,0,0,0-.16.18.18,0,0,0-.15-.08Z"/><path class="cls-3" d="M31.67,24.94a.16.16,0,0,0-.14.08l-.2.34a.17.17,0,0,0,0,.16.17.17,0,0,0,.14.09h.16l0,0-.24.44s-1.25,2.15-1.25,2.15l-.26.43a.49.49,0,0,1-.48.23.18.18,0,0,0-.15.08l-.19.34a.17.17,0,0,0,0,.16.16.16,0,0,0,.14.08H32a.16.16,0,0,0,.14-.08l.63-1.08a.15.15,0,0,0,0-.16.18.18,0,0,0-.15-.08h-.4a.16.16,0,0,0-.14.08l-.07.1a2.65,2.65,0,0,1-.26.41s0,0-.12,0h-.4a2.83,2.83,0,0,1,.2-.39l1.25-2.16.26-.43a.51.51,0,0,1,.48-.22.19.19,0,0,0,.15-.09l.19-.34a.17.17,0,0,0,0-.16.16.16,0,0,0-.14-.08Z"/><path class="cls-3" d="M34.91,24.94a.18.18,0,0,0-.15.08l-.19.34a.17.17,0,0,0,0,.16.17.17,0,0,0,.14.09h.17s0,0,0,0l-.24.44s-1.24,2.15-1.24,2.15l-.27.43a.51.51,0,0,1-.5.23.16.16,0,0,0-.14.08l-.2.34a.17.17,0,0,0,0,.16.18.18,0,0,0,.15.08h1.93a.16.16,0,0,0,.14-.08l.2-.34a.17.17,0,0,0,0-.16.18.18,0,0,0-.15-.08.4.4,0,0,1-.15,0s0,0,0,0l.24-.43,1.24-2.16.27-.43a.49.49,0,0,1,.48-.22.17.17,0,0,0,.14-.09l.2-.34A.17.17,0,0,0,37,25a.16.16,0,0,0-.14-.08Z"/><path class="cls-3" d="M38.08,27.14c-1,1.65-1.45,1.89-1.66,1.89s-.08,0-.08,0-.12-.33.66-1.68c.93-1.62,1.43-1.86,1.65-1.86l.08,0S38.84,25.82,38.08,27.14Zm1.85-1.6c-.06-.33-.3-.74-1.09-.74a2.92,2.92,0,0,0-1.72.64,5.4,5.4,0,0,0-1.48,1.73A2.79,2.79,0,0,0,35.12,29c.06.34.29.75,1.06.75a3,3,0,0,0,1.75-.64,5.48,5.48,0,0,0,1.49-1.74,2.71,2.71,0,0,0,.51-1.78"/><path class="cls-3" d="M43.3,24.94a.16.16,0,0,0-.14.08l-.2.34a.17.17,0,0,0,0,.16.19.19,0,0,0,.15.09h.15s0,0,0,0-.24.44-.24.44l-.72,1.24c-.1-.63-.37-2.27-.37-2.27a.16.16,0,0,0-.16-.13h-1a.16.16,0,0,0-.14.08l-.2.34a.19.19,0,0,0,0,.08.24.24,0,0,0,0,.08.17.17,0,0,0,.14.09h.15a3.81,3.81,0,0,1-.25.48l-1.25,2.16a2.29,2.29,0,0,1-.38.57s-.12.08-.36.08a.14.14,0,0,0-.14.09l-.2.34a.11.11,0,0,0,0,.08.12.12,0,0,0,0,.08.16.16,0,0,0,.14.08h1.42a.18.18,0,0,0,.15-.08l.19-.34a.17.17,0,0,0,0-.16.15.15,0,0,0-.14-.09h-.15s0,0,0-.05l.24-.43.7-1.22.36,2.28a.16.16,0,0,0,.16.14h.5a.16.16,0,0,0,.14-.08l1.89-3.27.27-.43a.49.49,0,0,1,.48-.22.17.17,0,0,0,.14-.09l.2-.34a.22.22,0,0,0,0-.16.18.18,0,0,0-.15-.08Z"/><path class="cls-3" d="M48,22.91a4.25,4.25,0,0,0-1.33,1.43,1.82,1.82,0,0,0,.12,2.3l.22.25a.79.79,0,0,1,.05,1c-.42.73-.89,1.09-1.45,1.09-.17,0-.4,0-.47-.15s-.08-.28.21-.79a.15.15,0,0,0,0-.16.17.17,0,0,0-.14-.09H44.8a.17.17,0,0,0-.14.09l-.79,1.36a.17.17,0,0,0,0,.14.17.17,0,0,0,.1.1,4.51,4.51,0,0,0,1.45.25,3.5,3.5,0,0,0,1.88-.57,4.65,4.65,0,0,0,1.45-1.54,1.89,1.89,0,0,0-.12-2.34L48.4,25a.74.74,0,0,1-.07-.94,1.54,1.54,0,0,1,1.31-1c.09,0,.25,0,.3.1s.07.23-.22.73a.17.17,0,0,0,.14.25h.45a.18.18,0,0,0,.15-.08l.7-1.21a.2.2,0,0,0,0-.13.18.18,0,0,0-.09-.1,3.21,3.21,0,0,0-1.35-.32A3.07,3.07,0,0,0,48,22.91Z"/><path class="cls-3" d="M50.06,24.94a.16.16,0,0,0-.14.08L49.3,26.1a.17.17,0,0,0,0,.17.16.16,0,0,0,.14.08h.32a.16.16,0,0,0,.14-.08l.05-.09a3.52,3.52,0,0,1,.28-.44.5.5,0,0,1,.27,0h.12L49,28.46a2.36,2.36,0,0,1-.28.43.24.24,0,0,1-.17.06l-.21,0a.18.18,0,0,0-.15.08l-.15.28a.13.13,0,0,0,0,.08.11.11,0,0,0,0,.08.16.16,0,0,0,.14.09h1.93a.15.15,0,0,0,.14-.09l.16-.27a.12.12,0,0,0,0-.08.19.19,0,0,0,0-.08.22.22,0,0,0-.14-.09h-.16c0-.06.08-.16.18-.33L52,25.69h.38a2.64,2.64,0,0,1-.18.31l-.05.09a.19.19,0,0,0,0,.08.29.29,0,0,0,0,.09.18.18,0,0,0,.15.08h.31a.18.18,0,0,0,.15-.08l.62-1.09a.15.15,0,0,0,0-.16.16.16,0,0,0-.14-.08Z"/><path class="cls-3" d="M53.69,27.67h-.53l.67-.71C53.76,27.3,53.71,27.55,53.69,27.67ZM55.61,25a.18.18,0,0,0,0-.14.14.14,0,0,0-.12-.06h-.31a.17.17,0,0,0-.12.05l-3.37,3.6c-.37.39-.51.43-.55.44l-.12,0a.13.13,0,0,0-.12.08l-.2.34a.15.15,0,0,0,0,.16.17.17,0,0,0,.14.08h1a.15.15,0,0,0,.14-.08l.2-.34a.11.11,0,0,0,0-.08.12.12,0,0,0,0-.08.14.14,0,0,0-.12-.08l.22-.24.31-.33h1l0,.23a1.9,1.9,0,0,1-.08.3.9.9,0,0,1-.28,0A.16.16,0,0,0,53,29l-.19.33a.16.16,0,0,0,0,.09.13.13,0,0,0,0,.08.16.16,0,0,0,.14.08h1.75a.18.18,0,0,0,.15-.08l.19-.34a.16.16,0,0,0,0-.15.18.18,0,0,0-.13-.1h0s0-.08,0-.29l.71-3.6"/><path class="cls-3" d="M59.42,26.11a1.4,1.4,0,0,1-1.15.77L59,25.61h.17c.19,0,.32,0,.36.09a.35.35,0,0,1,0,.07A.71.71,0,0,1,59.42,26.11Zm1.43-.76c-.16-.28-.56-.41-1.22-.41h-2a.16.16,0,0,0-.14.08l-.19.34a.12.12,0,0,0,0,.16.16.16,0,0,0,.14.09h.15l0,0-.24.44L56.1,28.25l-.26.43a.5.5,0,0,1-.49.23.16.16,0,0,0-.14.08l-.2.34a.17.17,0,0,0,0,.16.18.18,0,0,0,.15.08H57a.15.15,0,0,0,.14-.08l.2-.34a.11.11,0,0,0,0-.08.17.17,0,0,0,0-.07.17.17,0,0,0-.13-.09l-.1,0s0,0,0,0l.24-.44s.36-.62.49-.85h0l-.19,1.84h0a.15.15,0,0,0,0,.11.18.18,0,0,0,.12.05h1.19a.17.17,0,0,0,.14-.08l.19-.34a.11.11,0,0,0,0-.08s0,0,0-.05a.17.17,0,0,0-.1-.1c-.07,0-.1-.13-.1-.28v-.09l.08-1.19a2.58,2.58,0,0,0,1.43-1.14,1.13,1.13,0,0,0,.19-.58.6.6,0,0,0-.08-.29"/><path class="cls-3" d="M61.19,26.11a1.15,1.15,0,0,0,.28,1.61l.19.16c.28.23.24.41.17.54a1.11,1.11,0,0,1-1,.61c-.23,0-.39,0-.43-.11s0-.13.1-.38a.17.17,0,0,0,0-.17.15.15,0,0,0-.14-.08H60a.16.16,0,0,0-.14.08l-.53.92a.16.16,0,0,0,0,.15.14.14,0,0,0,.11.09,4.31,4.31,0,0,0,1.18.17,3,3,0,0,0,1.48-.38,2.71,2.71,0,0,0,1-1,1.18,1.18,0,0,0-.26-1.64l-.2-.16c-.32-.27-.22-.43-.18-.5a1,1,0,0,1,.91-.53c.17,0,.25,0,.27.07s0,.15-.09.34a.15.15,0,0,0,0,.16.16.16,0,0,0,.14.08h.32a.16.16,0,0,0,.14-.08l.46-.8a.17.17,0,0,0,0-.14.14.14,0,0,0-.1-.1,3.2,3.2,0,0,0-1.12-.2A2.47,2.47,0,0,0,61.19,26.11Z"/><path class="cls-7" d="M20.19,22.7h2.16l-1,4,3.72-4h1.8l-.24.43a.85.85,0,0,0-.6.16,3.48,3.48,0,0,0-.51.75l-2.33,4a2.71,2.71,0,0,0-.36.75c0,.11.13.16.41.16l-.24.43H20.74L21,29a.75.75,0,0,0,.7-.37l.32-.54,2.4-4.16-4.25,4.52h-.53l1.1-4.59-2.44,4.23-.29.54c-.14.25-.06.37.26.37l-.25.43h-1.7l.25-.43a.85.85,0,0,0,.6-.16,4.43,4.43,0,0,0,.51-.75L20,24a2.71,2.71,0,0,0,.36-.75c0-.11-.12-.16-.41-.16Z"/><path class="cls-7" d="M25.48,29.41H23.55l.2-.34a.68.68,0,0,0,.64-.3l.26-.43,1.25-2.16.23-.44c.12-.2,0-.3-.29-.3l.2-.34H28l-.2.34a.66.66,0,0,0-.62.3l-.26.44-1.25,2.16-.24.43c-.11.2,0,.3.28.3Z"/><path class="cls-7" d="M25.94,29.41l.19-.34a.67.67,0,0,0,.63-.3l.26-.43,1.25-2.16.23-.44q.18-.3-.27-.3l.19-.34h1.93l-.19.34a.67.67,0,0,0-.63.3l-.26.44L28,28.33c-.18.31-.26.5-.24.56s.12.09.32.09h.26a.33.33,0,0,0,.25-.09,3.18,3.18,0,0,0,.28-.44l.06-.11h.41l-.62,1.08Z"/><path class="cls-7" d="M29.18,29.41l.2-.34a.65.65,0,0,0,.62-.3l.27-.43,1.25-2.16.23-.44q.18-.3-.27-.3l.19-.34H33.6l-.19.34a.67.67,0,0,0-.63.3l-.26.44-1.25,2.15c-.18.31-.26.5-.24.56s.12.09.32.09h.26a.33.33,0,0,0,.25-.09,3.18,3.18,0,0,0,.28-.44l.06-.11h.41L32,29.41Z"/><path class="cls-7" d="M34.35,29.41H32.42l.19-.34a.67.67,0,0,0,.64-.3l.27-.43,1.24-2.16.24-.44c.12-.2,0-.3-.29-.3l.19-.34h1.93l-.19.34a.65.65,0,0,0-.62.3l-.27.44L34.5,28.34l-.23.43q-.18.3.27.3Z"/><path class="cls-7" d="M37.83,28.93a5.54,5.54,0,0,0,1.45-1.69,2.58,2.58,0,0,0,.49-1.66c-.08-.41-.38-.62-.92-.62a2.76,2.76,0,0,0-1.64.62,5.41,5.41,0,0,0-1.43,1.67,2.73,2.73,0,0,0-.5,1.67c.07.41.37.62.9.62A2.79,2.79,0,0,0,37.83,28.93Zm-1-1.69c.75-1.29,1.35-1.94,1.8-1.94s.31.64-.43,1.92-1.36,2-1.81,2-.31-.65.44-2"/><path class="cls-7" d="M38.3,29.41l.2-.34a.67.67,0,0,0,.48-.13,3.34,3.34,0,0,0,.41-.6l1.25-2.16a2,2,0,0,0,.28-.61c0-.08-.1-.13-.32-.13l.19-.34h1l.45,2.72.94-1.64.24-.43c.12-.21,0-.31-.27-.31l.19-.34h1.43l-.2.34a.66.66,0,0,0-.62.3l-.27.44-1.89,3.27h-.49l-.43-2.74-.94,1.62-.24.44c-.12.2,0,.3.28.3l-.2.34Z"/><path class="cls-7" d="M44,29.33,44.8,28h.45c-.45.78-.32,1.18.4,1.18A1.91,1.91,0,0,0,47.25,28a1,1,0,0,0-.08-1.2L47,26.53a1.67,1.67,0,0,1-.11-2.12,4.07,4.07,0,0,1,1.28-1.36,2.92,2.92,0,0,1,1.6-.52,3,3,0,0,1,1.28.31L50.32,24h-.45c.41-.72.34-1.08-.23-1.08a1.72,1.72,0,0,0-1.45,1,.92.92,0,0,0,.09,1.13l.21.26a1.72,1.72,0,0,1,.11,2.15A4.15,4.15,0,0,1,47.2,29a3.26,3.26,0,0,1-1.79.55A4.37,4.37,0,0,1,44,29.33Z"/><path class="cls-7" d="M48.2,29.41l.16-.28h.22a.39.39,0,0,0,.28-.12,2.72,2.72,0,0,0,.3-.45l1.74-3h-.4a.51.51,0,0,0-.39.11,2.77,2.77,0,0,0-.3.46l-.05.08h-.32l.62-1.08h3.18l-.63,1.08H52.3l.05-.08a2.26,2.26,0,0,0,.22-.46c0-.08-.07-.11-.27-.11h-.4l-1.74,3a3.07,3.07,0,0,0-.23.45c0,.07,0,.11.14.12h.21l-.16.28Z"/><path class="cls-7" d="M51.79,29.41l.2-.34c-.19,0-.26,0-.22-.13l.34-.38.36-.38h1.29l-.09.42a1.4,1.4,0,0,1-.1.36c0,.07-.18.11-.41.11l-.19.34h1.75l.2-.34c-.19,0-.26-.19-.19-.51L55.45,25h-.31l-3.37,3.59a1.45,1.45,0,0,1-.65.5l-.12,0-.2.33Zm2.31-3-.28,1.41h-1l1.32-1.41"/><path class="cls-7" d="M57,29.41l.2-.34c-.18,0-.27-.05-.28-.08s0-.11.08-.22l.23-.44.54-.93h.32l-.21,2h1.18l.2-.34c-.16-.07-.23-.24-.21-.53l.09-1.29a2.47,2.47,0,0,0,1.45-1.11c.4-.69.07-1-1-1h-2l-.19.34q.45,0,.27.3l-.23.44-1.25,2.16-.26.43a.68.68,0,0,1-.63.31l-.19.33Zm2.17-4c.55,0,.67.25.39.75a1.59,1.59,0,0,1-1.44.87H58l.93-1.62h.27"/><path class="cls-7" d="M64.54,25.15l-.46.8h-.32c.23-.43.12-.65-.33-.65a1.14,1.14,0,0,0-1,.61c-.14.24-.07.47.22.71l.19.16A1,1,0,0,1,63,28.22a2.5,2.5,0,0,1-1,1,2.8,2.8,0,0,1-1.39.36,4.44,4.44,0,0,1-1.14-.17l.53-.91h.32c-.28.49-.13.74.47.74A1.29,1.29,0,0,0,62,28.5a.54.54,0,0,0-.2-.74l-.2-.16a1,1,0,0,1-.24-1.41A2.32,2.32,0,0,1,63.47,25,3.4,3.4,0,0,1,64.54,25.15Z"/></g></g></svg>