<svg xmlns="http://www.w3.org/2000/svg" xmlns:xlink="http://www.w3.org/1999/xlink" viewBox="0 0 58 46.95"><defs><style>.cls-1{fill:none;}.cls-2{fill:#150301;}.cls-3{fill:url(#名称未設定グラデーション_59);}.cls-4{fill:url(#名称未設定グラデーション_59-2);}.cls-5{fill:url(#名称未設定グラデーション_59-3);}.cls-6{fill:url(#名称未設定グラデーション_59-4);}.cls-7{fill:url(#名称未設定グラデーション_59-5);}.cls-8{fill:url(#名称未設定グラデーション_59-6);}.cls-9{fill:url(#名称未設定グラデーション_59-7);}.cls-10{fill:url(#名称未設定グラデーション_59-8);}.cls-11{fill:url(#名称未設定グラデーション_59-9);}.cls-12{fill:url(#名称未設定グラデーション_59-10);}.cls-13{fill:url(#名称未設定グラデーション_59-11);}.cls-14{fill:url(#名称未設定グラデーション_59-12);}.cls-15{fill:url(#名称未設定グラデーション_59-13);}.cls-16{fill:url(#名称未設定グラデーション_59-14);}.cls-17{fill:url(#名称未設定グラデーション_59-15);}.cls-18{fill:url(#名称未設定グラデーション_59-16);}.cls-19{fill:url(#名称未設定グラデーション_59-17);}.cls-20{fill:url(#名称未設定グラデーション_59-18);}.cls-21{fill:url(#名称未設定グラデーション_59-19);}.cls-22{fill:url(#名称未設定グラデーション_59-20);}.cls-23{fill:url(#名称未設定グラデーション_59-21);}.cls-24{fill:url(#名称未設定グラデーション_59-22);}.cls-25{fill:url(#名称未設定グラデーション_59-23);}.cls-26{fill:url(#名称未設定グラデーション_59-24);}.cls-27{fill:url(#名称未設定グラデーション_59-25);}.cls-28{fill:url(#名称未設定グラデーション_59-26);}.cls-29{fill:url(#名称未設定グラデーション_59-27);}.cls-30{fill:url(#名称未設定グラデーション_59-28);}.cls-31{fill:url(#名称未設定グラデーション_59-29);}.cls-32{fill:url(#名称未設定グラデーション_59-30);}.cls-33{fill:url(#名称未設定グラデーション_59-31);}.cls-34{fill:url(#名称未設定グラデーション_59-32);}.cls-35{fill:url(#名称未設定グラデーション_59-33);}.cls-36{fill:url(#名称未設定グラデーション_59-34);}.cls-37{fill:url(#名称未設定グラデーション_59-35);}.cls-38{fill:url(#名称未設定グラデーション_59-36);}.cls-39{fill:url(#名称未設定グラデーション_59-37);}.cls-40{fill:url(#名称未設定グラデーション_59-38);}.cls-41{fill:url(#名称未設定グラデーション_59-39);}.cls-42{fill:url(#名称未設定グラデーション_59-40);}.cls-43{fill:url(#名称未設定グラデーション_59-41);}.cls-44{fill:url(#名称未設定グラデーション_59-42);}.cls-45{fill:url(#名称未設定グラデーション_59-43);}.cls-46{fill:url(#名称未設定グラデーション_59-44);}.cls-47{fill:url(#名称未設定グラデーション_59-45);}.cls-48{fill:url(#名称未設定グラデーション_59-46);}.cls-49{fill:url(#名称未設定グラデーション_59-47);}.cls-50{fill:url(#名称未設定グラデーション_59-48);}.cls-51{fill:url(#名称未設定グラデーション_59-49);}.cls-52{fill:url(#名称未設定グラデーション_59-50);}.cls-53{fill:url(#名称未設定グラデーション_59-51);}.cls-54{fill:url(#名称未設定グラデーション_59-52);}.cls-55{fill:url(#名称未設定グラデーション_59-53);}.cls-56{fill:url(#名称未設定グラデーション_59-54);}.cls-57{fill:url(#名称未設定グラデーション_59-55);}.cls-58{fill:url(#名称未設定グラデーション_59-56);}.cls-59{fill:url(#名称未設定グラデーション_59-57);}.cls-60{fill:url(#名称未設定グラデーション_59-58);}.cls-61{fill:url(#名称未設定グラデーション_59-59);}.cls-62{fill:url(#名称未設定グラデーション_59-60);}.cls-63{fill:url(#名称未設定グラデーション_59-61);}.cls-64{fill:url(#名称未設定グラデーション_59-62);}.cls-65{fill:url(#名称未設定グラデーション_59-63);}.cls-66{fill:url(#名称未設定グラデーション_59-64);}.cls-67{fill:url(#名称未設定グラデーション_59-65);}.cls-68{fill:url(#名称未設定グラデーション_59-66);}.cls-69{fill:url(#名称未設定グラデーション_59-67);}.cls-70{fill:url(#名称未設定グラデーション_59-68);}.cls-71{fill:url(#名称未設定グラデーション_59-69);}.cls-72{fill:url(#名称未設定グラデーション_59-70);}.cls-73{fill:url(#名称未設定グラデーション_59-71);}.cls-74{fill:url(#名称未設定グラデーション_59-72);}.cls-75{fill:url(#名称未設定グラデーション_59-73);}.cls-76{fill:url(#名称未設定グラデーション_59-74);}.cls-77{fill:url(#名称未設定グラデーション_59-75);}.cls-78{fill:url(#名称未設定グラデーション_59-76);}.cls-79{fill:url(#名称未設定グラデーション_59-77);}.cls-80{fill:url(#名称未設定グラデーション_59-78);}.cls-81{fill:url(#名称未設定グラデーション_59-79);}.cls-82{fill:url(#名称未設定グラデーション_59-80);}.cls-83{fill:url(#名称未設定グラデーション_59-81);}.cls-84{fill:url(#名称未設定グラデーション_59-82);}.cls-85{fill:url(#名称未設定グラデーション_59-83);}.cls-86{fill:url(#名称未設定グラデーション_59-84);}.cls-87{fill:url(#名称未設定グラデーション_59-85);}.cls-88{fill:url(#名称未設定グラデーション_59-86);}.cls-89{fill:url(#名称未設定グラデーション_59-87);}.cls-90{fill:url(#名称未設定グラデーション_59-88);}.cls-91{fill:url(#名称未設定グラデーション_59-89);}.cls-92{fill:url(#名称未設定グラデーション_59-90);}.cls-93{fill:url(#名称未設定グラデーション_59-91);}.cls-94{fill:url(#名称未設定グラデーション_59-92);}.cls-95{fill:url(#名称未設定グラデーション_59-93);}.cls-96{fill:url(#名称未設定グラデーション_59-94);}.cls-97{fill:url(#名称未設定グラデーション_105);}</style><linearGradient id="名称未設定グラデーション_59" x1="51.09" y1="18.68" x2="51.29" y2="18.68" gradientUnits="userSpaceOnUse"><stop offset="0" stop-color="#fccf00"/><stop offset="0.3" stop-color="#f08c00"/><stop offset="0.6" stop-color="#ffd800"/></linearGradient><linearGradient id="名称未設定グラデーション_59-2" x1="51.54" y1="18.24" x2="51.7" y2="18.24" xlink:href="#名称未設定グラデーション_59"/><linearGradient id="名称未設定グラデーション_59-3" x1="42.75" y1="27.17" x2="42.78" y2="27.17" xlink:href="#名称未設定グラデーション_59"/><linearGradient id="名称未設定グラデーション_59-4" x1="42.64" y1="27.25" x2="42.75" y2="27.25" xlink:href="#名称未設定グラデーション_59"/><linearGradient id="名称未設定グラデーション_59-5" x1="55.71" y1="9.63" x2="55.88" y2="9.63" xlink:href="#名称未設定グラデーション_59"/><linearGradient id="名称未設定グラデーション_59-6" x1="55.62" y1="9.87" x2="55.79" y2="9.87" xlink:href="#名称未設定グラデーション_59"/><linearGradient id="名称未設定グラデーション_59-7" x1="49.19" y1="15.19" x2="49.86" y2="15.19" xlink:href="#名称未設定グラデーション_59"/><linearGradient id="名称未設定グラデーション_59-8" x1="29.05" y1="37.97" x2="29.06" y2="37.97" xlink:href="#名称未設定グラデーション_59"/><linearGradient id="名称未設定グラデーション_59-9" x1="55.96" y1="9.13" x2="56.9" y2="9.13" xlink:href="#名称未設定グラデーション_59"/><linearGradient id="名称未設定グラデーション_59-10" x1="46.55" y1="18.28" x2="46.94" y2="18.28" xlink:href="#名称未設定グラデーション_59"/><linearGradient id="名称未設定グラデーション_59-11" x1="53.84" y1="11.56" x2="53.98" y2="11.56" xlink:href="#名称未設定グラデーション_59"/><linearGradient id="名称未設定グラデーション_59-12" x1="52.71" y1="11.84" x2="52.85" y2="11.84" xlink:href="#名称未設定グラデーション_59"/><linearGradient id="名称未設定グラデーション_59-13" x1="54.08" y1="11.3" x2="54.23" y2="11.3" xlink:href="#名称未設定グラデーション_59"/><linearGradient id="名称未設定グラデーション_59-14" x1="54.68" y1="10.45" x2="54.97" y2="10.45" xlink:href="#名称未設定グラデーション_59"/><linearGradient id="名称未設定グラデーション_59-15" x1="52.93" y1="11.59" x2="53.12" y2="11.59" xlink:href="#名称未設定グラデーション_59"/><linearGradient id="名称未設定グラデーション_59-16" x1="52.14" y1="12.45" x2="52.31" y2="12.45" xlink:href="#名称未設定グラデーション_59"/><linearGradient id="名称未設定グラデーション_59-17" x1="46.35" y1="22" x2="46.49" y2="22" xlink:href="#名称未設定グラデーション_59"/><linearGradient id="名称未設定グラデーション_59-18" x1="50.31" y1="14.25" x2="50.45" y2="14.25" xlink:href="#名称未設定グラデーション_59"/><linearGradient id="名称未設定グラデーション_59-19" x1="51.59" y1="12.87" x2="52.11" y2="12.87" xlink:href="#名称未設定グラデーション_59"/><linearGradient id="名称未設定グラデーション_59-20" x1="46.1" y1="21.79" x2="46.22" y2="21.79" xlink:href="#名称未設定グラデーション_59"/><linearGradient id="名称未設定グラデーション_59-21" x1="47.65" y1="17.48" x2="48.09" y2="17.48" xlink:href="#名称未設定グラデーション_59"/><linearGradient id="名称未設定グラデーション_59-22" x1="48.36" y1="17.02" x2="48.54" y2="17.02" xlink:href="#名称未設定グラデーション_59"/><linearGradient id="名称未設定グラデーション_59-23" x1="48.04" y1="17.35" x2="48.27" y2="17.35" xlink:href="#名称未設定グラデーション_59"/><linearGradient id="名称未設定グラデーション_59-24" x1="47.54" y1="17.94" x2="47.71" y2="17.94" xlink:href="#名称未設定グラデーション_59"/><linearGradient id="名称未設定グラデーション_59-25" x1="49.27" y1="15.78" x2="49.43" y2="15.78" xlink:href="#名称未設定グラデーション_59"/><linearGradient id="名称未設定グラデーション_59-26" x1="49.01" y1="16.35" x2="49.15" y2="16.35" xlink:href="#名称未設定グラデーション_59"/><linearGradient id="名称未設定グラデーション_59-27" x1="50.93" y1="14.45" x2="51.09" y2="14.45" xlink:href="#名称未設定グラデーション_59"/><linearGradient id="名称未設定グラデーション_59-28" x1="49.4" y1="15.91" x2="49.56" y2="15.91" xlink:href="#名称未設定グラデーション_59"/><linearGradient id="名称未設定グラデーション_59-29" x1="47.32" y1="18.2" x2="47.47" y2="18.2" xlink:href="#名称未設定グラデーション_59"/><linearGradient id="名称未設定グラデーション_59-30" x1="46.26" y1="19.27" x2="46.53" y2="19.27" xlink:href="#名称未設定グラデーション_59"/><linearGradient id="名称未設定グラデーション_59-31" x1="44.3" y1="21.3" x2="44.98" y2="21.3" xlink:href="#名称未設定グラデーション_59"/><linearGradient id="名称未設定グラデーション_59-32" x1="45.18" y1="20.48" x2="45.39" y2="20.48" xlink:href="#名称未設定グラデーション_59"/><linearGradient id="名称未設定グラデーション_59-33" x1="53.94" y1="13.9" x2="54.04" y2="13.9" xlink:href="#名称未設定グラデーション_59"/><linearGradient id="名称未設定グラデーション_59-34" x1="54.01" y1="13.68" x2="54.2" y2="13.68" xlink:href="#名称未設定グラデーション_59"/><linearGradient id="名称未設定グラデーション_59-35" x1="46.79" y1="18.63" x2="47.18" y2="18.63" xlink:href="#名称未設定グラデーション_59"/><linearGradient id="名称未設定グラデーション_59-36" x1="44.67" y1="20.99" x2="44.94" y2="20.99" xlink:href="#名称未設定グラデーション_59"/><linearGradient id="名称未設定グラデーション_59-37" x1="42.6" y1="27.43" x2="42.7" y2="27.43" xlink:href="#名称未設定グラデーション_59"/><linearGradient id="名称未設定グラデーション_59-38" x1="46.56" y1="19.01" x2="46.76" y2="19.01" xlink:href="#名称未設定グラデーション_59"/><linearGradient id="名称未設定グラデーション_59-39" x1="45.43" y1="20.12" x2="45.9" y2="20.12" xlink:href="#名称未設定グラデーション_59"/><linearGradient id="名称未設定グラデーション_59-40" x1="48.52" y1="21.13" x2="48.77" y2="21.13" xlink:href="#名称未設定グラデーション_59"/><linearGradient id="名称未設定グラデーション_59-41" x1="49.4" y1="20.14" x2="49.73" y2="20.14" xlink:href="#名称未設定グラデーション_59"/><linearGradient id="名称未設定グラデーション_59-42" x1="49.43" y1="20.22" x2="49.77" y2="20.22" xlink:href="#名称未設定グラデーション_59"/><linearGradient id="名称未設定グラデーション_59-43" x1="47.49" y1="22.25" x2="47.68" y2="22.25" xlink:href="#名称未設定グラデーション_59"/><linearGradient id="名称未設定グラデーション_59-44" x1="48.42" y1="21.34" x2="48.68" y2="21.34" xlink:href="#名称未設定グラデーション_59"/><linearGradient id="名称未設定グラデーション_59-45" x1="46.84" y1="22.93" x2="46.97" y2="22.93" xlink:href="#名称未設定グラデーション_59"/><linearGradient id="名称未設定グラデーション_59-46" x1="45.58" y1="24.36" x2="45.84" y2="24.36" xlink:href="#名称未設定グラデーション_59"/><linearGradient id="名称未設定グラデーション_59-47" x1="45.33" y1="24.54" x2="45.53" y2="24.54" xlink:href="#名称未設定グラデーション_59"/><linearGradient id="名称未設定グラデーション_59-48" x1="45.23" y1="24.78" x2="45.35" y2="24.78" xlink:href="#名称未設定グラデーション_59"/><linearGradient id="名称未設定グラデーション_59-49" x1="43.99" y1="26.1" x2="44.07" y2="26.1" xlink:href="#名称未設定グラデーション_59"/><linearGradient id="名称未設定グラデーション_59-50" x1="45.61" y1="24.1" x2="45.93" y2="24.1" xlink:href="#名称未設定グラデーション_59"/><linearGradient id="名称未設定グラデーション_59-51" x1="44.97" y1="24.77" x2="45.11" y2="24.77" xlink:href="#名称未設定グラデーション_59"/><linearGradient id="名称未設定グラデーション_59-52" x1="45.58" y1="24.33" x2="45.68" y2="24.33" xlink:href="#名称未設定グラデーション_59"/><linearGradient id="名称未設定グラデーション_59-53" x1="46.14" y1="23.55" x2="46.63" y2="23.55" xlink:href="#名称未設定グラデーション_59"/><linearGradient id="名称未設定グラデーション_59-54" x1="45.96" y1="23.92" x2="46.21" y2="23.92" xlink:href="#名称未設定グラデーション_59"/><linearGradient id="名称未設定グラデーション_59-55" x1="46.55" y1="23.28" x2="46.71" y2="23.28" xlink:href="#名称未設定グラデーション_59"/><linearGradient id="名称未設定グラデーション_59-56" x1="42.83" y1="27.22" x2="42.95" y2="27.22" xlink:href="#名称未設定グラデーション_59"/><linearGradient id="名称未設定グラデーション_59-57" x1="52.78" y1="13.34" x2="52.97" y2="13.34" xlink:href="#名称未設定グラデーション_59"/><linearGradient id="名称未設定グラデーション_59-58" x1="44.21" y1="24.21" x2="44.37" y2="24.21" xlink:href="#名称未設定グラデーション_59"/><linearGradient id="名称未設定グラデーション_59-59" x1="42.94" y1="25.69" x2="43.15" y2="25.69" xlink:href="#名称未設定グラデーション_59"/><linearGradient id="名称未設定グラデーション_59-60" x1="55.32" y1="10.19" x2="55.47" y2="10.19" xlink:href="#名称未設定グラデーション_59"/><linearGradient id="名称未設定グラデーション_59-61" x1="45.88" y1="22.38" x2="46.01" y2="22.38" xlink:href="#名称未設定グラデーション_59"/><linearGradient id="名称未設定グラデーション_59-62" x1="54.12" y1="13.68" x2="54.26" y2="13.68" xlink:href="#名称未設定グラデーション_59"/><linearGradient id="名称未設定グラデーション_59-63" x1="55.12" y1="10.25" x2="55.25" y2="10.25" xlink:href="#名称未設定グラデーション_59"/><linearGradient id="名称未設定グラデーション_59-64" x1="41.9" y1="26.69" x2="42.09" y2="26.69" xlink:href="#名称未設定グラデーション_59"/><linearGradient id="名称未設定グラデーション_59-65" x1="42.49" y1="26.02" x2="42.63" y2="26.02" xlink:href="#名称未設定グラデーション_59"/><linearGradient id="名称未設定グラデーション_59-66" x1="54.77" y1="13.71" x2="54.97" y2="13.71" xlink:href="#名称未設定グラデーション_59"/><linearGradient id="名称未設定グラデーション_59-67" x1="40.76" y1="27.83" x2="41.22" y2="27.83" xlink:href="#名称未設定グラデーション_59"/><linearGradient id="名称未設定グラデーション_59-68" x1="51.89" y1="16.34" x2="52.02" y2="16.34" xlink:href="#名称未設定グラデーション_59"/><linearGradient id="名称未設定グラデーション_59-69" x1="55.06" y1="13.37" x2="55.21" y2="13.37" xlink:href="#名称未設定グラデーション_59"/><linearGradient id="名称未設定グラデーション_59-70" x1="40.21" y1="28.69" x2="40.33" y2="28.69" xlink:href="#名称未設定グラデーション_59"/><linearGradient id="名称未設定グラデーション_59-71" x1="52.9" y1="15.27" x2="53.11" y2="15.27" xlink:href="#名称未設定グラデーション_59"/><linearGradient id="名称未設定グラデーション_59-72" x1="39.98" y1="28.89" x2="40.17" y2="28.89" xlink:href="#名称未設定グラデーション_59"/><linearGradient id="名称未設定グラデーション_59-73" x1="53.58" y1="14.58" x2="53.82" y2="14.58" xlink:href="#名称未設定グラデーション_59"/><linearGradient id="名称未設定グラデーション_59-74" x1="43.17" y1="25.41" x2="43.36" y2="25.41" xlink:href="#名称未設定グラデーション_59"/><linearGradient id="名称未設定グラデーション_59-75" x1="52.5" y1="15.07" x2="52.69" y2="15.07" xlink:href="#名称未設定グラデーション_59"/><linearGradient id="名称未設定グラデーション_59-76" x1="51.93" y1="14.76" x2="52.47" y2="14.76" xlink:href="#名称未設定グラデーション_59"/><linearGradient id="名称未設定グラデーション_59-77" x1="48.07" y1="19.87" x2="48.29" y2="19.87" xlink:href="#名称未設定グラデーション_59"/><linearGradient id="名称未設定グラデーション_59-78" x1="51.93" y1="14.2" x2="52.18" y2="14.2" xlink:href="#名称未設定グラデーション_59"/><linearGradient id="名称未設定グラデーション_59-79" x1="51.45" y1="15.07" x2="51.57" y2="15.07" xlink:href="#名称未設定グラデーション_59"/><linearGradient id="名称未設定グラデーション_59-80" x1="52.06" y1="14.45" x2="52.23" y2="14.45" xlink:href="#名称未設定グラデーション_59"/><linearGradient id="名称未設定グラデーション_59-81" x1="53.75" y1="12.05" x2="53.9" y2="12.05" xlink:href="#名称未設定グラデーション_59"/><linearGradient id="名称未設定グラデーション_59-82" x1="53.15" y1="12.68" x2="53.34" y2="12.68" xlink:href="#名称未設定グラデーション_59"/><linearGradient id="名称未設定グラデーション_59-83" x1="52.7" y1="14.07" x2="52.85" y2="14.07" xlink:href="#名称未設定グラデーション_59"/><linearGradient id="名称未設定グラデーション_59-84" x1="46.49" y1="21.92" x2="46.49" y2="21.92" xlink:href="#名称未設定グラデーション_59"/><linearGradient id="名称未設定グラデーション_59-85" x1="52.51" y1="14.3" x2="52.67" y2="14.3" xlink:href="#名称未設定グラデーション_59"/><linearGradient id="名称未設定グラデーション_59-86" x1="51.74" y1="15.94" x2="51.86" y2="15.94" xlink:href="#名称未設定グラデーション_59"/><linearGradient id="名称未設定グラデーション_59-87" x1="50.37" y1="17.38" x2="50.6" y2="17.38" xlink:href="#名称未設定グラデーション_59"/><linearGradient id="名称未設定グラデーション_59-88" x1="50.81" y1="16.13" x2="51.07" y2="16.13" xlink:href="#名称未設定グラデーション_59"/><linearGradient id="名称未設定グラデーション_59-89" x1="49.95" y1="17.91" x2="50.05" y2="17.91" xlink:href="#名称未設定グラデーション_59"/><linearGradient id="名称未設定グラデーション_59-90" x1="51.02" y1="15.21" x2="51.15" y2="15.21" xlink:href="#名称未設定グラデーション_59"/><linearGradient id="名称未設定グラデーション_59-91" x1="51.23" y1="15.44" x2="51.79" y2="15.44" xlink:href="#名称未設定グラデーション_59"/><linearGradient id="名称未設定グラデーション_59-92" x1="51.12" y1="15.76" x2="51.31" y2="15.76" xlink:href="#名称未設定グラデーション_59"/><linearGradient id="名称未設定グラデーション_59-93" x1="48.43" y1="16.38" x2="48.53" y2="16.38" xlink:href="#名称未設定グラデーション_59"/><linearGradient id="名称未設定グラデーション_59-94" x1="11.76" y1="27.49" x2="54.74" y2="27.49" xlink:href="#名称未設定グラデーション_59"/><linearGradient id="名称未設定グラデーション_105" x1="11.77" y1="25.84" x2="48.04" y2="25.84" gradientUnits="userSpaceOnUse"><stop offset="0" stop-color="#766e6a"/><stop offset="1" stop-color="#150301"/></linearGradient></defs><g id="Layer_2" data-name="Layer 2"><g id="レイヤー_1" data-name="レイヤー 1"><rect class="cls-1" width="58" height="46.95"/><path class="cls-2" d="M34.49,28.83l-.32-4.39L32.78,5H29L25,7.68,23.5,28.83h0L29,34.5Zm-7.3-1.12.44-19.42L29,7.36H30.3l.5,20.35L29,29.46Z"/><polygon class="cls-2" points="21.07 5.03 20.1 11.66 19.5 5.03 16.97 5.03 13.87 18.91 16.57 21.7 17.73 15.13 18.36 23.53 21.45 26.72 23.47 6.4 25.61 5.03 21.07 5.03"/><polygon class="cls-2" points="44.4 2.76 13.55 2.76 8.27 20.35 29 44.18 29 44.18 11.76 19.45 15.63 4.14 42.32 4.14 44.85 14.09 39.06 19.71 37.08 6.4 38.89 5.03 34.34 5.03 36.54 26.72 48.04 14.85 48.04 14.85 44.4 2.76"/><path class="cls-3" d="M51.29,18.54a.6.6,0,0,0-.2.28C51.15,18.73,51.3,18.58,51.29,18.54Z"/><path class="cls-4" d="M51.67,18.18s-.06.05-.05,0a.35.35,0,0,0-.08.13c.06,0,.1-.1.16-.15S51.68,18.16,51.67,18.18Z"/><path class="cls-5" d="M42.75,27.19l0,0h0A0,0,0,0,0,42.75,27.19Z"/><path class="cls-6" d="M42.75,27.19l-.1.11C42.63,27.36,42.73,27.25,42.75,27.19Z"/><path class="cls-7" d="M55.71,9.72c.06-.07.13-.1.17-.19A.45.45,0,0,0,55.71,9.72Z"/><path class="cls-8" d="M55.62,10c.06-.05.14-.08.17-.18C55.74,9.85,55.65,9.88,55.62,10Z"/><path class="cls-9" d="M49.52,15.25c0-.12.26-.28.34-.45-.25.26-.46.53-.67.75,0,.08.06-.06.09-.06A.78.78,0,0,1,49.52,15.25Z"/><path class="cls-10" d="M29.05,38h0v0Z"/><path class="cls-11" d="M56.78,8.67a5,5,0,0,1-.5.52c-.05.12-.08.14-.14.15s0,0,0,0,0,0-.11.07,0,.09-.09.26a1.12,1.12,0,0,0,.18-.28c.08,0,.12-.11.17-.18s.32-.32.41-.37-.13.06-.17.1c.05-.12.17-.15.21-.27s0,.1.06,0,.06-.08.08-.13C56.74,8.77,56.86,8.4,56.78,8.67Z"/><path class="cls-12" d="M46.55,18.5l.39-.44A1.6,1.6,0,0,0,46.55,18.5Z"/><path class="cls-13" d="M54,11.48l-.1.06s0,.05,0,.08S54,11.55,54,11.48Z"/><path class="cls-14" d="M52.8,11.89l.05-.12c-.07.08-.09.06-.14.08S52.73,11.92,52.8,11.89Z"/><path class="cls-15" d="M54.23,11.22c0-.05-.13.09-.15.18S54.16,11.25,54.23,11.22Z"/><path class="cls-16" d="M55,10.28a2.37,2.37,0,0,0-.29.34c.08-.06,0,0,.1,0S54.91,10.4,55,10.28Z"/><path class="cls-17" d="M53.12,11.49l-.1,0a.83.83,0,0,1-.09.16A.39.39,0,0,0,53.12,11.49Z"/><path class="cls-18" d="M52.14,12.57a.81.81,0,0,0,.17-.23C52.24,12.39,52.2,12.5,52.14,12.57Z"/><path class="cls-19" d="M46.35,22.05c0,.11.08-.09.14-.13A.83.83,0,0,0,46.35,22.05Z"/><path class="cls-20" d="M50.31,14.34a1.24,1.24,0,0,0,.14-.18C50.38,14.2,50.29,14.31,50.31,14.34Z"/><path class="cls-21" d="M51.77,13s0-.06.08-.17l.06,0a.39.39,0,0,1,.14-.17c0-.07.07-.14.06-.16s-.07.11-.06.06-.06.11-.09.16-.12.06-.2.14-.09.2-.17.33A.49.49,0,0,1,51.77,13Z"/><path class="cls-22" d="M46.22,21.72l-.09.06s0,0,0,.06S46.22,21.78,46.22,21.72Z"/><path class="cls-23" d="M48,17.33c0-.08.07-.14.06-.16s0,.07-.06.11,0,0-.09.06a1,1,0,0,1-.29.36.22.22,0,0,1,0,.08A2.06,2.06,0,0,1,48,17.33Z"/><path class="cls-24" d="M48.51,17c.07-.1,0-.07,0-.12l-.17.14c0,.09.07,0,.12-.07s0,.11-.07.13S48.47,17,48.51,17Z"/><path class="cls-25" d="M48.27,17.25c0-.06-.15.15-.23.19S48.21,17.32,48.27,17.25Z"/><path class="cls-26" d="M47.54,18s.13-.05.17-.14S47.57,17.92,47.54,18Z"/><path class="cls-27" d="M49.27,15.86c0,.06.12-.12.16-.16S49.31,15.82,49.27,15.86Z"/><path class="cls-28" d="M49,16.41c0,.08,0,0,.1,0s0-.07,0-.11a.54.54,0,0,0-.07.13A.08.08,0,0,0,49,16.41Z"/><path class="cls-29" d="M51,14.49c0-.08.12-.15.06-.16s-.06.1-.14.23Z"/><path class="cls-30" d="M49.55,15.88c0-.06,0-.08,0-.06s-.13.15-.1.19S49.48,15.89,49.55,15.88Z"/><path class="cls-31" d="M47.32,18.27c0,.06.08-.11.13-.1s0,0,0-.06A1,1,0,0,0,47.32,18.27Z"/><path class="cls-32" d="M46.26,19.38c.13-.11,0,.08.13,0,0-.06.1-.14.14-.23C46.4,19.26,46.33,19.24,46.26,19.38Z"/><path class="cls-33" d="M44.46,21.43s0,.08.07,0,.06-.09,0-.11,0,0,.08,0a1.59,1.59,0,0,1,.32-.36c-.06,0-.2.22-.32.26a.36.36,0,0,1-.2.2,2,2,0,0,0-.16.28l.12-.11c0-.07,0,0,0-.06A.18.18,0,0,0,44.46,21.43Z"/><path class="cls-34" d="M45.25,20.61c.06,0,.07-.13.14-.15s0-.14-.07-.09a.53.53,0,0,1-.13.19c0,.06.08-.07.1-.08S45.21,20.6,45.25,20.61Z"/><path class="cls-35" d="M54,13.87s0,0-.08,0,0,.07,0,.12Z"/><path class="cls-36" d="M54.2,13.58c-.07.06-.15.1-.19.2A.73.73,0,0,0,54.2,13.58Z"/><path class="cls-37" d="M46.79,18.85c.17-.2.32-.21.39-.45,0,0-.06.06,0,0C47,18.59,46.89,18.68,46.79,18.85Z"/><path class="cls-38" d="M44.94,20.83c-.1.08-.15.23-.27.28s.07,0,0,0A3.3,3.3,0,0,0,44.94,20.83Z"/><path class="cls-39" d="M42.62,27.4c0,.05,0,0,0,.12C42.69,27.42,42.75,27.25,42.62,27.4Z"/><path class="cls-40" d="M46.69,19a.26.26,0,0,1,.07-.1c0-.08-.06.05-.1.05s-.06.08-.1.19S46.63,19,46.69,19Z"/><path class="cls-41" d="M45.9,19.86c-.1.06-.15.17-.23.25s0-.05,0-.12c-.14.13-.08.19-.26.39,0,0,0,0,.14-.09s0,0-.08,0A3.63,3.63,0,0,0,45.9,19.86Z"/><path class="cls-42" d="M48.75,21.11c.07-.11-.06,0,0-.09-.09.07-.16.06-.24.22S48.73,21,48.75,21.11Z"/><path class="cls-43" d="M49.54,20.22c0-.09.13-.17.19-.3-.1.07-.16.19-.27.24s0,0,0,0-.13.14-.11.18S49.47,20.24,49.54,20.22Z"/><path class="cls-44" d="M49.55,20.3c.09-.07.12-.21.22-.26s-.28.22-.34.37C49.46,20.38,49.56,20.22,49.55,20.3Z"/><path class="cls-45" d="M47.68,22.14a1,1,0,0,0-.19.21A.77.77,0,0,0,47.68,22.14Z"/><path class="cls-46" d="M48.42,21.49a1.25,1.25,0,0,1,.26-.3S48.4,21.43,48.42,21.49Z"/><path class="cls-47" d="M46.92,23l0-.12s-.08.11-.13.14S46.89,23,46.92,23Z"/><path class="cls-48" d="M45.84,24.19c-.1.1-.26.24-.26.34C45.66,24.41,45.79,24.35,45.84,24.19Z"/><path class="cls-49" d="M45.53,24.46s0,0,0,0a2,2,0,0,0-.18.23C45.4,24.6,45.46,24.52,45.53,24.46Z"/><path class="cls-50" d="M45.23,24.89l.1-.1c.05-.1,0,0,0-.12C45.29,24.75,45.3,24.77,45.23,24.89Z"/><path class="cls-51" d="M44.06,26c-.12.1,0,.1-.07.15S44.1,26,44.06,26Z"/><path class="cls-52" d="M45.93,23.93s-.22.23-.32.31.14-.13.11,0A1,1,0,0,1,45.93,23.93Z"/><path class="cls-53" d="M45.06,24.84a.31.31,0,0,0,0-.17C45,24.87,44.9,24.89,45.06,24.84Z"/><path class="cls-54" d="M45.63,24.27c-.08.09,0,.13,0,.11S45.63,24.31,45.63,24.27Z"/><path class="cls-55" d="M46.32,23.74c0-.09.13-.13.25-.27s0-.06.06-.1-.17.16-.24.22-.18.08-.25.13S46.26,23.74,46.32,23.74Z"/><path class="cls-56" d="M46,24s0,0,.09,0a.34.34,0,0,1,.14-.17c.06-.11,0,0,0,0s-.06,0,0,0a.94.94,0,0,1-.1.1S46.11,23.94,46,24Z"/><path class="cls-57" d="M46.55,23.35s.15-.07.16-.16S46.61,23.31,46.55,23.35Z"/><path class="cls-58" d="M42.87,27.29a.18.18,0,0,1,.05-.07c.06,0,0,0,0,0s0,0,0-.08S42.8,27.35,42.87,27.29Z"/><path class="cls-59" d="M52.78,13.4s.13-.1.19-.11S52.85,13.35,52.78,13.4Z"/><path class="cls-60" d="M44.32,24.2s0,0,0-.08-.08.07-.11.09,0,.05,0,.08,0,0,0,0l.05,0S44.33,24.12,44.32,24.2Z"/><path class="cls-61" d="M43.07,25.66s-.06.05,0,0-.06.08-.08.13l.12-.07c0-.07.07-.1.09-.16S43.09,25.63,43.07,25.66Z"/><path class="cls-62" d="M55.32,10.26s0,0,.12-.07a.08.08,0,0,1,0-.06C55.48,10.08,55.34,10.2,55.32,10.26Z"/><path class="cls-63" d="M45.9,22.4c0,.09,0,.05.09,0s-.07,0,0-.09S45.92,22.36,45.9,22.4Z"/><path class="cls-64" d="M54.26,13.62c0-.06-.12.08-.14.14S54.21,13.65,54.26,13.62Z"/><path class="cls-65" d="M55.12,10.34s.07-.05.1-.08,0,0,0-.1S55.2,10.24,55.12,10.34Z"/><path class="cls-66" d="M41.9,26.8a.82.82,0,0,0,.19-.22A.52.52,0,0,0,41.9,26.8Z"/><path class="cls-67" d="M42.63,25.93a.62.62,0,0,0-.14.18C42.56,26.08,42.59,26,42.63,25.93Z"/><path class="cls-68" d="M55,13.55a1,1,0,0,0-.2.33A1.81,1.81,0,0,0,55,13.55Z"/><path class="cls-69" d="M41.14,27.56a5.09,5.09,0,0,0-.38.56,4.7,4.7,0,0,0,.38-.5s0,0,0,.08C41.27,27.58,41.23,27.51,41.14,27.56Z"/><path class="cls-70" d="M51.93,16.44c0-.11.09-.13.09-.2C51.93,16.33,51.83,16.49,51.93,16.44Z"/><path class="cls-71" d="M55.13,13.43s0-.08.08-.17a.44.44,0,0,0-.15.22S55.09,13.45,55.13,13.43Z"/><path class="cls-72" d="M40.21,28.76a.61.61,0,0,0,.12-.15l-.09.05C40.21,28.72,40.24,28.71,40.21,28.76Z"/><path class="cls-73" d="M53.11,15.13c-.08.07-.09.11-.15.11s0,0,0,0-.07.09-.09.16A.57.57,0,0,0,53.11,15.13Z"/><path class="cls-74" d="M40,29c.08,0,.13-.14.19-.2s0,0,0,0,0,0,0,0S40,28.9,40,29Z"/><path class="cls-75" d="M53.58,14.7c.07-.09.18-.12.24-.24A.62.62,0,0,0,53.58,14.7Z"/><path class="cls-76" d="M43.32,25.29s0,0,0,0-.06,0-.09.07,0,.07-.06.14.1-.11,0,0C43.29,25.44,43.44,25.21,43.32,25.29Z"/><path class="cls-77" d="M52.55,15.17c0-.1.09-.15.14-.23S52.42,15.25,52.55,15.17Z"/><path class="cls-78" d="M52.05,14.93c.08-.06,0,0,.11-.07s.09-.16.13-.25.1-.08.16-.11-.07,0,0-.09l0,.05c-.18.13-.3.34-.47.48s0,.08,0,.16C52,15,52,15,52.05,14.93Z"/><path class="cls-79" d="M48.29,19.72a1.37,1.37,0,0,0-.22.3C48.14,19.92,48.3,19.78,48.29,19.72Z"/><path class="cls-80" d="M51.93,14.33a2.61,2.61,0,0,1,.24-.23c0-.09-.12.09-.07,0A.81.81,0,0,0,51.93,14.33Z"/><path class="cls-81" d="M51.48,15.12s0,.05,0,0a.3.3,0,0,0,0-.13s-.06.11-.11.13S51.47,15.13,51.48,15.12Z"/><path class="cls-82" d="M52.23,14.38c-.07,0-.11.09-.17.14S52.21,14.46,52.23,14.38Z"/><path class="cls-83" d="M53.9,11.94a.71.71,0,0,0-.15.22C53.81,12.1,53.92,12,53.9,11.94Z"/><path class="cls-84" d="M53.34,12.57c-.07.07-.16.1-.19.21A.77.77,0,0,0,53.34,12.57Z"/><path class="cls-85" d="M52.8,14.1l.05-.11c-.05,0-.07.07-.13.09S52.73,14.15,52.8,14.1Z"/><polygon class="cls-86" points="46.49 21.92 46.49 21.92 46.49 21.92 46.49 21.92"/><path class="cls-87" d="M52.66,14.23c.07-.1-.12.13-.14.08s0,0,0,.08S52.56,14.3,52.66,14.23Z"/><path class="cls-88" d="M51.86,15.85c-.07,0-.08.12-.12.18a.28.28,0,0,1,.09-.07S51.83,15.91,51.86,15.85Z"/><path class="cls-89" d="M50.41,17.4a.54.54,0,0,1,0,.15c.07-.12.23-.29.23-.34C50.52,17.34,50.51,17.28,50.41,17.4Z"/><path class="cls-90" d="M51.07,16s-.21.18-.26.3c0,0,0,0,0,0S51,16,51.07,16Z"/><path class="cls-91" d="M50,17.9c0,.06,0,.05,0,.08s.05-.09.08-.13S50,17.86,50,17.9Z"/><path class="cls-92" d="M51.13,15.19c0-.06,0-.08,0,0s0,.08-.07.13S51.11,15.21,51.13,15.19Z"/><path class="cls-93" d="M51.79,15.08a5.65,5.65,0,0,0-.56.73s.08-.09.07,0,0-.07.11-.18c0,.06.28-.31.23-.19C51.71,15.37,51.78,15.16,51.79,15.08Z"/><path class="cls-94" d="M51.31,15.64a1.26,1.26,0,0,0-.19.25C51.21,15.85,51.24,15.72,51.31,15.64Z"/><path class="cls-95" d="M48.53,16.32l-.1.12S48.52,16.36,48.53,16.32Z"/><path class="cls-96" d="M54.49,14.15c-.08,0,0-.08-.16,0A.31.31,0,0,1,54.5,14c0-.12-.09.06-.11,0a.18.18,0,0,1-.11.13c0,.08-.09.11-.07.14s.11-.13.12-.07-.11.07-.14.15,0-.1-.09,0c.08,0-.08.09-.14.17s0-.06,0-.1-.2.15-.27.27-.2.19-.3.19,0,.14-.15.26,0-.06,0-.1-.18.17-.27.24,0,0,.06,0-.13.15-.1.18a.1.1,0,0,0-.1.06c-.05,0,0,0,0-.1-.11.09-.19.24-.32.3s-.17.12-.2.28c0-.06-.09.08-.13.06a.5.5,0,0,1,.22-.21c0-.14.22-.29.36-.39,0,0,0-.06,0-.17-.13.27-.61.51-.68.84a3.32,3.32,0,0,1-.37.38c0,.06,0,0,.06,0l-.08.17a.34.34,0,0,1-.12.12c0-.09.11-.13.14-.23s-.12.11-.19.15l0,.12-.1.1s0,0,0-.12c-.15.15,0,.16-.19.3,0,0,0,0,0,0a.71.71,0,0,1-.1.14c0-.15-.27.17-.39.25.1-.14.4-.41.35-.45.11-.13.24-.24.34-.37s-.14.14-.2.18a.65.65,0,0,0,.11-.22c.09,0,.12-.11.2-.09.07-.14,0-.11,0-.11s.1-.05.14-.08.08-.11.11-.19,0,0,.1,0,0-.05.14-.14.16-.2.23-.33,0,0,.06,0-.27.28-.22.32a.86.86,0,0,0,.13-.2l.06,0a.33.33,0,0,1,.16-.2c.08-.14,0,0,0-.18a.35.35,0,0,0,.05-.08c.08-.05,0,0,0,.06s.1-.11.16-.14,0,0,0,0,.26-.2.32-.4a7.11,7.11,0,0,1,.55-.55c0-.11.12-.15.17-.23s0,0,0-.13c-.11.07-.1.08-.19.11s0,0,0,.15-.17.16-.22.3,0-.15,0-.19-.17.22-.19.15c-.13.13-.21.33-.38.41.06-.1.14-.18.2-.28-.05.05-.09.12-.16.14s0,.07-.08.09c-.1.21-.3.3-.43.48s0,0,0-.09-.1.12-.16.16a.3.3,0,0,0,.19-.07s0,0,0,.06l-.14.14s0-.08-.07,0a.43.43,0,0,0,0,.1s0,0-.07.09,0-.07,0-.09.12-.1.16-.2c-.6.63-1.17,1.29-1.77,1.91,0,.1-.2.28-.27.28s.07,0,.05.12-.13.07-.22.21,0,0,0-.07-.17.24-.27.33c.05-.21-.25.21-.44.32s0,0,.06,0a1.7,1.7,0,0,1-.24.23s.07,0,0,0a.68.68,0,0,1-.12.12.3.3,0,0,1,0,.13c-.06.12-.08,0-.14.17s0,0,0-.09a3,3,0,0,0-.47.51s0,0,0-.05a7.52,7.52,0,0,1-.5.62s0,0,0,0a.9.9,0,0,0-.16.29c-.07,0-.08,0,0,0a4.61,4.61,0,0,0-.66.78c-.08.06,0-.05-.09,0s.08-.07.1-.14a5.25,5.25,0,0,1-.59.73c0,.06.16-.15.08,0s-.1.09-.15.13a1.2,1.2,0,0,1-.18.26s0-.07,0-.12a4.33,4.33,0,0,1-.51.66s0,0,0,0-.06.06-.1.08a1.42,1.42,0,0,1-.08.18s0,0-.11,0a2.85,2.85,0,0,1-.27.32c-.06,0,0-.09.06-.1a.66.66,0,0,0-.24.38c-.11.09,0,0,0-.11a3.64,3.64,0,0,1-.36.49s0-.11.06-.1-.12.07-.21.17.1-.14,0-.07.09-.07.1-.15-.12.15-.19.2,0,.09-.07.15,0,0,.07,0a1.49,1.49,0,0,0-.18.31c-.1.08,0-.08-.07,0s-.13.2-.11.23c-.16.18-.36.37-.45.5s0,0,0,.12,0-.12-.16.05a.83.83,0,0,1,.13-.18s-.16.2-.24.27,0,0,0,.06-.11.11-.18.12,0,.06-.06.16-.15.06-.2.23,0,0-.11,0a.67.67,0,0,1,.12-.16,15,15,0,0,0-1.06,1.2s0-.07,0-.15-.12.18-.21.23,0,.07,0,.07c-.16.19-.51.47-.6.76-.08,0,0-.1,0-.11l-.25.27s0,0,0,.05-.38.31-.39.45,0,0-.13.05-.08.17-.16.2c0,.18-.33.35-.44.57,0,0-.08.05-.06,0a.77.77,0,0,1-.28.31.76.76,0,0,1-.09.16s0,0-.06,0-.1.16-.08.09a1.23,1.23,0,0,1-.25.3s0,.06-.07.14,0,0,0-.07-.18.22-.28.31c0-.12.1-.1.1-.18a1,1,0,0,0-.17.18s0-.06,0-.1.17-.11.2-.23c-.07.11-.08,0-.15.12s0-.1.08-.18,0,.05,0,.08a.32.32,0,0,0,.1-.19c.06-.07.11-.16.2-.2-.15.15-.07.16-.18.27s.12-.12,0,.05,0-.07-.07,0,0,0,.07,0l-.08.09c.1-.07.31-.39.47-.53-.07,0,.06-.09,0-.13a2.8,2.8,0,0,0-.24.33c-.11-.05.21-.37.29-.5s.06.06.17,0,.13-.13.16-.24c-.05.07-.23.24-.2.14s.08-.14.24-.27,0,.06.1,0l.07-.14s-.07,0-.06,0c.15-.24.33-.42.49-.64-.08,0-.12.12-.18.17.08-.15.25-.38.34-.37a.41.41,0,0,0-.13.2c0,.05.1-.1.08,0,.11-.14.17-.32.3-.34s.07-.11.12-.16,0-.07,0-.06c.16-.13.35-.45.47-.48l.22-.3s0,0,0,.06,0-.09.06-.15.07,0,0,.08c.1-.09.19-.22.26-.21s-.09,0,0-.14c-.13.12,0,.12-.16.25s0-.06,0-.15.32-.27.45-.45c.08,0,0,.09-.08.17a.66.66,0,0,0,.17-.23.05.05,0,0,0-.05,0c0-.06.08-.06.06-.1s.17-.29.33-.34c0,0,.14-.23.18-.21a1,1,0,0,1,.33-.44c0-.05,0,0,0-.08s.21-.23.24-.18l.09-.2c.15-.12,0,.09.09,0a.73.73,0,0,1,.24-.28s.05-.16.05-.21,0,.16.07.09c-.05-.07.18-.34.32-.44s0-.16.15-.26,0,.14.07,0,0,.08,0,.18l0-.05,0,0c0-.09,0-.06,0-.15s.11-.06.23-.15.14-.15.19-.25a.62.62,0,0,0-.23.25s-.07,0-.12.05,0-.11.17-.18-.07,0,0-.09a3.14,3.14,0,0,0,.41-.41c0-.05-.12.1-.15.15s.12-.23.21-.31-.13.15-.05.11.05-.11.16-.2c-.06.2.27-.34.44-.41s.15-.25.22-.4c0,.08.3-.33.32-.4s.07,0,.06,0,.11-.12.17-.25.12-.14.24-.31c0,0,0,.06.09,0,.21-.31.35-.42.57-.72,0,0,0,.06.08,0s.11-.18.2-.2c-.07,0,0-.17.14-.28s-.12.14-.07.15.07-.07.11-.09,0,0,0-.1,0,.08,0,.06.15-.18.13-.2,0,.05.11-.07,0-.13.11-.23.06-.06.15-.11.08-.14.14-.19,0,.06,0,.06.32-.36.23-.39c.08-.05.1-.2.18-.25s0,.09-.06.18.13-.16.2-.22.25-.38.31-.48-.07.15-.1.2,0,0,0,0,0,.08-.12.2c.13-.14.15-.18.3-.24s0,0,0-.08a8.65,8.65,0,0,0,.71-.8s.13-.2.05-.15c.08-.15.21-.18.17-.25s0,.05,0,.06-.07.06-.11.09.08,0,0,.14a2.28,2.28,0,0,0,.19-.3.07.07,0,0,0,.06,0c0-.1-.06,0-.06,0s.12-.12.15-.22c-.31.29-.59.62-.88.94-.09.08,0-.08-.06,0s0,.07-.07.14,0-.11,0-.21a3.66,3.66,0,0,0,.55-.6c0-.07.13-.1.18-.17s-.06,0,.06-.1,0,0,0-.09.18-.18.3-.33,0,0,.11,0,0-.11.1-.18-.07.13,0,0a.24.24,0,0,1,.08-.09s0-.05,0-.1c.18-.16.26-.25.41-.36,0-.1.14-.13.19-.26s-.06.09-.07.14a2.29,2.29,0,0,1,.21-.23s0-.13.09-.15,0,0,0-.18c-.14.17-.23.2-.32.36s0-.08,0,0-.05.13,0,.13a1,1,0,0,0-.12.17s-.14.12-.19.2.06-.12,0-.17a.35.35,0,0,0-.09.15.79.79,0,0,0-.21.17s0,.11-.07.19,0,0-.12,0-.1.11-.15.17,0,0-.06,0a5.51,5.51,0,0,1-.6.67c-.07.18-.23.24-.32.4-.24.15-.44.6-.64.65,0,.07-.07.1-.09.16a1.18,1.18,0,0,0-.18.13c.06-.11.15-.15.14-.23,0,.08.06,0,.13-.1s0,0-.09.06a1.15,1.15,0,0,1,.25-.32s-.07.12-.1.15.22-.26.31-.36c-.06,0-.08.11-.14.13a5.1,5.1,0,0,0,.36-.49c.07,0-.1.18,0,.08l0-.12a2.46,2.46,0,0,0,.45-.56c-.08.17.09-.05.19-.15s0-.1,0,0c.09-.2.17-.14.25-.31s.06,0,.07,0a.37.37,0,0,0,.09-.2c.06-.1.25-.21.23-.28s.17-.16.16-.12a1.79,1.79,0,0,1,.43-.52.63.63,0,0,0-.13.24l.21-.17c.05-.07-.09,0,0-.06s-.09.1-.11.13.14-.31.27-.37.18-.38.34-.47l.05-.12c.07-.06,0,0,0,0s.12-.22.21-.27,0,.1-.06.14A2.4,2.4,0,0,1,53,13a.92.92,0,0,0,.17-.25s-.07,0,0,0,.27-.33.43-.44a.42.42,0,0,1-.11.17,3.06,3.06,0,0,0,.35-.36c.06-.13-.07.08-.12.07s.12-.14.16-.24,0,0,0-.06-.07.08-.1.06a.36.36,0,0,0,.07-.1,1,1,0,0,0,.28-.21c0,.1-.14.12-.17.22s.09-.09.15-.11.1-.2.17-.28,0,0,0,.07.1-.11.17-.14-.07,0-.07,0,.27-.28.38-.45-.09.11-.15.15h0c.11-.09.11-.15.2-.28s-.11.08-.12.15,0-.13-.07,0c0-.09.16-.24,0-.17s-.06.1,0,.06,0,.05-.08.07,0,.09-.06.16a2.16,2.16,0,0,0-.32.4c-.18.08-.27.3-.42.44,0-.07.19-.26.17-.33a5.4,5.4,0,0,0-.53.67c-.08,0-.14,0-.2.2s-.07,0,0-.15-.06.08-.1.1,0,.14.05.07a5.81,5.81,0,0,0-.38.46l.27-.43c-.09,0-.25.34-.36.49,0,0-.16.13-.22.21s0,0,0,0,0,0-.05.07,0-.05,0,0-.29.39-.44.58c0,0,0,0,0,0,.15-.21.19-.3.33-.49a5.44,5.44,0,0,0-.41.42c0,.08.07-.05.1-.05a.91.91,0,0,1-.08.13c-.1.08-.06,0-.15.07s0,0,0,.1L51.6,14c.06,0,.09,0,.1-.06s0,.08-.06.16c.07-.13-.13.1-.08,0-.06.05-.07.16-.13.2s0-.13.1-.2-.08,0,0-.06-.13.17-.21.23.06-.11.07-.19-.13.17-.22.22.09-.09.14-.09a1.54,1.54,0,0,1-.17.19c.1-.07.07,0,.08.06a.18.18,0,0,0,0,.07c-.1.08,0-.08-.07,0s-.5.6-.51.51c0,.08-.11.14-.08.17s-.07,0-.14,0c.1-.1.17-.24.27-.33a2.15,2.15,0,0,0-.4.43c-.05,0,0-.06-.07,0a.81.81,0,0,1-.27.33c0,.05-.06.13,0,.11-.08,0-.12.16-.24.24.1,0-.13.2-.1.23-.15.14,0-.13-.07,0a.47.47,0,0,1-.15.21s0,0,0-.07c.17-.24.37-.42.49-.63-.06,0-.07.12-.14.13-.18.36-.52.51-.71.86-.28.19-.65.77-.82.82l-.23.24c0,.1-.16.21-.24.33s0-.05,0,0-.11.2-.13.16c-.17.28-.42.45-.6.71.07,0,0,.09,0,.13s0-.12,0-.11a4.34,4.34,0,0,0-.51.61c0-.06-.24.18-.25.26s-.08.07-.13.1-.5.51-.66.82c-.22.11-.42.59-.61.66a1.56,1.56,0,0,0,.16-.2c-.07,0-.21.28-.37.43s-.3.26-.28.31-.09.06-.13.1-.25.3-.36.48-.49.54-.73.81Q39.18,27.6,35.45,32l-3.72,4.4-2.66,3.23L25.88,36c0-.07.63.63.68.65.42.58,1,1.06,1.39,1.63a.42.42,0,0,1,.17.13s0,0-.08,0,.18.14.22.26,0-.05.09,0a2.27,2.27,0,0,0,.32.46c.1.11.1.09.16.12s.08.16.14.16,0,0,0,0,.07,0,.11.09a.38.38,0,0,0,.12-.18s0,0,0,0,0,0,0,0,.09-.09.13-.15L29.4,39l.32-.34c0-.09.25-.29.35-.41s.25-.39.36-.44a1.72,1.72,0,0,1,.44-.52c.07-.11-.07,0,0-.08s.14-.12.1-.06c.07-.15.19-.23.27-.37s0,0,0,0c.1-.19.25-.31.36-.49.06,0,0,0,.13-.1s0-.08.07-.14,0,0,.08,0,.28-.29.41-.55c0,0,0,0,0,0,.2-.27.71-.84.74-.94s.25-.22.32-.4a1,1,0,0,0,.34-.37l2-2.38c0-.05,0,0,0-.07s.08-.08.19-.16c.34-.49.94-1,1.33-1.62,0,0,0,0,.08,0a6,6,0,0,1,.5-.61s-.11,0,0-.24c.07,0,0,0,.15-.06s0,.16-.11.17.16-.1.12-.12c.27-.21.45-.57.72-.78a.67.67,0,0,1,.32-.35c0-.06,0-.05,0,0,.22-.22.42-.49.65-.7,0,0,0,0,0-.06a13.22,13.22,0,0,1,1-1.05s0,0,0,0c.34-.38.65-.79,1-1.13s.63-.73.92-1.07c.06-.1,0,0,0-.11a.73.73,0,0,1,.08-.09c0,.16.25-.23.37-.32s-.09.09-.13.09.07-.11.09-.15c.19,0,.39-.4.6-.57.06-.1,0,0,0-.12s.06,0,.07-.08,0,.06,0,.1a.47.47,0,0,0,.16-.2c.21-.15.15-.19.35-.36,0,0-.07,0-.07,0s0,0,.06,0,0,0-.06,0c.07-.15.17-.24.23-.39s.1-.08.11,0,.11-.25.21-.31,0,.09,0,.13.1-.15.06-.15.14-.1.18-.18,0,.08.06,0,.32-.5.36-.44a.93.93,0,0,0,.22-.3c.15-.06.25-.3.33-.3,0-.2.37-.35.48-.6s.31-.36.48-.51-.09.11,0,0c.2-.36.51-.55.72-.87,0,0-.06.06-.1.08s0-.05,0,0,.25-.21.36-.34,0,0-.07,0,.08-.09.09-.15,0,0,.09-.06.31-.31.42-.54c.08-.06.1,0,0,.06s.1-.12.16-.16,0,0-.08,0a.58.58,0,0,1,.13-.2s0,0,0,.08a5.63,5.63,0,0,1,.38-.45s0,.08.07,0,.45-.56.55-.74c.07,0,.21-.2.11,0,.09-.08.08-.11.07-.14s.15-.05.23-.2c-.06,0-.08.08-.12.11s0-.05,0,0a2.93,2.93,0,0,0,.54-.66c0,.05,0,0,.13,0s0,0-.1,0c.05-.18.22-.19.28-.36s0,.11.07.06,0-.09,0-.14.1-.06.12-.12,0,.06,0,.1.16-.2.11-.18c.16-.1.13-.14.26-.2a.94.94,0,0,1,.26-.3s-.08,0,0-.1l-.12.07c-.06.08,0,.07-.11.13s0,0,0,0-.45.56-.44.41c-.05,0-.06.11-.09.15s0,0,0-.13-.23.26-.13.21c-.07.1-.17.16-.22.3s0-.13,0-.12-.24.32-.23.2c-.06,0-.05.1,0,.07a.73.73,0,0,1-.22.21s0,0,0,.06-.09.09-.12.16,0,0,0-.06a3.32,3.32,0,0,1-.47.57c-.06,0,.06-.07.06-.12s-.11.14-.19.17c-.08.18-.16.08-.25.26l.12-.11c0,.09-.1.1-.13.2s0,0,0-.06-.06.08-.1.1a2.66,2.66,0,0,1-.49.58s0,0,0,0a9.29,9.29,0,0,1-.65.74s0-.06,0-.1-.13.17-.11.18,0,0-.15.07.1-.05.06,0a3,3,0,0,1-.47.53c0,.12-.1.17-.19.3s0,0-.1,0a2.48,2.48,0,0,1-.34.43s.09-.13.12-.17a1.08,1.08,0,0,0-.3.38c-.08.07,0-.05-.09,0,0-.09.12-.16.1-.19a7.06,7.06,0,0,0-.55.74c-.12.1,0-.12-.06,0a4.73,4.73,0,0,1-.61.65.59.59,0,0,1-.22.26c0,.06,0,0,0,.09s-.45.58-.52.54a8.15,8.15,0,0,0-.71.84c-.15.09-.23.27-.39.35s-.16.19-.2.33-.05,0-.11,0c-.43.5-.84,1-1.31,1.47,0,0,0,.1,0,0a11.59,11.59,0,0,0-1.08,1.23c-.07.12-.2.16-.28.27s0,0,0,0A2.21,2.21,0,0,0,40,26l-.14.08a14.23,14.23,0,0,1-1.13,1.3s0,0,0,0c-.68.73-1.3,1.52-2,2.25a9,9,0,0,1-.82,1,2.2,2.2,0,0,1-.39.44l0,.12c-.12,0-.23.3-.39.4-.27.41-.77.87-1.1,1.34l-.09,0c-.44.61-1,1-1.39,1.59-.24.2-.36.43-.6.63s-.28.27-.38.45a13.71,13.71,0,0,0-1,1.12c-.38.44-.76.6-1.13,1.06l-.26.1h0s0,0,0,0v0s0,0,0,0,0,0,0,0,0,0,0,0,0,0,0,0v0a1.14,1.14,0,0,0-.16-.15L11.76,19.45,29,44.18h0l.23-.26.21-.25.09-.11,0,0,.34-.39.18-.2v0l.25-.28.17-.2.11-.12.14-.17.11-.12L32,40.75l.06-.08.49-.56.19-.22a4.57,4.57,0,0,0,.42-.49l.08-.08.1-.12.08-.1.06-.06.08-.09.4-.46.12-.14.21-.24.08-.1.09-.1.57-.66.15-.17.18-.2.29-.34.43-.5.12-.14a2.53,2.53,0,0,1,.23-.26l.13-.15.24-.28.08-.09.87-1,0-.06.13-.15.3-.34.42-.49,0,0,.17-.2,0,0,.08-.09.05-.06.07-.08,0,0,.07-.08,0,0,.15-.18h0l.11-.13h0l.12-.14,0,0,.11-.13.29-.33.07-.08.06-.07,0,0,.12-.14.19-.22,0,0,.16-.18.49-.58.18-.2.34-.39.38-.44,0,0,1.48-1.7,0-.05.19-.22.05-.06.2-.23h0l.78-.9a1.32,1.32,0,0,0,.49-.56c.08-.06-.06.14,0,.06s.25-.28.37-.43,0,0,0-.1,0,.05,0,0,0,0,.05-.12,0,.05,0,0,.17-.18.13-.2a.09.09,0,0,0,.06-.06s0,0,0,.08A4.29,4.29,0,0,0,46.6,24c.19-.16.11-.16.23-.25a2,2,0,0,1,.22-.4l.37-.37s0,0,0,.08a1.08,1.08,0,0,0,.16-.2c0-.15.45-.47.59-.73l-.67.71a1.78,1.78,0,0,1,.22-.26c0-.06-.1.11-.14.13l.08-.17s0,0,.08,0c.14-.2.08-.26.29-.44,0,0-.1.17-.13.24s.07,0,0,0a.87.87,0,0,1,.23-.39s0,0,0,.09.09-.23.22-.34,0,.1.08,0,0,0,0,0,.1-.12,0-.13.17-.17.12-.17a.44.44,0,0,1,.13-.14s-.09.19,0,.18l.14-.23c.07,0,0,0,.11,0s.22-.25.33-.38-.06.09-.07.14c.16-.14.12-.28.3-.38,0-.05,0-.14.09-.16s-.06.06-.09.05l0-.08c.13-.1.22-.26.35-.36s-.12.22-.2.25a.63.63,0,0,1-.13.2c.06-.08.25-.19.3-.35s0,.07.1,0a2.26,2.26,0,0,1,.43-.59c.06,0-.06.08-.06.12s.06,0,.14-.09.2-.23.28-.37.12-.16.29-.44a3.22,3.22,0,0,1-.24.28c0,.06,0,.05,0,0a.61.61,0,0,1-.14.17c-.06,0,0-.08.06-.1a.73.73,0,0,0-.33.3,1.54,1.54,0,0,0-.4.43c-.06,0-.05,0-.09.1a2.72,2.72,0,0,0-.6.62s-.21.22-.19.11a1.73,1.73,0,0,1-.15.22c-.06,0-.1.11-.17.14s0,0,0,.07-.12.06-.14.14-.08,0-.1.09.07-.14,0-.05a1.41,1.41,0,0,1-.46.53c-.08.06,0,.05,0,.12a.18.18,0,0,0-.05.07c-.09.06,0,0-.13.05a3.29,3.29,0,0,1-.54.61,1.14,1.14,0,0,1-.1.19c.11-.07,0-.11.16-.2,0,.08,0,.05.05,0a.47.47,0,0,1-.27.29c0-.09.12-.08.15-.17-.08.09-.15.09-.1,0l-.37.39c0-.08,0-.05-.1,0a.61.61,0,0,1,.2-.19s-.06,0,0,0c-.06.09-.14.14-.2.23s0,0,.11,0a2.37,2.37,0,0,0-.3.39s.05,0,0,.06,0,0-.12,0,0,0,0-.09c-.15.08-.37.39-.53.49a3.18,3.18,0,0,1-.44.52c-.07,0,.08-.15.06-.2s-.1.21-.18.17,0,.09,0,.08a3.23,3.23,0,0,1-.39.44c0,.1-.14.22-.24.33s0-.05,0-.08a.28.28,0,0,1,.11-.08s0-.05,0-.05l0-.05c-.08.06-.12.18-.22.21s.08-.1.12-.16-.12.11-.16.14c.07-.2-.15.16-.27.25s0,.08,0,.17c0-.1-.07,0-.11,0a.13.13,0,0,1-.05.07c.07,0-.06.14-.06.21a1.24,1.24,0,0,0-.31.35c-.08.06,0,0-.05-.06s-.21.21-.28.26l-.06.11.1-.05c0-.12.14-.15.2-.23-.06.13-.18.18-.24.31-.06-.09-.23.2-.41.33a1.54,1.54,0,0,1,.17-.19s-.16.15-.22.21,0,.06,0,.11l0,0,0,0s0,0-.07,0a.13.13,0,0,1-.07.09s0,.05,0,.08l-.07.06a.31.31,0,0,1-.09.07h0l-.1.1s0,0,0,0,0,0,0,0l-.8.77s0,0,0,0A3.57,3.57,0,0,0,42,28.2s0,0,0,0,0,0,.12-.07a.31.31,0,0,1,.08-.11c-.06-.1.2-.19.25-.36s0,.06.11,0-.06,0,0-.13-.09.11-.16.15,0,0,.06,0a.63.63,0,0,1-.18.21s0-.08,0-.13a1.94,1.94,0,0,0,.21-.27c.08-.06,0,.06.11,0s.49-.63.73-.91c0,0,0,.12,0,.1-.18.2-.37.39-.55.6.06-.05.12-.11.07,0l.17-.23s0,.1.08,0,.06-.12.15-.22,0,.05.09,0a2.36,2.36,0,0,0,.34-.47s.06,0,0,0,0,0-.07.09c.13-.1.22-.25.35-.36l.09-.2a.33.33,0,0,0,.16-.07c0-.13-.09,0-.13,0s.17-.1.21-.22,0,.14.1,0,0,0,0,0a3.34,3.34,0,0,1,.43-.48c0-.12-.09,0-.15.07.06-.1.08-.25.17-.29s-.07.1,0,.1.06-.1.12-.11,0,0,0-.16.07,0,0,0c.13-.09.05-.16.17-.24s-.07.16,0,.09,0-.09,0-.16l.08-.09s-.09.14,0,.15.09-.07.2-.14a4.25,4.25,0,0,0,.47-.57c-.06.17.32-.32.46-.44,0,.05-.17.19-.21.31.17-.14.25-.36.39-.44s0,0-.06,0,.1-.11.13-.2c.19-.08.32-.36.45-.41.14-.23.27-.3.37-.51-.07.07,0,0-.09.05.16-.28.28-.27.34-.22s0-.07,0-.13l.26-.26s-.06.11-.1.17.3-.29.34-.35.07,0,0,0,.07-.09.11-.13,0,0-.06,0a4.24,4.24,0,0,0,.62-.64l.12-.07c0-.05.08-.07.1-.14.21-.1.32-.37.53-.48a1.92,1.92,0,0,1,.52-.54c-.08.14-.08.16-.14.27.18-.21.33-.48.45-.54-.05-.05.06-.24,0-.25l.3-.28c0-.06-.35.37-.4.28s.09-.06.13-.1.15-.18.19-.3c0,0,0,.07.13,0s0-.1.08-.22.21-.12.18-.17.06,0,.14-.08,0,0,0,.1a1.37,1.37,0,0,0,.24-.29c.08,0,0,.13.05.08s0-.14.1-.19,0-.1-.05,0c.09-.14.08-.11.09-.2s.1,0,.12-.11-.07,0-.1,0,.11-.1.14-.17,0,.13,0,.06.13-.17.1-.1a1.31,1.31,0,0,1,.48-.52s0-.09,0-.11-.06,0-.14.08,0,0,0,0a4.52,4.52,0,0,1-.5.48c.11-.18.28-.27.4-.44l-.23.2c.06-.11.16-.15.2-.29s0,.07.08,0,0-.08.07-.13,0,0,0,.06.07-.1.12-.12.13-.17.11-.23,0,0,.12,0,.25-.28.28-.27c.09-.16.13-.11.22-.25s0,.07,0,.11.21-.24.33-.34,0-.09,0-.13.18-.21.16-.26,0,.08.07,0,.09-.14.17-.18,0-.07.06-.15-.05.15,0,.16-.12.05-.13.15.18-.16.24-.28,0,0,.11,0,.24-.38.29-.38,0-.05,0-.05a.6.6,0,0,1,.21-.21c0-.08.08-.11.11-.18C54.67,14,54.54,14,54.49,14.15Z"/><path class="cls-97" d="M34.17,24.44l.32,4.39L29,34.5l-5.5-5.67h0l.92-13.06c1-.54,2-1.08,3.08-1.61l-.31,13.55L29,29.46l1.8-1.75-.37-14.93c.91-.41,1.85-.82,2.82-1.21ZM21.45,26.72l1-9.82c-1.55.91-3,1.83-4.36,2.74l.29,3.89Zm-4.67-6.19-.79.56.58.61Zm29-13c-.84.21-1.67.42-2.48.65l1.51,5.95-5.79,5.62L37.6,9.93c-.9.31-1.79.64-2.66,1l1.6,15.82L48,14.85h0Zm-34,16.88L29,44.18h0L14,22.61C13.19,23.21,12.46,23.8,11.77,24.37Z"/></g></g></svg>