<svg xmlns="http://www.w3.org/2000/svg" xmlns:xlink="http://www.w3.org/1999/xlink" viewBox="0 0 507.86 90"><defs><style>.cls-1{fill:none;}.cls-2{fill:#eaeef1;}.cls-3{fill:url(#名称未設定グラデーション_59);}.cls-4{fill:url(#名称未設定グラデーション_59-2);}.cls-5{fill:url(#名称未設定グラデーション_59-3);}.cls-6{fill:url(#名称未設定グラデーション_59-4);}.cls-7{fill:url(#名称未設定グラデーション_59-5);}.cls-8{fill:url(#名称未設定グラデーション_59-6);}.cls-9{fill:url(#名称未設定グラデーション_59-7);}.cls-10{fill:url(#名称未設定グラデーション_59-8);}.cls-11{fill:url(#名称未設定グラデーション_59-9);}.cls-12{fill:url(#名称未設定グラデーション_59-10);}.cls-13{fill:url(#名称未設定グラデーション_59-11);}.cls-14{fill:url(#名称未設定グラデーション_59-12);}.cls-15{fill:url(#名称未設定グラデーション_59-13);}.cls-16{fill:url(#名称未設定グラデーション_59-14);}.cls-17{fill:url(#名称未設定グラデーション_59-15);}.cls-18{fill:url(#名称未設定グラデーション_59-16);}.cls-19{fill:url(#名称未設定グラデーション_59-17);}.cls-20{fill:url(#名称未設定グラデーション_59-18);}.cls-21{fill:url(#名称未設定グラデーション_59-19);}.cls-22{fill:url(#名称未設定グラデーション_59-20);}.cls-23{fill:url(#名称未設定グラデーション_59-21);}.cls-24{fill:url(#名称未設定グラデーション_59-22);}.cls-25{fill:url(#名称未設定グラデーション_59-23);}.cls-26{fill:url(#名称未設定グラデーション_59-24);}.cls-27{fill:url(#名称未設定グラデーション_59-25);}.cls-28{fill:url(#名称未設定グラデーション_59-26);}.cls-29{fill:url(#名称未設定グラデーション_59-27);}.cls-30{fill:url(#名称未設定グラデーション_59-28);}.cls-31{fill:url(#名称未設定グラデーション_59-29);}.cls-32{fill:url(#名称未設定グラデーション_59-30);}.cls-33{fill:url(#名称未設定グラデーション_59-31);}.cls-34{fill:url(#名称未設定グラデーション_59-32);}.cls-35{fill:url(#名称未設定グラデーション_59-33);}.cls-36{fill:url(#名称未設定グラデーション_59-34);}.cls-37{fill:url(#名称未設定グラデーション_59-35);}.cls-38{fill:url(#名称未設定グラデーション_59-36);}.cls-39{fill:url(#名称未設定グラデーション_59-37);}.cls-40{fill:url(#名称未設定グラデーション_59-38);}.cls-41{fill:url(#名称未設定グラデーション_59-39);}.cls-42{fill:url(#名称未設定グラデーション_59-40);}.cls-43{fill:url(#名称未設定グラデーション_59-41);}.cls-44{fill:url(#名称未設定グラデーション_59-42);}.cls-45{fill:url(#名称未設定グラデーション_59-43);}.cls-46{fill:url(#名称未設定グラデーション_59-44);}.cls-47{fill:url(#名称未設定グラデーション_59-45);}.cls-48{fill:url(#名称未設定グラデーション_59-46);}.cls-49{fill:url(#名称未設定グラデーション_59-47);}.cls-50{fill:url(#名称未設定グラデーション_59-48);}.cls-51{fill:url(#名称未設定グラデーション_59-49);}.cls-52{fill:url(#名称未設定グラデーション_59-50);}.cls-53{fill:url(#名称未設定グラデーション_59-51);}.cls-54{fill:url(#名称未設定グラデーション_59-52);}.cls-55{fill:url(#名称未設定グラデーション_59-53);}.cls-56{fill:url(#名称未設定グラデーション_59-54);}.cls-57{fill:url(#名称未設定グラデーション_59-55);}.cls-58{fill:url(#名称未設定グラデーション_59-56);}.cls-59{fill:url(#名称未設定グラデーション_59-57);}.cls-60{fill:url(#名称未設定グラデーション_59-58);}.cls-61{fill:url(#名称未設定グラデーション_59-59);}.cls-62{fill:url(#名称未設定グラデーション_59-60);}.cls-63{fill:url(#名称未設定グラデーション_59-61);}.cls-64{fill:url(#名称未設定グラデーション_59-62);}.cls-65{fill:url(#名称未設定グラデーション_59-63);}.cls-66{fill:url(#名称未設定グラデーション_59-64);}.cls-67{fill:url(#名称未設定グラデーション_59-65);}.cls-68{fill:url(#名称未設定グラデーション_59-66);}.cls-69{fill:url(#名称未設定グラデーション_59-67);}.cls-70{fill:url(#名称未設定グラデーション_59-68);}.cls-71{fill:url(#名称未設定グラデーション_59-69);}.cls-72{fill:url(#名称未設定グラデーション_59-70);}.cls-73{fill:url(#名称未設定グラデーション_59-71);}.cls-74{fill:url(#名称未設定グラデーション_59-72);}.cls-75{fill:url(#名称未設定グラデーション_59-73);}.cls-76{fill:url(#名称未設定グラデーション_59-74);}.cls-77{fill:url(#名称未設定グラデーション_59-75);}.cls-78{fill:url(#名称未設定グラデーション_59-76);}.cls-79{fill:url(#名称未設定グラデーション_59-77);}.cls-80{fill:url(#名称未設定グラデーション_59-78);}.cls-81{fill:url(#名称未設定グラデーション_59-79);}.cls-82{fill:url(#名称未設定グラデーション_59-80);}.cls-83{fill:url(#名称未設定グラデーション_59-81);}.cls-84{fill:url(#名称未設定グラデーション_59-82);}.cls-85{fill:url(#名称未設定グラデーション_59-83);}.cls-86{fill:url(#名称未設定グラデーション_59-84);}.cls-87{fill:url(#名称未設定グラデーション_59-85);}.cls-88{fill:url(#名称未設定グラデーション_59-86);}.cls-89{fill:url(#名称未設定グラデーション_59-87);}.cls-90{fill:url(#名称未設定グラデーション_59-88);}.cls-91{fill:url(#名称未設定グラデーション_59-89);}.cls-92{fill:url(#名称未設定グラデーション_59-90);}.cls-93{fill:url(#名称未設定グラデーション_59-91);}.cls-94{fill:url(#名称未設定グラデーション_59-92);}.cls-95{fill:url(#名称未設定グラデーション_59-93);}.cls-96{fill:url(#名称未設定グラデーション_59-94);}.cls-97{fill:url(#名称未設定グラデーション_116);}.cls-98{fill:#c6000b;}.cls-99{fill:#006446;}.cls-100{fill:#30a6d9;}</style><linearGradient id="名称未設定グラデーション_59" x1="97.93" y1="35.8" x2="98.31" y2="35.8" gradientUnits="userSpaceOnUse"><stop offset="0" stop-color="#fccf00"/><stop offset="0.3" stop-color="#f08c00"/><stop offset="0.6" stop-color="#ffd800"/></linearGradient><linearGradient id="名称未設定グラデーション_59-2" x1="98.79" y1="34.96" x2="99.1" y2="34.96" xlink:href="#名称未設定グラデーション_59"/><linearGradient id="名称未設定グラデーション_59-3" x1="81.94" y1="52.08" x2="82" y2="52.08" xlink:href="#名称未設定グラデーション_59"/><linearGradient id="名称未設定グラデーション_59-4" x1="81.74" y1="52.24" x2="81.94" y2="52.24" xlink:href="#名称未設定グラデーション_59"/><linearGradient id="名称未設定グラデーション_59-5" x1="106.79" y1="18.45" x2="107.12" y2="18.45" xlink:href="#名称未設定グラデーション_59"/><linearGradient id="名称未設定グラデーション_59-6" x1="106.61" y1="18.92" x2="106.93" y2="18.92" xlink:href="#名称未設定グラデーション_59"/><linearGradient id="名称未設定グラデーション_59-7" x1="94.28" y1="29.11" x2="95.58" y2="29.11" xlink:href="#名称未設定グラデーション_59"/><linearGradient id="名称未設定グラデーション_59-8" x1="55.69" y1="72.78" x2="55.71" y2="72.78" xlink:href="#名称未設定グラデーション_59"/><linearGradient id="名称未設定グラデーション_59-9" x1="107.27" y1="17.5" x2="109.06" y2="17.5" xlink:href="#名称未設定グラデーション_59"/><linearGradient id="名称未設定グラデーション_59-10" x1="89.23" y1="35.03" x2="89.98" y2="35.03" xlink:href="#名称未設定グラデーション_59"/><linearGradient id="名称未設定グラデーション_59-11" x1="103.2" y1="22.15" x2="103.46" y2="22.15" xlink:href="#名称未設定グラデーション_59"/><linearGradient id="名称未設定グラデーション_59-12" x1="101.03" y1="22.69" x2="101.3" y2="22.69" xlink:href="#名称未設定グラデーション_59"/><linearGradient id="名称未設定グラデーション_59-13" x1="103.67" y1="21.67" x2="103.95" y2="21.67" xlink:href="#名称未設定グラデーション_59"/><linearGradient id="名称未設定グラデーション_59-14" x1="104.81" y1="20.04" x2="105.37" y2="20.04" xlink:href="#名称未設定グラデーション_59"/><linearGradient id="名称未設定グラデーション_59-15" x1="101.46" y1="22.22" x2="101.82" y2="22.22" xlink:href="#名称未設定グラデーション_59"/><linearGradient id="名称未設定グラデーション_59-16" x1="99.94" y1="23.87" x2="100.28" y2="23.87" xlink:href="#名称未設定グラデーション_59"/><linearGradient id="名称未設定グラデーション_59-17" x1="88.84" y1="42.17" x2="89.12" y2="42.17" xlink:href="#名称未設定グラデーション_59"/><linearGradient id="名称未設定グラデーション_59-18" x1="96.43" y1="27.31" x2="96.7" y2="27.31" xlink:href="#名称未設定グラデーション_59"/><linearGradient id="名称未設定グラデーション_59-19" x1="98.88" y1="24.66" x2="99.89" y2="24.66" xlink:href="#名称未設定グラデーション_59"/><linearGradient id="名称未設定グラデーション_59-20" x1="88.37" y1="41.77" x2="88.61" y2="41.77" xlink:href="#名称未設定グラデーション_59"/><linearGradient id="名称未設定グラデーション_59-21" x1="91.33" y1="33.5" x2="92.18" y2="33.5" xlink:href="#名称未設定グラデーション_59"/><linearGradient id="名称未設定グラデーション_59-22" x1="92.69" y1="32.61" x2="93.05" y2="32.61" xlink:href="#名称未設定グラデーション_59"/><linearGradient id="名称未設定グラデーション_59-23" x1="92.09" y1="33.27" x2="92.53" y2="33.27" xlink:href="#名称未設定グラデーション_59"/><linearGradient id="名称未設定グラデーション_59-24" x1="91.13" y1="34.39" x2="91.45" y2="34.39" xlink:href="#名称未設定グラデーション_59"/><linearGradient id="名称未設定グラデーション_59-25" x1="94.44" y1="30.25" x2="94.75" y2="30.25" xlink:href="#名称未設定グラデーション_59"/><linearGradient id="名称未設定グラデーション_59-26" x1="93.95" y1="31.34" x2="94.22" y2="31.34" xlink:href="#名称未設定グラデーション_59"/><linearGradient id="名称未設定グラデーション_59-27" x1="97.62" y1="27.69" x2="97.92" y2="27.69" xlink:href="#名称未設定グラデーション_59"/><linearGradient id="名称未設定グラデーション_59-28" x1="94.7" y1="30.5" x2="95" y2="30.5" xlink:href="#名称未設定グラデーション_59"/><linearGradient id="名称未設定グラデーション_59-29" x1="90.7" y1="34.88" x2="90.98" y2="34.88" xlink:href="#名称未設定グラデーション_59"/><linearGradient id="名称未設定グラデーション_59-30" x1="88.68" y1="36.93" x2="89.18" y2="36.93" xlink:href="#名称未設定グラデーション_59"/><linearGradient id="名称未設定グラデーション_59-31" x1="84.91" y1="40.83" x2="86.22" y2="40.83" xlink:href="#名称未設定グラデーション_59"/><linearGradient id="名称未設定グラデーション_59-32" x1="86.61" y1="39.26" x2="87" y2="39.26" xlink:href="#名称未設定グラデーション_59"/><linearGradient id="名称未設定グラデーション_59-33" x1="103.39" y1="26.65" x2="103.58" y2="26.65" xlink:href="#名称未設定グラデーション_59"/><linearGradient id="名称未設定グラデーション_59-34" x1="103.53" y1="26.23" x2="103.9" y2="26.23" xlink:href="#名称未設定グラデーション_59"/><linearGradient id="名称未設定グラデーション_59-35" x1="89.7" y1="35.7" x2="90.43" y2="35.7" xlink:href="#名称未設定グラデーション_59"/><linearGradient id="名称未設定グラデーション_59-36" x1="85.62" y1="40.24" x2="86.15" y2="40.24" xlink:href="#名称未設定グラデーション_59"/><linearGradient id="名称未設定グラデーション_59-37" x1="81.65" y1="52.58" x2="81.84" y2="52.58" xlink:href="#名称未設定グラデーション_59"/><linearGradient id="名称未設定グラデーション_59-38" x1="89.25" y1="36.43" x2="89.64" y2="36.43" xlink:href="#名称未設定グラデーション_59"/><linearGradient id="名称未設定グラデーション_59-39" x1="87.07" y1="38.57" x2="87.99" y2="38.57" xlink:href="#名称未設定グラデーション_59"/><linearGradient id="名称未設定グラデーション_59-40" x1="93" y1="40.51" x2="93.49" y2="40.51" xlink:href="#名称未設定グラデーション_59"/><linearGradient id="名称未設定グラデーション_59-41" x1="94.69" y1="38.61" x2="95.32" y2="38.61" xlink:href="#名称未設定グラデーション_59"/><linearGradient id="名称未設定グラデーション_59-42" x1="94.75" y1="38.76" x2="95.41" y2="38.76" xlink:href="#名称未設定グラデーション_59"/><linearGradient id="名称未設定グラデーション_59-43" x1="91.03" y1="42.65" x2="91.39" y2="42.65" xlink:href="#名称未設定グラデーション_59"/><linearGradient id="名称未設定グラデーション_59-44" x1="92.81" y1="40.9" x2="93.31" y2="40.9" xlink:href="#名称未設定グラデーション_59"/><linearGradient id="名称未設定グラデーション_59-45" x1="89.78" y1="43.95" x2="90.04" y2="43.95" xlink:href="#名称未設定グラデーション_59"/><linearGradient id="名称未設定グラデーション_59-46" x1="87.37" y1="46.7" x2="87.87" y2="46.7" xlink:href="#名称未設定グラデーション_59"/><linearGradient id="名称未設定グラデーション_59-47" x1="86.9" y1="47.05" x2="87.27" y2="47.05" xlink:href="#名称未設定グラデーション_59"/><linearGradient id="名称未設定グラデーション_59-48" x1="86.7" y1="47.5" x2="86.92" y2="47.5" xlink:href="#名称未設定グラデーション_59"/><linearGradient id="名称未設定グラデーション_59-49" x1="84.32" y1="50.03" x2="84.47" y2="50.03" xlink:href="#名称未設定グラデーション_59"/><linearGradient id="名称未設定グラデーション_59-50" x1="87.42" y1="46.19" x2="88.03" y2="46.19" xlink:href="#名称未設定グラデーション_59"/><linearGradient id="名称未設定グラデーション_59-51" x1="86.19" y1="47.47" x2="86.46" y2="47.47" xlink:href="#名称未設定グラデーション_59"/><linearGradient id="名称未設定グラデーション_59-52" x1="87.38" y1="46.63" x2="87.55" y2="46.63" xlink:href="#名称未設定グラデーション_59"/><linearGradient id="名称未設定グラデーション_59-53" x1="88.45" y1="45.15" x2="89.39" y2="45.15" xlink:href="#名称未設定グラデーション_59"/><linearGradient id="名称未設定グラデーション_59-54" x1="88.1" y1="45.85" x2="88.58" y2="45.85" xlink:href="#名称未設定グラデーション_59"/><linearGradient id="名称未設定グラデーション_59-55" x1="89.24" y1="44.62" x2="89.54" y2="44.62" xlink:href="#名称未設定グラデーション_59"/><linearGradient id="名称未設定グラデーション_59-56" x1="82.1" y1="52.18" x2="82.32" y2="52.18" xlink:href="#名称未設定グラデーション_59"/><linearGradient id="名称未設定グラデーション_59-57" x1="101.17" y1="25.56" x2="101.54" y2="25.56" xlink:href="#名称未設定グラデーション_59"/><linearGradient id="名称未設定グラデーション_59-58" x1="84.75" y1="46.4" x2="85.05" y2="46.4" xlink:href="#名称未設定グラデーション_59"/><linearGradient id="名称未設定グラデーション_59-59" x1="82.31" y1="49.25" x2="82.71" y2="49.25" xlink:href="#名称未設定グラデーション_59"/><linearGradient id="名称未設定グラデーション_59-60" x1="106.05" y1="19.54" x2="106.33" y2="19.54" xlink:href="#名称未設定グラデーション_59"/><linearGradient id="名称未設定グラデーション_59-61" x1="87.95" y1="42.89" x2="88.19" y2="42.89" xlink:href="#名称未設定グラデーション_59"/><linearGradient id="名称未設定グラデーション_59-62" x1="103.75" y1="26.22" x2="104" y2="26.22" xlink:href="#名称未設定グラデーション_59"/><linearGradient id="名称未設定グラデーション_59-63" x1="105.65" y1="19.65" x2="105.91" y2="19.65" xlink:href="#名称未設定グラデーション_59"/><linearGradient id="名称未設定グラデーション_59-64" x1="80.32" y1="51.16" x2="80.67" y2="51.16" xlink:href="#名称未設定グラデーション_59"/><linearGradient id="名称未設定グラデーション_59-65" x1="81.45" y1="49.88" x2="81.71" y2="49.88" xlink:href="#名称未設定グラデーション_59"/><linearGradient id="名称未設定グラデーション_59-66" x1="104.99" y1="26.28" x2="105.38" y2="26.28" xlink:href="#名称未設定グラデーション_59"/><linearGradient id="名称未設定グラデーション_59-67" x1="78.13" y1="53.35" x2="79.02" y2="53.35" xlink:href="#名称未設定グラデーション_59"/><linearGradient id="名称未設定グラデーション_59-68" x1="99.46" y1="31.33" x2="99.72" y2="31.33" xlink:href="#名称未設定グラデーション_59"/><linearGradient id="名称未設定グラデーション_59-69" x1="105.53" y1="25.64" x2="105.83" y2="25.64" xlink:href="#名称未設定グラデーション_59"/><linearGradient id="名称未設定グラデーション_59-70" x1="77.07" y1="54.99" x2="77.31" y2="54.99" xlink:href="#名称未設定グラデーション_59"/><linearGradient id="名称未設定グラデーション_59-71" x1="101.41" y1="29.26" x2="101.81" y2="29.26" xlink:href="#名称未設定グラデーション_59"/><linearGradient id="名称未設定グラデーション_59-72" x1="76.63" y1="55.38" x2="77" y2="55.38" xlink:href="#名称未設定グラデーション_59"/><linearGradient id="名称未設定グラデーション_59-73" x1="102.71" y1="27.95" x2="103.16" y2="27.95" xlink:href="#名称未設定グラデーション_59"/><linearGradient id="名称未設定グラデーション_59-74" x1="82.74" y1="48.71" x2="83.12" y2="48.71" xlink:href="#名称未設定グラデーション_59"/><linearGradient id="名称未設定グラデーション_59-75" x1="100.64" y1="28.88" x2="100.99" y2="28.88" xlink:href="#名称未設定グラデーション_59"/><linearGradient id="名称未設定グラデーション_59-76" x1="99.53" y1="28.28" x2="100.57" y2="28.28" xlink:href="#名称未設定グラデーション_59"/><linearGradient id="名称未設定グラデーション_59-77" x1="92.14" y1="38.1" x2="92.57" y2="38.1" xlink:href="#名称未設定グラデーション_59"/><linearGradient id="名称未設定グラデーション_59-78" x1="99.54" y1="27.22" x2="100.02" y2="27.22" xlink:href="#名称未設定グラデーション_59"/><linearGradient id="名称未設定グラデーション_59-79" x1="98.63" y1="28.89" x2="98.84" y2="28.89" xlink:href="#名称未設定グラデーション_59"/><linearGradient id="名称未設定グラデーション_59-80" x1="99.79" y1="27.71" x2="100.12" y2="27.71" xlink:href="#名称未設定グラデーション_59"/><linearGradient id="名称未設定グラデーション_59-81" x1="103.03" y1="23.1" x2="103.32" y2="23.1" xlink:href="#名称未設定グラデーション_59"/><linearGradient id="名称未設定グラデーション_59-82" x1="101.88" y1="24.3" x2="102.24" y2="24.3" xlink:href="#名称未設定グラデーション_59"/><linearGradient id="名称未設定グラデーション_59-83" x1="101.03" y1="26.96" x2="101.31" y2="26.96" xlink:href="#名称未設定グラデーション_59"/><linearGradient id="名称未設定グラデーション_59-84" x1="89.12" y1="42.02" x2="89.12" y2="42.02" xlink:href="#名称未設定グラデーション_59"/><linearGradient id="名称未設定グラデーション_59-85" x1="100.65" y1="27.4" x2="100.96" y2="27.4" xlink:href="#名称未設定グラデーション_59"/><linearGradient id="名称未設定グラデーション_59-86" x1="99.18" y1="30.55" x2="99.4" y2="30.55" xlink:href="#名称未設定グラデーション_59"/><linearGradient id="名称未設定グラデーション_59-87" x1="96.56" y1="33.31" x2="96.99" y2="33.31" xlink:href="#名称未設定グラデーション_59"/><linearGradient id="名称未設定グラデーション_59-88" x1="97.4" y1="30.91" x2="97.89" y2="30.91" xlink:href="#名称未設定グラデーション_59"/><linearGradient id="名称未設定グラデーション_59-89" x1="95.74" y1="34.33" x2="95.94" y2="34.33" xlink:href="#名称未設定グラデーション_59"/><linearGradient id="名称未設定グラデーション_59-90" x1="97.8" y1="29.16" x2="98.05" y2="29.16" xlink:href="#名称未設定グラデーション_59"/><linearGradient id="名称未設定グラデーション_59-91" x1="98.2" y1="29.6" x2="99.26" y2="29.6" xlink:href="#名称未設定グラデーション_59"/><linearGradient id="名称未設定グラデーション_59-92" x1="97.99" y1="30.22" x2="98.35" y2="30.22" xlink:href="#名称未設定グラデーション_59"/><linearGradient id="名称未設定グラデーション_59-93" x1="92.82" y1="31.4" x2="93.02" y2="31.4" xlink:href="#名称未設定グラデーション_59"/><linearGradient id="名称未設定グラデーション_59-94" x1="22.54" y1="52.7" x2="104.92" y2="52.7" xlink:href="#名称未設定グラデーション_59"/><linearGradient id="名称未設定グラデーション_116" x1="22.57" y1="49.52" x2="92.09" y2="49.52" gradientUnits="userSpaceOnUse"><stop offset="0" stop-color="#bec7cb"/><stop offset="1" stop-color="#e3e8ea"/></linearGradient></defs><g id="レイヤー_2" data-name="レイヤー 2"><g id="レイヤー_1-2" data-name="レイヤー 1"><rect class="cls-1" width="111.18" height="90"/><path class="cls-2" d="M66.11,55.27l-.61-8.42L62.83,9.64H55.54l-7.65,5.09L45.05,55.27h0L55.59,66.12Zm-14-2.16L53,15.9l2.58-1.79h2.54l1,39-3.45,3.35Z"/><polygon class="cls-2" points="40.39 9.64 38.52 22.34 37.38 9.64 32.52 9.64 26.58 36.25 31.76 41.59 33.98 29.01 35.18 45.11 41.11 51.22 44.98 12.27 49.1 9.64 40.39 9.64"/><polygon class="cls-2" points="85.1 5.29 25.96 5.29 15.86 39 55.59 84.69 55.59 84.69 22.54 37.29 29.95 7.94 81.12 7.94 85.97 27.01 74.86 37.77 71.08 12.27 74.54 9.64 65.83 9.64 70.03 51.22 92.09 28.46 92.09 28.46 85.1 5.29"/><path class="cls-3" d="M98.31,35.53a1.42,1.42,0,0,0-.38.55C98.05,35.9,98.33,35.62,98.31,35.53Z"/><path class="cls-4" d="M99.05,34.85c-.07,0-.13.08-.11,0a.87.87,0,0,0-.15.25c.11-.09.2-.2.31-.3S99.07,34.82,99.05,34.85Z"/><path class="cls-5" d="M81.94,52.11l.06-.06,0,0S82,52.1,81.94,52.11Z"/><path class="cls-6" d="M81.94,52.11c-.06.08-.13.14-.19.22S81.9,52.23,81.94,52.11Z"/><path class="cls-7" d="M106.79,18.63c.1-.13.26-.18.33-.35A.75.75,0,0,0,106.79,18.63Z"/><path class="cls-8" d="M106.61,19.1c.11-.11.27-.16.32-.36C106.84,18.88,106.68,18.93,106.61,19.1Z"/><path class="cls-9" d="M94.91,29.24c0-.24.5-.55.67-.88-.49.51-.89,1-1.29,1.45-.05.15.12-.11.18-.11A1.3,1.3,0,0,1,94.91,29.24Z"/><path class="cls-10" d="M55.69,72.81h0l0-.06Z"/><path class="cls-11" d="M108.83,16.62a9,9,0,0,1-1,1c-.1.23-.16.26-.26.28s.07,0,0,.05-.08,0-.23.14c0,.1-.06.18-.16.5a2,2,0,0,0,.34-.53c.16,0,.23-.22.33-.35.32-.14.62-.62.78-.71s-.25.11-.32.19c.1-.23.32-.28.41-.52.07,0-.07.19.1.06s.11-.15.15-.25C108.77,16.81,109,16.09,108.83,16.62Z"/><path class="cls-12" d="M89.23,35.46l.75-.85A3.69,3.69,0,0,0,89.23,35.46Z"/><path class="cls-13" d="M103.46,22l-.18.1a.18.18,0,0,1-.07.17C103.18,22.38,103.44,22.14,103.46,22Z"/><path class="cls-14" d="M101.2,22.78l.1-.22c-.13.16-.17.12-.27.16S101.07,22.85,101.2,22.78Z"/><path class="cls-15" d="M104,21.52c0-.11-.26.17-.28.32C103.81,21.8,103.82,21.57,104,21.52Z"/><path class="cls-16" d="M105.37,19.71a3.54,3.54,0,0,0-.56.65c.15-.12.08,0,.2-.07S105.25,19.94,105.37,19.71Z"/><path class="cls-17" d="M101.82,22l-.18.1c0,.14-.13.19-.18.31A.81.81,0,0,0,101.82,22Z"/><path class="cls-18" d="M99.94,24.09a1.4,1.4,0,0,0,.34-.44C100.13,23.75,100.06,24,99.94,24.09Z"/><path class="cls-19" d="M88.85,42.26c0,.21.15-.16.27-.24A1.55,1.55,0,0,0,88.85,42.26Z"/><path class="cls-20" d="M96.44,27.49a1.66,1.66,0,0,0,.26-.36C96.57,27.21,96.4,27.43,96.44,27.49Z"/><path class="cls-21" d="M99.23,25c-.06-.07,0-.11.15-.33,0,0,.05,0,.11,0a.73.73,0,0,1,.29-.33c.06-.14.13-.27.1-.3s-.14.19-.11.1-.11.21-.17.31a.9.9,0,0,0-.39.27c.08.11-.16.38-.33.63A1.36,1.36,0,0,1,99.23,25Z"/><path class="cls-22" d="M88.61,41.64l-.18.11a.13.13,0,0,1-.05.11C88.34,42,88.59,41.75,88.61,41.64Z"/><path class="cls-23" d="M92.06,33.21c0-.15.14-.25.11-.3s-.06.14-.1.22,0,0-.18.11a1.78,1.78,0,0,1-.55.68,1,1,0,0,1,0,.17A4.52,4.52,0,0,1,92.06,33.21Z"/><path class="cls-24" d="M93,32.62c.12-.2,0-.13,0-.22a4.15,4.15,0,0,0-.32.27c-.07.16.13,0,.22-.13s-.1.21-.14.25S92.91,32.62,93,32.62Z"/><path class="cls-25" d="M92.53,33.06c0-.1-.3.3-.44.38S92.41,33.21,92.53,33.06Z"/><path class="cls-26" d="M91.13,34.53s.25-.1.32-.27S91.19,34.34,91.13,34.53Z"/><path class="cls-27" d="M94.44,30.4c0,.12.22-.23.31-.3S94.53,30.33,94.44,30.4Z"/><path class="cls-28" d="M94,31.45c0,.15.09,0,.2-.08a.46.46,0,0,0,.06-.19c-.07.05-.1.16-.15.24S94,31.41,94,31.45Z"/><path class="cls-29" d="M97.78,27.78c0-.16.22-.29.11-.31-.17.16-.1.2-.27.44A.65.65,0,0,1,97.78,27.78Z"/><path class="cls-30" d="M95,30.44c0-.11,0-.15-.08-.11s-.25.29-.19.35S94.85,30.46,95,30.44Z"/><path class="cls-31" d="M90.71,35c0,.12.14-.2.25-.19s0,0,0-.11A1.4,1.4,0,0,0,90.71,35Z"/><path class="cls-32" d="M88.68,37.15c.25-.21,0,.16.24,0-.07-.1.19-.26.26-.44C88.94,36.93,88.81,36.87,88.68,37.15Z"/><path class="cls-33" d="M85.22,41.08c.06,0,0,.15.13,0s.12-.17.11-.22.06,0,.15,0a3.08,3.08,0,0,1,.61-.68c-.12-.08-.39.41-.62.48a.61.61,0,0,1-.37.38,5.5,5.5,0,0,0-.32.55l.23-.21c.08-.14,0,0,0-.11S85.2,41.13,85.22,41.08Z"/><path class="cls-34" d="M86.74,39.5c.11-.06.13-.24.26-.27-.08,0,.1-.28-.12-.18a1.45,1.45,0,0,1-.26.36c-.05.12.15-.13.2-.16S86.65,39.49,86.74,39.5Z"/><path class="cls-35" d="M103.58,26.59c0-.09,0-.08-.15,0s0,.13,0,.22C103.46,26.72,103.51,26.64,103.58,26.59Z"/><path class="cls-36" d="M103.9,26c-.14.1-.3.17-.37.38A1.67,1.67,0,0,0,103.9,26Z"/><path class="cls-37" d="M89.7,36.14c.32-.39.6-.42.73-.88-.06.06-.11.12-.09.06C90.16,35.64,89.88,35.81,89.7,36.14Z"/><path class="cls-38" d="M86.15,39.93c-.2.14-.29.44-.52.54-.07.19.13-.07.09,0C85.86,40.31,86,40.14,86.15,39.93Z"/><path class="cls-39" d="M81.69,52.52c0,.09.08,0,0,.22C81.83,52.57,82,52.23,81.69,52.52Z"/><path class="cls-40" d="M89.51,36.41a.41.41,0,0,1,.12-.19c0-.15-.12.11-.18.11.13,0-.12.15-.2.36C89.38,36.67,89.37,36.43,89.51,36.41Z"/><path class="cls-41" d="M88,38.08c-.19.1-.29.32-.45.46s0-.08,0-.22c-.27.25-.16.37-.51.74.12,0,.1-.06.27-.16s-.06.05-.15.05A9.48,9.48,0,0,0,88,38.08Z"/><path class="cls-42" d="M93.45,40.46c.14-.22-.13,0,0-.17-.16.14-.31.12-.46.43C93.12,40.79,93.4,40.29,93.45,40.46Z"/><path class="cls-43" d="M95,38.76c0-.17.25-.32.37-.57-.19.13-.3.36-.51.46,0,.1.07,0,.1.06s-.27.26-.22.33S94.83,38.8,95,38.76Z"/><path class="cls-44" d="M95,38.9c.17-.13.24-.4.43-.49,0-.1-.54.43-.66.71C94.81,39.07,95,38.76,95,38.9Z"/><path class="cls-45" d="M91.39,42.44a1.44,1.44,0,0,0-.36.41A1.59,1.59,0,0,0,91.39,42.44Z"/><path class="cls-46" d="M92.81,41.19a2.76,2.76,0,0,1,.5-.57C93.25,40.56,92.77,41.08,92.81,41.19Z"/><path class="cls-47" d="M89.94,44l.1-.22c-.1.07-.16.2-.26.27S89.87,44.05,89.94,44Z"/><path class="cls-48" d="M87.87,46.37c-.2.19-.49.46-.5.66C87.53,46.79,87.76,46.68,87.87,46.37Z"/><path class="cls-49" d="M87.27,46.89c0-.06-.07,0,0-.06a3,3,0,0,0-.33.44A4.44,4.44,0,0,1,87.27,46.89Z"/><path class="cls-50" d="M86.7,47.71a1.62,1.62,0,0,1,.18-.19c.11-.19-.07,0,0-.22A2,2,0,0,0,86.7,47.71Z"/><path class="cls-51" d="M84.45,49.88c-.22.18,0,.19-.13.28C84.37,50.26,84.53,49.85,84.45,49.88Z"/><path class="cls-52" d="M88,45.87c-.09,0-.42.43-.6.6s.26-.26.2-.08A1.76,1.76,0,0,1,88,45.87Z"/><path class="cls-53" d="M86.38,47.62a.48.48,0,0,0,.08-.34C86.18,47.67,86.07,47.71,86.38,47.62Z"/><path class="cls-54" d="M87.47,46.53c-.17.16-.08.24,0,.19S87.47,46.6,87.47,46.53Z"/><path class="cls-55" d="M88.79,45.5c-.07-.17.24-.24.47-.52,0,0,0-.1.13-.19,0,0-.33.32-.47.44,0-.13-.35.14-.47.23C88.52,45.53,88.67,45.5,88.79,45.5Z"/><path class="cls-56" d="M88.11,46.07c0,.07.09,0,.15,0a.77.77,0,0,1,.28-.33c.12-.2-.05,0-.09.05s-.09,0-.08,0-.12.14-.19.19C88.27,45.85,88.38,45.89,88.11,46.07Z"/><path class="cls-57" d="M89.24,44.76c0,.08.27-.15.3-.3C89.41,44.52,89.35,44.68,89.24,44.76Z"/><path class="cls-58" d="M82.18,52.31a.36.36,0,0,1,.1-.14c.1-.09,0-.05,0,0s0-.07,0-.17C82.12,52.15,82,52.42,82.18,52.31Z"/><path class="cls-59" d="M101.17,25.69c0,.09.25-.2.37-.22C101.6,25.29,101.3,25.59,101.17,25.69Z"/><path class="cls-60" d="M85,46.38c.08-.06,0-.08.09-.14s-.15.13-.2.16,0,.1-.08.17,0,0,0,0l.09-.06C84.82,46.57,85,46.24,85,46.38Z"/><path class="cls-61" d="M82.57,49.19c-.07,0-.13.09-.11,0s-.1.16-.15.24l.23-.13c0-.13.13-.18.17-.3A.25.25,0,0,0,82.57,49.19Z"/><path class="cls-62" d="M106.05,19.67s.09-.08.22-.13,0-.07,0-.11S106.08,19.55,106.05,19.67Z"/><path class="cls-63" d="M88,42.94c-.09.17.07.1.17,0s-.13.05,0-.16C88.1,42.82,88,42.85,88,42.94Z"/><path class="cls-64" d="M104,26.1c0-.11-.22.16-.25.27C103.88,26.35,103.91,26.17,104,26.1Z"/><path class="cls-65" d="M105.65,19.83c.08,0,.13-.11.2-.16s0-.09.06-.2C105.77,19.57,105.8,19.62,105.65,19.83Z"/><path class="cls-66" d="M80.32,51.37a1.55,1.55,0,0,0,.35-.41A1,1,0,0,0,80.32,51.37Z"/><path class="cls-67" d="M81.71,49.7a1.08,1.08,0,0,0-.26.36A.62.62,0,0,0,81.71,49.7Z"/><path class="cls-68" d="M105.38,26a2,2,0,0,0-.39.63A3.94,3.94,0,0,0,105.38,26Z"/><path class="cls-69" d="M78.85,52.84a8.34,8.34,0,0,0-.72,1.07,11.65,11.65,0,0,0,.74-1s0,.08,0,.14C79.11,52.86,79,52.74,78.85,52.84Z"/><path class="cls-70" d="M99.54,31.51c.1-.2.17-.25.18-.39C99.54,31.3,99.34,31.61,99.54,31.51Z"/><path class="cls-71" d="M105.67,25.75c0-.05.1-.16.16-.33a1,1,0,0,0-.29.41C105.52,25.9,105.61,25.77,105.67,25.75Z"/><path class="cls-72" d="M77.07,55.14a1.76,1.76,0,0,0,.24-.3l-.18.1C77.08,55,77.13,55,77.07,55.14Z"/><path class="cls-73" d="M101.81,29c-.16.13-.18.22-.29.22s0,0,.06,0-.14.17-.17.3A1.34,1.34,0,0,0,101.81,29Z"/><path class="cls-74" d="M76.63,55.6c.17-.07.25-.26.37-.38s-.07,0,0-.06,0,.07,0,.06C76.86,55.39,76.67,55.39,76.63,55.6Z"/><path class="cls-75" d="M102.71,28.19c.13-.18.34-.25.45-.47A1.2,1.2,0,0,0,102.71,28.19Z"/><path class="cls-76" d="M83,48.48c0,.05,0,0,0,0s-.11.09-.16.13,0,.15-.13.28.2-.21.11,0C83,48.76,83.27,48.32,83,48.48Z"/><path class="cls-77" d="M100.72,29.08c.06-.2.19-.28.27-.44C100.84,28.72,100.47,29.23,100.72,29.08Z"/><path class="cls-78" d="M99.76,28.61c.16-.12.09,0,.23-.13,0-.08.16-.3.25-.47s.19-.15.29-.22-.12.05,0-.16c0,0-.05,0-.07.08-.33.25-.56.65-.88.93-.13.22,0,.15,0,.3C99.73,28.8,99.64,28.75,99.76,28.61Z"/><path class="cls-79" d="M92.57,37.81a1.94,1.94,0,0,0-.43.57C92.27,38.19,92.59,37.92,92.57,37.81Z"/><path class="cls-80" d="M99.54,27.46A4.68,4.68,0,0,1,100,27c.1-.17-.23.16-.13,0A2.11,2.11,0,0,0,99.54,27.46Z"/><path class="cls-81" d="M98.68,29s0,.1.08,0,.09-.2.08-.24-.11.2-.21.24S98.66,29,98.68,29Z"/><path class="cls-82" d="M100.12,27.56a1.06,1.06,0,0,0-.33.27C99.78,27.92,100.09,27.71,100.12,27.56Z"/><path class="cls-83" d="M103.31,22.89a1.29,1.29,0,0,0-.28.42C103.14,23.19,103.36,23,103.31,22.89Z"/><path class="cls-84" d="M102.24,24.1c-.13.12-.29.19-.36.41A1.59,1.59,0,0,0,102.24,24.1Z"/><path class="cls-85" d="M101.21,27l.1-.22c-.1,0-.15.15-.25.19S101.08,27.12,101.21,27Z"/><polygon class="cls-86" points="89.12 42.02 89.12 42.02 89.12 42.02 89.12 42.02"/><path class="cls-87" d="M100.94,27.27c.13-.18-.23.25-.27.16,0,.11,0,.1,0,.14C100.88,27.44,100.75,27.41,100.94,27.27Z"/><path class="cls-88" d="M99.4,30.39c-.12,0-.15.21-.22.33a1.07,1.07,0,0,1,.16-.14S99.35,30.49,99.4,30.39Z"/><path class="cls-89" d="M96.62,33.36a2,2,0,0,1-.06.28A4.65,4.65,0,0,0,97,33C96.84,33.23,96.82,33.13,96.62,33.36Z"/><path class="cls-90" d="M97.89,30.6c-.08-.05-.4.33-.49.57.09-.06.06,0,0,.06C97.65,31.11,97.7,30.75,97.89,30.6Z"/><path class="cls-91" d="M95.75,34.32c0,.1,0,.09,0,.14a.87.87,0,0,0,.15-.25C95.8,34.35,95.88,34.24,95.75,34.32Z"/><path class="cls-92" d="M98,29.12c.06-.12,0-.15-.06-.08s0,.15-.15.25S98,29.15,98,29.12Z"/><path class="cls-93" d="M99.26,28.91A14.17,14.17,0,0,0,98.2,30.3c.07,0,.16-.16.13-.08.17-.15.08-.13.22-.33,0,.11.54-.6.44-.38C99.11,29.46,99.25,29.05,99.26,28.91Z"/><path class="cls-94" d="M98.35,30a2.58,2.58,0,0,0-.36.49C98.16,30.38,98.23,30.14,98.35,30Z"/><path class="cls-95" d="M93,31.28l-.2.24C92.87,31.47,93,31.37,93,31.28Z"/><path class="cls-96" d="M104.45,27.12c-.15.05,0-.15-.31.1.14-.33.27-.3.33-.36.09-.23-.18.12-.22.05a.36.36,0,0,1-.21.25c-.06.16-.16.22-.13.28.14-.11.21-.26.23-.14s-.21.13-.26.27,0-.18-.17,0c.14,0-.16.18-.29.33s0-.12.06-.2c-.1.12-.39.29-.53.52-.22,0-.38.36-.57.37-.16.24-.1.27-.29.5-.06,0,0-.12,0-.19-.21.08-.33.32-.51.46,0,.1,0,.07.11,0,0,.19-.25.29-.19.36s-.11,0-.18.11,0-.06,0-.2c-.22.17-.36.46-.62.57,0,.23-.31.24-.38.55,0-.13-.18.14-.25.11a1.18,1.18,0,0,1,.42-.41c0-.25.43-.54.7-.74,0-.05,0-.11.09-.33-.25.53-1.16,1-1.31,1.61a7,7,0,0,1-.7.74c0,.1,0,.08.11,0l-.15.34a.66.66,0,0,1-.23.21c.07-.17.21-.24.27-.44-.13.09-.24.22-.37.3l-.1.22a1.7,1.7,0,0,1-.19.19c-.09,0,0-.08,0-.22-.28.28,0,.3-.36.58,0,0,0,.08.08,0a.88.88,0,0,1-.19.27c0-.28-.52.32-.75.48.18-.27.76-.79.67-.87.21-.25.45-.45.65-.71,0-.11-.27.27-.39.35.14-.23.16-.2.22-.41.18,0,.22-.23.38-.19.14-.25,0-.21-.07-.19.12-.19.19-.1.27-.16a3.07,3.07,0,0,0,.2-.36c.15-.12.08,0,.2-.08.11-.25.09-.11.26-.27s.32-.39.45-.63,0,.08.11.06c-.16.22-.53.52-.41.6a3.68,3.68,0,0,0,.24-.39s0,0,.11,0c.11-.24.14-.28.31-.38.16-.29-.1-.08.06-.37,0-.05.08-.08.1-.13s.06.06.08.11.19-.21.32-.27,0-.08,0-.06c.19-.28.49-.39.62-.76a10.55,10.55,0,0,1,1-1.06c.07-.21.23-.3.34-.44s-.07-.08,0-.25a1.42,1.42,0,0,1-.36.21c0,.16,0,.07-.06.28s-.33.32-.43.57c-.12.06.08-.28.07-.36s-.34.42-.37.3c-.25.25-.41.63-.72.79.11-.21.27-.35.38-.55a.92.92,0,0,1-.32.27c0,.11,0,.14-.14.17-.2.41-.58.57-.82.92-.16.14,0-.07,0-.16-.13.05-.19.22-.3.3a.56.56,0,0,0,.35-.13s0,.06,0,.11a3.31,3.31,0,0,1-.26.27c-.06,0,0-.15-.13,0s0,.13-.06.19-.1.09-.14.17,0-.12,0-.17.25-.2.31-.38c-1.14,1.2-2.23,2.48-3.39,3.65,0,.2-.38.55-.51.54,0,.15.12.08.09.23s-.24.13-.42.41c0,0,0-.08,0-.14a6.21,6.21,0,0,1-.52.63c.11-.4-.48.4-.84.62-.12.19.06,0,.13,0a3.12,3.12,0,0,1-.46.44c0,.07.12-.06.08,0a.66.66,0,0,1-.23.21s0,.12-.08.25-.16.06-.28.33c-.08,0-.06,0,0-.17a5.32,5.32,0,0,0-.91,1s-.06,0,0-.12c-.27.47-.65.77-1,1.21,0,0,0,0,0-.06a1.85,1.85,0,0,0-.32.55c-.14.1-.16.07-.06-.08a8.37,8.37,0,0,0-1.25,1.5c-.16.12,0-.1-.18,0,0-.11.16-.14.19-.27a10.31,10.31,0,0,1-1.13,1.39c0,.13.31-.28.15,0a2.35,2.35,0,0,0-.28.25,2,2,0,0,1-.36.49.37.37,0,0,1,0-.22,10,10,0,0,1-1,1.26s0-.1,0-.06-.12.12-.2.16a1.44,1.44,0,0,1-.16.33s-.08,0-.2.08a5.27,5.27,0,0,1-.52.63c-.1.06.08-.18.12-.19-.19.07-.42.52-.46.71-.21.18-.07-.05,0-.19a9.41,9.41,0,0,1-.7.93c-.09.07.05-.21.13-.19-.09,0-.24.12-.42.32.06-.07.2-.27,0-.14.05-.1.16-.13.19-.27-.16.08-.24.27-.38.38.08,0,0,.16-.12.27s.07,0,.13-.08a2.54,2.54,0,0,0-.34.61c-.2.16,0-.17-.15,0s-.25.37-.2.44a9.82,9.82,0,0,0-.87,1s.08,0,0,.23,0-.23-.31.1c.06-.17.18-.24.26-.36s-.31.4-.46.52.07,0,0,.11-.2.22-.34.25,0,.11-.11.3-.29.12-.4.44c-.12.08,0,0-.2.08a1,1,0,0,1,.24-.31,25.64,25.64,0,0,0-2,2.3s0-.14.06-.28c-.14.13-.24.33-.4.44s0,.13,0,.14a5.26,5.26,0,0,0-1.16,1.45c-.15.05.08-.2,0-.23-.23.26-.27.33-.46.52,0,.07,0,0,0,.11-.21.3-.72.59-.75.85-.11.06-.09,0-.25.11s-.15.33-.3.38c-.06.33-.63.67-.84,1.09,0-.06-.17.1-.13,0a1.38,1.38,0,0,1-.54.6.87.87,0,0,1-.17.3.15.15,0,0,0-.11,0c0,.08-.19.3-.14.16a2.18,2.18,0,0,1-.49.58c.08,0,0,.12-.13.27s0-.08,0-.14c-.19.19-.35.42-.54.6.09-.22.19-.2.2-.35a1.57,1.57,0,0,0-.33.35s0-.12.06-.19.32-.21.4-.44c-.15.2-.16,0-.3.22-.09,0,0-.18.15-.34s0,.1,0,.14a.5.5,0,0,0,.19-.35,1.37,1.37,0,0,1,.38-.38c-.27.29-.13.31-.34.52,0,.13.24-.24.06.08s0-.12-.14.08,0,.06.13,0a.54.54,0,0,1-.14.16c.19-.13.59-.74.89-1-.13,0,.12-.17.08-.25a4.78,4.78,0,0,0-.45.63c-.22-.09.4-.7.54-1,.31-.23.11.12.33,0-.06-.11.25-.25.31-.47-.1.14-.43.47-.39.27.27-.14.15-.26.47-.52s0,.13.2,0l.12-.28c-.06,0-.13.09-.11,0,.28-.46.63-.81.93-1.24-.15.06-.22.23-.35.33.17-.28.5-.73.66-.71a.92.92,0,0,0-.24.38c0,.1.18-.18.15,0,.21-.27.32-.6.57-.65a.6.6,0,0,1,.23-.3s0-.14,0-.12c.29-.25.67-.87.89-.92l.43-.58s0,.06,0,.11c.15-.12.05-.16.13-.27s.12,0,.09.14c.18-.16.36-.42.49-.41s-.17,0,0-.25c-.25.22,0,.22-.31.47-.09,0-.06-.1.06-.28.25-.34.62-.52.86-.87.16,0-.08.18-.15.33a1.37,1.37,0,0,0,.33-.44s0,0-.11,0c.08-.13.15-.12.12-.19.24-.18.34-.56.63-.66,0-.09.27-.44.35-.41a1.86,1.86,0,0,1,.62-.85c.06-.09,0-.07,0-.14.21-.16.39-.44.45-.35l.18-.38c.27-.24,0,.17.17.06a1.45,1.45,0,0,1,.45-.55c0-.07.1-.29.11-.39s-.09.31.12.17c-.1-.14.36-.66.62-.85s.08-.29.29-.49c0,.06-.06.27.13,0,.07,0,0,.16-.08.33,0,0,0,0,.07-.08l.09-.05c.08-.17,0-.11.06-.28s.21-.11.43-.3.28-.27.38-.46a1,1,0,0,0-.44.46s-.13,0-.25.11c.16-.16.1-.21.33-.36s-.13,0,0-.16a5.82,5.82,0,0,0,.79-.79c0-.09-.24.19-.3.3-.13-.06.23-.45.41-.61s-.25.29-.1.22.1-.21.3-.38c-.11.38.53-.65.86-.79,0-.15.28-.49.42-.77.07.15.56-.62.62-.76s.13-.09.11,0c0-.11.2-.23.31-.47.19,0,.25-.28.47-.6.08,0,0,.11.18,0,.38-.59.67-.79,1.09-1.37.08,0,0,.12.15-.05-.07-.12.21-.33.37-.38-.13,0,.06-.33.28-.53.11,0-.22.26-.13.28s.13-.12.21-.16-.09,0,0-.2-.06.16,0,.12c.25-.23.29-.35.24-.39.16-.23.06.09.23-.13-.08,0,.06-.25.2-.44.12,0,.11-.13.3-.22-.05-.06.14-.26.26-.36s-.06.11,0,.12c0-.16.62-.7.44-.75.16-.11.2-.38.36-.49s-.08.18-.13.36c.14-.13.25-.31.4-.44-.07-.24.47-.71.58-.9,0,.06-.13.28-.18.38s-.06,0,0-.05c-.18.15-.08.17-.24.38.25-.25.29-.34.57-.46.12-.2-.06,0,0-.14a15.67,15.67,0,0,0,1.36-1.53c0-.06.25-.39.11-.3.13-.28.39-.35.31-.47.13-.08,0,.09.08.12s-.14.11-.21.16.15,0-.06.28a3.26,3.26,0,0,0,.36-.58s.05,0,.11,0-.09.06-.1,0,.23-.23.29-.42c-.59.56-1.14,1.19-1.68,1.8-.18.16,0-.16-.13,0s-.07.14-.13.28,0-.22.09-.42a7.13,7.13,0,0,0,1.06-1.15c.1-.12.25-.19.34-.32-.14.05-.11,0,.12-.19s0-.06,0-.17c.34-.2.34-.36.58-.63.12-.09,0,0,.2-.08-.06,0,0-.21.2-.36s-.14.27.06.09a.25.25,0,0,1,.14-.16.42.42,0,0,1,0-.2,6.74,6.74,0,0,1,.79-.7c0-.19.25-.25.36-.5.11,0-.13.18-.13.28a2.83,2.83,0,0,1,.4-.44c.06-.09.08-.25.17-.3-.1,0,0-.06.09-.33-.26.33-.44.37-.61.68-.18.09,0-.15-.11-.06s-.09.26,0,.25a3.78,3.78,0,0,0-.22.33c-.07-.08-.27.23-.37.38s.11-.23.09-.33a.49.49,0,0,0-.18.3,1.33,1.33,0,0,0-.41.33s-.06.21-.13.36c-.08,0-.06-.11-.24,0s-.19.21-.28.33c0-.08-.1,0-.11-.06A15.64,15.64,0,0,1,96,31.67c-.15.34-.44.46-.61.77-.48.28-.85,1.13-1.24,1.25,0,.13-.13.18-.17.3a2.62,2.62,0,0,0-.34.24c.12-.2.28-.28.27-.44,0,.15.11-.06.25-.19s-.08,0-.18.11a2.61,2.61,0,0,1,.47-.6c.09,0-.12.23-.19.27.11,0,.42-.49.61-.68-.12,0-.15.2-.27.25.33-.36.4-.58.69-.94.12-.08-.19.34,0,.15l.1-.23a4.94,4.94,0,0,0,.86-1.06c-.15.31.17-.1.36-.3,0-.06.06-.2-.08,0,.17-.39.32-.27.47-.6.13-.08.11,0,.13.08a.63.63,0,0,0,.17-.38c.13-.21.49-.4.45-.55s.33-.31.3-.21a3.55,3.55,0,0,1,.83-1,1.27,1.27,0,0,0-.25.47l.41-.32c.09-.14-.18,0,0-.12,0-.14-.16.19-.22.25s.28-.6.53-.71c.24-.27.34-.73.65-.91l.1-.22c.14-.11,0,.07.06.09.15-.14.22-.42.4-.52s-.11.19-.13.27a4.59,4.59,0,0,1,1-1.17,1.6,1.6,0,0,0,.31-.47c-.1.08-.14.08-.09,0,.2-.09.51-.63.82-.84a.71.71,0,0,1-.22.33,5.35,5.35,0,0,0,.68-.68c.11-.26-.13.14-.23.13.09-.18.24-.27.31-.46,0,0-.06,0,0-.12-.12.07-.13.15-.18.11a1.22,1.22,0,0,0,.12-.19c.26-.1.29-.19.55-.41-.07.21-.26.23-.33.44.12,0,.17-.17.29-.21-.11,0,.18-.4.32-.55s0,.07,0,.13c.14,0,.19-.21.32-.27s-.14.06-.13,0c.21-.34.51-.55.73-.87,0-.08-.17.22-.3.29s0,0-.06,0a2.13,2.13,0,0,0,.38-.55c-.07-.06-.22.16-.24.31-.19.15.1-.27-.13,0,.08-.17.32-.47.09-.33s-.11.19,0,.11a.46.46,0,0,1-.17.14c-.11.18,0,.17-.1.3a4.75,4.75,0,0,0-.62.77c-.36.15-.53.58-.81.84-.07-.13.36-.5.32-.63a11.69,11.69,0,0,0-1,1.28.52.52,0,0,0-.37.38c-.14.05-.14-.07,0-.27-.09,0-.12.14-.19.19.1,0-.09.27.1.14-.3.21-.47.6-.73.87l.51-.82c-.18,0-.49.64-.69.93-.07-.05-.3.25-.42.41s.07,0,0,.05a1.7,1.7,0,0,1-.1.14s0-.1-.08,0c-.3.34-.55.74-.83,1.1,0,0,0,0-.07,0,.29-.4.36-.57.63-.94-.29.23-.5.57-.77.82,0,.15.12-.11.18-.11a1.18,1.18,0,0,1-.15.25c-.19.15-.13-.06-.29.13s0,.09-.06.2.07-.09.1-.14.17.07.18-.11c.26-.16,0,.16-.11.31.15-.25-.23.18-.15,0-.11.08-.13.29-.24.38s.08-.26.18-.39-.14,0-.08-.11c-.15.11-.24.33-.4.44,0-.07.11-.21.14-.36-.19.06-.24.33-.42.4s.17-.16.27-.16a2.88,2.88,0,0,1-.33.36c.2-.13.14,0,.14.11s-.07.09-.09.14c-.18.16,0-.16-.13,0s-1,1.16-1,1c-.06.16-.2.27-.15.33-.22.17-.12,0-.27.08.19-.19.33-.46.52-.63a3.8,3.8,0,0,0-.77.81c-.09.06,0-.11-.13,0a1.44,1.44,0,0,1-.52.63c0,.09-.12.26,0,.22-.15.06-.21.31-.44.47.18,0-.26.38-.2.44-.29.25.08-.26-.13-.09a.9.9,0,0,1-.29.41s0-.09,0-.14c.34-.46.73-.81.95-1.2-.12,0-.14.22-.28.24-.34.7-1,1-1.34,1.64-.55.38-1.26,1.48-1.58,1.58l-.45.47c0,.19-.29.39-.45.62,0,0,0-.09-.09,0S91.06,35,91,35c-.33.53-.81.86-1.16,1.36.14-.09,0,.17-.08.25s.1-.23,0-.22a8.49,8.49,0,0,0-1,1.17c-.07-.11-.47.34-.49.49s-.15.15-.25.19c-.07.36-.95,1-1.26,1.59-.42.21-.81,1.13-1.17,1.25a2.33,2.33,0,0,0,.31-.38c-.13,0-.41.54-.7.82-.13.12-.59.5-.54.6s-.17.12-.25.19c-.21.34-.49.58-.7.93s-.94,1-1.4,1.56Q75.09,52.91,68,61.33l-7.13,8.45L55.73,76,49.6,69c-.07-.15,1.22,1.21,1.3,1.25.81,1.11,1.86,2,2.68,3.13.12,0,.16.09.31.23s-.07-.06-.14-.09c.11.19.35.28.42.5s0-.09.17,0a4.34,4.34,0,0,0,.62.88.53.53,0,0,0,.3.22c.07.13.16.32.28.32a.16.16,0,0,1,0,.07c.07,0,.13.1.2.19A.75.75,0,0,0,56,75.3s0,.08.05,0,0,0,0-.06a.69.69,0,0,0,.25-.28l.12-.17c.19-.22.39-.44.61-.65,0-.18.47-.57.67-.8s.48-.74.68-.84a3.74,3.74,0,0,1,.85-1c.14-.21-.13,0,0-.16s.25-.22.18-.11a6.55,6.55,0,0,1,.53-.71c.08-.07.06,0,0,0,.2-.36.48-.6.7-.93.1.07,0,0,.25-.19,0,0,0-.17.12-.27s.08,0,.16,0c.09-.3.54-.57.79-1.07.08-.05.1,0,.08,0,.39-.52,1.37-1.62,1.42-1.81.2-.26.48-.41.62-.76a2.14,2.14,0,0,0,.66-.71l3.9-4.57c.06-.09,0-.06,0-.13s.17-.15.37-.3c.66-.95,1.8-2,2.55-3.12.09,0,.07,0,.16,0a12.16,12.16,0,0,1,1-1.18s-.22,0,.07-.44c.13-.06.08.07.29-.13.08,0-.11.31-.22.33-.08.21.31-.18.23-.22.52-.41.86-1.09,1.38-1.5a1.35,1.35,0,0,1,.61-.68c.06-.11,0-.09,0-.06.44-.42.81-.92,1.24-1.34,0-.06,0,0,0-.11a24.18,24.18,0,0,1,1.85-2c0-.05,0,0-.07,0,.65-.71,1.25-1.5,2-2.15.4-.59,1.19-1.4,1.76-2.05.11-.19-.07,0,0-.22a.47.47,0,0,1,.14-.17c0,.31.49-.44.71-.62,0-.15-.17.17-.25.19s.13-.23.17-.31c.37-.09.76-.75,1.16-1.08.11-.19-.07,0,0-.23s.11-.09.14-.16,0,.12-.06.19a.79.79,0,0,0,.31-.38c.41-.29.3-.37.68-.68,0-.1-.14.06-.13,0s.07-.08.11-.11,0-.08-.11,0c.12-.28.32-.46.44-.74.13-.1.19-.16.2-.08.15-.18.23-.47.41-.6s-.07.18-.08.25c.14-.1.19-.28.13-.28.07-.16.25-.19.32-.35s0,.15.13,0,.61-.95.69-.85a1.94,1.94,0,0,0,.43-.57c.27-.11.46-.58.62-.57.07-.38.72-.67.93-1.15.32-.3.58-.69.91-1,.12-.08-.18.21,0,0,.38-.68,1-1,1.39-1.66-.08,0-.13.12-.21.16s0-.09,0-.06c.22-.23.48-.41.7-.65,0-.08-.08,0-.14.08s.17-.17.17-.3c0,0,.09,0,.18-.11.07-.37.6-.59.81-1,.16-.11.18-.07.08.11.13,0,.19-.21.3-.29S93,32,93,32a1.36,1.36,0,0,1,.24-.39c.07,0,.06,0,0,.17a7.81,7.81,0,0,1,.73-.87c.06,0,0,.15.13,0,0-.31.86-1.08,1-1.43.13,0,.4-.37.22,0,.16-.16.15-.21.13-.27.14-.18.28-.08.44-.38-.11,0-.15.16-.24.22s0-.1,0-.09a6.4,6.4,0,0,0,1-1.25c0,.08.07,0,.24,0s-.1,0-.2,0c.11-.34.43-.37.55-.69s0,.21.14.12,0-.17,0-.28.18-.11.23-.22,0,.12-.06.2c.14-.13.3-.39.2-.36.32-.19.25-.27.5-.38a1.84,1.84,0,0,1,.5-.57c0-.08-.15,0,0-.2l-.23.14c-.13.14,0,.14-.21.24s0,.08,0,.06c-.22.25-.88,1.07-.85.79-.1,0-.11.2-.18.3s-.09-.08,0-.25c-.08.07-.44.49-.24.38a2.57,2.57,0,0,0-.43.58c-.09,0,.1-.24,0-.23s-.45.62-.44.38c-.11.08-.1.19,0,.14a2,2,0,0,1-.42.41c0,.06,0,0,0,.11s-.17.18-.23.3,0-.06,0-.11a6.9,6.9,0,0,1-.89,1.1c-.11,0,.1-.14.1-.22-.14.08-.2.26-.35.32-.17.34-.32.15-.49.49l.23-.22c0,.19-.2.2-.24.39s0,0,0-.11-.11.15-.19.19-.64.81-.94,1.12c0,0,0,0,0,0A18.77,18.77,0,0,1,91.56,33s0-.12.06-.19c-.2.1-.24.33-.2.35-.2.26-.06-.08-.29.13s.19-.09.11.06a5.16,5.16,0,0,1-.9,1c0,.23-.2.33-.36.58s-.08,0-.2.08a5.28,5.28,0,0,1-.64.82c-.09,0,.16-.25.22-.33a2,2,0,0,0-.57.74c-.16.12,0-.1-.18,0,.06-.16.24-.3.2-.36a10.23,10.23,0,0,0-1,1.43c-.23.19.06-.23-.13-.09a9.32,9.32,0,0,1-1.16,1.26A1.13,1.13,0,0,1,86,39c-.05.11.09,0,0,.17-.34.22-.87,1.11-1,1-.43.53-1.1,1.16-1.37,1.61-.28.18-.44.53-.74.68-.09.26-.3.37-.39.63s-.08,0-.2.08c-.82,1-1.62,2-2.51,2.81,0,.06-.06.2.09,0a24.65,24.65,0,0,0-2.07,2.35c-.14.23-.37.32-.53.52,0,0,.07,0,0,0a4.39,4.39,0,0,0-.78.91L76.3,50a25.94,25.94,0,0,1-2.16,2.48s0,0,0,.08c-1.28,1.39-2.49,2.91-3.76,4.32a18,18,0,0,1-1.57,1.86,5.47,5.47,0,0,1-.75.84l-.11.22c-.22.07-.43.58-.74.77-.52.78-1.46,1.66-2.1,2.57l-.19.1c-.83,1.16-1.82,1.88-2.65,3-.45.38-.7.83-1.16,1.21-.17.36-.53.52-.72.86a23.71,23.71,0,0,0-2,2.15c-.73.84-1.44,1.15-2.15,2l-.51.2v0s0,0,0,0l0,.09s0,0,0-.07a.15.15,0,0,1,0,.07s0,0,0,0,0,0,0,0l0,0s0,0,0,0l-.29-.29L22.54,37.29l33.05,47.4v0L56,84.2l.41-.47.18-.21.06-.06.64-.75.35-.39,0,0,.47-.55.34-.38.19-.23.28-.32.21-.23,2.14-2.47.12-.14.94-1.08c.1-.13.23-.28.37-.43a11.21,11.21,0,0,0,.81-.93l.14-.16.19-.22.17-.19.1-.12.15-.18.77-.88.23-.27.4-.46.17-.2.17-.19,1.08-1.25.29-.33.34-.39.56-.65.83-1,.23-.27c.11-.15.27-.32.44-.51l.25-.28.47-.54.15-.18,1.66-1.91.09-.11L72.7,65l.57-.66.81-.94.08-.08.33-.38.06-.07.15-.18.1-.11.13-.15.06-.07.12-.14,0-.06.29-.33h0l.21-.24h0v0l.23-.26,0-.06.21-.24.55-.64.13-.15.11-.13,0,0,.24-.27.36-.42,0-.05L78,59l1-1.1.34-.39.66-.75.72-.84,0,0,2.84-3.28.09-.09.35-.41L84,52l.39-.45h0l1.51-1.73a2.53,2.53,0,0,0,.93-1.07c.15-.11-.11.26.07.11s.49-.53.71-.82c0-.1,0-.08.06-.19s0,.1.08,0,0-.07.1-.22,0,.09,0,.06.32-.35.25-.39a.29.29,0,0,0,.11-.11s0,.08,0,.14a6.71,6.71,0,0,0,1.06-1.23c.37-.29.22-.3.44-.46a3.7,3.7,0,0,1,.42-.77l.72-.71s0,.08,0,.14a1.66,1.66,0,0,0,.31-.38c0-.29.86-.89,1.13-1.4L91,43.86a3.47,3.47,0,0,1,.42-.5c0-.12-.19.2-.27.25l.15-.33c.08-.06.06,0,.15-.05.27-.38.17-.5.56-.86.07,0-.19.33-.25.47s.15,0,.11.06a1.42,1.42,0,0,1,.44-.74c.07,0,.06,0,0,.17.18-.12.19-.44.43-.66s-.05.19.15,0c0-.05,0,0,0,0s.18-.23.08-.25c.07-.06.32-.32.22-.33.09-.08.15-.21.26-.27s-.17.38-.07.36.15-.26.27-.44,0,0,.2-.08.42-.49.63-.74c.1-.05-.12.18-.13.28.31-.27.23-.53.57-.74.07-.09.08-.25.18-.3s-.12.12-.18.11L95,39.1c.25-.19.42-.49.68-.68.06.06-.23.41-.38.46a1.84,1.84,0,0,1-.24.39c.11-.14.46-.36.56-.66.17-.12,0,.13.2,0a4.24,4.24,0,0,1,.81-1.12c.12,0-.1.14-.1.22.15-.18.11,0,.27-.16.16-.27.37-.45.52-.72.32-.21.24-.31.56-.85a4.13,4.13,0,0,1-.45.55c-.06.1,0,.08,0,.06a1.1,1.1,0,0,1-.28.32c-.1.07.08-.16.12-.19a1.33,1.33,0,0,0-.63.57,2.8,2.8,0,0,0-.77.82c-.11.06-.09,0-.18.19a5.44,5.44,0,0,0-1.14,1.2c-.09-.08-.41.43-.37.21a2.13,2.13,0,0,1-.28.41c-.13.07-.2.21-.33.27s0,.07,0,.14a.42.42,0,0,0-.25.28.41.41,0,0,0-.21.16c-.12.08.14-.27-.06-.09a2.75,2.75,0,0,1-.89,1c-.15.12,0,.1-.1.22a1.7,1.7,0,0,0-.1.14c-.15.12-.09,0-.24.11a6.34,6.34,0,0,1-1,1.17,2,2,0,0,1-.19.36c.22-.15.1-.21.3-.39-.05.15,0,.11.11.06-.16.36-.4.54-.52.55.06-.16.24-.15.29-.33-.16.18-.29.19-.2,0l-.7.73c0-.15,0-.08-.2.08a1.08,1.08,0,0,1,.39-.35c.05-.1-.13,0-.06-.09-.11.17-.27.28-.39.44s.1,0,.22-.05a4.69,4.69,0,0,0-.57.74c0,.07.09,0,.07.11-.19.27,0-.07-.24.11-.06,0,.05-.08.08-.17-.28.14-.7.75-1,.92a5.21,5.21,0,0,1-.83,1c-.14,0,.15-.29.12-.39-.26.19-.2.4-.35.32,0,.12,0,.17.1.15a5.54,5.54,0,0,1-.75.84c0,.2-.27.44-.46.63,0,0,0-.08,0-.14s.14-.11.21-.16,0-.09,0-.08l.05-.11c-.16.11-.23.35-.42.4,0-.13.16-.19.24-.3s-.24.21-.33.28c.15-.39-.28.29-.5.46,0,0,0,.16-.09.33,0-.18-.14,0-.22,0a.25.25,0,0,1-.09.13c.12,0-.12.27-.12.39a2.48,2.48,0,0,0-.6.68c-.16.11-.07-.06-.08-.11-.23.19-.42.4-.56.49l-.1.22.18-.11c.08-.23.27-.29.4-.43-.12.25-.35.35-.47.6-.12-.18-.44.37-.78.62.12-.1.19-.27.32-.36,0-.08-.31.29-.41.41s0,.1,0,.2a.22.22,0,0,1-.06.07l0,0c-.06,0-.07,0-.14,0a.3.3,0,0,1-.14.17s0,.1,0,.16l-.13.12c-.06,0-.1.09-.17.13h0l-.19.18s0,0-.08,0,0,0,0,.06L80,54.62s0,0,0,0c.18-.16.34-.37.51-.55s-.07,0,0,0,.08,0,.23-.14a.62.62,0,0,1,.17-.22c-.12-.18.37-.36.48-.68.15-.11,0,.12.2-.08s-.12-.07,0-.25c-.12.06-.18.23-.3.3s.06,0,.11,0a1.31,1.31,0,0,1-.36.41s.1-.15.09-.25a3.57,3.57,0,0,0,.4-.52c.15-.11,0,.12.2-.08.08-.46.95-1.21,1.4-1.75,0,0-.09.24,0,.2-.36.38-.72.75-1.06,1.14.12-.08.22-.2.13,0l.34-.44s0,.19.14,0,.11-.22.29-.41,0,.1.18,0a3.82,3.82,0,0,0,.64-.91s.11,0,.09,0-.06-.06-.14.17c.25-.19.43-.49.67-.68l.18-.39c.1,0,.13,0,.29-.13s-.16,0-.24,0c.1-.2.33-.2.4-.44s-.06.28.19.09c0,0,0,0-.07,0a7.37,7.37,0,0,1,.82-.93c.1-.23-.17,0-.29.13.11-.17.15-.46.32-.55s-.13.19,0,.2.11-.2.23-.22-.07-.06.11-.31c.1-.06.12,0,0,.09.24-.17.1-.31.32-.47s-.13.31.05.17,0-.17.11-.3a.75.75,0,0,1,.14-.17s-.16.27-.06.28c.17-.21.16-.12.38-.27a8.72,8.72,0,0,0,.9-1.09c-.13.33.61-.6.88-.84,0,.09-.33.37-.41.6.34-.26.48-.7.75-.85,0-.06-.06,0-.11,0,0-.18.19-.22.25-.39.36-.17.62-.7.85-.78a10.12,10.12,0,0,0,.72-1c-.13.15-.06,0-.18.11.32-.55.55-.52.66-.43,0-.16-.07-.13,0-.26a5.55,5.55,0,0,1,.49-.48c.07,0-.12.2-.18.32.1-.12.56-.56.63-.68s.15,0,0,.06c.06.06.14-.16.21-.24s-.06,0-.11,0a8.82,8.82,0,0,0,1.19-1.23l.23-.13c0-.11.15-.14.19-.27.41-.21.61-.71,1-.93a3.51,3.51,0,0,1,1-1c-.16.27-.15.31-.28.52.35-.41.64-.92.88-1-.1-.1.11-.45-.08-.47l.58-.55c-.11-.1-.68.71-.77.54s.17-.12.25-.19.28-.34.36-.57c0,.07,0,.14.24,0-.06,0,0-.19.16-.41s.4-.24.35-.33c.15-.11.12,0,.27-.16s0,0-.06.2a3.08,3.08,0,0,0,.45-.55c.15-.09-.06.24.1.14s0-.26.2-.36c0,0,.06-.19-.11,0,.18-.27.16-.22.18-.39s.19-.09.23-.22-.13.05-.2.08c.09-.12.21-.19.28-.33s-.09.25.08.12c0-.11.23-.32.19-.19a2.44,2.44,0,0,1,.91-1s0-.17,0-.22c-.17.15-.11.07-.27.16s0,.07.08,0a8.33,8.33,0,0,1-1,.93c.21-.34.54-.51.75-.85a4,4,0,0,1-.44.38c.12-.2.31-.29.39-.55.1,0,0,.14.15,0s.11-.15.14-.24,0,0,0,.11.12-.19.23-.22.24-.34.2-.44c.23-.18.06.1.24,0a1.47,1.47,0,0,1,.53-.52c.19-.3.25-.21.43-.49.12,0-.1.14-.1.22.24-.17.4-.47.63-.65,0-.14,0-.17,0-.25.13-.13.34-.41.3-.5.17-.15,0,.16.13,0s.18-.28.32-.35,0-.12.13-.28-.1.29,0,.31-.23.1-.26.27.35-.3.47-.52.08,0,.2-.07c.14-.26.47-.74.57-.74s0-.1,0-.09a1.12,1.12,0,0,1,.41-.4c0-.15.16-.21.2-.36C104.8,26.82,104.55,26.85,104.45,27.12Z"/><path class="cls-97" d="M65.5,46.85l.61,8.42L55.59,66.12,45.05,55.27h0l1.76-25c1.89-1.05,3.86-2.07,5.9-3.08l-.59,26,3.46,3.35L59,53.11l-.7-28.62q2.63-1.18,5.4-2.31ZM41.11,51.22,43,32.39c-3,1.74-5.75,3.51-8.36,5.26l.56,7.46Zm-9-11.87-1.52,1.09,1.12,1.15Zm55.67-25c-1.61.4-3.2.82-4.76,1.25L86,27,74.86,37.77,72.08,19c-1.74.6-3.44,1.23-5.11,1.87L70,51.22,92.09,28.46h0ZM22.57,46.72l33,38h0L26.76,43.34C25.28,44.49,23.89,45.61,22.57,46.72Z"/><path class="cls-2" d="M274.11,17.16c-2.87,0-11.3,1.3-11.3,10.37s8.43,10.36,11.3,10.36S285.4,36.6,285.4,27.53,277,17.16,274.11,17.16m0,18.75c-3.73,0-7.28-2.15-7.28-8.38s3.55-8.38,7.28-8.38,7.27,2.14,7.27,8.38-3.55,8.38-7.27,8.38"/><polygon class="cls-2" points="381.85 37.28 381.85 17.78 384.66 17.78 397.37 31.63 397.37 17.78 399.91 17.78 399.91 37.28 397.04 37.28 384.39 23.43 384.39 37.28 381.85 37.28"/><path class="cls-2" d="M310.71,32a7.38,7.38,0,0,1-6.46,3.83c-3.63,0-7.47-2.38-7.47-8.34s3.84-8.34,7.47-8.34a7.52,7.52,0,0,1,6.21,3.41l2.62-1.7c-2.48-3.33-7.35-3.74-9.28-3.74-2.8,0-11.05,1.14-11.05,10.37S301,37.89,303.8,37.89c2,0,7.13-.44,9.56-4.14Z"/><path class="cls-2" d="M364.76,17.78h-3.67l-9.17,19.5h2.65l2.57-5.47h10.24L370,37.28h4.27ZM358.22,29.5l4-8.58,4,8.58Z"/><rect class="cls-98" x="321.93" y="18.06" width="22.83" height="2.87"/><rect class="cls-99" x="321.93" y="26.09" width="22.83" height="2.87"/><rect class="cls-100" x="321.93" y="34.13" width="22.83" height="2.87"/><path class="cls-2" d="M142.29,17.7h3.8V37.21H142l-8-13.91H134V37.21h-3.8V17.7h4.29l7.75,13.59h.06Z"/><path class="cls-98" d="M149.68,21h.54c3.68,0,4.66-1.9,4.73-3.34h3.13V37.21h-3.8V23.7h-4.6Z"/><path class="cls-2" d="M176.85,37.21h-3.8V28.43c0-1.06-.06-2.85-2.48-2.85-1.68,0-3,1.14-3,3.34v8.29h-3.8V17.7h3.8v6.93h.06a4.45,4.45,0,0,1,4.19-2.26c2.82,0,5,1.66,5,4.84Z"/><path class="cls-2" d="M187.29,37.59c-3.89,0-7.4-2.39-7.4-7.61s3.51-7.61,7.4-7.61,7.39,2.39,7.39,7.61S191.17,37.59,187.29,37.59Zm0-12c-2.94,0-3.48,2.56-3.48,4.4s.54,4.41,3.48,4.41,3.48-2.56,3.48-4.41S190.22,25.58,187.29,25.58Z"/><path class="cls-2" d="M210.79,37.21H207V28.43c0-1.06,0-2.85-2.47-2.85-1.69,0-3,1.14-3,3.34v8.29h-3.81V22.75h3.64v2.12h.06a4.64,4.64,0,0,1,4.35-2.5c2.82,0,5,1.66,5,4.84Z"/><path class="cls-2" d="M218.49,37.21h-3.8V17.7h3.8V28.24l4.79-5.49H228l-5.11,5.6,5.25,8.86h-4.57L220.07,31l-1.58,1.63Z"/><path class="cls-2" d="M241.88,34.39c0,1.71.38,2.09.84,2.25v.57h-4.1a6.54,6.54,0,0,1-.36-1.71,5.85,5.85,0,0,1-4.67,2.09c-2.18,0-4.4-1.22-4.4-4.21,0-2.83,1.79-4.27,4.21-4.62l3.42-.52c.6-.08,1.34-.32,1.34-1.14,0-1.6-1.53-1.69-2.5-1.69a2.05,2.05,0,0,0-2.34,2h-3.67c.43-4.43,3.5-5.06,6.47-5.06,2,0,5.76.63,5.76,4.19Zm-3.72-4.22a5.55,5.55,0,0,1-2.59.79c-1.41.25-2.58.6-2.58,2.17a1.65,1.65,0,0,0,1.77,1.74c1.68,0,3.4-1.08,3.4-2.85Z"/><path class="cls-2" d="M249.54,21h-3.81V17.5h3.81Zm0,1.71V37.21h-3.81V22.75Z"/><path class="cls-2" d="M417.26,33.68H427v3.53H413.18V17.7h4.08Z"/><path class="cls-2" d="M442.51,33a6.27,6.27,0,0,1-6.36,4.62c-4.08,0-7.21-2-7.21-7.91,0-1.74.6-7.31,6.94-7.31,2.85,0,6.79,1.36,6.79,8V31h-9.92c.11,1.08.33,3.53,3.4,3.53A2.44,2.44,0,0,0,438.6,33Zm-3.75-4.43c-.22-2.34-1.71-3-2.94-3-1.79,0-2.74,1.14-3,3Z"/><path class="cls-2" d="M457.43,34.39c0,1.71.38,2.09.84,2.25v.57h-4.1a6.54,6.54,0,0,1-.36-1.71,5.87,5.87,0,0,1-4.67,2.09c-2.18,0-4.4-1.22-4.4-4.21,0-2.83,1.79-4.27,4.21-4.62l3.42-.52c.6-.08,1.34-.32,1.34-1.14,0-1.6-1.53-1.69-2.5-1.69a2.05,2.05,0,0,0-2.34,2H445.2c.43-4.43,3.5-5.06,6.47-5.06,2,0,5.76.63,5.76,4.19Zm-3.72-4.22a5.55,5.55,0,0,1-2.59.79c-1.41.25-2.58.6-2.58,2.17a1.65,1.65,0,0,0,1.77,1.74c1.68,0,3.4-1.08,3.4-2.85Z"/><path class="cls-2" d="M474.39,22.75v13.7c0,2.5-.19,6.66-7.31,6.66-3,0-6.14-1.28-6.31-4.35h4.14c.16.74.46,1.47,2.66,1.47,2,0,3-1,3-3.32V35.17l-.06-.05a3.92,3.92,0,0,1-3.86,2.18c-3.48,0-6.22-2.43-6.22-7.48s2.82-7.45,6-7.45a4.34,4.34,0,0,1,4.24,2.53h.06V22.75Zm-7,11.34c2.58,0,3.23-2.21,3.23-4.19,0-2.34-1.14-4.24-3.26-4.24-1.41,0-3,1-3,4.4C464.36,31.91,465.12,34.09,467.38,34.09Z"/><path class="cls-2" d="M491.16,37.21h-3.64v-2h-.06a4.76,4.76,0,0,1-4.4,2.42c-2.86,0-4.92-1.63-4.92-5.32V22.75h3.8v9c0,2.23,1.31,2.67,2.48,2.67s2.93-.71,2.93-3.29V22.75h3.81Z"/><path class="cls-2" d="M507.7,33a6.27,6.27,0,0,1-6.37,4.62c-4.07,0-7.2-2-7.2-7.91,0-1.74.6-7.31,6.94-7.31,2.85,0,6.79,1.36,6.79,8V31h-9.92c.11,1.08.33,3.53,3.39,3.53A2.44,2.44,0,0,0,503.78,33ZM504,28.54c-.22-2.34-1.72-3-2.94-3-1.79,0-2.74,1.14-3,3Z"/><path class="cls-2" d="M233.4,61V79.91h-2.82V78.52h-9.76V80h-2.71V61Zm-12.58,2.64v4.73h9.76V63.63Zm9.76,12.25V71h-9.76v4.93Z"/><path class="cls-2" d="M250.65,66.58a19.15,19.15,0,0,0,7.68,8,11.4,11.4,0,0,0-2,2.38,17.94,17.94,0,0,1-3.58-3V76.5h-3.66v3.72h-2.75V76.5h-3.78V74.19A19.69,19.69,0,0,1,239.1,77a12.5,12.5,0,0,0-1.92-2.18,19.62,19.62,0,0,0,7.57-8.25H238V63.94h8.27V59.69h2.75v4.25h8.34v2.64Zm-4.34,7.26V69a25.62,25.62,0,0,1-3.45,4.8Zm6.25,0a24.65,24.65,0,0,1-3.5-4.84v4.84Z"/><path class="cls-2" d="M263,69.83a14.35,14.35,0,0,0-3.55-2.24l1.43-1.94a14,14,0,0,1,3.66,2.07Zm-3.15,8.74A63.59,63.59,0,0,0,263,71.46l2.09,1.45c-.85,2.36-1.93,4.93-2.94,7.09ZM264,64.07a14.28,14.28,0,0,0-3.59-2.33l1.5-1.92A15.72,15.72,0,0,1,265.56,62Zm14.37,8.54c-.05.88-.11,1.62-.18,2.31h1.74v2.2h-2a4.92,4.92,0,0,1-.66,2,2.25,2.25,0,0,1-1.76,1,15,15,0,0,1-2.78.06,4.87,4.87,0,0,0-.64-2.13c.95.07,1.81.09,2.25.09a.88.88,0,0,0,.81-.35,2.64,2.64,0,0,0,.29-.66h-6.62l-.18,1.07L266.09,78c.29-1.48.62-3.37.9-5.39H265.1V70.25h2.2c.16-1.21.29-2.42.4-3.54-.27.35-.53.66-.79,1a12.72,12.72,0,0,0-2.2-1.5,15.11,15.11,0,0,0,3.49-6.51l2.58.53c-.2.66-.42,1.32-.66,1.95h9.57v2.34H269.06a15,15,0,0,1-.86,1.45h10.46s0,.75,0,1c0,1.19-.08,2.27-.15,3.26h1.67v2.36Zm-8.94,0c-.11.79-.22,1.56-.3,2.31h2.06c.09-.71.18-1.5.27-2.31Zm.29-2.36h2c0-.7.11-1.41.15-2.09h-1.89Zm6.05,4.67c.07-.64.13-1.41.2-2.31h-2.27c-.09.81-.17,1.6-.26,2.31Zm.33-4.67c0-.64.07-1.34.09-2.09h-2.09c-.05.68-.11,1.39-.18,2.09Z"/><path class="cls-2" d="M298.1,64.49a16.64,16.64,0,0,0,2.29-.18v2.93c-.7,0-1.54-.07-2.13-.07h-2.84c.07,3.21.15,6.89.2,9.86,0,1.41-.79,2.22-2.47,2.22-1.34,0-2.57,0-3.83-.13l-.24-2.86a19.42,19.42,0,0,0,2.93.26c.55,0,.77-.28.77-.92,0-1.48,0-3.68,0-5.94a30.09,30.09,0,0,1-9,7.43l-2-2.28a26.51,26.51,0,0,0,9.68-7.64h-6c-.79,0-1.74,0-2.51.09V64.33a20.54,20.54,0,0,0,2.44.16h7.28c0-.58,0-1.1-.06-1.59s-.11-1.45-.22-2.22h3.12a20.66,20.66,0,0,0-.13,2.22l0,1.59Z"/><path class="cls-2" d="M314,71.88a19.21,19.21,0,0,0,3.52-4.45l-6.78,1.35v5.83c0,1.36.4,1.85,2.79,1.85a37.66,37.66,0,0,0,7-.73l-.09,3a52.56,52.56,0,0,1-6.82.48c-5,0-5.74-1.21-5.74-3.8v-6c-2,.4-3.7.75-4.63,1l-.52-2.88c1-.14,3-.47,5.15-.86V63.45a18.53,18.53,0,0,0-.18-2.51h3.28a18.11,18.11,0,0,0-.2,2.51v2.6c3.21-.6,6.29-1.23,7.28-1.45a7.55,7.55,0,0,0,1.57-.53l2.11,1.65a13.79,13.79,0,0,0-.73,1.19,31.29,31.29,0,0,1-4.55,6.4Z"/><path class="cls-2" d="M342.87,63.41a9.65,9.65,0,0,0-.85,1.14,22.19,22.19,0,0,1-5.31,6l-2.26-1.83a12.92,12.92,0,0,0,4-4.09H327c-.92,0-1.65.07-2.68.16V61.76A17.62,17.62,0,0,0,327,62h11.86a11,11,0,0,0,2.22-.2Zm-9,3c0,5.46-.11,9.94-6.12,13.16l-2.55-2.09a9.23,9.23,0,0,0,2.31-1.21c2.79-1.94,3.32-4.27,3.32-7.88a12.17,12.17,0,0,0-.15-2Z"/><path class="cls-2" d="M352.22,73.35a20.82,20.82,0,0,0,8-8.56L362,67.9A23.44,23.44,0,0,1,353.81,76a24,24,0,0,1-8.17,3.1l-1.84-2.9A22.66,22.66,0,0,0,352.22,73.35Zm0-7.13L350,68.53a46.68,46.68,0,0,0-5.5-4.75l2.07-2.2A46.23,46.23,0,0,1,352.22,66.22Z"/><path class="cls-2" d="M368.57,61.43a15.6,15.6,0,0,0-.07,1.67v7.44c0,.55,0,1.41.07,1.91h-3.26c0-.42.11-1.27.11-1.93V63.1a14,14,0,0,0-.09-1.67Zm10.14-.2c0,.62-.09,1.32-.09,2.2v4.36c0,4.73-.92,6.75-2.55,8.56a12.86,12.86,0,0,1-5.35,3.19l-2.31-2.42a10.36,10.36,0,0,0,5.4-2.78c1.49-1.65,1.78-3.3,1.78-6.73V63.43a16.9,16.9,0,0,0-.13-2.2Z"/><path class="cls-2" d="M382.93,68.12c.8.06,2.4.13,3.55.13h11.81c1,0,2-.09,2.58-.13v3.45c-.53,0-1.65-.11-2.58-.11H386.48c-1.26,0-2.73.05-3.55.11Z"/><path class="cls-2" d="M419.7,64l1.87,1.14a9.92,9.92,0,0,0-.73,1.57A22.25,22.25,0,0,1,417,74a20.51,20.51,0,0,1-8.87,6.22l-2.59-2.33a17.61,17.61,0,0,0,8.87-5.46,15.55,15.55,0,0,0,3.12-6h-6.2a24.29,24.29,0,0,1-5.55,5.32L403.31,70a18.84,18.84,0,0,0,6.86-7.06,9.74,9.74,0,0,0,1-2.31l3.24,1.06c-.53.77-1.1,1.76-1.37,2.24L413,64h4.42a7.05,7.05,0,0,0,1.91-.26l.16.09A25.39,25.39,0,0,0,417.85,61l1.74-.71a33,33,0,0,1,1.74,3Zm2.48-4.69a31.54,31.54,0,0,1,1.79,3l-1.76.74a21.33,21.33,0,0,0-1.76-3Z"/></g></g></svg>