<svg xmlns="http://www.w3.org/2000/svg" xmlns:xlink="http://www.w3.org/1999/xlink" viewBox="0 0 69.18 56"><defs><style>.cls-1{fill:none;}.cls-2{fill:#150301;}.cls-3{fill:url(#名称未設定グラデーション_59);}.cls-4{fill:url(#名称未設定グラデーション_59-2);}.cls-5{fill:url(#名称未設定グラデーション_59-3);}.cls-6{fill:url(#名称未設定グラデーション_59-4);}.cls-7{fill:url(#名称未設定グラデーション_59-5);}.cls-8{fill:url(#名称未設定グラデーション_59-6);}.cls-9{fill:url(#名称未設定グラデーション_59-7);}.cls-10{fill:url(#名称未設定グラデーション_59-8);}.cls-11{fill:url(#名称未設定グラデーション_59-9);}.cls-12{fill:url(#名称未設定グラデーション_59-10);}.cls-13{fill:url(#名称未設定グラデーション_59-11);}.cls-14{fill:url(#名称未設定グラデーション_59-12);}.cls-15{fill:url(#名称未設定グラデーション_59-13);}.cls-16{fill:url(#名称未設定グラデーション_59-14);}.cls-17{fill:url(#名称未設定グラデーション_59-15);}.cls-18{fill:url(#名称未設定グラデーション_59-16);}.cls-19{fill:url(#名称未設定グラデーション_59-17);}.cls-20{fill:url(#名称未設定グラデーション_59-18);}.cls-21{fill:url(#名称未設定グラデーション_59-19);}.cls-22{fill:url(#名称未設定グラデーション_59-20);}.cls-23{fill:url(#名称未設定グラデーション_59-21);}.cls-24{fill:url(#名称未設定グラデーション_59-22);}.cls-25{fill:url(#名称未設定グラデーション_59-23);}.cls-26{fill:url(#名称未設定グラデーション_59-24);}.cls-27{fill:url(#名称未設定グラデーション_59-25);}.cls-28{fill:url(#名称未設定グラデーション_59-26);}.cls-29{fill:url(#名称未設定グラデーション_59-27);}.cls-30{fill:url(#名称未設定グラデーション_59-28);}.cls-31{fill:url(#名称未設定グラデーション_59-29);}.cls-32{fill:url(#名称未設定グラデーション_59-30);}.cls-33{fill:url(#名称未設定グラデーション_59-31);}.cls-34{fill:url(#名称未設定グラデーション_59-32);}.cls-35{fill:url(#名称未設定グラデーション_59-33);}.cls-36{fill:url(#名称未設定グラデーション_59-34);}.cls-37{fill:url(#名称未設定グラデーション_59-35);}.cls-38{fill:url(#名称未設定グラデーション_59-36);}.cls-39{fill:url(#名称未設定グラデーション_59-37);}.cls-40{fill:url(#名称未設定グラデーション_59-38);}.cls-41{fill:url(#名称未設定グラデーション_59-39);}.cls-42{fill:url(#名称未設定グラデーション_59-40);}.cls-43{fill:url(#名称未設定グラデーション_59-41);}.cls-44{fill:url(#名称未設定グラデーション_59-42);}.cls-45{fill:url(#名称未設定グラデーション_59-43);}.cls-46{fill:url(#名称未設定グラデーション_59-44);}.cls-47{fill:url(#名称未設定グラデーション_59-45);}.cls-48{fill:url(#名称未設定グラデーション_59-46);}.cls-49{fill:url(#名称未設定グラデーション_59-47);}.cls-50{fill:url(#名称未設定グラデーション_59-48);}.cls-51{fill:url(#名称未設定グラデーション_59-49);}.cls-52{fill:url(#名称未設定グラデーション_59-50);}.cls-53{fill:url(#名称未設定グラデーション_59-51);}.cls-54{fill:url(#名称未設定グラデーション_59-52);}.cls-55{fill:url(#名称未設定グラデーション_59-53);}.cls-56{fill:url(#名称未設定グラデーション_59-54);}.cls-57{fill:url(#名称未設定グラデーション_59-55);}.cls-58{fill:url(#名称未設定グラデーション_59-56);}.cls-59{fill:url(#名称未設定グラデーション_59-57);}.cls-60{fill:url(#名称未設定グラデーション_59-58);}.cls-61{fill:url(#名称未設定グラデーション_59-59);}.cls-62{fill:url(#名称未設定グラデーション_59-60);}.cls-63{fill:url(#名称未設定グラデーション_59-61);}.cls-64{fill:url(#名称未設定グラデーション_59-62);}.cls-65{fill:url(#名称未設定グラデーション_59-63);}.cls-66{fill:url(#名称未設定グラデーション_59-64);}.cls-67{fill:url(#名称未設定グラデーション_59-65);}.cls-68{fill:url(#名称未設定グラデーション_59-66);}.cls-69{fill:url(#名称未設定グラデーション_59-67);}.cls-70{fill:url(#名称未設定グラデーション_59-68);}.cls-71{fill:url(#名称未設定グラデーション_59-69);}.cls-72{fill:url(#名称未設定グラデーション_59-70);}.cls-73{fill:url(#名称未設定グラデーション_59-71);}.cls-74{fill:url(#名称未設定グラデーション_59-72);}.cls-75{fill:url(#名称未設定グラデーション_59-73);}.cls-76{fill:url(#名称未設定グラデーション_59-74);}.cls-77{fill:url(#名称未設定グラデーション_59-75);}.cls-78{fill:url(#名称未設定グラデーション_59-76);}.cls-79{fill:url(#名称未設定グラデーション_59-77);}.cls-80{fill:url(#名称未設定グラデーション_59-78);}.cls-81{fill:url(#名称未設定グラデーション_59-79);}.cls-82{fill:url(#名称未設定グラデーション_59-80);}.cls-83{fill:url(#名称未設定グラデーション_59-81);}.cls-84{fill:url(#名称未設定グラデーション_59-82);}.cls-85{fill:url(#名称未設定グラデーション_59-83);}.cls-86{fill:url(#名称未設定グラデーション_59-84);}.cls-87{fill:url(#名称未設定グラデーション_59-85);}.cls-88{fill:url(#名称未設定グラデーション_59-86);}.cls-89{fill:url(#名称未設定グラデーション_59-87);}.cls-90{fill:url(#名称未設定グラデーション_59-88);}.cls-91{fill:url(#名称未設定グラデーション_59-89);}.cls-92{fill:url(#名称未設定グラデーション_59-90);}.cls-93{fill:url(#名称未設定グラデーション_59-91);}.cls-94{fill:url(#名称未設定グラデーション_59-92);}.cls-95{fill:url(#名称未設定グラデーション_59-93);}.cls-96{fill:url(#名称未設定グラデーション_59-94);}.cls-97{fill:url(#名称未設定グラデーション_105);}</style><linearGradient id="名称未設定グラデーション_59" x1="60.93" y1="22.28" x2="61.17" y2="22.28" gradientUnits="userSpaceOnUse"><stop offset="0" stop-color="#fccf00"/><stop offset="0.3" stop-color="#f08c00"/><stop offset="0.6" stop-color="#ffd800"/></linearGradient><linearGradient id="名称未設定グラデーション_59-2" x1="61.47" y1="21.75" x2="61.66" y2="21.75" xlink:href="#名称未設定グラデーション_59"/><linearGradient id="名称未設定グラデーション_59-3" x1="50.99" y1="32.41" x2="51.02" y2="32.41" xlink:href="#名称未設定グラデーション_59"/><linearGradient id="名称未設定グラデーション_59-4" x1="50.86" y1="32.5" x2="50.99" y2="32.5" xlink:href="#名称未設定グラデーション_59"/><linearGradient id="名称未設定グラデーション_59-5" x1="66.45" y1="11.48" x2="66.65" y2="11.48" xlink:href="#名称未設定グラデーション_59"/><linearGradient id="名称未設定グラデーション_59-6" x1="66.33" y1="11.77" x2="66.54" y2="11.77" xlink:href="#名称未設定グラデーション_59"/><linearGradient id="名称未設定グラデーション_59-7" x1="58.66" y1="18.11" x2="59.47" y2="18.11" xlink:href="#名称未設定グラデーション_59"/><linearGradient id="名称未設定グラデーション_59-8" x1="34.65" y1="45.29" x2="34.66" y2="45.29" xlink:href="#名称未設定グラデーション_59"/><linearGradient id="名称未設定グラデーション_59-9" x1="66.75" y1="10.89" x2="67.86" y2="10.89" xlink:href="#名称未設定グラデーション_59"/><linearGradient id="名称未設定グラデーション_59-10" x1="55.52" y1="21.8" x2="55.99" y2="21.8" xlink:href="#名称未設定グラデーション_59"/><linearGradient id="名称未設定グラデーション_59-11" x1="64.22" y1="13.78" x2="64.38" y2="13.78" xlink:href="#名称未設定グラデーション_59"/><linearGradient id="名称未設定グラデーション_59-12" x1="62.86" y1="14.12" x2="63.03" y2="14.12" xlink:href="#名称未設定グラデーション_59"/><linearGradient id="名称未設定グラデーション_59-13" x1="64.5" y1="13.48" x2="64.68" y2="13.48" xlink:href="#名称未設定グラデーション_59"/><linearGradient id="名称未設定グラデーション_59-14" x1="65.21" y1="12.47" x2="65.57" y2="12.47" xlink:href="#名称未設定グラデーション_59"/><linearGradient id="名称未設定グラデーション_59-15" x1="63.13" y1="13.83" x2="63.35" y2="13.83" xlink:href="#名称未設定グラデーション_59"/><linearGradient id="名称未設定グラデーション_59-16" x1="62.19" y1="14.85" x2="62.39" y2="14.85" xlink:href="#名称未設定グラデーション_59"/><linearGradient id="名称未設定グラデーション_59-17" x1="55.28" y1="26.24" x2="55.45" y2="26.24" xlink:href="#名称未設定グラデーション_59"/><linearGradient id="名称未設定グラデーション_59-18" x1="60" y1="16.99" x2="60.17" y2="16.99" xlink:href="#名称未設定グラデーション_59"/><linearGradient id="名称未設定グラデーション_59-19" x1="61.53" y1="15.35" x2="62.15" y2="15.35" xlink:href="#名称未設定グラデーション_59"/><linearGradient id="名称未設定グラデーション_59-20" x1="54.99" y1="25.99" x2="55.13" y2="25.99" xlink:href="#名称未設定グラデーション_59"/><linearGradient id="名称未設定グラデーション_59-21" x1="56.83" y1="20.84" x2="57.36" y2="20.84" xlink:href="#名称未設定グラデーション_59"/><linearGradient id="名称未設定グラデーション_59-22" x1="57.68" y1="20.29" x2="57.9" y2="20.29" xlink:href="#名称未設定グラデーション_59"/><linearGradient id="名称未設定グラデーション_59-23" x1="57.3" y1="20.7" x2="57.57" y2="20.7" xlink:href="#名称未設定グラデーション_59"/><linearGradient id="名称未設定グラデーション_59-24" x1="56.7" y1="21.4" x2="56.9" y2="21.4" xlink:href="#名称未設定グラデーション_59"/><linearGradient id="名称未設定グラデーション_59-25" x1="58.77" y1="18.82" x2="58.95" y2="18.82" xlink:href="#名称未設定グラデーション_59"/><linearGradient id="名称未設定グラデーション_59-26" x1="58.46" y1="19.5" x2="58.62" y2="19.5" xlink:href="#名称未設定グラデーション_59"/><linearGradient id="名称未設定グラデーション_59-27" x1="60.74" y1="17.23" x2="60.93" y2="17.23" xlink:href="#名称未設定グラデーション_59"/><linearGradient id="名称未設定グラデーション_59-28" x1="58.92" y1="18.98" x2="59.11" y2="18.98" xlink:href="#名称未設定グラデーション_59"/><linearGradient id="名称未設定グラデーション_59-29" x1="56.44" y1="21.71" x2="56.61" y2="21.71" xlink:href="#名称未設定グラデーション_59"/><linearGradient id="名称未設定グラデーション_59-30" x1="55.18" y1="22.98" x2="55.49" y2="22.98" xlink:href="#名称未設定グラデーション_59"/><linearGradient id="名称未設定グラデーション_59-31" x1="52.83" y1="25.41" x2="53.65" y2="25.41" xlink:href="#名称未設定グラデーション_59"/><linearGradient id="名称未設定グラデーション_59-32" x1="53.89" y1="24.43" x2="54.13" y2="24.43" xlink:href="#名称未設定グラデーション_59"/><linearGradient id="名称未設定グラデーション_59-33" x1="64.33" y1="16.58" x2="64.45" y2="16.58" xlink:href="#名称未設定グラデーション_59"/><linearGradient id="名称未設定グラデーション_59-34" x1="64.42" y1="16.32" x2="64.65" y2="16.32" xlink:href="#名称未設定グラデーション_59"/><linearGradient id="名称未設定グラデーション_59-35" x1="55.81" y1="22.21" x2="56.27" y2="22.21" xlink:href="#名称未設定グラデーション_59"/><linearGradient id="名称未設定グラデーション_59-36" x1="53.27" y1="25.04" x2="53.6" y2="25.04" xlink:href="#名称未設定グラデーション_59"/><linearGradient id="名称未設定グラデーション_59-37" x1="50.81" y1="32.71" x2="50.92" y2="32.71" xlink:href="#名称未設定グラデーション_59"/><linearGradient id="名称未設定グラデーション_59-38" x1="55.53" y1="22.67" x2="55.77" y2="22.67" xlink:href="#名称未設定グラデーション_59"/><linearGradient id="名称未設定グラデーション_59-39" x1="54.18" y1="24" x2="54.75" y2="24" xlink:href="#名称未設定グラデーション_59"/><linearGradient id="名称未設定グラデーション_59-40" x1="57.87" y1="25.21" x2="58.17" y2="25.21" xlink:href="#名称未設定グラデーション_59"/><linearGradient id="名称未設定グラデーション_59-41" x1="58.92" y1="24.03" x2="59.31" y2="24.03" xlink:href="#名称未設定グラデーション_59"/><linearGradient id="名称未設定グラデーション_59-42" x1="58.96" y1="24.12" x2="59.37" y2="24.12" xlink:href="#名称未設定グラデーション_59"/><linearGradient id="名称未設定グラデーション_59-43" x1="56.64" y1="26.54" x2="56.86" y2="26.54" xlink:href="#名称未設定グラデーション_59"/><linearGradient id="名称未設定グラデーション_59-44" x1="57.75" y1="25.45" x2="58.06" y2="25.45" xlink:href="#名称未設定グラデーション_59"/><linearGradient id="名称未設定グラデーション_59-45" x1="55.86" y1="27.35" x2="56.02" y2="27.35" xlink:href="#名称未設定グラデーション_59"/><linearGradient id="名称未設定グラデーション_59-46" x1="54.36" y1="29.06" x2="54.67" y2="29.06" xlink:href="#名称未設定グラデーション_59"/><linearGradient id="名称未設定グラデーション_59-47" x1="54.07" y1="29.27" x2="54.3" y2="29.27" xlink:href="#名称未設定グラデーション_59"/><linearGradient id="名称未設定グラデーション_59-48" x1="53.94" y1="29.56" x2="54.08" y2="29.56" xlink:href="#名称未設定グラデーション_59"/><linearGradient id="名称未設定グラデーション_59-49" x1="52.47" y1="31.13" x2="52.56" y2="31.13" xlink:href="#名称未設定グラデーション_59"/><linearGradient id="名称未設定グラデーション_59-50" x1="54.39" y1="28.74" x2="54.78" y2="28.74" xlink:href="#名称未設定グラデーション_59"/><linearGradient id="名称未設定グラデーション_59-51" x1="53.63" y1="29.54" x2="53.8" y2="29.54" xlink:href="#名称未設定グラデーション_59"/><linearGradient id="名称未設定グラデーション_59-52" x1="54.37" y1="29.02" x2="54.48" y2="29.02" xlink:href="#名称未設定グラデーション_59"/><linearGradient id="名称未設定グラデーション_59-53" x1="55.04" y1="28.09" x2="55.62" y2="28.09" xlink:href="#名称未設定グラデーション_59"/><linearGradient id="名称未設定グラデーション_59-54" x1="54.82" y1="28.53" x2="55.12" y2="28.53" xlink:href="#名称未設定グラデーション_59"/><linearGradient id="名称未設定グラデーション_59-55" x1="55.52" y1="27.76" x2="55.71" y2="27.76" xlink:href="#名称未設定グラデーション_59"/><linearGradient id="名称未設定グラデーション_59-56" x1="51.09" y1="32.47" x2="51.22" y2="32.47" xlink:href="#名称未設定グラデーション_59"/><linearGradient id="名称未設定グラデーション_59-57" x1="62.95" y1="15.9" x2="63.18" y2="15.9" xlink:href="#名称未設定グラデーション_59"/><linearGradient id="名称未設定グラデーション_59-58" x1="52.73" y1="28.87" x2="52.92" y2="28.87" xlink:href="#名称未設定グラデーション_59"/><linearGradient id="名称未設定グラデーション_59-59" x1="51.22" y1="30.64" x2="51.46" y2="30.64" xlink:href="#名称未設定グラデーション_59"/><linearGradient id="名称未設定グラデーション_59-60" x1="65.99" y1="12.16" x2="66.16" y2="12.16" xlink:href="#名称未設定グラデーション_59"/><linearGradient id="名称未設定グラデーション_59-61" x1="54.73" y1="26.69" x2="54.87" y2="26.69" xlink:href="#名称未設定グラデーション_59"/><linearGradient id="名称未設定グラデーション_59-62" x1="64.55" y1="16.32" x2="64.71" y2="16.32" xlink:href="#名称未設定グラデーション_59"/><linearGradient id="名称未設定グラデーション_59-63" x1="65.74" y1="12.23" x2="65.9" y2="12.23" xlink:href="#名称未設定グラデーション_59"/><linearGradient id="名称未設定グラデーション_59-64" x1="49.98" y1="31.83" x2="50.2" y2="31.83" xlink:href="#名称未設定グラデーション_59"/><linearGradient id="名称未設定グラデーション_59-65" x1="50.68" y1="31.04" x2="50.84" y2="31.04" xlink:href="#名称未設定グラデーション_59"/><linearGradient id="名称未設定グラデーション_59-66" x1="65.33" y1="16.35" x2="65.57" y2="16.35" xlink:href="#名称未設定グラデーション_59"/><linearGradient id="名称未設定グラデーション_59-67" x1="48.61" y1="33.2" x2="49.17" y2="33.2" xlink:href="#名称未設定グラデーション_59"/><linearGradient id="名称未設定グラデーション_59-68" x1="61.89" y1="19.49" x2="62.05" y2="19.49" xlink:href="#名称未設定グラデーション_59"/><linearGradient id="名称未設定グラデーション_59-69" x1="65.67" y1="15.95" x2="65.85" y2="15.95" xlink:href="#名称未設定グラデーション_59"/><linearGradient id="名称未設定グラデーション_59-70" x1="47.96" y1="34.21" x2="48.1" y2="34.21" xlink:href="#名称未設定グラデーション_59"/><linearGradient id="名称未設定グラデーション_59-71" x1="63.1" y1="18.21" x2="63.35" y2="18.21" xlink:href="#名称未設定グラデーション_59"/><linearGradient id="名称未設定グラデーション_59-72" x1="47.68" y1="34.46" x2="47.91" y2="34.46" xlink:href="#名称未設定グラデーション_59"/><linearGradient id="名称未設定グラデーション_59-73" x1="63.91" y1="17.39" x2="64.19" y2="17.39" xlink:href="#名称未設定グラデーション_59"/><linearGradient id="名称未設定グラデーション_59-74" x1="51.48" y1="30.31" x2="51.72" y2="30.31" xlink:href="#名称未設定グラデーション_59"/><linearGradient id="名称未設定グラデーション_59-75" x1="62.62" y1="17.97" x2="62.84" y2="17.97" xlink:href="#名称未設定グラデーション_59"/><linearGradient id="名称未設定グラデーション_59-76" x1="61.93" y1="17.6" x2="62.58" y2="17.6" xlink:href="#名称未設定グラデーション_59"/><linearGradient id="名称未設定グラデーション_59-77" x1="57.33" y1="23.7" x2="57.6" y2="23.7" xlink:href="#名称未設定グラデーション_59"/><linearGradient id="名称未設定グラデーション_59-78" x1="61.93" y1="16.94" x2="62.23" y2="16.94" xlink:href="#名称未設定グラデーション_59"/><linearGradient id="名称未設定グラデーション_59-79" x1="61.37" y1="17.98" x2="61.5" y2="17.98" xlink:href="#名称未設定グラデーション_59"/><linearGradient id="名称未設定グラデーション_59-80" x1="62.09" y1="17.24" x2="62.29" y2="17.24" xlink:href="#名称未設定グラデーション_59"/><linearGradient id="名称未設定グラデーション_59-81" x1="64.11" y1="14.37" x2="64.29" y2="14.37" xlink:href="#名称未設定グラデーション_59"/><linearGradient id="名称未設定グラデーション_59-82" x1="63.39" y1="15.12" x2="63.61" y2="15.12" xlink:href="#名称未設定グラデーション_59"/><linearGradient id="名称未設定グラデーション_59-83" x1="62.86" y1="16.78" x2="63.04" y2="16.78" xlink:href="#名称未設定グラデーション_59"/><linearGradient id="名称未設定グラデーション_59-84" x1="55.45" y1="26.14" x2="55.45" y2="26.14" xlink:href="#名称未設定グラデーション_59"/><linearGradient id="名称未設定グラデーション_59-85" x1="62.63" y1="17.05" x2="62.82" y2="17.05" xlink:href="#名称未設定グラデーション_59"/><linearGradient id="名称未設定グラデーション_59-86" x1="61.71" y1="19.01" x2="61.85" y2="19.01" xlink:href="#名称未設定グラデーション_59"/><linearGradient id="名称未設定グラデーション_59-87" x1="60.08" y1="20.73" x2="60.35" y2="20.73" xlink:href="#名称未設定グラデーション_59"/><linearGradient id="名称未設定グラデーション_59-88" x1="60.6" y1="19.24" x2="60.91" y2="19.24" xlink:href="#名称未設定グラデーション_59"/><linearGradient id="名称未設定グラデーション_59-89" x1="59.57" y1="21.36" x2="59.69" y2="21.36" xlink:href="#名称未設定グラデーション_59"/><linearGradient id="名称未設定グラデーション_59-90" x1="60.86" y1="18.14" x2="61.01" y2="18.14" xlink:href="#名称未設定グラデーション_59"/><linearGradient id="名称未設定グラデーション_59-91" x1="61.1" y1="18.42" x2="61.76" y2="18.42" xlink:href="#名称未設定グラデーション_59"/><linearGradient id="名称未設定グラデーション_59-92" x1="60.97" y1="18.8" x2="61.19" y2="18.8" xlink:href="#名称未設定グラデーション_59"/><linearGradient id="名称未設定グラデーション_59-93" x1="57.76" y1="19.54" x2="57.88" y2="19.54" xlink:href="#名称未設定グラデーション_59"/><linearGradient id="名称未設定グラデーション_59-94" x1="14.02" y1="32.79" x2="65.28" y2="32.79" xlink:href="#名称未設定グラデーション_59"/><linearGradient id="名称未設定グラデーション_105" x1="14.04" y1="30.81" x2="57.3" y2="30.81" gradientUnits="userSpaceOnUse"><stop offset="0" stop-color="#766e6a"/><stop offset="1" stop-color="#150301"/></linearGradient></defs><g id="レイヤー_2" data-name="レイヤー 2"><g id="レイヤー_1-2" data-name="レイヤー 1"><rect class="cls-1" width="69.18" height="56"/><path class="cls-2" d="M41.13,34.39l-.37-5.24L39.09,6H34.56L29.8,9.17,28,34.39h0l6.56,6.75Zm-8.7-1.34L33,9.89l1.6-1.11h1.58l.59,24.27-2.15,2.08Z"/><polygon class="cls-2" points="25.13 6 23.97 13.9 23.26 6 20.24 6 16.54 22.56 19.76 25.88 21.14 18.05 21.89 28.07 25.58 31.87 27.99 7.64 30.55 6 25.13 6"/><polygon class="cls-2" points="52.95 3.29 16.16 3.29 9.87 24.27 34.59 52.7 34.59 52.7 14.02 23.2 18.64 4.94 50.47 4.94 53.49 16.81 46.58 23.5 44.23 7.64 46.38 6 40.96 6 43.58 31.87 57.3 17.71 57.3 17.71 52.95 3.29"/><path class="cls-3" d="M61.17,22.11a1,1,0,0,0-.24.34C61,22.34,61.18,22.16,61.17,22.11Z"/><path class="cls-4" d="M61.63,21.68s-.08.06-.07,0-.06.1-.09.15a1.62,1.62,0,0,0,.19-.18S61.64,21.67,61.63,21.68Z"/><path class="cls-5" d="M51,32.43l0,0a0,0,0,0,0,0,0S51,32.42,51,32.43Z"/><path class="cls-6" d="M51,32.43a1.59,1.59,0,0,0-.13.13C50.85,32.63,51,32.5,51,32.43Z"/><path class="cls-7" d="M66.45,11.59c.06-.08.16-.11.2-.22A.48.48,0,0,0,66.45,11.59Z"/><path class="cls-8" d="M66.33,11.88c.08-.06.17-.1.21-.22C66.48,11.75,66.38,11.78,66.33,11.88Z"/><path class="cls-9" d="M59.06,18.19c0-.15.31-.34.41-.54-.31.31-.55.63-.8.9,0,.09.07-.07.11-.07A.86.86,0,0,1,59.06,18.19Z"/><path class="cls-10" d="M34.65,45.3h0v0Z"/><path class="cls-11" d="M67.72,10.34a7.18,7.18,0,0,1-.6.63c-.06.13-.09.15-.16.17s.05,0,0,0,0,0-.14.08,0,.12-.1.31a1.27,1.27,0,0,0,.21-.32c.1,0,.14-.14.2-.22s.39-.39.49-.44-.16.07-.2.12c.06-.15.2-.18.25-.33s0,.12.07,0,.07-.09.09-.15C67.68,10.46,67.82,10,67.72,10.34Z"/><path class="cls-12" d="M55.52,22.06l.47-.52A2.26,2.26,0,0,0,55.52,22.06Z"/><path class="cls-13" d="M64.38,13.69l-.12.07s0,.07,0,.1S64.36,13.78,64.38,13.69Z"/><path class="cls-14" d="M63,14.18,63,14c-.08.1-.1.07-.17.1S62.89,14.21,63,14.18Z"/><path class="cls-15" d="M64.68,13.39c0-.07-.16.1-.18.2S64.6,13.42,64.68,13.39Z"/><path class="cls-16" d="M65.57,12.26a2.35,2.35,0,0,0-.36.41c.1-.07.06,0,.13-.05S65.49,12.41,65.57,12.26Z"/><path class="cls-17" d="M63.35,13.7l-.11.07c0,.08-.08.11-.11.18A.46.46,0,0,0,63.35,13.7Z"/><path class="cls-18" d="M62.19,15a.79.79,0,0,0,.2-.27C62.3,14.78,62.26,14.91,62.19,15Z"/><path class="cls-19" d="M55.28,26.3c0,.13.1-.1.17-.15A.76.76,0,0,0,55.28,26.3Z"/><path class="cls-20" d="M60,17.11a1.88,1.88,0,0,0,.16-.23C60.09,16.93,60,17.07,60,17.11Z"/><path class="cls-21" d="M61.74,15.55s0-.07.1-.2l.07,0a.42.42,0,0,1,.17-.2.39.39,0,0,0,.07-.19s-.09.12-.07.06-.07.13-.11.19a.66.66,0,0,0-.24.17c.05.07-.1.24-.2.39C61.6,15.68,61.65,15.59,61.74,15.55Z"/><path class="cls-22" d="M55.13,25.91,55,26a.06.06,0,0,1,0,.07C55,26.12,55.12,26,55.13,25.91Z"/><path class="cls-23" d="M57.28,20.67c0-.1.09-.16.07-.19s0,.08-.06.13,0,0-.11.07a1.35,1.35,0,0,1-.34.43s0,.06,0,.1A2.34,2.34,0,0,1,57.28,20.67Z"/><path class="cls-24" d="M57.86,20.3c.08-.13,0-.08,0-.14l-.2.17c0,.1.09,0,.15-.08s-.07.13-.1.15S57.81,20.3,57.86,20.3Z"/><path class="cls-25" d="M57.57,20.57c0-.06-.18.19-.27.24S57.5,20.66,57.57,20.57Z"/><path class="cls-26" d="M56.7,21.48s.16-.06.2-.16S56.74,21.37,56.7,21.48Z"/><path class="cls-27" d="M58.77,18.91c0,.08.13-.13.18-.18S58.82,18.87,58.77,18.91Z"/><path class="cls-28" d="M58.46,19.57c0,.09.06,0,.13-.05s0-.08,0-.12-.06.1-.09.15A.08.08,0,0,0,58.46,19.57Z"/><path class="cls-29" d="M60.84,17.28c0-.09.14-.17.07-.19s-.07.12-.17.28Z"/><path class="cls-30" d="M59.1,18.94c0-.07,0-.09-.05-.07s-.15.18-.12.22S59,19,59.1,18.94Z"/><path class="cls-31" d="M56.44,21.79c0,.07.09-.13.16-.12s0,0,0-.07A.9.9,0,0,0,56.44,21.79Z"/><path class="cls-32" d="M55.18,23.11c.15-.13,0,.11.15,0,0-.07.12-.16.16-.27C55.34,23,55.26,22.94,55.18,23.11Z"/><path class="cls-33" d="M53,25.56s0,.09.08,0,.07-.1.06-.14,0,0,.1,0a1.93,1.93,0,0,1,.38-.42c-.08,0-.25.25-.39.3a.39.39,0,0,1-.23.24,3,3,0,0,0-.2.34l.15-.14c.05-.08,0,0,0-.07Z"/><path class="cls-34" d="M54,24.58c.07,0,.09-.15.16-.17s.06-.17-.07-.11a.65.65,0,0,1-.17.22c0,.08.1-.08.13-.1S53.92,24.57,54,24.58Z"/><path class="cls-35" d="M64.45,16.54c0-.05,0,0-.09,0s0,.08,0,.14A.68.68,0,0,0,64.45,16.54Z"/><path class="cls-36" d="M64.65,16.2c-.09.07-.19.11-.23.24A1.05,1.05,0,0,0,64.65,16.2Z"/><path class="cls-37" d="M55.81,22.49c.2-.25.38-.26.46-.55,0,0-.07.07-.06,0C56.1,22.18,55.92,22.28,55.81,22.49Z"/><path class="cls-38" d="M53.6,24.84c-.12.1-.18.28-.32.34s.08,0,.06,0C53.42,25.08,53.52,25,53.6,24.84Z"/><path class="cls-39" d="M50.83,32.68c0,.06.05,0,0,.14C50.92,32.71,51,32.5,50.83,32.68Z"/><path class="cls-40" d="M55.69,22.66a.21.21,0,0,1,.08-.12c0-.09-.08.07-.11.06s-.08.1-.13.23S55.61,22.67,55.69,22.66Z"/><path class="cls-41" d="M54.75,23.69c-.12.06-.18.2-.28.29s0-.05,0-.14c-.17.16-.1.23-.31.46.07,0,.06,0,.17-.1s0,0-.1,0A5.27,5.27,0,0,0,54.75,23.69Z"/><path class="cls-42" d="M58.15,25.17c.08-.13-.08,0,0-.1-.1.09-.19.07-.28.27C57.94,25.38,58.12,25.07,58.15,25.17Z"/><path class="cls-43" d="M59.08,24.12c0-.11.16-.2.23-.36-.12.08-.19.23-.32.29s0,0,.07,0-.17.17-.14.21S59,24.14,59.08,24.12Z"/><path class="cls-44" d="M59.1,24.21c.1-.08.15-.25.27-.31s-.34.27-.41.44C59,24.31,59.11,24.12,59.1,24.21Z"/><path class="cls-45" d="M56.86,26.41a1.07,1.07,0,0,0-.22.25A.76.76,0,0,0,56.86,26.41Z"/><path class="cls-46" d="M57.75,25.63a1.79,1.79,0,0,1,.31-.36S57.72,25.56,57.75,25.63Z"/><path class="cls-47" d="M56,27.39l.06-.14c-.06.05-.09.13-.16.17S55.92,27.41,56,27.39Z"/><path class="cls-48" d="M54.67,28.85c-.12.12-.3.29-.31.41C54.46,29.12,54.61,29,54.67,28.85Z"/><path class="cls-49" d="M54.3,29.17s0,0,0,0a1.94,1.94,0,0,0-.21.27C54.15,29.33,54.22,29.24,54.3,29.17Z"/><path class="cls-50" d="M53.94,29.69c.05,0,.08-.09.12-.12s-.05,0,0-.14C54,29.51,54,29.54,53.94,29.69Z"/><path class="cls-51" d="M52.54,31c-.13.11,0,.11-.07.17S52.6,31,52.54,31Z"/><path class="cls-52" d="M54.78,28.54c-.06,0-.27.27-.38.38s.16-.17.13-.05A1.05,1.05,0,0,1,54.78,28.54Z"/><path class="cls-53" d="M53.75,29.63a.36.36,0,0,0,0-.21C53.62,29.66,53.55,29.69,53.75,29.63Z"/><path class="cls-54" d="M54.43,29c-.11.1,0,.15,0,.12S54.43,29,54.43,29Z"/><path class="cls-55" d="M55.25,28.31c0-.1.15-.15.29-.32s0-.07.08-.12-.21.2-.29.27c0-.08-.22.09-.29.15S55.17,28.31,55.25,28.31Z"/><path class="cls-56" d="M54.82,28.67s.06,0,.1,0a.48.48,0,0,1,.17-.2c.08-.13,0,0-.05,0s-.06,0,0,0-.08.09-.12.12S55,28.55,54.82,28.67Z"/><path class="cls-57" d="M55.52,27.85s.18-.09.19-.19S55.6,27.8,55.52,27.85Z"/><path class="cls-58" d="M51.13,32.55a.35.35,0,0,1,.06-.09c.07-.05,0,0,0,0s0,0,0-.1S51.05,32.62,51.13,32.55Z"/><path class="cls-59" d="M63,16c0,.06.15-.12.23-.13S63,15.93,63,16Z"/><path class="cls-60" d="M52.86,28.86s0-.05.06-.09-.1.09-.13.1,0,.06,0,.11,0,0,0,0l.06,0S52.87,28.77,52.86,28.86Z"/><path class="cls-61" d="M51.37,30.61s-.08.05-.06,0a.32.32,0,0,0-.09.16l.14-.09c0-.08.08-.11.1-.18S51.4,30.56,51.37,30.61Z"/><path class="cls-62" d="M66,12.24s.05-.05.14-.08a0,0,0,0,1,0-.07C66.17,12,66,12.17,66,12.24Z"/><path class="cls-63" d="M54.74,26.72c-.05.1,0,.06.11,0s-.08,0,0-.1C54.82,26.64,54.77,26.66,54.74,26.72Z"/><path class="cls-64" d="M64.71,16.24c0-.07-.13.1-.16.17S64.65,16.28,64.71,16.24Z"/><path class="cls-65" d="M65.74,12.34c.05,0,.08-.07.12-.1s0-.06,0-.12S65.83,12.21,65.74,12.34Z"/><path class="cls-66" d="M50,32a1.36,1.36,0,0,0,.22-.25A.54.54,0,0,0,50,32Z"/><path class="cls-67" d="M50.84,30.92a.79.79,0,0,0-.16.23A.4.4,0,0,0,50.84,30.92Z"/><path class="cls-68" d="M65.57,16.16a1,1,0,0,0-.24.39A2.14,2.14,0,0,0,65.57,16.16Z"/><path class="cls-69" d="M49.06,32.88a6.57,6.57,0,0,0-.45.66,6.65,6.65,0,0,0,.46-.59s0,0,0,.08C49.23,32.89,49.18,32.81,49.06,32.88Z"/><path class="cls-70" d="M61.94,19.61c.06-.13.1-.16.11-.24C61.94,19.48,61.81,19.67,61.94,19.61Z"/><path class="cls-71" d="M65.75,16s.06-.1.1-.2a.55.55,0,0,0-.18.25C65.66,16.12,65.71,16,65.75,16Z"/><path class="cls-72" d="M48,34.31c0-.07.11-.11.14-.19l-.11.07C48,34.25,48,34.24,48,34.31Z"/><path class="cls-73" d="M63.35,18.05c-.1.07-.11.13-.18.13s0,0,0,0-.09.11-.11.19A.89.89,0,0,0,63.35,18.05Z"/><path class="cls-74" d="M47.68,34.6c.1-.05.15-.16.23-.24s0,0,0,0,0,0,0,0S47.71,34.46,47.68,34.6Z"/><path class="cls-75" d="M63.91,17.54c.08-.11.21-.15.28-.29A.66.66,0,0,0,63.91,17.54Z"/><path class="cls-76" d="M51.66,30.16s0,0,0,0-.06.06-.1.09,0,.09-.08.17.13-.13.07,0C51.63,30.34,51.81,30.07,51.66,30.16Z"/><path class="cls-77" d="M62.67,18.1c0-.13.12-.18.17-.28C62.74,17.87,62.52,18.19,62.67,18.1Z"/><path class="cls-78" d="M62.07,17.8c.1-.07.06,0,.14-.08s.11-.19.16-.29a1.24,1.24,0,0,0,.18-.14c.09-.13-.08,0,0-.1a.1.1,0,0,0,0,0c-.21.16-.36.41-.55.58s0,.1,0,.19C62.06,17.92,62,17.89,62.07,17.8Z"/><path class="cls-79" d="M57.6,23.52a1.41,1.41,0,0,0-.27.36C57.41,23.76,57.61,23.6,57.6,23.52Z"/><path class="cls-80" d="M61.93,17.09a3.58,3.58,0,0,1,.29-.27c.07-.11-.14.1-.08,0A1.57,1.57,0,0,0,61.93,17.09Z"/><path class="cls-81" d="M61.4,18s0,.06.05,0,.06-.13,0-.16-.07.13-.13.16S61.39,18.05,61.4,18Z"/><path class="cls-82" d="M62.29,17.15c-.08,0-.13.11-.2.17S62.28,17.24,62.29,17.15Z"/><path class="cls-83" d="M64.28,14.25a.65.65,0,0,0-.17.25C64.18,14.43,64.31,14.29,64.28,14.25Z"/><path class="cls-84" d="M63.61,15c-.07.08-.18.12-.22.26A.78.78,0,0,0,63.61,15Z"/><path class="cls-85" d="M63,16.82l.06-.14c-.07,0-.09.09-.16.12S62.89,16.87,63,16.82Z"/><polygon class="cls-86" points="55.45 26.14 55.45 26.14 55.45 26.14 55.45 26.14"/><path class="cls-87" d="M62.8,17c.09-.11-.14.16-.16.1s0,.06,0,.09S62.69,17.06,62.8,17Z"/><path class="cls-88" d="M61.85,18.91c-.08,0-.09.13-.14.2l.1-.08A.31.31,0,0,1,61.85,18.91Z"/><path class="cls-89" d="M60.12,20.76a.71.71,0,0,1,0,.17c.08-.14.27-.34.27-.41C60.26,20.68,60.24,20.62,60.12,20.76Z"/><path class="cls-90" d="M60.91,19s-.25.21-.31.36c.06,0,0,0,0,0S60.79,19.13,60.91,19Z"/><path class="cls-91" d="M59.58,21.35c0,.07,0,.06,0,.09s.06-.1.09-.15S59.66,21.3,59.58,21.35Z"/><path class="cls-92" d="M61,18.12c0-.08,0-.09,0-.05s0,.09-.09.15S61,18.14,61,18.12Z"/><path class="cls-93" d="M61.76,18a9.32,9.32,0,0,0-.66.86s.1-.1.08-.05,0-.08.14-.2c0,.06.34-.38.27-.24C61.67,18.33,61.75,18.08,61.76,18Z"/><path class="cls-94" d="M61.19,18.65A1.23,1.23,0,0,0,61,19C61.08,18.9,61.12,18.75,61.19,18.65Z"/><path class="cls-95" d="M57.88,19.47l-.12.14S57.87,19.52,57.88,19.47Z"/><path class="cls-96" d="M65,16.87c-.09,0,0-.09-.19.07a.31.31,0,0,1,.2-.22c.06-.15-.11.07-.13,0a.22.22,0,0,1-.13.15c0,.1-.11.14-.08.17s.13-.16.14-.08-.13.08-.16.17,0-.12-.11,0c.09,0-.1.11-.18.21s0-.08,0-.12-.24.17-.33.32-.24.22-.36.23-.06.17-.18.31,0-.07,0-.12c-.14.05-.21.2-.32.29s0,0,.07,0c0,.11-.16.18-.13.22s-.06,0-.11.07,0,0,0-.12c-.14.1-.23.28-.39.35,0,.14-.19.15-.24.34,0-.08-.11.09-.15.07a.69.69,0,0,1,.26-.25c0-.16.27-.34.43-.46,0,0,0-.07.06-.21-.15.33-.72.61-.81,1a6.25,6.25,0,0,1-.44.45c0,.06,0,.05.07,0l-.09.2a.5.5,0,0,1-.15.14c.05-.11.14-.15.17-.27-.08.05-.15.13-.23.18l-.06.14-.12.12c-.06,0,0,0,0-.14-.17.17,0,.18-.22.36,0,0,0,.05.05,0a.66.66,0,0,1-.12.17c0-.18-.32.19-.46.3.11-.17.47-.5.41-.55.13-.15.28-.27.41-.44s-.17.17-.25.22c.09-.14.11-.13.14-.26s.14-.14.24-.11c.09-.16,0-.14,0-.13s.12-.06.17-.1a1.59,1.59,0,0,0,.13-.22c.09-.07,0,0,.12-.05s.06-.06.16-.17.2-.24.28-.39,0,.06.07,0c-.1.14-.33.33-.26.37a1,1,0,0,0,.15-.24s0,0,.07,0,.09-.18.19-.24-.06-.05,0-.22,0-.06.06-.09,0,0,0,.07.12-.13.2-.17,0-.05,0,0c.12-.18.31-.25.38-.48a5.85,5.85,0,0,1,.66-.66c0-.13.13-.18.2-.27s0-.05,0-.16a1.12,1.12,0,0,1-.22.13c0,.1,0,.05,0,.18a1.91,1.91,0,0,0-.27.35c-.08,0,.05-.17.05-.22s-.22.26-.23.19c-.16.15-.26.39-.45.49a4,4,0,0,1,.23-.34.53.53,0,0,1-.2.16c0,.07,0,.09-.08.11-.13.26-.36.35-.51.57s0,0,0-.1-.11.14-.19.19a.43.43,0,0,0,.23-.08s0,0,0,.06a.65.65,0,0,1-.16.17s0-.09-.08,0,0,.08,0,.12-.07.06-.09.11,0-.08,0-.11.15-.12.19-.24C61.7,19.15,61,20,60.3,20.68c0,.12-.24.34-.32.33s.08,0,.06.15-.15.08-.26.25c0,0,0-.05,0-.09-.12.12-.2.29-.32.39.06-.24-.3.26-.53.39s0,0,.08,0c-.18.21-.11.1-.29.27,0,.05.08,0,.06,0a.5.5,0,0,1-.15.14s0,.07,0,.15-.1,0-.18.21c0,0,0,0,0-.11a3.85,3.85,0,0,0-.57.61s0,0,0-.07c-.17.29-.41.48-.59.75,0,0,0,0,0,0a1.39,1.39,0,0,0-.2.34c-.08.06-.09.05,0-.05a5.49,5.49,0,0,0-.78.93c-.1.08,0-.06-.11,0,0-.07.1-.09.12-.17a6.58,6.58,0,0,1-.71.86c0,.08.19-.17.1,0s-.12.11-.18.15a1.23,1.23,0,0,1-.22.31s0-.08,0-.14a5.89,5.89,0,0,1-.6.79s0-.06,0,0-.08.08-.13.1a.64.64,0,0,1-.09.21s-.06,0-.13.05a3.89,3.89,0,0,1-.32.39c-.07,0,.05-.11.08-.12-.13,0-.27.32-.29.44s-.05,0,0-.12a5.19,5.19,0,0,1-.44.58c-.06.05,0-.13.08-.12s-.15.08-.26.2c0,0,.13-.16,0-.08s.11-.09.12-.17-.14.17-.23.23,0,.11-.08.17,0,0,.09-.05a2,2,0,0,0-.22.38c-.12.1,0-.1-.09,0s-.16.23-.13.28c-.19.2-.42.43-.54.59s0,0,0,.14,0-.14-.19.06c0-.1.11-.14.16-.22s-.2.24-.29.32,0,0,0,.07-.12.14-.21.15,0,.08-.07.19-.18.08-.25.27,0,0-.12.05a.51.51,0,0,1,.14-.18,15.56,15.56,0,0,0-1.27,1.42s0-.08,0-.17c-.09.08-.15.2-.24.27s0,.08,0,.09a3.43,3.43,0,0,0-.73.9c-.09,0,.06-.12,0-.14l-.29.33s0,0,0,.07-.44.36-.46.52-.06,0-.16.07-.09.2-.19.24c0,.2-.39.41-.52.68,0,0-.1.06-.08,0a.88.88,0,0,1-.33.38,1.18,1.18,0,0,1-.11.19s0,0-.07,0-.12.19-.08.1a1.39,1.39,0,0,1-.31.36s0,.08-.08.17,0,0,0-.08-.22.26-.34.37c.06-.14.12-.12.13-.22a.88.88,0,0,0-.21.22s0-.07,0-.12.2-.13.24-.27c-.08.12-.09,0-.18.13s0-.11.1-.21,0,.06,0,.09a.31.31,0,0,0,.12-.22.88.88,0,0,1,.23-.24c-.17.18-.08.2-.21.33s.15-.15,0,0,0-.08-.09.05,0,0,.08,0a.27.27,0,0,1-.08.1c.11-.08.36-.46.55-.63-.08,0,.08-.1,0-.15a2.76,2.76,0,0,0-.28.39c-.14-.05.25-.44.34-.6s.07.08.2,0c0-.07.16-.16.19-.29-.06.09-.27.29-.24.16s.1-.16.29-.32,0,.08.13,0l.07-.18s-.08.06-.06,0c.17-.28.39-.5.57-.77-.09,0-.13.15-.21.21.1-.18.3-.46.41-.45a.67.67,0,0,0-.16.24c0,.07.12-.11.1,0,.13-.17.2-.37.35-.41a.38.38,0,0,1,.15-.18s0-.09,0-.07c.18-.16.42-.55.55-.58l.27-.36s0,0,0,.07,0-.1.08-.17.08,0,.06.09c.11-.1.22-.27.3-.25s-.11,0,0-.16c-.16.13,0,.13-.2.29-.05,0,0-.06,0-.17s.39-.33.54-.55c.1,0,0,.12-.1.21a.82.82,0,0,0,.21-.27s0,0-.07,0,.1-.07.08-.12c.15-.1.21-.34.39-.4,0-.06.17-.28.22-.26a1.18,1.18,0,0,1,.39-.53c0-.06,0,0,0-.08s.24-.28.28-.22l.11-.24c.17-.15,0,.11.11,0a1,1,0,0,1,.27-.34c0-.05.07-.18.08-.25s-.06.2.07.11c-.06-.09.22-.41.39-.53s0-.18.18-.31c0,0,0,.17.08,0,0,0,0,.09-.06.2a.12.12,0,0,0,.05-.05l0,0c.06-.11,0-.07,0-.17s.13-.07.27-.19.17-.17.24-.29a.66.66,0,0,0-.28.29s-.08,0-.15.07c.1-.11.06-.13.2-.22s-.08,0,0-.11a3.74,3.74,0,0,0,.49-.49c0-.05-.15.12-.19.19s.15-.28.26-.38-.15.18-.07.14.07-.13.2-.24c-.07.23.32-.4.53-.49a3.47,3.47,0,0,1,.26-.48c0,.09.35-.39.38-.48s.09,0,.07,0,.13-.15.2-.29.15-.18.29-.38c0,0,0,.07.11,0,.24-.37.42-.5.68-.85,0,0,0,.07.09,0s.14-.21.24-.24c-.09,0,0-.21.17-.33s-.14.16-.08.17.08-.07.13-.1-.06,0,0-.12,0,.1,0,.07.18-.22.15-.24,0,.06.14-.08,0-.15.13-.28.07-.07.18-.13.09-.16.17-.22,0,.06,0,.07.39-.43.28-.46c.1-.07.12-.24.22-.31s0,.11-.08.22c.09-.08.16-.19.25-.27s.29-.45.36-.56-.08.18-.11.24,0,0,0,0,0,.11-.15.24c.16-.16.18-.21.36-.28s0,0,0-.09a10.61,10.61,0,0,0,.84-.95s.16-.25.07-.19c.09-.17.24-.22.2-.29s0,.05.05.07a.57.57,0,0,1-.13.1c0,.11.09,0,0,.17a1.89,1.89,0,0,0,.22-.36s0,0,.07,0-.06,0-.06,0,.14-.14.18-.25a14,14,0,0,0-1.05,1.12c-.11.09,0-.1-.08,0s0,.09-.08.17,0-.13.06-.25a4.29,4.29,0,0,0,.65-.72c.07-.08.16-.12.22-.2-.09,0-.07,0,.08-.12s0,0,0-.1c.22-.13.22-.22.37-.39s0,0,.12-.05,0-.14.12-.23-.08.17,0,.06a.15.15,0,0,1,.09-.1s0-.06,0-.13a4.29,4.29,0,0,1,.49-.43c0-.12.16-.16.23-.31s-.08.11-.08.17a1.59,1.59,0,0,1,.24-.27c0-.06.05-.16.11-.19s0,0,.06-.21c-.17.21-.27.23-.38.43-.11,0,0-.1-.07,0s-.06.16,0,.16a1.37,1.37,0,0,0-.13.2s-.17.14-.24.24.07-.14.06-.21a.35.35,0,0,0-.11.19.8.8,0,0,0-.26.2s0,.14-.08.23,0-.07-.15,0-.12.13-.17.2-.06,0-.07,0a9,9,0,0,1-.71.8c-.09.2-.28.28-.39.47-.29.18-.52.71-.76.78,0,.08-.08.11-.11.19a1,1,0,0,0-.21.15c.07-.12.17-.17.16-.27,0,.09.07,0,.16-.12s-.05,0-.11.07a1.41,1.41,0,0,1,.29-.38c.06,0-.08.15-.12.17s.27-.31.38-.42c-.07,0-.09.12-.17.15a5.41,5.41,0,0,0,.43-.58c.08-.06-.11.21,0,.09l.07-.14a3.33,3.33,0,0,0,.53-.66c-.09.19.1-.07.23-.19s0-.12-.06,0c.11-.24.2-.17.3-.37s.07,0,.07.05a.47.47,0,0,0,.12-.24c.07-.13.3-.25.27-.34s.21-.19.19-.13a2.29,2.29,0,0,1,.51-.63.89.89,0,0,0-.15.29l.26-.2c.05-.09-.12,0,0-.07s-.1.11-.14.15.17-.37.33-.44.22-.46.4-.57l.07-.13c.08-.07,0,0,0,.05s.14-.26.26-.32-.07.12-.08.17a2.67,2.67,0,0,1,.64-.73,1,1,0,0,0,.19-.29c-.06,0-.08,0-.05,0s.32-.39.51-.53a.41.41,0,0,1-.14.21,2.46,2.46,0,0,0,.42-.43c.07-.16-.07.09-.14.09s.15-.17.2-.29,0,0,0-.07-.08.09-.11.06a.63.63,0,0,0,.07-.12c.16-.06.18-.11.34-.25,0,.13-.16.15-.2.28.07,0,.11-.11.18-.14s.11-.24.2-.34,0,.05,0,.08.12-.13.2-.16-.09,0-.08,0c.13-.21.32-.34.45-.54,0-.05-.1.14-.18.19s0,0,0,0a1.26,1.26,0,0,0,.23-.34s-.13.1-.14.19.06-.17-.08,0c0-.11.19-.29.05-.21s-.07.12,0,.07-.07.06-.1.09,0,.1-.07.19a3,3,0,0,0-.38.47c-.22.1-.33.37-.51.53,0-.08.23-.31.2-.4a8,8,0,0,0-.63.8.34.34,0,0,0-.23.24c-.09,0-.09-.05,0-.17s-.07.09-.12.12-.06.17.06.08a4.89,4.89,0,0,0-.45.55l.32-.52c-.12,0-.31.41-.43.58,0,0-.19.16-.26.26s0,0,0,0a.7.7,0,0,0-.06.09s0-.06-.05,0c-.19.21-.34.46-.52.68,0,0,0,0,0,0,.18-.24.22-.35.39-.58-.18.14-.31.35-.48.51s.07-.07.11-.07a.83.83,0,0,1-.09.16c-.12.09-.08,0-.18.08s0,.05,0,.12a.18.18,0,0,0,.06-.09c.07,0,.11,0,.12-.06.16-.11,0,.09-.07.19.09-.16-.15.11-.09,0-.07.05-.09.18-.15.24s0-.17.11-.24-.09,0-.05-.08c-.1.08-.15.21-.25.28s.07-.13.08-.23c-.11.05-.15.21-.26.26s.11-.1.17-.1-.13.16-.2.22c.12-.08.08,0,.09.07s0,.05-.06.08,0-.09-.08,0-.6.73-.61.61c0,.1-.12.17-.1.21s-.07,0-.16.05c.11-.12.2-.29.32-.4a2.69,2.69,0,0,0-.48.51s0-.07-.08,0a.9.9,0,0,1-.32.39c0,.06-.08.16,0,.14-.1,0-.14.19-.28.29.11,0-.16.24-.13.27-.17.16.06-.15-.07-.05a.71.71,0,0,1-.18.26s0-.06,0-.09c.21-.29.45-.51.59-.75-.08,0-.09.14-.18.15-.21.44-.61.61-.83,1-.34.24-.79.92-1,1l-.27.29c0,.12-.19.25-.29.4,0,0,0-.07-.05,0s-.13.24-.15.18c-.2.34-.49.54-.71.85.08-.05,0,.11,0,.16s.06-.15,0-.14a5.3,5.3,0,0,0-.6.73c0-.07-.29.21-.31.31s-.09.09-.15.11c0,.23-.59.62-.79,1-.26.13-.5.7-.72.78a1.18,1.18,0,0,0,.19-.24c-.09,0-.26.34-.44.51s-.36.31-.34.38-.1.07-.15.11c-.13.22-.31.37-.43.58s-.59.64-.88,1q-4.56,5.08-9,10.32l-4.44,5.26-3.16,3.85-3.82-4.36c0-.09.76.76.81.78.5.7,1.16,1.26,1.67,2,.07,0,.1,0,.19.14s0,0-.09-.05.22.17.26.31,0-.06.11,0a2.21,2.21,0,0,0,.39.54c.12.14.12.11.18.14s.11.2.18.2v0s.08.06.12.11a.48.48,0,0,0,.15-.22s0,0,0,0,0,0,0,0a.45.45,0,0,0,.15-.18s0-.06.08-.1a4.86,4.86,0,0,1,.38-.41c0-.11.29-.35.41-.49s.3-.47.43-.53a2.24,2.24,0,0,1,.53-.61c.08-.13-.08,0,0-.11s.16-.13.11-.06a5.22,5.22,0,0,1,.33-.45c.06,0,0,0,0,0a6.22,6.22,0,0,1,.43-.58c.06.05,0,0,.15-.12s0-.1.08-.17,0,0,.1,0c.05-.19.33-.35.49-.67.05,0,.06,0,.05,0,.24-.32.85-1,.89-1.12s.29-.26.38-.48a1.19,1.19,0,0,0,.41-.44l2.43-2.84c0-.06,0,0,0-.08l.23-.19c.41-.59,1.12-1.24,1.58-1.94.06,0,0,0,.1,0a8.63,8.63,0,0,1,.6-.73s-.13,0,.05-.28c.08,0,0,0,.18-.08s-.07.2-.14.2.19-.11.15-.13c.32-.26.53-.68.86-.93,0-.14.21-.33.38-.43s0,0,0,0c.27-.26.5-.58.77-.84,0,0,0,0,0-.07a16.69,16.69,0,0,1,1.15-1.25s0,0,0,0c.41-.45.78-.94,1.21-1.34.25-.37.75-.87,1.1-1.28.07-.12,0,0,0-.14l.09-.1c0,.2.31-.27.45-.39s-.11.11-.16.12.08-.14.11-.19c.23-.06.47-.47.72-.67.07-.12-.05,0,0-.14s.07-.06.09-.1,0,.07,0,.12a.51.51,0,0,0,.19-.24c.26-.19.19-.23.42-.43,0-.06-.08,0-.08,0a.24.24,0,0,1,.08-.06c0-.07,0-.05-.07,0,.07-.18.2-.29.27-.46s.12-.1.13-.05c.09-.11.13-.3.25-.38s0,.12-.05.16.12-.18.08-.17.16-.12.2-.22,0,.09.08,0,.38-.59.43-.53a1.13,1.13,0,0,0,.27-.36c.17-.07.28-.35.38-.35,0-.24.45-.42.58-.72s.36-.43.57-.61-.11.14,0,0c.24-.42.61-.65.87-1-.05,0-.08.08-.13.1s0-.05,0,0c.14-.15.3-.26.44-.41s-.05,0-.09,0,.11-.11.11-.19.05,0,.11-.06c0-.24.37-.37.5-.65.1-.07.12-.05.05.07.08,0,.12-.14.19-.19s-.06,0-.1,0a.72.72,0,0,1,.16-.24s0,0,0,.1a4.77,4.77,0,0,1,.45-.54s0,.09.08,0,.54-.67.66-.89c.08,0,.24-.23.13,0,.11-.1.1-.13.08-.17s.18,0,.28-.24c-.07,0-.09.1-.15.14s0-.06,0-.05a3.86,3.86,0,0,0,.65-.79c0,.06,0,0,.15,0s-.06,0-.12,0c.07-.21.26-.23.34-.43s0,.13.09.07,0-.1,0-.17.11-.07.14-.14,0,.08,0,.13.18-.25.12-.23c.19-.12.15-.17.31-.23a1.08,1.08,0,0,1,.31-.36c0-.05-.1,0,0-.12l-.14.08c-.08.09,0,.09-.13.15s0,.06,0,0c-.14.16-.55.67-.54.49,0,0-.07.13-.1.19s-.06-.05,0-.16-.28.31-.15.24c-.09.13-.21.2-.27.36s.06-.15,0-.14-.28.38-.27.24c-.07,0-.06.11,0,.08a1.28,1.28,0,0,1-.26.26s0,0,0,.07-.11.11-.15.18,0,0,0-.07a3.76,3.76,0,0,1-.56.69c-.06,0,.07-.09.07-.14s-.12.16-.22.2c-.1.21-.2.09-.3.31l.14-.14c0,.11-.12.13-.15.24s0,0,0-.07-.06.1-.11.12a3.14,3.14,0,0,1-.59.7s0,0,0,0a11.11,11.11,0,0,1-.78.88s0-.07,0-.12-.15.21-.13.22c-.12.17,0-.05-.18.09s.12-.06.07,0a3.41,3.41,0,0,1-.56.63c0,.14-.12.21-.22.36s-.05,0-.13.05a2.91,2.91,0,0,1-.4.51c-.05,0,.1-.16.14-.21a1.45,1.45,0,0,0-.36.46c-.09.08,0-.06-.1,0,0-.1.15-.19.12-.22a5.94,5.94,0,0,0-.66.88c-.14.12,0-.14-.07-.05a6,6,0,0,1-.73.78.61.61,0,0,1-.26.3c0,.07.05,0,0,.11S53,25,52.91,25a9.92,9.92,0,0,0-.85,1c-.18.11-.28.32-.46.42s-.19.22-.25.39-.05,0-.12.05c-.51.59-1,1.21-1.56,1.75,0,0,0,.12,0,0a13.79,13.79,0,0,0-1.28,1.46c-.09.14-.24.19-.34.32s0,0,0,0a2.14,2.14,0,0,0-.48.56l-.17.1a18.35,18.35,0,0,1-1.35,1.54s0,0,0,0c-.8.87-1.55,1.81-2.34,2.69a13.52,13.52,0,0,1-1,1.16,3.12,3.12,0,0,1-.47.52l-.06.14c-.14,0-.27.35-.47.47-.32.49-.91,1-1.31,1.6l-.11.07c-.52.72-1.13,1.17-1.65,1.89-.28.23-.44.52-.72.75-.11.22-.33.32-.45.54a15.52,15.52,0,0,0-1.22,1.33c-.45.53-.9.72-1.34,1.27l-.31.12h0v0s0,0,0,0v.05s0,0,0,0,0,0,0,0v0s0,0,0,0l-.18-.18L14,23.2,34.59,52.7h0l.27-.32.26-.29.11-.13,0,0,.4-.46.22-.25v0l.3-.34.2-.23.13-.15.17-.2.13-.14,1.33-1.54.08-.09.58-.67.23-.27a4.41,4.41,0,0,0,.5-.58l.09-.09.12-.14.1-.12.07-.07.09-.12.48-.54.14-.17.25-.29.11-.12.1-.12.68-.78.18-.2.21-.25.35-.4L43,43l.15-.17a3.29,3.29,0,0,1,.27-.31l.15-.18.3-.34.09-.11,1-1.19,0-.06.16-.18.35-.41.51-.58,0-.06.21-.23,0,0,.1-.11.06-.08.08-.09,0,0,.08-.09,0,0,.18-.21h0l.13-.15h0l.14-.17,0,0L47.4,38l.34-.39.09-.09.07-.09,0,0,.14-.17.23-.26,0,0,.18-.22.6-.68.21-.24.4-.47.45-.52,0,0,1.77-2,0-.06.22-.25.07-.08.24-.28h0L53.47,31a1.54,1.54,0,0,0,.58-.66c.1-.07-.07.16.05.07s.3-.34.44-.51,0-.05,0-.12,0,.06.06,0,0-.05.06-.14,0,.05,0,0,.2-.21.16-.24a.19.19,0,0,0,.07-.06s0,0,0,.08a4.41,4.41,0,0,0,.66-.76c.23-.19.13-.19.27-.29a2.07,2.07,0,0,1,.26-.48l.45-.44s0,.05,0,.09a.88.88,0,0,0,.19-.24c0-.18.54-.56.71-.87l-.8.85A1.58,1.58,0,0,1,56.9,27c0-.08-.12.13-.17.15l.1-.2c.05,0,0,0,.09,0,.17-.24.1-.31.35-.53,0,0-.12.2-.15.29s.08,0,.06,0a1,1,0,0,1,.27-.46s0,0,0,.11c.11-.08.11-.28.27-.41s0,.11.09,0,0,0,0,0,.11-.14.05-.16.2-.19.13-.2.1-.14.16-.17-.1.23,0,.22l.17-.27c.07-.05,0,0,.12-.05s.27-.3.4-.46-.08.11-.08.17c.19-.17.14-.33.35-.46,0-.05,0-.15.11-.18s-.07.07-.11.06l0-.1c.15-.12.26-.31.42-.42s-.14.25-.24.28a.82.82,0,0,1-.15.24c.07-.08.29-.22.35-.4s0,.08.12,0a3,3,0,0,1,.51-.7c.07,0-.06.09-.06.14.09-.11.07,0,.16-.1s.24-.28.33-.45.15-.19.35-.53a3.39,3.39,0,0,1-.28.34c0,.07,0,.06,0,0a.85.85,0,0,1-.17.2c-.07.05.05-.1.07-.12a.84.84,0,0,0-.39.36,1.7,1.7,0,0,0-.48.51c-.07,0-.06,0-.11.12a3.34,3.34,0,0,0-.71.74c-.05,0-.25.27-.23.14a1.57,1.57,0,0,1-.18.25c-.08,0-.12.13-.2.17s0,0,0,.09a.25.25,0,0,0-.16.17s-.1,0-.12.1.08-.17,0-.06a1.72,1.72,0,0,1-.56.63c-.09.08,0,.06-.06.14l-.06.09c-.1.07,0,0-.15.06a4.13,4.13,0,0,1-.64.73,1.59,1.59,0,0,1-.13.22c.14-.09.07-.13.19-.23,0,.09,0,.06.07,0-.1.22-.25.34-.32.34s.14-.09.17-.2c-.09.11-.18.11-.12,0l-.43.46c0-.09,0-.05-.13.05a.65.65,0,0,1,.25-.22c0-.06-.08,0,0-.05-.07.1-.17.17-.25.27s.07,0,.14,0a3.33,3.33,0,0,0-.36.46s.07,0,.05.07,0,0-.15.06,0,0,.05-.1c-.17.09-.43.47-.63.58a3.56,3.56,0,0,1-.52.63c-.09,0,.09-.18.07-.25-.16.13-.12.25-.21.21s0,.1.06.09a3.35,3.35,0,0,1-.47.52c0,.12-.17.27-.28.39s0,0,0-.08a.32.32,0,0,1,.13-.1c0-.05,0-.06,0-.05l0-.07c-.1.07-.14.21-.26.25a1.39,1.39,0,0,1,.15-.19c0-.08-.15.13-.2.17.09-.24-.18.19-.32.29,0,0,0,.1-.05.21,0-.12-.09,0-.14,0a.16.16,0,0,1-.06.08c.08,0-.07.17-.07.24a1.71,1.71,0,0,0-.38.43c-.09.06,0,0,0-.07a3.38,3.38,0,0,1-.35.3l-.06.14.11-.07c0-.14.17-.18.25-.27-.08.16-.22.22-.3.37-.07-.11-.27.24-.48.39.07-.06.12-.17.2-.22s-.19.17-.26.25,0,.06,0,.13l0,0,0,0s0,0-.09,0a.16.16,0,0,1-.08.1s0,.06,0,.1l-.09.08-.1.08h0l-.12.11-.05,0s0,0,0,0l-1,.91s0,0,0,0c.12-.1.21-.23.32-.34s0,0,0,0,.05,0,.14-.09a.45.45,0,0,1,.1-.13c-.07-.12.23-.23.3-.43s0,.08.13-.05-.07,0,0-.15-.12.14-.19.18,0,0,.07,0a.88.88,0,0,1-.22.25s.06-.09,0-.15a2.85,2.85,0,0,0,.25-.33c.1-.07,0,.08.12,0,.05-.29.6-.75.87-1.08,0,0-.05.14,0,.12-.22.23-.44.46-.66.71.08,0,.14-.13.08,0l.21-.27s0,.12.09,0,.07-.14.18-.26,0,.06.11,0a2.37,2.37,0,0,0,.4-.56s.07,0,.06,0,0,0-.09.11c.16-.12.27-.31.42-.43l.11-.24a.62.62,0,0,0,.18-.08c0-.16-.1,0-.15,0s.21-.12.25-.27,0,.17.12.06c0,0,0,0,0,0a3.16,3.16,0,0,1,.51-.58c.06-.14-.11,0-.18.08.07-.11.09-.29.2-.34s-.09.11,0,.12.07-.12.14-.14,0,0,.07-.19.08,0,0,.06c.14-.11.06-.2.19-.29s-.08.19,0,.1,0-.11.06-.19l.09-.1s-.1.17,0,.17.11-.07.24-.16a5.85,5.85,0,0,0,.56-.68c-.08.2.38-.38.55-.53,0,.06-.21.23-.26.38.21-.17.3-.44.47-.53,0,0,0,0-.07,0s.12-.14.15-.24c.23-.11.39-.44.54-.49.17-.28.32-.37.44-.62-.08.09,0,0-.11.07.2-.34.34-.32.41-.27s0-.08,0-.16.19-.21.3-.3-.07.12-.11.2c.07-.08.35-.35.4-.42s.09,0,0,0,.09-.1.13-.16,0,0-.06,0a6,6,0,0,0,.73-.76l.15-.09c0-.06.09-.09.11-.17.26-.12.39-.44.64-.57a2.14,2.14,0,0,1,.62-.65c-.1.17-.09.2-.17.33.22-.26.39-.57.54-.65-.06-.06.07-.28,0-.29l.36-.34c-.07-.07-.43.44-.49.33s.11-.07.16-.11.18-.21.23-.36c0,0,0,.08.15,0,0,0,0-.12.09-.25s.25-.15.22-.21.08,0,.17-.1,0,0,0,.12a1.34,1.34,0,0,0,.28-.34c.1,0,0,.16.06.09s0-.16.13-.22,0-.12-.07,0c.11-.16.1-.13.11-.24s.12,0,.15-.13-.08,0-.13.05a1.81,1.81,0,0,0,.18-.21c.06,0-.06.16,0,.07s.14-.19.11-.12a1.57,1.57,0,0,1,.57-.61s0-.11,0-.13-.06,0-.16.1,0,0,.05,0a6.43,6.43,0,0,1-.59.58c.13-.21.33-.32.46-.53a1.55,1.55,0,0,1-.27.24c.07-.12.19-.18.24-.34s0,.09.09,0a.83.83,0,0,0,.09-.16c.07,0,0,0,0,.07s.08-.11.15-.13.15-.21.12-.28c.14-.11,0,.07.15,0a.94.94,0,0,1,.33-.32c.12-.19.16-.14.27-.31s-.06.09-.06.14c.15-.11.24-.29.39-.41s0-.1,0-.15.2-.26.18-.31,0,.1.08,0,.12-.17.2-.22,0-.07.08-.17-.06.18,0,.19-.15.06-.16.17.22-.19.29-.32,0,0,.12-.05.29-.46.36-.46,0-.06,0,0a.81.81,0,0,1,.26-.26c0-.09.1-.13.12-.22C65.21,16.69,65.05,16.71,65,16.87Z"/><path class="cls-97" d="M40.76,29.15l.37,5.24-6.54,6.75L28,34.39h0l1.09-15.58c1.18-.65,2.41-1.29,3.68-1.92l-.37,16.16,2.15,2.08,2.15-2.08-.44-17.81q1.64-.74,3.36-1.44ZM25.58,31.87l1.17-11.71c-1.85,1.08-3.58,2.18-5.21,3.27l.35,4.64ZM20,24.49l-.94.67.69.72ZM54.65,8.93c-1,.25-2,.51-3,.78l1.8,7.1L46.58,23.5,44.85,11.84c-1.08.38-2.14.76-3.18,1.16l1.91,18.87L57.3,17.71h0ZM14,29.07,34.59,52.7h0L16.65,27Q15.27,28,14,29.07Z"/></g></g></svg>