<svg xmlns="http://www.w3.org/2000/svg" xmlns:xlink="http://www.w3.org/1999/xlink" viewBox="0 0 341.75 60"><defs><style>.cls-1{fill:none;}.cls-2{fill:#eaeef1;}.cls-3{fill:url(#名称未設定グラデーション_59);}.cls-4{fill:url(#名称未設定グラデーション_59-2);}.cls-5{fill:url(#名称未設定グラデーション_59-3);}.cls-6{fill:url(#名称未設定グラデーション_59-4);}.cls-7{fill:url(#名称未設定グラデーション_59-5);}.cls-8{fill:url(#名称未設定グラデーション_59-6);}.cls-9{fill:url(#名称未設定グラデーション_59-7);}.cls-10{fill:url(#名称未設定グラデーション_59-8);}.cls-11{fill:url(#名称未設定グラデーション_59-9);}.cls-12{fill:url(#名称未設定グラデーション_59-10);}.cls-13{fill:url(#名称未設定グラデーション_59-11);}.cls-14{fill:url(#名称未設定グラデーション_59-12);}.cls-15{fill:url(#名称未設定グラデーション_59-13);}.cls-16{fill:url(#名称未設定グラデーション_59-14);}.cls-17{fill:url(#名称未設定グラデーション_59-15);}.cls-18{fill:url(#名称未設定グラデーション_59-16);}.cls-19{fill:url(#名称未設定グラデーション_59-17);}.cls-20{fill:url(#名称未設定グラデーション_59-18);}.cls-21{fill:url(#名称未設定グラデーション_59-19);}.cls-22{fill:url(#名称未設定グラデーション_59-20);}.cls-23{fill:url(#名称未設定グラデーション_59-21);}.cls-24{fill:url(#名称未設定グラデーション_59-22);}.cls-25{fill:url(#名称未設定グラデーション_59-23);}.cls-26{fill:url(#名称未設定グラデーション_59-24);}.cls-27{fill:url(#名称未設定グラデーション_59-25);}.cls-28{fill:url(#名称未設定グラデーション_59-26);}.cls-29{fill:url(#名称未設定グラデーション_59-27);}.cls-30{fill:url(#名称未設定グラデーション_59-28);}.cls-31{fill:url(#名称未設定グラデーション_59-29);}.cls-32{fill:url(#名称未設定グラデーション_59-30);}.cls-33{fill:url(#名称未設定グラデーション_59-31);}.cls-34{fill:url(#名称未設定グラデーション_59-32);}.cls-35{fill:url(#名称未設定グラデーション_59-33);}.cls-36{fill:url(#名称未設定グラデーション_59-34);}.cls-37{fill:url(#名称未設定グラデーション_59-35);}.cls-38{fill:url(#名称未設定グラデーション_59-36);}.cls-39{fill:url(#名称未設定グラデーション_59-37);}.cls-40{fill:url(#名称未設定グラデーション_59-38);}.cls-41{fill:url(#名称未設定グラデーション_59-39);}.cls-42{fill:url(#名称未設定グラデーション_59-40);}.cls-43{fill:url(#名称未設定グラデーション_59-41);}.cls-44{fill:url(#名称未設定グラデーション_59-42);}.cls-45{fill:url(#名称未設定グラデーション_59-43);}.cls-46{fill:url(#名称未設定グラデーション_59-44);}.cls-47{fill:url(#名称未設定グラデーション_59-45);}.cls-48{fill:url(#名称未設定グラデーション_59-46);}.cls-49{fill:url(#名称未設定グラデーション_59-47);}.cls-50{fill:url(#名称未設定グラデーション_59-48);}.cls-51{fill:url(#名称未設定グラデーション_59-49);}.cls-52{fill:url(#名称未設定グラデーション_59-50);}.cls-53{fill:url(#名称未設定グラデーション_59-51);}.cls-54{fill:url(#名称未設定グラデーション_59-52);}.cls-55{fill:url(#名称未設定グラデーション_59-53);}.cls-56{fill:url(#名称未設定グラデーション_59-54);}.cls-57{fill:url(#名称未設定グラデーション_59-55);}.cls-58{fill:url(#名称未設定グラデーション_59-56);}.cls-59{fill:url(#名称未設定グラデーション_59-57);}.cls-60{fill:url(#名称未設定グラデーション_59-58);}.cls-61{fill:url(#名称未設定グラデーション_59-59);}.cls-62{fill:url(#名称未設定グラデーション_59-60);}.cls-63{fill:url(#名称未設定グラデーション_59-61);}.cls-64{fill:url(#名称未設定グラデーション_59-62);}.cls-65{fill:url(#名称未設定グラデーション_59-63);}.cls-66{fill:url(#名称未設定グラデーション_59-64);}.cls-67{fill:url(#名称未設定グラデーション_59-65);}.cls-68{fill:url(#名称未設定グラデーション_59-66);}.cls-69{fill:url(#名称未設定グラデーション_59-67);}.cls-70{fill:url(#名称未設定グラデーション_59-68);}.cls-71{fill:url(#名称未設定グラデーション_59-69);}.cls-72{fill:url(#名称未設定グラデーション_59-70);}.cls-73{fill:url(#名称未設定グラデーション_59-71);}.cls-74{fill:url(#名称未設定グラデーション_59-72);}.cls-75{fill:url(#名称未設定グラデーション_59-73);}.cls-76{fill:url(#名称未設定グラデーション_59-74);}.cls-77{fill:url(#名称未設定グラデーション_59-75);}.cls-78{fill:url(#名称未設定グラデーション_59-76);}.cls-79{fill:url(#名称未設定グラデーション_59-77);}.cls-80{fill:url(#名称未設定グラデーション_59-78);}.cls-81{fill:url(#名称未設定グラデーション_59-79);}.cls-82{fill:url(#名称未設定グラデーション_59-80);}.cls-83{fill:url(#名称未設定グラデーション_59-81);}.cls-84{fill:url(#名称未設定グラデーション_59-82);}.cls-85{fill:url(#名称未設定グラデーション_59-83);}.cls-86{fill:url(#名称未設定グラデーション_59-84);}.cls-87{fill:url(#名称未設定グラデーション_59-85);}.cls-88{fill:url(#名称未設定グラデーション_59-86);}.cls-89{fill:url(#名称未設定グラデーション_59-87);}.cls-90{fill:url(#名称未設定グラデーション_59-88);}.cls-91{fill:url(#名称未設定グラデーション_59-89);}.cls-92{fill:url(#名称未設定グラデーション_59-90);}.cls-93{fill:url(#名称未設定グラデーション_59-91);}.cls-94{fill:url(#名称未設定グラデーション_59-92);}.cls-95{fill:url(#名称未設定グラデーション_59-93);}.cls-96{fill:url(#名称未設定グラデーション_59-94);}.cls-97{fill:url(#名称未設定グラデーション_116);}.cls-98{fill:#c6000b;}.cls-99{fill:#006446;}.cls-100{fill:#30a6d9;}</style><linearGradient id="名称未設定グラデーション_59" x1="65.29" y1="23.87" x2="65.54" y2="23.87" gradientUnits="userSpaceOnUse"><stop offset="0" stop-color="#fccf00"/><stop offset="0.3" stop-color="#f08c00"/><stop offset="0.6" stop-color="#ffd800"/></linearGradient><linearGradient id="名称未設定グラデーション_59-2" x1="65.86" y1="23.31" x2="66.07" y2="23.31" xlink:href="#名称未設定グラデーション_59"/><linearGradient id="名称未設定グラデーション_59-3" x1="54.63" y1="34.72" x2="54.67" y2="34.72" xlink:href="#名称未設定グラデーション_59"/><linearGradient id="名称未設定グラデーション_59-4" x1="54.5" y1="34.82" x2="54.63" y2="34.82" xlink:href="#名称未設定グラデーション_59"/><linearGradient id="名称未設定グラデーション_59-5" x1="71.19" y1="12.3" x2="71.41" y2="12.3" xlink:href="#名称未設定グラデーション_59"/><linearGradient id="名称未設定グラデーション_59-6" x1="71.07" y1="12.61" x2="71.29" y2="12.61" xlink:href="#名称未設定グラデーション_59"/><linearGradient id="名称未設定グラデーション_59-7" x1="62.85" y1="19.41" x2="63.72" y2="19.41" xlink:href="#名称未設定グラデーション_59"/><linearGradient id="名称未設定グラデーション_59-8" x1="37.13" y1="48.52" x2="37.14" y2="48.52" xlink:href="#名称未設定グラデーション_59"/><linearGradient id="名称未設定グラデーション_59-9" x1="71.51" y1="11.67" x2="72.71" y2="11.67" xlink:href="#名称未設定グラデーション_59"/><linearGradient id="名称未設定グラデーション_59-10" x1="59.48" y1="23.36" x2="59.98" y2="23.36" xlink:href="#名称未設定グラデーション_59"/><linearGradient id="名称未設定グラデーション_59-11" x1="68.8" y1="14.77" x2="68.98" y2="14.77" xlink:href="#名称未設定グラデーション_59"/><linearGradient id="名称未設定グラデーション_59-12" x1="67.35" y1="15.13" x2="67.54" y2="15.13" xlink:href="#名称未設定グラデーション_59"/><linearGradient id="名称未設定グラデーション_59-13" x1="69.11" y1="14.45" x2="69.3" y2="14.45" xlink:href="#名称未設定グラデーション_59"/><linearGradient id="名称未設定グラデーション_59-14" x1="69.87" y1="13.36" x2="70.25" y2="13.36" xlink:href="#名称未設定グラデーション_59"/><linearGradient id="名称未設定グラデーション_59-15" x1="67.64" y1="14.82" x2="67.88" y2="14.82" xlink:href="#名称未設定グラデーション_59"/><linearGradient id="名称未設定グラデーション_59-16" x1="66.63" y1="15.91" x2="66.85" y2="15.91" xlink:href="#名称未設定グラデーション_59"/><linearGradient id="名称未設定グラデーション_59-17" x1="59.23" y1="28.12" x2="59.41" y2="28.12" xlink:href="#名称未設定グラデーション_59"/><linearGradient id="名称未設定グラデーション_59-18" x1="64.29" y1="18.21" x2="64.47" y2="18.21" xlink:href="#名称未設定グラデーション_59"/><linearGradient id="名称未設定グラデーション_59-19" x1="65.92" y1="16.44" x2="66.59" y2="16.44" xlink:href="#名称未設定グラデーション_59"/><linearGradient id="名称未設定グラデーション_59-20" x1="58.91" y1="27.84" x2="59.07" y2="27.84" xlink:href="#名称未設定グラデーション_59"/><linearGradient id="名称未設定グラデーション_59-21" x1="60.89" y1="22.33" x2="61.45" y2="22.33" xlink:href="#名称未設定グラデーション_59"/><linearGradient id="名称未設定グラデーション_59-22" x1="61.8" y1="21.74" x2="62.03" y2="21.74" xlink:href="#名称未設定グラデーション_59"/><linearGradient id="名称未設定グラデーション_59-23" x1="61.39" y1="22.18" x2="61.69" y2="22.18" xlink:href="#名称未設定グラデーション_59"/><linearGradient id="名称未設定グラデーション_59-24" x1="60.75" y1="22.93" x2="60.97" y2="22.93" xlink:href="#名称未設定グラデーション_59"/><linearGradient id="名称未設定グラデーション_59-25" x1="62.96" y1="20.16" x2="63.16" y2="20.16" xlink:href="#名称未設定グラデーション_59"/><linearGradient id="名称未設定グラデーション_59-26" x1="62.63" y1="20.9" x2="62.81" y2="20.9" xlink:href="#名称未設定グラデーション_59"/><linearGradient id="名称未設定グラデーション_59-27" x1="65.08" y1="18.46" x2="65.28" y2="18.46" xlink:href="#名称未設定グラデーション_59"/><linearGradient id="名称未設定グラデーション_59-28" x1="63.13" y1="20.33" x2="63.33" y2="20.33" xlink:href="#名称未設定グラデーション_59"/><linearGradient id="名称未設定グラデーション_59-29" x1="60.47" y1="23.26" x2="60.66" y2="23.26" xlink:href="#名称未設定グラデーション_59"/><linearGradient id="名称未設定グラデーション_59-30" x1="59.12" y1="24.62" x2="59.46" y2="24.62" xlink:href="#名称未設定グラデーション_59"/><linearGradient id="名称未設定グラデーション_59-31" x1="56.61" y1="27.22" x2="57.48" y2="27.22" xlink:href="#名称未設定グラデーション_59"/><linearGradient id="名称未設定グラデーション_59-32" x1="57.74" y1="26.18" x2="58" y2="26.18" xlink:href="#名称未設定グラデーション_59"/><linearGradient id="名称未設定グラデーション_59-33" x1="68.93" y1="17.77" x2="69.06" y2="17.77" xlink:href="#名称未設定グラデーション_59"/><linearGradient id="名称未設定グラデーション_59-34" x1="69.02" y1="17.49" x2="69.27" y2="17.49" xlink:href="#名称未設定グラデーション_59"/><linearGradient id="名称未設定グラデーション_59-35" x1="59.8" y1="23.8" x2="60.29" y2="23.8" xlink:href="#名称未設定グラデーション_59"/><linearGradient id="名称未設定グラデーション_59-36" x1="57.08" y1="26.82" x2="57.43" y2="26.82" xlink:href="#名称未設定グラデーション_59"/><linearGradient id="名称未設定グラデーション_59-37" x1="54.43" y1="35.05" x2="54.56" y2="35.05" xlink:href="#名称未設定グラデーション_59"/><linearGradient id="名称未設定グラデーション_59-38" x1="59.5" y1="24.29" x2="59.76" y2="24.29" xlink:href="#名称未設定グラデーション_59"/><linearGradient id="名称未設定グラデーション_59-39" x1="58.05" y1="25.71" x2="58.66" y2="25.71" xlink:href="#名称未設定グラデーション_59"/><linearGradient id="名称未設定グラデーション_59-40" x1="62" y1="27.01" x2="62.33" y2="27.01" xlink:href="#名称未設定グラデーション_59"/><linearGradient id="名称未設定グラデーション_59-41" x1="63.12" y1="25.74" x2="63.54" y2="25.74" xlink:href="#名称未設定グラデーション_59"/><linearGradient id="名称未設定グラデーション_59-42" x1="63.17" y1="25.84" x2="63.61" y2="25.84" xlink:href="#名称未設定グラデーション_59"/><linearGradient id="名称未設定グラデーション_59-43" x1="60.69" y1="28.43" x2="60.92" y2="28.43" xlink:href="#名称未設定グラデーション_59"/><linearGradient id="名称未設定グラデーション_59-44" x1="61.87" y1="27.27" x2="62.21" y2="27.27" xlink:href="#名称未設定グラデーション_59"/><linearGradient id="名称未設定グラデーション_59-45" x1="59.85" y1="29.3" x2="60.03" y2="29.3" xlink:href="#名称未設定グラデーション_59"/><linearGradient id="名称未設定グラデーション_59-46" x1="58.25" y1="31.13" x2="58.58" y2="31.13" xlink:href="#名称未設定グラデーション_59"/><linearGradient id="名称未設定グラデーション_59-47" x1="57.93" y1="31.37" x2="58.18" y2="31.37" xlink:href="#名称未設定グラデーション_59"/><linearGradient id="名称未設定グラデーション_59-48" x1="57.8" y1="31.67" x2="57.95" y2="31.67" xlink:href="#名称未設定グラデーション_59"/><linearGradient id="名称未設定グラデーション_59-49" x1="56.21" y1="33.35" x2="56.31" y2="33.35" xlink:href="#名称未設定グラデーション_59"/><linearGradient id="名称未設定グラデーション_59-50" x1="58.28" y1="30.8" x2="58.69" y2="30.8" xlink:href="#名称未設定グラデーション_59"/><linearGradient id="名称未設定グラデーション_59-51" x1="57.46" y1="31.65" x2="57.64" y2="31.65" xlink:href="#名称未設定グラデーション_59"/><linearGradient id="名称未設定グラデーション_59-52" x1="58.25" y1="31.09" x2="58.37" y2="31.09" xlink:href="#名称未設定グラデーション_59"/><linearGradient id="名称未設定グラデーション_59-53" x1="58.97" y1="30.1" x2="59.59" y2="30.1" xlink:href="#名称未設定グラデーション_59"/><linearGradient id="名称未設定グラデーション_59-54" x1="58.74" y1="30.56" x2="59.06" y2="30.56" xlink:href="#名称未設定グラデーション_59"/><linearGradient id="名称未設定グラデーション_59-55" x1="59.49" y1="29.74" x2="59.69" y2="29.74" xlink:href="#名称未設定グラデーション_59"/><linearGradient id="名称未設定グラデーション_59-56" x1="54.74" y1="34.79" x2="54.88" y2="34.79" xlink:href="#名称未設定グラデーション_59"/><linearGradient id="名称未設定グラデーション_59-57" x1="67.45" y1="17.04" x2="67.7" y2="17.04" xlink:href="#名称未設定グラデーション_59"/><linearGradient id="名称未設定グラデーション_59-58" x1="56.5" y1="30.94" x2="56.7" y2="30.94" xlink:href="#名称未設定グラデーション_59"/><linearGradient id="名称未設定グラデーション_59-59" x1="54.87" y1="32.83" x2="55.14" y2="32.83" xlink:href="#名称未設定グラデーション_59"/><linearGradient id="名称未設定グラデーション_59-60" x1="70.7" y1="13.03" x2="70.88" y2="13.03" xlink:href="#名称未設定グラデーション_59"/><linearGradient id="名称未設定グラデーション_59-61" x1="58.63" y1="28.6" x2="58.79" y2="28.6" xlink:href="#名称未設定グラデーション_59"/><linearGradient id="名称未設定グラデーション_59-62" x1="69.16" y1="17.48" x2="69.34" y2="17.48" xlink:href="#名称未設定グラデーション_59"/><linearGradient id="名称未設定グラデーション_59-63" x1="70.43" y1="13.1" x2="70.61" y2="13.1" xlink:href="#名称未設定グラデーション_59"/><linearGradient id="名称未設定グラデーション_59-64" x1="53.55" y1="34.11" x2="53.78" y2="34.11" xlink:href="#名称未設定グラデーション_59"/><linearGradient id="名称未設定グラデーション_59-65" x1="54.3" y1="33.25" x2="54.47" y2="33.25" xlink:href="#名称未設定グラデーション_59"/><linearGradient id="名称未設定グラデーション_59-66" x1="69.99" y1="17.52" x2="70.25" y2="17.52" xlink:href="#名称未設定グラデーション_59"/><linearGradient id="名称未設定グラデーション_59-67" x1="52.09" y1="35.57" x2="52.68" y2="35.57" xlink:href="#名称未設定グラデーション_59"/><linearGradient id="名称未設定グラデーション_59-68" x1="66.31" y1="20.88" x2="66.48" y2="20.88" xlink:href="#名称未設定グラデーション_59"/><linearGradient id="名称未設定グラデーション_59-69" x1="70.36" y1="17.09" x2="70.55" y2="17.09" xlink:href="#名称未設定グラデーション_59"/><linearGradient id="名称未設定グラデーション_59-70" x1="51.38" y1="36.66" x2="51.54" y2="36.66" xlink:href="#名称未設定グラデーション_59"/><linearGradient id="名称未設定グラデーション_59-71" x1="67.61" y1="19.51" x2="67.88" y2="19.51" xlink:href="#名称未設定グラデーション_59"/><linearGradient id="名称未設定グラデーション_59-72" x1="51.09" y1="36.92" x2="51.34" y2="36.92" xlink:href="#名称未設定グラデーション_59"/><linearGradient id="名称未設定グラデーション_59-73" x1="68.48" y1="18.64" x2="68.77" y2="18.64" xlink:href="#名称未設定グラデーション_59"/><linearGradient id="名称未設定グラデーション_59-74" x1="55.16" y1="32.47" x2="55.41" y2="32.47" xlink:href="#名称未設定グラデーション_59"/><linearGradient id="名称未設定グラデーション_59-75" x1="67.09" y1="19.25" x2="67.33" y2="19.25" xlink:href="#名称未設定グラデーション_59"/><linearGradient id="名称未設定グラデーション_59-76" x1="66.36" y1="18.86" x2="67.05" y2="18.86" xlink:href="#名称未設定グラデーション_59"/><linearGradient id="名称未設定グラデーション_59-77" x1="61.43" y1="25.4" x2="61.71" y2="25.4" xlink:href="#名称未設定グラデーション_59"/><linearGradient id="名称未設定グラデーション_59-78" x1="66.36" y1="18.15" x2="66.68" y2="18.15" xlink:href="#名称未設定グラデーション_59"/><linearGradient id="名称未設定グラデーション_59-79" x1="65.75" y1="19.26" x2="65.9" y2="19.26" xlink:href="#名称未設定グラデーション_59"/><linearGradient id="名称未設定グラデーション_59-80" x1="66.53" y1="18.47" x2="66.74" y2="18.47" xlink:href="#名称未設定グラデーション_59"/><linearGradient id="名称未設定グラデーション_59-81" x1="68.68" y1="15.4" x2="68.88" y2="15.4" xlink:href="#名称未設定グラデーション_59"/><linearGradient id="名称未設定グラデーション_59-82" x1="67.92" y1="16.2" x2="68.16" y2="16.2" xlink:href="#名称未設定グラデーション_59"/><linearGradient id="名称未設定グラデーション_59-83" x1="67.35" y1="17.98" x2="67.54" y2="17.98" xlink:href="#名称未設定グラデーション_59"/><linearGradient id="名称未設定グラデーション_59-84" x1="59.41" y1="28.01" x2="59.41" y2="28.01" xlink:href="#名称未設定グラデーション_59"/><linearGradient id="名称未設定グラデーション_59-85" x1="67.1" y1="18.27" x2="67.31" y2="18.27" xlink:href="#名称未設定グラデーション_59"/><linearGradient id="名称未設定グラデーション_59-86" x1="66.12" y1="20.37" x2="66.27" y2="20.37" xlink:href="#名称未設定グラデーション_59"/><linearGradient id="名称未設定グラデーション_59-87" x1="64.37" y1="22.21" x2="64.66" y2="22.21" xlink:href="#名称未設定グラデーション_59"/><linearGradient id="名称未設定グラデーション_59-88" x1="64.93" y1="20.61" x2="65.26" y2="20.61" xlink:href="#名称未設定グラデーション_59"/><linearGradient id="名称未設定グラデーション_59-89" x1="63.83" y1="22.89" x2="63.96" y2="22.89" xlink:href="#名称未設定グラデーション_59"/><linearGradient id="名称未設定グラデーション_59-90" x1="65.2" y1="19.44" x2="65.37" y2="19.44" xlink:href="#名称未設定グラデーション_59"/><linearGradient id="名称未設定グラデーション_59-91" x1="65.46" y1="19.74" x2="66.18" y2="19.74" xlink:href="#名称未設定グラデーション_59"/><linearGradient id="名称未設定グラデーション_59-92" x1="65.33" y1="20.15" x2="65.57" y2="20.15" xlink:href="#名称未設定グラデーション_59"/><linearGradient id="名称未設定グラデーション_59-93" x1="61.88" y1="20.93" x2="62.01" y2="20.93" xlink:href="#名称未設定グラデーション_59"/><linearGradient id="名称未設定グラデーション_59-94" x1="15.03" y1="35.13" x2="69.95" y2="35.13" xlink:href="#名称未設定グラデーション_59"/><linearGradient id="名称未設定グラデーション_116" x1="15.05" y1="33.01" x2="61.39" y2="33.01" gradientUnits="userSpaceOnUse"><stop offset="0" stop-color="#bec7cb"/><stop offset="1" stop-color="#e3e8ea"/></linearGradient></defs><g id="レイヤー_2" data-name="レイヤー 2"><g id="レイヤー_1-2" data-name="レイヤー 1"><rect class="cls-1" width="74.12" height="60"/><path class="cls-2" d="M44.07,36.85l-.4-5.62L41.88,6.43H37L31.93,9.82l-1.9,27h0l7,7.23Zm-9.32-1.44.56-24.81L37,9.41h1.69l.64,26-2.31,2.23Z"/><polygon class="cls-2" points="26.92 6.43 25.68 14.9 24.92 6.43 21.68 6.43 17.72 24.17 21.18 27.73 22.65 19.34 23.45 30.07 27.41 34.15 29.99 8.18 32.73 6.43 26.92 6.43"/><polygon class="cls-2" points="56.73 3.53 17.31 3.53 10.57 26 37.06 56.46 37.06 56.46 15.03 24.86 19.97 5.29 54.08 5.29 57.31 18.01 49.91 25.18 47.38 8.18 49.7 6.43 43.89 6.43 46.69 34.15 61.39 18.98 61.39 18.98 56.73 3.53"/><path class="cls-3" d="M65.54,23.69a.8.8,0,0,0-.25.36C65.37,23.94,65.55,23.75,65.54,23.69Z"/><path class="cls-4" d="M66,23.23s-.08.06-.07,0a.86.86,0,0,0-.1.16,1.21,1.21,0,0,0,.2-.19S66,23.21,66,23.23Z"/><path class="cls-5" d="M54.63,34.74l0,0,0,0Z"/><path class="cls-6" d="M54.63,34.74l-.13.14C54.48,35,54.6,34.82,54.63,34.74Z"/><path class="cls-7" d="M71.19,12.42c.07-.08.17-.12.22-.24A.57.57,0,0,0,71.19,12.42Z"/><path class="cls-8" d="M71.07,12.73c.08-.07.18-.1.22-.23C71.23,12.59,71.12,12.62,71.07,12.73Z"/><path class="cls-9" d="M63.28,19.49c0-.16.33-.36.44-.58-.33.34-.59.68-.86,1,0,.1.08-.07.12-.07A.81.81,0,0,1,63.28,19.49Z"/><path class="cls-10" d="M37.13,48.54h0v0Z"/><path class="cls-11" d="M72.56,11.08a6.81,6.81,0,0,1-.64.67c-.06.15-.11.17-.17.18s0,0,0,0,0,0-.15.09,0,.12-.11.33a1.25,1.25,0,0,0,.23-.35c.11,0,.15-.14.22-.23s.41-.42.52-.47-.17.07-.21.12c.06-.15.21-.19.27-.35s0,.13.07,0a1.4,1.4,0,0,1,.1-.16C72.51,11.2,72.67,10.73,72.56,11.08Z"/><path class="cls-12" d="M59.48,23.64l.5-.57A3.07,3.07,0,0,0,59.48,23.64Z"/><path class="cls-13" d="M69,14.67l-.13.07s0,.07,0,.11S69,14.76,69,14.67Z"/><path class="cls-14" d="M67.47,15.19l.07-.15c-.09.11-.12.08-.19.11S67.38,15.23,67.47,15.19Z"/><path class="cls-15" d="M69.3,14.34c0-.06-.17.12-.19.22S69.21,14.38,69.3,14.34Z"/><path class="cls-16" d="M70.25,13.14a2.74,2.74,0,0,0-.38.44c.1-.08.06,0,.14-.06S70.16,13.29,70.25,13.14Z"/><path class="cls-17" d="M67.88,14.68l-.12.07c0,.09-.09.12-.12.2A.5.5,0,0,0,67.88,14.68Z"/><path class="cls-18" d="M66.63,16.06a.93.93,0,0,0,.22-.29A2.21,2.21,0,0,0,66.63,16.06Z"/><path class="cls-19" d="M59.23,28.17c0,.15.1-.1.18-.16A1.37,1.37,0,0,0,59.23,28.17Z"/><path class="cls-20" d="M64.29,18.33a1.5,1.5,0,0,0,.18-.24C64.38,18.14,64.27,18.29,64.29,18.33Z"/><path class="cls-21" d="M66.15,16.66c0-.05,0-.07.11-.22,0,0,0,0,.07,0a.52.52,0,0,1,.19-.22.6.6,0,0,0,.07-.21s-.09.13-.08.08-.07.13-.11.2a.64.64,0,0,0-.26.18c.06.07-.11.25-.22.42A1,1,0,0,1,66.15,16.66Z"/><path class="cls-22" d="M59.07,27.76l-.12.07a.08.08,0,0,1,0,.08C58.89,28,59.06,27.84,59.07,27.76Z"/><path class="cls-23" d="M61.38,22.14c0-.1.09-.17.07-.2s0,.09-.07.15,0,0-.12.07a1.26,1.26,0,0,1-.36.45c0,.05,0,.07,0,.12A2.46,2.46,0,0,1,61.38,22.14Z"/><path class="cls-24" d="M62,21.75c.08-.13,0-.09,0-.15a1.92,1.92,0,0,0-.22.18c0,.11.09,0,.16-.09s-.07.14-.1.17S61.94,21.74,62,21.75Z"/><path class="cls-25" d="M61.69,22c0-.07-.2.2-.3.25S61.61,22.14,61.69,22Z"/><path class="cls-26" d="M60.75,23s.17-.07.22-.18S60.79,22.9,60.75,23Z"/><path class="cls-27" d="M63,20.27c0,.08.15-.15.2-.2S63,20.22,63,20.27Z"/><path class="cls-28" d="M62.64,21c0,.11.06,0,.13-.05s0-.08,0-.13a.69.69,0,0,0-.1.17S62.68,20.94,62.64,21Z"/><path class="cls-29" d="M65.19,18.52c0-.1.15-.19.07-.21s-.07.13-.18.3A.44.44,0,0,1,65.19,18.52Z"/><path class="cls-30" d="M63.32,20.29c0-.07,0-.1,0-.07s-.17.19-.13.24S63.23,20.31,63.32,20.29Z"/><path class="cls-31" d="M60.47,23.35c0,.08.1-.14.17-.13s0,0,0-.07S60.52,23.28,60.47,23.35Z"/><path class="cls-32" d="M59.12,24.76c.17-.13,0,.11.16,0-.05-.07.13-.17.18-.29C59.29,24.62,59.21,24.58,59.12,24.76Z"/><path class="cls-33" d="M56.82,27.39s0,.1.08,0,.08-.12.07-.15,0,0,.1,0a2.28,2.28,0,0,1,.41-.46c-.08-.05-.26.28-.41.33a.44.44,0,0,1-.25.25,2.85,2.85,0,0,0-.21.37l.15-.15c.06-.09,0,0,0-.07A.71.71,0,0,1,56.82,27.39Z"/><path class="cls-34" d="M57.83,26.33c.07,0,.09-.16.17-.18s.06-.18-.08-.11a.68.68,0,0,1-.18.23c0,.09.1-.09.14-.1S57.77,26.33,57.83,26.33Z"/><path class="cls-35" d="M69.05,17.73c0-.06,0-.05-.1,0s0,.09,0,.15S69,17.76,69.05,17.73Z"/><path class="cls-36" d="M69.27,17.36c-.1.07-.21.12-.25.25A1.48,1.48,0,0,0,69.27,17.36Z"/><path class="cls-37" d="M59.8,24.09c.22-.26.4-.28.49-.58,0,0-.08.08-.06,0C60.11,23.76,59.92,23.87,59.8,24.09Z"/><path class="cls-38" d="M57.43,26.62c-.13.1-.19.29-.34.36s.08-.05.06,0C57.24,26.87,57.35,26.76,57.43,26.62Z"/><path class="cls-39" d="M54.46,35c0,.07,0,0,0,.15C54.55,35,54.64,34.82,54.46,35Z"/><path class="cls-40" d="M59.67,24.28c0-.05,0-.11.08-.13s-.08.07-.12.07-.08.1-.13.24C59.59,24.44,59.58,24.29,59.67,24.28Z"/><path class="cls-41" d="M58.66,25.39c-.13.06-.2.21-.3.3s0-.05,0-.14c-.19.16-.11.24-.34.49.07,0,.07,0,.18-.11s0,0-.1,0A7.29,7.29,0,0,0,58.66,25.39Z"/><path class="cls-42" d="M62.3,27c.09-.14-.08,0,0-.11-.11.1-.21.08-.31.29C62.08,27.19,62.27,26.86,62.3,27Z"/><path class="cls-43" d="M63.3,25.84c0-.11.17-.21.24-.38-.12.09-.2.24-.33.31s0,0,.06,0-.17.18-.14.22S63.22,25.87,63.3,25.84Z"/><path class="cls-44" d="M63.32,25.94c.11-.09.16-.27.29-.33s-.36.28-.44.47C63.21,26.05,63.33,25.84,63.32,25.94Z"/><path class="cls-45" d="M60.92,28.29a.91.91,0,0,0-.23.28A.91.91,0,0,0,60.92,28.29Z"/><path class="cls-46" d="M61.88,27.46a1.51,1.51,0,0,1,.33-.38C62.16,27,61.85,27.39,61.88,27.46Z"/><path class="cls-47" d="M60,29.35,60,29.2c-.07.05-.11.14-.18.18S59.91,29.37,60,29.35Z"/><path class="cls-48" d="M58.58,30.91c-.13.13-.33.31-.33.44C58.35,31.2,58.51,31.12,58.58,30.91Z"/><path class="cls-49" d="M58.18,31.26s0,0,0,0a2.21,2.21,0,0,0-.22.29C58,31.43,58.09,31.33,58.18,31.26Z"/><path class="cls-50" d="M57.8,31.81s.07-.1.12-.13-.05,0,0-.15C57.87,31.62,57.89,31.65,57.8,31.81Z"/><path class="cls-51" d="M56.3,33.26c-.14.11,0,.12-.09.18S56.35,33.23,56.3,33.26Z"/><path class="cls-52" d="M58.69,30.58c-.06,0-.28.29-.4.4s.17-.17.13-.05A1.17,1.17,0,0,1,58.69,30.58Z"/><path class="cls-53" d="M57.58,31.74a.34.34,0,0,0,.06-.22C57.45,31.78,57.38,31.81,57.58,31.74Z"/><path class="cls-54" d="M58.31,31c-.11.11-.05.16,0,.13S58.31,31.07,58.31,31Z"/><path class="cls-55" d="M59.2,30.33c-.05-.11.16-.16.31-.34,0,0,0-.07.08-.13s-.22.21-.31.29c0-.09-.23.1-.31.16S59.12,30.33,59.2,30.33Z"/><path class="cls-56" d="M58.74,30.71c0,.05.06,0,.1,0a.52.52,0,0,1,.19-.22c.08-.13,0,0-.06,0s-.07,0-.06,0-.07.09-.12.12S58.92,30.59,58.74,30.71Z"/><path class="cls-57" d="M59.49,29.84c0,.05.18-.1.2-.2S59.57,29.79,59.49,29.84Z"/><path class="cls-58" d="M54.79,34.87a.15.15,0,0,1,.06-.09c.07-.06,0,0,0,0s0,0,0-.11S54.69,35,54.79,34.87Z"/><path class="cls-59" d="M67.45,17.13c0,.06.16-.13.24-.15S67.53,17.06,67.45,17.13Z"/><path class="cls-60" d="M56.63,30.92s0-.05.07-.09-.1.09-.14.11,0,.06-.05.11,0,0,0,0l.06,0S56.65,30.83,56.63,30.92Z"/><path class="cls-61" d="M55,32.8s-.08.05-.07,0a.69.69,0,0,0-.1.17l.15-.09c0-.09.09-.12.12-.2S55.07,32.75,55,32.8Z"/><path class="cls-62" d="M70.7,13.11s.06,0,.15-.08,0,0,0-.08S70.72,13,70.7,13.11Z"/><path class="cls-63" d="M58.65,28.62c-.06.12.05.07.12,0s-.09,0,0-.11C58.74,28.54,58.68,28.57,58.65,28.62Z"/><path class="cls-64" d="M69.34,17.4c0-.08-.15.11-.18.18S69.27,17.45,69.34,17.4Z"/><path class="cls-65" d="M70.43,13.22c.06,0,.09-.07.14-.11s0-.06,0-.13S70.53,13.08,70.43,13.22Z"/><path class="cls-66" d="M53.55,34.24a.77.77,0,0,0,.23-.27A.61.61,0,0,0,53.55,34.24Z"/><path class="cls-67" d="M54.47,33.13a.86.86,0,0,0-.17.24A.41.41,0,0,0,54.47,33.13Z"/><path class="cls-68" d="M70.25,17.31a1.33,1.33,0,0,0-.26.42A2.48,2.48,0,0,0,70.25,17.31Z"/><path class="cls-69" d="M52.57,35.22a5.92,5.92,0,0,0-.48.72,7.73,7.73,0,0,0,.49-.64s0,.05,0,.09C52.74,35.24,52.69,35.16,52.57,35.22Z"/><path class="cls-70" d="M66.36,21c.07-.14.11-.17.12-.26C66.36,20.87,66.23,21.07,66.36,21Z"/><path class="cls-71" d="M70.45,17.17s.07-.11.1-.22a.73.73,0,0,0-.19.27C70.35,17.27,70.4,17.18,70.45,17.17Z"/><path class="cls-72" d="M51.38,36.76c0-.07.12-.11.16-.2l-.12.07C51.39,36.7,51.42,36.68,51.38,36.76Z"/><path class="cls-73" d="M67.88,19.33c-.11.09-.12.15-.2.15s0,0,0,0-.09.11-.11.2A1,1,0,0,0,67.88,19.33Z"/><path class="cls-74" d="M51.09,37.07c.11,0,.16-.17.24-.26s0,0,0,0,0,0,0,0S51.12,36.93,51.09,37.07Z"/><path class="cls-75" d="M68.48,18.79c.08-.12.22-.16.29-.31A.72.72,0,0,0,68.48,18.79Z"/><path class="cls-76" d="M55.35,32.32s0,0,0,0a.48.48,0,0,1-.11.09c0,.07,0,.1-.09.18s.14-.14.08,0C55.32,32.5,55.51,32.21,55.35,32.32Z"/><path class="cls-77" d="M67.15,19.39c0-.13.12-.19.18-.29C67.23,19.15,67,19.49,67.15,19.39Z"/><path class="cls-78" d="M66.51,19.07c.1-.07.06,0,.15-.08s.11-.2.16-.32.13-.1.2-.14-.08,0,0-.11a.12.12,0,0,0,0,0c-.22.17-.37.44-.59.62s0,.11,0,.2C66.49,19.2,66.42,19.16,66.51,19.07Z"/><path class="cls-79" d="M61.71,25.2a1.62,1.62,0,0,0-.28.39C61.51,25.46,61.72,25.28,61.71,25.2Z"/><path class="cls-80" d="M66.36,18.31a2.81,2.81,0,0,1,.31-.29c.06-.12-.16.11-.09,0A1.37,1.37,0,0,0,66.36,18.31Z"/><path class="cls-81" d="M65.78,19.32s0,.06.06,0,.06-.14,0-.17-.07.13-.14.16S65.77,19.34,65.78,19.32Z"/><path class="cls-82" d="M66.74,18.37a.91.91,0,0,0-.21.18C66.52,18.62,66.72,18.47,66.74,18.37Z"/><path class="cls-83" d="M68.88,15.26a.84.84,0,0,0-.2.28C68.76,15.46,68.91,15.31,68.88,15.26Z"/><path class="cls-84" d="M68.16,16.06c-.08.09-.2.13-.24.28A.94.94,0,0,0,68.16,16.06Z"/><path class="cls-85" d="M67.48,18l.06-.15c-.07,0-.1.1-.16.13S67.39,18.08,67.48,18Z"/><polygon class="cls-86" points="59.41 28.01 59.41 28.01 59.41 28.01 59.41 28.01"/><path class="cls-87" d="M67.29,18.18c.09-.12-.15.17-.18.11s0,.06,0,.09S67.17,18.27,67.29,18.18Z"/><path class="cls-88" d="M66.27,20.26c-.09,0-.1.14-.15.22a.87.87,0,0,1,.11-.09S66.24,20.33,66.27,20.26Z"/><path class="cls-89" d="M64.41,22.24a.9.9,0,0,1,0,.19c.09-.15.29-.37.29-.44C64.56,22.15,64.54,22.09,64.41,22.24Z"/><path class="cls-90" d="M65.26,20.4c-.05,0-.27.22-.33.38.06,0,0,0,0,0C65.1,20.74,65.13,20.5,65.26,20.4Z"/><path class="cls-91" d="M63.84,22.88c0,.07,0,.06,0,.09a.62.62,0,0,0,.1-.16C63.87,22.9,63.92,22.83,63.84,22.88Z"/><path class="cls-92" d="M65.34,19.42c0-.09,0-.11,0-.06s0,.1-.09.16S65.31,19.43,65.34,19.42Z"/><path class="cls-93" d="M66.18,19.27a9.23,9.23,0,0,0-.72.93c.05,0,.11-.11.09-.05.12-.11,0-.09.15-.22,0,.07.36-.4.29-.25C66.08,19.64,66.16,19.37,66.18,19.27Z"/><path class="cls-94" d="M65.57,20a1.33,1.33,0,0,0-.24.33C65.44,20.25,65.49,20.09,65.57,20Z"/><path class="cls-95" d="M62,20.86l-.13.15S62,20.91,62,20.86Z"/><path class="cls-96" d="M69.64,18.08c-.11,0,0-.1-.21.07.09-.22.18-.2.22-.24s-.12.07-.15,0a.25.25,0,0,1-.14.17c0,.1-.11.14-.09.18s.14-.17.15-.09-.13.09-.17.18,0-.12-.11,0c.09,0-.11.12-.19.22s0-.08,0-.13a2.67,2.67,0,0,0-.36.34c-.14,0-.25.25-.38.25-.11.16-.06.18-.19.33s0-.07,0-.13c-.14.06-.22.22-.33.31s0,.05.07,0c0,.13-.17.2-.13.24a.1.1,0,0,0-.12.07c-.08,0,0,0,0-.12-.15.11-.25.3-.42.38,0,.14-.21.15-.26.36,0-.09-.11.09-.16.07a.72.72,0,0,1,.28-.27c0-.17.29-.36.47-.49,0,0,0-.08,0-.22-.16.35-.77.65-.86,1.07a5.5,5.5,0,0,1-.47.49c0,.07,0,.05.07,0l-.1.22a.5.5,0,0,1-.15.14c.05-.11.14-.16.18-.29-.09.06-.16.14-.25.2l-.07.14a.74.74,0,0,1-.12.13c-.06,0,0-.05,0-.15-.18.19,0,.2-.24.39,0,0,0,0,.06,0a.83.83,0,0,1-.13.18c0-.19-.35.21-.5.32.12-.18.51-.53.44-.58.15-.17.31-.3.44-.47,0-.07-.18.18-.26.23.09-.15.11-.13.15-.27s.14-.15.25-.13c.1-.17,0-.14-.05-.13.08-.12.13-.06.18-.11a1.76,1.76,0,0,0,.14-.23c.1-.09,0,0,.13-.06s.06-.07.17-.18.22-.26.3-.42,0,.06.07,0c-.1.15-.34.35-.27.4a1.07,1.07,0,0,0,.16-.25.1.1,0,0,0,.08,0c.07-.16.09-.19.2-.26s-.06-.05,0-.24l.06-.09c.1-.07,0,0,0,.08s.13-.15.22-.18,0-.06,0,0c.13-.19.33-.26.41-.51a6.76,6.76,0,0,1,.7-.71c0-.14.15-.19.22-.29s0-.05,0-.17a.9.9,0,0,1-.24.14c0,.11,0,.05,0,.19s-.22.21-.29.38.06-.18,0-.24-.23.28-.24.2c-.17.17-.28.42-.49.53.08-.14.18-.23.26-.37a.63.63,0,0,1-.22.18c0,.07,0,.1-.09.11-.13.28-.39.39-.55.62s0-.05,0-.11-.13.14-.2.2a.35.35,0,0,0,.23-.09s0,0,0,.08l-.17.18s0-.1-.08,0a.2.2,0,0,0,0,.12c0,.05-.07.06-.1.11s0-.08,0-.11.17-.13.21-.25c-.76.8-1.49,1.65-2.26,2.43,0,.14-.26.37-.34.37s.08.05.06.15-.17.08-.28.27c0,0,0-.05,0-.09-.13.12-.21.3-.35.42.07-.27-.32.27-.56.41-.08.13,0,0,.09,0a2.68,2.68,0,0,1-.31.29c0,.05.08,0,.05,0a.54.54,0,0,1-.15.15s0,.07-.05.16-.11,0-.19.22c-.05,0,0,0,0-.11a3.55,3.55,0,0,0-.61.65s0,0,0-.07c-.18.31-.44.51-.63.8,0,0,0,0,0,0a1.32,1.32,0,0,0-.21.37c-.09.07-.1.05,0-.06a6.44,6.44,0,0,0-.84,1c-.1.08,0-.07-.11,0s.1-.09.13-.18a6.76,6.76,0,0,1-.76.93c0,.08.2-.19.1,0-.08,0-.12.11-.19.16a1.33,1.33,0,0,1-.24.33.23.23,0,0,1,0-.15,6.12,6.12,0,0,1-.65.84s0-.06,0,0-.08.09-.14.11,0,.09-.1.22-.06,0-.13.05a3.71,3.71,0,0,1-.35.42c-.07,0,.05-.11.08-.12-.13,0-.28.34-.3.47s0,0,0-.13a4.74,4.74,0,0,1-.46.62c-.07.05,0-.14.08-.13s-.16.09-.27.22c0,0,.13-.18,0-.09,0-.07.11-.09.12-.19-.1.06-.15.19-.24.26s0,.11-.09.18.05,0,.09-.05a2.2,2.2,0,0,0-.23.4c-.13.11,0-.11-.1,0s-.16.25-.13.3a7.51,7.51,0,0,0-.58.63s0,0,0,.15,0-.15-.2.07c0-.11.12-.16.17-.24s-.21.26-.31.35.05,0,0,.07-.13.14-.23.16,0,.08-.07.21-.2.07-.26.29c-.08.06,0,0-.14,0a.64.64,0,0,1,.16-.2,16.63,16.63,0,0,0-1.36,1.53s0-.09,0-.19a2.43,2.43,0,0,1-.26.29c0,.1,0,.09,0,.1a3.53,3.53,0,0,0-.78,1c-.09,0,.06-.12,0-.14l-.31.34s0,0,0,.08-.48.39-.5.56-.06,0-.17.07-.1.22-.2.26c0,.22-.42.44-.56.73,0,0-.11.06-.08,0a1,1,0,0,1-.36.4.72.72,0,0,1-.12.21s0,0-.07,0-.13.21-.1.11a1.35,1.35,0,0,1-.33.38c.06,0,0,.09-.08.19s0,0,0-.09c-.13.12-.23.27-.36.4.06-.16.13-.14.13-.24a2.44,2.44,0,0,0-.22.23s0-.07,0-.13.22-.13.27-.29c-.1.14-.11,0-.2.15s0-.12.1-.22,0,.06,0,.09a.38.38,0,0,0,.14-.24.82.82,0,0,1,.24-.25c-.18.19-.08.21-.22.34s.16-.15,0,.06,0-.08-.09,0,0,0,.08,0a.31.31,0,0,1-.09.11c.13-.09.39-.5.59-.68-.08,0,.09-.11.06-.16a2.64,2.64,0,0,0-.3.42c-.15-.06.26-.47.36-.64s.07.08.21,0c0-.07.17-.16.21-.31-.06.09-.29.31-.25.18s.09-.18.31-.35,0,.09.13,0l.08-.19s-.09.06-.07,0c.19-.3.42-.54.62-.82-.1,0-.15.15-.23.22.11-.19.32-.49.43-.48a.82.82,0,0,0-.16.26c0,.07.12-.12.1,0,.15-.19.22-.41.38-.44s.1-.14.16-.2,0-.09,0-.08c.19-.17.45-.58.59-.62l.29-.38s0,0,0,.08,0-.11.08-.19.08,0,.07.1c.12-.11.23-.29.32-.27s-.11,0,0-.17c-.17.14,0,.14-.21.31-.06,0,0-.07,0-.19s.41-.34.57-.58c.11,0,0,.12-.1.22a.82.82,0,0,0,.22-.29.08.08,0,0,0-.07,0c0-.08.1-.08.08-.13.16-.12.22-.37.42-.44,0-.06.18-.29.24-.27a1.25,1.25,0,0,1,.41-.57c0-.06,0,0,0-.09s.26-.3.3-.23l.12-.26c.19-.15,0,.12.12,0a.89.89,0,0,1,.3-.36,1.45,1.45,0,0,1,.07-.26c.09,0-.06.2.08.11-.06-.09.24-.44.41-.57s.06-.19.2-.32c0,0,0,.18.09,0,0,0,0,.1-.06.22a.09.09,0,0,0,0-.06l.07,0c.05-.11,0-.07,0-.19s.13-.07.28-.19.19-.19.26-.31a.65.65,0,0,0-.3.31s-.09,0-.16.07c.11-.11.06-.14.22-.24s-.09,0,0-.11a3.28,3.28,0,0,0,.53-.53c0-.06-.16.13-.2.2s.15-.29.27-.4-.16.19-.07.15.07-.15.21-.26c-.07.25.35-.43.57-.52,0-.11.19-.33.28-.52.05.1.38-.42.41-.51s.09-.06.07,0,.14-.15.21-.31.17-.19.32-.4c0,0,0,.07.12,0,.25-.39.44-.53.72-.92.05,0,0,.08.11,0s.14-.22.24-.25c-.09,0,0-.22.19-.35s-.15.17-.09.18l.14-.11c0-.06-.06,0,0-.13s0,.11,0,.08.19-.24.16-.26,0,.06.15-.09c-.05,0,0-.16.13-.29s.08-.09.2-.15.09-.17.18-.23,0,.07,0,.07.4-.46.29-.49c.1-.08.13-.26.24-.33s-.06.12-.09.24c.1-.09.17-.21.27-.29s.31-.48.38-.61c0,.05-.08.19-.12.26s0,0,0,0-.06.11-.16.26a.92.92,0,0,1,.38-.31c.08-.13,0,0,0-.09.18-.1.68-.81.9-1,0,0,.17-.26.07-.2.1-.19.26-.23.21-.32s0,.06.06.08a.36.36,0,0,1-.14.11c-.05.12.1,0,0,.18a2.83,2.83,0,0,0,.24-.38.08.08,0,0,0,.07,0c.06-.12-.06,0-.07,0s.16-.14.2-.27c-.4.37-.76.79-1.13,1.2-.11.1,0-.11-.08,0s-.05.09-.09.18,0-.14.07-.28a4.83,4.83,0,0,0,.7-.76c.07-.08.16-.13.23-.22-.1,0-.07,0,.08-.13s0,0,0-.11c.23-.13.23-.23.39-.42s0,0,.13-.05,0-.14.13-.24-.09.18,0,.06a.22.22,0,0,1,.1-.11s0-.06,0-.13a5.28,5.28,0,0,1,.53-.47c0-.13.17-.16.23-.33s-.08.12-.08.19a1.07,1.07,0,0,1,.27-.29c0-.07,0-.17.11-.21s0,0,.06-.22c-.17.22-.29.25-.41.46-.11.06,0-.1-.07,0s-.06.17,0,.16-.11.14-.14.22-.18.15-.25.26.07-.15.06-.22a.31.31,0,0,0-.12.2.84.84,0,0,0-.27.21s-.05.15-.09.24,0-.07-.16,0-.13.14-.19.22-.06,0-.07,0a10.43,10.43,0,0,1-.76.85c-.1.23-.3.31-.41.51-.32.19-.57.76-.83.84,0,.09-.08.12-.11.2a1.88,1.88,0,0,0-.23.16c.08-.13.19-.18.18-.29,0,.1.07,0,.17-.13s-.06,0-.12.07a1.53,1.53,0,0,1,.31-.4c.06,0-.08.16-.13.19s.28-.33.41-.46c-.08,0-.1.14-.18.16.22-.24.27-.38.46-.62.08-.06-.13.23,0,.1l.07-.15a3.48,3.48,0,0,0,.57-.71c-.1.21.11-.07.24-.2s0-.13-.06,0c.12-.26.22-.18.32-.4.09-.05.07,0,.08.06s.14-.25.12-.26.33-.27.3-.37.22-.2.2-.14a2.45,2.45,0,0,1,.55-.67,1.05,1.05,0,0,0-.17.31l.28-.22c.06-.09-.12,0,0-.07s-.11.12-.14.16.18-.4.35-.47.23-.49.43-.61l.07-.14c.09-.08,0,0,0,.05s.14-.28.27-.34-.08.12-.09.18a3.07,3.07,0,0,1,.69-.78,1.13,1.13,0,0,0,.21-.31c-.07,0-.09,0-.06,0s.34-.42.55-.57a.45.45,0,0,1-.15.22,3.12,3.12,0,0,0,.45-.45c.08-.17-.08.09-.15.09s.16-.19.21-.31,0,0,0-.08-.09.1-.12.07l.08-.12c.17-.07.19-.13.37-.27,0,.13-.18.15-.23.29.08,0,.12-.12.2-.15s.12-.26.21-.36,0,.05,0,.09.13-.14.22-.18-.09,0-.09,0c.14-.23.34-.37.49-.59,0-.05-.11.15-.2.2s0,0,0,0c.14-.12.14-.19.26-.36,0-.05-.15.1-.16.2s.07-.18-.08,0c.05-.11.2-.31.05-.22s-.07.13,0,.08-.07.06-.1.09,0,.11-.08.2a3.52,3.52,0,0,0-.41.51c-.23.11-.35.39-.54.56,0-.08.25-.33.22-.42a7.82,7.82,0,0,0-.68.86.36.36,0,0,0-.25.25c-.09,0-.09,0,0-.18-.06,0-.08.09-.13.12s-.06.19.07.1c-.2.14-.31.4-.49.58l.34-.55c-.12,0-.32.43-.46.62,0,0-.2.17-.28.28s0,0,0,0-.05.06-.06.09,0-.06-.06,0c-.2.23-.37.5-.56.73,0,0,0,0,0,0,.2-.26.24-.37.42-.62a6.64,6.64,0,0,0-.51.55c0,.1.08-.08.12-.07s-.07.1-.1.16-.09,0-.2.09,0,0,0,.13,0-.06.06-.09.11,0,.12-.08c.18-.11,0,.11-.07.21.1-.17-.16.12-.1,0-.08.05-.09.19-.16.25s0-.17.12-.25-.1,0-.06-.08c-.1.08-.16.22-.26.29s.07-.14.09-.24c-.13.05-.16.22-.28.27s.12-.1.18-.1a1.61,1.61,0,0,1-.22.23c.13-.08.09,0,.1.08a.71.71,0,0,0-.07.09c-.12.1,0-.1-.08,0s-.65.77-.66.65c0,.11-.13.18-.1.22-.14.12-.08,0-.17.05.12-.12.21-.3.34-.42a2.81,2.81,0,0,0-.51.55c-.06,0,0-.08-.09,0a1.17,1.17,0,0,1-.34.42c0,.06-.09.17,0,.15-.09,0-.14.2-.29.3.12,0-.17.26-.14.3-.19.17.06-.17-.08-.06A.55.55,0,0,1,63,21s0-.06,0-.09c.22-.3.48-.54.63-.8-.08,0-.1.15-.19.16-.23.47-.65.65-.89,1.1-.37.25-.84,1-1.06,1.05l-.29.31c0,.13-.2.26-.3.42,0,0,0-.07-.06,0s-.14.25-.16.2c-.22.36-.53.57-.77.91.09-.06,0,.11-.05.16s.06-.15,0-.14a4.93,4.93,0,0,0-.64.78c0-.08-.32.23-.33.33s-.1.09-.17.12c0,.24-.63.66-.83,1.06-.29.14-.55.75-.78.84a2.94,2.94,0,0,0,.2-.26c-.09,0-.27.36-.47.55s-.39.33-.36.4-.11.08-.17.12c-.13.23-.32.39-.46.62a13.69,13.69,0,0,0-.93,1q-4.89,5.45-9.65,11.06l-4.75,5.63-3.4,4.13L33.07,46c0-.1.81.81.87.83.53.75,1.24,1.35,1.78,2.09.08,0,.11.06.21.16s0-.05-.1-.07.23.19.28.33,0,0,.12,0a2.26,2.26,0,0,0,.41.59c.13.15.13.11.2.15s.11.21.19.21a.07.07,0,0,1,0,0,.39.39,0,0,1,.14.12.43.43,0,0,0,.15-.24s0,0,0,0,0,0,0-.05.12-.11.16-.18,0-.07.08-.12.26-.29.41-.43.31-.38.44-.53.32-.5.46-.57a2.25,2.25,0,0,1,.57-.65c.09-.14-.09,0,0-.11s.17-.15.12-.07c.09-.2.25-.3.35-.48s0,0,0,0c.13-.24.32-.4.46-.62.07.05,0,0,.17-.13,0,0,0-.11.08-.18s.05,0,.11,0,.35-.37.52-.71c.05,0,.07,0,.06,0,.26-.34.91-1.08.95-1.2s.31-.28.41-.51a1.26,1.26,0,0,0,.43-.48c.93-1.08,1.65-1.91,2.61-3,0-.06,0,0,0-.09s.11-.1.24-.2c.45-.63,1.21-1.32,1.7-2.08.06,0,0,0,.11,0a8.32,8.32,0,0,1,.64-.78s-.14,0,0-.3c.09,0,.06.05.2-.09s-.08.21-.15.22.21-.12.16-.14c.34-.28.57-.73.92-1,0-.14.23-.36.4-.46s0,0,0,0c.28-.28.53-.61.82-.89,0,0,0,0,0-.07a15.79,15.79,0,0,1,1.23-1.35s0,0,0,0c.44-.47.84-1,1.3-1.44.27-.39.79-.93,1.17-1.36.08-.13-.05,0,0-.15l.09-.11c0,.21.33-.29.48-.41s-.11.11-.17.12.09-.15.12-.2c.24-.06.5-.51.77-.73.07-.12-.05,0,0-.14s.07-.06.1-.11,0,.07,0,.13a.48.48,0,0,0,.2-.26c.28-.2.2-.25.45-.45,0-.07-.09,0-.08,0s0-.05.07-.07,0-.05-.07,0c.08-.19.21-.31.29-.5s.13-.11.14-.05c.1-.12.15-.31.27-.4s0,.12,0,.17.12-.19.08-.19.17-.12.22-.23,0,.1.09,0,.4-.63.45-.57a1.24,1.24,0,0,0,.29-.38c.18-.08.31-.38.42-.38,0-.26.47-.45.61-.77s.39-.46.61-.65-.12.14,0,0c.26-.46.65-.7.93-1.11,0,0-.08.08-.13.1s0-.06,0,0c.15-.16.32-.28.46-.44s-.05,0-.09.05.11-.11.12-.2.05,0,.12-.07c0-.25.4-.4.53-.69.11-.08.12-.05.06.07.08,0,.12-.14.2-.2s-.06,0-.1,0a.76.76,0,0,1,.16-.26s0,0,0,.11a6.82,6.82,0,0,1,.49-.58s0,.1.08,0,.58-.72.7-.95c.09,0,.27-.24.15,0,.11-.11.1-.14.09-.18s.18-.06.29-.26c-.07,0-.1.11-.16.15s0-.06,0-.06a4.42,4.42,0,0,0,.69-.84c0,.06,0,0,.16,0s-.07,0-.13,0c.07-.23.28-.25.36-.46s0,.14.1.08,0-.12,0-.19.11-.07.15-.14,0,.07,0,.12.2-.25.13-.23c.21-.13.17-.19.34-.26a1.33,1.33,0,0,1,.33-.38s-.1,0,0-.13l-.15.09c-.08.1,0,.1-.14.16s0,.06,0,0c-.15.17-.59.72-.57.53-.06,0-.08.14-.12.2s-.06-.05,0-.17c0,0-.29.33-.16.26-.09.13-.22.21-.28.38s.06-.16,0-.15-.3.41-.29.26c-.08,0-.06.12,0,.09a1.43,1.43,0,0,1-.28.27s0,0,0,.08-.11.12-.16.2,0,0,0-.08a3.89,3.89,0,0,1-.6.73c-.07,0,.07-.09.07-.15s-.13.18-.23.22c-.11.23-.21.1-.33.33l.16-.15c0,.13-.13.14-.16.26s0,0,0-.08-.07.11-.13.13-.42.54-.62.75c0,0,0,0,0,0A12.54,12.54,0,0,1,61,22s0-.08,0-.13-.16.22-.13.24c-.13.17,0-.06-.2.08s.13-.06.07,0a3.52,3.52,0,0,1-.59.68c0,.14-.13.21-.24.38s-.06,0-.14,0a3,3,0,0,1-.42.55c-.06,0,.1-.17.14-.22a1.52,1.52,0,0,0-.38.49c-.11.09,0-.06-.12,0,0-.11.17-.2.14-.24a6.1,6.1,0,0,0-.7.95c-.16.12,0-.15-.09-.06a5.67,5.67,0,0,1-.78.84.8.8,0,0,1-.28.33c0,.07.06,0,0,.11s-.58.74-.66.69a11.11,11.11,0,0,0-.91,1.07c-.19.12-.3.35-.5.45s-.2.25-.26.43-.05,0-.13.05c-.55.63-1.08,1.3-1.67,1.87,0,0,0,.13.05,0a17.4,17.4,0,0,0-1.38,1.57c-.09.15-.25.21-.35.34s.05,0,0,0a2.7,2.7,0,0,0-.52.6l-.18.11A19.12,19.12,0,0,1,49.43,35s0,0,0,.06c-.86.92-1.66,1.93-2.5,2.88a14.08,14.08,0,0,1-1.06,1.23,2.94,2.94,0,0,1-.5.57l-.06.15c-.15,0-.29.38-.5.5-.35.53-1,1.12-1.4,1.72l-.12.07c-.56.77-1.22,1.25-1.77,2-.31.25-.47.55-.78.8-.11.24-.35.35-.48.58A16.25,16.25,0,0,0,39,47c-.49.56-1,.77-1.44,1.35l-.34.13h0s0,0,0,0v.06s0,0,0,0,0,0,0,0,0,0,0,0,0,0,0,0v0a1.75,1.75,0,0,0-.2-.19L15,24.86l22,31.6h0l.29-.34.27-.31.12-.14,0,0,.43-.5.23-.26,0,0,.31-.36.22-.26.14-.15.18-.21.14-.16,1.43-1.65L41,52l.62-.72.25-.29a7.47,7.47,0,0,0,.54-.62l.09-.1.13-.15.11-.13.07-.08.1-.12.51-.58.16-.18.26-.31.12-.13.11-.13.72-.83.2-.23.22-.25.38-.44.55-.63.15-.18a3.8,3.8,0,0,1,.29-.34l.17-.19L47,45l.1-.12,1.11-1.27.06-.07.17-.19.38-.44.54-.62,0-.06.22-.25,0,0,.1-.12.07-.07.08-.11,0,0,.09-.1,0,0,.19-.22h0l.14-.16h0l.15-.18,0,0,.14-.17.36-.42.09-.1.08-.09,0,0,.16-.18.24-.28,0,0,.2-.24.63-.73.23-.26.43-.5.49-.55,0,0,1.89-2.18.06-.07.23-.27.07-.08.26-.3h0l1-1.16a1.59,1.59,0,0,0,.62-.71c.1-.07-.07.18.05.08s.32-.36.47-.55,0-.06,0-.13,0,.07.06,0,0,0,.07-.15,0,.06,0,0,.21-.23.16-.26a.11.11,0,0,0,.08-.07s0,0,0,.09a5,5,0,0,0,.71-.81c.25-.2.14-.2.29-.31a2.42,2.42,0,0,1,.28-.52l.48-.47s0,0,0,.09a1.07,1.07,0,0,0,.21-.25c0-.19.57-.6.75-.93l-.85.91a1.48,1.48,0,0,1,.28-.33c0-.09-.13.13-.19.16l.11-.22s0,0,.1,0c.18-.26.11-.33.37-.57,0,0-.13.22-.17.31s.1,0,.07,0a1,1,0,0,1,.3-.49s0,0,0,.11c.12-.08.13-.3.29-.44s0,.12.1,0,0,0,0,0,.12-.15,0-.17.22-.21.15-.22.1-.14.17-.18-.11.26,0,.24l.18-.29c.08-.06,0,0,.13-.05s.29-.33.43-.49-.08.11-.09.18c.2-.18.15-.35.38-.49,0-.07.06-.17.12-.2s-.08.08-.12.07l0-.11c.16-.13.28-.33.45-.46,0,0-.15.27-.25.31a1,1,0,0,1-.17.26c.08-.09.31-.24.38-.44s0,.09.13,0a3.08,3.08,0,0,1,.54-.75c.08,0-.06.09-.07.14.1-.11.08,0,.19-.1s.24-.3.35-.48.16-.21.37-.57a2.84,2.84,0,0,1-.3.37c0,.07,0,.05,0,0a.79.79,0,0,1-.19.22c-.06,0,.06-.11.09-.13a.8.8,0,0,0-.42.38c-.12,0-.38.34-.51.54-.08,0-.07,0-.13.13a3.87,3.87,0,0,0-.76.8c0-.06-.27.28-.24.14a2,2,0,0,1-.19.28c-.09,0-.13.13-.22.18s0,0,0,.09a.3.3,0,0,0-.17.18c-.05,0-.11.05-.14.11s.1-.18,0-.06a2,2,0,0,1-.59.68c-.1.07,0,.06-.07.14a.7.7,0,0,1-.06.09c-.11.08-.06,0-.17.07a4.29,4.29,0,0,1-.68.79c0,.1-.1.15-.14.24.15-.1.07-.15.21-.26,0,.1,0,.07.07,0-.11.24-.27.36-.34.36s.15-.1.18-.22c-.1.12-.19.13-.13,0l-.46.49c0-.1,0-.06-.14.05A.67.67,0,0,1,60,29.5c0-.07-.09,0,0-.06a3.84,3.84,0,0,1-.27.29c0,.09.07,0,.15,0a3.05,3.05,0,0,0-.38.49s.06,0,.05.08,0-.05-.16.07,0-.06.05-.11c-.19.09-.47.5-.68.61a3.72,3.72,0,0,1-.55.68c-.1,0,.1-.19.07-.26-.17.13-.13.27-.23.22s0,.11.07.09a3.38,3.38,0,0,1-.5.56c0,.13-.18.3-.31.43s0-.06,0-.1.09-.07.13-.11,0-.06,0-.05l0-.08c-.1.08-.15.24-.28.28,0-.09.11-.13.16-.2s-.16.13-.21.18c.09-.26-.2.19-.34.3,0,0,0,.11-.06.23,0-.13-.1,0-.14,0a.36.36,0,0,1-.07.1c.08,0-.08.17-.07.25a1.76,1.76,0,0,0-.41.46c-.1.07,0,0-.05-.08-.15.13-.28.27-.37.33l-.07.15.12-.08c.05-.15.18-.19.27-.29-.08.17-.24.24-.32.4-.08-.11-.29.25-.52.42.08-.07.13-.18.22-.24s-.21.19-.28.27a.57.57,0,0,1,0,.14l0,0,0,0s0,0-.1,0a.15.15,0,0,1-.09.1.14.14,0,0,1,0,.11l-.08.08-.12.09h0l-.13.12,0,0s0,0,0,0l-1,1s0,0,0,0c.12-.11.23-.25.34-.36s0,0,0,0,.05,0,.15-.09a.33.33,0,0,1,.11-.15c-.08-.12.25-.24.32-.45s0,.08.13-.06-.07,0,0-.16-.12.15-.2.19,0,0,.07,0a.87.87,0,0,1-.23.27s.06-.1.05-.17A1.84,1.84,0,0,0,54.3,35c.1-.08,0,.08.13-.05.06-.32.64-.81.93-1.17,0,0,0,.16,0,.13-.24.25-.47.5-.7.76.08-.05.15-.14.08,0l.23-.29s0,.13.1,0,.07-.15.19-.27,0,.07.11,0a2.68,2.68,0,0,0,.44-.6s.07,0,0,0,0,0-.09.11c.17-.13.28-.32.45-.45l.12-.26a.59.59,0,0,0,.19-.09c.05-.17-.1,0-.16,0s.22-.14.27-.3,0,.19.12.06,0,0,0,0a4.68,4.68,0,0,1,.55-.62c.06-.15-.12,0-.2.09.08-.12.1-.31.22-.36s-.09.12,0,.12.08-.13.15-.14,0,0,.07-.2.09,0,0,.05c.16-.11.06-.21.21-.31s-.09.21,0,.12,0-.12.07-.21l.09-.11s-.1.18,0,.19.11-.08.26-.18a7,7,0,0,0,.6-.73c-.09.22.4-.4.58-.56,0,.06-.22.24-.27.4.23-.18.32-.47.5-.56,0,0,0,0-.07,0s.12-.15.16-.25c.24-.12.41-.47.57-.53a6,6,0,0,0,.48-.66c-.09.1,0,0-.12.07.21-.36.36-.34.44-.28,0-.11-.05-.09,0-.17a3.31,3.31,0,0,1,.32-.33s-.08.14-.12.22c.07-.08.38-.37.43-.45s.09,0,0,0,.1-.11.14-.17,0,0-.07,0a6.28,6.28,0,0,0,.79-.82l.15-.09c0-.07.11-.09.13-.18.27-.14.41-.47.68-.61a2.11,2.11,0,0,1,.67-.69c-.11.18-.1.2-.19.34a4.33,4.33,0,0,1,.58-.69c-.06-.07.08-.3,0-.32l.39-.36c-.07-.07-.45.47-.52.36s.12-.08.17-.13.19-.22.24-.38c0,.05,0,.09.16,0,0,0,0-.13.11-.28s.27-.16.23-.22.08,0,.18-.1,0,0,0,.12a1.74,1.74,0,0,0,.3-.36c.11-.06,0,.16.07.09s0-.17.13-.23,0-.13-.07,0c.12-.18.1-.15.12-.26s.13-.06.15-.15-.08,0-.13.06a2,2,0,0,0,.19-.22c.06,0-.06.16,0,.07s.16-.21.13-.12a1.56,1.56,0,0,1,.6-.66s0-.12,0-.15-.07.05-.18.11,0,.05,0,0a6.15,6.15,0,0,1-.63.62c.14-.23.36-.34.5-.57l-.29.26c.08-.13.21-.19.25-.37.07,0,0,.1.1,0a1.4,1.4,0,0,0,.1-.16c.07-.06,0,0,0,.07S67,21,67,21s.16-.23.13-.3c.15-.11,0,.07.16,0s.32-.36.36-.35c.12-.2.16-.14.28-.32s-.07.09-.07.14c.16-.11.27-.31.42-.43a.21.21,0,0,0,0-.17c.09-.08.22-.27.2-.33s0,.11.08,0,.13-.18.22-.23,0-.08.09-.19-.07.19,0,.21-.15.06-.17.18.23-.21.31-.35,0,0,.13-.05.31-.49.38-.49,0-.07,0-.06a.72.72,0,0,1,.28-.27c0-.1.1-.14.13-.24C69.87,17.88,69.7,17.9,69.64,18.08Z"/><path class="cls-97" d="M43.67,31.23l.4,5.62-7,7.23-7-7.23h0l1.17-16.7c1.27-.69,2.58-1.38,3.94-2l-.39,17.31,2.3,2.23,2.31-2.23-.47-19.08c1.16-.53,2.37-1,3.59-1.54ZM27.41,34.15l1.25-12.56c-2,1.17-3.84,2.34-5.58,3.51l.38,5Zm-6-7.91-1,.72.74.77ZM58.56,9.57c-1.08.26-2.14.54-3.18.83L57.31,18l-7.4,7.17-1.86-12.5c-1.16.41-2.29.82-3.41,1.25l2,20.22L61.39,19h0ZM15.05,31.15l22,25.31h0L17.84,28.9Q16.37,30,15.05,31.15Z"/><path class="cls-2" d="M182.74,11.44c-1.91,0-7.53.86-7.53,6.91s5.62,6.91,7.53,6.91,7.53-.86,7.53-6.91-5.62-6.91-7.53-6.91m0,12.5c-2.49,0-4.85-1.43-4.85-5.59s2.36-5.59,4.85-5.59,4.85,1.44,4.85,5.59-2.37,5.59-4.85,5.59"/><polygon class="cls-2" points="254.57 24.85 254.57 11.85 256.44 11.85 264.91 21.09 264.91 11.85 266.61 11.85 266.61 24.85 264.7 24.85 256.26 15.62 256.26 24.85 254.57 24.85"/><path class="cls-2" d="M207.14,21.36a4.92,4.92,0,0,1-4.3,2.55c-2.43,0-5-1.59-5-5.56s2.56-5.56,5-5.56A5,5,0,0,1,207,15.06l1.74-1.13c-1.65-2.22-4.9-2.49-6.18-2.49-1.87,0-7.37.76-7.37,6.91s5.5,6.91,7.37,6.91c1.33,0,4.75-.29,6.37-2.76Z"/><path class="cls-2" d="M243.17,11.85h-2.44l-6.12,13h1.77l1.72-3.64h6.82l1.72,3.64h2.84Zm-4.36,7.81,2.7-5.71,2.69,5.71Z"/><rect class="cls-98" x="214.62" y="12.04" width="15.22" height="1.91"/><rect class="cls-99" x="214.62" y="17.4" width="15.22" height="1.91"/><rect class="cls-100" x="214.62" y="22.75" width="15.22" height="1.91"/><path class="cls-2" d="M94.86,11.8h2.53v13H94.68l-5.31-9.28h0v9.28H86.79v-13h2.87l5.16,9.06h0Z"/><path class="cls-98" d="M99.79,14h.36c2.45,0,3.1-1.27,3.15-2.23h2.09v13h-2.54v-9H99.79Z"/><path class="cls-2" d="M117.9,24.81h-2.53V19c0-.7,0-1.9-1.65-1.9a2,2,0,0,0-2,2.23v5.53h-2.54v-13h2.54v4.62h0a3,3,0,0,1,2.79-1.51,3.08,3.08,0,0,1,3.35,3.23Z"/><path class="cls-2" d="M124.86,25.06A4.68,4.68,0,0,1,119.93,20a4.93,4.93,0,1,1,9.86,0A4.68,4.68,0,0,1,124.86,25.06Zm0-8c-2,0-2.32,1.71-2.32,2.94s.36,2.93,2.32,2.93,2.32-1.7,2.32-2.93S126.81,17.05,124.86,17.05Z"/><path class="cls-2" d="M140.52,24.81H138V19c0-.7,0-1.9-1.65-1.9a2,2,0,0,0-2,2.23v5.53h-2.54V15.17h2.43v1.41h0a3.11,3.11,0,0,1,2.9-1.67,3.08,3.08,0,0,1,3.35,3.23Z"/><path class="cls-2" d="M145.66,24.81h-2.54v-13h2.54v7l3.19-3.66H152l-3.41,3.73,3.5,5.91H149l-2.3-4.13-1.05,1.08Z"/><path class="cls-2" d="M161.25,22.92c0,1.14.26,1.4.56,1.51v.38h-2.73a4.26,4.26,0,0,1-.24-1.14,3.93,3.93,0,0,1-3.11,1.39,2.71,2.71,0,0,1-2.94-2.81,3,3,0,0,1,2.81-3.08l2.28-.34c.4-.06.89-.22.89-.76,0-1.07-1-1.13-1.67-1.13a1.37,1.37,0,0,0-1.56,1.34H153.1c.29-3,2.34-3.37,4.31-3.37,1.36,0,3.84.42,3.84,2.8Zm-2.48-2.81a3.62,3.62,0,0,1-1.72.53c-.94.16-1.72.4-1.72,1.45a1.1,1.1,0,0,0,1.17,1.16,2.1,2.1,0,0,0,2.27-1.9Z"/><path class="cls-2" d="M166.36,14h-2.54V11.67h2.54Zm0,1.14v9.64h-2.54V15.17Z"/><path class="cls-2" d="M278.17,22.45h6.47v2.36h-9.19v-13h2.72Z"/><path class="cls-2" d="M295,22a4.18,4.18,0,0,1-4.25,3.08c-2.71,0-4.8-1.3-4.8-5.27,0-1.16.4-4.88,4.63-4.88,1.9,0,4.52.91,4.52,5.31v.46H288.5c.07.72.22,2.35,2.26,2.35A1.64,1.64,0,0,0,292.4,22ZM292.51,19a2,2,0,0,0-2-2c-1.2,0-1.83.76-2,2Z"/><path class="cls-2" d="M305,22.92c0,1.14.26,1.4.56,1.51v.38h-2.73a4.26,4.26,0,0,1-.24-1.14,3.93,3.93,0,0,1-3.11,1.39,2.71,2.71,0,0,1-2.94-2.81,3,3,0,0,1,2.81-3.08l2.28-.34c.4-.06.89-.22.89-.76,0-1.07-1-1.13-1.67-1.13a1.37,1.37,0,0,0-1.56,1.34H296.8c.29-3,2.34-3.37,4.31-3.37,1.36,0,3.84.42,3.84,2.8Zm-2.48-2.81a3.62,3.62,0,0,1-1.72.53c-.94.16-1.72.4-1.72,1.45a1.1,1.1,0,0,0,1.17,1.16,2.1,2.1,0,0,0,2.27-1.9Z"/><path class="cls-2" d="M316.26,15.17V24.3c0,1.67-.13,4.44-4.87,4.44-2,0-4.1-.85-4.21-2.9h2.76c.11.49.31,1,1.77,1s2-.65,2-2.21V23.45l0,0a2.61,2.61,0,0,1-2.57,1.45c-2.32,0-4.15-1.61-4.15-5s1.88-5,4-5a2.91,2.91,0,0,1,2.83,1.69h0V15.17Zm-4.67,7.56c1.72,0,2.15-1.47,2.15-2.8,0-1.55-.76-2.82-2.17-2.82-.94,0-2,.68-2,2.93C309.57,21.27,310.08,22.73,311.59,22.73Z"/><path class="cls-2" d="M327.44,24.81H325V23.45h0A3.16,3.16,0,0,1,322,25.06c-1.91,0-3.28-1.08-3.28-3.55V15.17h2.53v6c0,1.48.88,1.77,1.66,1.77a1.92,1.92,0,0,0,1.95-2.19V15.17h2.54Z"/><path class="cls-2" d="M338.47,22a4.19,4.19,0,0,1-4.25,3.08c-2.71,0-4.8-1.3-4.8-5.27,0-1.16.4-4.88,4.62-4.88,1.91,0,4.53.91,4.53,5.31v.46H332c.07.72.22,2.35,2.26,2.35A1.64,1.64,0,0,0,335.86,22ZM336,19A2,2,0,0,0,334,17c-1.2,0-1.83.76-2,2Z"/><path class="cls-2" d="M96.08,34v12.9H94.16V46H87.5v1H85.65V34Zm-8.58,1.8v3.23h6.66V35.82Zm6.66,8.36V40.82H87.5v3.36Z"/><path class="cls-2" d="M107.84,37.83a13.17,13.17,0,0,0,5.23,5.45,7.73,7.73,0,0,0-1.38,1.62,12.42,12.42,0,0,1-2.44-2V44.6h-2.49v2.53h-1.88V44.6H102.3V43A12.78,12.78,0,0,1,100,44.94a8.36,8.36,0,0,0-1.3-1.48,13.43,13.43,0,0,0,5.16-5.63H99.24V36h5.64V33.14h1.88V36h5.68v1.8Zm-3,5V39.51a17.46,17.46,0,0,1-2.35,3.27Zm4.26,0a16.36,16.36,0,0,1-2.38-3.3v3.3Z"/><path class="cls-2" d="M116.24,40.05a9.88,9.88,0,0,0-2.42-1.53l1-1.32a10,10,0,0,1,2.49,1.41Zm-2.15,6a43.59,43.59,0,0,0,2.19-4.85l1.43,1c-.59,1.61-1.32,3.36-2,4.83Zm2.84-9.89a10.18,10.18,0,0,0-2.45-1.59l1-1.3A10.78,10.78,0,0,1,118,34.7Zm9.79,5.82c0,.6-.07,1.11-.12,1.58h1.19V45h-1.38a3.27,3.27,0,0,1-.45,1.36,1.51,1.51,0,0,1-1.2.68,11.1,11.1,0,0,1-1.89,0,3.49,3.49,0,0,0-.44-1.45c.65,0,1.23.06,1.53.06a.61.61,0,0,0,.56-.24,1.66,1.66,0,0,0,.19-.45H120.2l-.12.73-1.71-.13c.19-1,.42-2.3.61-3.68h-1.29v-1.6h1.5c.11-.83.2-1.65.27-2.42-.18.24-.36.45-.54.66a8.07,8.07,0,0,0-1.5-1,10.27,10.27,0,0,0,2.39-4.44l1.75.36c-.13.45-.28.9-.45,1.34h6.53v1.59h-7.25c-.18.34-.37.67-.58,1h7.12s0,.51,0,.72c0,.81-.06,1.54-.11,2.22H128v1.6Zm-6.09,0c-.07.54-.15,1.07-.21,1.58h1.41c.06-.48.12-1,.18-1.58Zm.2-1.6h1.35c0-.48.07-1,.1-1.43H121ZM125,43.52c0-.44.09-1,.14-1.58h-1.55c-.06.56-.12,1.1-.18,1.58Zm.23-3.18c0-.44,0-.92.06-1.43h-1.43c0,.47-.07,1-.12,1.43Z"/><path class="cls-2" d="M140.19,36.41a11.53,11.53,0,0,0,1.56-.12v2c-.48,0-1.05,0-1.45,0h-1.94c0,2.19.11,4.69.14,6.72,0,1-.54,1.51-1.68,1.51-.92,0-1.76,0-2.61-.09l-.17-2a12.85,12.85,0,0,0,2,.18c.37,0,.52-.19.52-.63,0-1,0-2.5,0-4A20.55,20.55,0,0,1,130.41,45L129,43.44a18,18,0,0,0,6.6-5.2h-4.09c-.54,0-1.19,0-1.71.06v-2a14.15,14.15,0,0,0,1.66.11h5c0-.39,0-.75-.05-1.08s-.07-1-.15-1.52h2.13a12.91,12.91,0,0,0-.09,1.52l0,1.08Z"/><path class="cls-2" d="M151,41.45a13.13,13.13,0,0,0,2.4-3l-4.62.91v4c0,.93.27,1.26,1.91,1.26a25.39,25.39,0,0,0,4.74-.5l-.06,2a35.39,35.39,0,0,1-4.65.33c-3.42,0-3.92-.83-3.92-2.6V39.74c-1.33.27-2.52.51-3.15.66l-.36-2c.71-.09,2-.31,3.51-.58V35.7A11.87,11.87,0,0,0,146.7,34h2.24a11.6,11.6,0,0,0-.14,1.71v1.77c2.19-.4,4.29-.84,5-1a4.51,4.51,0,0,0,1.06-.36l1.44,1.13c-.13.21-.36.54-.49.81a21.22,21.22,0,0,1-3.11,4.36Z"/><path class="cls-2" d="M170.72,35.67a8.87,8.87,0,0,0-.59.78,15.07,15.07,0,0,1-3.61,4.11L165,39.32a9,9,0,0,0,2.76-2.79h-7.81c-.63,0-1.13,0-1.83.1V34.55a11.89,11.89,0,0,0,1.83.15H168a7.5,7.5,0,0,0,1.52-.14Zm-6.12,2c0,3.72-.08,6.78-4.17,9l-1.74-1.43a5.8,5.8,0,0,0,1.57-.82c1.91-1.32,2.27-2.91,2.27-5.37a7.76,7.76,0,0,0-.11-1.35Z"/><path class="cls-2" d="M177.09,42.45a14.18,14.18,0,0,0,5.46-5.83l1.17,2.11a15.83,15.83,0,0,1-5.55,5.55,16.12,16.12,0,0,1-5.56,2.12l-1.26-2A15.4,15.4,0,0,0,177.09,42.45Zm0-4.86-1.53,1.58a30.38,30.38,0,0,0-3.75-3.24l1.41-1.5A31,31,0,0,1,177.09,37.59Z"/><path class="cls-2" d="M188.24,34.32c0,.33-.05.66-.05,1.14v5.07c0,.38,0,1,.05,1.31H186c0-.29.07-.87.07-1.32V35.46a9.18,9.18,0,0,0-.06-1.14Zm6.91-.13c0,.42-.06.9-.06,1.5v3c0,3.22-.63,4.6-1.74,5.83a8.74,8.74,0,0,1-3.64,2.18L188.13,45a7.13,7.13,0,0,0,3.68-1.89c1-1.13,1.21-2.25,1.21-4.59V35.69a10.58,10.58,0,0,0-.09-1.5Z"/><path class="cls-2" d="M198,38.88c.54,0,1.63.09,2.41.09h8.05c.69,0,1.37-.06,1.76-.09v2.36c-.36,0-1.13-.08-1.76-.08h-8.05c-.85,0-1.86,0-2.41.08Z"/><path class="cls-2" d="M223.1,36.06l1.27.78a7.05,7.05,0,0,0-.49,1.07,15.21,15.21,0,0,1-2.63,5,13.92,13.92,0,0,1-6,4.24l-1.77-1.59a12,12,0,0,0,6-3.72,10.58,10.58,0,0,0,2.13-4.08h-4.23a16.16,16.16,0,0,1-3.78,3.63l-1.68-1.26a12.79,12.79,0,0,0,4.68-4.81,6.9,6.9,0,0,0,.68-1.58l2.2.72c-.36.53-.75,1.2-.93,1.53l0,.08h3a4.93,4.93,0,0,0,1.31-.18l.1.06A18.27,18.27,0,0,0,221.84,34l1.18-.48a21.47,21.47,0,0,1,1.19,2.06Zm1.69-3.19a20.32,20.32,0,0,1,1.22,2l-1.2.51a14.28,14.28,0,0,0-1.2-2.07Z"/><path class="cls-2" d="M232.07,34a18.23,18.23,0,0,1-4.06,6.1,10.83,10.83,0,0,0-1.71-1.33A12.88,12.88,0,0,0,230,33.45Zm4.17,7a35.15,35.15,0,0,1,3.45,5.17l-1.86,1a9.25,9.25,0,0,0-.62-1.2c-3.59.24-7.38.46-10,.58L227,44.72l2.08-.08a35.49,35.49,0,0,0,2.56-6.06l2.15.5a55.58,55.58,0,0,1-2.67,5.47l5.11-.25c-.54-.84-1.13-1.7-1.69-2.43ZM236,33.48A20.2,20.2,0,0,0,240,38.6a9.25,9.25,0,0,0-1.5,1.56,31.25,31.25,0,0,1-4.22-5.94Z"/><path class="cls-2" d="M250.75,37.41c.31,4.38,1.23,7.85,2.32,7.85.31,0,.49-.8.57-2.7a4.67,4.67,0,0,0,1.56,1c-.27,2.83-.87,3.52-2.3,3.52-2.56,0-3.69-4.44-4.05-9.72H241.4V35.67h7.37c0-.81-.05-1.65-.05-2.47h1.92c0,.82,0,1.66,0,2.47H253a10.36,10.36,0,0,0-1.75-1.57l1.19-1a11.55,11.55,0,0,1,2,1.67l-1,.88h1.41v1.74ZM246,44.15l2.79-.53.14,1.59c-2.46.54-5.1,1.1-7,1.5l-.5-1.8,2.84-.45V40.85H242V39.12h6.43v1.73H246Z"/><path class="cls-2" d="M260.9,40.26A24.39,24.39,0,0,1,258,44.45l-1.64-1.11a15,15,0,0,0,2.82-3.87Zm3.39-2.13v7c0,.87-.51,1.41-1.58,1.41a21.27,21.27,0,0,1-2.42-.14l-.19-1.84a9.87,9.87,0,0,0,1.67.16c.39,0,.52-.15.54-.54,0-.55,0-5.31,0-6v0h-3.81c-.45,0-1,0-1.44.06v-2a13.54,13.54,0,0,0,1.44.11h3.81v-1.2a11.11,11.11,0,0,0-.12-1.31h2.21a10.12,10.12,0,0,0-.13,1.32v1.19h3.48a11.84,11.84,0,0,0,1.48-.11v2c-.46,0-1.05,0-1.47,0Zm3,1.29a33.87,33.87,0,0,1,2.57,3.95l-1.75,1a30.53,30.53,0,0,0-2.45-4Z"/><path class="cls-2" d="M271.73,38.88c.54,0,1.64.09,2.42.09h8.05c.69,0,1.36-.06,1.76-.09v2.36c-.36,0-1.13-.08-1.76-.08h-8.05c-.86,0-1.86,0-2.42.08Z"/><path class="cls-2" d="M296.16,46.5c-.19-.51-.43-1.12-.7-1.77-2.45.29-7,.77-8.88,1l-1.41.18-.34-2.19h1.65l.4,0c.87-2.22,2.16-6.33,2.59-7.89a11.09,11.09,0,0,0,.36-1.72l2.39.48c-.21.45-.42,1-.65,1.66-.48,1.47-1.69,5.28-2.44,7.29,1.83-.18,4-.42,5.47-.6A18.07,18.07,0,0,0,293,40.13l1.87-.77a45.61,45.61,0,0,1,3.29,6.24Z"/><path class="cls-2" d="M300,40.43c.69-.69,1.86-2.16,2.88-3.39.9-1.07,1.71-1.17,2.94-.14A40,40,0,0,1,308.89,40c1,1.09,2.61,2.8,3.69,4L311,45.74c-1-1.23-2.32-2.9-3.21-3.93a31.42,31.42,0,0,0-2.76-3c-.52-.45-.78-.45-1.21.09-.59.75-1.67,2.23-2.28,3.06-.35.46-.71,1-1,1.39l-1.77-1.81C299.23,41.19,299.56,40.88,300,40.43Zm10-5.73a1.94,1.94,0,1,1,0,3.88,1.94,1.94,0,1,1,0-3.88Zm0,2.89a1,1,0,0,0,1-.94,1,1,0,0,0-1-1,1,1,0,0,0-.95,1A.94.94,0,0,0,310,37.59Z"/><path class="cls-2" d="M314.32,38.88c.54,0,1.63.09,2.41.09h8.06c.69,0,1.36-.06,1.75-.09v2.36c-.36,0-1.12-.08-1.75-.08h-8.06c-.85,0-1.86,0-2.41.08Z"/><path class="cls-2" d="M332.89,39.56l-1.1,1.68a40,40,0,0,0-3.42-2.15l1.08-1.65C330.47,38,332.12,39,332.89,39.56Zm1.2,3.42a15.15,15.15,0,0,0,5.83-5.63l1.16,2a18,18,0,0,1-6,5.4,18.72,18.72,0,0,1-5,1.85l-1.12-2A16,16,0,0,0,334.09,43Zm1.09-6.81-1.11,1.65c-.84-.59-2.4-1.59-3.39-2.15L331.76,34C332.75,34.56,334.4,35.63,335.18,36.17Zm4.47.46-1.3.56A13.94,13.94,0,0,0,337,34.83l1.24-.52A20.85,20.85,0,0,1,339.65,36.63Zm2.1-.81-1.27.57a15,15,0,0,0-1.41-2.28l1.27-.52A18.58,18.58,0,0,1,341.75,35.82Z"/></g></g></svg>