<svg xmlns="http://www.w3.org/2000/svg" xmlns:xlink="http://www.w3.org/1999/xlink" viewBox="0 0 49.94 50"><defs><style>.cls-1{fill:url(#名称未設定グラデーション_59);}.cls-2{fill:url(#名称未設定グラデーション_59-2);}.cls-3{fill:url(#名称未設定グラデーション_59-3);}.cls-4{fill:url(#名称未設定グラデーション_59-4);}.cls-5{fill:url(#名称未設定グラデーション_59-5);}.cls-6{fill:url(#名称未設定グラデーション_59-6);}.cls-7{fill:url(#名称未設定グラデーション_59-7);}.cls-8{fill:url(#名称未設定グラデーション_59-8);}.cls-9{fill:url(#名称未設定グラデーション_59-9);}.cls-10{fill:url(#名称未設定グラデーション_59-10);}.cls-11{fill:url(#名称未設定グラデーション_59-11);}.cls-12{fill:url(#名称未設定グラデーション_59-12);}.cls-13{fill:url(#名称未設定グラデーション_59-13);}.cls-14{fill:url(#名称未設定グラデーション_59-14);}.cls-15{fill:url(#名称未設定グラデーション_59-15);}.cls-16{fill:url(#名称未設定グラデーション_59-16);}.cls-17{fill:url(#名称未設定グラデーション_59-17);}.cls-18{fill:url(#名称未設定グラデーション_59-18);}.cls-19{fill:url(#名称未設定グラデーション_59-19);}.cls-20{fill:url(#名称未設定グラデーション_59-20);}.cls-21{fill:url(#名称未設定グラデーション_59-21);}.cls-22{fill:url(#名称未設定グラデーション_59-22);}.cls-23{fill:url(#名称未設定グラデーション_59-23);}.cls-24{fill:url(#名称未設定グラデーション_59-24);}.cls-25{fill:url(#名称未設定グラデーション_59-25);}.cls-26{fill:url(#名称未設定グラデーション_59-26);}.cls-27{fill:url(#名称未設定グラデーション_59-27);}.cls-28{fill:url(#名称未設定グラデーション_59-28);}.cls-29{fill:url(#名称未設定グラデーション_59-29);}.cls-30{fill:url(#名称未設定グラデーション_59-30);}.cls-31{fill:url(#名称未設定グラデーション_59-31);}.cls-32{fill:url(#名称未設定グラデーション_59-32);}.cls-33{fill:url(#名称未設定グラデーション_59-33);}.cls-34{fill:url(#名称未設定グラデーション_59-34);}.cls-35{fill:url(#名称未設定グラデーション_59-35);}.cls-36{fill:url(#名称未設定グラデーション_59-36);}.cls-37{fill:url(#名称未設定グラデーション_59-37);}.cls-38{fill:url(#名称未設定グラデーション_59-38);}.cls-39{fill:url(#名称未設定グラデーション_59-39);}.cls-40{fill:url(#名称未設定グラデーション_59-40);}.cls-41{fill:url(#名称未設定グラデーション_59-41);}.cls-42{fill:url(#名称未設定グラデーション_59-42);}.cls-43{fill:url(#名称未設定グラデーション_59-43);}.cls-44{fill:url(#名称未設定グラデーション_59-44);}.cls-45{fill:url(#名称未設定グラデーション_59-45);}.cls-46{fill:url(#名称未設定グラデーション_59-46);}.cls-47{fill:url(#名称未設定グラデーション_59-47);}.cls-48{fill:url(#名称未設定グラデーション_59-48);}.cls-49{fill:url(#名称未設定グラデーション_59-49);}.cls-50{fill:url(#名称未設定グラデーション_59-50);}.cls-51{fill:url(#名称未設定グラデーション_59-51);}.cls-52{fill:url(#名称未設定グラデーション_59-52);}.cls-53{fill:url(#名称未設定グラデーション_59-53);}.cls-54{fill:url(#名称未設定グラデーション_59-54);}.cls-55{fill:url(#名称未設定グラデーション_59-55);}.cls-56{fill:url(#名称未設定グラデーション_59-56);}.cls-57{fill:url(#名称未設定グラデーション_59-57);}.cls-58{fill:url(#名称未設定グラデーション_59-58);}.cls-59{fill:url(#名称未設定グラデーション_59-59);}.cls-60{fill:url(#名称未設定グラデーション_59-60);}.cls-61{fill:url(#名称未設定グラデーション_59-61);}.cls-62{fill:url(#名称未設定グラデーション_59-62);}.cls-63{fill:url(#名称未設定グラデーション_59-63);}.cls-64{fill:url(#名称未設定グラデーション_59-64);}.cls-65{fill:url(#名称未設定グラデーション_59-65);}.cls-66{fill:url(#名称未設定グラデーション_59-66);}.cls-67{fill:url(#名称未設定グラデーション_59-67);}.cls-68{fill:url(#名称未設定グラデーション_59-68);}.cls-69{fill:url(#名称未設定グラデーション_59-69);}.cls-70{fill:url(#名称未設定グラデーション_59-70);}.cls-71{fill:url(#名称未設定グラデーション_59-71);}.cls-72{fill:url(#名称未設定グラデーション_59-72);}.cls-73{fill:url(#名称未設定グラデーション_59-73);}.cls-74{fill:url(#名称未設定グラデーション_59-74);}.cls-75{fill:url(#名称未設定グラデーション_59-75);}.cls-76{fill:url(#名称未設定グラデーション_59-76);}.cls-77{fill:url(#名称未設定グラデーション_59-77);}.cls-78{fill:url(#名称未設定グラデーション_59-78);}.cls-79{fill:url(#名称未設定グラデーション_59-79);}.cls-80{fill:url(#名称未設定グラデーション_59-80);}.cls-81{fill:url(#名称未設定グラデーション_59-81);}.cls-82{fill:url(#名称未設定グラデーション_59-82);}.cls-83{fill:url(#名称未設定グラデーション_59-83);}.cls-84{fill:url(#名称未設定グラデーション_59-84);}.cls-85{fill:url(#名称未設定グラデーション_59-85);}.cls-86{fill:url(#名称未設定グラデーション_59-86);}.cls-87{fill:url(#名称未設定グラデーション_59-87);}.cls-88{fill:url(#名称未設定グラデーション_59-88);}.cls-89{fill:url(#名称未設定グラデーション_59-89);}.cls-90{fill:url(#名称未設定グラデーション_59-90);}.cls-91{fill:url(#名称未設定グラデーション_59-91);}.cls-92{fill:url(#名称未設定グラデーション_59-92);}.cls-93{fill:url(#名称未設定グラデーション_59-93);}.cls-94{fill:url(#名称未設定グラデーション_59-94);}</style><linearGradient id="名称未設定グラデーション_59" x1="41.79" y1="14.19" x2="42.07" y2="14.19" gradientUnits="userSpaceOnUse"><stop offset="0" stop-color="#fccf00"/><stop offset="0.3" stop-color="#f08c00"/><stop offset="0.6" stop-color="#ffd800"/></linearGradient><linearGradient id="名称未設定グラデーション_59-2" x1="42.43" y1="13.58" x2="42.65" y2="13.58" xlink:href="#名称未設定グラデーション_59"/><linearGradient id="名称未設定グラデーション_59-3" x1="30.09" y1="26.11" x2="30.13" y2="26.11" xlink:href="#名称未設定グラデーション_59"/><linearGradient id="名称未設定グラデーション_59-4" x1="29.94" y1="26.23" x2="30.09" y2="26.23" xlink:href="#名称未設定グラデーション_59"/><linearGradient id="名称未設定グラデーション_59-5" x1="48.28" y1="1.49" x2="48.52" y2="1.49" xlink:href="#名称未設定グラデーション_59"/><linearGradient id="名称未設定グラデーション_59-6" x1="48.15" y1="1.83" x2="48.39" y2="1.83" xlink:href="#名称未設定グラデーション_59"/><linearGradient id="名称未設定グラデーション_59-7" x1="39.12" y1="9.29" x2="40.07" y2="9.29" xlink:href="#名称未設定グラデーション_59"/><linearGradient id="名称未設定グラデーション_59-8" x1="10.87" y1="41.27" x2="10.88" y2="41.27" xlink:href="#名称未設定グラデーション_59"/><linearGradient id="名称未設定グラデーション_59-9" x1="48.63" y1="0.79" x2="49.94" y2="0.79" xlink:href="#名称未設定グラデーション_59"/><linearGradient id="名称未設定グラデーション_59-10" x1="35.42" y1="13.63" x2="35.97" y2="13.63" xlink:href="#名称未設定グラデーション_59"/><linearGradient id="名称未設定グラデーション_59-11" x1="45.66" y1="4.2" x2="45.85" y2="4.2" xlink:href="#名称未設定グラデーション_59"/><linearGradient id="名称未設定グラデーション_59-12" x1="44.06" y1="4.59" x2="44.26" y2="4.59" xlink:href="#名称未設定グラデーション_59"/><linearGradient id="名称未設定グラデーション_59-13" x1="46" y1="3.84" x2="46.2" y2="3.84" xlink:href="#名称未設定グラデーション_59"/><linearGradient id="名称未設定グラデーション_59-14" x1="46.83" y1="2.65" x2="47.25" y2="2.65" xlink:href="#名称未設定グラデーション_59"/><linearGradient id="名称未設定グラデーション_59-15" x1="44.38" y1="4.25" x2="44.64" y2="4.25" xlink:href="#名称未設定グラデーション_59"/><linearGradient id="名称未設定グラデーション_59-16" x1="43.27" y1="5.46" x2="43.51" y2="5.46" xlink:href="#名称未設定グラデーション_59"/><linearGradient id="名称未設定グラデーション_59-17" x1="35.14" y1="18.86" x2="35.34" y2="18.86" xlink:href="#名称未設定グラデーション_59"/><linearGradient id="名称未設定グラデーション_59-18" x1="40.7" y1="7.98" x2="40.9" y2="7.98" xlink:href="#名称未設定グラデーション_59"/><linearGradient id="名称未設定グラデーション_59-19" x1="42.49" y1="6.04" x2="43.23" y2="6.04" xlink:href="#名称未設定グラデーション_59"/><linearGradient id="名称未設定グラデーション_59-20" x1="34.8" y1="18.56" x2="34.97" y2="18.56" xlink:href="#名称未設定グラデーション_59"/><linearGradient id="名称未設定グラデーション_59-21" x1="36.96" y1="12.51" x2="37.58" y2="12.51" xlink:href="#名称未設定グラデーション_59"/><linearGradient id="名称未設定グラデーション_59-22" x1="37.96" y1="11.86" x2="38.22" y2="11.86" xlink:href="#名称未設定グラデーション_59"/><linearGradient id="名称未設定グラデーション_59-23" x1="37.52" y1="12.34" x2="37.84" y2="12.34" xlink:href="#名称未設定グラデーション_59"/><linearGradient id="名称未設定グラデーション_59-24" x1="36.82" y1="13.16" x2="37.05" y2="13.16" xlink:href="#名称未設定グラデーション_59"/><linearGradient id="名称未設定グラデーション_59-25" x1="39.24" y1="10.13" x2="39.46" y2="10.13" xlink:href="#名称未設定グラデーション_59"/><linearGradient id="名称未設定グラデーション_59-26" x1="38.88" y1="10.93" x2="39.08" y2="10.93" xlink:href="#名称未設定グラデーション_59"/><linearGradient id="名称未設定グラデーション_59-27" x1="41.57" y1="8.26" x2="41.79" y2="8.26" xlink:href="#名称未設定グラデーション_59"/><linearGradient id="名称未設定グラデーション_59-28" x1="39.43" y1="10.31" x2="39.65" y2="10.31" xlink:href="#名称未設定グラデーション_59"/><linearGradient id="名称未設定グラデーション_59-29" x1="36.5" y1="13.52" x2="36.71" y2="13.52" xlink:href="#名称未設定グラデーション_59"/><linearGradient id="名称未設定グラデーション_59-30" x1="35.02" y1="15.02" x2="35.39" y2="15.02" xlink:href="#名称未設定グラデーション_59"/><linearGradient id="名称未設定グラデーション_59-31" x1="32.26" y1="17.88" x2="33.22" y2="17.88" xlink:href="#名称未設定グラデーション_59"/><linearGradient id="名称未設定グラデーション_59-32" x1="33.51" y1="16.73" x2="33.79" y2="16.73" xlink:href="#名称未設定グラデーション_59"/><linearGradient id="名称未設定グラデーション_59-33" x1="45.8" y1="7.49" x2="45.93" y2="7.49" xlink:href="#名称未設定グラデーション_59"/><linearGradient id="名称未設定グラデーション_59-34" x1="45.89" y1="7.18" x2="46.17" y2="7.18" xlink:href="#名称未設定グラデーション_59"/><linearGradient id="名称未設定グラデーション_59-35" x1="35.77" y1="14.12" x2="36.3" y2="14.12" xlink:href="#名称未設定グラデーション_59"/><linearGradient id="名称未設定グラデーション_59-36" x1="32.78" y1="17.44" x2="33.17" y2="17.44" xlink:href="#名称未設定グラデーション_59"/><linearGradient id="名称未設定グラデーション_59-37" x1="29.88" y1="26.47" x2="30.01" y2="26.47" xlink:href="#名称未設定グラデーション_59"/><linearGradient id="名称未設定グラデーション_59-38" x1="35.44" y1="14.65" x2="35.72" y2="14.65" xlink:href="#名称未設定グラデーション_59"/><linearGradient id="名称未設定グラデーション_59-39" x1="33.85" y1="16.22" x2="34.51" y2="16.22" xlink:href="#名称未設定グラデーション_59"/><linearGradient id="名称未設定グラデーション_59-40" x1="38.18" y1="17.64" x2="38.54" y2="17.64" xlink:href="#名称未設定グラデーション_59"/><linearGradient id="名称未設定グラデーション_59-41" x1="39.42" y1="16.25" x2="39.88" y2="16.25" xlink:href="#名称未設定グラデーション_59"/><linearGradient id="名称未設定グラデーション_59-42" x1="39.47" y1="16.36" x2="39.95" y2="16.36" xlink:href="#名称未設定グラデーション_59"/><linearGradient id="名称未設定グラデーション_59-43" x1="36.75" y1="19.2" x2="37" y2="19.2" xlink:href="#名称未設定グラデーション_59"/><linearGradient id="名称未設定グラデーション_59-44" x1="38.05" y1="17.93" x2="38.41" y2="17.93" xlink:href="#名称未設定グラデーション_59"/><linearGradient id="名称未設定グラデーション_59-45" x1="35.83" y1="20.16" x2="36.02" y2="20.16" xlink:href="#名称未設定グラデーション_59"/><linearGradient id="名称未設定グラデーション_59-46" x1="34.06" y1="22.17" x2="34.43" y2="22.17" xlink:href="#名称未設定グラデーション_59"/><linearGradient id="名称未設定グラデーション_59-47" x1="33.72" y1="22.43" x2="33.99" y2="22.43" xlink:href="#名称未設定グラデーション_59"/><linearGradient id="名称未設定グラデーション_59-48" x1="33.57" y1="22.76" x2="33.73" y2="22.76" xlink:href="#名称未設定グラデーション_59"/><linearGradient id="名称未設定グラデーション_59-49" x1="31.83" y1="24.61" x2="31.94" y2="24.61" xlink:href="#名称未設定グラデーション_59"/><linearGradient id="名称未設定グラデーション_59-50" x1="34.1" y1="21.8" x2="34.55" y2="21.8" xlink:href="#名称未設定グラデーション_59"/><linearGradient id="名称未設定グラデーション_59-51" x1="33.2" y1="22.74" x2="33.4" y2="22.74" xlink:href="#名称未設定グラデーション_59"/><linearGradient id="名称未設定グラデーション_59-52" x1="34.07" y1="22.12" x2="34.2" y2="22.12" xlink:href="#名称未設定グラデーション_59"/><linearGradient id="名称未設定グラデーション_59-53" x1="34.85" y1="21.04" x2="35.54" y2="21.04" xlink:href="#名称未設定グラデーション_59"/><linearGradient id="名称未設定グラデーション_59-54" x1="34.6" y1="21.55" x2="34.95" y2="21.55" xlink:href="#名称未設定グラデーション_59"/><linearGradient id="名称未設定グラデーション_59-55" x1="35.43" y1="20.65" x2="35.65" y2="20.65" xlink:href="#名称未設定グラデーション_59"/><linearGradient id="名称未設定グラデーション_59-56" x1="30.21" y1="26.19" x2="30.36" y2="26.19" xlink:href="#名称未設定グラデーション_59"/><linearGradient id="名称未設定グラデーション_59-57" x1="44.17" y1="6.69" x2="44.44" y2="6.69" xlink:href="#名称未設定グラデーション_59"/><linearGradient id="名称未設定グラデーション_59-58" x1="32.14" y1="21.96" x2="32.36" y2="21.96" xlink:href="#名称未設定グラデーション_59"/><linearGradient id="名称未設定グラデーション_59-59" x1="30.36" y1="24.04" x2="30.65" y2="24.04" xlink:href="#名称未設定グラデーション_59"/><linearGradient id="名称未設定グラデーション_59-60" x1="47.74" y1="2.29" x2="47.94" y2="2.29" xlink:href="#名称未設定グラデーション_59"/><linearGradient id="名称未設定グラデーション_59-61" x1="34.49" y1="19.39" x2="34.66" y2="19.39" xlink:href="#名称未設定グラデーション_59"/><linearGradient id="名称未設定グラデーション_59-62" x1="46.05" y1="7.18" x2="46.24" y2="7.18" xlink:href="#名称未設定グラデーション_59"/><linearGradient id="名称未設定グラデーション_59-63" x1="47.45" y1="2.37" x2="47.64" y2="2.37" xlink:href="#名称未設定グラデーション_59"/><linearGradient id="名称未設定グラデーション_59-64" x1="28.9" y1="25.44" x2="29.16" y2="25.44" xlink:href="#名称未設定グラデーション_59"/><linearGradient id="名称未設定グラデーション_59-65" x1="29.73" y1="24.5" x2="29.92" y2="24.5" xlink:href="#名称未設定グラデーション_59"/><linearGradient id="名称未設定グラデーション_59-66" x1="46.96" y1="7.22" x2="47.25" y2="7.22" xlink:href="#名称未設定グラデーション_59"/><linearGradient id="名称未設定グラデーション_59-67" x1="27.3" y1="27.05" x2="27.95" y2="27.05" xlink:href="#名称未設定グラデーション_59"/><linearGradient id="名称未設定グラデーション_59-68" x1="42.91" y1="10.92" x2="43.1" y2="10.92" xlink:href="#名称未設定グラデーション_59"/><linearGradient id="名称未設定グラデーション_59-69" x1="47.36" y1="6.75" x2="47.58" y2="6.75" xlink:href="#名称未設定グラデーション_59"/><linearGradient id="名称未設定グラデーション_59-70" x1="26.52" y1="28.24" x2="26.7" y2="28.24" xlink:href="#名称未設定グラデーション_59"/><linearGradient id="名称未設定グラデーション_59-71" x1="44.34" y1="9.4" x2="44.64" y2="9.4" xlink:href="#名称未設定グラデーション_59"/><linearGradient id="名称未設定グラデーション_59-72" x1="26.2" y1="28.53" x2="26.47" y2="28.53" xlink:href="#名称未設定グラデーション_59"/><linearGradient id="名称未設定グラデーション_59-73" x1="45.3" y1="8.45" x2="45.62" y2="8.45" xlink:href="#名称未設定グラデーション_59"/><linearGradient id="名称未設定グラデーション_59-74" x1="30.68" y1="23.64" x2="30.95" y2="23.64" xlink:href="#名称未設定グラデーション_59"/><linearGradient id="名称未設定グラデーション_59-75" x1="43.78" y1="9.12" x2="44.04" y2="9.12" xlink:href="#名称未設定グラデーション_59"/><linearGradient id="名称未設定グラデーション_59-76" x1="42.97" y1="8.69" x2="43.73" y2="8.69" xlink:href="#名称未設定グラデーション_59"/><linearGradient id="名称未設定グラデーション_59-77" x1="37.56" y1="15.87" x2="37.87" y2="15.87" xlink:href="#名称未設定グラデーション_59"/><linearGradient id="名称未設定グラデーション_59-78" x1="42.97" y1="7.91" x2="43.32" y2="7.91" xlink:href="#名称未設定グラデーション_59"/><linearGradient id="名称未設定グラデーション_59-79" x1="42.3" y1="9.13" x2="42.46" y2="9.13" xlink:href="#名称未設定グラデーション_59"/><linearGradient id="名称未設定グラデーション_59-80" x1="43.16" y1="8.27" x2="43.39" y2="8.27" xlink:href="#名称未設定グラデーション_59"/><linearGradient id="名称未設定グラデーション_59-81" x1="45.53" y1="4.89" x2="45.74" y2="4.89" xlink:href="#名称未設定グラデーション_59"/><linearGradient id="名称未設定グラデーション_59-82" x1="44.69" y1="5.77" x2="44.95" y2="5.77" xlink:href="#名称未設定グラデーション_59"/><linearGradient id="名称未設定グラデーション_59-83" x1="44.06" y1="7.72" x2="44.27" y2="7.72" xlink:href="#名称未設定グラデーション_59"/><linearGradient id="名称未設定グラデーション_59-84" x1="35.34" y1="18.74" x2="35.35" y2="18.74" xlink:href="#名称未設定グラデーション_59"/><linearGradient id="名称未設定グラデーション_59-85" x1="43.79" y1="8.04" x2="44.02" y2="8.04" xlink:href="#名称未設定グラデーション_59"/><linearGradient id="名称未設定グラデーション_59-86" x1="42.71" y1="10.35" x2="42.87" y2="10.35" xlink:href="#名称未設定グラデーション_59"/><linearGradient id="名称未設定グラデーション_59-87" x1="40.79" y1="12.37" x2="41.11" y2="12.37" xlink:href="#名称未設定グラデーション_59"/><linearGradient id="名称未設定グラデーション_59-88" x1="41.41" y1="10.61" x2="41.77" y2="10.61" xlink:href="#名称未設定グラデーション_59"/><linearGradient id="名称未設定グラデーション_59-89" x1="40.19" y1="13.12" x2="40.33" y2="13.12" xlink:href="#名称未設定グラデーション_59"/><linearGradient id="名称未設定グラデーション_59-90" x1="41.7" y1="9.33" x2="41.88" y2="9.33" xlink:href="#名称未設定グラデーション_59"/><linearGradient id="名称未設定グラデーション_59-91" x1="41.99" y1="9.66" x2="42.77" y2="9.66" xlink:href="#名称未設定グラデーション_59"/><linearGradient id="名称未設定グラデーション_59-92" x1="41.84" y1="10.1" x2="42.1" y2="10.1" xlink:href="#名称未設定グラデーション_59"/><linearGradient id="名称未設定グラデーション_59-93" x1="38.06" y1="10.97" x2="38.2" y2="10.97" xlink:href="#名称未設定グラデーション_59"/><linearGradient id="名称未設定グラデーション_59-94" x1="0" y1="26.56" x2="46.91" y2="26.56" xlink:href="#名称未設定グラデーション_59"/></defs><g id="Layer_2" data-name="Layer 2"><g id="レイヤー_2" data-name="レイヤー 2"><path class="cls-1" d="M42.07,14a1.19,1.19,0,0,0-.28.4C41.89,14.27,42.09,14.06,42.07,14Z"/><path class="cls-2" d="M42.62,13.5s-.1.06-.08,0a.4.4,0,0,0-.11.19l.22-.22C42.66,13.43,42.63,13.47,42.62,13.5Z"/><path class="cls-3" d="M30.09,26.14l0-.05,0,0S30.09,26.13,30.09,26.14Z"/><path class="cls-4" d="M30.09,26.14l-.15.15C29.93,26.38,30.06,26.22,30.09,26.14Z"/><path class="cls-5" d="M48.28,1.62c.08-.09.19-.13.24-.26A.56.56,0,0,0,48.28,1.62Z"/><path class="cls-6" d="M48.15,2c.08-.07.2-.11.24-.26C48.32,1.81,48.2,1.84,48.15,2Z"/><path class="cls-7" d="M39.59,9.39c0-.18.36-.4.48-.64-.36.37-.64.74-.94,1.05,0,.11.09-.08.13-.07A.83.83,0,0,1,39.59,9.39Z"/><path class="cls-8" d="M10.87,41.29h0v0Z"/><path class="cls-9" d="M49.78.15a6.07,6.07,0,0,1-.7.73c-.07.17-.12.19-.19.2s0,0,0,0-.06,0-.17.09,0,.13-.12.37a1.47,1.47,0,0,0,.25-.38c.12,0,.17-.17.24-.26.24-.11.46-.46.57-.52s-.18.08-.23.14c.07-.17.23-.21.3-.38s0,.14.08,0,.08-.11.1-.18C49.73.28,49.9-.24,49.78.15Z"/><path class="cls-10" d="M35.42,13.94l.55-.62A3.28,3.28,0,0,0,35.42,13.94Z"/><path class="cls-11" d="M45.85,4.09l-.14.08a.12.12,0,0,1-.05.12C45.64,4.37,45.83,4.19,45.85,4.09Z"/><path class="cls-12" d="M44.19,4.66l.07-.16c-.09.12-.12.08-.19.12S44.1,4.71,44.19,4.66Z"/><path class="cls-13" d="M46.2,3.73c0-.07-.19.13-.2.24S46.11,3.77,46.2,3.73Z"/><path class="cls-14" d="M47.25,2.41a2.45,2.45,0,0,0-.42.48c.11-.09.06,0,.15-.06S47.15,2.58,47.25,2.41Z"/><path class="cls-15" d="M44.64,4.1l-.13.08c0,.1-.1.13-.13.22A.56.56,0,0,0,44.64,4.1Z"/><path class="cls-16" d="M43.27,5.62a1,1,0,0,0,.24-.32C43.41,5.37,43.35,5.52,43.27,5.62Z"/><path class="cls-17" d="M35.14,18.92c0,.16.11-.12.2-.17A1.06,1.06,0,0,0,35.14,18.92Z"/><path class="cls-18" d="M40.7,8.11a2.56,2.56,0,0,0,.2-.26C40.8,7.9,40.67,8.06,40.7,8.11Z"/><path class="cls-19" d="M42.75,6.28s0-.09.11-.24a.1.1,0,0,0,.08,0,.5.5,0,0,1,.21-.24.58.58,0,0,0,.08-.22s-.11.14-.09.08-.08.15-.13.22a.9.9,0,0,0-.28.19c.06.08-.12.28-.24.47A.85.85,0,0,1,42.75,6.28Z"/><path class="cls-20" d="M35,18.47l-.13.08a.09.09,0,0,1,0,.08C34.77,18.71,35,18.55,35,18.47Z"/><path class="cls-21" d="M37.5,12.3c0-.12.1-.19.08-.23s0,.11-.08.17,0,0-.13.07a1.29,1.29,0,0,1-.4.51s0,.07,0,.12A2.74,2.74,0,0,1,37.5,12.3Z"/><path class="cls-22" d="M38.18,11.87c.09-.15,0-.1,0-.17a2.31,2.31,0,0,0-.24.2c0,.12.1,0,.17-.1S38.06,12,38,12,38.12,11.86,38.18,11.87Z"/><path class="cls-23" d="M37.84,12.18c0-.07-.22.22-.32.28S37.76,12.29,37.84,12.18Z"/><path class="cls-24" d="M36.82,13.26s.18-.07.23-.2S36.86,13.12,36.82,13.26Z"/><path class="cls-25" d="M39.24,10.24c0,.09.16-.17.22-.22S39.3,10.18,39.24,10.24Z"/><path class="cls-26" d="M38.89,11c0,.12.06,0,.14-.05s0-.1,0-.14A.4.4,0,0,0,39,11S38.93,11,38.89,11Z"/><path class="cls-27" d="M41.69,8.32c0-.12.16-.21.08-.23s-.08.15-.2.33A.38.38,0,0,1,41.69,8.32Z"/><path class="cls-28" d="M39.64,10.27q0-.12-.06-.09c0,.14-.18.22-.15.27S39.54,10.28,39.64,10.27Z"/><path class="cls-29" d="M36.51,13.62c0,.09.1-.15.18-.14s0,0,0-.08A.92.92,0,0,0,36.51,13.62Z"/><path class="cls-30" d="M35,15.18c.18-.15,0,.12.18,0-.05-.08.14-.19.19-.32C35.21,15,35.12,15,35,15.18Z"/><path class="cls-31" d="M32.49,18.06s0,.11.1,0,.08-.13.07-.16.05,0,.11,0a2.43,2.43,0,0,1,.45-.5c-.09-.06-.29.3-.45.36a.45.45,0,0,1-.27.27,3.61,3.61,0,0,0-.24.41l.17-.16c.06-.1,0,0,0-.08S32.47,18.1,32.49,18.06Z"/><path class="cls-32" d="M33.6,16.9c.08,0,.1-.17.19-.2s.07-.2-.09-.13a.77.77,0,0,1-.19.27c0,.09.11-.1.15-.12S33.54,16.89,33.6,16.9Z"/><path class="cls-33" d="M45.93,7.45c0-.07,0-.06-.11,0s0,.1,0,.17S45.88,7.49,45.93,7.45Z"/><path class="cls-34" d="M46.17,7c-.11.08-.23.13-.28.28A.93.93,0,0,0,46.17,7Z"/><path class="cls-35" d="M35.77,14.44c.24-.29.44-.31.53-.64,0,0-.08.08-.06,0C36.11,14.08,35.9,14.2,35.77,14.44Z"/><path class="cls-36" d="M33.17,17.22c-.15.1-.21.32-.38.39s.09-.05.06,0C33,17.49,33.07,17.37,33.17,17.22Z"/><path class="cls-37" d="M29.9,26.43c0,.07.06,0,0,.17C30,26.47,30.1,26.22,29.9,26.43Z"/><path class="cls-38" d="M35.63,14.64a.26.26,0,0,1,.09-.14c0-.11-.09.08-.14.08.1,0-.08.11-.14.26C35.54,14.83,35.53,14.66,35.63,14.64Z"/><path class="cls-39" d="M34.51,15.86c-.13.07-.21.23-.32.34s0-.06,0-.16c-.2.18-.12.27-.37.54.08,0,.07,0,.19-.12s0,0-.11,0A5.88,5.88,0,0,0,34.51,15.86Z"/><path class="cls-40" d="M38.51,17.6c.11-.15-.09,0,0-.12-.12.1-.22.09-.34.32C38.27,17.84,38.48,17.48,38.51,17.6Z"/><path class="cls-41" d="M39.61,16.36c0-.13.19-.24.27-.42-.13.1-.22.27-.37.34s.05,0,.07,0-.19.19-.15.24S39.52,16.39,39.61,16.36Z"/><path class="cls-42" d="M39.64,16.46c.12-.09.17-.29.31-.35s-.4.31-.48.51C39.51,16.59,39.65,16.36,39.64,16.46Z"/><path class="cls-43" d="M37,19.05a1.21,1.21,0,0,0-.25.3A.93.93,0,0,0,37,19.05Z"/><path class="cls-44" d="M38.05,18.14a1.63,1.63,0,0,1,.36-.42S38,18.06,38.05,18.14Z"/><path class="cls-45" d="M35.94,20.21l.08-.16c-.08.05-.12.15-.19.2S35.9,20.24,35.94,20.21Z"/><path class="cls-46" d="M34.43,21.93c-.15.14-.36.34-.37.48C34.18,22.24,34.35,22.16,34.43,21.93Z"/><path class="cls-47" d="M34,22.31s-.05,0,0,0a1.91,1.91,0,0,0-.24.32A3.57,3.57,0,0,1,34,22.31Z"/><path class="cls-48" d="M33.57,22.91s.08-.1.14-.14-.06,0,0-.16A2.46,2.46,0,0,0,33.57,22.91Z"/><path class="cls-49" d="M31.92,24.5c-.15.13,0,.14-.09.21S32,24.48,31.92,24.5Z"/><path class="cls-50" d="M34.55,21.57c-.07,0-.31.31-.44.43s.19-.19.14-.05A1.29,1.29,0,0,1,34.55,21.57Z"/><path class="cls-51" d="M33.34,22.84a.4.4,0,0,0,.06-.24C33.19,22.88,33.11,22.91,33.34,22.84Z"/><path class="cls-52" d="M34.14,22.05c-.13.11-.06.17,0,.14S34.14,22.1,34.14,22.05Z"/><path class="cls-53" d="M35.11,21.29c-.06-.12.17-.17.34-.37,0,0,0-.08.09-.15s-.24.24-.34.32c0-.09-.26.11-.35.18S35,21.29,35.11,21.29Z"/><path class="cls-54" d="M34.6,21.71c0,.05.07,0,.12,0a.68.68,0,0,1,.2-.24c.09-.14,0,0-.06,0s-.08,0-.07,0-.08.1-.13.14S34.8,21.58,34.6,21.71Z"/><path class="cls-55" d="M35.43,20.75c0,.06.2-.1.22-.22C35.56,20.57,35.51,20.69,35.43,20.75Z"/><path class="cls-56" d="M30.26,26.28a.26.26,0,0,1,.07-.1c.08-.07,0,0,0,0s0-.05,0-.12C30.22,26.16,30.16,26.36,30.26,26.28Z"/><path class="cls-57" d="M44.17,6.79c0,.07.18-.15.26-.16S44.26,6.72,44.17,6.79Z"/><path class="cls-58" d="M32.29,21.94c.06-.05,0-.06.07-.1s-.11.09-.15.11,0,.08-.06.13,0,0,0,0l.06,0S32.3,21.84,32.29,21.94Z"/><path class="cls-59" d="M30.55,24c-.05,0-.1.06-.08,0a.4.4,0,0,0-.11.18l.16-.1c0-.1.1-.13.13-.22A.2.2,0,0,0,30.55,24Z"/><path class="cls-60" d="M47.74,2.38s.07-.06.16-.1,0,0,0-.08S47.76,2.3,47.74,2.38Z"/><path class="cls-61" d="M34.51,19.42c-.07.12.05.07.12,0s-.09,0,0-.12C34.6,19.33,34.54,19.36,34.51,19.42Z"/><path class="cls-62" d="M46.24,7.09c0-.08-.16.12-.19.2S46.17,7.14,46.24,7.09Z"/><path class="cls-63" d="M47.45,2.5a.88.88,0,0,0,.15-.12c0-.08,0-.06,0-.14S47.56,2.35,47.45,2.5Z"/><path class="cls-64" d="M28.9,25.59a1,1,0,0,0,.26-.3A.7.7,0,0,0,28.9,25.59Z"/><path class="cls-65" d="M29.92,24.37a.83.83,0,0,0-.19.26A.48.48,0,0,0,29.92,24.37Z"/><path class="cls-66" d="M47.25,7a1.59,1.59,0,0,0-.29.46A2.58,2.58,0,0,0,47.25,7Z"/><path class="cls-67" d="M27.83,26.67a6.8,6.8,0,0,0-.53.78,7.63,7.63,0,0,0,.54-.7s0,.05,0,.1C28,26.68,28,26.59,27.83,26.67Z"/><path class="cls-68" d="M43,11.05c.08-.15.12-.18.13-.28C43,10.9,42.83,11.12,43,11.05Z"/><path class="cls-69" d="M47.46,6.83s.08-.12.12-.24c-.19.17-.15.2-.22.3S47.41,6.85,47.46,6.83Z"/><path class="cls-70" d="M26.52,28.35c.06-.08.14-.12.18-.22l-.14.08C26.53,28.28,26.57,28.27,26.52,28.35Z"/><path class="cls-71" d="M44.64,9.21c-.12.1-.13.16-.22.16s0,0,0,0-.1.13-.13.22A.89.89,0,0,0,44.64,9.21Z"/><path class="cls-72" d="M26.2,28.69c.12-.05.18-.19.27-.28s0,0,0,0,0,.05,0,0S26.23,28.54,26.2,28.69Z"/><path class="cls-73" d="M45.3,8.62c.09-.13.24-.18.32-.34A.76.76,0,0,0,45.3,8.62Z"/><path class="cls-74" d="M30.88,23.47s0,0,0,0-.08.06-.12.09,0,.11-.09.21.15-.15.08,0C30.84,23.68,31.06,23.36,30.88,23.47Z"/><path class="cls-75" d="M43.84,9.27c0-.14.14-.2.2-.32C43.92,9,43.66,9.38,43.84,9.27Z"/><path class="cls-76" d="M43.14,8.93c.11-.09.06,0,.16-.1s.12-.22.18-.34.14-.11.22-.16-.09,0,0-.12c0,0,0,0-.05.06-.25.18-.42.48-.65.68s0,.11,0,.22C43.12,9.06,43,9,43.14,8.93Z"/><path class="cls-77" d="M37.87,15.66a1.48,1.48,0,0,0-.31.42C37.65,15.94,37.88,15.74,37.87,15.66Z"/><path class="cls-78" d="M43,8.09c.12-.11.22-.23.34-.32s-.17.12-.09,0A1.37,1.37,0,0,0,43,8.09Z"/><path class="cls-79" d="M42.34,9.19s0,.08.06,0,.07-.16.06-.19-.08.15-.15.18S42.33,9.22,42.34,9.19Z"/><path class="cls-80" d="M43.39,8.16c-.09,0-.16.13-.23.2S43.37,8.27,43.39,8.16Z"/><path class="cls-81" d="M45.74,4.74a.81.81,0,0,0-.21.3C45.61,5,45.77,4.8,45.74,4.74Z"/><path class="cls-82" d="M45,5.62c-.09.1-.21.14-.26.3A1,1,0,0,0,45,5.62Z"/><path class="cls-83" d="M44.2,7.77l.07-.16c-.08,0-.11.11-.18.14S44.1,7.83,44.2,7.77Z"/><polygon class="cls-84" points="35.34 18.75 35.34 18.75 35.34 18.74 35.34 18.75"/><path class="cls-85" d="M44,8c.09-.14-.17.18-.2.12s0,.06,0,.1S43.86,8.05,44,8Z"/><path class="cls-86" d="M42.87,10.23c-.09,0-.11.16-.16.24l.12-.1S42.84,10.3,42.87,10.23Z"/><path class="cls-87" d="M40.84,12.41c0,.11,0,.1-.05.2a4.33,4.33,0,0,0,.32-.48C41,12.31,41,12.24,40.84,12.41Z"/><path class="cls-88" d="M41.77,10.39c-.06,0-.3.24-.36.42.06-.05,0,0,0,0C41.59,10.76,41.63,10.49,41.77,10.39Z"/><path class="cls-89" d="M40.2,13.11c0,.07,0,.06,0,.1a.52.52,0,0,0,.1-.18C40.24,13.13,40.29,13.05,40.2,13.11Z"/><path class="cls-90" d="M41.86,9.3c0-.09,0-.11,0-.06s0,.11-.1.18S41.82,9.32,41.86,9.3Z"/><path class="cls-91" d="M42.77,9.14a9.94,9.94,0,0,0-.78,1s.12-.12.1-.06c.13-.12,0-.1.16-.24,0,.07.39-.45.32-.28C42.66,9.55,42.76,9.25,42.77,9.14Z"/><path class="cls-92" d="M42.1,9.92a1.83,1.83,0,0,0-.26.36C42,10.22,42,10,42.1,9.92Z"/><path class="cls-93" d="M38.2,10.88l-.14.18S38.19,11,38.2,10.88Z"/><path class="cls-94" d="M46.57,7.83c-.11,0,0-.11-.23.08a.41.41,0,0,1,.24-.26c.07-.17-.13.08-.16,0a.28.28,0,0,1-.15.18c0,.11-.12.16-.1.2s.16-.19.17-.1-.15.1-.19.2,0-.14-.13,0c.11,0-.11.13-.2.24s0-.09,0-.15c-.07.09-.29.21-.39.38s-.28.27-.42.28c-.12.17-.07.2-.21.36,0,0,0-.08,0-.14-.16.06-.24.23-.37.34s0,.05.08,0c0,.13-.19.21-.15.26s-.08,0-.13.08,0,0,0-.14c-.16.12-.26.33-.45.41,0,.17-.23.18-.29.4,0-.09-.12.11-.17.08a.79.79,0,0,1,.3-.3c0-.18.32-.39.51-.53,0-.05,0-.09.07-.25-.18.39-.85.72-1,1.18a5.24,5.24,0,0,1-.51.54c0,.07,0,.06.08,0l-.11.25a.61.61,0,0,1-.17.15c.06-.12.16-.17.2-.32-.1.06-.17.16-.27.22l-.08.16a.86.86,0,0,1-.13.14c-.07,0,0-.06,0-.16-.21.2,0,.22-.27.42,0,0,0,.06.06,0a.6.6,0,0,1-.14.2c0-.2-.38.24-.55.36.14-.2.56-.58.49-.64.15-.19.33-.33.48-.52,0-.08-.2.2-.29.26a.88.88,0,0,0,.17-.31c.12,0,.15-.16.28-.13.1-.19,0-.16-.06-.15.09-.13.14-.07.2-.11a2.29,2.29,0,0,0,.14-.27c.11-.09.06,0,.15,0s.07-.08.19-.2.24-.29.33-.47,0,.07.08.05c-.12.16-.38.38-.3.44s.11-.19.18-.28a.1.1,0,0,0,.08,0c.08-.18.1-.21.22-.28s-.07-.06,0-.27a.86.86,0,0,0,.07-.1c.12-.08,0,.05.06.09s.14-.16.24-.2,0-.06,0,0c.13-.21.36-.29.45-.56a7.11,7.11,0,0,1,.76-.78c.05-.15.17-.21.25-.32s0-.06,0-.19c-.15.1-.14.12-.26.16a.45.45,0,0,1,0,.2c-.1.15-.24.24-.31.43-.1,0,.05-.21.05-.27s-.25.31-.27.22c-.19.18-.31.46-.53.58.08-.15.19-.25.28-.4a.91.91,0,0,1-.24.2c0,.07,0,.1-.1.11-.15.31-.42.43-.6.68-.12.1,0-.05,0-.12s-.14.16-.23.22a.35.35,0,0,0,.26-.09s0,0,0,.08l-.19.2s0-.11-.1,0,0,.1,0,.15-.08.06-.1.12,0-.09,0-.13.18-.14.22-.28c-.83.89-1.63,1.82-2.48,2.68,0,.15-.28.4-.38.4s.1,0,.07.16-.18.1-.31.3c0,0,0-.05,0-.1-.14.14-.24.34-.38.46.07-.29-.35.3-.62.46-.09.14,0,0,.09,0a2.45,2.45,0,0,1-.33.32s.09-.05.06,0a.64.64,0,0,1-.17.16.43.43,0,0,1-.06.18c-.09.17-.12,0-.21.24-.05,0,0,0,0-.12a4.39,4.39,0,0,0-.67.72s0,0,0-.09c-.2.35-.48.57-.69.89,0,0,0,0,0,0a1.36,1.36,0,0,0-.23.41c-.1.07-.12,0,0-.07a6.66,6.66,0,0,0-.91,1.11c-.12.09,0-.08-.13,0,0-.08.11-.1.14-.2a7.3,7.3,0,0,1-.83,1c0,.09.22-.2.11,0a1.18,1.18,0,0,0-.2.17,2.07,2.07,0,0,1-.27.37.42.42,0,0,1,0-.17,6,6,0,0,1-.71.92s0-.06,0,0-.09.09-.15.12a1.28,1.28,0,0,1-.11.24s-.07,0-.15.06a4.22,4.22,0,0,1-.38.46c-.08,0,.06-.13.09-.14-.14.05-.31.38-.34.52s-.05,0,0-.14a6,6,0,0,1-.51.68c-.07.06,0-.15.09-.14s-.17.09-.3.24c0,0,.14-.2,0-.1,0-.07.12-.1.14-.2-.11.06-.17.2-.27.27s0,.13-.1.21,0,0,.1-.06a1.87,1.87,0,0,0-.25.44c-.14.12,0-.12-.11,0s-.18.27-.15.32a7.19,7.19,0,0,0-.63.7s.06,0,0,.16,0-.16-.23.08c0-.12.13-.17.2-.26s-.24.29-.35.38.06,0,0,.08-.14.16-.25.18,0,.08-.07.22-.22.09-.3.32c-.08.06,0,0-.14.06a.65.65,0,0,1,.17-.22A16.19,16.19,0,0,0,28.83,26s0-.11,0-.21a2.21,2.21,0,0,1-.29.32c0,.11,0,.1,0,.1a3.79,3.79,0,0,0-.85,1.07c-.11,0,.06-.14,0-.17a4.68,4.68,0,0,1-.34.38c0,.05,0,0,0,.09-.15.21-.53.43-.55.62-.08,0-.06,0-.18.07s-.11.24-.22.28c-.05.25-.46.49-.61.8,0,0-.13.07-.1,0a1,1,0,0,1-.39.44.91.91,0,0,1-.13.22.1.1,0,0,0-.08,0c0,.06-.14.22-.1.12a1.5,1.5,0,0,1-.37.42c.07,0,0,.09-.09.2s0-.05,0-.1c-.14.14-.25.31-.39.44.07-.17.14-.14.14-.26a1.51,1.51,0,0,0-.24.26s0-.09.05-.14.23-.15.29-.32c-.11.14-.12,0-.22.16-.06,0,0-.13.11-.25s0,.07,0,.11.11-.19.14-.27a1.44,1.44,0,0,1,.27-.28c-.19.22-.09.23-.24.39s.17-.18,0,.06,0-.09-.1.06,0,0,.1,0a1.31,1.31,0,0,1-.11.12c.14-.09.43-.54.66-.74-.1,0,.08-.13.06-.18a3.22,3.22,0,0,0-.34.46c-.16-.06.3-.51.4-.71s.08.1.24,0c0-.08.18-.18.23-.34-.08.1-.32.34-.29.2.2-.1.11-.2.35-.38s0,.09.14,0l.09-.2s-.09.06-.08,0c.21-.34.46-.6.68-.91-.11,0-.16.17-.25.24.12-.2.36-.53.48-.52a.71.71,0,0,0-.18.29c0,.07.13-.14.11,0,.16-.2.24-.44.42-.48s.11-.16.17-.22,0-.1,0-.09c.21-.18.49-.63.65-.67l.31-.42s0,0,0,.08,0-.12.1-.2.09,0,.07.1c.13-.12.26-.31.35-.3s-.12,0,0-.18c-.19.15,0,.16-.23.34-.07,0,0-.07,0-.2s.46-.38.63-.64c.12,0-.06.13-.11.24a1,1,0,0,0,.25-.32s0,0-.09,0,.12-.09.09-.14c.18-.13.25-.41.46-.48,0-.07.2-.33.26-.3a1.26,1.26,0,0,1,.46-.62c0-.07,0-.05,0-.11s.29-.32.33-.25l.14-.29c.2-.17,0,.13.12,0a1.09,1.09,0,0,1,.33-.4,2.65,2.65,0,0,1,.08-.29c.1,0-.07.23.09.13-.07-.1.26-.48.45-.62s.06-.22.22-.36c0,0,0,.19.09,0,0,0,0,.11-.06.24a.1.1,0,0,0,0-.06l.07,0c.06-.12,0-.08,0-.2s.15-.08.32-.22.2-.2.27-.34a.81.81,0,0,0-.32.34s-.1,0-.18.08c.12-.12.07-.15.24-.26s-.09,0,0-.12a4.49,4.49,0,0,0,.58-.58c0-.07-.18.14-.22.22s.17-.33.3-.45-.18.22-.08.17.08-.16.23-.28c-.08.27.38-.48.62-.58,0-.11.21-.36.31-.56,0,.1.41-.46.45-.57s.1-.06.08,0,.15-.17.23-.35c.14,0,.18-.2.35-.44,0,0,0,.08.13,0,.28-.43.49-.58.79-1,.06,0,0,.09.12,0-.06-.09.15-.25.27-.28-.1,0,0-.24.2-.39.08,0-.16.19-.09.21s.09-.09.15-.12-.06,0,0-.14,0,.11,0,.08.21-.26.18-.28c.11-.17,0,.06.16-.1-.05,0,0-.18.15-.33.09,0,.08-.09.22-.15,0-.05.1-.2.19-.26s0,.07,0,.08.45-.51.32-.55c.12-.08.15-.28.27-.36s-.07.13-.1.27c.11-.1.18-.23.29-.32-.05-.18.35-.53.43-.67,0,.05-.1.21-.13.29s0,0,0-.05c-.13.11-.06.13-.18.29a1,1,0,0,1,.42-.34c.09-.15-.05,0,0-.1a13,13,0,0,0,1-1.12c0-.05.19-.29.08-.23.1-.2.29-.25.23-.34.1-.06,0,.07.06.09s-.1.08-.15.12.1,0,0,.2a2.8,2.8,0,0,0,.27-.42.1.1,0,0,0,.08,0c.06-.14-.07,0-.08,0s.17-.16.21-.3c-.43.41-.83.87-1.23,1.32-.13.11,0-.11-.09,0s-.06.1-.1.2,0-.16.07-.3a5.37,5.37,0,0,0,.77-.84c.08-.1.19-.14.26-.24-.11,0-.08,0,.09-.14s0,0,0-.13c.25-.14.26-.25.43-.45s0,0,.15-.06c0,0,0-.16.14-.26s-.1.19,0,.06a.24.24,0,0,1,.1-.12s0-.07,0-.14a5.08,5.08,0,0,1,.57-.52c0-.14.19-.18.27-.36.08,0-.09.13-.1.2a2.27,2.27,0,0,1,.3-.32c0-.07.05-.19.12-.22s0,0,.07-.24c-.19.24-.32.27-.45.5-.13.06,0-.11-.08-.05s-.06.19,0,.19a1.43,1.43,0,0,0-.16.24c0-.06-.19.16-.27.28s.08-.17.06-.25a.4.4,0,0,0-.12.22,1,1,0,0,0-.3.24s0,.16-.1.27,0-.08-.18,0-.14.16-.2.24-.07,0-.08,0a10.81,10.81,0,0,1-.84.94c-.11.24-.33.33-.45.56-.35.21-.62.83-.9.91,0,.1-.1.14-.13.23a1.1,1.1,0,0,0-.25.17c.09-.14.2-.2.2-.32,0,.11.08-.05.18-.14s-.06,0-.13.08a1.67,1.67,0,0,1,.34-.44c.07,0-.09.17-.14.2s.31-.36.45-.5c-.09,0-.11.15-.2.18a7.37,7.37,0,0,0,.5-.68c.1-.07-.13.24,0,.1l.07-.16a3.54,3.54,0,0,0,.63-.78c-.11.23.12-.07.27-.22,0,0,0-.14-.07,0,.13-.29.24-.2.35-.44.1-.06.08,0,.09.06a.43.43,0,0,0,.13-.28c.09-.15.36-.29.33-.4s.24-.23.22-.16a2.69,2.69,0,0,1,.6-.74,1.12,1.12,0,0,0-.18.34l.3-.23c.07-.1-.13,0,0-.09s-.11.14-.15.18.2-.43.38-.52.26-.53.48-.66l.07-.16c.1-.08,0,0,0,.06s.17-.3.3-.38-.08.14-.09.2a3.53,3.53,0,0,1,.75-.86.93.93,0,0,0,.23-.34c-.07,0-.1,0-.06,0s.37-.46.6-.62a.53.53,0,0,1-.16.24,2.91,2.91,0,0,0,.49-.5c.08-.19-.09.11-.16.1s.17-.2.23-.34,0,0,0-.08-.1.1-.14.08a.55.55,0,0,0,.09-.14c.19-.08.21-.14.4-.3-.05.15-.19.17-.24.32.09,0,.13-.13.22-.16-.09,0,.13-.29.23-.4s0,.06,0,.1.14-.16.23-.2-.1,0-.09,0c.15-.25.37-.4.53-.64,0-.06-.12.16-.22.22s0,0,0,0a2.55,2.55,0,0,0,.28-.4c0-.05-.16.11-.18.22s.07-.2-.09,0c0-.12.23-.34.06-.24s-.08.14,0,.08a.29.29,0,0,1-.12.1c-.08.14,0,.13-.07.22a3.61,3.61,0,0,0-.46.56c-.26.12-.38.43-.59.62,0-.09.27-.36.24-.46a7.54,7.54,0,0,0-.75.94.39.39,0,0,0-.27.28c-.1,0-.11-.06,0-.2-.06,0-.08.1-.13.13s-.07.21.07.11c-.22.15-.34.44-.53.64l.37-.6c-.13,0-.36.47-.51.68-.05,0-.21.18-.3.3s.05,0,0,0a.23.23,0,0,0-.07.1s0-.07-.07,0c-.21.24-.4.54-.61.8,0,0,0,0,0,0,.21-.29.26-.42.46-.69-.22.17-.37.42-.57.6,0,.11.09-.08.13-.08a1.14,1.14,0,0,1-.1.19c-.14.1-.1,0-.22.09s0,.06,0,.14a.26.26,0,0,0,.07-.1c.08,0,.12.06.13-.08.2-.12,0,.12-.07.23.1-.18-.18.13-.11,0-.09.07-.1.22-.18.29s.06-.2.13-.29-.1,0-.06-.08c-.11.08-.17.24-.29.32s.08-.15.1-.26c-.14,0-.18.24-.31.3s.13-.12.2-.12a3,3,0,0,1-.24.26c.15-.1.1,0,.1.08s0,.06-.07.1,0-.11-.09,0-.7.85-.72.72c0,.11-.14.2-.11.24-.16.13-.09,0-.19.06.14-.14.24-.34.38-.46a2.47,2.47,0,0,0-.56.59c-.07,0,0-.08-.1,0a1.08,1.08,0,0,1-.38.46c0,.07-.09.19,0,.17-.11,0-.16.22-.32.34.13,0-.19.27-.15.32-.21.19.06-.19-.09-.07a.81.81,0,0,1-.21.31s0-.07,0-.11A11.15,11.15,0,0,0,40,10c-.09,0-.11.16-.21.18-.25.51-.71.71-1,1.2-.4.28-.93,1.09-1.16,1.16l-.32.34c0,.14-.22.29-.34.46,0,0,0-.07-.06,0s-.15.28-.17.22c-.24.39-.59.63-.85,1,.1-.07,0,.12-.06.18s.07-.17,0-.16a6,6,0,0,0-.71.86c0-.09-.34.25-.36.36s-.11.1-.18.13c0,.27-.69.72-.92,1.17-.31.15-.6.82-.86.91a1.64,1.64,0,0,0,.23-.28c-.1,0-.3.39-.52.6s-.43.37-.39.44-.13.09-.19.14c-.15.25-.36.43-.5.68s-.69.76-1,1.14c-3.58,4-7.1,8-10.6,12.15l-5.22,6.18L10.9,43.6,6.41,38.48c0-.11.89.89,1,.91.59.82,1.36,1.49,2,2.29.09,0,.12.07.23.18s-.05,0-.11-.07c.08.14.26.2.31.36s0-.06.13,0a2.94,2.94,0,0,0,.45.65c.14.16.14.12.22.16s.12.23.21.23a.11.11,0,0,1,0,.06c.06,0,.11.07.16.13a.54.54,0,0,0,.16-.26s0,.05,0,0,0,0,0,0,.13-.12.18-.2a.74.74,0,0,1,.09-.12c.14-.16.28-.32.45-.48,0-.13.34-.41.48-.58s.35-.55.5-.62a2.74,2.74,0,0,1,.62-.72c.1-.16-.09,0,0-.12s.19-.16.13-.08a4.15,4.15,0,0,1,.39-.52c.06,0,.05,0,0,0,.14-.27.34-.44.5-.69.08.06,0,0,.19-.13,0,0,0-.13.09-.21s.06,0,.11,0c.07-.22.4-.42.58-.79.06,0,.07,0,.06,0a16.29,16.29,0,0,0,1-1.33c.15-.19.35-.3.46-.56a1.53,1.53,0,0,0,.48-.52l2.86-3.34c0-.07,0-.05,0-.1a2.64,2.64,0,0,0,.27-.22c.48-.69,1.32-1.45,1.87-2.28.06,0,0,0,.11,0a9.82,9.82,0,0,1,.71-.86s-.16,0,.05-.32c.1,0,.06.05.21-.1s-.08.23-.15.24c-.06.16.22-.13.16-.16.39-.3.63-.8,1-1.1a1,1,0,0,1,.44-.5c.05-.07,0-.06,0,0,.32-.3.59-.67.91-1,0,0,0,0,0-.08a17.06,17.06,0,0,1,1.35-1.47s0,0,0,0c.47-.52.91-1.1,1.42-1.57.3-.43.87-1,1.29-1.5.08-.14-.05,0,0-.17a.58.58,0,0,1,.1-.12c0,.23.36-.32.52-.45s-.12.12-.18.13.1-.16.13-.22c.27-.07.55-.55.84-.79.09-.14-.05,0,0-.17s.08-.06.1-.12,0,.09,0,.15A.63.63,0,0,0,31.7,19c.3-.22.22-.28.49-.5,0-.07-.1,0-.09,0a.2.2,0,0,1,.08-.08c0-.08,0-.06-.08,0,.09-.2.23-.33.32-.54s.14-.12.15-.06c.11-.13.16-.34.3-.44s0,.14-.06.18.14-.2.09-.2.19-.14.24-.26,0,.11.1,0,.44-.69.5-.62a1.21,1.21,0,0,0,.31-.42c.2-.08.34-.42.46-.42.05-.28.53-.49.68-.84s.42-.5.66-.71c.1-.06-.12.15,0,0,.28-.5.72-.77,1-1.22,0,0-.09.09-.15.11s0-.06,0,0c.16-.17.35-.3.51-.47s-.06,0-.1.05.12-.12.13-.22.06,0,.13-.08c0-.27.44-.43.59-.76q.17-.12.06.09c.09,0,.14-.16.22-.22s-.07,0-.11,0a1,1,0,0,1,.17-.29c.06,0,0,0,0,.13a4.74,4.74,0,0,1,.53-.64s0,.11.1,0,.63-.79.77-1c.09,0,.29-.27.16,0,.12-.12.1-.16.09-.2s.21-.06.32-.28c-.08,0-.1.12-.17.16s0-.07,0-.06a4.59,4.59,0,0,0,.77-.92c0,.06,0,0,.17,0s-.07,0-.14,0c.08-.25.31-.27.4-.51s0,.16.1.09,0-.13,0-.21.13-.07.17-.15,0,.08,0,.14c.1-.09.22-.29.14-.26.23-.15.19-.2.37-.28a1.34,1.34,0,0,1,.36-.42s-.11,0,0-.14l-.17.09c-.09.11,0,.11-.15.18s0,.06,0,0c-.17.18-.65.78-.63.57-.07,0-.08.15-.13.22s-.07,0,0-.18c-.07,0-.33.36-.18.28-.1.15-.25.23-.32.42-.06,0,.08-.17,0-.16s-.33.45-.32.28c-.08,0-.07.14,0,.1a1.47,1.47,0,0,1-.31.3s0,0,0,.08-.12.13-.17.22,0,0,0-.08a5.21,5.21,0,0,1-.66.8c-.08,0,.08-.1.08-.16s-.15.19-.26.24c-.12.25-.23.11-.36.35l.17-.15c0,.13-.14.14-.17.28s0,0,0-.08-.08.11-.14.13-.47.6-.69.83c0,0,0,0,0,0-.3.36-.6.71-.92,1,0,0,0-.08,0-.14-.14.08-.17.25-.14.26-.15.2,0-.06-.21.1s.13-.07.07,0a3.88,3.88,0,0,1-.65.74c0,.17-.15.24-.27.43s-.06,0-.14.05a3.68,3.68,0,0,1-.47.6c-.07,0,.11-.18.16-.24a1.72,1.72,0,0,0-.42.54c-.12.09,0-.07-.13,0,.05-.12.18-.22.15-.26a6.64,6.64,0,0,0-.77,1c-.17.14,0-.17-.09-.06a7.54,7.54,0,0,1-.86.92.82.82,0,0,1-.31.36c0,.08.07,0,0,.12-.25.16-.63.82-.73.76a12.12,12.12,0,0,0-1,1.18c-.21.13-.33.38-.54.49s-.22.27-.29.47-.06,0-.15.05c-.6.7-1.18,1.43-1.83,2.06,0,.05-.05.15.06,0a19.15,19.15,0,0,0-1.51,1.72c-.11.17-.28.23-.39.38s.05,0,0,0a3,3,0,0,0-.57.66l-.2.12a20,20,0,0,1-1.58,1.82s0,0,0,.06c-.94,1-1.82,2.13-2.75,3.16A12,12,0,0,1,20.46,31a3.16,3.16,0,0,1-.55.62l-.07.16c-.16.05-.32.42-.55.56-.38.58-1.07,1.22-1.54,1.88l-.13.08c-.61.85-1.33,1.37-1.94,2.23-.34.27-.51.6-.85.88-.13.26-.39.38-.53.63a17.89,17.89,0,0,0-1.43,1.57c-.54.62-1.06.85-1.58,1.49l-.37.15h0a0,0,0,0,1,0,0v.06s0,0,0,0a.43.43,0,0,1,0,0s0,0,0,0,0,0,0,0l0,0s0,0,0,0a1.45,1.45,0,0,0-.22-.21L0,29.61,10.8,50h0l.32-.37.3-.34.14-.16,0-.05.47-.54.25-.29,0,0,.35-.4.24-.28.14-.16.21-.24.15-.17L15,45.17l.09-.1.68-.79.28-.32c.2-.22.42-.46.59-.68l.1-.12.14-.16.12-.14.07-.08.12-.14.56-.64.17-.2.29-.33.12-.15.13-.14.79-.92.22-.24.24-.28.42-.48.6-.69.17-.2a4.63,4.63,0,0,1,.32-.37l.18-.21.35-.4.11-.13,1.21-1.4.07-.07.18-.21.42-.49.59-.68.06-.06.24-.28,0,0,.12-.13.07-.08.1-.12,0,0,.09-.1,0,0,.22-.24h0l.15-.17h0l.17-.2,0,0,.15-.18.4-.46.1-.11.08-.1,0,0,.17-.2.27-.3,0,0,.22-.25.69-.81.25-.28.48-.55.53-.61,0,0,2.08-2.4.07-.07.25-.3.08-.08.29-.33h0L33,24.41a1.79,1.79,0,0,0,.68-.78c.12-.08-.08.19.06.08s.35-.39.52-.6,0-.06,0-.14,0,.07.06,0,0,0,.08-.16,0,.07,0,0,.22-.25.17-.28a.14.14,0,0,0,.09-.08s0,.06,0,.1a4.43,4.43,0,0,0,.78-.9c.27-.21.16-.22.32-.33a2.93,2.93,0,0,1,.31-.57l.53-.52s0,.06,0,.1a1.05,1.05,0,0,0,.22-.28c0-.2.63-.65.83-1l-.94,1a2.77,2.77,0,0,1,.31-.36c0-.09-.14.15-.2.18l.11-.24c.06,0,0,0,.12,0,.19-.28.11-.36.4-.62.05,0-.14.24-.18.34s.11,0,.08,0a1.14,1.14,0,0,1,.32-.54s0,0,0,.12c.13-.09.14-.32.32-.48s0,.14.11,0,0,0,0,0,.14-.17.06-.18.24-.23.16-.24.11-.16.19-.2-.12.27,0,.26l.2-.32c.09-.06,0,0,.14-.06s.32-.36.47-.54-.09.13-.09.2c.22-.2.16-.39.41-.54,0-.07.06-.18.13-.22s-.08.09-.13.08l0-.12c.19-.14.31-.36.5-.5,0,.05-.17.3-.28.34a1.12,1.12,0,0,1-.18.28c.08-.1.34-.26.42-.48s0,.1.14,0a3.84,3.84,0,0,1,.59-.83c.09,0-.07.11-.07.16.11-.12.08,0,.2-.11s.27-.33.38-.52.18-.24.41-.63a2.6,2.6,0,0,1-.33.4c0,.08,0,.06,0,0a.83.83,0,0,1-.21.24c-.07.06.06-.12.09-.14a.91.91,0,0,0-.45.42,2.07,2.07,0,0,0-.57.6c-.08,0-.07,0-.13.14a3.91,3.91,0,0,0-.84.88c-.06-.06-.3.31-.27.15a1.66,1.66,0,0,1-.21.31c-.09,0-.14.15-.23.19s0,.05,0,.1a.3.3,0,0,0-.18.2c-.06,0-.12.06-.15.12s.1-.19-.05-.06a2,2,0,0,1-.65.74c-.11.09,0,.07-.08.16s-.05.06-.06.1-.07,0-.18.08a4.84,4.84,0,0,1-.76.86,1.1,1.1,0,0,1-.15.26c.17-.11.08-.15.23-.28,0,.11,0,.08.08,0-.12.26-.3.4-.38.4s.17-.11.21-.24c-.12.14-.22.14-.15,0l-.51.54c0-.11,0-.06-.15.05a.86.86,0,0,1,.29-.25c0-.08-.09,0,0-.07-.09.13-.2.21-.29.32s.07,0,.16,0a3.24,3.24,0,0,0-.42.54c0,.05.07,0,.06.08s0,0-.18.08,0-.06,0-.12c-.2.1-.51.54-.74.67a3.73,3.73,0,0,1-.6.74c-.11,0,.1-.21.08-.28-.19.14-.15.29-.26.24s0,.12.08.1a4.19,4.19,0,0,1-.55.62c0,.15-.2.32-.34.46s0-.05,0-.1.09-.08.15-.12,0-.06,0-.06l0-.08c-.11.09-.17.26-.31.3,0-.1.12-.14.18-.22s-.17.15-.24.2c.11-.28-.21.21-.37.34,0,0,0,.11-.06.24,0-.13-.11,0-.16,0a.3.3,0,0,1-.07.11c.09,0-.09.19-.09.28a1.92,1.92,0,0,0-.44.5c-.11.08-.05-.05-.06-.08a4.47,4.47,0,0,1-.4.35l-.08.16.13-.07c.06-.17.2-.21.29-.32-.08.18-.25.26-.34.44-.09-.13-.32.27-.57.45.08-.07.14-.19.24-.26s-.23.21-.31.3,0,.07,0,.15l-.05.05,0,0c-.05,0-.05,0-.1,0a.22.22,0,0,1-.11.12s0,.07,0,.12l-.1.09a.54.54,0,0,1-.12.09h0l-.14.14s0,0-.05,0a.05.05,0,0,1,0,0L28.69,28s0,0,0,0c.14-.12.25-.27.38-.4s-.05,0,0,0,.06,0,.17-.1a.4.4,0,0,1,.12-.16c-.08-.14.27-.27.35-.5s0,.08.15-.06-.09-.06,0-.19c-.09,0-.13.17-.22.22s0,0,.08,0a1,1,0,0,1-.26.3s.07-.11.06-.18a2.79,2.79,0,0,0,.3-.38c.11-.08,0,.09.14-.06.06-.34.7-.89,1-1.28,0,0-.07.17,0,.14l-.77.84c.09-.06.16-.15.1,0,.08-.12.17-.23.24-.33s0,.14.11,0,.08-.17.21-.3,0,.07.13,0a3,3,0,0,0,.47-.66s.08,0,.07,0-.05,0-.11.12c.18-.14.31-.36.5-.5l.13-.28c.07,0,.09,0,.21-.1s-.12,0-.18,0c.07-.15.24-.15.29-.32s0,.2.14.06c0,0,0,0,0,0a4.36,4.36,0,0,1,.6-.68c.07-.16-.13,0-.22.1.09-.13.11-.34.24-.4s-.1.13,0,.14.08-.15.17-.16,0,0,.07-.22.09,0,.05.06c.17-.13.07-.23.23-.34s-.1.22,0,.12,0-.13.08-.22a.4.4,0,0,1,.1-.12s-.12.19,0,.2c.13-.16.12-.09.29-.2a6,6,0,0,0,.65-.8c-.09.25.45-.44.65-.61,0,.06-.25.27-.3.44.24-.2.35-.52.55-.62,0-.05,0,0-.08,0s.13-.17.18-.29c.26-.12.45-.51.62-.57a8.71,8.71,0,0,0,.53-.72c-.1.1,0,0-.14.07.24-.39.41-.37.49-.31,0-.12,0-.1,0-.19s.23-.25.36-.35-.09.14-.13.23c.07-.09.41-.41.46-.49s.11,0,0,0,.11-.12.16-.18-.05,0-.08,0a8.47,8.47,0,0,0,.87-.9l.16-.1c0-.08.12-.1.14-.2.3-.15.45-.52.75-.67a2.42,2.42,0,0,1,.73-.76c-.12.2-.11.23-.2.38.25-.3.46-.67.64-.76-.07-.08.08-.33-.06-.35l.43-.39c-.08-.08-.5.51-.57.39s.12-.09.18-.14.21-.25.27-.42c0,0,0,.1.18,0,0,0,0-.14.11-.3s.29-.18.26-.24.08,0,.19-.12,0,0,0,.15a2.2,2.2,0,0,0,.33-.41c.11-.06,0,.18.07.11s0-.2.15-.26,0-.14-.08-.05c.13-.19.11-.15.13-.28s.14-.06.17-.16-.09,0-.15.06.16-.14.21-.24-.07.18.06.08.17-.23.14-.14a1.73,1.73,0,0,1,.66-.72s0-.13,0-.16-.08.05-.2.12,0,0,.06,0a6.32,6.32,0,0,1-.69.68c.15-.25.39-.38.55-.62l-.32.28c.08-.15.22-.21.28-.41.07,0,0,.11.11,0s.08-.11.11-.18,0,0,0,.08.09-.14.16-.16.18-.25.15-.32c.17-.13,0,.07.18,0a1.12,1.12,0,0,1,.39-.38c.13-.22.18-.16.31-.36.09,0-.07.11-.07.16.17-.12.29-.34.46-.47a.25.25,0,0,0,0-.19c.09-.09.24-.3.21-.36.13-.11,0,.11.1,0s.14-.2.24-.26,0-.09.09-.2-.07.21,0,.22-.17.08-.19.2.26-.22.35-.38.05,0,.14-.05.34-.54.42-.54,0-.08,0-.07a.86.86,0,0,1,.31-.29c0-.11.11-.16.14-.27C46.83,7.62,46.64,7.64,46.57,7.83Z"/></g></g></svg>