<svg xmlns="http://www.w3.org/2000/svg" xmlns:xlink="http://www.w3.org/1999/xlink" viewBox="0 0 57.99 49.41"><defs><style>.cls-1{fill:#150301;}.cls-2{fill:url(#名称未設定グラデーション_59);}.cls-3{fill:url(#名称未設定グラデーション_59-2);}.cls-4{fill:url(#名称未設定グラデーション_59-3);}.cls-5{fill:url(#名称未設定グラデーション_59-4);}.cls-6{fill:url(#名称未設定グラデーション_59-5);}.cls-7{fill:url(#名称未設定グラデーション_59-6);}.cls-8{fill:url(#名称未設定グラデーション_59-7);}.cls-9{fill:url(#名称未設定グラデーション_59-8);}.cls-10{fill:url(#名称未設定グラデーション_59-9);}.cls-11{fill:url(#名称未設定グラデーション_59-10);}.cls-12{fill:url(#名称未設定グラデーション_59-11);}.cls-13{fill:url(#名称未設定グラデーション_59-12);}.cls-14{fill:url(#名称未設定グラデーション_59-13);}.cls-15{fill:url(#名称未設定グラデーション_59-14);}.cls-16{fill:url(#名称未設定グラデーション_59-15);}.cls-17{fill:url(#名称未設定グラデーション_59-16);}.cls-18{fill:url(#名称未設定グラデーション_59-17);}.cls-19{fill:url(#名称未設定グラデーション_59-18);}.cls-20{fill:url(#名称未設定グラデーション_59-19);}.cls-21{fill:url(#名称未設定グラデーション_59-20);}.cls-22{fill:url(#名称未設定グラデーション_59-21);}.cls-23{fill:url(#名称未設定グラデーション_59-22);}.cls-24{fill:url(#名称未設定グラデーション_59-23);}.cls-25{fill:url(#名称未設定グラデーション_59-24);}.cls-26{fill:url(#名称未設定グラデーション_59-25);}.cls-27{fill:url(#名称未設定グラデーション_59-26);}.cls-28{fill:url(#名称未設定グラデーション_59-27);}.cls-29{fill:url(#名称未設定グラデーション_59-28);}.cls-30{fill:url(#名称未設定グラデーション_59-29);}.cls-31{fill:url(#名称未設定グラデーション_59-30);}.cls-32{fill:url(#名称未設定グラデーション_59-31);}.cls-33{fill:url(#名称未設定グラデーション_59-32);}.cls-34{fill:url(#名称未設定グラデーション_59-33);}.cls-35{fill:url(#名称未設定グラデーション_59-34);}.cls-36{fill:url(#名称未設定グラデーション_59-35);}.cls-37{fill:url(#名称未設定グラデーション_59-36);}.cls-38{fill:url(#名称未設定グラデーション_59-37);}.cls-39{fill:url(#名称未設定グラデーション_59-38);}.cls-40{fill:url(#名称未設定グラデーション_59-39);}.cls-41{fill:url(#名称未設定グラデーション_59-40);}.cls-42{fill:url(#名称未設定グラデーション_59-41);}.cls-43{fill:url(#名称未設定グラデーション_59-42);}.cls-44{fill:url(#名称未設定グラデーション_59-43);}.cls-45{fill:url(#名称未設定グラデーション_59-44);}.cls-46{fill:url(#名称未設定グラデーション_59-45);}.cls-47{fill:url(#名称未設定グラデーション_59-46);}.cls-48{fill:url(#名称未設定グラデーション_59-47);}.cls-49{fill:url(#名称未設定グラデーション_59-48);}.cls-50{fill:url(#名称未設定グラデーション_59-49);}.cls-51{fill:url(#名称未設定グラデーション_59-50);}.cls-52{fill:url(#名称未設定グラデーション_59-51);}.cls-53{fill:url(#名称未設定グラデーション_59-52);}.cls-54{fill:url(#名称未設定グラデーション_59-53);}.cls-55{fill:url(#名称未設定グラデーション_59-54);}.cls-56{fill:url(#名称未設定グラデーション_59-55);}.cls-57{fill:url(#名称未設定グラデーション_59-56);}.cls-58{fill:url(#名称未設定グラデーション_59-57);}.cls-59{fill:url(#名称未設定グラデーション_59-58);}.cls-60{fill:url(#名称未設定グラデーション_59-59);}.cls-61{fill:url(#名称未設定グラデーション_59-60);}.cls-62{fill:url(#名称未設定グラデーション_59-61);}.cls-63{fill:url(#名称未設定グラデーション_59-62);}.cls-64{fill:url(#名称未設定グラデーション_59-63);}.cls-65{fill:url(#名称未設定グラデーション_59-64);}.cls-66{fill:url(#名称未設定グラデーション_59-65);}.cls-67{fill:url(#名称未設定グラデーション_59-66);}.cls-68{fill:url(#名称未設定グラデーション_59-67);}.cls-69{fill:url(#名称未設定グラデーション_59-68);}.cls-70{fill:url(#名称未設定グラデーション_59-69);}.cls-71{fill:url(#名称未設定グラデーション_59-70);}.cls-72{fill:url(#名称未設定グラデーション_59-71);}.cls-73{fill:url(#名称未設定グラデーション_59-72);}.cls-74{fill:url(#名称未設定グラデーション_59-73);}.cls-75{fill:url(#名称未設定グラデーション_59-74);}.cls-76{fill:url(#名称未設定グラデーション_59-75);}.cls-77{fill:url(#名称未設定グラデーション_59-76);}.cls-78{fill:url(#名称未設定グラデーション_59-77);}.cls-79{fill:url(#名称未設定グラデーション_59-78);}.cls-80{fill:url(#名称未設定グラデーション_59-79);}.cls-81{fill:url(#名称未設定グラデーション_59-80);}.cls-82{fill:url(#名称未設定グラデーション_59-81);}.cls-83{fill:url(#名称未設定グラデーション_59-82);}.cls-84{fill:url(#名称未設定グラデーション_59-83);}.cls-85{fill:url(#名称未設定グラデーション_59-84);}.cls-86{fill:url(#名称未設定グラデーション_59-85);}.cls-87{fill:url(#名称未設定グラデーション_59-86);}.cls-88{fill:url(#名称未設定グラデーション_59-87);}.cls-89{fill:url(#名称未設定グラデーション_59-88);}.cls-90{fill:url(#名称未設定グラデーション_59-89);}.cls-91{fill:url(#名称未設定グラデーション_59-90);}.cls-92{fill:url(#名称未設定グラデーション_59-91);}.cls-93{fill:url(#名称未設定グラデーション_59-92);}.cls-94{fill:url(#名称未設定グラデーション_59-93);}.cls-95{fill:url(#名称未設定グラデーション_59-94);}.cls-96{fill:url(#名称未設定グラデーション_105);}</style><linearGradient id="名称未設定グラデーション_59" x1="51.07" y1="18.98" x2="51.31" y2="18.98" gradientUnits="userSpaceOnUse"><stop offset="0" stop-color="#fccf00"/><stop offset="0.3" stop-color="#f08c00"/><stop offset="0.6" stop-color="#ffd800"/></linearGradient><linearGradient id="名称未設定グラデーション_59-2" x1="51.61" y1="18.46" x2="51.8" y2="18.46" xlink:href="#名称未設定グラデーション_59"/><linearGradient id="名称未設定グラデーション_59-3" x1="41.12" y1="29.11" x2="41.16" y2="29.11" xlink:href="#名称未設定グラデーション_59"/><linearGradient id="名称未設定グラデーション_59-4" x1="41" y1="29.21" x2="41.12" y2="29.21" xlink:href="#名称未設定グラデーション_59"/><linearGradient id="名称未設定グラデーション_59-5" x1="56.58" y1="8.19" x2="56.78" y2="8.19" xlink:href="#名称未設定グラデーション_59"/><linearGradient id="名称未設定グラデーション_59-6" x1="56.47" y1="8.48" x2="56.67" y2="8.48" xlink:href="#名称未設定グラデーション_59"/><linearGradient id="名称未設定グラデーション_59-7" x1="48.8" y1="14.82" x2="49.61" y2="14.82" xlink:href="#名称未設定グラデーション_59"/><linearGradient id="名称未設定グラデーション_59-8" x1="24.79" y1="41.99" x2="24.8" y2="41.99" xlink:href="#名称未設定グラデーション_59"/><linearGradient id="名称未設定グラデーション_59-9" x1="56.88" y1="7.6" x2="57.99" y2="7.6" xlink:href="#名称未設定グラデーション_59"/><linearGradient id="名称未設定グラデーション_59-10" x1="45.65" y1="18.5" x2="46.12" y2="18.5" xlink:href="#名称未設定グラデーション_59"/><linearGradient id="名称未設定グラデーション_59-11" x1="54.35" y1="10.49" x2="54.51" y2="10.49" xlink:href="#名称未設定グラデーション_59"/><linearGradient id="名称未設定グラデーション_59-12" x1="52.99" y1="10.83" x2="53.17" y2="10.83" xlink:href="#名称未設定グラデーション_59"/><linearGradient id="名称未設定グラデーション_59-13" x1="54.64" y1="10.19" x2="54.81" y2="10.19" xlink:href="#名称未設定グラデーション_59"/><linearGradient id="名称未設定グラデーション_59-14" x1="55.35" y1="9.17" x2="55.7" y2="9.17" xlink:href="#名称未設定グラデーション_59"/><linearGradient id="名称未設定グラデーション_59-15" x1="53.27" y1="10.53" x2="53.49" y2="10.53" xlink:href="#名称未設定グラデーション_59"/><linearGradient id="名称未設定グラデーション_59-16" x1="52.32" y1="11.56" x2="52.53" y2="11.56" xlink:href="#名称未設定グラデーション_59"/><linearGradient id="名称未設定グラデーション_59-17" x1="45.41" y1="22.95" x2="45.59" y2="22.95" xlink:href="#名称未設定グラデーション_59"/><linearGradient id="名称未設定グラデーション_59-18" x1="50.14" y1="13.7" x2="50.3" y2="13.7" xlink:href="#名称未設定グラデーション_59"/><linearGradient id="名称未設定グラデーション_59-19" x1="51.66" y1="12.05" x2="52.29" y2="12.05" xlink:href="#名称未設定グラデーション_59"/><linearGradient id="名称未設定グラデーション_59-20" x1="45.12" y1="22.69" x2="45.27" y2="22.69" xlink:href="#名称未設定グラデーション_59"/><linearGradient id="名称未設定グラデーション_59-21" x1="46.96" y1="17.55" x2="47.49" y2="17.55" xlink:href="#名称未設定グラデーション_59"/><linearGradient id="名称未設定グラデーション_59-22" x1="47.81" y1="17" x2="48.03" y2="17" xlink:href="#名称未設定グラデーション_59"/><linearGradient id="名称未設定グラデーション_59-23" x1="47.43" y1="17.41" x2="47.71" y2="17.41" xlink:href="#名称未設定グラデーション_59"/><linearGradient id="名称未設定グラデーション_59-24" x1="46.84" y1="18.11" x2="47.04" y2="18.11" xlink:href="#名称未設定グラデーション_59"/><linearGradient id="名称未設定グラデーション_59-25" x1="48.9" y1="15.53" x2="49.09" y2="15.53" xlink:href="#名称未設定グラデーション_59"/><linearGradient id="名称未設定グラデーション_59-26" x1="48.59" y1="16.21" x2="48.76" y2="16.21" xlink:href="#名称未設定グラデーション_59"/><linearGradient id="名称未設定グラデーション_59-27" x1="50.88" y1="13.94" x2="51.06" y2="13.94" xlink:href="#名称未設定グラデーション_59"/><linearGradient id="名称未設定グラデーション_59-28" x1="49.06" y1="15.68" x2="49.24" y2="15.68" xlink:href="#名称未設定グラデーション_59"/><linearGradient id="名称未設定グラデーション_59-29" x1="46.57" y1="18.41" x2="46.75" y2="18.41" xlink:href="#名称未設定グラデーション_59"/><linearGradient id="名称未設定グラデーション_59-30" x1="45.31" y1="19.69" x2="45.63" y2="19.69" xlink:href="#名称未設定グラデーション_59"/><linearGradient id="名称未設定グラデーション_59-31" x1="42.97" y1="22.11" x2="43.78" y2="22.11" xlink:href="#名称未設定グラデーション_59"/><linearGradient id="名称未設定グラデーション_59-32" x1="44.02" y1="21.14" x2="44.26" y2="21.14" xlink:href="#名称未設定グラデーション_59"/><linearGradient id="名称未設定グラデーション_59-33" x1="54.47" y1="13.29" x2="54.59" y2="13.29" xlink:href="#名称未設定グラデーション_59"/><linearGradient id="名称未設定グラデーション_59-34" x1="54.55" y1="13.03" x2="54.78" y2="13.03" xlink:href="#名称未設定グラデーション_59"/><linearGradient id="名称未設定グラデーション_59-35" x1="45.95" y1="18.92" x2="46.4" y2="18.92" xlink:href="#名称未設定グラデーション_59"/><linearGradient id="名称未設定グラデーション_59-36" x1="43.41" y1="21.74" x2="43.74" y2="21.74" xlink:href="#名称未設定グラデーション_59"/><linearGradient id="名称未設定グラデーション_59-37" x1="40.94" y1="29.42" x2="41.06" y2="29.42" xlink:href="#名称未設定グラデーション_59"/><linearGradient id="名称未設定グラデーション_59-38" x1="45.67" y1="19.37" x2="45.91" y2="19.37" xlink:href="#名称未設定グラデーション_59"/><linearGradient id="名称未設定グラデーション_59-39" x1="44.31" y1="20.7" x2="44.88" y2="20.7" xlink:href="#名称未設定グラデーション_59"/><linearGradient id="名称未設定グラデーション_59-40" x1="48" y1="21.91" x2="48.31" y2="21.91" xlink:href="#名称未設定グラデーション_59"/><linearGradient id="名称未設定グラデーション_59-41" x1="49.05" y1="20.73" x2="49.44" y2="20.73" xlink:href="#名称未設定グラデーション_59"/><linearGradient id="名称未設定グラデーション_59-42" x1="49.09" y1="20.82" x2="49.5" y2="20.82" xlink:href="#名称未設定グラデーション_59"/><linearGradient id="名称未設定グラデーション_59-43" x1="46.78" y1="23.24" x2="47" y2="23.24" xlink:href="#名称未設定グラデーション_59"/><linearGradient id="名称未設定グラデーション_59-44" x1="47.88" y1="22.16" x2="48.19" y2="22.16" xlink:href="#名称未設定グラデーション_59"/><linearGradient id="名称未設定グラデーション_59-45" x1="46" y1="24.05" x2="46.16" y2="24.05" xlink:href="#名称未設定グラデーション_59"/><linearGradient id="名称未設定グラデーション_59-46" x1="44.5" y1="25.76" x2="44.81" y2="25.76" xlink:href="#名称未設定グラデーション_59"/><linearGradient id="名称未設定グラデーション_59-47" x1="44.2" y1="25.98" x2="44.44" y2="25.98" xlink:href="#名称未設定グラデーション_59"/><linearGradient id="名称未設定グラデーション_59-48" x1="44.08" y1="26.26" x2="44.22" y2="26.26" xlink:href="#名称未設定グラデーション_59"/><linearGradient id="名称未設定グラデーション_59-49" x1="42.6" y1="27.83" x2="42.69" y2="27.83" xlink:href="#名称未設定グラデーション_59"/><linearGradient id="名称未設定グラデーション_59-50" x1="44.53" y1="25.45" x2="44.91" y2="25.45" xlink:href="#名称未設定グラデーション_59"/><linearGradient id="名称未設定グラデーション_59-51" x1="43.76" y1="26.24" x2="43.93" y2="26.24" xlink:href="#名称未設定グラデーション_59"/><linearGradient id="名称未設定グラデーション_59-52" x1="44.5" y1="25.72" x2="44.61" y2="25.72" xlink:href="#名称未設定グラデーション_59"/><linearGradient id="名称未設定グラデーション_59-53" x1="45.17" y1="24.8" x2="45.75" y2="24.8" xlink:href="#名称未設定グラデーション_59"/><linearGradient id="名称未設定グラデーション_59-54" x1="44.95" y1="25.23" x2="45.25" y2="25.23" xlink:href="#名称未設定グラデーション_59"/><linearGradient id="名称未設定グラデーション_59-55" x1="45.66" y1="24.47" x2="45.85" y2="24.47" xlink:href="#名称未設定グラデーション_59"/><linearGradient id="名称未設定グラデーション_59-56" x1="41.22" y1="29.18" x2="41.35" y2="29.18" xlink:href="#名称未設定グラデーション_59"/><linearGradient id="名称未設定グラデーション_59-57" x1="53.09" y1="12.61" x2="53.32" y2="12.61" xlink:href="#名称未設定グラデーション_59"/><linearGradient id="名称未設定グラデーション_59-58" x1="42.86" y1="25.58" x2="43.05" y2="25.58" xlink:href="#名称未設定グラデーション_59"/><linearGradient id="名称未設定グラデーション_59-59" x1="41.35" y1="27.35" x2="41.6" y2="27.35" xlink:href="#名称未設定グラデーション_59"/><linearGradient id="名称未設定グラデーション_59-60" x1="56.12" y1="8.87" x2="56.29" y2="8.87" xlink:href="#名称未設定グラデーション_59"/><linearGradient id="名称未設定グラデーション_59-61" x1="44.86" y1="23.39" x2="45.01" y2="23.39" xlink:href="#名称未設定グラデーション_59"/><linearGradient id="名称未設定グラデーション_59-62" x1="54.69" y1="13.02" x2="54.85" y2="13.02" xlink:href="#名称未設定グラデーション_59"/><linearGradient id="名称未設定グラデーション_59-63" x1="55.87" y1="8.93" x2="56.03" y2="8.93" xlink:href="#名称未設定グラデーション_59"/><linearGradient id="名称未設定グラデーション_59-64" x1="40.11" y1="28.54" x2="40.33" y2="28.54" xlink:href="#名称未設定グラデーション_59"/><linearGradient id="名称未設定グラデーション_59-65" x1="40.81" y1="27.74" x2="40.97" y2="27.74" xlink:href="#名称未設定グラデーション_59"/><linearGradient id="名称未設定グラデーション_59-66" x1="55.46" y1="13.06" x2="55.7" y2="13.06" xlink:href="#名称未設定グラデーション_59"/><linearGradient id="名称未設定グラデーション_59-67" x1="38.75" y1="29.9" x2="39.3" y2="29.9" xlink:href="#名称未設定グラデーション_59"/><linearGradient id="名称未設定グラデーション_59-68" x1="52.02" y1="16.2" x2="52.18" y2="16.2" xlink:href="#名称未設定グラデーション_59"/><linearGradient id="名称未設定グラデーション_59-69" x1="55.8" y1="12.66" x2="55.98" y2="12.66" xlink:href="#名称未設定グラデーション_59"/><linearGradient id="名称未設定グラデーション_59-70" x1="38.09" y1="30.92" x2="38.24" y2="30.92" xlink:href="#名称未設定グラデーション_59"/><linearGradient id="名称未設定グラデーション_59-71" x1="53.23" y1="14.91" x2="53.48" y2="14.91" xlink:href="#名称未設定グラデーション_59"/><linearGradient id="名称未設定グラデーション_59-72" x1="37.81" y1="31.16" x2="38.05" y2="31.16" xlink:href="#名称未設定グラデーション_59"/><linearGradient id="名称未設定グラデーション_59-73" x1="54.04" y1="14.1" x2="54.32" y2="14.1" xlink:href="#名称未設定グラデーション_59"/><linearGradient id="名称未設定グラデーション_59-74" x1="41.62" y1="27.01" x2="41.85" y2="27.01" xlink:href="#名称未設定グラデーション_59"/><linearGradient id="名称未設定グラデーション_59-75" x1="52.75" y1="14.67" x2="52.97" y2="14.67" xlink:href="#名称未設定グラデーション_59"/><linearGradient id="名称未設定グラデーション_59-76" x1="52.06" y1="14.3" x2="52.71" y2="14.3" xlink:href="#名称未設定グラデーション_59"/><linearGradient id="名称未設定グラデーション_59-77" x1="47.47" y1="20.41" x2="47.73" y2="20.41" xlink:href="#名称未設定グラデーション_59"/><linearGradient id="名称未設定グラデーション_59-78" x1="52.07" y1="13.64" x2="52.37" y2="13.64" xlink:href="#名称未設定グラデーション_59"/><linearGradient id="名称未設定グラデーション_59-79" x1="51.5" y1="14.68" x2="51.64" y2="14.68" xlink:href="#名称未設定グラデーション_59"/><linearGradient id="名称未設定グラデーション_59-80" x1="52.23" y1="13.95" x2="52.43" y2="13.95" xlink:href="#名称未設定グラデーション_59"/><linearGradient id="名称未設定グラデーション_59-81" x1="54.24" y1="11.08" x2="54.42" y2="11.08" xlink:href="#名称未設定グラデーション_59"/><linearGradient id="名称未設定グラデーション_59-82" x1="53.53" y1="11.83" x2="53.75" y2="11.83" xlink:href="#名称未設定グラデーション_59"/><linearGradient id="名称未設定グラデーション_59-83" x1="52.99" y1="13.48" x2="53.17" y2="13.48" xlink:href="#名称未設定グラデーション_59"/><linearGradient id="名称未設定グラデーション_59-84" x1="45.59" y1="22.85" x2="45.59" y2="22.85" xlink:href="#名称未設定グラデーション_59"/><linearGradient id="名称未設定グラデーション_59-85" x1="52.76" y1="13.76" x2="52.96" y2="13.76" xlink:href="#名称未設定グラデーション_59"/><linearGradient id="名称未設定グラデーション_59-86" x1="51.85" y1="15.72" x2="51.98" y2="15.72" xlink:href="#名称未設定グラデーション_59"/><linearGradient id="名称未設定グラデーション_59-87" x1="50.21" y1="17.43" x2="50.48" y2="17.43" xlink:href="#名称未設定グラデーション_59"/><linearGradient id="名称未設定グラデーション_59-88" x1="50.74" y1="15.94" x2="51.04" y2="15.94" xlink:href="#名称未設定グラデーション_59"/><linearGradient id="名称未設定グラデーション_59-89" x1="49.71" y1="18.07" x2="49.83" y2="18.07" xlink:href="#名称未設定グラデーション_59"/><linearGradient id="名称未設定グラデーション_59-90" x1="50.99" y1="14.85" x2="51.14" y2="14.85" xlink:href="#名称未設定グラデーション_59"/><linearGradient id="名称未設定グラデーション_59-91" x1="51.23" y1="15.13" x2="51.9" y2="15.13" xlink:href="#名称未設定グラデーション_59"/><linearGradient id="名称未設定グラデーション_59-92" x1="51.1" y1="15.51" x2="51.33" y2="15.51" xlink:href="#名称未設定グラデーション_59"/><linearGradient id="名称未設定グラデーション_59-93" x1="47.89" y1="16.24" x2="48.01" y2="16.24" xlink:href="#名称未設定グラデーション_59"/><linearGradient id="名称未設定グラデーション_59-94" x1="4.16" y1="29.49" x2="55.42" y2="29.49" xlink:href="#名称未設定グラデーション_59"/><linearGradient id="名称未設定グラデーション_105" x1="4.18" y1="27.52" x2="47.43" y2="27.52" gradientUnits="userSpaceOnUse"><stop offset="0" stop-color="#766e6a"/><stop offset="1" stop-color="#150301"/></linearGradient></defs><g id="Layer_2" data-name="Layer 2"><g id="レイヤー_1" data-name="レイヤー 1"><path class="cls-1" d="M31.27,31.1l-.38-5.24L29.22,2.71H24.69L19.93,5.87,18.16,31.1h0l6.56,6.75Zm-8.71-1.35L23.09,6.6l1.6-1.11h1.58l.6,24.26-2.15,2.09Z"/><polygon class="cls-1" points="15.26 2.71 14.1 10.61 13.39 2.71 10.37 2.71 6.67 19.26 9.9 22.58 11.27 14.76 12.03 24.77 15.71 28.57 18.12 4.34 20.68 2.71 15.26 2.71"/><polygon class="cls-1" points="43.09 0 6.29 0 0 20.97 24.73 49.4 24.73 49.4 4.16 19.91 8.77 1.65 40.61 1.65 43.63 13.51 36.72 20.21 34.36 4.34 36.52 2.71 31.09 2.71 33.71 28.57 47.43 14.42 47.43 14.42 43.09 0"/><path class="cls-2" d="M51.3,18.81a.85.85,0,0,0-.23.34C51.15,19.05,51.32,18.87,51.3,18.81Z"/><path class="cls-3" d="M51.77,18.39c-.05,0-.09.05-.07,0a.29.29,0,0,0-.09.15c.06,0,.12-.13.18-.19S51.77,18.37,51.77,18.39Z"/><path class="cls-4" d="M41.12,29.13l0,0,0,0A0,0,0,0,1,41.12,29.13Z"/><path class="cls-5" d="M41.12,29.13l-.12.13C41,29.34,41.09,29.21,41.12,29.13Z"/><path class="cls-6" d="M56.58,8.3c.07-.08.16-.12.2-.22A.48.48,0,0,0,56.58,8.3Z"/><path class="cls-7" d="M56.47,8.59c.07-.07.16-.1.2-.22C56.61,8.46,56.51,8.48,56.47,8.59Z"/><path class="cls-8" d="M49.19,14.9c0-.15.31-.34.42-.55-.31.32-.56.64-.81.9,0,.09.08-.07.11-.06A.78.78,0,0,1,49.19,14.9Z"/><path class="cls-9" d="M24.79,42h0v0Z"/><path class="cls-10" d="M57.85,7a4.44,4.44,0,0,1-.59.63c-.06.14-.1.16-.16.17s0,0,0,0,0,0-.14.08,0,.11-.1.31A1.48,1.48,0,0,0,57.09,8c.1,0,.14-.14.2-.22s.39-.39.49-.44-.16.06-.2.11c.06-.14.2-.17.26-.32s0,.12.06,0A1.29,1.29,0,0,0,58,7C57.81,7.16,58,6.72,57.85,7Z"/><path class="cls-11" d="M45.65,18.77l.47-.53A2.62,2.62,0,0,0,45.65,18.77Z"/><path class="cls-12" d="M54.51,10.4l-.11.06a.13.13,0,0,1,0,.11C54.33,10.63,54.5,10.48,54.51,10.4Z"/><path class="cls-13" d="M53.1,10.88l.07-.14a.24.24,0,0,1-.17.1C53,10.92,53,10.92,53.1,10.88Z"/><path class="cls-14" d="M54.81,10.09c0-.06-.16.11-.17.21S54.73,10.13,54.81,10.09Z"/><path class="cls-15" d="M55.7,9a2.36,2.36,0,0,0-.35.41c.09-.08,0,0,.12-.05S55.62,9.11,55.7,9Z"/><path class="cls-16" d="M53.49,10.41l-.12.06c0,.09-.08.11-.1.19A.54.54,0,0,0,53.49,10.41Z"/><path class="cls-17" d="M52.32,11.7a.76.76,0,0,0,.21-.28A1.46,1.46,0,0,0,52.32,11.7Z"/><path class="cls-18" d="M45.41,23c0,.13.1-.1.18-.15A1.3,1.3,0,0,0,45.41,23Z"/><path class="cls-19" d="M50.14,13.81a.89.89,0,0,0,.16-.22C50.22,13.64,50.11,13.77,50.14,13.81Z"/><path class="cls-20" d="M51.88,12.26s0-.07.09-.21,0,0,.07,0a.46.46,0,0,1,.18-.21c0-.08.08-.17.06-.19s-.08.12-.07.07-.07.13-.11.19a.76.76,0,0,0-.24.17c.06.06-.1.23-.2.39A.83.83,0,0,1,51.88,12.26Z"/><path class="cls-21" d="M45.27,22.62l-.12.06s0,0,0,.07S45.26,22.69,45.27,22.62Z"/><path class="cls-22" d="M47.42,17.37c0-.09.08-.16.06-.19s0,.09-.06.14,0,0-.11.07a1.19,1.19,0,0,1-.34.42s0,.06,0,.11A2.68,2.68,0,0,1,47.42,17.37Z"/><path class="cls-23" d="M48,17c.08-.12,0-.08,0-.13l-.2.16c0,.1.08,0,.14-.08s-.06.13-.09.16S48,17,48,17Z"/><path class="cls-24" d="M47.71,17.28c0-.07-.19.18-.27.23S47.63,17.37,47.71,17.28Z"/><path class="cls-25" d="M46.84,18.19s.15-.06.2-.17S46.87,18.07,46.84,18.19Z"/><path class="cls-26" d="M48.9,15.62c0,.08.14-.14.19-.19S49,15.58,48.9,15.62Z"/><path class="cls-27" d="M48.6,16.27c0,.1,0,0,.12-.05s0-.08,0-.12a.32.32,0,0,0-.09.16S48.64,16.25,48.6,16.27Z"/><path class="cls-28" d="M51,14c0-.1.13-.18.06-.19s-.06.12-.16.27A.39.39,0,0,1,51,14Z"/><path class="cls-29" d="M49.23,15.65c0-.07,0-.1,0-.07s-.15.18-.12.22S49.15,15.66,49.23,15.65Z"/><path class="cls-30" d="M46.57,18.5c0,.07.09-.13.16-.12s0,0,0-.07A.74.74,0,0,0,46.57,18.5Z"/><path class="cls-31" d="M45.31,19.82c.16-.13,0,.1.15,0,0-.07.12-.17.17-.28C45.47,19.68,45.4,19.65,45.31,19.82Z"/><path class="cls-32" d="M43.16,22.27s0,.09.08,0,.08-.11.07-.14,0,0,.09,0a2,2,0,0,1,.38-.43c-.07,0-.24.26-.38.31a.4.4,0,0,1-.23.23,2.57,2.57,0,0,0-.2.35l.14-.14c0-.08,0,0,0-.07S43.15,22.3,43.16,22.27Z"/><path class="cls-33" d="M44.11,21.28c.06,0,.08-.14.15-.17s.07-.17-.07-.1a.89.89,0,0,1-.16.22c0,.07.09-.09.13-.1S44.05,21.28,44.11,21.28Z"/><path class="cls-34" d="M54.58,13.25c0-.06,0-.05-.09,0s0,.08,0,.14A1.31,1.31,0,0,1,54.58,13.25Z"/><path class="cls-35" d="M54.78,12.91c-.09.06-.19.11-.23.24A1.31,1.31,0,0,0,54.78,12.91Z"/><path class="cls-36" d="M46,19.19c.2-.24.37-.26.45-.54,0,0-.07.07-.06,0C46.23,18.88,46.06,19,46,19.19Z"/><path class="cls-37" d="M43.74,21.55c-.13.09-.18.28-.32.34s.07-.05,0,0C43.56,21.79,43.66,21.68,43.74,21.55Z"/><path class="cls-38" d="M41,29.39c0,.05,0,0,0,.13C41.05,29.41,41.13,29.2,41,29.39Z"/><path class="cls-39" d="M45.83,19.36a.47.47,0,0,1,.07-.12c0-.09-.07.07-.11.07s-.07.09-.12.22S45.74,19.38,45.83,19.36Z"/><path class="cls-40" d="M44.88,20.4c-.12.06-.18.2-.28.29s0-.05,0-.14c-.17.15-.1.23-.32.46.07,0,.06,0,.17-.1s0,0-.1,0A5.16,5.16,0,0,0,44.88,20.4Z"/><path class="cls-41" d="M48.28,21.88c.09-.13-.08,0,0-.11-.11.09-.19.08-.29.27C48.07,22.08,48.25,21.77,48.28,21.88Z"/><path class="cls-42" d="M49.21,20.83c0-.11.16-.21.23-.36-.11.08-.19.22-.32.28s.05,0,.07,0S49,21,49.05,21,49.14,20.85,49.21,20.83Z"/><path class="cls-43" d="M49.23,20.91c.11-.08.15-.25.27-.3s-.34.26-.41.44C49.13,21,49.25,20.83,49.23,20.91Z"/><path class="cls-44" d="M47,23.11a.8.8,0,0,0-.22.26A1.12,1.12,0,0,0,47,23.11Z"/><path class="cls-45" d="M47.88,22.34a1.83,1.83,0,0,1,.31-.36S47.86,22.27,47.88,22.34Z"/><path class="cls-46" d="M46.09,24.1l.07-.14c-.07,0-.1.13-.16.17S46.05,24.12,46.09,24.1Z"/><path class="cls-47" d="M44.81,25.56c-.13.12-.31.28-.31.41C44.59,25.82,44.74,25.75,44.81,25.56Z"/><path class="cls-48" d="M44.44,25.88s0,0,0,0a2.92,2.92,0,0,0-.21.28A2.72,2.72,0,0,1,44.44,25.88Z"/><path class="cls-49" d="M44.08,26.39s.07-.09.11-.12,0,0,0-.14A1.45,1.45,0,0,0,44.08,26.39Z"/><path class="cls-50" d="M42.68,27.74c-.14.12,0,.12-.08.18S42.73,27.72,42.68,27.74Z"/><path class="cls-51" d="M44.91,25.25c-.06,0-.26.27-.38.37s.17-.16.13-.05A1.17,1.17,0,0,1,44.91,25.25Z"/><path class="cls-52" d="M43.88,26.33a.32.32,0,0,0,0-.2C43.75,26.37,43.69,26.39,43.88,26.33Z"/><path class="cls-53" d="M44.56,25.66c-.1.1-.05.15,0,.12S44.56,25.7,44.56,25.66Z"/><path class="cls-54" d="M45.38,25c0-.11.15-.15.3-.32,0,0,0-.07.07-.12s-.2.19-.29.27c0-.08-.21.09-.29.14S45.31,25,45.38,25Z"/><path class="cls-55" d="M45,25.37s0,0,.09,0a.44.44,0,0,1,.18-.2c.07-.13,0,0-.06,0s-.06,0-.05,0-.07.09-.12.12S45.13,25.26,45,25.37Z"/><path class="cls-56" d="M45.66,24.56c0,.05.17-.09.19-.19S45.73,24.51,45.66,24.56Z"/><path class="cls-57" d="M41.27,29.25a.16.16,0,0,1,.06-.08c.06-.06,0,0,0,0s0-.05,0-.11S41.18,29.32,41.27,29.25Z"/><path class="cls-58" d="M53.09,12.69c0,.06.15-.12.22-.13S53.16,12.63,53.09,12.69Z"/><path class="cls-59" d="M43,25.56s0,0,.06-.08-.09.08-.13.1,0,.06-.05.1,0,0,0,0l0,0S43,25.48,43,25.56Z"/><path class="cls-60" d="M41.51,27.31s-.08.06-.07,0-.06.1-.09.15l.14-.08c0-.08.08-.11.11-.19A.18.18,0,0,0,41.51,27.31Z"/><path class="cls-61" d="M56.12,9s.06,0,.14-.09a.06.06,0,0,1,0-.07C56.31,8.73,56.14,8.87,56.12,9Z"/><path class="cls-62" d="M44.87,23.42c0,.11.05.06.11,0s-.08,0,0-.11C45,23.35,44.9,23.37,44.87,23.42Z"/><path class="cls-63" d="M54.85,12.94c0-.07-.14.11-.16.17S54.79,13,54.85,12.94Z"/><path class="cls-64" d="M55.87,9a.57.57,0,0,0,.13-.1c0-.06,0,0,0-.12S56,8.91,55.87,9Z"/><path class="cls-65" d="M40.11,28.67a.8.8,0,0,0,.22-.26A.63.63,0,0,0,40.11,28.67Z"/><path class="cls-66" d="M41,27.63a1.25,1.25,0,0,0-.16.22A.32.32,0,0,0,41,27.63Z"/><path class="cls-67" d="M55.7,12.86a1.58,1.58,0,0,0-.24.4A2.23,2.23,0,0,0,55.7,12.86Z"/><path class="cls-68" d="M39.2,29.58a5.59,5.59,0,0,0-.45.67,7.28,7.28,0,0,0,.46-.6s0,.05,0,.09C39.36,29.6,39.31,29.52,39.2,29.58Z"/><path class="cls-69" d="M52.07,16.31c.06-.12.1-.15.11-.24C52.07,16.18,52,16.38,52.07,16.31Z"/><path class="cls-70" d="M55.89,12.73s.06-.1.09-.21a.66.66,0,0,0-.18.26S55.84,12.74,55.89,12.73Z"/><path class="cls-71" d="M38.09,31a.9.9,0,0,0,.15-.18l-.12.06C38.09,31,38.13,30.94,38.09,31Z"/><path class="cls-72" d="M53.48,14.75c-.1.08-.11.14-.18.14s0,0,0,0-.09.1-.11.18A.68.68,0,0,0,53.48,14.75Z"/><path class="cls-73" d="M37.81,31.3c.11,0,.16-.16.24-.24s0,0,0,0,0,0,0,0S37.84,31.17,37.81,31.3Z"/><path class="cls-74" d="M54,14.24c.08-.11.21-.15.28-.28A.63.63,0,0,0,54,14.24Z"/><path class="cls-75" d="M41.8,26.87s0,0,0,0a.35.35,0,0,1-.1.08c-.05.07,0,.1-.08.17s.12-.12.07,0C41.76,27,41.94,26.77,41.8,26.87Z"/><path class="cls-76" d="M52.81,14.8c0-.12.11-.17.16-.27C52.88,14.58,52.65,14.9,52.81,14.8Z"/><path class="cls-77" d="M52.21,14.51c.1-.07,0,0,.14-.08s.1-.19.15-.3.12-.09.19-.13-.08,0,0-.1,0,0,0,0c-.21.16-.35.4-.55.57s0,.1,0,.19C52.19,14.62,52.13,14.59,52.21,14.51Z"/><path class="cls-78" d="M47.73,20.23a1.08,1.08,0,0,0-.26.36C47.55,20.47,47.74,20.3,47.73,20.23Z"/><path class="cls-79" d="M52.07,13.79a3.71,3.71,0,0,1,.29-.27c.06-.1-.15.1-.09,0A1.35,1.35,0,0,0,52.07,13.79Z"/><path class="cls-80" d="M51.53,14.73s0,.07,0,0a.32.32,0,0,0,.06-.15c-.06,0-.08.12-.14.15S51.52,14.75,51.53,14.73Z"/><path class="cls-81" d="M52.43,13.85a.55.55,0,0,0-.2.17C52.22,14.08,52.41,14,52.43,13.85Z"/><path class="cls-82" d="M54.42,11a.71.71,0,0,0-.18.26C54.31,11.13,54.45,11,54.42,11Z"/><path class="cls-83" d="M53.75,11.7c-.08.08-.18.12-.22.25A.9.9,0,0,0,53.75,11.7Z"/><path class="cls-84" d="M53.11,13.52l.06-.13c-.06,0-.09.09-.15.11S53,13.58,53.11,13.52Z"/><polygon class="cls-85" points="45.59 22.85 45.59 22.85 45.59 22.85 45.59 22.85"/><path class="cls-86" d="M52.94,13.68c.08-.12-.14.15-.17.1s0,.05,0,.08S52.82,13.76,52.94,13.68Z"/><path class="cls-87" d="M52,15.62c-.08,0-.09.13-.13.2a.39.39,0,0,1,.1-.08S52,15.68,52,15.62Z"/><path class="cls-88" d="M50.25,17.46a1,1,0,0,1,0,.18,3.42,3.42,0,0,0,.27-.41C50.39,17.38,50.37,17.32,50.25,17.46Z"/><path class="cls-89" d="M51,15.75s-.25.2-.3.35c0,0,0,0,0,0C50.89,16.06,50.92,15.84,51,15.75Z"/><path class="cls-90" d="M49.71,18.06c0,.06,0,.06,0,.09a.44.44,0,0,0,.1-.16C49.74,18.08,49.79,18,49.71,18.06Z"/><path class="cls-91" d="M51.12,14.83c0-.08,0-.1,0-.06s0,.1-.09.16S51.09,14.84,51.12,14.83Z"/><path class="cls-92" d="M51.9,14.69a8,8,0,0,0-.67.87c.05,0,.1-.1.09-.05s0-.08.13-.2c0,.06.34-.38.27-.24C51.8,15,51.89,14.78,51.9,14.69Z"/><path class="cls-93" d="M51.33,15.35a1.78,1.78,0,0,0-.23.31C51.21,15.61,51.25,15.46,51.33,15.35Z"/><path class="cls-94" d="M48,16.17l-.12.15S48,16.22,48,16.17Z"/><path class="cls-95" d="M55.13,13.58c-.1,0,0-.1-.2.06.09-.2.17-.18.21-.22s-.11.07-.14,0a.24.24,0,0,1-.13.16c0,.1-.1.13-.08.17s.13-.16.14-.09-.13.09-.16.17,0-.11-.11,0c.09,0-.1.11-.17.2s0-.07,0-.12a2.37,2.37,0,0,0-.33.32c-.14,0-.24.23-.35.24s-.06.16-.19.3,0-.07,0-.12c-.14.06-.21.2-.32.29s0,0,.07,0c0,.11-.15.18-.12.22a.09.09,0,0,0-.11.06c-.07,0,0,0,0-.12-.14.11-.23.29-.39.36,0,.14-.19.15-.24.34,0-.08-.1.09-.15.07a.81.81,0,0,1,.26-.26c0-.15.27-.34.44-.46,0,0,0-.07.05-.2-.15.33-.72.61-.81,1a4.68,4.68,0,0,1-.43.46c0,.06,0,.05.06,0l-.09.21a.43.43,0,0,1-.14.13c0-.1.13-.15.16-.27-.08.05-.14.13-.23.19l-.06.13a.43.43,0,0,1-.11.12c-.06,0,0-.05,0-.14-.18.18,0,.19-.23.36,0,0,0,.05,0,0a.43.43,0,0,1-.12.17c0-.18-.32.2-.46.3.11-.17.47-.49.41-.54.13-.16.29-.28.41-.44s-.17.17-.24.22c.08-.15.1-.13.14-.26s.13-.14.23-.12c.09-.16,0-.13,0-.12s.11-.06.17-.1.09-.13.12-.22,0,0,.12-.05.06-.07.16-.17.2-.24.29-.39,0,0,.06,0c-.1.14-.32.33-.25.38a2.52,2.52,0,0,0,.15-.24.08.08,0,0,0,.07,0c.06-.15.08-.17.19-.23s-.06-.05,0-.23l.06-.08c.1-.07,0,0,.05.07s.12-.14.2-.17,0-.05,0,0c.12-.17.31-.24.39-.47a5.83,5.83,0,0,1,.65-.66c0-.13.14-.19.21-.28s-.05,0,0-.15a1.14,1.14,0,0,1-.23.13c0,.1,0,0,0,.17s-.2.2-.26.36,0-.17,0-.22-.21.26-.23.18c-.16.16-.26.39-.45.49.07-.13.17-.21.24-.34-.07.06-.12.14-.2.17s0,.09-.09.1c-.12.26-.36.36-.51.58s0-.05,0-.1-.12.13-.19.18A.3.3,0,0,0,52.7,15s0,0,0,.07l-.16.17s0-.09-.08,0a.2.2,0,0,0,0,.12s-.06.06-.09.1,0-.07,0-.1.15-.13.19-.24c-.7.75-1.38,1.54-2.11,2.27,0,.13-.24.34-.32.34s.08.05.06.14-.15.08-.26.26c0,0,0-.05,0-.09-.12.12-.2.29-.32.39.06-.25-.3.25-.53.39-.07.12,0,0,.08,0a2.34,2.34,0,0,1-.28.27s.07,0,0,0a.47.47,0,0,1-.15.13s0,.07-.05.16-.1,0-.17.2,0,0,0-.1a3.12,3.12,0,0,0-.57.61s0,0,0-.07c-.17.29-.41.48-.59.75,0,0,0,0,0,0a1.25,1.25,0,0,0-.19.34c-.09.07-.1.05,0,0a6,6,0,0,0-.78.94c-.1.07,0-.06-.11,0s.1-.09.12-.17a5.8,5.8,0,0,1-.7.87c0,.08.19-.17.09,0a1.29,1.29,0,0,0-.17.15,1.78,1.78,0,0,1-.23.31.21.21,0,0,1,0-.14,6.12,6.12,0,0,1-.61.78s0-.06,0,0-.08.07-.13.1a.93.93,0,0,1-.1.2s-.05,0-.12.05a3.22,3.22,0,0,1-.33.39c-.06,0,.05-.11.08-.12a.86.86,0,0,0-.29.45c-.13.11,0,0,0-.12-.16.17-.26.43-.43.58s0-.14.07-.12-.14.07-.25.2c0,0,.12-.17,0-.09s.1-.08.12-.17-.15.17-.24.24,0,.1-.07.17,0,0,.08-.05a1.38,1.38,0,0,0-.21.38c-.13.09,0-.11-.1,0s-.15.23-.12.27a5.38,5.38,0,0,0-.54.6s.05,0,0,.13,0-.14-.19.07c0-.11.11-.15.16-.22s-.19.24-.29.32,0,0,0,.07-.12.13-.21.15,0,.07-.07.19-.18.07-.25.27,0,0-.12,0a.55.55,0,0,1,.15-.19A17.26,17.26,0,0,0,40.05,29s0-.09,0-.17c-.09.08-.15.2-.25.27s0,.08,0,.08c-.19.23-.61.56-.72.91-.1,0,0-.12,0-.14-.14.16-.17.2-.29.32s0,0,0,.07c-.13.19-.45.37-.47.53s0,0-.15.06-.1.21-.19.24c0,.21-.4.42-.52.68,0,0-.11.06-.08,0a.88.88,0,0,1-.34.37.5.5,0,0,1-.11.19s0,0-.06,0-.12.19-.09.1a1.36,1.36,0,0,1-.31.36c.06,0,0,.07-.08.17s0,0,0-.09c-.12.12-.21.26-.33.38,0-.15.12-.13.12-.23a1,1,0,0,0-.2.22s0-.07,0-.12.2-.13.25-.27c-.09.13-.1,0-.19.14s0-.11.1-.21,0,.06,0,.09a.35.35,0,0,0,.12-.23,1.25,1.25,0,0,1,.23-.23c-.16.18-.08.19-.21.32s.15-.15,0,0,0-.07-.08,0,0,0,.08,0l-.09.1c.12-.08.37-.46.55-.63-.08,0,.08-.11.06-.15a2.32,2.32,0,0,0-.29.39c-.13-.06.25-.44.34-.6s.07.08.2,0c0-.06.16-.15.2-.29-.07.09-.27.3-.24.17s.09-.16.29-.32,0,.08.12,0l.08-.17s-.08,0-.07,0a9.11,9.11,0,0,1,.58-.77c-.1,0-.14.14-.22.2.1-.17.31-.45.41-.44a.58.58,0,0,0-.15.24c0,.06.11-.11.09,0,.14-.17.2-.38.36-.41s.09-.13.14-.19,0-.08,0-.07c.19-.15.42-.54.56-.57l.26-.36s0,0,0,.07,0-.1.08-.17.08,0,.06.08c.11-.1.22-.26.3-.25s-.1,0,0-.15c-.15.13,0,.13-.19.28s0-.06,0-.17.38-.32.53-.54c.1,0-.05.11-.09.21a.84.84,0,0,0,.2-.28.06.06,0,0,0-.06,0c0-.08.09-.07.07-.12.15-.11.21-.35.39-.41,0-.05.17-.27.22-.25a1.13,1.13,0,0,1,.39-.53c0-.06,0,0,0-.09s.24-.28.28-.22l.11-.24c.17-.14,0,.11.11,0a1,1,0,0,1,.28-.34s.06-.18.07-.24-.06.19.07.11c-.06-.09.23-.41.39-.53s.05-.19.18-.31c0,0,0,.17.08,0,0,0,0,.1,0,.21a.1.1,0,0,0,0,0l.06,0c0-.1,0-.06,0-.17s.13-.07.26-.18.18-.17.24-.29a.66.66,0,0,0-.28.29s-.08,0-.15.06c.1-.1.06-.13.21-.22s-.08,0,0-.1A3.21,3.21,0,0,0,44,24c0-.06-.15.12-.18.18s.14-.27.25-.37S43.94,24,44,24s.06-.13.19-.23c-.07.23.33-.41.53-.49,0-.1.18-.31.26-.48.05.09.35-.39.39-.48s.08-.05.06,0,.13-.14.2-.29.15-.17.29-.37c0,0,0,.07.11,0,.24-.36.42-.49.68-.85,0,0,0,.07.1,0s.13-.2.23-.24c-.08,0,0-.2.17-.32s-.14.16-.08.17.08-.08.13-.1,0,0,0-.12,0,.09,0,.07.19-.22.15-.24,0,.05.14-.08.05-.16.13-.28.07-.08.19-.13.08-.17.16-.23,0,.07,0,.07.38-.43.27-.46c.1-.07.13-.24.22-.3s-.05.11-.08.22c.09-.08.16-.19.25-.27s.29-.45.36-.57c0,0-.08.18-.11.24s0,0,0,0,0,.1-.15.24a.94.94,0,0,1,.35-.29c.08-.12,0,0,0-.09A9.37,9.37,0,0,0,50,17s.15-.24.06-.19c.09-.17.25-.21.2-.29s0,.06.05.07-.09.07-.13.11.09,0,0,.17a2.53,2.53,0,0,0,.23-.36.08.08,0,0,0,.07,0c.05-.11-.06,0-.07,0s.14-.14.18-.26c-.37.35-.7.74-1,1.12-.11.1,0-.1-.08,0s0,.09-.08.17,0-.13.06-.26a4.2,4.2,0,0,0,.66-.71c.06-.08.15-.12.21-.2s-.06,0,.08-.12,0,0,0-.11c.21-.12.21-.22.36-.39s0,0,.12-.05,0-.13.13-.22-.09.17,0,.05.06-.07.09-.1,0-.06,0-.12a3.8,3.8,0,0,1,.49-.44c0-.12.15-.15.22-.31s-.08.11-.08.18a1.67,1.67,0,0,1,.25-.28s.05-.15.1-.18,0,0,.06-.21c-.16.2-.27.23-.38.42s0-.09-.07,0,0,.16,0,.15a2.39,2.39,0,0,0-.13.21s-.17.14-.23.24.07-.15,0-.21a.35.35,0,0,0-.11.19.76.76,0,0,0-.25.2s0,.13-.08.22,0-.06-.15,0-.12.13-.18.2-.06,0-.06,0a9.28,9.28,0,0,1-.72.8c-.09.21-.28.29-.38.48-.3.18-.53.71-.77.78,0,.08-.08.11-.11.19a1,1,0,0,0-.21.15c.08-.13.17-.18.17-.28,0,.09.07,0,.15-.11s0,0-.11.06a1.57,1.57,0,0,1,.3-.37s-.08.14-.12.17.26-.31.38-.43c-.08,0-.1.13-.18.16.21-.23.26-.36.44-.58.07-.06-.12.2,0,.08l.06-.13a3,3,0,0,0,.53-.67c-.09.2.11-.06.23-.18s0-.13-.05,0c.1-.25.2-.17.29-.38.08,0,.07,0,.08.06a.44.44,0,0,0,.11-.24c.07-.13.3-.25.28-.34s.2-.2.18-.14a2.36,2.36,0,0,1,.52-.63,1,1,0,0,0-.16.29l.26-.2c.06-.08-.11,0,0-.07s-.1.12-.13.16.17-.38.32-.45.22-.45.41-.56l.06-.14c.09-.07,0,0,0,.06s.13-.26.25-.33-.07.12-.08.17a2.83,2.83,0,0,1,.64-.73.93.93,0,0,0,.2-.29c-.06.05-.09.05-.06,0s.32-.39.51-.52a.41.41,0,0,1-.13.2,3.26,3.26,0,0,0,.42-.42c.07-.16-.08.09-.14.08s.14-.17.19-.29,0,0,0-.07-.08.09-.11.07a.5.5,0,0,0,.08-.12c.15-.06.17-.12.34-.25,0,.13-.17.14-.21.27.07,0,.11-.11.18-.13s.11-.25.2-.35,0,0,0,.09.12-.13.2-.17-.08,0-.08,0c.13-.21.32-.34.46-.54,0,0-.11.13-.19.18s0,0,0,0a1.56,1.56,0,0,0,.24-.34s-.14.1-.15.19.06-.17-.08,0c0-.1.19-.29,0-.2s-.07.12,0,.07a.2.2,0,0,1-.1.08c-.07.12,0,.11-.06.19a2.64,2.64,0,0,0-.39.48c-.22.1-.33.36-.5.52-.05-.08.22-.31.2-.39a6.79,6.79,0,0,0-.64.8.34.34,0,0,0-.23.24c-.08,0-.09-.05,0-.18s-.07.09-.12.12-.05.17.07.09c-.19.13-.3.38-.46.54l.32-.51c-.11,0-.3.4-.43.58,0,0-.19.16-.26.25s0,0,0,0l-.06.08s0-.06,0,0c-.18.21-.34.46-.52.68,0,0,0,0,0,0,.18-.25.23-.35.39-.58-.18.13-.31.35-.48.5s.08-.06.11-.06a.75.75,0,0,1-.09.15c-.12.09-.08,0-.18.08s0,.06,0,.12,0-.05.06-.08.1,0,.11-.07c.16-.1,0,.1-.07.19.09-.15-.15.12-.09,0-.07.05-.08.19-.15.24s.05-.16.11-.24-.09,0-.05-.07c-.1.07-.15.21-.25.27s.07-.13.09-.22-.15.2-.26.25.11-.1.16-.1a1,1,0,0,1-.2.22c.12-.08.09,0,.09.08l-.06.08c-.11.1,0-.1-.08,0s-.6.72-.61.61c0,.1-.12.17-.09.2-.14.11-.08,0-.17,0,.12-.12.2-.28.32-.39A2.18,2.18,0,0,0,50,15c-.06,0,0-.07-.08,0a1.06,1.06,0,0,1-.33.39c0,.06-.08.16,0,.14-.09,0-.13.19-.28.29.11,0-.16.23-.12.27-.18.16.05-.16-.08,0a.6.6,0,0,1-.18.25s0-.06,0-.08c.21-.29.45-.51.59-.75-.07,0-.09.13-.17.15-.22.43-.61.61-.84,1-.34.23-.78.92-1,1l-.28.29c0,.12-.18.25-.28.39s0-.06,0,0-.14.24-.15.19c-.21.33-.5.54-.72.85.09-.06,0,.1-.05.16s.06-.15,0-.14a5.43,5.43,0,0,0-.6.73c0-.07-.29.21-.31.3s-.09.09-.15.12c0,.22-.59.61-.78,1-.27.13-.51.7-.73.78a2.23,2.23,0,0,0,.19-.24c-.08,0-.25.33-.44.51s-.36.31-.33.37-.11.08-.16.12c-.13.21-.3.36-.43.58s-.59.64-.87,1q-4.56,5.07-9,10.32c-1.48,1.76-3,3.5-4.43,5.26L24.81,44,21,39.62c-.05-.09.75.76.81.78.5.69,1.15,1.26,1.66,1.94.08,0,.1.06.2.15s-.05,0-.09-.06.21.18.26.31,0-.05.11,0a2.73,2.73,0,0,0,.38.55c.12.14.12.1.19.14s.1.2.17.2,0,0,0,0a.46.46,0,0,1,.13.12.49.49,0,0,0,.14-.23s0,0,0,0a.05.05,0,0,0,0,0c.07,0,.11-.1.16-.17a.49.49,0,0,1,.07-.11c.12-.13.24-.27.38-.4s.3-.35.42-.5.3-.46.42-.52a2.15,2.15,0,0,1,.53-.62c.08-.13-.08,0,0-.1s.15-.13.11-.07c.08-.18.23-.27.33-.44s0,0,0,0a5.13,5.13,0,0,1,.43-.58c.06,0,0,0,.16-.12,0,0,0-.11.08-.17s0,0,.09,0,.34-.35.49-.66c0,0,.06,0,0,0,.24-.32.86-1,.89-1.13s.3-.25.38-.47a1.27,1.27,0,0,0,.41-.44l2.43-2.84c0-.06,0,0,0-.09s.1-.09.23-.18c.41-.59,1.12-1.24,1.59-1.94,0,0,0,0,.09,0a8.89,8.89,0,0,1,.61-.74s-.14,0,0-.27c.09,0,.05,0,.18-.09s-.07.2-.13.21.19-.11.14-.14c.32-.25.53-.67.86-.93a.84.84,0,0,1,.38-.42c0-.07,0-.05,0,0,.27-.26.51-.57.78-.83,0,0,0,0,0-.07a13.52,13.52,0,0,1,1.15-1.26s0,0,0,0c.4-.44.78-.93,1.21-1.34.25-.36.74-.87,1.09-1.27.07-.12,0,0,0-.14a.22.22,0,0,1,.09-.1c0,.19.3-.27.44-.39s-.11.11-.16.12.08-.15.11-.19c.23-.06.47-.47.72-.68.07-.12,0,0,0-.14s.07-.05.09-.1,0,.07,0,.12a.52.52,0,0,0,.19-.24c.25-.18.18-.23.42-.42,0-.06-.09,0-.08,0s0-.05.07-.07,0-.05-.07,0c.08-.18.2-.29.27-.47s.12-.1.13,0c.09-.12.14-.3.25-.38s0,.11,0,.16.12-.18.08-.18.16-.11.21-.22,0,.1.08,0,.37-.58.42-.52a1.41,1.41,0,0,0,.27-.36c.17-.07.29-.36.39-.36,0-.23.44-.41.57-.71s.37-.43.57-.61-.11.13,0,0c.24-.42.61-.64.87-1,0,0-.08.07-.13.1s0-.06,0,0c.13-.14.3-.25.43-.4s0,0-.08.05.1-.11.1-.19,0,0,.11-.07c0-.23.38-.37.51-.65.09-.06.11,0,.05.08.08,0,.11-.14.18-.19s-.05,0-.09,0a1,1,0,0,1,.15-.24s0,0,0,.11a5,5,0,0,1,.46-.55s0,.1.08,0,.53-.67.65-.88c.08,0,.25-.23.14,0,.1-.1.09-.14.08-.18s.17,0,.27-.23c-.07,0-.09.1-.14.13s0-.05,0-.05a3.81,3.81,0,0,0,.64-.78c0,.05.05,0,.15,0s-.06,0-.12,0c.07-.21.27-.23.34-.42s0,.13.09.07,0-.11,0-.17.11-.07.14-.14,0,.07,0,.12.19-.24.12-.22c.2-.12.16-.17.31-.24a1.17,1.17,0,0,1,.31-.35c0-.05-.09,0,0-.13l-.14.09c-.09.09,0,.09-.14.15s0,.05,0,0c-.14.15-.55.66-.53.49-.06,0-.07.13-.11.18s-.06,0,0-.15-.27.31-.15.24c-.09.12-.21.19-.27.36,0,0,.06-.15,0-.14s-.27.38-.27.23C50,14,50,14,50,14a1.23,1.23,0,0,1-.26.25s0,0,0,.07a1.39,1.39,0,0,1-.15.19.08.08,0,0,1,0-.07,4.23,4.23,0,0,1-.56.68c-.07,0,.06-.08.06-.14s-.12.17-.22.21c-.1.21-.19.09-.3.3l.14-.13c0,.11-.12.12-.15.24s0,0,0-.07-.07.09-.12.11-.4.51-.59.7c0,0,0,0,0,0-.25.3-.5.6-.77.88,0,0,0-.07,0-.12s-.15.2-.12.22c-.13.16,0,0-.18.08s.11-.06.06,0a3.71,3.71,0,0,1-.55.63c0,.13-.13.2-.23.36s0,0-.12,0a3.57,3.57,0,0,1-.4.52c-.06,0,.1-.16.13-.21a1.46,1.46,0,0,0-.35.46c-.1.08,0-.06-.11,0,0-.1.15-.18.12-.22a6.49,6.49,0,0,0-.65.89c-.14.11,0-.14-.08-.06a5.43,5.43,0,0,1-.73.78.65.65,0,0,1-.26.31c0,.07.06,0,0,.1s-.54.7-.62.65a11.13,11.13,0,0,0-.85,1c-.17.11-.28.33-.46.42s-.19.23-.24.4-.05,0-.13,0c-.51.59-1,1.21-1.56,1.75,0,0,0,.12.05,0a18.06,18.06,0,0,0-1.28,1.46c-.09.15-.24.2-.33.33s0,0,0,0a3.19,3.19,0,0,0-.48.56l-.17.1a15.46,15.46,0,0,1-1.35,1.55s0,0,0,0c-.8.86-1.55,1.81-2.34,2.68a11,11,0,0,1-1,1.16,3.19,3.19,0,0,1-.47.53l-.06.13c-.14.05-.27.36-.46.48-.33.49-.91,1-1.31,1.6l-.12.07c-.51.71-1.13,1.16-1.64,1.89-.29.23-.44.51-.73.75-.11.22-.33.32-.45.53a17.2,17.2,0,0,0-1.21,1.34c-.46.52-.9.72-1.35,1.26l-.31.13h0v0s0,0,0,0,0,0,0,0h0s0,0,0,0v0s0,0,0,0l-.18-.18L4.16,19.91,24.72,49.4h0L25,49.1l.26-.3.11-.13,0,0,.4-.46.21-.24,0,0,.29-.34.21-.24.12-.14.17-.2.13-.15,1.33-1.53.08-.09.58-.67.24-.27c.17-.19.36-.39.5-.58l.08-.1.12-.14.11-.11.06-.08.1-.11.47-.55.15-.16.25-.29.1-.12.11-.12.67-.78.18-.21.21-.24.35-.41.51-.59.15-.16c.07-.1.17-.2.27-.32l.16-.18L34,38.7l.09-.11,1-1.19.05-.07.16-.18.36-.41.5-.58.05,0,.2-.24,0,0,.09-.11.06-.07.09-.09,0-.05.08-.09,0,0,.18-.21h0l.13-.15h0l.14-.16,0,0,.14-.15.34-.39.08-.1.07-.08,0,0,.15-.16.22-.26,0,0,.19-.22.59-.68.21-.24.41-.47.45-.52,0,0,1.76-2,.06-.06.22-.26.06-.07.24-.28h0l.94-1.09a1.53,1.53,0,0,0,.57-.66c.1-.07-.06.17,0,.07s.3-.33.44-.51,0,0,0-.12,0,.06,0,0,0,0,.06-.14,0,.06,0,0,.19-.22.15-.24a.16.16,0,0,0,.07-.07s0,.05,0,.09a4.38,4.38,0,0,0,.66-.77c.23-.18.13-.18.27-.28a2.62,2.62,0,0,1,.27-.48c.11-.12.33-.33.44-.44s0,0,0,.08a1,1,0,0,0,.19-.24c0-.17.53-.55.7-.86l-.8.84a2.61,2.61,0,0,1,.27-.3c0-.08-.12.12-.17.15l.09-.21s0,0,.1,0c.16-.23.1-.3.34-.53,0,0-.12.21-.15.29s.09,0,.06,0a1,1,0,0,1,.28-.46s0,0,0,.1.12-.27.27-.41,0,.12.09,0,0,0,0,0,.12-.14,0-.15.2-.2.14-.21.09-.13.16-.17-.1.24,0,.23l.16-.27c.08-.06,0,0,.13,0a5.9,5.9,0,0,1,.39-.46c.06,0-.07.11-.08.17.19-.17.14-.33.36-.46,0-.06,0-.16.1-.19s-.07.08-.11.07l.05-.11c.15-.11.26-.3.42-.42,0,0-.14.25-.24.29a1,1,0,0,1-.15.24c.07-.09.29-.22.35-.41s0,.08.13,0a2.65,2.65,0,0,1,.5-.7c.07,0-.06.09-.06.13.09-.11.07,0,.17-.1s.23-.27.32-.44.15-.2.35-.53a1.88,1.88,0,0,1-.28.34c0,.07,0,0,0,0a.55.55,0,0,1-.17.2c-.06,0,0-.1.07-.12a.78.78,0,0,0-.38.36c-.11,0-.35.32-.48.5s-.06,0-.12.12a3.62,3.62,0,0,0-.71.75c0-.05-.25.26-.22.13,0,.06-.1.14-.18.26s-.13.13-.2.17,0,0,0,.08-.14.07-.16.17a.32.32,0,0,0-.13.1c-.07.06.09-.16,0-.05a1.79,1.79,0,0,1-.55.63c-.1.07,0,.06-.07.14s0,0-.06.08-.05,0-.15.07a3.76,3.76,0,0,1-.64.73c0,.09-.09.14-.12.22.13-.09.06-.13.19-.24,0,.09,0,.07.06,0a.58.58,0,0,1-.32.34c0-.1.15-.1.18-.21-.1.12-.18.12-.12,0l-.44.46c0-.1,0-.05-.12.05a.56.56,0,0,1,.24-.22c0-.07-.08,0,0-.06-.07.11-.17.18-.24.28s.06,0,.13,0a3.17,3.17,0,0,0-.35.45c0,.05.06,0,0,.08s0-.05-.16.06,0-.05,0-.1c-.17.09-.43.46-.63.57a3.6,3.6,0,0,1-.51.63c-.1,0,.09-.18.07-.24-.16.12-.13.25-.22.2s0,.11.06.09a3.42,3.42,0,0,1-.47.53c0,.12-.16.27-.28.39s0-.05,0-.09a.32.32,0,0,1,.13-.1s0,0,0,0l0-.07c-.09.07-.14.22-.26.26,0-.09.11-.12.15-.19s-.14.13-.2.17c.09-.24-.18.18-.31.28s0,.1-.06.21c0-.11-.09,0-.13,0a.35.35,0,0,1-.06.09c.07,0-.08.16-.07.24a1.46,1.46,0,0,0-.38.42c-.1.07,0,0,0-.07s-.26.25-.35.31l-.06.13.11-.06c.05-.15.17-.18.25-.28-.07.16-.22.22-.29.38-.08-.11-.28.23-.49.39.08-.07.12-.17.21-.22s-.2.17-.26.25,0,.06,0,.12l0,0,0,0s0,0-.08,0a.22.22,0,0,1-.09.1s0,.06,0,.1l-.08.07a.44.44,0,0,1-.11.08h0l-.11.12s0,0-.05,0,0,0,0,0l-1,.91s0,0,0,0,.21-.23.32-.34-.05,0,0,0,0,0,.14-.08a.38.38,0,0,1,.11-.14c-.07-.11.23-.22.29-.42s0,.07.13-.05-.07-.05,0-.16-.11.14-.19.19,0,0,.07,0a.8.8,0,0,1-.22.26s.06-.1.05-.16a2,2,0,0,0,.25-.32c.1-.07,0,.07.13,0,.05-.29.59-.76.87-1.09,0,0-.06.15,0,.12-.22.24-.44.47-.65.71.07-.05.13-.12.08,0l.21-.28s0,.12.09,0,.07-.14.18-.25,0,.06.11,0a2.56,2.56,0,0,0,.4-.56s.07,0,.05,0,0,0-.09.1c.16-.12.27-.3.42-.42l.11-.24a.62.62,0,0,0,.18-.08c.05-.17-.09,0-.14,0s.2-.13.24-.27,0,.17.12.05,0,0,0,0a4.7,4.7,0,0,1,.51-.58c.06-.14-.11,0-.18.09.07-.11.09-.29.2-.35s-.08.12,0,.12.08-.12.15-.13,0,0,.06-.19.08,0,0,.05c.15-.1.06-.19.2-.29s-.09.19,0,.11,0-.11.07-.19a.27.27,0,0,1,.08-.1s-.09.16,0,.17.1-.08.24-.17A5.87,5.87,0,0,0,45,25c-.07.21.38-.37.55-.52,0,.05-.21.23-.25.37.21-.16.3-.43.46-.52s0,0-.06,0,.11-.14.15-.24c.22-.1.38-.44.53-.49a6.74,6.74,0,0,0,.45-.61c-.09.09,0,0-.12.06.2-.33.34-.32.41-.26,0-.1,0-.08,0-.16s.2-.22.31-.3-.08.12-.11.2c.06-.08.35-.35.39-.42s.09,0,0,0,.08-.1.13-.15,0,0-.07,0a6,6,0,0,0,.74-.76l.14-.08c0-.07.1-.09.12-.17.25-.13.38-.44.63-.58a2.37,2.37,0,0,1,.62-.64c-.1.17-.09.19-.17.33.22-.26.4-.58.55-.65-.06-.07.07-.28,0-.3.1-.09.25-.24.36-.33-.07-.07-.42.43-.48.33s.1-.07.15-.12.18-.21.23-.36c0,.05,0,.09.15,0,0,0,0-.12.1-.26s.25-.15.21-.2.08,0,.17-.1,0,0,0,.12a1.59,1.59,0,0,0,.28-.34c.09-.06,0,.15.06.09s0-.17.12-.22,0-.12-.06,0c.11-.16.09-.13.11-.24s.12-.06.14-.14-.08,0-.12.05.13-.12.17-.2-.06.15.05.07.14-.2.12-.12a1.54,1.54,0,0,1,.56-.61s0-.11,0-.14-.07,0-.17.1,0,0,0,0a4.61,4.61,0,0,1-.59.58c.13-.21.33-.32.47-.53l-.28.24c.08-.13.2-.18.24-.35.06,0,0,.09.1,0a1.19,1.19,0,0,1,.09-.15c.07-.05,0,0,0,.07s.08-.12.14-.14.15-.21.13-.27c.14-.11,0,.06.15,0s.29-.34.33-.33c.11-.19.15-.13.26-.3s-.06.09-.06.14c.15-.11.25-.29.39-.41a.18.18,0,0,0,0-.16c.08-.07.21-.25.18-.31s0,.1.08,0,.12-.18.21-.22,0-.08.08-.18-.06.18,0,.2-.14.06-.16.16.22-.19.29-.32.05,0,.13,0a1.62,1.62,0,0,1,.35-.46s0-.06,0,0a.67.67,0,0,1,.25-.25c0-.1.1-.13.13-.22C55.34,13.39,55.19,13.42,55.13,13.58Z"/><path class="cls-96" d="M30.89,25.86l.38,5.24-6.55,6.75L18.16,31.1h0l1.1-15.59c1.18-.65,2.4-1.28,3.67-1.91l-.37,16.15,2.16,2.09,2.15-2.09-.44-17.81c1.09-.49,2.21-1,3.36-1.43ZM15.72,28.57l1.16-11.71C15,17.94,13.3,19,11.68,20.14L12,24.77Zm-5.58-7.38-.94.68.7.71ZM44.78,5.64c-1,.24-2,.51-3,.77l1.81,7.1-6.91,6.7L35,8.54q-1.62.57-3.18,1.17l1.91,18.86L47.43,14.42h0ZM4.18,25.78,24.72,49.4h0L6.78,23.68C5.87,24.39,5,25.09,4.18,25.78Z"/></g></g></svg>