<svg xmlns="http://www.w3.org/2000/svg" xmlns:xlink="http://www.w3.org/1999/xlink" viewBox="0 0 260 271.54"><defs><style>.cls-1{fill:none;}.cls-2{fill:#eaeef1;}.cls-3{fill:url(#名称未設定グラデーション_59);}.cls-4{fill:url(#名称未設定グラデーション_59-2);}.cls-5{fill:url(#名称未設定グラデーション_59-3);}.cls-6{fill:url(#名称未設定グラデーション_59-4);}.cls-7{fill:url(#名称未設定グラデーション_59-5);}.cls-8{fill:url(#名称未設定グラデーション_59-6);}.cls-9{fill:url(#名称未設定グラデーション_59-7);}.cls-10{fill:url(#名称未設定グラデーション_59-8);}.cls-11{fill:url(#名称未設定グラデーション_59-9);}.cls-12{fill:url(#名称未設定グラデーション_59-10);}.cls-13{fill:url(#名称未設定グラデーション_59-11);}.cls-14{fill:url(#名称未設定グラデーション_59-12);}.cls-15{fill:url(#名称未設定グラデーション_59-13);}.cls-16{fill:url(#名称未設定グラデーション_59-14);}.cls-17{fill:url(#名称未設定グラデーション_59-15);}.cls-18{fill:url(#名称未設定グラデーション_59-16);}.cls-19{fill:url(#名称未設定グラデーション_59-17);}.cls-20{fill:url(#名称未設定グラデーション_59-18);}.cls-21{fill:url(#名称未設定グラデーション_59-19);}.cls-22{fill:url(#名称未設定グラデーション_59-20);}.cls-23{fill:url(#名称未設定グラデーション_59-21);}.cls-24{fill:url(#名称未設定グラデーション_59-22);}.cls-25{fill:url(#名称未設定グラデーション_59-23);}.cls-26{fill:url(#名称未設定グラデーション_59-24);}.cls-27{fill:url(#名称未設定グラデーション_59-25);}.cls-28{fill:url(#名称未設定グラデーション_59-26);}.cls-29{fill:url(#名称未設定グラデーション_59-27);}.cls-30{fill:url(#名称未設定グラデーション_59-28);}.cls-31{fill:url(#名称未設定グラデーション_59-29);}.cls-32{fill:url(#名称未設定グラデーション_59-30);}.cls-33{fill:url(#名称未設定グラデーション_59-31);}.cls-34{fill:url(#名称未設定グラデーション_59-32);}.cls-35{fill:url(#名称未設定グラデーション_59-33);}.cls-36{fill:url(#名称未設定グラデーション_59-34);}.cls-37{fill:url(#名称未設定グラデーション_59-35);}.cls-38{fill:url(#名称未設定グラデーション_59-36);}.cls-39{fill:url(#名称未設定グラデーション_59-37);}.cls-40{fill:url(#名称未設定グラデーション_59-38);}.cls-41{fill:url(#名称未設定グラデーション_59-39);}.cls-42{fill:url(#名称未設定グラデーション_59-40);}.cls-43{fill:url(#名称未設定グラデーション_59-41);}.cls-44{fill:url(#名称未設定グラデーション_59-42);}.cls-45{fill:url(#名称未設定グラデーション_59-43);}.cls-46{fill:url(#名称未設定グラデーション_59-44);}.cls-47{fill:url(#名称未設定グラデーション_59-45);}.cls-48{fill:url(#名称未設定グラデーション_59-46);}.cls-49{fill:url(#名称未設定グラデーション_59-47);}.cls-50{fill:url(#名称未設定グラデーション_59-48);}.cls-51{fill:url(#名称未設定グラデーション_59-49);}.cls-52{fill:url(#名称未設定グラデーション_59-50);}.cls-53{fill:url(#名称未設定グラデーション_59-51);}.cls-54{fill:url(#名称未設定グラデーション_59-52);}.cls-55{fill:url(#名称未設定グラデーション_59-53);}.cls-56{fill:url(#名称未設定グラデーション_59-54);}.cls-57{fill:url(#名称未設定グラデーション_59-55);}.cls-58{fill:url(#名称未設定グラデーション_59-56);}.cls-59{fill:url(#名称未設定グラデーション_59-57);}.cls-60{fill:url(#名称未設定グラデーション_59-58);}.cls-61{fill:url(#名称未設定グラデーション_59-59);}.cls-62{fill:url(#名称未設定グラデーション_59-60);}.cls-63{fill:url(#名称未設定グラデーション_59-61);}.cls-64{fill:url(#名称未設定グラデーション_59-62);}.cls-65{fill:url(#名称未設定グラデーション_59-63);}.cls-66{fill:url(#名称未設定グラデーション_59-64);}.cls-67{fill:url(#名称未設定グラデーション_59-65);}.cls-68{fill:url(#名称未設定グラデーション_59-66);}.cls-69{fill:url(#名称未設定グラデーション_59-67);}.cls-70{fill:url(#名称未設定グラデーション_59-68);}.cls-71{fill:url(#名称未設定グラデーション_59-69);}.cls-72{fill:url(#名称未設定グラデーション_59-70);}.cls-73{fill:url(#名称未設定グラデーション_59-71);}.cls-74{fill:url(#名称未設定グラデーション_59-72);}.cls-75{fill:url(#名称未設定グラデーション_59-73);}.cls-76{fill:url(#名称未設定グラデーション_59-74);}.cls-77{fill:url(#名称未設定グラデーション_59-75);}.cls-78{fill:url(#名称未設定グラデーション_59-76);}.cls-79{fill:url(#名称未設定グラデーション_59-77);}.cls-80{fill:url(#名称未設定グラデーション_59-78);}.cls-81{fill:url(#名称未設定グラデーション_59-79);}.cls-82{fill:url(#名称未設定グラデーション_59-80);}.cls-83{fill:url(#名称未設定グラデーション_59-81);}.cls-84{fill:url(#名称未設定グラデーション_59-82);}.cls-85{fill:url(#名称未設定グラデーション_59-83);}.cls-86{fill:url(#名称未設定グラデーション_59-84);}.cls-87{fill:url(#名称未設定グラデーション_59-85);}.cls-88{fill:url(#名称未設定グラデーション_59-86);}.cls-89{fill:url(#名称未設定グラデーション_59-87);}.cls-90{fill:url(#名称未設定グラデーション_59-88);}.cls-91{fill:url(#名称未設定グラデーション_59-89);}.cls-92{fill:url(#名称未設定グラデーション_59-90);}.cls-93{fill:url(#名称未設定グラデーション_59-91);}.cls-94{fill:url(#名称未設定グラデーション_59-92);}.cls-95{fill:url(#名称未設定グラデーション_59-93);}.cls-96{fill:url(#名称未設定グラデーション_59-94);}.cls-97{fill:url(#名称未設定グラデーション_116);}.cls-98{fill:#c6000b;}.cls-99{fill:#006446;}.cls-100{fill:#30a6d9;}.cls-101{fill:#fff;}</style><linearGradient id="名称未設定グラデーション_59" x1="229.02" y1="83.73" x2="229.92" y2="83.73" gradientUnits="userSpaceOnUse"><stop offset="0" stop-color="#fccf00"/><stop offset="0.3" stop-color="#f08c00"/><stop offset="0.6" stop-color="#ffd800"/></linearGradient><linearGradient id="名称未設定グラデーション_59-2" x1="231.04" y1="81.76" x2="231.76" y2="81.76" xlink:href="#名称未設定グラデーション_59"/><linearGradient id="名称未設定グラデーション_59-3" x1="191.64" y1="121.8" x2="191.77" y2="121.8" xlink:href="#名称未設定グラデーション_59"/><linearGradient id="名称未設定グラデーション_59-4" x1="191.17" y1="122.16" x2="191.64" y2="122.16" xlink:href="#名称未設定グラデーション_59"/><linearGradient id="名称未設定グラデーション_59-5" x1="249.74" y1="43.15" x2="250.51" y2="43.15" xlink:href="#名称未設定グラデーション_59"/><linearGradient id="名称未設定グラデーション_59-6" x1="249.31" y1="44.25" x2="250.08" y2="44.25" xlink:href="#名称未設定グラデーション_59"/><linearGradient id="名称未設定グラデーション_59-7" x1="220.49" y1="68.07" x2="223.53" y2="68.07" xlink:href="#名称未設定グラデーション_59"/><linearGradient id="名称未設定グラデーション_59-8" x1="130.24" y1="170.21" x2="130.28" y2="170.21" xlink:href="#名称未設定グラデーション_59"/><linearGradient id="名称未設定グラデーション_59-9" x1="250.86" y1="40.93" x2="255.05" y2="40.93" xlink:href="#名称未設定グラデーション_59"/><linearGradient id="名称未設定グラデーション_59-10" x1="208.67" y1="81.93" x2="210.42" y2="81.93" xlink:href="#名称未設定グラデーション_59"/><linearGradient id="名称未設定グラデーション_59-11" x1="241.36" y1="51.81" x2="241.96" y2="51.81" xlink:href="#名称未設定グラデーション_59"/><linearGradient id="名称未設定グラデーション_59-12" x1="236.27" y1="53.07" x2="236.91" y2="53.07" xlink:href="#名称未設定グラデーション_59"/><linearGradient id="名称未設定グラデーション_59-13" x1="242.44" y1="50.67" x2="243.1" y2="50.67" xlink:href="#名称未設定グラデーション_59"/><linearGradient id="名称未設定グラデーション_59-14" x1="245.11" y1="46.86" x2="246.43" y2="46.86" xlink:href="#名称未設定グラデーション_59"/><linearGradient id="名称未設定グラデーション_59-15" x1="237.29" y1="51.97" x2="238.11" y2="51.97" xlink:href="#名称未設定グラデーション_59"/><linearGradient id="名称未設定グラデーション_59-16" x1="233.73" y1="55.83" x2="234.51" y2="55.83" xlink:href="#名称未設定グラデーション_59"/><linearGradient id="名称未設定グラデーション_59-17" x1="207.76" y1="98.63" x2="208.42" y2="98.63" xlink:href="#名称未設定グラデーション_59"/><linearGradient id="名称未設定グラデーション_59-18" x1="225.52" y1="63.87" x2="226.15" y2="63.87" xlink:href="#名称未設定グラデーション_59"/><linearGradient id="名称未設定グラデーション_59-19" x1="231.25" y1="57.68" x2="233.6" y2="57.68" xlink:href="#名称未設定グラデーション_59"/><linearGradient id="名称未設定グラデーション_59-20" x1="206.67" y1="97.68" x2="207.22" y2="97.68" xlink:href="#名称未設定グラデーション_59"/><linearGradient id="名称未設定グラデーション_59-21" x1="213.59" y1="78.34" x2="215.57" y2="78.34" xlink:href="#名称未設定グラデーション_59"/><linearGradient id="名称未設定グラデーション_59-22" x1="216.78" y1="76.27" x2="217.61" y2="76.27" xlink:href="#名称未設定グラデーション_59"/><linearGradient id="名称未設定グラデーション_59-23" x1="215.37" y1="77.8" x2="216.39" y2="77.8" xlink:href="#名称未設定グラデーション_59"/><linearGradient id="名称未設定グラデーション_59-24" x1="213.12" y1="80.43" x2="213.87" y2="80.43" xlink:href="#名称未設定グラデーション_59"/><linearGradient id="名称未設定グラデーション_59-25" x1="220.87" y1="70.74" x2="221.57" y2="70.74" xlink:href="#名称未設定グラデーション_59"/><linearGradient id="名称未設定グラデーション_59-26" x1="219.72" y1="73.3" x2="220.34" y2="73.3" xlink:href="#名称未設定グラデーション_59"/><linearGradient id="名称未設定グラデーション_59-27" x1="228.3" y1="64.76" x2="229" y2="64.76" xlink:href="#名称未設定グラデーション_59"/><linearGradient id="名称未設定グラデーション_59-28" x1="221.46" y1="71.33" x2="222.17" y2="71.33" xlink:href="#名称未設定グラデーション_59"/><linearGradient id="名称未設定グラデーション_59-29" x1="212.12" y1="81.58" x2="212.78" y2="81.58" xlink:href="#名称未設定グラデーション_59"/><linearGradient id="名称未設定グラデーション_59-30" x1="207.38" y1="86.37" x2="208.57" y2="86.37" xlink:href="#名称未設定グラデーション_59"/><linearGradient id="名称未設定グラデーション_59-31" x1="198.58" y1="95.49" x2="201.64" y2="95.49" xlink:href="#名称未設定グラデーション_59"/><linearGradient id="名称未設定グラデーション_59-32" x1="202.55" y1="91.82" x2="203.45" y2="91.82" xlink:href="#名称未設定グラデーション_59"/><linearGradient id="名称未設定グラデーション_59-33" x1="241.8" y1="62.33" x2="242.24" y2="62.33" xlink:href="#名称未設定グラデーション_59"/><linearGradient id="名称未設定グラデーション_59-34" x1="242.11" y1="61.34" x2="242.98" y2="61.34" xlink:href="#名称未設定グラデーション_59"/><linearGradient id="名称未設定グラデーション_59-35" x1="209.77" y1="83.49" x2="211.48" y2="83.49" xlink:href="#名称未設定グラデーション_59"/><linearGradient id="名称未設定グラデーション_59-36" x1="200.23" y1="94.1" x2="201.47" y2="94.1" xlink:href="#名称未設定グラデーション_59"/><linearGradient id="名称未設定グラデーション_59-37" x1="190.95" y1="122.95" x2="191.4" y2="122.95" xlink:href="#名称未設定グラデーション_59"/><linearGradient id="名称未設定グラデーション_59-38" x1="208.72" y1="85.2" x2="209.63" y2="85.2" xlink:href="#名称未設定グラデーション_59"/><linearGradient id="名称未設定グラデーション_59-39" x1="203.63" y1="90.2" x2="205.76" y2="90.2" xlink:href="#名称未設定グラデーション_59"/><linearGradient id="名称未設定グラデーション_59-40" x1="217.49" y1="94.73" x2="218.64" y2="94.73" xlink:href="#名称未設定グラデーション_59"/><linearGradient id="名称未設定グラデーション_59-41" x1="221.44" y1="90.3" x2="222.91" y2="90.3" xlink:href="#名称未設定グラデーション_59"/><linearGradient id="名称未設定グラデーション_59-42" x1="221.59" y1="90.65" x2="223.13" y2="90.65" xlink:href="#名称未設定グラデーション_59"/><linearGradient id="名称未設定グラデーション_59-43" x1="212.89" y1="99.73" x2="213.72" y2="99.73" xlink:href="#名称未設定グラデーション_59"/><linearGradient id="名称未設定グラデーション_59-44" x1="217.05" y1="95.66" x2="218.21" y2="95.66" xlink:href="#名称未設定グラデーション_59"/><linearGradient id="名称未設定グラデーション_59-45" x1="209.96" y1="102.78" x2="210.56" y2="102.78" xlink:href="#名称未設定グラデーション_59"/><linearGradient id="名称未設定グラデーション_59-46" x1="204.33" y1="109.21" x2="205.49" y2="109.21" xlink:href="#名称未設定グラデーション_59"/><linearGradient id="名称未設定グラデーション_59-47" x1="203.22" y1="110.03" x2="204.1" y2="110.03" xlink:href="#名称未設定グラデーション_59"/><linearGradient id="名称未設定グラデーション_59-48" x1="202.75" y1="111.09" x2="203.27" y2="111.09" xlink:href="#名称未設定グラデーション_59"/><linearGradient id="名称未設定グラデーション_59-49" x1="197.19" y1="117" x2="197.54" y2="117" xlink:href="#名称未設定グラデーション_59"/><linearGradient id="名称未設定グラデーション_59-50" x1="204.44" y1="108.03" x2="205.88" y2="108.03" xlink:href="#名称未設定グラデーション_59"/><linearGradient id="名称未設定グラデーション_59-51" x1="201.57" y1="111.02" x2="202.21" y2="111.02" xlink:href="#名称未設定グラデーション_59"/><linearGradient id="名称未設定グラデーション_59-52" x1="204.34" y1="109.06" x2="204.76" y2="109.06" xlink:href="#名称未設定グラデーション_59"/><linearGradient id="名称未設定グラデーション_59-53" x1="206.85" y1="105.58" x2="209.04" y2="105.58" xlink:href="#名称未設定グラデーション_59"/><linearGradient id="名称未設定グラデーション_59-54" x1="206.04" y1="107.21" x2="207.17" y2="107.21" xlink:href="#名称未設定グラデーション_59"/><linearGradient id="名称未設定グラデーション_59-55" x1="208.69" y1="104.34" x2="209.4" y2="104.34" xlink:href="#名称未設定グラデーション_59"/><linearGradient id="名称未設定グラデーション_59-56" x1="192.01" y1="122.04" x2="192.51" y2="122.04" xlink:href="#名称未設定グラデーション_59"/><linearGradient id="名称未設定グラデーション_59-57" x1="236.61" y1="59.78" x2="237.47" y2="59.78" xlink:href="#名称未設定グラデーション_59"/><linearGradient id="名称未設定グラデーション_59-58" x1="198.19" y1="108.52" x2="198.89" y2="108.52" xlink:href="#名称未設定グラデーション_59"/><linearGradient id="名称未設定グラデーション_59-59" x1="192.49" y1="115.17" x2="193.42" y2="115.17" xlink:href="#名称未設定グラデーション_59"/><linearGradient id="名称未設定グラデーション_59-60" x1="248.01" y1="45.7" x2="248.66" y2="45.7" xlink:href="#名称未設定グラデーション_59"/><linearGradient id="名称未設定グラデーション_59-61" x1="205.69" y1="100.31" x2="206.25" y2="100.31" xlink:href="#名称未設定グラデーション_59"/><linearGradient id="名称未設定グラデーション_59-62" x1="242.63" y1="61.32" x2="243.23" y2="61.32" xlink:href="#名称未設定グラデーション_59"/><linearGradient id="名称未設定グラデーション_59-63" x1="247.07" y1="45.95" x2="247.68" y2="45.95" xlink:href="#名称未設定グラデーション_59"/><linearGradient id="名称未設定グラデーション_59-64" x1="187.83" y1="119.65" x2="188.66" y2="119.65" xlink:href="#名称未設定グラデーション_59"/><linearGradient id="名称未設定グラデーション_59-65" x1="190.47" y1="116.65" x2="191.09" y2="116.65" xlink:href="#名称未設定グラデーション_59"/><linearGradient id="名称未設定グラデーション_59-66" x1="245.52" y1="61.46" x2="246.44" y2="61.46" xlink:href="#名称未設定グラデーション_59"/><linearGradient id="名称未設定グラデーション_59-67" x1="182.72" y1="124.78" x2="184.79" y2="124.78" xlink:href="#名称未設定グラデーション_59"/><linearGradient id="名称未設定グラデーション_59-68" x1="232.6" y1="73.26" x2="233.2" y2="73.26" xlink:href="#名称未設定グラデーション_59"/><linearGradient id="名称未設定グラデーション_59-69" x1="246.81" y1="59.95" x2="247.49" y2="59.95" xlink:href="#名称未設定グラデーション_59"/><linearGradient id="名称未設定グラデーション_59-70" x1="180.24" y1="128.59" x2="180.8" y2="128.59" xlink:href="#名称未設定グラデーション_59"/><linearGradient id="名称未設定グラデーション_59-71" x1="237.16" y1="68.43" x2="238.1" y2="68.43" xlink:href="#名称未設定グラデーション_59"/><linearGradient id="名称未設定グラデーション_59-72" x1="179.21" y1="129.51" x2="180.08" y2="129.51" xlink:href="#名称未設定グラデーション_59"/><linearGradient id="名称未設定グラデーション_59-73" x1="240.21" y1="65.38" x2="241.24" y2="65.38" xlink:href="#名称未設定グラデーション_59"/><linearGradient id="名称未設定グラデーション_59-74" x1="193.51" y1="113.91" x2="194.38" y2="113.91" xlink:href="#名称未設定グラデーション_59"/><linearGradient id="名称未設定グラデーション_59-75" x1="235.36" y1="67.53" x2="236.19" y2="67.53" xlink:href="#名称未設定グラデーション_59"/><linearGradient id="名称未設定グラデーション_59-76" x1="232.77" y1="66.14" x2="235.2" y2="66.14" xlink:href="#名称未設定グラデーション_59"/><linearGradient id="名称未設定グラデーション_59-77" x1="215.49" y1="89.09" x2="216.49" y2="89.09" xlink:href="#名称未設定グラデーション_59"/><linearGradient id="名称未設定グラデーション_59-78" x1="232.78" y1="63.65" x2="233.91" y2="63.65" xlink:href="#名称未設定グラデーション_59"/><linearGradient id="名称未設定グラデーション_59-79" x1="230.65" y1="67.57" x2="231.16" y2="67.57" xlink:href="#名称未設定グラデーション_59"/><linearGradient id="名称未設定グラデーション_59-80" x1="233.38" y1="64.79" x2="234.13" y2="64.79" xlink:href="#名称未設定グラデーション_59"/><linearGradient id="名称未設定グラデーション_59-81" x1="240.94" y1="54.02" x2="241.63" y2="54.02" xlink:href="#名称未設定グラデーション_59"/><linearGradient id="名称未設定グラデーション_59-82" x1="238.27" y1="56.83" x2="239.09" y2="56.83" xlink:href="#名称未設定グラデーション_59"/><linearGradient id="名称未設定グラデーション_59-83" x1="236.26" y1="63.06" x2="236.94" y2="63.06" xlink:href="#名称未設定グラデーション_59"/><linearGradient id="名称未設定グラデーション_59-84" x1="208.42" y1="98.27" x2="208.42" y2="98.27" xlink:href="#名称未設定グラデーション_59"/><linearGradient id="名称未設定グラデーション_59-85" x1="235.39" y1="64.08" x2="236.12" y2="64.08" xlink:href="#名称未設定グラデーション_59"/><linearGradient id="名称未設定グラデーション_59-86" x1="231.95" y1="71.46" x2="232.46" y2="71.46" xlink:href="#名称未設定グラデーション_59"/><linearGradient id="名称未設定グラデーション_59-87" x1="225.81" y1="77.9" x2="226.83" y2="77.9" xlink:href="#名称未設定グラデーション_59"/><linearGradient id="名称未設定グラデーション_59-88" x1="227.78" y1="72.3" x2="228.94" y2="72.3" xlink:href="#名称未設定グラデーション_59"/><linearGradient id="名称未設定グラデーション_59-89" x1="223.91" y1="80.29" x2="224.36" y2="80.29" xlink:href="#名称未設定グラデーション_59"/><linearGradient id="名称未設定グラデーション_59-90" x1="228.72" y1="68.2" x2="229.31" y2="68.2" xlink:href="#名称未設定グラデーション_59"/><linearGradient id="名称未設定グラデーション_59-91" x1="229.64" y1="69.23" x2="232.14" y2="69.23" xlink:href="#名称未設定グラデーション_59"/><linearGradient id="名称未設定グラデーション_59-92" x1="229.16" y1="70.67" x2="230" y2="70.67" xlink:href="#名称未設定グラデーション_59"/><linearGradient id="名称未設定グラデーション_59-93" x1="217.08" y1="73.44" x2="217.54" y2="73.44" xlink:href="#名称未設定グラデーション_59"/><linearGradient id="名称未設定グラデーション_59-94" x1="52.71" y1="123.23" x2="245.37" y2="123.23" xlink:href="#名称未設定グラデーション_59"/><linearGradient id="名称未設定グラデーション_116" x1="52.78" y1="115.81" x2="215.36" y2="115.81" gradientUnits="userSpaceOnUse"><stop offset="0" stop-color="#bec7cb"/><stop offset="1" stop-color="#e3e8ea"/></linearGradient></defs><g id="レイヤー_2" data-name="レイヤー 2"><g id="レイヤー_1-2" data-name="レイヤー 1"><rect class="cls-1" width="260" height="210.48"/><path class="cls-2" d="M154.6,129.26l-1.42-19.7-6.25-87H129.88L112,34.45l-6.65,94.81h0L130,154.63Zm-32.72-5,2-87,6-4.18h5.93l2.24,91.21L130,132Z"/><polygon class="cls-2" points="94.45 22.55 90.09 52.26 87.42 22.55 76.06 22.55 62.16 84.78 74.28 97.26 79.46 67.84 82.28 105.5 96.15 119.78 105.2 28.7 114.83 22.55 94.45 22.55"/><polygon class="cls-2" points="199.02 12.38 60.72 12.38 37.08 91.21 130.01 198.07 130.01 198.07 52.71 87.21 70.05 18.56 189.71 18.56 201.05 63.17 175.08 88.34 166.22 28.7 174.33 22.55 153.95 22.55 163.78 119.78 215.36 66.57 215.36 66.57 199.02 12.38"/><path class="cls-3" d="M229.91,83.09a3.3,3.3,0,0,0-.89,1.28C229.31,84,230,83.3,229.91,83.09Z"/><path class="cls-4" d="M231.64,81.5c-.15.1-.3.2-.25.06a1.72,1.72,0,0,0-.35.58c.26-.21.47-.48.71-.7C231.8,81.3,231.68,81.43,231.64,81.5Z"/><path class="cls-5" d="M191.64,121.87l.13-.14-.1.07A.21.21,0,0,0,191.64,121.87Z"/><path class="cls-6" d="M191.64,121.87c-.15.17-.32.32-.47.5S191.54,122.16,191.64,121.87Z"/><path class="cls-7" d="M249.74,43.57c.25-.3.6-.43.77-.83A1.78,1.78,0,0,0,249.74,43.57Z"/><path class="cls-8" d="M249.31,44.67c.28-.25.63-.38.77-.83C249.86,44.16,249.48,44.27,249.31,44.67Z"/><path class="cls-9" d="M222,68.38c.05-.57,1.16-1.28,1.56-2-1.16,1.18-2.07,2.39-3,3.38-.11.35.28-.26.42-.25A2.78,2.78,0,0,1,222,68.38Z"/><path class="cls-10" d="M130.24,170.27h0l0-.12Z"/><path class="cls-11" d="M254.52,38.86a21.81,21.81,0,0,1-2.24,2.36c-.22.51-.36.59-.6.63,0,.13.17,0,.09.14-.26.43-.19,0-.52.31,0,.24-.15.42-.39,1.16a4.8,4.8,0,0,0,.8-1.21c.37-.11.53-.52.76-.83.75-.33,1.45-1.45,1.84-1.65.26-.57-.6.24-.74.43.22-.54.73-.66.94-1.21.18-.07-.15.45.24.14.1-.23.26-.35.35-.59C254.37,39.3,254.91,37.64,254.52,38.86Z"/><path class="cls-12" d="M208.67,82.92l1.75-2A9.06,9.06,0,0,0,208.67,82.92Z"/><path class="cls-13" d="M242,51.46l-.42.25a.41.41,0,0,1-.18.39C241.3,52.34,241.91,51.78,242,51.46Z"/><path class="cls-14" d="M236.67,53.28l.24-.51c-.31.37-.41.26-.63.37C236.22,53.41,236.37,53.43,236.67,53.28Z"/><path class="cls-15" d="M243.1,50.32c0-.24-.6.4-.66.76C242.77,51,242.8,50.45,243.1,50.32Z"/><path class="cls-16" d="M246.43,46.09a8.63,8.63,0,0,0-1.32,1.54c.35-.29.19,0,.47-.19C245.53,47,246.13,46.64,246.43,46.09Z"/><path class="cls-17" d="M238.11,51.49l-.42.25c-.08.31-.3.42-.4.71A1.83,1.83,0,0,0,238.11,51.49Z"/><path class="cls-18" d="M233.73,56.34a3.25,3.25,0,0,0,.78-1C234.17,55.55,234,56,233.73,56.34Z"/><path class="cls-19" d="M207.78,98.83c-.1.5.35-.37.64-.56A3.14,3.14,0,0,0,207.78,98.83Z"/><path class="cls-20" d="M225.54,64.29a4.68,4.68,0,0,0,.61-.83C225.84,63.64,225.44,64.15,225.54,64.29Z"/><path class="cls-21" d="M232.06,58.45c-.13-.17.07-.27.36-.77.05,0,.11,0,.26-.06a1.79,1.79,0,0,1,.66-.77c.16-.32.3-.63.25-.71-.13.13-.33.46-.27.25-.22.12-.26.49-.4.71a2.55,2.55,0,0,0-.91.63c.2.26-.38.89-.76,1.48A2.92,2.92,0,0,1,232.06,58.45Z"/><path class="cls-22" d="M207.22,97.39l-.42.24a.23.23,0,0,1-.12.26C206.6,98.17,207.18,97.64,207.22,97.39Z"/><path class="cls-23" d="M215.3,77.67c.08-.36.33-.59.26-.71-.41.2-.15.32-.24.52s-.1-.07-.42.25a4.47,4.47,0,0,1-1.28,1.6c0,.16,0,.23,0,.39A9.85,9.85,0,0,1,215.3,77.67Z"/><path class="cls-24" d="M217.47,76.29c.28-.46,0-.3.09-.52a7.67,7.67,0,0,0-.75.64c-.15.36.31-.06.53-.32s-.23.49-.35.58C216.94,77.05,217.29,76.28,217.47,76.29Z"/><path class="cls-25" d="M216.39,77.31c-.12-.23-.7.7-1,.89C215.3,78.68,216.12,77.66,216.39,77.31Z"/><path class="cls-26" d="M213.12,80.75c.07.11.59-.24.75-.63C213.8,80,213.25,80.32,213.12,80.75Z"/><path class="cls-27" d="M220.87,71.09c0,.28.52-.52.7-.7C221.53,70.07,221.06,70.92,220.87,71.09Z"/><path class="cls-28" d="M219.74,73.54c-.11.36.2,0,.47-.18s.08-.3.13-.45a1.72,1.72,0,0,0-.35.58C219.94,73.47,219.89,73.45,219.74,73.54Z"/><path class="cls-29" d="M228.68,65c0-.36.51-.67.25-.71-.4.36-.24.45-.63,1A1.9,1.9,0,0,1,228.68,65Z"/><path class="cls-30" d="M222.13,71.19c.09-.26,0-.35-.19-.27-.11.43-.58.68-.46.84C221.76,71.66,221.81,71.24,222.13,71.19Z"/><path class="cls-31" d="M212.13,81.9c-.08.27.34-.48.58-.44.2-.32-.11-.07,0-.26A3.21,3.21,0,0,0,212.13,81.9Z"/><path class="cls-32" d="M207.38,86.87c.59-.48,0,.39.56-.05-.15-.24.46-.61.63-1C208,86.36,207.7,86.23,207.38,86.87Z"/><path class="cls-33" d="M199.31,96.06c.14,0-.1.36.3,0,.21-.26.27-.4.24-.51.2-.13.15,0,.36-.12a7.14,7.14,0,0,1,1.43-1.6c-.28-.18-.92,1-1.45,1.14a1.47,1.47,0,0,1-.87.89,9.6,9.6,0,0,0-.74,1.29c.22-.22.31-.3.54-.51s-.12-.07,0-.26A3.88,3.88,0,0,0,199.31,96.06Z"/><path class="cls-34" d="M202.85,92.37c.26-.13.32-.55.6-.64-.17,0,.23-.63-.27-.4a3,3,0,0,1-.62.84c-.11.28.35-.32.48-.38S202.65,92.35,202.85,92.37Z"/><path class="cls-35" d="M242.24,62.18c0-.21-.13-.18-.35-.07-.17.33,0,.3-.09.52C242,62.5,242.07,62.3,242.24,62.18Z"/><path class="cls-36" d="M243,60.9c-.32.24-.71.41-.87.89A4.09,4.09,0,0,0,243,60.9Z"/><path class="cls-37" d="M209.77,84.52c.76-.92,1.41-1,1.71-2-.13.14-.26.27-.21.13C210.85,83.35,210.18,83.75,209.77,84.52Z"/><path class="cls-38" d="M201.47,93.38c-.46.34-.67,1-1.2,1.27-.18.43.29-.18.19.07A15.14,15.14,0,0,0,201.47,93.38Z"/><path class="cls-39" d="M191,122.83c-.07.22.19,0-.09.52C191.37,122.93,191.66,122.15,191,122.83Z"/><path class="cls-40" d="M209.32,85.16a1,1,0,0,1,.29-.45c.11-.35-.29.26-.43.25.31,0-.27.35-.46.84C209,85.75,209,85.21,209.32,85.16Z"/><path class="cls-41" d="M205.76,89.05c-.43.23-.67.74-1,1.08-.22.12-.08-.19.08-.52-.64.58-.37.87-1.18,1.74.27-.06.24-.14.64-.38.27-.55-.16.11-.37.12A18.09,18.09,0,0,0,205.76,89.05Z"/><path class="cls-42" d="M218.54,94.61c.33-.49-.29.11,0-.39-.38.34-.72.28-1.08,1C217.77,95.38,218.43,94.22,218.54,94.61Z"/><path class="cls-43" d="M222.06,90.65c0-.4.58-.75.85-1.35-.44.31-.7.86-1.19,1.08-.09.25.16.09.24.14-.18.33-.62.62-.51.77C221.68,91.12,221.77,90.74,222.06,90.65Z"/><path class="cls-44" d="M222.13,91c.39-.3.54-.94,1-1.15.08-.24-1.25,1-1.53,1.66C221.73,91.38,222.17,90.65,222.13,91Z"/><path class="cls-45" d="M213.72,99.25a3.53,3.53,0,0,0-.83,1A3.37,3.37,0,0,0,213.72,99.25Z"/><path class="cls-46" d="M217.06,96.34A5.8,5.8,0,0,1,218.21,95C218.07,94.86,217,96.08,217.06,96.34Z"/><path class="cls-47" d="M210.33,103l.23-.51c-.23.16-.36.47-.6.63C209.92,103.23,210.18,103,210.33,103Z"/><path class="cls-48" d="M205.49,108.44c-.47.45-1.15,1.07-1.16,1.54C204.69,109.43,205.25,109.16,205.49,108.44Z"/><path class="cls-49" d="M204.1,109.65c0-.13-.17,0-.1-.14a7.52,7.52,0,0,0-.78,1A10.57,10.57,0,0,1,204.1,109.65Z"/><path class="cls-50" d="M202.75,111.57c.16-.13.27-.32.43-.44.26-.45-.17-.08.09-.52A5.93,5.93,0,0,0,202.75,111.57Z"/><path class="cls-51" d="M197.49,116.66c-.5.41,0,.43-.3.64C197.32,117.55,197.68,116.57,197.49,116.66Z"/><path class="cls-52" d="M205.88,107.28c-.21,0-1,1-1.41,1.4-.17.41.61-.61.46-.19A4.2,4.2,0,0,1,205.88,107.28Z"/><path class="cls-53" d="M202,111.36a1.27,1.27,0,0,0,.21-.78C201.53,111.48,201.28,111.57,202,111.36Z"/><path class="cls-54" d="M204.56,108.81c-.39.38-.19.57,0,.46C205,108.79,204.56,109,204.56,108.81Z"/><path class="cls-55" d="M207.66,106.41c-.18-.4.56-.56,1.09-1.21,0-.12,0-.25.29-.45-.09-.12-.77.74-1.08,1-.05-.3-.82.35-1.11.56C207,106.49,207.37,106.4,207.66,106.41Z"/><path class="cls-56" d="M206.05,107.74c-.05.16.21,0,.36-.12a1.93,1.93,0,0,1,.66-.77c.27-.47-.12-.07-.21.13s-.23.06-.2-.07c-.16.12-.27.32-.43.44C206.42,107.23,206.69,107.32,206.05,107.74Z"/><path class="cls-57" d="M208.69,104.67c-.05.19.64-.33.71-.7C209.09,104.11,209,104.49,208.69,104.67Z"/><path class="cls-58" d="M192.19,122.33a.76.76,0,0,1,.22-.32c.25-.21,0-.13-.1.07-.1,0-.07-.16,0-.39C192,122,191.85,122.6,192.19,122.33Z"/><path class="cls-59" d="M236.61,60.07c0,.23.56-.45.84-.5C237.6,59.14,236.89,59.86,236.61,60.07Z"/><path class="cls-60" d="M198.66,108.46c.19-.15,0-.17.22-.32.08-.34-.35.31-.48.38-.12.23,0,.23-.18.39s0,.09.05.06l.21-.12C198.36,108.9,198.71,108.14,198.66,108.46Z"/><path class="cls-61" d="M193.09,115c-.15.1-.3.2-.25.06a1.83,1.83,0,0,0-.35.58l.53-.31c.08-.32.3-.43.4-.71A.78.78,0,0,0,193.09,115Z"/><path class="cls-62" d="M248,46c.08.13.22-.19.52-.31a.23.23,0,0,1,.12-.26C248.71,45.19,248.08,45.73,248,46Z"/><path class="cls-63" d="M205.74,100.41c-.2.4.17.24.41,0,.32-.49-.3.11,0-.39C206,100.13,205.85,100.22,205.74,100.41Z"/><path class="cls-64" d="M243.23,61c0-.26-.52.38-.6.64C242.94,61.63,243,61.21,243.23,61Z"/><path class="cls-65" d="M247.07,46.37a2.17,2.17,0,0,0,.48-.38c.12-.24,0-.19.13-.45C247.36,45.77,247.43,45.88,247.07,46.37Z"/><path class="cls-66" d="M187.83,120.13a3.12,3.12,0,0,0,.83-1A2.38,2.38,0,0,0,187.83,120.13Z"/><path class="cls-67" d="M191.09,116.23a3,3,0,0,0-.62.83A1.39,1.39,0,0,0,191.09,116.23Z"/><path class="cls-68" d="M246.44,60.73a5,5,0,0,0-.92,1.47A8.53,8.53,0,0,0,246.44,60.73Z"/><path class="cls-69" d="M184.41,123.57a20.43,20.43,0,0,0-1.69,2.5,22.86,22.86,0,0,0,1.72-2.24c.12,0,0,.18-.07.32C185,123.62,184.84,123.33,184.41,123.57Z"/><path class="cls-70" d="M232.79,73.69c.24-.47.38-.58.41-.9C232.79,73.2,232.32,73.93,232.79,73.69Z"/><path class="cls-71" d="M247.13,60.22c-.09-.11.24-.38.36-.77a2.47,2.47,0,0,0-.68,1C246.77,60.57,247,60.28,247.13,60.22Z"/><path class="cls-72" d="M180.24,128.94c.18-.25.43-.39.56-.7l-.42.25C180.26,128.73,180.38,128.69,180.24,128.94Z"/><path class="cls-73" d="M238.1,67.82c-.37.3-.42.52-.69.51-.06.12.08,0,.15,0-.1.29-.32.39-.4.71A3.17,3.17,0,0,0,238.1,67.82Z"/><path class="cls-74" d="M179.21,130c.39-.16.58-.6.87-.89,0-.13-.17,0-.09-.14-.14.1-.12.17-.06.13C179.76,129.53,179.31,129.54,179.21,130Z"/><path class="cls-75" d="M240.21,65.92c.3-.42.79-.58,1-1.09A2.59,2.59,0,0,0,240.21,65.92Z"/><path class="cls-76" d="M194.17,113.37c-.07.12,0,.1.05.07a1,1,0,0,1-.38.31c-.17.27.06.36-.3.65-.2.45.48-.48.26-.06C194.05,114,194.73,113,194.17,113.37Z"/><path class="cls-77" d="M235.56,68c.12-.47.43-.67.63-1C235.82,67.17,235,68.37,235.56,68Z"/><path class="cls-78" d="M233.31,66.91c.37-.27.21,0,.52-.31-.11-.19.39-.7.58-1.1.28-.09.45-.36.7-.5.32-.5-.3.1,0-.39a.34.34,0,0,0-.16.19c-.78.6-1.32,1.53-2.07,2.17-.29.53,0,.37-.1.71C233.24,67.35,233,67.23,233.31,66.91Z"/><path class="cls-79" d="M216.49,88.42a4.43,4.43,0,0,0-1,1.34C215.78,89.31,216.53,88.68,216.49,88.42Z"/><path class="cls-80" d="M232.78,64.22c.37-.33.69-.72,1.08-1,.24-.39-.54.39-.3,0A4.74,4.74,0,0,0,232.78,64.22Z"/><path class="cls-81" d="M230.77,67.76c.07,0,0,.23.19.07.18-.32.22-.49.2-.58-.21.13-.27.47-.5.57C230.61,68,230.73,67.83,230.77,67.76Z"/><path class="cls-82" d="M234.13,64.45a2.52,2.52,0,0,0-.75.63C233.35,65.3,234.07,64.81,234.13,64.45Z"/><path class="cls-83" d="M241.61,53.54a3,3,0,0,0-.67,1C241.22,54.23,241.72,53.72,241.61,53.54Z"/><path class="cls-84" d="M239.09,56.35c-.28.3-.68.45-.82,1A3.5,3.5,0,0,0,239.09,56.35Z"/><path class="cls-85" d="M236.7,63.21l.24-.51c-.25.07-.36.34-.59.44C236.12,63.57,236.38,63.42,236.7,63.21Z"/><polygon class="cls-86" points="208.42 98.27 208.42 98.27 208.42 98.26 208.42 98.27"/><path class="cls-87" d="M236.05,63.78c.31-.43-.54.59-.63.38-.09.24.05.22.08.33C235.93,64.17,235.62,64.11,236.05,63.78Z"/><path class="cls-88" d="M232.46,71.07c-.29.08-.35.5-.51.77a1.9,1.9,0,0,1,.38-.32C232.3,71.46,232.35,71.3,232.46,71.07Z"/><path class="cls-89" d="M226,78a3.47,3.47,0,0,1-.15.65,12,12,0,0,0,1-1.54C226.47,77.71,226.42,77.48,226,78Z"/><path class="cls-90" d="M228.94,71.56c-.19-.1-.95.78-1.16,1.35.2-.16.15,0,.09.13C228.37,72.75,228.48,71.91,228.94,71.56Z"/><path class="cls-91" d="M223.93,80.25c-.08.25.06.22.08.33a1.72,1.72,0,0,0,.35-.58C224.05,80.34,224.23,80.07,223.93,80.25Z"/><path class="cls-92" d="M229.22,68.11c.15-.29.11-.36-.14-.2.06.09-.11.35-.34.58S229.09,68.17,229.22,68.11Z"/><path class="cls-93" d="M232.14,67.6a31.63,31.63,0,0,0-2.5,3.26c.17-.08.38-.38.32-.18.41-.36.18-.3.51-.77.05.24,1.26-1.41,1-.89C231.79,68.9,232.1,68,232.14,67.6Z"/><path class="cls-94" d="M230,70.09a5.49,5.49,0,0,0-.84,1.15C229.57,71.05,229.72,70.48,230,70.09Z"/><path class="cls-95" d="M217.54,73.16c-.15.19-.31.37-.46.55C217.19,73.59,217.52,73.36,217.54,73.16Z"/><path class="cls-96" d="M244.28,63.41c-.36.12-.06-.35-.73.24a1.27,1.27,0,0,1,.77-.83c.21-.54-.42.27-.52.12a.81.81,0,0,1-.49.58c-.13.37-.38.51-.3.64.33-.24.49-.59.53-.31-.15.28-.48.31-.6.64-.24,0,.1-.44-.41.05.33,0-.37.42-.66.77-.08,0-.13-.27.13-.45a8.89,8.89,0,0,0-1.25,1.2c-.51.08-.89.86-1.32.88-.38.55-.23.63-.69,1.16-.12.05.06-.27.13-.45-.5.2-.77.74-1.19,1.08-.06.23,0,.17.26-.06-.11.43-.58.68-.46.83,0,0-.26-.08-.42.25-.26.07,0-.12.13-.45-.52.39-.85,1.06-1.46,1.33.1.52-.72.56-.9,1.29-.06-.31-.4.32-.57.24a2.78,2.78,0,0,1,1-1c.07-.59,1-1.27,1.63-1.72,0-.14-.08-.27.21-.78-.57,1.24-2.7,2.29-3,3.77a19.17,19.17,0,0,1-1.64,1.72c-.07.24,0,.18.26,0l-.36.77a2.17,2.17,0,0,1-.54.51c.17-.4.5-.57.62-1-.3.2-.54.5-.85.7l-.24.51a3.12,3.12,0,0,1-.44.45c-.22.12-.07-.19.09-.52-.66.65-.1.7-.85,1.35,0,.13,0,.18.2.07a2.36,2.36,0,0,1-.45.64c.12-.67-1.22.74-1.75,1.13.43-.64,1.78-1.86,1.56-2,.49-.58,1.06-1,1.53-1.66-.09-.24-.64.64-.92.83.33-.55.38-.48.52-1,.41.05.51-.53.89-.43.33-.6.06-.5-.17-.46.28-.43.43-.24.64-.38a7.36,7.36,0,0,0,.46-.84c.35-.28.19,0,.47-.18.25-.59.2-.26.6-.64.31-.55.75-.91,1.06-1.47.39-.32.06.2.24.13-.36.53-1.21,1.24-.95,1.42a8,8,0,0,0,.56-.9c.06,0,.11,0,.26-.06.26-.56.33-.66.72-.9.39-.66-.22-.17.16-.84A3.71,3.71,0,0,0,236,69c.35-.26.14.14.18.26.33-.09.45-.5.75-.63.14-.24,0-.2-.09-.13.44-.66,1.15-.92,1.44-1.8a25.11,25.11,0,0,1,2.45-2.48c.16-.49.52-.68.78-1,0-.28-.16-.17,0-.59a3.89,3.89,0,0,1-.85.5c-.06.37.06.15-.14.65a6.54,6.54,0,0,0-1,1.34c-.29.13.19-.65.16-.84-.26.15-.79,1-.86.7-.58.58-1,1.46-1.69,1.85.26-.49.63-.81.9-1.29a2.45,2.45,0,0,1-.76.64c0,.24-.06.33-.33.38-.46,1-1.35,1.35-1.92,2.17-.37.32-.05-.18,0-.39-.3.13-.44.51-.71.7a1.21,1.21,0,0,0,.83-.31c.06,0,.06.14,0,.27-.19.23-.4.42-.6.63-.14,0,.09-.35-.31,0-.17.29-.08.3-.13.45s-.25.21-.33.38c-.3.1.12-.28,0-.39.18-.37.57-.46.72-.89-2.66,2.82-5.21,5.8-7.93,8.54,0,.47-.9,1.29-1.2,1.27-.07.34.29.18.22.53-.43.62-.58.31-1,1-.12,0,0-.19.07-.33-.44.44-.74,1.08-1.21,1.47.24-.92-1.13,1-2,1.45-.28.46.13.09.31,0a9.15,9.15,0,0,1-1.08,1c-.07.17.29-.14.19.07a2,2,0,0,1-.54.51c0,.09,0,.26-.19.58-.29.53-.38.12-.66.77-.17.08-.14-.08,0-.39a13.13,13.13,0,0,0-2.14,2.29c-.1,0-.14,0,0-.26-.63,1.09-1.53,1.79-2.22,2.81-.06,0-.13,0-.09-.13a4.89,4.89,0,0,0-.74,1.29c-.31.24-.36.17-.14-.2-.94,1.23-2.19,2-2.93,3.52-.37.28,0-.24-.41,0,.12-.26.37-.34.45-.64a23.15,23.15,0,0,1-2.65,3.26c0,.29.72-.65.35.08a7.56,7.56,0,0,0-.65.57,5.49,5.49,0,0,1-.84,1.15.83.83,0,0,1-.06-.53,20.88,20.88,0,0,1-2.28,3c-.1,0,0-.22-.09-.13s-.3.29-.48.37a3.4,3.4,0,0,1-.36.78c-.07,0-.21,0-.47.18a14.56,14.56,0,0,1-1.21,1.47c-.26.14.17-.41.28-.45a2.9,2.9,0,0,0-1.08,1.68c-.49.4-.17-.12,0-.46a19.8,19.8,0,0,1-1.61,2.18c-.23.17.11-.5.28-.46-.2,0-.55.3-1,.76.12-.16.46-.62.07-.32.14-.23.38-.31.45-.64-.36.19-.55.64-.87.89.17,0,.06.39-.3.64,0,.17.16-.13.32-.18a6.19,6.19,0,0,0-.81,1.41c-.46.37.06-.38-.35-.07-.16.39-.58.88-.47,1a26.24,26.24,0,0,0-2,2.23c.05.09.19.06-.09.52-.4.13,0-.52-.72.25.12-.39.41-.56.61-.84-.15-.13-.74.92-1.09,1.22,0,.09.18,0,0,.26-.32.24-.46.5-.8.56-.26.45,0,.28-.25.72s-.69.27-.93,1c-.28.2-.12-.1-.47.18a2.17,2.17,0,0,1,.55-.7c-1.46,1.1-3.19,3.69-4.77,5.36-.08-.07,0-.33.15-.65-.33.31-.56.77-.93,1-.17.33,0,.31.08.33-.73.85-2.3,2.1-2.72,3.39-.35.13.2-.45.09-.52-.54.61-.65.76-1.1,1.21,0,.15.1.09,0,.26-.5.7-1.68,1.38-1.76,2-.25.15-.21,0-.57.25s-.36.77-.72.89c-.14.79-1.47,1.57-1.95,2.57,0-.15-.4.22-.3,0a3.4,3.4,0,0,1-1.27,1.4,2.43,2.43,0,0,1-.4.71c-.05,0-.11,0-.25.06s-.45.71-.34.38a5,5,0,0,1-1.15,1.34c.21,0,0,.29-.3.65-.11.05,0-.19.07-.33-.44.43-.81,1-1.26,1.41.21-.54.46-.47.47-.84a4.08,4.08,0,0,0-.77.83c-.12,0,.06-.27.13-.45.31-.35.76-.49.93-1-.33.47-.36,0-.69.51-.21,0,.1-.41.36-.78.2-.09.05.22.08.33a1.26,1.26,0,0,0,.46-.83,3.73,3.73,0,0,1,.87-.9c-.63.68-.3.74-.79,1.22-.07.3.56-.55.14.2-.24.48-.08-.28-.32.19-.33.64,0,.14.3,0a1.53,1.53,0,0,1-.33.38c.45-.29,1.38-1.73,2.09-2.36-.31,0,.29-.4.19-.58a9.52,9.52,0,0,0-1.06,1.47c-.51-.2.94-1.64,1.27-2.25.72-.54.26.29.76,0-.13-.25.58-.58.73-1.09-.24.33-1,1.1-.91.63.62-.32.35-.62,1.1-1.22.41-.29,0,.31.45,0l.3-.65c-.15.1-.31.2-.26.06.66-1.06,1.47-1.89,2.18-2.88-.36.13-.52.54-.82.76.39-.65,1.15-1.7,1.53-1.66a2.38,2.38,0,0,0-.56.9c0,.24.42-.42.36-.12.49-.63.75-1.41,1.32-1.53.1-.36.35-.5.56-.71-.05-.05.1-.31,0-.26.69-.59,1.57-2,2.08-2.17l1-1.34s0,.14,0,.26c.36-.29.13-.37.3-.64.41-.28.29.06.23.33.42-.38.83-1,1.13-1,0-.26-.4,0-.12-.59-.58.5,0,.51-.73,1.09-.2,0-.12-.23.15-.65.59-.8,1.45-1.21,2-2,.37-.09-.19.43-.35.78a3.3,3.3,0,0,0,.78-1,.29.29,0,0,0-.26.06c.19-.29.35-.27.28-.45.56-.4.79-1.3,1.47-1.53,0-.21.63-1,.83-1a4.27,4.27,0,0,1,1.45-2c.13-.23,0-.16.07-.33.51-.39.92-1,1.07-.82l.42-.9c.64-.54,0,.41.39.14a3.83,3.83,0,0,1,1-1.28c0-.17.24-.68.27-.91.32-.13-.21.73.28.4-.23-.32.84-1.53,1.45-2,.38-.56.18-.7.68-1.16.07.14-.15.64.31,0,.15,0,0,.36-.21.77.08,0,.13-.11.17-.19l.21-.12c.2-.39-.06-.26.15-.65.35-.59.48-.26,1-.69.22-.49.65-.65.89-1.09a2.42,2.42,0,0,0-1,1.08c0-.07-.3.08-.57.25.38-.38.23-.48.76-.83.33-.5-.29.1,0-.39a13.3,13.3,0,0,0,1.85-1.85c0-.2-.56.46-.71.7-.29-.12.54-1,1-1.41.36-.13-.57.68-.24.52.54-.32.25-.5.72-.9-.26.88,1.23-1.51,2-1.84.1-.36.66-1.15,1-1.8.16.34,1.31-1.47,1.44-1.79.15-.1.31-.2.25-.06.06-.26.49-.54.74-1.09.43-.07.57-.67,1.11-1.41.17-.07,0,.25.4-.06.91-1.36,1.57-1.85,2.55-3.19.18-.06,0,.26.37-.13-.18-.28.49-.77.86-.89-.31,0,.13-.77.65-1.22.26,0-.52.6-.3.64s.3-.29.48-.38-.2-.06.13-.45c.14-.06-.14.36,0,.26.58-.52.68-.82.56-.9.37-.53.15.21.53-.31-.17-.1.15-.57.48-1,.28,0,.26-.3.69-.51-.1-.14.33-.61.62-.83.08,0-.15.24,0,.26,0-.35,1.43-1.62,1-1.74.37-.25.46-.9.84-1.15s-.2.42-.31.84c.34-.3.59-.72.93-1-.16-.57,1.1-1.68,1.36-2.12.06.16-.31.67-.42.91s-.15,0-.09-.14c-.42.35-.19.4-.57.9.58-.6.68-.8,1.34-1.07.28-.47-.15-.11-.08-.33.66-.33,2.4-2.82,3.18-3.58.1-.14.59-.92.25-.71.33-.64.92-.81.74-1.09.31-.2.09.21.18.27-.11.19-.31.26-.48.38-.17.43.34,0-.15.65a8.14,8.14,0,0,0,.86-1.35.28.28,0,0,0,.25-.06c.2-.43-.23.12-.24-.14.2-.35.54-.52.67-1-1.38,1.31-2.65,2.76-3.93,4.21-.42.36.11-.37-.3,0s-.17.33-.3.64c-.43.26,0-.5.22-1a16.42,16.42,0,0,0,2.46-2.68c.24-.29.58-.45.81-.76-.34.12-.25.06.29-.45.23-.4-.1-.14,0-.39.8-.47.81-.83,1.37-1.47.28-.2.12.1.47-.18-.14-.11,0-.5.46-.84s-.33.62.14.2a.66.66,0,0,1,.33-.38c0-.07,0-.23.13-.46a17.21,17.21,0,0,1,1.83-1.65c-.05-.44.6-.56.84-1.15.26-.08-.28.41-.29.64a6,6,0,0,1,.93-1c.14-.22.18-.59.4-.7-.23-.05-.11-.15.2-.78-.6.77-1,.87-1.42,1.59-.41.21.12-.35-.25-.13-.26.48-.21.61,0,.58a6.85,6.85,0,0,0-.51.77c-.18-.19-.63.53-.87.89-.32.11.26-.53.2-.77a1.14,1.14,0,0,0-.4.7,3,3,0,0,0-1,.76c.07.08-.15.5-.31.84-.18,0-.13-.24-.56.05-.15.36-.44.5-.66.77,0-.18-.22,0-.24-.14a33.75,33.75,0,0,1-2.69,3c-.35.79-1.05,1.07-1.44,1.79-1.11.67-2,2.67-2.88,2.93-.08.32-.3.43-.4.71a4.48,4.48,0,0,0-.8.57c.28-.47.65-.66.63-1,0,.34.26-.15.58-.44.11-.38-.18,0-.42.25a5.82,5.82,0,0,1,1.11-1.41c.19-.11-.3.54-.45.64.26,0,1-1.15,1.43-1.59-.28.09-.37.47-.65.57a25,25,0,0,0,1.62-2.18c.3-.21-.44.78.07.33l.24-.52a11.12,11.12,0,0,0,2-2.5c-.35.74.4-.23.86-.69,0-.14.14-.46-.2-.07.39-.91.75-.64,1.11-1.41.3-.17.25.06.29.2a1.49,1.49,0,0,0,.41-.9c.29-.48,1.15-.94,1.05-1.28.15-.17.77-.72.7-.5a8.43,8.43,0,0,1,1.93-2.37,3.65,3.65,0,0,0-.58,1.1l1-.76c.22-.32-.42.06,0-.26,0-.35-.37.43-.5.57-.22-.13.64-1.4,1.23-1.66.56-.63.81-1.7,1.51-2.12l.24-.52c.33-.25.08.15.14.2.37-.33.52-1,.94-1.21.26-.08-.25.45-.29.64a10.61,10.61,0,0,1,2.41-2.74,3.54,3.54,0,0,0,.74-1.1c-.24.17-.32.17-.2-.06.44-.23,1.18-1.48,1.91-2a1.74,1.74,0,0,1-.51.77,11.2,11.2,0,0,0,1.57-1.59c.27-.61-.28.33-.52.31.2-.43.54-.64.73-1.09-.1,0-.14,0,0-.26-.29.16-.31.34-.42.25a2.86,2.86,0,0,0,.28-.45c.6-.24.67-.45,1.28-1-.16.48-.62.54-.78,1,.28-.1.41-.41.69-.51-.26.07.42-.92.75-1.28.11-.06,0,.18-.07.32.33-.1.44-.5.75-.63.09-.23-.32.13-.3,0,.49-.79,1.19-1.29,1.71-2.05-.13-.17-.4.52-.71.7-.07,0-.05-.06-.15,0a5.66,5.66,0,0,0,.9-1.28c-.16-.16-.52.36-.56.7-.44.36.22-.62-.3,0,.18-.39.73-1.09.2-.78-.24.28-.27.46,0,.27A1,1,0,0,1,244,49c-.26.44-.11.41-.25.72a10.26,10.26,0,0,0-1.44,1.79c-.84.36-1.24,1.36-1.91,2-.15-.3.86-1.17.76-1.48a27.73,27.73,0,0,0-2.38,3,1.23,1.23,0,0,0-.87.89c-.33.11-.33-.18,0-.65-.2.06-.26.33-.43.44.24-.08-.22.65.23.33A14.87,14.87,0,0,0,236,58.1l1.19-1.93c-.42,0-1.14,1.5-1.62,2.18-.16-.13-.69.58-1,.95,0,.13.17,0,.09.13a3.88,3.88,0,0,0-.23.33c-.06,0,0-.24-.19-.07-.69.79-1.29,1.73-1.95,2.56-.07,0-.05-.07-.15,0,.68-.92.84-1.31,1.46-2.18-.68.52-1.16,1.33-1.8,1.91-.11.35.28-.25.42-.25a2.33,2.33,0,0,1-.34.58c-.45.35-.3-.13-.68.31-.12.24,0,.2-.13.45.1-.06.15-.2.22-.31.25-.15.39.16.43-.26.61-.39.09.37-.26.72.35-.59-.55.43-.34-.08-.27.2-.32.69-.57.9s.19-.62.41-.9-.32.06-.18-.27c-.36.27-.56.77-.93,1-.09-.16.26-.48.31-.84-.43.16-.56.77-1,1-.06.3.42-.37.64-.37a7.57,7.57,0,0,1-.77.83c.46-.3.32,0,.34.27a2.62,2.62,0,0,0-.23.32c-.41.36.11-.37-.3,0-.21.63-2.25,2.72-2.29,2.29-.13.38-.46.64-.35.78-.51.4-.29,0-.62.18.43-.45.75-1.06,1.21-1.47a8.43,8.43,0,0,0-1.8,1.91c-.21.12,0-.27-.3,0a3.59,3.59,0,0,1-1.22,1.47c.08.22-.29.61.07.53-.35.14-.51.71-1,1.08.41,0-.6.88-.47,1-.67.6.2-.6-.29-.2a2.32,2.32,0,0,1-.68,1c-.08,0,0-.22-.08-.33.79-1.07,1.7-1.9,2.22-2.81-.28.09-.33.52-.65.57-.8,1.62-2.29,2.28-3.14,3.83-1.28.89-2.95,3.47-3.7,3.69l-1,1.09c0,.45-.69.93-1.06,1.47-.07,0,0-.23-.2-.07.1.21-.49.9-.55.71-.77,1.25-1.88,2-2.7,3.19.33-.21-.09.38-.19.58s.23-.55.08-.52a20.44,20.44,0,0,0-2.26,2.75c-.16-.27-1.09.79-1.14,1.15-.25.07-.36.34-.59.44-.15.84-2.21,2.3-2.94,3.71-1,.48-1.89,2.64-2.73,2.93a8,8,0,0,0,.72-.89c-.32,0-1,1.25-1.65,1.91-.29.28-1.37,1.17-1.26,1.41-.11.27-.4.28-.59.44-.49.8-1.14,1.36-1.62,2.18-.77.67-2.2,2.4-3.28,3.63q-17.15,19.1-33.85,38.8l-16.67,19.75-11.9,14.48L116,161.3c-.16-.35,2.85,2.83,3,2.92,1.89,2.6,4.36,4.73,6.27,7.31.27.07.37.21.72.55,0,.15-.16-.14-.33-.22.25.45.81.65,1,1.17.32.22.1-.2.4,0a9.42,9.42,0,0,0,1.45,2.06c.45.52.45.4.7.53.17.31.38.74.66.74a.3.3,0,0,1,0,.17,1.24,1.24,0,0,1,.48.43,1.8,1.8,0,0,0,.54-.84c.08.07,0,.17.12.11s-.05-.11-.08-.15c.24-.08.42-.38.58-.64a2.64,2.64,0,0,1,.29-.41,20.06,20.06,0,0,1,1.43-1.52c0-.41,1.1-1.32,1.55-1.86.75-.89,1.12-1.74,1.6-2a8.41,8.41,0,0,1,2-2.3c.32-.49-.29.1,0-.39,0-.17.59-.5.42-.25a17.55,17.55,0,0,1,1.23-1.67c.2-.15.15,0,.09.14a24.16,24.16,0,0,1,1.62-2.18c.24.17.06,0,.59-.44-.06-.09.08-.4.29-.65.05,0,.18,0,.37-.12.2-.7,1.25-1.32,1.84-2.5.18-.11.23-.07.2.07.9-1.2,3.2-3.79,3.32-4.22.47-.62,1.11-1,1.44-1.79a4.55,4.55,0,0,0,1.53-1.66L160.48,141c.13-.23,0-.16.07-.32.33-.21.39-.34.86-.7,1.55-2.21,4.22-4.65,6-7.29.2-.13.15,0,.36-.12a30.72,30.72,0,0,1,2.27-2.75c-.11,0-.5-.11.17-1,.31-.13.18.16.68-.31.19,0-.27.74-.51.77-.19.51.72-.42.54-.51,1.22-1,2-2.55,3.23-3.51a3.06,3.06,0,0,1,1.43-1.59c.14-.24,0-.2-.1-.14,1-1,1.88-2.15,2.9-3.12,0-.15-.09-.09,0-.26,1.42-1.46,3.09-3.85,4.32-4.72.06-.12-.08,0-.15,0,1.52-1.66,2.92-3.51,4.55-5,.94-1.37,2.78-3.27,4.12-4.79.26-.44-.17-.07.09-.52a1.74,1.74,0,0,1,.33-.38c-.06.73,1.14-1,1.67-1.46,0-.35-.4.4-.59.44s.3-.53.4-.7c.86-.23,1.77-1.77,2.71-2.55.26-.44-.18-.07.09-.52.09-.15.25-.21.33-.38s-.06.27-.13.45a1.89,1.89,0,0,0,.71-.89c1-.7.7-.87,1.58-1.59.09-.23-.32.13-.3,0s.17-.18.27-.26,0-.17-.26.06c.28-.66.75-1.07,1-1.73.3-.23.45-.39.47-.19.35-.41.52-1.11,1-1.41.24-.16-.17.43-.19.58.33-.22.44-.66.29-.64.18-.39.59-.44.77-.83.14,0-.1.35.3,0,.2-.69,1.42-2.22,1.61-2a4.79,4.79,0,0,0,1-1.35c.64-.26,1.08-1.34,1.46-1.33.15-.9,1.67-1.57,2.16-2.69.75-.71,1.36-1.62,2.13-2.3.3-.17-.41.5.09.14.89-1.6,2.28-2.44,3.26-3.9-.18.09-.3.29-.48.38s0-.22-.1-.14c.52-.54,1.12-1,1.63-1.52,0-.18-.19.09-.32.19s.39-.41.4-.71c.09.06.2,0,.42-.25.16-.87,1.41-1.4,1.89-2.43.36-.26.42-.17.19.26.3-.13.44-.51.7-.7.05-.15-.21,0-.36.12a3.14,3.14,0,0,1,.57-.9c.17-.07.14.08,0,.39a20.06,20.06,0,0,1,1.71-2c.14,0-.1.35.3,0,.09-.72,2-2.53,2.46-3.34.3,0,.93-.86.52-.11.37-.38.34-.5.29-.65.33-.42.66-.19,1-.89-.25.08-.34.39-.54.51.08-.16.08-.21,0-.19a15,15,0,0,0,2.43-2.94c.1.21.16.1.56,0,.18-.4-.23-.1-.46,0,.25-.78,1-.86,1.28-1.59.59-.47,0,.48.33.26.22-.47,0-.4,0-.65.23-.48.41-.25.54-.51.12,0-.06.27-.13.46.32-.29.7-.91.46-.84.73-.45.58-.64,1.17-.88A4.33,4.33,0,0,1,231,59.53c0-.17-.36.1,0-.45l-.53.31c-.3.35,0,.34-.49.57-.14.25,0,.2.09.14-.52.58-2.06,2.51-2,1.84-.22.11-.26.49-.4.71-.38.19-.23-.18,0-.59-.2.16-1,1.16-.57.9-.32.47-.78.73-1,1.35-.2.09.24-.55.09-.53-.38.21-1,1.44-1,.89-.27.17-.22.44-.08.33a4.59,4.59,0,0,1-1,1c0,.15.09.09,0,.26s-.4.43-.55.71c-.06,0-.06-.14,0-.26a15.93,15.93,0,0,1-2.1,2.55c-.25.13.25-.3.24-.51-.31.19-.46.62-.81.76-.4.8-.74.35-1.14,1.15.22-.22.32-.3.54-.51-.1.43-.47.47-.57.9-.25.19-.12-.07,0-.27-.15.15-.25.37-.44.45,0,.38-1.49,1.91-2.2,2.62-.06,0-.06,0,0,0-.94,1.15-1.9,2.27-2.92,3.3-.12,0,.06-.27.13-.45-.47.25-.57.78-.46.84-.46.61-.14-.2-.68.31s.44-.23.25.13a12.88,12.88,0,0,1-2.09,2.36c-.08.53-.47.78-.85,1.35-.35.29-.19,0-.47.19a11.08,11.08,0,0,1-1.5,1.92c-.21,0,.37-.59.51-.77a4.91,4.91,0,0,0-1.33,1.73c-.37.29,0-.24-.41,0,.15-.37.57-.7.46-.84a24,24,0,0,0-2.46,3.34c-.53.43.16-.54-.29-.21a20.67,20.67,0,0,1-2.73,2.94,2.45,2.45,0,0,1-1,1.14c-.12.26.21,0,0,.4-.79.52-2,2.61-2.34,2.42a40.39,40.39,0,0,0-3.19,3.77c-.66.42-1,1.23-1.73,1.58-.23.61-.7.86-.92,1.48-.34.29-.18,0-.46.19-1.93,2.23-3.8,4.55-5.87,6.57,0,.14-.14.46.2.07a59.5,59.5,0,0,0-4.84,5.49c-.32.53-.88.74-1.24,1.21,0,.12.17,0,.09.13a10.32,10.32,0,0,0-1.82,2.11l-.63.37a61.91,61.91,0,0,1-5.06,5.82c0,.09.05.06,0,.19-3,3.25-5.82,6.79-8.79,10.09-.3.72-2.43,2.87-3.69,4.35a11.11,11.11,0,0,1-1.76,2l-.24.52c-.51.16-1,1.34-1.74,1.78-1.21,1.84-3.41,3.91-4.92,6l-.42.26c-1.95,2.7-4.26,4.38-6.2,7.1-1.07.89-1.64,1.94-2.71,2.83-.42.83-1.26,1.21-1.69,2a55,55,0,0,0-4.58,5c-1.72,2-3.38,2.7-5,4.74l-1.17.48v0s0,0,0,0l0,.2,0-.15a.35.35,0,0,1,0,.16s0-.06-.09,0,0,.12,0,0l0-.11c0-.06,0,0,0,.1a8.53,8.53,0,0,0-.68-.67L52.71,87.21,130,198.07l0,0,1-1.18,1-1.11.42-.48.13-.16,1.51-1.73.8-.93.07-.07,1.1-1.27.77-.89.47-.54.65-.75.48-.55,5-5.77.29-.33,2.18-2.52c.24-.3.54-.65.88-1a28.16,28.16,0,0,0,1.89-2.17l.32-.37.45-.52.39-.45.23-.27.37-.42,1.78-2.06.55-.63.93-1.07.4-.46.4-.46L157,167l.67-.78.79-.91,1.32-1.52,1.92-2.22.55-.62a13.7,13.7,0,0,1,1-1.19l.58-.67,1.09-1.26.36-.41,3.89-4.48.21-.24L170,152l1.34-1.55,1.89-2.18.18-.2.77-.89.14-.16.35-.41.24-.27.31-.35.14-.17.28-.33.11-.12.68-.78,0,0h0L177,144h0s0,0,0,0l.54-.62.11-.13.5-.57,1.28-1.48.31-.36.26-.3.09-.1.55-.63.85-1,.09-.11.71-.81,2.23-2.57.79-.91,1.53-1.76,1.69-1.95.07-.09,6.65-7.66.19-.22.83-1,.24-.28.91-1h0l3.53-4.07a5.84,5.84,0,0,0,2.18-2.49c.36-.26-.26.62.18.26.16-.52,1.12-1.26,1.65-1.91.12-.24,0-.2.13-.46.07,0,0,.24.2.08.3-.36.07-.16.24-.52.1,0-.05.21.09.13.46-.28.73-.81.57-.9a.65.65,0,0,0,.27-.25c.11,0,0,.18-.07.32.77-.89,2.15-2,2.47-2.87.88-.69.51-.7,1-1.08a8.78,8.78,0,0,1,1-1.81l1.69-1.65c.11,0,0,.18-.08.32a3.35,3.35,0,0,0,.72-.89c0-.67,2-2.09,2.66-3.26l-3,3.18a6.89,6.89,0,0,1,1-1.15c0-.3-.45.47-.64.57l.36-.77c.19-.13.14,0,.36-.12.63-.89.37-1.15,1.3-2,.15,0-.45.77-.58,1.09.08,0,.33-.11.24.14a3.58,3.58,0,0,1,1-1.74c.17-.07.14.08,0,.4.43-.29.45-1,1-1.55.41-.31-.11.45.35.08.07-.12,0-.1-.05-.07s.43-.53.2-.58c.16-.14.75-.74.5-.77.22-.2.35-.51.61-.64.1.1-.39.89-.16.85.15-.26.36-.6.62-1,.28-.21.12.1.47-.19.46-.62,1-1.14,1.49-1.72.22-.12-.29.41-.3.65.71-.64.52-1.25,1.33-1.73.15-.22.19-.6.41-.71.12-.32-.27.28-.42.25l.17-.39c.59-.45,1-1.15,1.58-1.59.14.14-.52,1-.88,1.09a4.46,4.46,0,0,1-.57.9c.26-.33,1.08-.83,1.32-1.54.4-.29.05.31.45,0a10.86,10.86,0,0,1,1.9-2.63c.28-.1-.22.33-.23.51.35-.41.27-.11.63-.37.37-.61.87-1,1.23-1.67.75-.5.56-.74,1.3-2a9.56,9.56,0,0,1-1,1.28c-.14.24,0,.19.09.13a2.92,2.92,0,0,1-.66.77c-.23.17.2-.39.29-.45a3,3,0,0,0-1.46,1.33,6.51,6.51,0,0,0-1.81,1.92c-.26.13-.22-.07-.43.44a13.2,13.2,0,0,0-2.67,2.8c-.2-.19-.94,1-.85.5a5.93,5.93,0,0,1-.67,1c-.3.15-.46.48-.75.63-.13.23,0,.16-.08.33a.93.93,0,0,0-.6.63c-.17.11-.37.18-.48.38-.28.2.33-.62-.14-.2A6.61,6.61,0,0,1,215.53,98c-.36.27,0,.21-.24.51a3.71,3.71,0,0,0-.23.32c-.36.29-.2,0-.57.25a13.75,13.75,0,0,1-2.42,2.74,5.18,5.18,0,0,1-.46.84c.52-.34.24-.5.72-.9-.12.34-.09.24.24.14-.37.83-.93,1.27-1.2,1.28.14-.38.55-.36.66-.77-.37.42-.68.44-.45,0l-1.64,1.72c0-.36,0-.2-.47.18a2.57,2.57,0,0,1,.92-.82c.1-.24-.3.11-.14-.2-.27.4-.64.65-.93,1-.14.32.24,0,.52-.12a12.24,12.24,0,0,0-1.34,1.73c0,.16.23,0,.19.27-.46.62-.13-.16-.58.24-.13,0,.12-.19.18-.38-.64.33-1.63,1.74-2.37,2.15a12.67,12.67,0,0,1-1.94,2.37c-.34.09.35-.67.27-.91-.6.46-.47.94-.82.77-.07.28,0,.39.23.33a12.84,12.84,0,0,1-1.75,2c0,.45-.63,1-1.06,1.47-.12,0,0-.18.07-.32s.31-.27.48-.38.08-.22,0-.2l.12-.26c-.36.27-.52.82-1,1,.13-.32.38-.46.55-.71,0-.29-.54.48-.75.64.34-.9-.67.69-1.19,1.08.11.06.14.37-.2.77.1-.43-.34.08-.5-.07a.88.88,0,0,1-.23.32c.29,0-.29.62-.27.9a6.18,6.18,0,0,0-1.42,1.6c-.36.26-.15-.15-.18-.27a15.84,15.84,0,0,1-1.3,1.15l-.24.51.43-.25c.17-.54.62-.67.93-1-.29.59-.82.83-1.11,1.41-.28-.41-1,.87-1.82,1.45.28-.24.46-.62.76-.83-.09-.19-.72.66-1,1,0,.17.08.22,0,.46l-.15.16-.1.09c-.15.08-.17-.12-.33,0a.66.66,0,0,1-.33.38c.06.09,0,.23-.12.37l-.3.29a1.74,1.74,0,0,1-.4.3s0,0,.08,0l-.44.42s-.06,0-.19.08,0,.08,0,.13l-3.6,3.43c.06-.08.08-.13,0-.06.43-.39.8-.87,1.2-1.28,0-.12-.17,0-.09-.13.27-.43.19,0,.53-.31a1.48,1.48,0,0,1,.39-.52c-.26-.44.87-.84,1.12-1.6.36-.26.08.28.47-.18.14-.41-.27-.17-.11-.59-.29.15-.43.53-.71.7,0,.14.14,0,.26-.06a3.22,3.22,0,0,1-.83,1c-.13-.06.23-.36.2-.59a8.85,8.85,0,0,0,.94-1.21c.36-.26.07.28.47-.19.18-1.09,2.23-2.84,3.27-4.09.11,0-.2.55,0,.46-.83.88-1.67,1.76-2.47,2.67.29-.2.52-.48.31,0l.78-1c.13,0-.11.44.34.07.13-.49.26-.52.68-1,.37-.29,0,.23.41,0a9,9,0,0,0,1.51-2.12c0,.06.25-.09.2.07-.17.36-.15-.14-.33.38.58-.44,1-1.13,1.57-1.59l.42-.9a2,2,0,0,0,.68-.31c.18-.61-.37,0-.56,0,.22-.47.76-.47.93-1,.48-.32-.14.65.44.21.06-.13-.08,0-.15,0a14.89,14.89,0,0,1,1.92-2.17c.23-.53-.4-.05-.68.31.26-.41.35-1.08.75-1.29.24,0-.31.44-.13.46s.27-.47.54-.51c.09-.34-.16-.13.25-.71.24-.16.29-.09.14.2.55-.4.21-.74.73-1.09.2,0-.31.72.12.39.26-.44.11-.4.26-.71a1.51,1.51,0,0,1,.33-.38c.09.08-.37.62-.15.65.41-.5.39-.29.9-.63a21.27,21.27,0,0,0,2.1-2.56c-.29.78,1.42-1.41,2.06-2,.09.21-.78.86-1,1.41.79-.62,1.13-1.64,1.76-2,.05-.14-.14,0-.26.06.11-.42.44-.52.57-.9.85-.4,1.45-1.65,2-1.84A26.37,26.37,0,0,0,212.93,99c-.31.34-.13.07-.42.25.75-1.27,1.28-1.21,1.53-1,.12-.37-.15-.31-.11-.59.39-.38.73-.81,1.14-1.15.18,0-.27.47-.41.76.23-.29,1.32-1.31,1.48-1.58s.34,0,.09.13c.13.15.34-.38.5-.57s-.14,0-.26,0c.67-.79,2-1.61,2.78-2.86l.53-.31c.12-.26.36-.34.45-.64,1-.48,1.43-1.67,2.37-2.16A8.36,8.36,0,0,1,225,86.88c-.38.63-.35.73-.64,1.22.81-1,1.48-2.16,2-2.43-.23-.25.27-1.06-.18-1.11l1.35-1.27c-.25-.25-1.58,1.64-1.8,1.25.11-.26.4-.27.58-.44-.08-.28.66-.79.85-1.35,0,.17.07.33.56,0-.14-.12.09-.45.37-1,.35-.17.94-.55.82-.76.36-.26.28,0,.63-.37.26-.07,0,.12-.13.45a7,7,0,0,0,1-1.28c.36-.22-.15.57.23.33.11-.22,0-.61.46-.83,0-.14.15-.45-.24-.14.41-.62.36-.5.41-.9s.46-.21.54-.51c.29-.57-.3.11-.46.18.19-.28.48-.44.66-.77.23-.1-.22.58.18.27,0-.26.54-.74.43-.44a5.75,5.75,0,0,1,2.14-2.3c0-.11.11-.42.08-.52-.4.34-.24.15-.63.37-.18.31,0,.16.2.08a20.65,20.65,0,0,1-2.23,2.16c.5-.79,1.26-1.2,1.76-2a12.26,12.26,0,0,1-1,.89c.27-.46.72-.67.89-1.29.24-.1,0,.33.35.08.1-.22.26-.35.35-.58.25-.2.11.06,0,.26.21-.12.3-.43.54-.51-.05-.28.57-.79.48-1,.52-.41.14.23.56,0,.26-.49,1.11-1.25,1.25-1.21.42-.71.56-.5,1-1.15.27-.1-.23.34-.24.52.56-.4.93-1.09,1.47-1.53.1-.31.12-.39,0-.59.3-.29.78-1,.69-1.16.41-.36-.12.37.3,0s.44-.66.77-.83c.25-.45,0-.28.29-.64.35-.21-.23.66-.1.71-.12.33-.53.23-.6.64.19.06.83-.71,1.1-1.21.35-.28.19,0,.47-.19.33-.59,1.08-1.71,1.33-1.72s.11-.24,0-.2a2.78,2.78,0,0,1,1-1c.11-.35.36-.49.46-.84C245.09,62.73,244.5,62.8,244.28,63.41Z"/><path class="cls-97" d="M153.18,109.56l1.42,19.7L130,154.63l-24.65-25.37h0l4.11-58.57q6.66-3.66,13.81-7.2l-1.39,60.72L130,132l8.08-7.83-1.65-66.94q6.15-2.76,12.62-5.4Zm-57,10.22,4.38-44C93.57,79.82,87.07,84,81,88.06l1.31,17.44ZM75.2,92q-1.8,1.26-3.54,2.52l2.62,2.7ZM205.41,33.56q-5.67,1.41-11.14,2.93l6.78,26.68-26,25.17L168.57,44.5q-6.1,2.11-12,4.37l7.17,70.91,51.58-53.21h0ZM52.78,109.26,130,198.07h0L62.58,101.36Q57.41,105.38,52.78,109.26Z"/><path class="cls-2" d="M103,222.87c-1.77,0-7,.8-7,6.42s5.22,6.42,7,6.42,7-.8,7-6.42-5.22-6.42-7-6.42m0,11.61c-2.31,0-4.5-1.33-4.5-5.19s2.19-5.19,4.5-5.19,4.5,1.33,4.5,5.19-2.2,5.19-4.5,5.19"/><polygon class="cls-2" points="169.66 235.33 169.66 223.25 171.4 223.25 179.26 231.83 179.26 223.25 180.84 223.25 180.84 235.33 179.06 235.33 171.23 226.75 171.23 235.33 169.66 235.33"/><path class="cls-2" d="M125.62,232.08a4.56,4.56,0,0,1-4,2.37c-2.25,0-4.62-1.47-4.62-5.16s2.37-5.16,4.62-5.16a4.68,4.68,0,0,1,3.85,2.11l1.62-1.05c-1.54-2.06-4.56-2.32-5.75-2.32-1.73,0-6.84.71-6.84,6.42s5.11,6.42,6.84,6.42c1.24,0,4.42-.28,5.92-2.57Z"/><path class="cls-2" d="M159.08,223.26h-2.27l-5.68,12.07h1.64l1.59-3.39h6.34l1.59,3.39h2.65ZM155,230.51l2.5-5.31,2.5,5.31Z"/><rect class="cls-98" x="132.56" y="223.43" width="14.13" height="1.78"/><rect class="cls-99" x="132.56" y="228.4" width="14.13" height="1.78"/><rect class="cls-100" x="132.56" y="233.38" width="14.13" height="1.78"/><path class="cls-2" d="M21.36,223.2h2.35v12.09H21.19l-4.93-8.62h0v8.62H13.87V223.2h2.66l4.79,8.42h0Z"/><path class="cls-98" d="M25.93,225.27h.34c2.27,0,2.88-1.17,2.93-2.07h1.93v12.09H28.78v-8.37H25.93Z"/><path class="cls-2" d="M42.75,235.29H40.4v-5.44c0-.65,0-1.77-1.53-1.77A1.83,1.83,0,0,0,37,230.15v5.14H34.66V223.2H37v4.3h0a2.74,2.74,0,0,1,2.59-1.4,2.85,2.85,0,0,1,3.11,3Z"/><path class="cls-2" d="M49.21,235.52a4.71,4.71,0,1,1,4.58-4.71A4.35,4.35,0,0,1,49.21,235.52Zm0-7.44c-1.82,0-2.15,1.59-2.15,2.73s.33,2.73,2.15,2.73,2.16-1.58,2.16-2.73S51,228.08,49.21,228.08Z"/><path class="cls-2" d="M63.76,235.29H61.41v-5.44c0-.65,0-1.77-1.54-1.77A1.84,1.84,0,0,0,58,230.15v5.14H55.67v-9h2.25v1.32h0a3.11,3.11,0,0,1,5.8,1.44Z"/><path class="cls-2" d="M68.53,235.29H66.17V223.2h2.36v6.53l3-3.4h2.9l-3.17,3.47,3.25,5.49H71.64l-2.13-3.84-1,1Z"/><path class="cls-2" d="M83,233.54c0,1.06.23,1.29.52,1.39v.36H81a4.14,4.14,0,0,1-.22-1.06,3.65,3.65,0,0,1-2.89,1.29,2.52,2.52,0,0,1-2.73-2.61,2.74,2.74,0,0,1,2.61-2.86l2.12-.32c.37,0,.82-.2.82-.7,0-1-.94-1.05-1.54-1.05a1.27,1.27,0,0,0-1.45,1.25H75.44c.27-2.75,2.17-3.13,4-3.13,1.26,0,3.57.38,3.57,2.59Zm-2.31-2.61a3.56,3.56,0,0,1-1.59.49c-.88.15-1.6.37-1.6,1.34a1,1,0,0,0,1.09,1.08,2,2,0,0,0,2.1-1.77Z"/><path class="cls-2" d="M87.75,225.27H85.39v-2.18h2.36Zm0,1.06v9H85.39v-9Z"/><path class="cls-2" d="M191.58,233.1h6v2.19h-8.53V223.2h2.53Z"/><path class="cls-2" d="M207.21,232.66a3.88,3.88,0,0,1-3.94,2.86c-2.52,0-4.46-1.21-4.46-4.9,0-1.07.37-4.52,4.29-4.52,1.77,0,4.21.84,4.21,4.93v.42h-6.14c.06.67.2,2.19,2.1,2.19a1.52,1.52,0,0,0,1.52-1Zm-2.32-2.74a1.82,1.82,0,0,0-1.82-1.89c-1.11,0-1.7.71-1.84,1.89Z"/><path class="cls-2" d="M216.45,233.54c0,1.06.23,1.29.52,1.39v.36h-2.54a3.76,3.76,0,0,1-.22-1.06,3.67,3.67,0,0,1-2.9,1.29,2.51,2.51,0,0,1-2.72-2.61,2.73,2.73,0,0,1,2.6-2.86l2.12-.32c.38,0,.83-.2.83-.7,0-1-.94-1.05-1.55-1.05a1.27,1.27,0,0,0-1.45,1.25h-2.27c.27-2.75,2.17-3.13,4-3.13,1.26,0,3.57.38,3.57,2.59Zm-2.31-2.61a3.62,3.62,0,0,1-1.6.49c-.87.15-1.6.37-1.6,1.34a1,1,0,0,0,1.09,1.08,2,2,0,0,0,2.11-1.77Z"/><path class="cls-2" d="M227,226.33v8.48c0,1.55-.12,4.13-4.53,4.13-1.85,0-3.8-.79-3.91-2.69h2.56c.1.45.29.9,1.65.9s1.87-.6,1.87-2.05V234l0,0a2.44,2.44,0,0,1-2.39,1.35c-2.16,0-3.86-1.5-3.86-4.63s1.75-4.61,3.72-4.61a2.7,2.7,0,0,1,2.63,1.56h0v-1.33Zm-4.35,7c1.6,0,2-1.36,2-2.59,0-1.45-.71-2.63-2-2.63-.88,0-1.85.64-1.85,2.73C220.74,232,221.21,233.35,222.6,233.35Z"/><path class="cls-2" d="M237.32,235.29h-2.25V234h0a3,3,0,0,1-2.73,1.5c-1.77,0-3.05-1-3.05-3.3v-5.89h2.36v5.56c0,1.38.81,1.65,1.53,1.65a1.79,1.79,0,0,0,1.82-2v-5.17h2.35Z"/><path class="cls-2" d="M247.56,232.66a3.88,3.88,0,0,1-3.94,2.86c-2.52,0-4.46-1.21-4.46-4.9,0-1.07.38-4.52,4.3-4.52,1.76,0,4.2.84,4.2,4.93v.42h-6.14c.07.67.2,2.19,2.1,2.19a1.52,1.52,0,0,0,1.52-1Zm-2.32-2.74a1.81,1.81,0,0,0-1.82-1.89c-1.11,0-1.7.71-1.83,1.89Z"/><path class="cls-101" d="M68.14,257.88v13.43H66.56v-1H59v1H57.5v-13.5ZM59,259.39v3.9h7.54v-3.9Zm7.54,9.44v-4.06H59v4.06Z"/><path class="cls-101" d="M80.44,261.6a14.31,14.31,0,0,0,5.88,6.16,6.69,6.69,0,0,0-1.12,1.31,15.5,15.5,0,0,1-5.67-6.14v4.27H82.4v1.5H79.53v2.84H78V268.7H75v-1.5H78v-4.26a16.26,16.26,0,0,1-5.63,6.18,8.29,8.29,0,0,0-1.06-1.23,14.91,14.91,0,0,0,5.8-6.29H71.83v-1.51H78v-3.23h1.57v3.23h6.2v1.51Z"/><path class="cls-101" d="M90,264a10.91,10.91,0,0,0-2.64-1.67l.83-1.09a10.7,10.7,0,0,1,2.69,1.56Zm-2.3,6.58a48.27,48.27,0,0,0,2.41-5.16l1.19.83c-.66,1.7-1.51,3.62-2.26,5.14Zm3-10.71a11.08,11.08,0,0,0-2.61-1.76L89,257a10.68,10.68,0,0,1,2.67,1.65Zm3.3.27a13,13,0,0,1-1.6,2.42,8.14,8.14,0,0,0-1.27-.87,11.33,11.33,0,0,0,2.58-4.82l1.47.32a16.78,16.78,0,0,1-.56,1.6H102v1.35Zm6.82,5.81c0,.83-.1,1.52-.16,2.11h1.42v1.28h-1.58a3.75,3.75,0,0,1-.51,1.56,1.48,1.48,0,0,1-1.17.62,12.23,12.23,0,0,1-2,0,3,3,0,0,0-.37-1.23c.77.06,1.44.08,1.76.08a.63.63,0,0,0,.58-.24,2,2,0,0,0,.3-.79H93.71l-.13.74-1.43-.13c.21-1.07.45-2.5.68-4H91.39v-1.36H93c.16-1.12.29-2.23.39-3.2h7.71s0,.48,0,.65c0,.95-.08,1.8-.11,2.55h1.29v1.36Zm-6.68,0c-.09.74-.2,1.44-.3,2.11h2c.08-.62.16-1.36.25-2.11Zm.42-3.27-.24,1.91h1.87c.07-.66.13-1.3.18-1.91ZM99.33,268c.06-.56.12-1.26.17-2.11H97.4c-.08.77-.16,1.49-.24,2.11Zm.25-3.47c0-.58.07-1.22.1-1.91h-2c0,.61-.11,1.27-.18,1.91Z"/><path class="cls-101" d="M115.45,260.48a14.76,14.76,0,0,0,1.49-.11v1.68c-.43,0-1,0-1.41,0H113.2c0,2.37.11,5.33.12,7.4,0,.93-.54,1.44-1.61,1.44-.88,0-1.81-.05-2.66-.1l-.13-1.64a16.89,16.89,0,0,0,2.2.17c.43,0,.59-.21.59-.64,0-1.2,0-3.22,0-5.15a22.24,22.24,0,0,1-6.8,5.73l-1.15-1.32a19.6,19.6,0,0,0,7.21-5.89H106c-.56,0-1.1,0-1.63.05v-1.69a13.4,13.4,0,0,0,1.6.11h5.59c0-.53,0-1,0-1.38a10.18,10.18,0,0,0-.15-1.47h1.83a8,8,0,0,0-.08,1.47v1.38Z"/><path class="cls-101" d="M126.59,265.68a15.23,15.23,0,0,0,2.72-3.57l-5.56,1.12v4.53c0,1.06.36,1.41,2.2,1.41a25.36,25.36,0,0,0,5-.5l-.06,1.73a37.47,37.47,0,0,1-5,.34c-3.27,0-3.81-.83-3.81-2.55v-4.62l-3.54.73-.3-1.66c.73-.1,2.19-.35,3.84-.66v-2.54a10.93,10.93,0,0,0-.11-1.64h1.89a12.66,12.66,0,0,0-.12,1.64v2.22c2.55-.49,5.11-1,5.8-1.17a4,4,0,0,0,1-.32l1.2.93c-.13.19-.32.5-.45.74a23.28,23.28,0,0,1-3.3,4.66Z"/><path class="cls-101" d="M147.23,259.47c-.14.18-.4.48-.53.67a16,16,0,0,1-3.92,4.42l-1.33-1.07a10,10,0,0,0,3.27-3.32h-8.79c-.62,0-1.18.05-1.87.1v-1.78a14.3,14.3,0,0,0,1.87.15h8.95a7.49,7.49,0,0,0,1.34-.12Zm-6.47,2.13c0,4.18-.24,7.25-4.45,9.41l-1.47-1.2a6.21,6.21,0,0,0,1.54-.78c2.29-1.48,2.66-3.5,2.66-6.15a7.11,7.11,0,0,0-.1-1.28Z"/><path class="cls-101" d="M154.46,266.83a15.11,15.11,0,0,0,5.55-6l1,1.74a16.45,16.45,0,0,1-5.62,5.8,17.68,17.68,0,0,1-6.13,2.38l-1.07-1.65A16.57,16.57,0,0,0,154.46,266.83Zm-.54-5.12-1.27,1.3a36.82,36.82,0,0,0-4-3.4l1.17-1.25A33.76,33.76,0,0,1,153.92,261.71Z"/><path class="cls-101" d="M165.26,258.16c0,.33-.06.73-.06,1.18v5.36c0,.42,0,1,.06,1.3h-1.87c0-.27.08-.83.08-1.3v-5.36c0-.29,0-.85-.07-1.18Zm7.39-.13c0,.41-.06.89-.06,1.47v2.85c0,3.67-.58,5-1.76,6.37a8.87,8.87,0,0,1-3.83,2.34l-1.32-1.4a7.41,7.41,0,0,0,3.87-2.09c1.12-1.27,1.33-2.51,1.33-5.32V259.5a11.71,11.71,0,0,0-.1-1.47Z"/><path class="cls-101" d="M175.75,263.15c.52.05,1.51.1,2.37.1h8.69c.79,0,1.41-.07,1.8-.1v2c-.36,0-1.08-.06-1.78-.06h-8.71c-.89,0-1.84,0-2.37.06Z"/><path class="cls-101" d="M200.83,260a3.52,3.52,0,0,0,1.2-.16l1.31.81a5.8,5.8,0,0,0-.45,1,15.74,15.74,0,0,1-2.81,5.44,14.38,14.38,0,0,1-6.41,4.42l-1.48-1.33a12.77,12.77,0,0,0,6.41-4,12.15,12.15,0,0,0,2.44-4.72h-5a16.79,16.79,0,0,1-4.05,3.9l-1.41-1a13.68,13.68,0,0,0,5-5.3,6.85,6.85,0,0,0,.6-1.44l1.85.61c-.32.48-.65,1.09-.83,1.41a4.36,4.36,0,0,1-.24.41Zm1.28-2.68a21.76,21.76,0,0,1,1.3,2.19l-1.06.45a18.22,18.22,0,0,0-1.27-2.21Zm1.81-.69a19.83,19.83,0,0,1,1.33,2.17l-1,.47a16.33,16.33,0,0,0-1.32-2.21Z"/></g></g></svg>