<svg xmlns="http://www.w3.org/2000/svg" viewBox="0 0 210 80"><defs><style>.cls-1{fill:gold;}.cls-2{fill:#ffbe00;}</style></defs><g id="Layer_2" data-name="Layer 2"><g id="レイヤー_1" data-name="レイヤー 1"><rect class="cls-1" width="210" height="80"/><path class="cls-2" d="M210,80V8.36A294.3,294.3,0,0,0,24.32,80Z"/><path d="M33,59.08a36.41,36.41,0,0,0-5.57-2.27v4.72a14.45,14.45,0,0,0,.07,1.61H26.27a10.21,10.21,0,0,0,.09-1.61V53.37a10.19,10.19,0,0,0-.1-1.42h1.22c0,.42-.08,1-.08,1.42V55.7a47.16,47.16,0,0,1,6,2.33Z"/><path d="M45.65,56a2.84,2.84,0,0,0-.16.38,9.61,9.61,0,0,1-2.05,4,10.1,10.1,0,0,1-5,2.9l-.77-.89a9.36,9.36,0,0,0,4.93-2.58,7.28,7.28,0,0,0,1.71-3.22H36.76c-.34,0-.84,0-1.33,0V55.58c.49,0,1,.07,1.33.07h7.45a2,2,0,0,0,.73-.1Zm-9-3.62a9,9,0,0,0,1.2.06h5.55a8.87,8.87,0,0,0,1.22-.06v1c-.32,0-.77,0-1.25,0H37.89c-.42,0-.84,0-1.2,0Z"/><path d="M58.05,52.64a23.47,23.47,0,0,1-3.77,3v6.05a10.33,10.33,0,0,0,.08,1.43H53.13a12.2,12.2,0,0,0,.08-1.43V56.29a27.72,27.72,0,0,1-5.35,2.23l-.57-1A23.32,23.32,0,0,0,53.54,55a15.76,15.76,0,0,0,3.67-3.11Z"/><path d="M71.37,53.28c-.09.13-.26.32-.35.46a13.13,13.13,0,0,1-3.5,3.87L66.68,57a9.59,9.59,0,0,0,3.15-3.23H61.72c-.5,0-1,0-1.57.08V52.65a11.73,11.73,0,0,0,1.57.13h8.14a5,5,0,0,0,.9-.09ZM65.8,55.13c0,3.85-.38,6.36-3.91,8.1L61,62.47a6,6,0,0,0,1.22-.6c2.24-1.35,2.54-3.43,2.54-5.77a8.09,8.09,0,0,0,0-1Z"/><path d="M83.74,54.25a7.15,7.15,0,0,0-.2.8,12.92,12.92,0,0,1-1.39,4.24,8.84,8.84,0,0,1-5.5,3.92l-.81-.92a7.22,7.22,0,0,0,1.34-.37A7.54,7.54,0,0,0,81.1,59a10.63,10.63,0,0,0,1.35-4.16h-8v2.59c0,.24,0,.59,0,.8H73.41a5.77,5.77,0,0,0,.06-.85V54.92a6.28,6.28,0,0,0-.06-1.05,12.57,12.57,0,0,0,1.29.06h3.12V52.58a6.74,6.74,0,0,0-.07-1H79a6.74,6.74,0,0,0-.07,1v1.35h3.26a2.38,2.38,0,0,0,.92-.12Z"/><path d="M93.84,59.08a36,36,0,0,0-5.57-2.27v4.72c0,.45,0,1.16.07,1.61h-1.2a11.64,11.64,0,0,0,.08-1.61V53.37a10.19,10.19,0,0,0-.1-1.42h1.22c0,.42-.08,1-.08,1.42V55.7a47.32,47.32,0,0,1,6,2.33Z"/><path d="M98,53.77v2.75c0,2.11-.17,5.19-1.36,7.3a3.79,3.79,0,0,0-.79-.54c1.13-2,1.24-4.77,1.24-6.76V52.89h5.17V51.05h1v1.84h5.4v.88Zm.07,8.31a10.63,10.63,0,0,0,1.28-4.26l.84.18a11.32,11.32,0,0,1-1.31,4.44Zm6.73.6c.6,0,.68-.38.74-2.44a3.81,3.81,0,0,0,.84.4c-.11,2.28-.35,2.89-1.51,2.89H102.7c-1.17,0-1.48-.32-1.48-1.42V56.6h.91v5.52c0,.46.11.56.67.56Zm-.12-5.6a16.16,16.16,0,0,0-3.2-2.16l.63-.6a17,17,0,0,1,3.25,2.06Zm2.11.45a15.48,15.48,0,0,1,2.07,4.55l-.9.38a15.72,15.72,0,0,0-2-4.6Z"/><path d="M119.39,59.16a9,9,0,0,0,3.46,1.73,3.82,3.82,0,0,0-.6.74,9.3,9.3,0,0,1-2.06-1,.74.74,0,0,1,0,.18c-.15,1.62-.32,2.31-.6,2.59a1.22,1.22,0,0,1-.84.29c-.32,0-1,0-1.67,0a1.7,1.7,0,0,0-.24-.77,15.53,15.53,0,0,0,1.57.07.58.58,0,0,0,.45-.12c.17-.16.3-.63.42-1.69H116c-.61,1.32-1.79,2.16-4.2,2.68a2.41,2.41,0,0,0-.47-.73c2-.38,3.11-1,3.67-1.95h-2.82v-.48a12.27,12.27,0,0,1-1.74.77,1.86,1.86,0,0,0-.56-.65,10.45,10.45,0,0,0,3.24-1.69h-2.94v-.77h3.74a7.16,7.16,0,0,0,.59-.84h-2.67V53.74h9.1v3.81h-5.43a5.37,5.37,0,0,1-.53.84h7.55v.77Zm-5.88-6.35h-3.18V52h3.18v-1h.91v1h3.75v-1h.91v1h3.23v.79h-3.23v.72h-.91v-.72h-3.75v.72h-.91Zm6.37,7.69a8.32,8.32,0,0,1-1.57-1.34h-4a9,9,0,0,1-1.73,1.34h2.73a6.84,6.84,0,0,0,.25-1.06h.91c-.06.37-.13.72-.22,1.06Zm-7.17-5.17H120v-1h-7.27Zm0,1.59H120v-1h-7.27Z"/><path d="M44.92,17.57v4.08H38v19H33.19v-19H26.26V17.57Z"/><path d="M54,23.17l.38,0v4.56l-.75-.06-.53,0c-1.79,0-3,.59-3.61,1.75a6.87,6.87,0,0,0-.52,3V40.6H44.47v-17h4.25v3a9.68,9.68,0,0,1,1.8-2.33,4.91,4.91,0,0,1,3.25-1Z"/><path d="M58.11,43.87l.56,0a6.41,6.41,0,0,0,1.25,0,2.17,2.17,0,0,0,1-.36,2.37,2.37,0,0,0,.73-1.11,2.75,2.75,0,0,0,.29-1L55.68,23.57h5l3.72,12.56,3.52-12.56H72.6L66.76,40.32q-1.7,4.84-2.68,6c-.65.78-2,1.16-3.94,1.16h-1l-1.08-.06Z"/><path d="M88.45,38.52q-2.16,2.65-6.55,2.66t-6.55-2.66a9.89,9.89,0,0,1-2.15-6.41,10,10,0,0,1,2.15-6.38Q77.51,23,81.9,23t6.55,2.7a10,10,0,0,1,2.15,6.38A9.89,9.89,0,0,1,88.45,38.52Zm-3.57-2.46a6.45,6.45,0,0,0,1.05-4,6.42,6.42,0,0,0-1.05-3.94,4,4,0,0,0-6,0,6.35,6.35,0,0,0-1.06,3.94,6.38,6.38,0,0,0,1.06,4,3.93,3.93,0,0,0,6,0Z"/><path d="M97.9,23.57V33.84A5.38,5.38,0,0,0,98.24,36a2.38,2.38,0,0,0,2.38,1.29,3.11,3.11,0,0,0,3.11-1.84,6.74,6.74,0,0,0,.43-2.64V23.57h4.52v17h-4.33V38.2s-.14.21-.31.47a3,3,0,0,1-.59.68,6,6,0,0,1-2,1.28,6.83,6.83,0,0,1-2.28.35q-3.78,0-5.08-2.72a10.39,10.39,0,0,1-.73-4.42V23.57Z"/><path d="M110.91,26.9V23.73h2.38V19h4.4v4.75h2.77V26.9h-2.77v9c0,.7.09,1.13.27,1.3s.72.26,1.62.26H120l.45,0v3.33l-2.11.08c-2.1.07-3.54-.29-4.31-1.1a3.25,3.25,0,0,1-.75-2.36V26.9Z"/><path d="M140.07,60.34a2.4,2.4,0,1,0-2.39-2.4A2.4,2.4,0,0,0,140.07,60.34Z"/><path d="M184.2,65.75a55.83,55.83,0,0,0-8.66-2.93c0-.08.05-.15.08-.22.17-.55.11-1.23.35-1.43s-.15-.3.14-.38a7.42,7.42,0,0,1,3-.06,8,8,0,0,0,4.79-.67,21,21,0,0,0,3.48-2.28,17.15,17.15,0,0,0,2.07-2.11,12,12,0,0,0,1.26-1.2c.24-.35-.12-.32.21-.67a14.49,14.49,0,0,1,2-1.43c.58-.38.67-.65,1.25-.88s.65,0,1.35-.79,1.17-1.23,1.43-1.61.41-.23.35-.9a2.89,2.89,0,0,0-1-1.85c-.56-.49-1.61-1.16-2-1.49a4,4,0,0,0-.59-.46c-.17-.12-.38-.12-.52-.32a2.54,2.54,0,0,0-.36-.39,1,1,0,0,0-.29-.56c-.23-.19-.29-.19-.36-.32a2.74,2.74,0,0,0-.37-.55c-.18-.23-.3-.34-.39-.45a6,6,0,0,0-.8-.79,1.2,1.2,0,0,0-.65-.16c-.12,0-.21.23-.29.18l-.31-.24a.49.49,0,0,0-.48-.08.83.83,0,0,0-.38.22S175.62,26.2,175.32,25.76,162.2,11.49,162,11.35s-.7-.29-2,.93-1.31,1.58-1.05,1.82S169.5,25.24,169.5,25.24l.88.7s-3.86-.06-5.39,1.88a8.16,8.16,0,0,0-1.71,4.58,1.71,1.71,0,0,1-.23.91c-.09.14-2.52,1.22-2.52,1.22l0,.18,2.08.67a4.84,4.84,0,0,0,0,1.87,1.93,1.93,0,0,0,.91,1l.44.18a9.42,9.42,0,0,0,.23,1.08.57.57,0,0,1,0,.5,41.1,41.1,0,0,0-3.59,3.71c-.38.7-4.56,8.77-5.09,9.65s-1,1.52-1,1.52a5.61,5.61,0,0,1-.38,1.58,2.38,2.38,0,0,0-.3,1s.59.62.44.82a1.2,1.2,0,0,0-.26.56c0,.14.12.61-.09.55s-.32-.32-.49-.29-.41.58-.3.91-.09.46-.29.52a12.74,12.74,0,0,0-1.39,2.33,56.26,56.26,0,0,0-8.29,2.84,46.53,46.53,0,0,0-13.59,8.47,84.27,84.27,0,0,1,20.84-8.51A55.37,55.37,0,0,1,163.71,64a54,54,0,0,1,10.68,1.12,81.78,81.78,0,0,1,23.4,9.09A46.53,46.53,0,0,0,184.2,65.75Zm4.51-16.6a8.47,8.47,0,0,0,1.41-.76l.17.12s-.76.82-1,1.17a4.82,4.82,0,0,1-1.23.79c-.29.17-.61,0-1.23.17s-.93,1-1.1,1.2a4.31,4.31,0,0,1-1.27.53c-.67.23-1.95.55-2.33.67a2.65,2.65,0,0,0-.85.5,1.12,1.12,0,0,1-1.08-.12c-.32-.17-.15,0-.73.26a1.41,1.41,0,0,1-1.17,0,1.54,1.54,0,0,1,.2-.65c.18-.23.12-.41.15-1.2a3.88,3.88,0,0,1,.23-1.26s.44-.05,1-.05,1,.11,1.81.11a6.75,6.75,0,0,0,1.2-.11,7.7,7.7,0,0,1,1.37-.33c.82,0,.47,0,.82,0a3,3,0,0,1,.7-.09,2.69,2.69,0,0,0,1.05-.09c.47-.14.68-.5.88-.59A4.81,4.81,0,0,0,188.71,49.15ZM176.64,34.53a12,12,0,0,1,.23-2.86c.18,0,3.22,2.86,3.78,3.27s6.89,7.17,6.89,7.17-.58,1-.87,1.49a3,3,0,0,0,0,1.66,1.3,1.3,0,0,1-.7-.29,1.09,1.09,0,0,0-.85-.12,5.67,5.67,0,0,0-.62.09c-.26.06-.4,0-.93-.12a1.1,1.1,0,0,0-.79.06l-.21-.46L182,44.3,181.4,44s0-.67-.05-1-.47-.73-.65-.9a1.92,1.92,0,0,1-.32-.79c-.08-.32-.76-.47-1.17-.94A8.88,8.88,0,0,1,178,38.6c-.2-.47-1.58-1.38-1.58-1.38S176.58,35.73,176.64,34.53Z"/></g></g></svg>