<svg xmlns="http://www.w3.org/2000/svg" viewBox="0 0 143.88 60.89"><defs><style>.cls-1{fill:#eaeef1;}.cls-2{fill:#c6000b;}.cls-3{fill:#006446;}.cls-4{fill:#30a6d9;}</style></defs><g id="レイヤー_2" data-name="レイヤー 2"><g id="レイヤー_1-2" data-name="レイヤー 1"><path class="cls-1" d="M13.94,35.2c0-12.42,9.08-13.5,12.47-13.5,7.31,0,13.12,4.3,13.12,12,0,6.56-4.25,9.89-8,12.42-5.05,3.55-7.69,5.27-8.55,7H39.58v6.67H13.51c.27-4.46.59-9.14,8.87-15.16,6.88-5,9.62-6.93,9.62-11.24a5.15,5.15,0,0,0-5.27-5.42c-5.27,0-5.43,4.35-5.48,7.15Z"/><path class="cls-1" d="M56.64,21.7c9,0,13.22,6.18,13.22,19.57S65.61,60.89,56.64,60.89,43.41,54.66,43.41,41.27,47.66,21.7,56.64,21.7Zm0,33.17c4.3,0,5.48-3.76,5.48-13.6s-1.18-13.55-5.48-13.55-5.49,3.71-5.49,13.55S52.34,54.87,56.64,54.87Z"/><path class="cls-1" d="M73.13,35.2c0-12.42,9.09-13.5,12.48-13.5,7.31,0,13.11,4.3,13.11,12,0,6.56-4.24,9.89-8,12.42-5.06,3.55-7.69,5.27-8.55,7H98.78v6.67H72.7c.27-4.46.6-9.14,8.87-15.16,6.89-5,9.63-6.93,9.63-11.24a5.16,5.16,0,0,0-5.27-5.42c-5.27,0-5.43,4.35-5.48,7.15Z"/><path class="cls-1" d="M102.76,35.2c0-12.42,9.08-13.5,12.47-13.5,7.31,0,13.11,4.3,13.11,12,0,6.56-4.24,9.89-8,12.42-5.06,3.55-7.69,5.27-8.55,7H128.4v6.67H102.32c.27-4.46.6-9.14,8.87-15.16,6.89-5,9.63-6.93,9.63-11.24a5.16,5.16,0,0,0-5.27-5.42c-5.27,0-5.43,4.35-5.48,7.15Z"/><path class="cls-1" d="M54.83,0c-1.09,0-4.31.49-4.31,4s3.22,4,4.31,4,4.3-.5,4.3-3.95S55.92,0,54.83,0m0,7.14c-1.42,0-2.78-.82-2.78-3.19S53.41.76,54.83.76,57.6,1.57,57.6,4s-1.36,3.19-2.77,3.19"/><polygon class="cls-1" points="95.87 7.66 95.87 0.23 96.94 0.23 101.78 5.51 101.78 0.23 102.75 0.23 102.75 7.66 101.66 7.66 96.84 2.39 96.84 7.66 95.87 7.66"/><path class="cls-1" d="M68.77,5.67A2.84,2.84,0,0,1,63.46,4,2.84,2.84,0,0,1,66.31.77a2.9,2.9,0,0,1,2.37,1.3l1-.65A4.56,4.56,0,0,0,66.14,0c-1.07,0-4.21.43-4.21,4s3.14,4,4.21,4c.76,0,2.72-.17,3.64-1.58Z"/><path class="cls-1" d="M89.36.23H88L84.47,7.66h1l1-2.08h3.9l1,2.08H93ZM86.87,4.7l1.54-3.27L90,4.7Z"/><rect class="cls-2" x="73.04" y="0.34" width="8.7" height="1.09"/><rect class="cls-3" x="73.04" y="3.4" width="8.7" height="1.09"/><rect class="cls-4" x="73.04" y="6.46" width="8.7" height="1.09"/><path class="cls-1" d="M4.61.2H6.06V7.64H4.51l-3-5.3h0v5.3H0V.2H1.64l3,5.18h0Z"/><path class="cls-2" d="M7.43,1.48h.2C9,1.48,9.4.75,9.43.2h1.2V7.64H9.18V2.49H7.43Z"/><path class="cls-1" d="M17.78,7.64H16.33V4.29c0-.4,0-1.08-.94-1.08a1.12,1.12,0,0,0-1.14,1.27V7.64H12.8V.2h1.45V2.84h0A1.69,1.69,0,0,1,15.86,2a1.77,1.77,0,0,1,1.92,1.85Z"/><path class="cls-1" d="M21.75,7.78a2.68,2.68,0,0,1-2.82-2.9A2.68,2.68,0,0,1,21.75,2a2.68,2.68,0,0,1,2.82,2.9A2.68,2.68,0,0,1,21.75,7.78Zm0-4.57c-1.12,0-1.32,1-1.32,1.67s.2,1.68,1.32,1.68,1.33-1,1.33-1.68S22.87,3.21,21.75,3.21Z"/><path class="cls-1" d="M30.7,7.64H29.26V4.29c0-.4,0-1.08-1-1.08a1.13,1.13,0,0,0-1.14,1.27V7.64H25.72V2.13h1.39v.81h0a1.78,1.78,0,0,1,1.66-1A1.76,1.76,0,0,1,30.7,3.83Z"/><path class="cls-1" d="M33.64,7.64H32.19V.2h1.45v4l1.82-2.09h1.78L35.3,4.26l2,3.38H35.56L34.24,5.28l-.6.62Z"/><path class="cls-1" d="M42.55,6.56c0,.65.14.8.32.86v.22H41.31A2.14,2.14,0,0,1,41.17,7a2.23,2.23,0,0,1-1.78.79,1.54,1.54,0,0,1-1.68-1.6,1.68,1.68,0,0,1,1.61-1.76l1.3-.2c.23,0,.51-.12.51-.43,0-.62-.58-.65-1-.65a.78.78,0,0,0-.89.77h-1.4C38.05,2.22,39.23,2,40.35,2c.78,0,2.2.24,2.2,1.6ZM41.13,5a2.21,2.21,0,0,1-1,.3c-.54.09-1,.22-1,.82a.64.64,0,0,0,.68.67,1.2,1.2,0,0,0,1.29-1.09Z"/><path class="cls-1" d="M45.47,1.48H44V.13h1.45Zm0,.65V7.64H44V2.13Z"/><path class="cls-1" d="M109.36,6.29h3.7V7.64h-5.25V.2h1.55Z"/><path class="cls-1" d="M119,6a2.38,2.38,0,0,1-2.42,1.76c-1.56,0-2.75-.74-2.75-3A2.56,2.56,0,0,1,116.45,2c1.09,0,2.59.52,2.59,3v.26h-3.78c0,.41.13,1.34,1.3,1.34a.93.93,0,0,0,.93-.6Zm-1.43-1.69a1.11,1.11,0,0,0-1.12-1.16c-.68,0-1,.44-1.13,1.16Z"/><path class="cls-1" d="M124.66,6.56c0,.65.15.8.32.86v.22h-1.56a2.5,2.5,0,0,1-.13-.65,2.25,2.25,0,0,1-1.79.79,1.54,1.54,0,0,1-1.67-1.6,1.68,1.68,0,0,1,1.6-1.76l1.31-.2c.23,0,.51-.12.51-.43,0-.62-.58-.65-1-.65a.78.78,0,0,0-.89.77H120c.17-1.69,1.34-1.93,2.47-1.93.78,0,2.19.24,2.19,1.6ZM123.25,5a2.33,2.33,0,0,1-1,.3c-.54.09-1,.22-1,.82a.63.63,0,0,0,.67.67,1.21,1.21,0,0,0,1.3-1.09Z"/><path class="cls-1" d="M131.13,2.13V7.35c0,1-.08,2.54-2.79,2.54-1.14,0-2.34-.49-2.4-1.66h1.57c.06.28.18.56,1,.56s1.15-.37,1.15-1.27V6.86l0,0a1.5,1.5,0,0,1-1.47.83c-1.33,0-2.38-.92-2.38-2.85S126.89,2,128.1,2a1.66,1.66,0,0,1,1.62,1h0V2.13Zm-2.68,4.32c1,0,1.24-.84,1.24-1.6s-.44-1.61-1.25-1.61c-.53,0-1.14.39-1.14,1.67C127.3,5.62,127.59,6.45,128.45,6.45Z"/><path class="cls-1" d="M137.51,7.64h-1.38V6.86h0a1.81,1.81,0,0,1-1.67.92,1.78,1.78,0,0,1-1.88-2V2.13H134V5.55c0,.85.5,1,.95,1a1.1,1.1,0,0,0,1.11-1.25V2.13h1.45Z"/><path class="cls-1" d="M143.81,6a2.38,2.38,0,0,1-2.42,1.76c-1.55,0-2.74-.74-2.74-3A2.56,2.56,0,0,1,141.29,2c1.08,0,2.59.52,2.59,3v.26H140.1c0,.41.12,1.34,1.29,1.34a.92.92,0,0,0,.93-.6Zm-1.43-1.69a1.11,1.11,0,0,0-1.11-1.16c-.69,0-1.05.44-1.13,1.16Z"/></g></g></svg>