<svg xmlns="http://www.w3.org/2000/svg" viewBox="0 0 40 40"><path class="cls-1" d="M33.33,0H6.66A6.9,6.9,0,0,0,0,6.66V33.34A6.9,6.9,0,0,0,6.66,40H33.33A6.9,6.9,0,0,0,40,33.34V6.66A6.9,6.9,0,0,0,33.33,0Z"/><path class="cls-2" d="M30.86,20.54c-1.24,4.28-4.9,8.16-11.64,9.11A13.85,13.85,0,0,1,5.79,24.17c2.75,2.38,4.9,2.11,7.05,1.75a7.16,7.16,0,0,0,3.47-2c-1.3,0-1.81-.48-2-1s.33-1.18,1-1.41c-2.36,0-3-1-3.47-1.78a2.75,2.75,0,0,1,1.85-.79c-2.92-.75-3.07-2.84-3.07-2.84a8.58,8.58,0,0,1,1.73-.22C9.7,14.42,10,12.31,10,12.31s2.76,1,5.25,2.13a11.51,11.51,0,0,1,4.23,2.9,21.89,21.89,0,0,1,1.83-4.15,10.79,10.79,0,0,1,2.42-2.72c.13-.07.28-.14.21,0s-.28.51-.28.51a8,8,0,0,1,.92-.51,4.37,4.37,0,0,1,1-.3c.06,0,.06.09,0,.16A3.93,3.93,0,0,1,25,11a8.15,8.15,0,0,1,1.58-.35c.85,0,.4.6-.17.81-.79.3-1.5.44-1.66.5s-.12.12,0,.12a5.3,5.3,0,0,1,4.23,1.8,5.89,5.89,0,0,1,1.69,3.24c0,.16,0,.37.62.47a10.62,10.62,0,0,0,1.88,0,3.66,3.66,0,0,0,.87-.24c.11-.07.17,0,0,.14a3.17,3.17,0,0,1-1.56,1.14,5,5,0,0,1-1.3.21c-.13,0-.06.09.08.14a5.17,5.17,0,0,0,1.29.26,8.89,8.89,0,0,0,1.57,0c.14,0,.09.06,0,.16a3.57,3.57,0,0,1-1.6.92A15.66,15.66,0,0,1,30.86,20.54Z"/></svg>