<svg xmlns="http://www.w3.org/2000/svg" viewBox="0 0 40 40"><path class="cls-1" d="M28.3,40H11.69A11.7,11.7,0,0,1,0,28.31V11.7A11.71,11.71,0,0,1,11.69,0H28.3A11.72,11.72,0,0,1,40,11.7V28.31A11.71,11.71,0,0,1,28.3,40ZM11.69,3.73a8,8,0,0,0-8,8V28.31a8,8,0,0,0,8,8H28.3a8,8,0,0,0,8-8V11.7a8,8,0,0,0-8-8Z"/><path class="cls-1" d="M33.18,9.33a2.5,2.5,0,1,1-2.49-2.49A2.5,2.5,0,0,1,33.18,9.33Z"/><path class="cls-1" d="M20,30.35A10.35,10.35,0,1,1,30.34,20,10.36,10.36,0,0,1,20,30.35Zm0-17A6.61,6.61,0,1,0,26.61,20,6.62,6.62,0,0,0,20,13.39Z"/></svg>