<svg xmlns="http://www.w3.org/2000/svg" xmlns:xlink="http://www.w3.org/1999/xlink" viewBox="0 0 195.88 180"><defs><style>.cls-1{fill:none;}.cls-2{fill:#150301;}.cls-3{fill:url(#名称未設定グラデーション_59);}.cls-4{fill:url(#名称未設定グラデーション_59-2);}.cls-5{fill:url(#名称未設定グラデーション_59-3);}.cls-6{fill:url(#名称未設定グラデーション_59-4);}.cls-7{fill:url(#名称未設定グラデーション_59-5);}.cls-8{fill:url(#名称未設定グラデーション_59-6);}.cls-9{fill:url(#名称未設定グラデーション_59-7);}.cls-10{fill:url(#名称未設定グラデーション_59-8);}.cls-11{fill:url(#名称未設定グラデーション_59-9);}.cls-12{fill:url(#名称未設定グラデーション_59-10);}.cls-13{fill:url(#名称未設定グラデーション_59-11);}.cls-14{fill:url(#名称未設定グラデーション_59-12);}.cls-15{fill:url(#名称未設定グラデーション_59-13);}.cls-16{fill:url(#名称未設定グラデーション_59-14);}.cls-17{fill:url(#名称未設定グラデーション_59-15);}.cls-18{fill:url(#名称未設定グラデーション_59-16);}.cls-19{fill:url(#名称未設定グラデーション_59-17);}.cls-20{fill:url(#名称未設定グラデーション_59-18);}.cls-21{fill:url(#名称未設定グラデーション_59-19);}.cls-22{fill:url(#名称未設定グラデーション_59-20);}.cls-23{fill:url(#名称未設定グラデーション_59-21);}.cls-24{fill:url(#名称未設定グラデーション_59-22);}.cls-25{fill:url(#名称未設定グラデーション_59-23);}.cls-26{fill:url(#名称未設定グラデーション_59-24);}.cls-27{fill:url(#名称未設定グラデーション_59-25);}.cls-28{fill:url(#名称未設定グラデーション_59-26);}.cls-29{fill:url(#名称未設定グラデーション_59-27);}.cls-30{fill:url(#名称未設定グラデーション_59-28);}.cls-31{fill:url(#名称未設定グラデーション_59-29);}.cls-32{fill:url(#名称未設定グラデーション_59-30);}.cls-33{fill:url(#名称未設定グラデーション_59-31);}.cls-34{fill:url(#名称未設定グラデーション_59-32);}.cls-35{fill:url(#名称未設定グラデーション_59-33);}.cls-36{fill:url(#名称未設定グラデーション_59-34);}.cls-37{fill:url(#名称未設定グラデーション_59-35);}.cls-38{fill:url(#名称未設定グラデーション_59-36);}.cls-39{fill:url(#名称未設定グラデーション_59-37);}.cls-40{fill:url(#名称未設定グラデーション_59-38);}.cls-41{fill:url(#名称未設定グラデーション_59-39);}.cls-42{fill:url(#名称未設定グラデーション_59-40);}.cls-43{fill:url(#名称未設定グラデーション_59-41);}.cls-44{fill:url(#名称未設定グラデーション_59-42);}.cls-45{fill:url(#名称未設定グラデーション_59-43);}.cls-46{fill:url(#名称未設定グラデーション_59-44);}.cls-47{fill:url(#名称未設定グラデーション_59-45);}.cls-48{fill:url(#名称未設定グラデーション_59-46);}.cls-49{fill:url(#名称未設定グラデーション_59-47);}.cls-50{fill:url(#名称未設定グラデーション_59-48);}.cls-51{fill:url(#名称未設定グラデーション_59-49);}.cls-52{fill:url(#名称未設定グラデーション_59-50);}.cls-53{fill:url(#名称未設定グラデーション_59-51);}.cls-54{fill:url(#名称未設定グラデーション_59-52);}.cls-55{fill:url(#名称未設定グラデーション_59-53);}.cls-56{fill:url(#名称未設定グラデーション_59-54);}.cls-57{fill:url(#名称未設定グラデーション_59-55);}.cls-58{fill:url(#名称未設定グラデーション_59-56);}.cls-59{fill:url(#名称未設定グラデーション_59-57);}.cls-60{fill:url(#名称未設定グラデーション_59-58);}.cls-61{fill:url(#名称未設定グラデーション_59-59);}.cls-62{fill:url(#名称未設定グラデーション_59-60);}.cls-63{fill:url(#名称未設定グラデーション_59-61);}.cls-64{fill:url(#名称未設定グラデーション_59-62);}.cls-65{fill:url(#名称未設定グラデーション_59-63);}.cls-66{fill:url(#名称未設定グラデーション_59-64);}.cls-67{fill:url(#名称未設定グラデーション_59-65);}.cls-68{fill:url(#名称未設定グラデーション_59-66);}.cls-69{fill:url(#名称未設定グラデーション_59-67);}.cls-70{fill:url(#名称未設定グラデーション_59-68);}.cls-71{fill:url(#名称未設定グラデーション_59-69);}.cls-72{fill:url(#名称未設定グラデーション_59-70);}.cls-73{fill:url(#名称未設定グラデーション_59-71);}.cls-74{fill:url(#名称未設定グラデーション_59-72);}.cls-75{fill:url(#名称未設定グラデーション_59-73);}.cls-76{fill:url(#名称未設定グラデーション_59-74);}.cls-77{fill:url(#名称未設定グラデーション_59-75);}.cls-78{fill:url(#名称未設定グラデーション_59-76);}.cls-79{fill:url(#名称未設定グラデーション_59-77);}.cls-80{fill:url(#名称未設定グラデーション_59-78);}.cls-81{fill:url(#名称未設定グラデーション_59-79);}.cls-82{fill:url(#名称未設定グラデーション_59-80);}.cls-83{fill:url(#名称未設定グラデーション_59-81);}.cls-84{fill:url(#名称未設定グラデーション_59-82);}.cls-85{fill:url(#名称未設定グラデーション_59-83);}.cls-86{fill:url(#名称未設定グラデーション_59-84);}.cls-87{fill:url(#名称未設定グラデーション_59-85);}.cls-88{fill:url(#名称未設定グラデーション_59-86);}.cls-89{fill:url(#名称未設定グラデーション_59-87);}.cls-90{fill:url(#名称未設定グラデーション_59-88);}.cls-91{fill:url(#名称未設定グラデーション_59-89);}.cls-92{fill:url(#名称未設定グラデーション_59-90);}.cls-93{fill:url(#名称未設定グラデーション_59-91);}.cls-94{fill:url(#名称未設定グラデーション_59-92);}.cls-95{fill:url(#名称未設定グラデーション_59-93);}.cls-96{fill:url(#名称未設定グラデーション_59-94);}.cls-97{fill:url(#名称未設定グラデーション_105);}.cls-98{fill:#c6000b;}.cls-99{fill:#006446;}.cls-100{fill:#30a6d9;}</style><linearGradient id="名称未設定グラデーション_59" x1="172.54" y1="63.08" x2="173.22" y2="63.08" gradientUnits="userSpaceOnUse"><stop offset="0" stop-color="#fccf00"/><stop offset="0.3" stop-color="#f08c00"/><stop offset="0.6" stop-color="#ffd800"/></linearGradient><linearGradient id="名称未設定グラデーション_59-2" x1="174.07" y1="61.6" x2="174.61" y2="61.6" xlink:href="#名称未設定グラデーション_59"/><linearGradient id="名称未設定グラデーション_59-3" x1="144.38" y1="91.76" x2="144.47" y2="91.76" xlink:href="#名称未設定グラデーション_59"/><linearGradient id="名称未設定グラデーション_59-4" x1="144.02" y1="92.04" x2="144.38" y2="92.04" xlink:href="#名称未設定グラデーション_59"/><linearGradient id="名称未設定グラデーション_59-5" x1="188.15" y1="32.51" x2="188.73" y2="32.51" xlink:href="#名称未設定グラデーション_59"/><linearGradient id="名称未設定グラデーション_59-6" x1="187.83" y1="33.34" x2="188.4" y2="33.34" xlink:href="#名称未設定グラデーション_59"/><linearGradient id="名称未設定グラデーション_59-7" x1="166.11" y1="51.28" x2="168.4" y2="51.28" xlink:href="#名称未設定グラデーション_59"/><linearGradient id="名称未設定グラデーション_59-8" x1="98.12" y1="128.23" x2="98.15" y2="128.23" xlink:href="#名称未設定グラデーション_59"/><linearGradient id="名称未設定グラデーション_59-9" x1="189" y1="30.84" x2="192.15" y2="30.84" xlink:href="#名称未設定グラデーション_59"/><linearGradient id="名称未設定グラデーション_59-10" x1="157.21" y1="61.73" x2="158.53" y2="61.73" xlink:href="#名称未設定グラデーション_59"/><linearGradient id="名称未設定グラデーション_59-11" x1="181.83" y1="39.03" x2="182.29" y2="39.03" xlink:href="#名称未設定グラデーション_59"/><linearGradient id="名称未設定グラデーション_59-12" x1="178" y1="39.98" x2="178.49" y2="39.98" xlink:href="#名称未設定グラデーション_59"/><linearGradient id="名称未設定グラデーション_59-13" x1="182.65" y1="38.18" x2="183.15" y2="38.18" xlink:href="#名称未設定グラデーション_59"/><linearGradient id="名称未設定グラデーション_59-14" x1="184.66" y1="35.3" x2="185.66" y2="35.3" xlink:href="#名称未設定グラデーション_59"/><linearGradient id="名称未設定グラデーション_59-15" x1="178.77" y1="39.15" x2="179.39" y2="39.15" xlink:href="#名称未設定グラデーション_59"/><linearGradient id="名称未設定グラデーション_59-16" x1="176.09" y1="42.06" x2="176.67" y2="42.06" xlink:href="#名称未設定グラデーション_59"/><linearGradient id="名称未設定グラデーション_59-17" x1="156.53" y1="74.3" x2="157.02" y2="74.3" xlink:href="#名称未設定グラデーション_59"/><linearGradient id="名称未設定グラデーション_59-18" x1="169.91" y1="48.12" x2="170.38" y2="48.12" xlink:href="#名称未設定グラデーション_59"/><linearGradient id="名称未設定グラデーション_59-19" x1="174.22" y1="43.45" x2="175.99" y2="43.45" xlink:href="#名称未設定グラデーション_59"/><linearGradient id="名称未設定グラデーション_59-20" x1="155.7" y1="73.59" x2="156.11" y2="73.59" xlink:href="#名称未設定グラデーション_59"/><linearGradient id="名称未設定グラデーション_59-21" x1="160.92" y1="59.02" x2="162.41" y2="59.02" xlink:href="#名称未設定グラデーション_59"/><linearGradient id="名称未設定グラデーション_59-22" x1="163.32" y1="57.46" x2="163.94" y2="57.46" xlink:href="#名称未設定グラデーション_59"/><linearGradient id="名称未設定グラデーション_59-23" x1="162.25" y1="58.61" x2="163.03" y2="58.61" xlink:href="#名称未設定グラデーション_59"/><linearGradient id="名称未設定グラデーション_59-24" x1="160.56" y1="60.6" x2="161.13" y2="60.6" xlink:href="#名称未設定グラデーション_59"/><linearGradient id="名称未設定グラデーション_59-25" x1="166.4" y1="53.29" x2="166.93" y2="53.29" xlink:href="#名称未設定グラデーション_59"/><linearGradient id="名称未設定グラデーション_59-26" x1="165.53" y1="55.23" x2="166" y2="55.23" xlink:href="#名称未設定グラデーション_59"/><linearGradient id="名称未設定グラデーション_59-27" x1="172" y1="48.79" x2="172.53" y2="48.79" xlink:href="#名称未設定グラデーション_59"/><linearGradient id="名称未設定グラデーション_59-28" x1="166.85" y1="53.74" x2="167.38" y2="53.74" xlink:href="#名称未設定グラデーション_59"/><linearGradient id="名称未設定グラデーション_59-29" x1="159.81" y1="61.46" x2="160.3" y2="61.46" xlink:href="#名称未設定グラデーション_59"/><linearGradient id="名称未設定グラデーション_59-30" x1="156.24" y1="65.07" x2="157.13" y2="65.07" xlink:href="#名称未設定グラデーション_59"/><linearGradient id="名称未設定グラデーション_59-31" x1="149.6" y1="71.94" x2="151.91" y2="71.94" xlink:href="#名称未設定グラデーション_59"/><linearGradient id="名称未設定グラデーション_59-32" x1="152.6" y1="69.18" x2="153.28" y2="69.18" xlink:href="#名称未設定グラデーション_59"/><linearGradient id="名称未設定グラデーション_59-33" x1="182.17" y1="46.96" x2="182.5" y2="46.96" xlink:href="#名称未設定グラデーション_59"/><linearGradient id="名称未設定グラデーション_59-34" x1="182.4" y1="46.21" x2="183.06" y2="46.21" xlink:href="#名称未設定グラデーション_59"/><linearGradient id="名称未設定グラデーション_59-35" x1="158.04" y1="62.9" x2="159.33" y2="62.9" xlink:href="#名称未設定グラデーション_59"/><linearGradient id="名称未設定グラデーション_59-36" x1="150.85" y1="70.89" x2="151.78" y2="70.89" xlink:href="#名称未設定グラデーション_59"/><linearGradient id="名称未設定グラデーション_59-37" x1="143.86" y1="92.63" x2="144.2" y2="92.63" xlink:href="#名称未設定グラデーション_59"/><linearGradient id="名称未設定グラデーション_59-38" x1="157.25" y1="64.19" x2="157.93" y2="64.19" xlink:href="#名称未設定グラデーション_59"/><linearGradient id="名称未設定グラデーション_59-39" x1="153.41" y1="67.95" x2="155.02" y2="67.95" xlink:href="#名称未設定グラデーション_59"/><linearGradient id="名称未設定グラデーション_59-40" x1="163.85" y1="71.37" x2="164.72" y2="71.37" xlink:href="#名称未設定グラデーション_59"/><linearGradient id="名称未設定グラデーション_59-41" x1="166.83" y1="68.03" x2="167.94" y2="68.03" xlink:href="#名称未設定グラデーション_59"/><linearGradient id="名称未設定グラデーション_59-42" x1="166.95" y1="68.29" x2="168.1" y2="68.29" xlink:href="#名称未設定グラデーション_59"/><linearGradient id="名称未設定グラデーション_59-43" x1="160.39" y1="75.14" x2="161.01" y2="75.14" xlink:href="#名称未設定グラデーション_59"/><linearGradient id="名称未設定グラデーション_59-44" x1="163.52" y1="72.07" x2="164.4" y2="72.07" xlink:href="#名称未設定グラデーション_59"/><linearGradient id="名称未設定グラデーション_59-45" x1="158.18" y1="77.44" x2="158.64" y2="77.44" xlink:href="#名称未設定グラデーション_59"/><linearGradient id="名称未設定グラデーション_59-46" x1="153.94" y1="82.28" x2="154.82" y2="82.28" xlink:href="#名称未設定グラデーション_59"/><linearGradient id="名称未設定グラデーション_59-47" x1="153.11" y1="82.89" x2="153.77" y2="82.89" xlink:href="#名称未設定グラデーション_59"/><linearGradient id="名称未設定グラデーション_59-48" x1="152.75" y1="83.69" x2="153.14" y2="83.69" xlink:href="#名称未設定グラデーション_59"/><linearGradient id="名称未設定グラデーション_59-49" x1="148.56" y1="88.15" x2="148.83" y2="88.15" xlink:href="#名称未設定グラデーション_59"/><linearGradient id="名称未設定グラデーション_59-50" x1="154.03" y1="81.39" x2="155.11" y2="81.39" xlink:href="#名称未設定グラデーション_59"/><linearGradient id="名称未設定グラデーション_59-51" x1="151.86" y1="83.64" x2="152.34" y2="83.64" xlink:href="#名称未設定グラデーション_59"/><linearGradient id="名称未設定グラデーション_59-52" x1="153.95" y1="82.16" x2="154.26" y2="82.16" xlink:href="#名称未設定グラデーション_59"/><linearGradient id="名称未設定グラデーション_59-53" x1="155.84" y1="79.54" x2="157.49" y2="79.54" xlink:href="#名称未設定グラデーション_59"/><linearGradient id="名称未設定グラデーション_59-54" x1="155.23" y1="80.77" x2="156.08" y2="80.77" xlink:href="#名称未設定グラデーション_59"/><linearGradient id="名称未設定グラデーション_59-55" x1="157.22" y1="78.61" x2="157.76" y2="78.61" xlink:href="#名称未設定グラデーション_59"/><linearGradient id="名称未設定グラデーション_59-56" x1="144.66" y1="91.94" x2="145.04" y2="91.94" xlink:href="#名称未設定グラデーション_59"/><linearGradient id="名称未設定グラデーション_59-57" x1="178.26" y1="45.04" x2="178.91" y2="45.04" xlink:href="#名称未設定グラデーション_59"/><linearGradient id="名称未設定グラデーション_59-58" x1="149.31" y1="81.76" x2="149.84" y2="81.76" xlink:href="#名称未設定グラデーション_59"/><linearGradient id="名称未設定グラデーション_59-59" x1="145.02" y1="86.77" x2="145.72" y2="86.77" xlink:href="#名称未設定グラデーション_59"/><linearGradient id="名称未設定グラデーション_59-60" x1="186.84" y1="34.43" x2="187.33" y2="34.43" xlink:href="#名称未設定グラデーション_59"/><linearGradient id="名称未設定グラデーション_59-61" x1="154.96" y1="75.57" x2="155.38" y2="75.57" xlink:href="#名称未設定グラデーション_59"/><linearGradient id="名称未設定グラデーション_59-62" x1="182.79" y1="46.2" x2="183.25" y2="46.2" xlink:href="#名称未設定グラデーション_59"/><linearGradient id="名称未設定グラデーション_59-63" x1="186.14" y1="34.62" x2="186.6" y2="34.62" xlink:href="#名称未設定グラデーション_59"/><linearGradient id="名称未設定グラデーション_59-64" x1="141.51" y1="90.14" x2="142.13" y2="90.14" xlink:href="#名称未設定グラデーション_59"/><linearGradient id="名称未設定グラデーション_59-65" x1="143.5" y1="87.88" x2="143.96" y2="87.88" xlink:href="#名称未設定グラデーション_59"/><linearGradient id="名称未設定グラデーション_59-66" x1="184.98" y1="46.31" x2="185.66" y2="46.31" xlink:href="#名称未設定グラデーション_59"/><linearGradient id="名称未設定グラデーション_59-67" x1="137.66" y1="94.01" x2="139.22" y2="94.01" xlink:href="#名称未設定グラデーション_59"/><linearGradient id="名称未設定グラデーション_59-68" x1="175.24" y1="55.2" x2="175.69" y2="55.2" xlink:href="#名称未設定グラデーション_59"/><linearGradient id="名称未設定グラデーション_59-69" x1="185.94" y1="45.17" x2="186.45" y2="45.17" xlink:href="#名称未設定グラデーション_59"/><linearGradient id="名称未設定グラデーション_59-70" x1="135.79" y1="96.88" x2="136.21" y2="96.88" xlink:href="#名称未設定グラデーション_59"/><linearGradient id="名称未設定グラデーション_59-71" x1="178.67" y1="51.55" x2="179.38" y2="51.55" xlink:href="#名称未設定グラデーション_59"/><linearGradient id="名称未設定グラデーション_59-72" x1="135.01" y1="97.57" x2="135.67" y2="97.57" xlink:href="#名称未設定グラデーション_59"/><linearGradient id="名称未設定グラデーション_59-73" x1="180.97" y1="49.25" x2="181.75" y2="49.25" xlink:href="#名称未設定グラデーション_59"/><linearGradient id="名称未設定グラデーション_59-74" x1="145.79" y1="85.82" x2="146.45" y2="85.82" xlink:href="#名称未設定グラデーション_59"/><linearGradient id="名称未設定グラデーション_59-75" x1="177.31" y1="50.88" x2="177.94" y2="50.88" xlink:href="#名称未設定グラデーション_59"/><linearGradient id="名称未設定グラデーション_59-76" x1="175.37" y1="49.83" x2="177.2" y2="49.83" xlink:href="#名称未設定グラデーション_59"/><linearGradient id="名称未設定グラデーション_59-77" x1="162.34" y1="67.12" x2="163.1" y2="67.12" xlink:href="#名称未設定グラデーション_59"/><linearGradient id="名称未設定グラデーション_59-78" x1="175.37" y1="47.96" x2="176.22" y2="47.96" xlink:href="#名称未設定グラデーション_59"/><linearGradient id="名称未設定グラデーション_59-79" x1="173.77" y1="50.91" x2="174.15" y2="50.91" xlink:href="#名称未設定グラデーション_59"/><linearGradient id="名称未設定グラデーション_59-80" x1="175.83" y1="48.82" x2="176.39" y2="48.82" xlink:href="#名称未設定グラデーション_59"/><linearGradient id="名称未設定グラデーション_59-81" x1="181.52" y1="40.7" x2="182.04" y2="40.7" xlink:href="#名称未設定グラデーション_59"/><linearGradient id="名称未設定グラデーション_59-82" x1="179.51" y1="42.82" x2="180.13" y2="42.82" xlink:href="#名称未設定グラデーション_59"/><linearGradient id="名称未設定グラデーション_59-83" x1="178" y1="47.51" x2="178.5" y2="47.51" xlink:href="#名称未設定グラデーション_59"/><linearGradient id="名称未設定グラデーション_59-84" x1="157.02" y1="74.03" x2="157.02" y2="74.03" xlink:href="#名称未設定グラデーション_59"/><linearGradient id="名称未設定グラデーション_59-85" x1="177.34" y1="48.28" x2="177.89" y2="48.28" xlink:href="#名称未設定グラデーション_59"/><linearGradient id="名称未設定グラデーション_59-86" x1="174.75" y1="53.83" x2="175.13" y2="53.83" xlink:href="#名称未設定グラデーション_59"/><linearGradient id="名称未設定グラデーション_59-87" x1="170.13" y1="58.69" x2="170.89" y2="58.69" xlink:href="#名称未設定グラデーション_59"/><linearGradient id="名称未設定グラデーション_59-88" x1="171.61" y1="54.47" x2="172.48" y2="54.47" xlink:href="#名称未設定グラデーション_59"/><linearGradient id="名称未設定グラデーション_59-89" x1="168.69" y1="60.49" x2="169.03" y2="60.49" xlink:href="#名称未設定グラデーション_59"/><linearGradient id="名称未設定グラデーション_59-90" x1="172.32" y1="51.38" x2="172.76" y2="51.38" xlink:href="#名称未設定グラデーション_59"/><linearGradient id="名称未設定グラデーション_59-91" x1="173.01" y1="52.16" x2="174.89" y2="52.16" xlink:href="#名称未設定グラデーション_59"/><linearGradient id="名称未設定グラデーション_59-92" x1="172.65" y1="53.24" x2="173.28" y2="53.24" xlink:href="#名称未設定グラデーション_59"/><linearGradient id="名称未設定グラデーション_59-93" x1="163.54" y1="55.33" x2="163.89" y2="55.33" xlink:href="#名称未設定グラデーション_59"/><linearGradient id="名称未設定グラデーション_59-94" x1="39.71" y1="92.84" x2="184.86" y2="92.84" xlink:href="#名称未設定グラデーション_59"/><linearGradient id="名称未設定グラデーション_105" x1="39.76" y1="87.25" x2="162.25" y2="87.25" gradientUnits="userSpaceOnUse"><stop offset="0" stop-color="#766e6a"/><stop offset="1" stop-color="#150301"/></linearGradient></defs><g id="レイヤー_2" data-name="レイヤー 2"><g id="レイヤー_1-2" data-name="レイヤー 1"><rect class="cls-1" width="195.88" height="158.57"/><path class="cls-2" d="M116.47,97.38,115.4,82.54,110.69,17H97.85L84.38,26l-5,71.43h0L97.94,116.5Zm-24.64-3.8L93.32,28l4.54-3.15h4.46L104,93.58l-6.09,5.9Z"/><polygon class="cls-2" points="71.16 16.99 67.87 39.37 65.86 16.99 57.3 16.99 46.84 63.88 55.96 73.27 59.86 51.11 61.99 79.48 72.44 90.24 79.26 21.62 86.51 16.99 71.16 16.99"/><polygon class="cls-2" points="149.94 9.33 45.75 9.33 27.94 68.72 97.95 149.22 97.95 149.22 39.71 65.7 52.77 13.98 142.92 13.98 151.47 47.59 131.9 66.55 125.23 21.62 131.34 16.99 115.98 16.99 123.39 90.24 162.25 50.15 162.25 50.15 149.94 9.33"/><path class="cls-3" d="M173.21,62.6a2.47,2.47,0,0,0-.67,1C172.76,63.26,173.24,62.76,173.21,62.6Z"/><path class="cls-4" d="M174.52,61.4c-.12.08-.23.15-.2.05-.12.09-.17.28-.25.43.19-.15.35-.35.53-.52C174.63,61.25,174.54,61.35,174.52,61.4Z"/><path class="cls-5" d="M144.38,91.82l.09-.11a.18.18,0,0,1-.07.05S144.38,91.8,144.38,91.82Z"/><path class="cls-6" d="M144.38,91.82c-.12.13-.24.24-.35.37S144.3,92,144.38,91.82Z"/><path class="cls-7" d="M188.15,32.82c.19-.22.45-.32.58-.62A1.35,1.35,0,0,0,188.15,32.82Z"/><path class="cls-8" d="M187.83,33.65c.21-.19.47-.28.57-.62C188.24,33.27,188,33.35,187.83,33.65Z"/><path class="cls-9" d="M167.23,51.51c0-.42.88-1,1.17-1.54-.87.89-1.56,1.8-2.27,2.55-.08.26.21-.2.32-.19A2.2,2.2,0,0,1,167.23,51.51Z"/><path class="cls-10" d="M98.12,128.28h0a.42.42,0,0,0,0-.09Z"/><path class="cls-11" d="M191.75,29.28a16.62,16.62,0,0,1-1.68,1.77c-.17.39-.28.45-.46.48s.13,0,.07.1c-.2.33-.14,0-.39.24,0,.18-.11.31-.29.88a3.54,3.54,0,0,0,.59-.92c.29-.08.41-.39.58-.63.57-.24,1.1-1.09,1.38-1.24.2-.43-.44.18-.55.33.16-.41.55-.5.71-.92.13-.05-.11.34.18.11.07-.17.19-.27.26-.44C191.64,29.61,192,28.35,191.75,29.28Z"/><path class="cls-12" d="M157.21,62.47,158.53,61A6.59,6.59,0,0,0,157.21,62.47Z"/><path class="cls-13" d="M182.29,38.77,182,39a.3.3,0,0,1-.13.29C181.79,39.43,182.25,39,182.29,38.77Z"/><path class="cls-14" d="M178.31,40.14l.18-.39c-.24.28-.31.21-.48.29S178.08,40.25,178.31,40.14Z"/><path class="cls-15" d="M183.15,37.91c0-.18-.45.3-.5.58C182.9,38.41,182.92,38,183.15,37.91Z"/><path class="cls-16" d="M185.66,34.73a6.56,6.56,0,0,0-1,1.15c.26-.21.15,0,.36-.14C185,35.4,185.43,35.14,185.66,34.73Z"/><path class="cls-17" d="M179.39,38.79l-.32.19c-.06.24-.23.32-.3.53A1.35,1.35,0,0,0,179.39,38.79Z"/><path class="cls-18" d="M176.09,42.45a2.34,2.34,0,0,0,.58-.78C176.42,41.85,176.3,42.21,176.09,42.45Z"/><path class="cls-19" d="M156.54,74.46c-.08.37.26-.28.48-.43A2.46,2.46,0,0,0,156.54,74.46Z"/><path class="cls-20" d="M169.92,48.44a3.64,3.64,0,0,0,.46-.63C170.15,47.94,169.85,48.33,169.92,48.44Z"/><path class="cls-21" d="M174.83,44c-.1-.13,0-.21.27-.59,0,0,.09,0,.2,0a1.36,1.36,0,0,1,.5-.58c.12-.24.22-.47.18-.54-.1.11-.24.35-.2.2-.16.08-.2.36-.3.53a1.75,1.75,0,0,0-.68.47c.14.2-.29.67-.58,1.12A2.06,2.06,0,0,1,174.83,44Z"/><path class="cls-22" d="M156.11,73.37l-.31.19s0,.11-.09.19S156.08,73.56,156.11,73.37Z"/><path class="cls-23" d="M162.21,58.52c.06-.28.24-.45.19-.54-.31.15-.11.24-.18.39s-.08,0-.32.19a3.31,3.31,0,0,1-1,1.2c0,.12,0,.18,0,.3A7.06,7.06,0,0,1,162.21,58.52Z"/><path class="cls-24" d="M163.84,57.48c.21-.35,0-.23.07-.39a6.47,6.47,0,0,0-.57.47c-.11.28.23,0,.4-.23s-.17.36-.26.44C163.44,58.05,163.7,57.47,163.84,57.48Z"/><path class="cls-25" d="M163,58.24c-.09-.17-.53.53-.77.67C162.2,59.27,162.82,58.51,163,58.24Z"/><path class="cls-26" d="M160.56,60.84c.06.08.45-.18.57-.48C161.08,60.28,160.66,60.51,160.56,60.84Z"/><path class="cls-27" d="M166.4,53.56c0,.21.39-.4.53-.53C166.9,52.79,166.55,53.43,166.4,53.56Z"/><path class="cls-28" d="M165.55,55.41c-.09.27.15,0,.35-.14s.07-.23.1-.34a1.3,1.3,0,0,0-.26.43S165.66,55.34,165.55,55.41Z"/><path class="cls-29" d="M172.29,48.94c0-.27.38-.5.19-.54-.31.27-.19.35-.48.78A1.32,1.32,0,0,1,172.29,48.94Z"/><path class="cls-30" d="M167.35,53.63c.06-.19,0-.26-.14-.2-.09.33-.44.52-.35.63C167.07,54,167.11,53.67,167.35,53.63Z"/><path class="cls-31" d="M159.81,61.7c-.06.21.26-.36.45-.33.14-.24-.09,0,0-.2A3.16,3.16,0,0,0,159.81,61.7Z"/><path class="cls-32" d="M156.24,65.45c.44-.37,0,.29.42,0-.11-.19.34-.46.47-.78C156.71,65.06,156.48,65,156.24,65.45Z"/><path class="cls-33" d="M150.16,72.37c.1,0-.08.27.23,0,.15-.2.2-.3.18-.39.14-.09.11,0,.27-.09a5.16,5.16,0,0,1,1.07-1.2c-.21-.14-.69.72-1.09.86a1.13,1.13,0,0,1-.65.67,7.64,7.64,0,0,0-.57,1l.41-.39c.15-.24-.09,0,0-.19S150.11,72.47,150.16,72.37Z"/><path class="cls-34" d="M152.83,69.59c.19-.09.23-.41.45-.48-.13,0,.17-.48-.21-.3a2.14,2.14,0,0,1-.46.63c-.08.21.26-.24.36-.29S152.67,69.58,152.83,69.59Z"/><path class="cls-35" d="M182.5,46.85c0-.16-.1-.14-.27-.06-.12.25,0,.23-.06.39C182.29,47.09,182.37,46.94,182.5,46.85Z"/><path class="cls-36" d="M183.06,45.88c-.25.18-.53.31-.66.67A2.8,2.8,0,0,0,183.06,45.88Z"/><path class="cls-37" d="M158,63.67c.57-.69,1.06-.73,1.29-1.54-.1.11-.2.2-.16.1C158.85,62.8,158.35,63.1,158,63.67Z"/><path class="cls-38" d="M151.78,70.35c-.34.26-.5.78-.9,1-.13.33.22-.13.15,0A12.58,12.58,0,0,0,151.78,70.35Z"/><path class="cls-39" d="M143.93,92.54c-.05.16.14,0-.07.39C144.18,92.62,144.39,92,143.93,92.54Z"/><path class="cls-40" d="M157.7,64.16a.86.86,0,0,1,.21-.34c.09-.26-.21.19-.31.19.22,0-.21.26-.35.63C157.48,64.6,157.47,64.19,157.7,64.16Z"/><path class="cls-41" d="M155,67.09c-.33.17-.51.56-.78.81-.17.09-.06-.14.06-.39-.48.44-.28.66-.89,1.31.2,0,.18-.1.48-.29.21-.41-.12.09-.27.1A13.78,13.78,0,0,0,155,67.09Z"/><path class="cls-42" d="M164.65,71.28c.24-.37-.23.08,0-.3-.29.26-.54.22-.82.77C164.07,71.86,164.56,71,164.65,71.28Z"/><path class="cls-43" d="M167.29,68.3c0-.31.44-.57.65-1-.33.23-.53.64-.9.81-.07.19.12.07.18.11-.13.24-.47.47-.38.58C167,68.65,167.08,68.36,167.29,68.3Z"/><path class="cls-44" d="M167.35,68.55c.29-.23.41-.71.75-.87.06-.18-.95.75-1.15,1.25C167.05,68.84,167.38,68.3,167.35,68.55Z"/><path class="cls-45" d="M161,74.78a2.43,2.43,0,0,0-.62.72A2.71,2.71,0,0,0,161,74.78Z"/><path class="cls-46" d="M163.53,72.58a4.53,4.53,0,0,1,.87-1C164.29,71.47,163.45,72.38,163.53,72.58Z"/><path class="cls-47" d="M158.46,77.56l.18-.39c-.18.13-.28.36-.46.48C158.15,77.77,158.35,77.62,158.46,77.56Z"/><path class="cls-48" d="M154.82,81.7c-.36.34-.87.81-.88,1.16C154.21,82.45,154.63,82.24,154.82,81.7Z"/><path class="cls-49" d="M153.76,82.61c0-.1-.12,0-.07-.1a5.74,5.74,0,0,0-.58.77A8.25,8.25,0,0,1,153.76,82.61Z"/><path class="cls-50" d="M152.75,84.06c.12-.1.2-.25.33-.34.19-.33-.14-.06.06-.39A5.46,5.46,0,0,0,152.75,84.06Z"/><path class="cls-51" d="M148.79,87.89c-.38.31,0,.32-.23.49C148.66,88.56,148.93,87.82,148.79,87.89Z"/><path class="cls-52" d="M155.11,80.82c-.16,0-.75.76-1.07,1.06-.12.3.47-.46.35-.14A3.18,3.18,0,0,1,155.11,80.82Z"/><path class="cls-53" d="M152.19,83.9a.94.94,0,0,0,.15-.59C151.83,84,151.64,84.06,152.19,83.9Z"/><path class="cls-54" d="M154.11,82c-.29.28-.14.43,0,.34C154.44,82,154.12,82.1,154.11,82Z"/><path class="cls-55" d="M156.45,80.17c-.13-.3.42-.42.82-.91,0-.09,0-.19.22-.34-.07-.09-.58.55-.82.76,0-.23-.61.26-.83.42C156,80.23,156.23,80.16,156.45,80.17Z"/><path class="cls-56" d="M155.24,81.17c0,.12.16,0,.27-.09a1.36,1.36,0,0,1,.5-.58c.2-.35-.09,0-.16.1s-.18.05-.15-.06c-.12.1-.21.25-.33.34C155.51,80.79,155.72,80.85,155.24,81.17Z"/><path class="cls-57" d="M157.22,78.86c0,.14.49-.25.54-.53C157.53,78.43,157.43,78.72,157.22,78.86Z"/><path class="cls-58" d="M144.79,92.16a.61.61,0,0,1,.17-.24c.18-.15,0-.1-.08,0-.07,0,0-.12,0-.29C144.68,91.88,144.54,92.36,144.79,92.16Z"/><path class="cls-59" d="M178.26,45.26c0,.17.42-.34.64-.38C179,44.56,178.47,45.09,178.26,45.26Z"/><path class="cls-60" d="M149.67,81.71c.14-.11,0-.13.17-.24s-.27.24-.37.29,0,.17-.13.29,0,.07,0,0l.16-.1C149.44,82.05,149.71,81.47,149.67,81.71Z"/><path class="cls-61" d="M145.47,86.67c-.11.08-.23.15-.19,0a1.3,1.3,0,0,0-.26.43l.4-.23c.06-.24.23-.32.3-.54A.6.6,0,0,0,145.47,86.67Z"/><path class="cls-62" d="M186.84,34.66c.07.09.17-.14.4-.24a.17.17,0,0,1,.09-.19C187.37,34.05,186.9,34.45,186.84,34.66Z"/><path class="cls-63" d="M155,75.65c-.15.3.13.18.31,0,.24-.37-.22.08,0-.29C155.23,75.44,155.09,75.5,155,75.65Z"/><path class="cls-64" d="M183.24,46c0-.2-.38.29-.45.48C183,46.43,183.07,46.11,183.24,46Z"/><path class="cls-65" d="M186.14,34.93c.15,0,.24-.19.36-.28s0-.15.1-.34C186.36,34.48,186.41,34.57,186.14,34.93Z"/><path class="cls-66" d="M141.51,90.5a2.3,2.3,0,0,0,.62-.72A1.91,1.91,0,0,0,141.51,90.5Z"/><path class="cls-67" d="M144,87.57a2.28,2.28,0,0,0-.46.62A1,1,0,0,0,144,87.57Z"/><path class="cls-68" d="M185.66,45.75a3.76,3.76,0,0,0-.68,1.11A5.77,5.77,0,0,0,185.66,45.75Z"/><path class="cls-69" d="M138.93,93.09A15.19,15.19,0,0,0,137.66,95a20.38,20.38,0,0,0,1.3-1.69c.08,0,0,.14-.06.25C139.39,93.13,139.26,92.92,138.93,93.09Z"/><path class="cls-70" d="M175.38,55.52c.18-.35.29-.44.31-.68C175.38,55.15,175,55.7,175.38,55.52Z"/><path class="cls-71" d="M186.18,45.37c-.06-.09.18-.29.27-.58a1.83,1.83,0,0,0-.5.72C185.91,45.64,186.07,45.41,186.18,45.37Z"/><path class="cls-72" d="M135.79,97.14c.13-.18.32-.29.42-.53l-.32.19C135.8,97,135.89,97,135.79,97.14Z"/><path class="cls-73" d="M179.38,51.1c-.28.22-.31.38-.52.38,0,.09.06,0,.12,0-.08.21-.25.3-.31.53A2.18,2.18,0,0,0,179.38,51.1Z"/><path class="cls-74" d="M135,98c.3-.11.44-.45.66-.67,0-.1-.13,0-.07-.1-.1.07-.09.12,0,.1C135.43,97.58,135.09,97.59,135,98Z"/><path class="cls-75" d="M181,49.66c.23-.32.6-.43.78-.81A1.91,1.91,0,0,0,181,49.66Z"/><path class="cls-76" d="M146.29,85.41c-.06.09,0,.08,0,0-.06.12-.18.17-.28.24s0,.27-.23.49.36-.36.2,0C146.19,85.9,146.71,85.14,146.29,85.41Z"/><path class="cls-77" d="M177.47,51.24c.09-.35.32-.5.47-.77C177.67,50.61,177,51.51,177.47,51.24Z"/><path class="cls-78" d="M175.77,50.41c.28-.21.16,0,.4-.24-.09-.14.29-.52.43-.82.22-.07.34-.27.53-.38.24-.37-.23.08,0-.29a.26.26,0,0,0-.13.14c-.58.45-1,1.15-1.56,1.63-.22.4,0,.28-.07.54C175.72,50.74,175.55,50.65,175.77,50.41Z"/><path class="cls-79" d="M163.1,66.61a3.67,3.67,0,0,0-.76,1C162.57,67.28,163.13,66.81,163.1,66.61Z"/><path class="cls-80" d="M175.37,48.38c.28-.25.53-.54.82-.76s-.41.29-.23,0A3.83,3.83,0,0,0,175.37,48.38Z"/><path class="cls-81" d="M173.86,51.05s0,.17.15.05.16-.36.14-.44c-.15.1-.2.36-.37.44S173.83,51.1,173.86,51.05Z"/><path class="cls-82" d="M176.39,48.56c-.24.08-.38.3-.56.47S176.34,48.83,176.39,48.56Z"/><path class="cls-83" d="M182,40.34a2.13,2.13,0,0,0-.51.72C181.73,40.86,182.11,40.47,182,40.34Z"/><path class="cls-84" d="M180.13,42.45c-.22.23-.51.35-.62.73A2.61,2.61,0,0,0,180.13,42.45Z"/><path class="cls-85" d="M178.33,47.62l.17-.39c-.18.06-.26.26-.44.34C177.89,47.89,178.09,47.78,178.33,47.62Z"/><polygon class="cls-86" points="157.02 74.03 157.02 74.03 157.02 74.03 157.02 74.03"/><path class="cls-87" d="M177.84,48.05c.23-.32-.41.44-.48.29-.07.18,0,.16.06.24C177.75,48.34,177.51,48.3,177.84,48.05Z"/><path class="cls-88" d="M175.13,53.54c-.22.06-.26.38-.38.58a1.28,1.28,0,0,1,.29-.23S175.05,53.72,175.13,53.54Z"/><path class="cls-89" d="M170.24,58.78a4.53,4.53,0,0,1-.11.49,10.33,10.33,0,0,0,.76-1.16C170.62,58.55,170.58,58.37,170.24,58.78Z"/><path class="cls-90" d="M172.48,53.92c-.14-.09-.72.58-.87,1,.15-.12.11,0,.07.1C172.05,54.81,172.13,54.18,172.48,53.92Z"/><path class="cls-91" d="M168.71,60.46c-.07.18,0,.17.06.25a1.35,1.35,0,0,0,.26-.44C168.79,60.53,168.93,60.32,168.71,60.46Z"/><path class="cls-92" d="M172.69,51.31c.12-.22.08-.27-.1-.15,0,.07-.09.27-.26.44S172.6,51.36,172.69,51.31Z"/><path class="cls-93" d="M174.89,50.93A22.52,22.52,0,0,0,173,53.39c.13-.06.28-.29.24-.14.3-.27.13-.23.38-.58,0,.18,1-1.07.77-.67C174.63,51.91,174.86,51.19,174.89,50.93Z"/><path class="cls-94" d="M173.28,52.81a4,4,0,0,0-.63.86C173,53.53,173.07,53.1,173.28,52.81Z"/><path class="cls-95" d="M163.89,55.12l-.35.42C163.63,55.44,163.88,55.27,163.89,55.12Z"/><path class="cls-96" d="M184,47.77c-.28.09,0-.26-.55.19a.93.93,0,0,1,.58-.63c.16-.41-.31.2-.39.09a.6.6,0,0,1-.37.43c-.1.29-.29.39-.23.49.25-.18.37-.45.4-.24s-.36.24-.45.48c-.18,0,.07-.32-.31.05.25,0-.28.31-.5.57-.06,0-.1-.2.1-.34-.17.21-.69.51-.94.91-.38.06-.67.65-1,.66-.28.42-.17.48-.51.88-.1,0,0-.21.09-.35-.38.16-.58.57-.89.82,0,.17,0,.13.19-.05-.08.33-.44.52-.34.63s-.2-.06-.32.19c-.2.05,0-.09.1-.34-.4.3-.64.8-1.1,1,.07.4-.55.42-.68,1,0-.23-.31.25-.43.19a2,2,0,0,1,.73-.72c.06-.44.77-1,1.24-1.3,0-.1-.06-.2.15-.58-.43.93-2,1.72-2.29,2.84a13.72,13.72,0,0,1-1.23,1.29c-.05.18,0,.14.19,0l-.27.58a1.27,1.27,0,0,1-.41.39c.13-.3.38-.43.48-.78-.24.15-.42.38-.65.53l-.18.39a2.57,2.57,0,0,1-.33.33c-.16.09-.06-.14.07-.39-.5.49-.08.52-.64,1,0,.09,0,.14.15,0a2,2,0,0,1-.34.48c.09-.5-.92.56-1.32.85.32-.48,1.34-1.39,1.17-1.54.37-.44.81-.78,1.16-1.25-.07-.18-.48.48-.69.62.24-.41.28-.35.39-.73.31,0,.38-.39.67-.32.25-.46,0-.38-.13-.35.21-.32.33-.17.48-.28a5.41,5.41,0,0,0,.35-.63c.26-.22.14,0,.35-.14.19-.44.16-.19.45-.48s.57-.69.8-1.11c.3-.24,0,.15.19.1-.28.39-.92.93-.72,1.06a5.46,5.46,0,0,0,.42-.67s.09,0,.2-.05c.19-.42.24-.5.54-.67.29-.51-.17-.14.12-.64,0-.09.12-.14.17-.24.27-.2.11.11.14.2.25-.07.34-.38.56-.48s0-.14-.07-.1c.33-.49.87-.69,1.09-1.35a20.54,20.54,0,0,1,1.84-1.87c.12-.37.4-.51.59-.77,0-.21-.12-.13,0-.44a2.82,2.82,0,0,1-.64.37c-.05.28,0,.12-.1.49a4.67,4.67,0,0,0-.76,1c-.22.09.14-.49.12-.64-.2.11-.6.74-.65.52-.44.45-.73,1.11-1.28,1.4.2-.37.48-.61.68-1a1.87,1.87,0,0,1-.57.48c0,.18-.05.25-.24.29-.36.73-1,1-1.45,1.63-.29.24,0-.13,0-.29-.23.1-.33.38-.53.53a1,1,0,0,0,.62-.23c.05,0,0,.1,0,.19s-.3.32-.45.48.07-.26-.23,0c-.13.22-.07.22-.1.34s-.19.16-.25.29c-.23.07.09-.21,0-.3.14-.28.43-.34.54-.67-2,2.13-3.92,4.37-6,6.44,0,.35-.68,1-.91,1-.05.25.23.13.17.39-.32.47-.44.23-.74.72-.09,0,0-.13.06-.24-.34.33-.57.81-.92,1.11.18-.7-.85.71-1.49,1.09-.21.34.1.07.23,0a6.27,6.27,0,0,1-.81.76c-.05.13.22-.11.15.06a1.63,1.63,0,0,1-.41.38.84.84,0,0,1-.15.44c-.22.39-.28.09-.49.57-.13.06-.11-.06,0-.29a9.54,9.54,0,0,0-1.61,1.73c-.08,0-.11,0,0-.2-.48.82-1.16,1.35-1.67,2.12-.06,0-.11,0-.07-.1a3.55,3.55,0,0,0-.57,1c-.23.18-.26.13-.1-.15-.71.93-1.65,1.51-2.21,2.65-.27.22,0-.18-.3,0,.09-.19.27-.25.34-.48a17.67,17.67,0,0,1-2,2.45c0,.22.54-.49.26.06-.2.14-.33.3-.49.43a3.81,3.81,0,0,1-.63.87c-.07-.07-.07-.22,0-.4a15.53,15.53,0,0,1-1.71,2.22c-.08,0,0-.16-.07-.1s-.23.22-.37.29a2.16,2.16,0,0,1-.27.58s-.15,0-.35.14a11.22,11.22,0,0,1-.91,1.11c-.19.1.13-.31.21-.34-.35.12-.74.91-.81,1.26-.37.31-.13-.09,0-.35A14.6,14.6,0,0,1,150.83,81c-.18.13.08-.38.21-.34-.15,0-.42.22-.72.57.08-.12.34-.47.05-.25.1-.17.29-.23.34-.48-.27.15-.42.48-.66.67.13,0,0,.29-.22.49,0,.12.12-.1.24-.14a4.53,4.53,0,0,0-.61,1.06c-.35.28,0-.29-.26-.05-.13.29-.45.66-.36.78A19.18,19.18,0,0,0,147.31,85c0,.06.15,0-.07.39-.3.09,0-.4-.54.18.09-.29.31-.41.46-.63-.11-.1-.56.7-.82.92,0,.07.13,0,0,.2s-.35.37-.6.42c-.2.33,0,.21-.19.54s-.52.2-.7.77c-.21.15-.09-.08-.35.14a1.48,1.48,0,0,1,.41-.53c-1.1.83-2.41,2.78-3.59,4-.06,0,0-.24.11-.48-.25.23-.42.57-.7.76-.13.26,0,.24.06.25a9.36,9.36,0,0,0-2.05,2.56c-.26.1.15-.34.07-.4-.41.46-.49.57-.83.92,0,.11.07.07,0,.2-.38.52-1.27,1-1.33,1.49-.19.11-.15,0-.43.18s-.27.58-.54.68c-.1.59-1.11,1.18-1.47,1.93,0-.11-.3.16-.23,0a2.53,2.53,0,0,1-.95,1.06,1.93,1.93,0,0,1-.3.53s-.08,0-.19,0-.34.53-.25.28a4,4,0,0,1-.87,1c.15,0,0,.22-.23.49-.08,0,0-.14.06-.24-.34.32-.61.73-1,1,.15-.4.34-.35.35-.63a2.92,2.92,0,0,0-.58.63c-.09,0,0-.21.1-.34.23-.27.57-.37.7-.77-.25.35-.28,0-.52.38-.16,0,.07-.31.27-.59.15-.07,0,.17.06.25a.89.89,0,0,0,.34-.63,2.8,2.8,0,0,1,.66-.67c-.48.51-.23.55-.6.92,0,.22.43-.42.11.15-.18.36-.06-.22-.24.14s0,.1.23,0a1.74,1.74,0,0,1-.25.29c.33-.23,1-1.31,1.57-1.78-.23,0,.22-.31.15-.44a7.2,7.2,0,0,0-.81,1.11c-.38-.16.71-1.24,1-1.7.55-.41.2.22.57,0-.1-.18.45-.43.55-.82-.17.25-.76.83-.68.48.47-.24.26-.47.83-.92.3-.22,0,.23.34,0l.22-.48c-.11.07-.23.15-.19,0,.49-.8,1.11-1.42,1.64-2.17-.27.1-.4.4-.61.57.28-.49.86-1.28,1.15-1.24a1.62,1.62,0,0,0-.43.67c0,.18.32-.32.27-.09.38-.48.57-1.06,1-1.15.07-.28.26-.38.42-.54,0,0,.07-.23,0-.19.52-.45,1.18-1.54,1.56-1.64.23-.29.52-.69.76-1,0,0,0,.11,0,.2.28-.22.1-.28.23-.49.31-.21.22,0,.17.25.32-.28.63-.74.85-.71,0-.2-.29,0-.08-.45-.44.38,0,.39-.55.82-.15,0-.1-.17.11-.48.44-.61,1.09-.91,1.51-1.54.28-.07-.14.32-.27.58a2.32,2.32,0,0,0,.59-.77s-.08,0-.19.05c.14-.22.27-.21.21-.34.42-.31.59-1,1.11-1.15,0-.16.47-.79.62-.73a3.15,3.15,0,0,1,1.1-1.49c.09-.17,0-.13,0-.25.38-.29.69-.79.81-.62l.31-.68c.48-.41,0,.32.3.11a2.7,2.7,0,0,1,.79-1,7,7,0,0,1,.2-.69c.24-.1-.16.55.21.3-.17-.24.63-1.15,1.09-1.49.29-.42.14-.53.52-.88,0,.11-.12.48.23,0,.11,0,0,.27-.16.59a.38.38,0,0,0,.13-.15l.16-.09c.15-.3,0-.19.11-.49.26-.45.36-.2.76-.52.16-.37.48-.49.66-.82a1.88,1.88,0,0,0-.78.82c0-.06-.23.05-.43.18.29-.29.17-.36.58-.62.24-.38-.23.07,0-.3a10.59,10.59,0,0,0,1.39-1.39c0-.15-.42.35-.53.53-.22-.1.4-.78.72-1.07.27-.09-.43.52-.18.39s.18-.37.54-.67c-.19.66.93-1.14,1.51-1.39a14.82,14.82,0,0,1,.74-1.36c.12.26,1-1.1,1.08-1.35.12-.07.24-.15.2,0,0-.19.36-.41.55-.82.33,0,.43-.5.84-1.06.13,0,0,.19.3,0,.68-1,1.18-1.39,1.92-2.41.14,0,0,.21.28-.09-.13-.21.37-.58.65-.67-.24,0,.09-.58.49-.92.19,0-.4.45-.23.49s.22-.22.36-.29-.15,0,.1-.34c.11,0-.1.27,0,.19.44-.39.51-.61.43-.67.28-.41.11.15.39-.24-.12-.07.12-.43.36-.78.22,0,.2-.22.52-.38-.07-.1.25-.46.47-.62.06,0-.11.18,0,.19,0-.26,1.08-1.22.78-1.3.27-.2.35-.69.63-.87s-.15.31-.24.63c.26-.22.45-.54.71-.77-.12-.43.83-1.27,1-1.6.05.12-.23.51-.31.69s-.12,0-.07-.1c-.31.26-.14.29-.43.67.44-.45.51-.6,1-.81.21-.35-.11-.08-.06-.25a29.61,29.61,0,0,0,2.4-2.69c.07-.11.44-.69.19-.53.24-.49.68-.61.55-.83.23-.15.07.16.14.2-.09.15-.24.2-.37.29-.12.32.26,0-.1.49a6.28,6.28,0,0,0,.64-1s.08,0,.19,0c.15-.33-.17.09-.18-.11.15-.26.4-.39.5-.72-1,1-2,2.08-3,3.17-.31.27.09-.28-.23,0s-.12.25-.22.49c-.32.19,0-.38.16-.73a12.45,12.45,0,0,0,1.86-2c.18-.22.44-.34.61-.58-.25.1-.19.05.21-.34.18-.3-.06-.1,0-.29.61-.35.61-.62,1-1.1.21-.16.09.07.36-.14-.11-.08,0-.38.34-.63s-.24.47.11.15a.56.56,0,0,1,.25-.29s0-.17.1-.34a10.83,10.83,0,0,1,1.38-1.25c0-.33.45-.42.63-.87.2,0-.22.31-.22.49a4.68,4.68,0,0,1,.7-.77c.11-.17.14-.45.3-.53-.17,0-.08-.11.16-.59-.46.58-.77.66-1.08,1.2-.31.16.09-.26-.18-.1-.2.37-.17.46,0,.44a5.87,5.87,0,0,0-.39.58c-.13-.14-.47.4-.65.67-.24.08.2-.4.15-.58a.88.88,0,0,0-.3.53,2.21,2.21,0,0,0-.73.57c.06.06-.11.38-.23.64-.14,0-.1-.19-.42,0-.12.27-.34.38-.5.58,0-.13-.17,0-.18-.1a25.89,25.89,0,0,1-2,2.26c-.26.59-.79.8-1.08,1.35-.84.5-1.49,2-2.17,2.2-.06.24-.23.32-.31.54a3.08,3.08,0,0,0-.6.42c.21-.35.49-.49.47-.77,0,.26.2-.11.44-.33.08-.29-.13,0-.31.19a4,4,0,0,1,.83-1.06c.15-.09-.22.4-.33.48.19,0,.73-.87,1.07-1.2-.21.07-.28.35-.49.43a17.46,17.46,0,0,0,1.22-1.65c.23-.15-.33.59.06.25l.18-.39a7.92,7.92,0,0,0,1.5-1.88c-.26.56.31-.17.65-.52,0-.11.1-.35-.15,0,.3-.69.57-.48.83-1.06.23-.14.2,0,.22.15a1.18,1.18,0,0,0,.32-.68c.21-.36.86-.71.79-1,.11-.13.57-.55.52-.39a6.44,6.44,0,0,1,1.46-1.78,2.57,2.57,0,0,0-.44.83l.72-.57c.17-.25-.31,0,0-.2,0-.26-.28.33-.37.43-.17-.1.48-1,.92-1.25.42-.47.61-1.28,1.14-1.6l.18-.39c.24-.19.06.11.1.15.28-.24.39-.73.72-.91s-.2.34-.23.48A8.25,8.25,0,0,1,178.84,44a2.46,2.46,0,0,0,.55-.82c-.17.13-.24.13-.14-.05.33-.17.89-1.11,1.43-1.49a1.18,1.18,0,0,1-.38.58,8.35,8.35,0,0,0,1.19-1.2c.2-.45-.22.25-.4.24.15-.33.41-.49.55-.82-.08,0-.1,0,0-.2-.22.12-.24.26-.32.19a1.3,1.3,0,0,0,.21-.34c.45-.18.51-.34,1-.71-.12.36-.47.4-.59.77.21-.08.31-.31.52-.38-.2.05.32-.7.57-1,.08,0,0,.14-.06.24.25-.07.34-.37.57-.47.07-.18-.24.1-.23,0,.37-.59.89-1,1.29-1.54-.09-.13-.3.39-.53.53-.06,0,0,0-.12,0a4.29,4.29,0,0,0,.68-1c-.12-.12-.39.27-.42.53-.33.26.17-.47-.23,0,.14-.3.55-.82.16-.59-.18.22-.21.35,0,.2a.8.8,0,0,1-.28.24c-.2.33-.08.31-.19.54a8.58,8.58,0,0,0-1.09,1.35c-.63.27-.93,1-1.43,1.49-.12-.23.64-.89.57-1.12a20.76,20.76,0,0,0-1.8,2.26.93.93,0,0,0-.65.68c-.25.08-.25-.14,0-.5-.15,0-.2.26-.33.34.19-.06-.16.49.18.25-.53.38-.83,1.07-1.29,1.54.44-.71.83-1.35.9-1.45-.31,0-.86,1.13-1.22,1.64-.12-.1-.52.44-.73.72,0,.09.12,0,.07.1a1.31,1.31,0,0,0-.17.24c-.06,0,0-.17-.15-.05-.52.6-1,1.3-1.47,1.93-.06,0,0,0-.12,0,.52-.69.64-1,1.11-1.64-.51.39-.88,1-1.36,1.44-.08.26.21-.19.32-.19a2.13,2.13,0,0,1-.26.44c-.34.26-.22-.1-.51.23-.09.18,0,.15-.1.34a.61.61,0,0,0,.17-.24c.18-.11.29.13.32-.19.46-.29.07.28-.19.54.25-.44-.42.32-.27-.06-.19.15-.24.52-.42.68s.14-.47.31-.68-.25,0-.14-.2c-.27.2-.42.58-.7.77-.07-.12.19-.37.24-.64-.33.12-.43.58-.74.72-.05.22.31-.28.48-.28a5.74,5.74,0,0,1-.58.62c.35-.22.24,0,.25.21s-.12.14-.17.24c-.31.27.09-.28-.23,0-.15.48-1.69,2-1.72,1.73-.1.28-.34.48-.26.58-.39.31-.22,0-.47.14.33-.34.57-.8.91-1.11a6.62,6.62,0,0,0-1.35,1.44c-.16.09,0-.2-.23,0a2.66,2.66,0,0,1-.92,1.1c.06.17-.22.46.05.4-.26.11-.38.54-.78.81.31,0-.46.67-.36.78-.5.45.16-.45-.22-.15a1.61,1.61,0,0,1-.5.72c-.07,0,0-.16-.06-.24.59-.81,1.28-1.44,1.67-2.12-.21.07-.25.39-.49.43-.61,1.22-1.73,1.72-2.37,2.89-1,.66-2.22,2.61-2.79,2.78l-.78.81c0,.35-.52.71-.8,1.11-.05,0,0-.17-.15-.05.07.16-.37.68-.41.53-.58,1-1.42,1.52-2,2.41.25-.16-.07.29-.14.44s.17-.42.06-.39a15.12,15.12,0,0,0-1.7,2.07c-.12-.21-.83.59-.86.86-.19.05-.27.26-.45.33-.11.63-1.66,1.73-2.21,2.8-.74.36-1.43,2-2.06,2.21a4.48,4.48,0,0,0,.54-.68c-.23,0-.72.94-1.24,1.45-.21.2-1,.88-1,1.05-.08.21-.3.22-.44.34-.37.6-.86,1-1.22,1.64-.58.5-1.66,1.81-2.48,2.74q-12.9,14.37-25.49,29.22L107.16,123l-9,10.9L87.4,121.52c-.13-.26,2.14,2.14,2.29,2.2,1.42,2,3.28,3.57,4.72,5.51.2.05.27.16.54.41,0,.12-.12-.1-.25-.16.19.34.61.49.74.88.24.16.08-.15.3,0a7.29,7.29,0,0,0,1.09,1.56,1.08,1.08,0,0,0,.53.4c.13.23.29.55.49.55a.19.19,0,0,1,0,.13.94.94,0,0,1,.36.32,1.36,1.36,0,0,0,.41-.63c.06,0,0,.13.09.08s0-.08-.07-.11c.19-.06.33-.29.45-.49a2.09,2.09,0,0,1,.21-.3c.33-.39.69-.77,1.08-1.15,0-.31.83-1,1.17-1.4.57-.67.85-1.31,1.21-1.49a6,6,0,0,1,1.49-1.73c.24-.37-.22.08,0-.3,0-.12.45-.38.32-.18.23-.52.65-.79.92-1.26.15-.12.12,0,.07.1.34-.64.84-1.06,1.22-1.64.18.12,0,0,.44-.33,0-.07.07-.3.23-.49,0,0,.13,0,.27-.09.15-.53,1-1,1.39-1.88.14-.09.17,0,.15,0,.68-.91,2.41-2.86,2.5-3.18.35-.47.84-.74,1.09-1.35a3.46,3.46,0,0,0,1.15-1.25l6.88-8c.1-.17,0-.12.06-.24.24-.16.29-.26.65-.53,1.16-1.67,3.18-3.5,4.49-5.49.15-.1.11,0,.27-.09a23.22,23.22,0,0,1,1.71-2.07c-.08,0-.37-.08.13-.79.24-.09.14.13.51-.23.15,0-.2.56-.38.58-.14.38.54-.32.41-.38.91-.73,1.51-1.92,2.43-2.65a2.36,2.36,0,0,1,1.07-1.2c.11-.18,0-.14-.07-.1.76-.73,1.42-1.62,2.19-2.35,0-.11-.07-.07,0-.2A39.68,39.68,0,0,1,137.6,87c0-.1-.06,0-.11,0,1.14-1.26,2.2-2.64,3.42-3.8.71-1,2.1-2.46,3.11-3.61.2-.33-.13-.05.06-.39a1.74,1.74,0,0,1,.25-.29c0,.55.86-.76,1.26-1.09,0-.27-.3.3-.44.33s.23-.41.3-.53c.65-.17,1.34-1.34,2-1.92.2-.33-.13-.06.07-.39.06-.12.18-.16.24-.29s0,.2-.09.34a1.46,1.46,0,0,0,.54-.67c.73-.53.52-.66,1.19-1.2.07-.17-.25.1-.23,0s.13-.13.2-.19,0-.13-.19.05c.21-.51.56-.82.77-1.31.23-.18.34-.3.36-.14.26-.32.39-.84.72-1.07s-.13.33-.15.44c.26-.17.34-.49.23-.48.13-.3.44-.33.57-.63.11,0-.07.27.23,0,.15-.52,1.07-1.67,1.21-1.49a3.62,3.62,0,0,0,.76-1c.48-.19.81-1,1.1-1,.11-.68,1.26-1.18,1.62-2,.57-.53,1-1.21,1.61-1.73.22-.13-.31.38.07.1.66-1.2,1.72-1.83,2.45-2.93-.14.07-.22.21-.36.28s0-.16-.07-.1c.39-.41.84-.72,1.22-1.15,0-.14-.14.07-.24.14s.3-.3.31-.53c.06,0,.14,0,.31-.19.13-.65,1.06-1.05,1.43-1.83.27-.19.31-.13.14.2.22-.1.33-.39.53-.53,0-.11-.17,0-.28.09a2.49,2.49,0,0,1,.43-.67c.13-.06.11.06,0,.29a13.83,13.83,0,0,1,1.29-1.54c.11,0-.07.27.23,0,.06-.55,1.51-1.91,1.85-2.52.23,0,.7-.65.39-.08.28-.29.26-.38.22-.49.25-.32.5-.14.77-.67-.18.06-.25.29-.41.38.07-.12.07-.16,0-.14a11.11,11.11,0,0,0,1.83-2.22c.09.16.12.08.43,0,.13-.29-.17-.07-.35,0,.19-.58.75-.64,1-1.2.45-.35,0,.36.26.2.16-.35,0-.3,0-.49.18-.37.32-.19.41-.38s-.05.2-.1.34c.24-.22.53-.68.35-.63.55-.34.44-.48.88-.67a3.4,3.4,0,0,1,.87-1c0-.13-.26.07,0-.34l-.4.23c-.23.26,0,.26-.37.44-.11.18,0,.14.07.1-.39.44-1.55,1.89-1.51,1.38-.16.09-.19.37-.3.54-.29.14-.17-.14,0-.44-.15.12-.78.87-.43.67-.24.36-.59.56-.76,1-.15.07.18-.42.07-.4-.29.16-.79,1.09-.77.67-.2.13-.17.34-.06.25a3.55,3.55,0,0,1-.73.72c0,.11.07.07,0,.19s-.3.32-.42.54c0,0,0-.11,0-.2a12.52,12.52,0,0,1-1.58,1.93c-.2.09.19-.24.18-.39-.24.14-.35.47-.61.57-.3.6-.56.26-.86.86l.4-.38c-.07.32-.35.35-.42.68-.19.14-.09-.05,0-.2-.11.11-.18.27-.33.34,0,.29-1.12,1.43-1.66,2,0,0,0,0,0,0a32.86,32.86,0,0,1-2.2,2.49c-.09,0,.05-.2.1-.34-.35.19-.43.59-.34.63-.35.46-.11-.14-.52.23s.33-.17.19.11a10.41,10.41,0,0,1-1.57,1.78c-.07.39-.36.58-.65,1-.26.22-.14,0-.35.14a8.25,8.25,0,0,1-1.13,1.45c-.16,0,.28-.44.39-.58a3.77,3.77,0,0,0-1,1.3c-.28.22,0-.18-.31,0,.12-.28.43-.53.35-.63a17.57,17.57,0,0,0-1.85,2.51c-.4.33.12-.4-.22-.15a16,16,0,0,1-2.06,2.21,1.87,1.87,0,0,1-.74.86c-.09.19.16,0,0,.3-.6.39-1.53,2-1.77,1.82a33.41,33.41,0,0,0-2.4,2.84c-.5.32-.78.93-1.31,1.2-.17.45-.52.64-.68,1.11-.27.21-.15,0-.36.14-1.45,1.68-2.86,3.43-4.42,5,0,.11-.1.35.15.06a44,44,0,0,0-3.64,4.13c-.25.4-.66.56-.94.91,0,.1.13,0,.07.1a7.62,7.62,0,0,0-1.37,1.59l-.47.28a46.18,46.18,0,0,1-3.81,4.38c0,.07,0,0,0,.15-2.27,2.44-4.39,5.11-6.63,7.6a32.05,32.05,0,0,1-2.78,3.27,8.1,8.1,0,0,1-1.32,1.49l-.18.39c-.39.12-.76,1-1.31,1.35-.92,1.38-2.58,2.93-3.71,4.52l-.32.19c-1.47,2-3.21,3.31-4.67,5.36-.81.66-1.24,1.46-2,2.12-.32.64-1,.92-1.27,1.53a40.2,40.2,0,0,0-3.45,3.78c-1.3,1.47-2.55,2-3.81,3.57l-.88.36v0s0,0,0,0l0,.15a.68.68,0,0,0,0-.12.39.39,0,0,1,0,.13s0,0-.07,0,0,.09,0,0l0-.09s0,0,0,.08a6.13,6.13,0,0,0-.51-.51L39.71,65.7,98,149.22l0,0,.77-.89.72-.83.32-.36.1-.12,1.13-1.31.61-.69,0-.06.83-1,.58-.67.35-.4.49-.57.36-.41,3.78-4.35.21-.25,1.65-1.9c.18-.23.41-.48.66-.76a20.75,20.75,0,0,0,1.42-1.64l.25-.28.34-.39.29-.34.18-.2.27-.32,1.35-1.55.41-.47.7-.81.3-.35.3-.34,1.91-2.2.51-.59.59-.69,1-1.14,1.45-1.67.41-.47a9.33,9.33,0,0,1,.77-.9l.44-.5.83-1,.27-.31,2.92-3.38.16-.18.44-.51,1-1.16,1.43-1.64.13-.15.58-.67.1-.12.27-.31.18-.2L132,110l.11-.13.21-.24.08-.1.52-.59,0,0h0l.37-.43h0s0,0,0,0l.41-.47.08-.1.37-.43,1-1.11.23-.27.2-.23.06-.07.42-.48.64-.74.07-.08.53-.61,1.68-1.94.59-.68,1.16-1.33L142,98.46l.06-.06,5-5.77.14-.17.63-.72.18-.21.68-.79h0l2.66-3.07a4.3,4.3,0,0,0,1.64-1.87c.27-.2-.19.46.14.2.12-.39.84-.95,1.24-1.45.09-.18,0-.14.1-.34.05,0,0,.18.15.06.22-.28,0-.12.18-.39.07,0,0,.16.07.1.34-.21.55-.62.43-.68a.52.52,0,0,0,.2-.19c.09,0,0,.14-.05.24a12,12,0,0,0,1.86-2.16c.66-.52.38-.53.78-.82a6.58,6.58,0,0,1,.74-1.36l1.27-1.24c.09,0,0,.13-.06.24a2.6,2.6,0,0,0,.55-.67c0-.5,1.51-1.58,2-2.46l-2.27,2.4a5.28,5.28,0,0,1,.75-.87c0-.22-.34.35-.49.43l.27-.58c.15-.1.11,0,.28-.09.47-.67.28-.87,1-1.5.11,0-.34.58-.44.82.06,0,.25-.08.18.11a2.68,2.68,0,0,1,.78-1.31c.13-.06.1.06,0,.29.32-.21.33-.77.76-1.16.31-.23-.08.34.27.06.05-.09,0-.07,0,0s.33-.4.15-.44c.12-.11.56-.56.38-.58.16-.15.26-.38.45-.48.08.07-.29.67-.12.64l.47-.78c.21-.15.1.08.36-.14.35-.46.74-.86,1.12-1.3.17-.09-.22.31-.23.49.54-.48.39-.94,1-1.3.11-.17.14-.45.3-.54s-.2.22-.32.19l.14-.29c.44-.34.74-.87,1.19-1.2.1.11-.4.72-.67.82a2.92,2.92,0,0,1-.43.68c.2-.24.81-.63,1-1.16.3-.22,0,.23.34,0a8.43,8.43,0,0,1,1.43-2c.21-.07-.17.26-.18.39.27-.31.21-.08.48-.28.28-.46.66-.78.92-1.26.57-.38.43-.55,1-1.5a6.82,6.82,0,0,1-.79,1c-.1.18,0,.14.07.1a2.11,2.11,0,0,1-.49.57c-.18.13.14-.29.21-.33a2.24,2.24,0,0,0-1.1,1A5,5,0,0,0,169,67.16c-.19.1-.16,0-.32.34a9.9,9.9,0,0,0-2,2.11c-.14-.14-.7.75-.63.38a6.58,6.58,0,0,1-.51.72c-.22.11-.35.37-.57.48s0,.12,0,.24a.74.74,0,0,0-.46.48c-.13.09-.28.14-.36.29s.25-.47-.1-.15a4.9,4.9,0,0,1-1.58,1.78c-.26.2,0,.16-.17.39a1.46,1.46,0,0,0-.17.24c-.28.21-.16,0-.43.18a10.58,10.58,0,0,1-1.83,2.07,4.67,4.67,0,0,1-.34.63c.39-.25.18-.37.54-.67-.1.25-.07.18.18.1-.28.63-.7,1-.9,1,.1-.28.41-.27.49-.58-.28.32-.51.33-.34,0l-1.23,1.29c0-.27,0-.15-.35.14a1.78,1.78,0,0,1,.69-.62c.07-.18-.23.09-.11-.15-.2.3-.48.49-.7.77s.18,0,.39-.09a9.55,9.55,0,0,0-1,1.3c0,.12.18,0,.14.2-.34.47-.1-.12-.43.19-.1,0,.09-.15.13-.29-.48.25-1.22,1.31-1.78,1.62a9.19,9.19,0,0,1-1.46,1.78c-.26.08.26-.5.2-.68-.45.34-.35.71-.61.58-.06.21,0,.29.17.25a10,10,0,0,1-1.32,1.49c0,.34-.48.77-.8,1.11-.09,0,0-.14.05-.25a1.07,1.07,0,0,1,.36-.28c.07-.12.07-.17,0-.15l.09-.2c-.27.21-.39.62-.73.72.1-.23.28-.34.42-.53,0-.22-.42.37-.57.48.25-.68-.51.52-.9.81.08,0,.11.29-.15.59.08-.32-.25.06-.38-.06a.55.55,0,0,1-.17.24c.22,0-.21.47-.2.69a4.39,4.39,0,0,0-1.07,1.2c-.27.19-.11-.11-.14-.2a12.89,12.89,0,0,1-1,.86l-.18.39.31-.19c.13-.41.48-.51.71-.77-.22.44-.62.62-.84,1.06-.21-.31-.77.66-1.37,1.1.21-.19.34-.48.57-.63-.07-.14-.54.5-.73.72,0,.13.06.17,0,.35l-.11.12-.07.07c-.11.06-.13-.09-.25,0a.56.56,0,0,1-.25.29c0,.07,0,.17-.09.28l-.23.22a1.46,1.46,0,0,1-.3.22s0,0,.06,0l-.33.31s0,0-.14.06,0,.07,0,.1L141,96.24c0-.06.05-.1,0,0,.32-.29.6-.65.9-1,0-.1-.12,0-.07-.1.2-.33.15,0,.4-.24a1.06,1.06,0,0,1,.3-.38c-.2-.34.65-.64.84-1.21.27-.2.06.21.35-.14.11-.31-.2-.13-.08-.45-.22.12-.32.41-.53.53,0,.11.11,0,.19,0a2.41,2.41,0,0,1-.62.72c-.1-.05.17-.27.14-.44a6.65,6.65,0,0,0,.72-.92c.27-.19.05.21.35-.13.14-.83,1.68-2.15,2.46-3.09.09,0-.15.42,0,.35-.62.66-1.25,1.32-1.86,2,.22-.15.4-.36.24,0l.59-.77c.1,0-.08.33.26,0,.09-.36.19-.39.51-.72s0,.18.3,0a6.85,6.85,0,0,0,1.14-1.6s.19-.07.15.06-.11-.11-.25.29c.44-.34.76-.86,1.19-1.2l.32-.68a1.53,1.53,0,0,0,.51-.24c.13-.46-.28,0-.43,0,.17-.35.58-.36.71-.77.36-.24-.11.49.33.16,0-.09-.06,0-.12,0a11,11,0,0,1,1.45-1.64c.18-.4-.3,0-.51.23.2-.31.26-.81.56-1s-.23.33-.1.35.21-.35.41-.39c.07-.26-.12-.1.19-.53.18-.12.22-.07.1.15.42-.3.17-.56.56-.83.14,0-.24.55.09.3s.08-.3.19-.53a1.19,1.19,0,0,1,.25-.29c.07.06-.28.47-.11.49.31-.38.29-.22.68-.48a16,16,0,0,0,1.58-1.92c-.22.58,1.07-1.06,1.55-1.49.07.16-.59.65-.72,1.07.59-.47.85-1.24,1.32-1.5,0-.1-.1,0-.19.05.08-.32.32-.4.43-.68.64-.3,1.09-1.24,1.5-1.39a18,18,0,0,0,1.27-1.74c-.23.26-.1,0-.32.19.57-1,1-.91,1.16-.75.08-.28-.12-.23-.09-.45.29-.28.55-.61.86-.86.13,0-.2.35-.31.57.18-.22,1-1,1.12-1.19s.26,0,.07.1c.09.11.25-.29.37-.43s-.11,0-.19,0a17.46,17.46,0,0,0,2.09-2.16l.4-.23c.09-.2.27-.26.34-.49.72-.36,1.08-1.25,1.79-1.62a6.29,6.29,0,0,1,1.76-1.83c-.28.48-.26.55-.48.92.61-.72,1.12-1.62,1.54-1.83-.17-.18.2-.8-.14-.84.29-.26.72-.67,1-1-.18-.19-1.19,1.24-1.36.94.09-.2.3-.21.44-.33-.06-.21.5-.6.65-1,0,.12,0,.24.42,0-.11-.09.06-.34.28-.73.26-.13.7-.42.61-.58.27-.19.21,0,.47-.28.2,0,0,.09-.1.34a4.69,4.69,0,0,0,.8-1c.27-.17-.11.43.17.25.08-.17,0-.47.35-.63,0-.1.11-.34-.19-.1.32-.47.28-.38.32-.69s.34-.15.41-.38c.21-.42-.23.08-.36.14.15-.21.37-.33.5-.58.17-.08-.16.44.14.2,0-.19.41-.56.33-.33a4.23,4.23,0,0,1,1.6-1.73c0-.08.09-.31.07-.39-.3.25-.19.11-.48.28-.13.23,0,.12.15,0A14.35,14.35,0,0,1,175,57.82c.38-.59,1-.9,1.33-1.49a9.72,9.72,0,0,1-.77.67c.2-.35.54-.51.67-1,.18-.08,0,.25.27.06.07-.17.19-.26.26-.44s.08.05,0,.2c.16-.1.22-.33.41-.38,0-.22.43-.6.36-.78.39-.31.11.17.42,0a2.56,2.56,0,0,1,.94-.91c.32-.54.43-.38.74-.87.21-.07-.17.26-.17.39.42-.3.7-.82,1.1-1.15.08-.23.09-.29,0-.44.23-.22.59-.72.52-.87.31-.28-.08.27.23,0s.33-.49.58-.62c.19-.34,0-.21.22-.49s-.17.5-.07.54c-.1.24-.41.17-.46.48.15,0,.62-.54.83-.91.26-.22.14,0,.35-.14.25-.45.82-1.29,1-1.3s.08-.18,0-.15a2.09,2.09,0,0,1,.73-.72c.08-.26.27-.37.35-.63C184.65,47.26,184.2,47.31,184,47.77Z"/><path class="cls-97" d="M115.4,82.54l1.07,14.84L97.94,116.5,79.37,97.38h0l3.1-44.13q5-2.74,10.4-5.42l-1,45.75,6.09,5.9,6.09-5.9-1.24-50.43q4.64-2.09,9.51-4.07Zm-43,7.7,3.29-33.17Q67.88,61.68,61,66.34l1,13.14ZM56.65,69.34c-.9.63-1.79,1.27-2.66,1.9l2,2Zm98.1-44.05c-2.84.7-5.64,1.44-8.39,2.2l5.11,20.1-19.57,19-4.9-33q-4.6,1.6-9,3.3l5.4,53.42,38.86-40.09h0Zm-115,57L98,149.22h0L47.15,76.37C44.55,78.38,42.09,80.37,39.76,82.31Z"/><path class="cls-2" d="M77,167.9c-1.33,0-5.27.6-5.27,4.83s3.94,4.84,5.27,4.84,5.27-.61,5.27-4.84S78.33,167.9,77,167.9m0,8.74c-1.74,0-3.39-1-3.39-3.91s1.65-3.91,3.39-3.91,3.39,1,3.39,3.91-1.65,3.91-3.39,3.91"/><polygon class="cls-2" points="127.24 177.28 127.24 168.19 128.55 168.19 134.48 174.65 134.48 168.19 135.66 168.19 135.66 177.28 134.33 177.28 128.43 170.82 128.43 177.28 127.24 177.28"/><path class="cls-2" d="M94.07,174.83a3.45,3.45,0,0,1-3,1.79c-1.69,0-3.48-1.11-3.48-3.89s1.79-3.89,3.48-3.89a3.53,3.53,0,0,1,2.9,1.59l1.22-.79c-1.16-1.55-3.43-1.74-4.33-1.74-1.3,0-5.15.53-5.15,4.83s3.85,4.84,5.15,4.84c.93,0,3.33-.21,4.46-1.94Z"/><path class="cls-2" d="M119.27,168.19h-1.71l-4.28,9.09h1.24l1.2-2.55h4.77l1.2,2.55h2Zm-3,5.46,1.89-4,1.88,4Z"/><rect class="cls-98" x="99.29" y="168.32" width="10.65" height="1.34"/><rect class="cls-99" x="99.29" y="172.06" width="10.65" height="1.34"/><rect class="cls-100" x="99.29" y="175.81" width="10.65" height="1.34"/><path class="cls-2" d="M15.51,168.15h1.78v9.1h-1.9l-3.72-6.49h0v6.49H9.87v-9.1h2l3.62,6.34h0Z"/><path class="cls-98" d="M19,169.71h.26c1.71,0,2.16-.89,2.2-1.56h1.46v9.1H21.1V171H19Z"/><path class="cls-2" d="M31.63,177.25H29.86v-4.1c0-.49,0-1.33-1.15-1.33a1.39,1.39,0,0,0-1.4,1.56v3.87H25.54v-9.1h1.77v3.23h0a2.07,2.07,0,0,1,1.95-1,2.14,2.14,0,0,1,2.34,2.25Z"/><path class="cls-2" d="M36.5,177.43A3.55,3.55,0,1,1,40,173.88,3.28,3.28,0,0,1,36.5,177.43Zm0-5.61c-1.37,0-1.62,1.2-1.62,2.06s.25,2.05,1.62,2.05,1.62-1.19,1.62-2.05S37.87,171.82,36.5,171.82Z"/><path class="cls-2" d="M47.46,177.25H45.69v-4.1c0-.49,0-1.33-1.16-1.33a1.38,1.38,0,0,0-1.39,1.56v3.87H41.36V170.5h1.7v1h0a2.18,2.18,0,0,1,2-1.16,2.15,2.15,0,0,1,2.34,2.25Z"/><path class="cls-2" d="M51.05,177.25H49.28v-9.1h1.77v4.92l2.24-2.57h2.18l-2.39,2.62,2.45,4.13H53.4l-1.61-2.89-.74.76Z"/><path class="cls-2" d="M62,175.93c0,.8.18,1,.39,1v.27H60.44a2.77,2.77,0,0,1-.16-.8,2.75,2.75,0,0,1-2.18,1,1.9,1.9,0,0,1-2.06-2,2.06,2.06,0,0,1,2-2.15l1.59-.24c.28,0,.63-.16.63-.54,0-.75-.71-.78-1.17-.78a1,1,0,0,0-1.09.93H56.26c.2-2.06,1.63-2.35,3-2.35,1,0,2.69.29,2.69,1.95Zm-1.73-2a2.72,2.72,0,0,1-1.21.36c-.66.12-1.2.28-1.2,1a.77.77,0,0,0,.82.81,1.47,1.47,0,0,0,1.59-1.33Z"/><path class="cls-2" d="M65.53,169.71H63.76v-1.65h1.77Zm0,.79v6.75H63.76V170.5Z"/><path class="cls-2" d="M143.76,175.6h4.52v1.65h-6.43v-9.1h1.91Z"/><path class="cls-2" d="M155.53,175.27a2.93,2.93,0,0,1-3,2.16c-1.9,0-3.35-.92-3.35-3.69a3.13,3.13,0,0,1,3.23-3.41c1.33,0,3.17.63,3.17,3.71v.32H151c.05.51.15,1.65,1.58,1.65a1.15,1.15,0,0,0,1.15-.74Zm-1.75-2.06a1.37,1.37,0,0,0-1.37-1.43c-.83,0-1.28.54-1.38,1.43Z"/><path class="cls-2" d="M162.49,175.93c0,.8.18,1,.39,1v.27H161a3.14,3.14,0,0,1-.17-.8,2.72,2.72,0,0,1-2.18,1,1.89,1.89,0,0,1-2.05-2,2.06,2.06,0,0,1,2-2.15l1.59-.24c.28,0,.62-.16.62-.54,0-.75-.71-.78-1.16-.78a1,1,0,0,0-1.09.93h-1.71c.2-2.06,1.63-2.35,3-2.35.95,0,2.69.29,2.69,1.95Zm-1.74-2a2.6,2.6,0,0,1-1.2.36c-.66.12-1.2.28-1.2,1a.77.77,0,0,0,.82.81,1.46,1.46,0,0,0,1.58-1.33Z"/><path class="cls-2" d="M170.4,170.5v6.39c0,1.17-.09,3.11-3.41,3.11-1.39,0-2.86-.6-2.94-2H166c.07.34.21.69,1.24.69s1.41-.46,1.41-1.55v-.81l0,0a1.83,1.83,0,0,1-1.8,1c-1.62,0-2.9-1.13-2.9-3.49s1.32-3.47,2.8-3.47a2,2,0,0,1,2,1.18h0v-1Zm-3.27,5.29c1.2,0,1.51-1,1.51-1.95,0-1.09-.53-2-1.52-2-.66,0-1.4.48-1.4,2.06C165.72,174.78,166.08,175.79,167.13,175.79Z"/><path class="cls-2" d="M178.22,177.25h-1.7v-.95h0a2.24,2.24,0,0,1-2.06,1.13,2.17,2.17,0,0,1-2.29-2.49V170.5h1.77v4.19c0,1,.61,1.24,1.16,1.24a1.35,1.35,0,0,0,1.37-1.53v-3.9h1.77Z"/><path class="cls-2" d="M185.94,175.27a2.94,2.94,0,0,1-3,2.16c-1.9,0-3.36-.92-3.36-3.69a3.13,3.13,0,0,1,3.23-3.41c1.33,0,3.17.63,3.17,3.71v.32h-4.63c.05.51.16,1.65,1.59,1.65a1.15,1.15,0,0,0,1.14-.74Zm-1.75-2.06c-.11-1.1-.8-1.43-1.37-1.43-.84,0-1.28.54-1.39,1.43Z"/></g></g></svg>