<svg xmlns="http://www.w3.org/2000/svg" viewBox="0 0 251.78 106.56"><defs><style>.cls-1{fill:#eaeef1;}.cls-2{fill:#c6000b;}.cls-3{fill:#006446;}.cls-4{fill:#30a6d9;}</style></defs><g id="レイヤー_2" data-name="レイヤー 2"><g id="レイヤー_1-2" data-name="レイヤー 1"><path class="cls-1" d="M25.12,61.59C25.12,39.86,41,38,46.94,38c12.8,0,23,7.53,23,21.07,0,11.48-7.44,17.31-13.93,21.73C47.13,87,42.52,90,41,93.11H70v11.66H24.37c.47-7.81,1-16,15.52-26.53,12-8.74,16.84-12.13,16.84-19.66,0-4.42-2.83-9.5-9.22-9.5-9.22,0-9.5,7.62-9.6,12.51Z"/><path class="cls-1" d="M99.36,38c15.71,0,23.14,10.82,23.14,34.24s-7.43,34.34-23.14,34.34S76.22,95.65,76.22,72.22,83.65,38,99.36,38Zm0,58c7.53,0,9.6-6.58,9.6-23.8s-2.07-23.7-9.6-23.7S89.77,55,89.77,72.22,91.83,96,99.36,96Z"/><path class="cls-1" d="M127.75,61.59c0-21.73,15.9-23.61,21.83-23.61,12.79,0,22.95,7.53,22.95,21.07,0,11.48-7.43,17.31-13.92,21.73-8.84,6.21-13.45,9.22-15,12.33h29v11.66H127c.47-7.81,1-16,15.52-26.53,12-8.74,16.84-12.13,16.84-19.66,0-4.42-2.82-9.5-9.22-9.5-9.22,0-9.5,7.62-9.59,12.51Z"/><path class="cls-1" d="M179.1,61.59C179.1,39.86,195,38,200.92,38c12.8,0,23,7.53,23,21.07,0,11.48-7.44,17.31-13.93,21.73C201.11,87,196.5,90,195,93.11h29v11.66H178.35c.47-7.81,1-16,15.52-26.53,12-8.74,16.84-12.13,16.84-19.66,0-4.42-2.83-9.5-9.22-9.5-9.22,0-9.5,7.62-9.6,12.51Z"/><path class="cls-1" d="M96,0C94,0,88.42.86,88.42,6.91S94,13.82,96,13.82s7.52-.86,7.52-6.91S97.85,0,96,0m0,12.5c-2.49,0-4.85-1.43-4.85-5.59S93.46,1.32,96,1.32s4.84,1.43,4.84,5.59S98.43,12.5,96,12.5"/><polygon class="cls-1" points="167.78 13.41 167.78 0.41 169.65 0.41 178.12 9.64 178.12 0.41 179.81 0.41 179.81 13.41 177.9 13.41 169.47 4.18 169.47 13.41 167.78 13.41"/><path class="cls-1" d="M120.35,9.92A4.93,4.93,0,0,1,116,12.47c-2.42,0-5-1.59-5-5.56s2.56-5.56,5-5.56a5,5,0,0,1,4.14,2.27l1.75-1.13C120.28.27,117,0,115.74,0c-1.86,0-7.36.76-7.36,6.91s5.5,6.91,7.36,6.91c1.34,0,4.76-.29,6.38-2.76Z"/><path class="cls-1" d="M156.38.41h-2.45l-6.11,13h1.77l1.71-3.64h6.83l1.72,3.64h2.84ZM152,8.22l2.7-5.72,2.69,5.72Z"/><rect class="cls-2" x="127.83" y="0.6" width="15.22" height="1.91"/><rect class="cls-3" x="127.83" y="5.95" width="15.22" height="1.91"/><rect class="cls-4" x="127.83" y="11.31" width="15.22" height="1.91"/><path class="cls-1" d="M8.07.36H10.6v13H7.88L2.57,4.09h0v9.28H0V.36H2.86L8,9.42h0Z"/><path class="cls-2" d="M13,2.58h.37c2.45,0,3.1-1.26,3.15-2.22H18.6v13H16.06v-9H13Z"/><path class="cls-1" d="M31.11,13.37H28.57V7.51c0-.7,0-1.9-1.65-1.9a2,2,0,0,0-2,2.23v5.53H22.39V.36h2.54V5h0a3,3,0,0,1,2.79-1.51A3.08,3.08,0,0,1,31.11,6.7Z"/><path class="cls-1" d="M38.07,13.62a4.68,4.68,0,0,1-4.94-5.07,4.69,4.69,0,0,1,4.94-5.08A4.68,4.68,0,0,1,43,8.55,4.67,4.67,0,0,1,38.07,13.62Zm0-8c-2,0-2.32,1.71-2.32,2.94s.36,2.93,2.32,2.93,2.32-1.7,2.32-2.93S40,5.61,38.07,5.61Z"/><path class="cls-1" d="M53.73,13.37H51.2V7.51c0-.7,0-1.9-1.65-1.9a2,2,0,0,0-2,2.23v5.53H45V3.73h2.42V5.14h0A3.35,3.35,0,0,1,53.73,6.7Z"/><path class="cls-1" d="M58.87,13.37H56.33V.36h2.54v7l3.19-3.66h3.12L61.77,7.46l3.5,5.91h-3l-2.3-4.13-1.05,1.08Z"/><path class="cls-1" d="M74.46,11.48c0,1.14.25,1.4.56,1.51v.38H72.29a4.34,4.34,0,0,1-.24-1.14,3.94,3.94,0,0,1-3.12,1.39A2.7,2.7,0,0,1,66,10.81a3,3,0,0,1,2.81-3.08l2.28-.34c.4-.06.89-.22.89-.76,0-1.07-1-1.13-1.67-1.13a1.37,1.37,0,0,0-1.56,1.34H66.31c.29-2.95,2.33-3.37,4.31-3.37,1.36,0,3.84.42,3.84,2.79ZM72,8.67a3.67,3.67,0,0,1-1.72.53c-.94.16-1.72.4-1.72,1.45a1.1,1.1,0,0,0,1.17,1.16A2.1,2.1,0,0,0,72,9.91Z"/><path class="cls-1" d="M79.57,2.58H77V.23h2.54Zm0,1.15v9.64H77V3.73Z"/><path class="cls-1" d="M191.38,11h6.47v2.36h-9.19V.36h2.72Z"/><path class="cls-1" d="M208.21,10.54A4.17,4.17,0,0,1,204,13.62c-2.71,0-4.8-1.3-4.8-5.27,0-1.16.4-4.88,4.62-4.88,1.91,0,4.53.91,4.53,5.31v.46h-6.61c.07.72.22,2.35,2.26,2.35a1.64,1.64,0,0,0,1.64-1.05Zm-2.5-2.95a2,2,0,0,0-2-2c-1.2,0-1.83.76-2,2Z"/><path class="cls-1" d="M218.16,11.48c0,1.14.25,1.4.56,1.51v.38H216a4.34,4.34,0,0,1-.24-1.14,3.94,3.94,0,0,1-3.12,1.39,2.7,2.7,0,0,1-2.93-2.81,3,3,0,0,1,2.81-3.08l2.28-.34c.4-.06.89-.22.89-.76,0-1.07-1-1.13-1.67-1.13a1.37,1.37,0,0,0-1.56,1.34H210c.29-2.95,2.33-3.37,4.31-3.37,1.36,0,3.84.42,3.84,2.79Zm-2.48-2.81A3.67,3.67,0,0,1,214,9.2c-1,.16-1.72.4-1.72,1.45a1.1,1.1,0,0,0,1.17,1.16,2.1,2.1,0,0,0,2.27-1.9Z"/><path class="cls-1" d="M229.47,3.73v9.13c0,1.67-.13,4.44-4.88,4.44-2,0-4.09-.85-4.2-2.9h2.76c.1.49.3,1,1.77,1s2-.65,2-2.21V12l0,0a2.64,2.64,0,0,1-2.58,1.45c-2.32,0-4.15-1.61-4.15-5s1.89-5,4-5A2.88,2.88,0,0,1,227,5.16h0V3.73Zm-4.68,7.55c1.73,0,2.16-1.47,2.16-2.79,0-1.56-.76-2.83-2.17-2.83-.95,0-2,.69-2,2.94C222.78,9.83,223.29,11.28,224.79,11.28Z"/><path class="cls-1" d="M240.65,13.37h-2.43V12h0a3.17,3.17,0,0,1-2.93,1.61c-1.91,0-3.28-1.09-3.28-3.55V3.73h2.53v6c0,1.48.87,1.77,1.65,1.77a1.92,1.92,0,0,0,2-2.19V3.73h2.54Z"/><path class="cls-1" d="M251.67,10.54a4.17,4.17,0,0,1-4.24,3.08c-2.72,0-4.8-1.3-4.8-5.27,0-1.16.4-4.88,4.62-4.88,1.9,0,4.53.91,4.53,5.31v.46h-6.61c.07.72.21,2.35,2.26,2.35a1.62,1.62,0,0,0,1.63-1.05Zm-2.5-2.95a2,2,0,0,0-1.95-2c-1.2,0-1.84.76-2,2Z"/></g></g></svg>