<svg xmlns="http://www.w3.org/2000/svg" viewBox="0 0 200.95 149.25"><defs><style>.cls-1{fill:#fff;}</style></defs><g id="レイヤー_2" data-name="レイヤー 2"><g id="デザイン"><path class="cls-1" d="M3.34,143.93a2.61,2.61,0,0,0,.52,1.56,3.11,3.11,0,0,0,2.56,1c1.67,0,2.73-.76,2.73-2a1.55,1.55,0,0,0-.75-1.39,10,10,0,0,0-3.29-1,7.56,7.56,0,0,1-3-1.16,4.09,4.09,0,0,1-1.65-3.4c0-2.82,2.25-4.61,5.8-4.61,2.29,0,4,.69,5,2a5.41,5.41,0,0,1,1,2.34l-2.57.28a1,1,0,0,1-1-.58,2.12,2.12,0,0,0-.33-.56,2.74,2.74,0,0,0-2.13-.81c-1.5,0-2.5.73-2.5,1.83a1.51,1.51,0,0,0,.65,1.25,5.39,5.39,0,0,0,1.81.63,18.31,18.31,0,0,1,3.78,1A4.27,4.27,0,0,1,11.93,142a4.32,4.32,0,0,1,.58,2.32c0,3.14-2.19,4.92-6,4.92-2.48,0-4.35-.69-5.37-2a5.38,5.38,0,0,1-1.11-3Z"/><path class="cls-1" d="M28.42,133.28a16,16,0,0,0-.15,2.64v10.34a18.42,18.42,0,0,0,.15,2.65H25a17.2,17.2,0,0,0,.15-2.65V142.2H18v4.06a18.24,18.24,0,0,0,.15,2.65H14.67a17,17,0,0,0,.15-2.65V135.94c0-.7,0-1.21-.05-1.66a.94.94,0,0,1,.93-1h2.42a18.54,18.54,0,0,0-.15,2.64v3.46H25.1v-3.44a16.93,16.93,0,0,0-.15-2.66Z"/><path class="cls-1" d="M34.54,133.28a15.38,15.38,0,0,0-.16,2.66v10.32a15.55,15.55,0,0,0,.16,2.65H31a15.85,15.85,0,0,0,.16-2.65V135.94c0-.73,0-1.21,0-1.63a1,1,0,0,1,.95-1Z"/><path class="cls-1" d="M46.28,143a13.9,13.9,0,0,0-1.94.09h0v-1.84a1,1,0,0,1,1-1l1.4,0h1.6a1.9,1.9,0,0,1,1.92,1.93v2.57c0,.63,0,1.09,0,1.5a1.92,1.92,0,0,1-1.07,1.81,9.54,9.54,0,0,1-1.93.72,12.38,12.38,0,0,1-3.08.4,7.32,7.32,0,0,1-5.76-2.3A9.42,9.42,0,0,1,36.6,141c0-3.27,1.34-5.86,3.68-7.15a8,8,0,0,1,4-.9A6.6,6.6,0,0,1,49,134.73,5.35,5.35,0,0,1,50,136a1,1,0,0,1-.63,1.38l-2.15.54h0A2.79,2.79,0,0,0,46,136.22a3.54,3.54,0,0,0-2.08-.51,3.74,3.74,0,0,0-2.7,1.07A5.92,5.92,0,0,0,39.9,141a6.44,6.44,0,0,0,1.27,4.27,3.92,3.92,0,0,0,3.07,1.19,5.6,5.6,0,0,0,2.45-.5,1,1,0,0,0,.57-.88V144a1,1,0,0,0-1-1Z"/><path class="cls-1" d="M63.56,148.91a14.87,14.87,0,0,0-.5-2l-.44-1.26a.91.91,0,0,0-.86-.6H57.25a.91.91,0,0,0-.86.6L56,146.87a9.69,9.69,0,0,0-.52,2h-3.8a20.13,20.13,0,0,0,1-2.31l4.18-11.32c.21-.58.35-1,.46-1.35a.9.9,0,0,1,.87-.65h3.42a13.56,13.56,0,0,0,.65,2l4.23,11.32c.37,1,.71,1.83.94,2.31Zm-3.79-12c-.05-.17-.13-.37-.28-.89-.12.41-.14.5-.27.89l-1.41,4.24a.91.91,0,0,0,.86,1.2h1.67a.91.91,0,0,0,.86-1.2Z"/><path class="cls-1" d="M84.41,143h-1a.91.91,0,0,1-.94-.91v-.91a.9.9,0,0,1,1-.9l1.44,0h1.27l1.34,0a.9.9,0,0,1,1,.95c0,.4,0,.86,0,1.47v2.1a19.6,19.6,0,0,0,.07,2.08.93.93,0,0,1-.46.88,9.88,9.88,0,0,1-2.59,1.07,12.3,12.3,0,0,1-3.07.4,7.33,7.33,0,0,1-5.77-2.3A9.42,9.42,0,0,1,74.73,141c0-3.27,1.34-5.86,3.69-7.15a7.94,7.94,0,0,1,4-.9,6.56,6.56,0,0,1,4.76,1.79,5.08,5.08,0,0,1,1,1.31.92.92,0,0,1-.59,1.31l-1.45.36a.91.91,0,0,1-1-.47,2.34,2.34,0,0,0-.89-1,3.51,3.51,0,0,0-2.07-.51,3.75,3.75,0,0,0-2.71,1.07A6,6,0,0,0,78,141a6.49,6.49,0,0,0,1.27,4.27,3.93,3.93,0,0,0,3.08,1.19,5.72,5.72,0,0,0,2.47-.51.92.92,0,0,0,.54-.83V143.9a.91.91,0,0,0-.91-.91Z"/><path class="cls-1" d="M103.08,135a8.39,8.39,0,0,1,2.21,6.09c0,5-3,8.2-7.46,8.2s-7.46-3.21-7.46-8.18S93.29,133,97.83,133A7,7,0,0,1,103.08,135Zm-1.1,6.11a5.89,5.89,0,0,0-1.42-4.27,3.76,3.76,0,0,0-2.73-1.08c-2.56,0-4.17,2.06-4.17,5.31s1.61,5.44,4.19,5.44S102,144.41,102,141.07Z"/><path class="cls-1" d="M116.42,148.91c-1.27,0-1.83,0-2.63.06a18,18,0,0,0,.15-2.71V135.82c0-.56,0-1,0-1.53a1,1,0,0,1,1-1h6.31c3.06,0,4.79,1.39,4.79,3.87a3.43,3.43,0,0,1-1.1,2.74l-1,.94a3.49,3.49,0,0,1,1.42.78,3.83,3.83,0,0,1,1.21,3c0,2.77-1.83,4.31-5.12,4.31Zm4.34-9.42a1.77,1.77,0,0,0,2-1.8c0-1.14-.71-1.75-2-1.75h-3.65v3.55Zm-3.67,6.75h3.82a2,2,0,0,0,2.31-2.1c0-1.32-.85-2-2.34-2h-3.79Z"/><path class="cls-1" d="M131.28,148.91c-1.2,0-1.91,0-2.62.06a15.86,15.86,0,0,0,.16-2.68v-10c0-.8,0-1.4-.06-1.94a1,1,0,0,1,1-1h2.45a18.17,18.17,0,0,0-.16,2.93v9.85h5.15a23.91,23.91,0,0,0,2.85-.13V149a26.34,26.34,0,0,0-2.85-.13Z"/><path class="cls-1" d="M152.22,148.91a12.43,12.43,0,0,0-.5-2l-.65-1.86h-5.8l-.66,1.86a9.6,9.6,0,0,0-.51,2h-3.81a16.83,16.83,0,0,0,1-2.3l4.19-11.32c.2-.56.34-1,.44-1.31a1,1,0,0,1,.92-.69h3.39a12.41,12.41,0,0,0,.65,2l4.23,11.32c.36,1,.71,1.83.94,2.31Zm-3.78-12c-.06-.17-.14-.37-.29-.89-.12.41-.14.5-.27.89l-1.81,5.44h4.19Z"/><path class="cls-1" d="M168.56,138.28a1,1,0,0,1-1.08-.56,3,3,0,0,0-.4-.73,3.08,3.08,0,0,0-2.69-1.27,3.63,3.63,0,0,0-2.71,1.08,6.07,6.07,0,0,0-1.36,4.25c0,3.36,1.55,5.4,4.13,5.4a3.27,3.27,0,0,0,2.8-1.31,3.77,3.77,0,0,0,.6-1.71l3.32.54a0,0,0,0,1,0,0,7,7,0,0,1-1.44,3.15,6.65,6.65,0,0,1-5.28,2.09,7.23,7.23,0,0,1-5.31-2,8.78,8.78,0,0,1-2.17-6.18,8.5,8.5,0,0,1,2.39-6.31,7,7,0,0,1,5-1.8,6.5,6.5,0,0,1,5.48,2.42,6,6,0,0,1,1.11,2.36l0,0Z"/><path class="cls-1" d="M185.45,146.27a26.44,26.44,0,0,0,2,2.64h-4.24a18.82,18.82,0,0,0-1.27-2.21l-2.77-4.15a1,1,0,0,0-1.47-.14l-1.18,1.17v2.68a16.16,16.16,0,0,0,.17,2.65H173.2a19.94,19.94,0,0,0,.15-2.65V135.94c0-.65,0-1.15,0-1.63a1,1,0,0,1,.95-1h2.42a17,17,0,0,0-.17,2.66v3.95l4.36-4.61a10.67,10.67,0,0,0,1.58-2h4.38c-.5.48-1.44,1.45-2.06,2.08l-4.07,4.21Z"/><path class="cls-1" d="M191.78,143.93a2.55,2.55,0,0,0,.52,1.56,3.11,3.11,0,0,0,2.56,1c1.67,0,2.72-.76,2.72-2a1.55,1.55,0,0,0-.75-1.39,9.9,9.9,0,0,0-3.28-1,7.56,7.56,0,0,1-3-1.16,4.06,4.06,0,0,1-1.65-3.4c0-2.82,2.25-4.61,5.8-4.61,2.29,0,4,.69,5,2a5.41,5.41,0,0,1,1,2.34l-2.61.28a.87.87,0,0,1-.93-.55,2.32,2.32,0,0,0-.34-.59,2.78,2.78,0,0,0-2.14-.81c-1.5,0-2.5.73-2.5,1.83a1.49,1.49,0,0,0,.66,1.25,5.31,5.31,0,0,0,1.8.63,18.27,18.27,0,0,1,3.79,1,4.27,4.27,0,0,1,1.94,1.67,4.41,4.41,0,0,1,.58,2.32c0,3.14-2.19,4.92-6,4.92-2.48,0-4.34-.69-5.36-2a5.38,5.38,0,0,1-1.11-3Z"/><path class="cls-1" d="M171.28,26.81c-37.9,19.12-50.79-18.85-88.7.28Q86,19.24,89.37,11.4c37.9-19.13,50.15,21.07,88.06,1.94C175.16,18.57,173.54,21.57,171.28,26.81Z"/><path class="cls-1" d="M158,57.08c-37.9,19.13-51.12-17.73-89,1.4q3.39-7.84,6.79-15.69c37.9-19.13,50.15,21.06,88.05,1.94C161.59,50,160.29,51.85,158,57.08Z"/><path class="cls-1" d="M145.1,86.24c-37.91,19.13-51.76-15.5-89.66,3.63l6.78-15.7c37.91-19.12,50.15,21.07,88.06,2C148,81.35,147.36,81,145.1,86.24Z"/><polygon class="cls-1" points="75.21 0 22.86 121.14 35.87 116.84 83.94 8.51 75.21 0"/></g></g></svg>