<svg xmlns="http://www.w3.org/2000/svg" viewBox="0 0 343.97 330"><defs><style>.cls-1{fill:#fcd25b;}.cls-2{fill:#f08c00;}.cls-3{fill:#a21f84;}.cls-4{fill:#e3007f;}.cls-15,.cls-5{fill:#192548;}.cls-6{fill:#fff;}.cls-7{fill:#d2d2d3;}.cls-8{fill:#f9be00;}.cls-9{fill:#d19600;}.cls-10{fill:#f8f5f4;}.cls-11{fill:#e6e4e4;}.cls-12{fill:#e61f19;}.cls-13{fill:#a5cbe0;}.cls-14{fill:#57849a;}.cls-15{fill-rule:evenodd;}</style></defs><g id="レイヤー_2" data-name="レイヤー 2"><g id="レイヤー_1-2" data-name="レイヤー 1"><path class="cls-1" d="M343.81,286.58h0a79.6,79.6,0,0,0-1.48-9.73c-.6-2.85-1.23-5.44-1.87-7.7a51.26,51.26,0,0,0-2.71-7.37,33.55,33.55,0,0,0-2.74-4.61l3.21.3-3.17-14.92a35.22,35.22,0,0,0-6.55-14.31,26.17,26.17,0,0,0-6.25-5.77,17.81,17.81,0,0,0-13.93-2.55l-38,0C288.24,198.44,297,169,297,130.22l.08-97.71-3.59-2.64C291.82,28.65,252.16,0,173.6,0S55.39,28.65,53.74,29.87l-3.59,2.64v97.73c0,6.17.25,12.16.74,18.31a101.38,101.38,0,0,0-.24,23,81.23,81.23,0,0,0,1.85,10.48,76.18,76.18,0,0,0,13.16,27.72c1.22,1.64,2.51,3.24,3.82,4.76s2.69,3,4.12,4.41l1,1H0l19.39,10.31L2.52,309.77l3.65-.84a775.34,775.34,0,0,1,99-16.37l-5.5,37h24.67l1.82-12.14a17.8,17.8,0,0,0,5,7.49c3.81,3.36,8.93,5.06,15.21,5.06a24.73,24.73,0,0,0,8.11-1.34l-.14.93H255l-12-9.06,4.13-27.93c22.74,2.25,45.71,5.58,68.29,9.92l3.41.65-.25-1.4a24.75,24.75,0,0,0,8.53,3.68c4.66,1,8.63.33,11.52-1.86a13.16,13.16,0,0,0,4.78-7.93A30.19,30.19,0,0,0,343.81,286.58Z"/><path class="cls-2" d="M288.24,37S250.05,8.82,173.6,8.82,59,37,59,37v93.27c0,115,79.37,109.08,114.7,139.63C209,239.32,288.16,245.18,288.16,130.21Z"/><path class="cls-3" d="M275,47.36s-33.78-24.9-101.42-24.9S72.19,47.36,72.19,47.36v82.52c0,101.72,70.21,96.5,101.47,123.53,31.26-27,101.3-21.84,101.3-123.56Z"/><path class="cls-4" d="M224.36,27.63a240.48,240.48,0,0,0-50.76-5.17c-67.63,0-101.41,24.9-101.41,24.9v82.52C72.19,205.46,111,222,143.7,236.6c-7.68-34.91-39.5-125.46-41-148.51C101.05,62.23,156.11,32.88,224.36,27.63Z"/><path class="cls-5" d="M173.67,278.38l-4.21-3.64c-8.61-7.44-20.62-12.8-33.34-18.46-37.24-16.6-83.58-37.25-83.58-126V33.72l2.62-1.94c1.62-1.2,40.77-29.4,118.44-29.4s116.83,28.2,118.45,29.4l2.62,1.94-.07,96.5c0,88.8-46.27,109.46-83.44,126.06-12.69,5.67-24.68,11-33.28,18.46ZM65.41,43.83v86.41c0,80.43,40.35,98.41,76,114.28,11.78,5.25,23,10.24,32.31,17.13,9.31-6.88,20.49-11.88,32.24-17.12,35.54-15.87,75.82-33.86,75.82-114.32l.07-86.38c-9.69-5.92-46-28.57-108.2-28.57S75.09,37.91,65.41,43.83Z"/><path class="cls-5" d="M173.66,257.67l-2.1-1.82c-7.9-6.83-18.69-11.64-30.11-16.73C109.16,224.73,69,206.83,69,129.88V45.73l1.31-1c1.42-1,35.41-25.53,103.33-25.53S275.52,43.73,276.93,44.77l1.31,1-.07,84.13c0,77-40.11,94.87-72.35,109.27-11.39,5.09-22.16,9.9-30,16.72ZM75.41,49.07v80.81c0,72.77,36.48,89,68.66,103.36,10.92,4.87,21.29,9.49,29.59,16,8.29-6.51,18.64-11.13,29.54-16,32.13-14.35,68.54-30.61,68.54-103.4l.06-80.78C265,44.71,232,25.68,173.61,25.68S82.2,44.72,75.41,49.07Z"/><path class="cls-5" d="M240.44,321.57l6-40.65H109.33l-6.88,46.29h19.86l2.12-14.2h3.12a16.12,16.12,0,0,0,5.2,10.14c3.37,3,8,4.47,13.64,4.47a22.18,22.18,0,0,0,8.92-1.83,20.35,20.35,0,0,0,2.19-1.1l-.37,2.52h90.75Z"/><path class="cls-5" d="M341.44,286.78a75.57,75.57,0,0,0-1.44-9.43c-.59-2.78-1.21-5.32-1.84-7.55a47.35,47.35,0,0,0-2.55-7,30.5,30.5,0,0,0-4-6.15,27.88,27.88,0,0,0-2.32-2.42l5.92.54L332.72,243a33.06,33.06,0,0,0-6.09-13.32,24.14,24.14,0,0,0-5.67-5.25,15.22,15.22,0,0,0-12.33-2.16q-49.15-.08-98.3-.08c0,.3,0,.61,0,.92a19.17,19.17,0,0,0-6-.92q-83.84,0-167.7.1H9.55L22,229l-.14,1L5.63,306.61c70.15-16.26,138.81-22.45,206.47-19.05q-.57-11.67-1.13-22.89a13.3,13.3,0,0,0,1.53-.42q.6,11.46,1.21,23.39a749.73,749.73,0,0,1,102.16,12.54c-.26-1.47-.52-2.94-.79-4.4a31.18,31.18,0,0,0,3,2.68,23.57,23.57,0,0,0,9.53,4.66c3.91.82,7.24.35,9.6-1.43a10.87,10.87,0,0,0,3.88-6.55A28.07,28.07,0,0,0,341.44,286.78Z"/><path class="cls-6" d="M208.67,236.45a4.12,4.12,0,0,0-1.35-1.84,4.16,4.16,0,0,0-2.44-.65l-2.78,0q.33,8.51.69,17.28l2.63.05a4.21,4.21,0,0,0,2.56-.6,3.47,3.47,0,0,0,1.25-1.8,8.33,8.33,0,0,0,.37-2.68c0-1.06,0-2.24-.09-3.54s-.14-2.32-.23-3.39A9.54,9.54,0,0,0,208.67,236.45Zm-172,54.73c-1.86.32-3.72.64-5.58,1q-.53-19.74-.91-39h-.11q-3.94,19.59-8.18,40.63-3,.56-6,1.15l13.8-66.36,5.11-.09q.38,18.25.91,37l.11,0q3.68-19.19,7.1-37.11l5.31-.09Q42.77,258,36.65,291.18ZM67.47,235.5l-10.65.34-3,17.3,9.55-.68q-.63,4-1.28,8c-3.22.28-6.45.56-9.68.87L49.26,280q5.73-.78,11.44-1.5Q60,283,59.26,287.61q-8.73,1.26-17.51,2.71,5.85-32.81,11.08-62.08L68.65,228C68.26,230.49,67.87,233,67.47,235.5ZM78.3,285.09Q77.18,275,76.1,265.18q-3.87,10.29-7.9,21.19l-6.19.85q6.62-17.14,12.8-32.77-1.62-13.38-3.1-26.48l5.62-.08q.84,8,1.73,16.17,3.22-8.33,6.33-16.27l5.61-.06q-5.18,12.69-10.66,26.36,2,14.94,4.11,30.28Zm29.35-15.92a20,20,0,0,1-1.2,5.24,18.66,18.66,0,0,1-2.41,4.45,13.66,13.66,0,0,1-3.3,3.24A8,8,0,0,1,97,283.54a5.58,5.58,0,0,1-3.48-.74,7.74,7.74,0,0,1-2.62-2.73,12.59,12.59,0,0,1-1.5-4.2,17.86,17.86,0,0,1-.07-5.29q2.7-22.29,5.21-42.89l5.3-.05q-2.28,20-4.75,41.66a7.36,7.36,0,0,0,.49,4.49,2.36,2.36,0,0,0,2.35,1.27,3.75,3.75,0,0,0,2.67-1.69,9.26,9.26,0,0,0,1.48-4.6q2.23-21.39,4.31-41.19l5.3-.05Q109.74,247.57,107.65,269.17ZM133,241.88l-5.42.12.12-1.67a9.76,9.76,0,0,0-.55-4.33,2.7,2.7,0,0,0-2.78-1.78,2.87,2.87,0,0,0-1.83.6,4.79,4.79,0,0,0-1.22,1.45,8,8,0,0,0-.76,2.15,21.63,21.63,0,0,0-.37,2.51c-.08,1-.13,1.88-.13,2.56a6,6,0,0,0,.25,1.83,3.32,3.32,0,0,0,.82,1.38,6.65,6.65,0,0,0,1.59,1.13l4,2.18a8.83,8.83,0,0,1,2.8,2.17,8.64,8.64,0,0,1,1.58,3,17.5,17.5,0,0,1,.55,4.08c.05,1.54,0,3.3-.12,5.29a41.09,41.09,0,0,1-.91,6.49,19.34,19.34,0,0,1-2,5.25,11.29,11.29,0,0,1-3.32,3.69,9.27,9.27,0,0,1-4.77,1.61,7,7,0,0,1-3.81-.78,7.71,7.71,0,0,1-2.84-2.7,12.82,12.82,0,0,1-1.66-4.17,16.73,16.73,0,0,1-.27-5.26l.27-3,5.62-.32-.21,2.5a8,8,0,0,0,.58,3.94,2.74,2.74,0,0,0,3,1.6,4.16,4.16,0,0,0,2.3-.73,4.54,4.54,0,0,0,1.37-1.76,8.91,8.91,0,0,0,.72-2.65c.13-1,.24-2.15.33-3.38.1-1.44.15-2.62.14-3.54a7.57,7.57,0,0,0-.27-2.19,3.39,3.39,0,0,0-.91-1.33,9.39,9.39,0,0,0-1.57-1.07l-3.78-2.12a8.45,8.45,0,0,1-4.32-5.21,23.69,23.69,0,0,1-.45-8.25,26,26,0,0,1,1.08-5.56,16.18,16.18,0,0,1,2.12-4.48,10.11,10.11,0,0,1,3-3,7.69,7.69,0,0,1,4.11-1.12,6.55,6.55,0,0,1,3.54,1,8.79,8.79,0,0,1,2.66,2.57,12.37,12.37,0,0,1,1.9,7.75C133.11,239.48,133,240.68,133,241.88Zm20.51-8-10.6.08q-.36,7.37-.74,14.95c3.14-.07,6.29-.12,9.44-.17-.09,2.33-.17,4.68-.26,7-3.18.06-6.36.14-9.54.22q-.39,7.83-.79,15.9c3.74-.14,7.47-.26,11.21-.36q-.13,3.94-.27,7.95-8.53.25-17.07.69,1.6-27.7,3.06-52.85,7.89,0,15.78-.06C153.62,229.49,153.54,231.7,153.47,233.92ZM173,279.17q-8.51,0-17,.24.78-27.32,1.48-52.12h5.29q-.42,21.16-.89,44.09c3.73-.06,7.47-.09,11.2-.1C173.05,273.88,173,276.51,173,279.17Zm4.07,0q0-27.18-.09-51.89h15.78c.06,2.19.11,4.39.17,6.61l-10.59,0q.07,7.29.14,14.76l9.44.07q.08,3.48.17,7l-9.54-.08q.08,7.74.16,15.69,5.6,0,11.19.15c.07,2.62.14,5.27.21,7.93Q185.61,279.18,177.09,279.16Zm37.56-30.61a14.39,14.39,0,0,1-1,4.53,8.78,8.78,0,0,1-2.81,4,7.57,7.57,0,0,1-4.93,1.33l-2.83-.06q.41,10.46.84,21.33c-1.9-.07-3.81-.13-5.72-.18q-.87-27.35-1.65-52.18l7.94,0a9.49,9.49,0,0,1,3.88.77,8.26,8.26,0,0,1,3.16,2.72,12.88,12.88,0,0,1,2.14,4.61,39.46,39.46,0,0,1,1,7.25A50.8,50.8,0,0,1,214.65,248.55Zm19.29,32.71-2-24.94-6.84-.27q.87,12.09,1.77,24.73l-5.74-.35q-1.77-27.83-3.38-53.05l5.3,0q.76,10.74,1.57,21.92c2.26.06,4.51.13,6.77.21q-.92-11.26-1.8-22.09l5.3,0q2.29,25.78,4.83,54.21C237.78,281.54,235.86,281.4,233.94,281.26Zm26.45,2.34-3.16-12.89c-2.58-.21-5.15-.41-7.73-.6-.12,4.09-.26,8.22-.39,12.39q-2.88-.27-5.76-.51,1.68-28.24,3.13-54.4l4.42,0c4.8,17.65,9.89,36.46,15.28,56.6C264.25,284,262.32,283.81,260.39,283.6Zm24.19,2.9q-7.15-19.33-13.77-36.81h-.11l4.86,35.65-5.81-.69q-3.87-29.94-7.33-56.89l5.09.06q6.28,16.31,13,34.24h.11q-2.59-17.62-5-34.15l5.31.07q4.33,28.07,9.15,59.28Zm21.59,3.19-5.88-.93q-4.64-27.79-8.85-53l-6.22-.19c-.4-2.52-.79-5-1.19-7.51l17.59.26q.7,3.9,1.43,7.84l-6.23-.22Q301.28,261.51,306.17,289.69Zm26.75-6.77a20.25,20.25,0,0,1-.34,6.21,6.42,6.42,0,0,1-2.3,3.81,5.64,5.64,0,0,1-4.52.7,10.32,10.32,0,0,1-4.27-2,18.76,18.76,0,0,1-3.84-4,29.43,29.43,0,0,1-3-5.42,29.07,29.07,0,0,1-1.92-6.31c-.21-1.17-.43-2.34-.64-3.5l5.73.74c.19,1,.38,2,.58,3a14.91,14.91,0,0,0,1.85,4.9,5.08,5.08,0,0,0,3.6,2.66,2.62,2.62,0,0,0,2.18-.36,3,3,0,0,0,.87-1.88,10.71,10.71,0,0,0-.11-3.14c-.19-1.25-.45-2.63-.75-4.15-.36-1.77-.69-3.23-1-4.37a14.23,14.23,0,0,0-1-2.77,7.24,7.24,0,0,0-1.37-1.79,17.59,17.59,0,0,0-2-1.57q-2.3-1.61-4.57-3.15a17.5,17.5,0,0,1-6.05-6.78,37.82,37.82,0,0,1-3-9.69,32.92,32.92,0,0,1-.6-6.36,15.87,15.87,0,0,1,.77-5.1,7.55,7.55,0,0,1,2.15-3.36,5.48,5.48,0,0,1,3.79-1.2,7.23,7.23,0,0,1,3.86,1.23,14.89,14.89,0,0,1,3.48,3.21,23.21,23.21,0,0,1,4.42,9.67c.3,1.48.61,3,.92,4.45l-5.49-.36c-.13-.68-.27-1.35-.4-2a17.18,17.18,0,0,0-1.94-5.3,4.05,4.05,0,0,0-3.37-2.31,2,2,0,0,0-1.67.61,3.73,3.73,0,0,0-.78,1.65,9,9,0,0,0-.1,2.48,25.41,25.41,0,0,0,.41,3q.35,1.81.66,3a10.45,10.45,0,0,0,.82,2.21,6.84,6.84,0,0,0,1.27,1.73,12.1,12.1,0,0,0,2,1.55q2.38,1.55,4.8,3.15a16,16,0,0,1,3.58,3.07,19.36,19.36,0,0,1,2.6,3.94,36.39,36.39,0,0,1,1.9,5.23c.55,2,1.08,4.19,1.61,6.69A63.33,63.33,0,0,1,332.92,282.92Zm-82.66-40.2q-.27,9.75-.57,19.78l5.61.37q-2.52-10.31-4.93-20.15Z"/><path class="cls-7" d="M249.69,262.5l5.61.37c-.44-1.8-.87-3.56-1.31-5.34l5-.17c2.35,8.7,4.76,17.63,7.23,26.87-1.93-.22-3.86-.42-5.79-.63l-3.16-12.89c-2.58-.21-5.15-.41-7.73-.6-.12,4.09-.26,8.22-.39,12.39q-2.88-.27-5.76-.51.72-12.27,1.41-24.13l5.07-.18C249.79,259.29,249.74,260.88,249.69,262.5Zm28.88-5.66c-1.67,0-3.35.07-5,.12q5.35,14.19,11,29.54l5.5.76q-2.43-15.7-4.72-30.57l-5.48.13c.25,1.74.51,3.48.77,5.24h-.11C279.88,260.29,279.23,258.58,278.57,256.84Zm21.72,31.92,5.88.93c-2-11.42-3.9-22.46-5.77-33.22l-5.48.07C296.66,267,298.45,277.7,300.29,288.76ZM24.67,279.93l-5.85,1c-1,4.63-1.93,9.28-2.92,14q3-.6,6-1.15C22.81,289.14,23.74,284.52,24.67,279.93Zm307.07-5.09c-.53-2.5-1.06-4.73-1.61-6.69a36.39,36.39,0,0,0-1.9-5.23,19.36,19.36,0,0,0-2.6-3.94,15.94,15.94,0,0,0-3-2.66l-10.86,0a18.5,18.5,0,0,0,4.36,4.12q2.28,1.54,4.57,3.15a17.59,17.59,0,0,1,2,1.57A7.24,7.24,0,0,1,324,267a14.23,14.23,0,0,1,1,2.77c.3,1.14.63,2.6,1,4.37.3,1.52.56,2.9.75,4.15a10.71,10.71,0,0,1,.11,3.14,3,3,0,0,1-.87,1.88,2.62,2.62,0,0,1-2.18.36,5.08,5.08,0,0,1-3.6-2.66,14.91,14.91,0,0,1-1.85-4.9c-.2-1-.39-2-.58-3l-5.73-.74c.21,1.16.43,2.33.64,3.5a29.07,29.07,0,0,0,1.92,6.31,29.43,29.43,0,0,0,3,5.42,18.76,18.76,0,0,0,3.84,4,10.32,10.32,0,0,0,4.27,2,5.64,5.64,0,0,0,4.52-.7,6.42,6.42,0,0,0,2.3-3.81,20.25,20.25,0,0,0,.34-6.21A63.08,63.08,0,0,0,331.74,274.84ZM89.36,270.28l0,.3a17.86,17.86,0,0,0,.07,5.29,12.59,12.59,0,0,0,1.5,4.2,7.74,7.74,0,0,0,2.62,2.73,5.58,5.58,0,0,0,3.48.74,8,8,0,0,0,3.74-1.44,13.66,13.66,0,0,0,3.3-3.24,18.66,18.66,0,0,0,2.41-4.45,20,20,0,0,0,1.2-5.24c0-.37.07-.72.11-1.09l-5.68.66v0a9.26,9.26,0,0,1-1.48,4.6,3.75,3.75,0,0,1-2.67,1.69,2.36,2.36,0,0,1-2.35-1.27,7,7,0,0,1-.51-4.21Zm144.58,11c1.92.14,3.84.28,5.75.44-.71-8-1.41-15.85-2.09-23.54l-5.52.23Q233,269.6,233.94,281.26ZM78.3,285.09l6.15-.72q-.93-6.66-1.82-13.22l-5.79.76C77.33,276.29,77.8,280.65,78.3,285.09Zm191.45-.45,5.81.69q-2-14.52-3.86-28.33l-5.5.16Q267.94,270.57,269.75,284.64Zm-210.49,3Q60,283,60.7,278.46q-5.72.72-11.44,1.5c.24-1.41.47-2.78.71-4.18l-5.79.9-2.43,13.64Q50.53,288.87,59.26,287.61Zm161.84-7.18,5.74.35c-.53-7.51-1.06-14.85-1.58-22.07l-5.52.27C220.18,266,220.64,273.13,221.1,280.43ZM68.2,286.37c1.76-4.76,3.49-9.4,5.21-14l-6,.82c-1.79,4.59-3.6,9.25-5.44,14Zm-29-8.88c-2.83.46-5.64.92-8.43,1.4.11,4.41.21,8.81.33,13.27,1.86-.34,3.72-.66,5.58-1C37.5,286.55,38.34,282,39.17,277.49Zm72.89-9.89-.09,1a16.73,16.73,0,0,0,.27,5.26,12.82,12.82,0,0,0,1.66,4.17,7.71,7.71,0,0,0,2.84,2.7,7,7,0,0,0,3.81.78,9.27,9.27,0,0,0,4.77-1.61,11.29,11.29,0,0,0,3.32-3.69,19.34,19.34,0,0,0,2-5.25,39,39,0,0,0,.8-5.45l-5.61.57c-.06.74-.14,1.45-.22,2.1a9,9,0,0,1-.72,2.65,4.45,4.45,0,0,1-1.37,1.76,4.16,4.16,0,0,1-2.3.73,2.74,2.74,0,0,1-3-1.6,8,8,0,0,1-.58-3.94c0-.28,0-.56.07-.85Zm86.13,11.87c1.91,0,3.81.11,5.72.18q-.39-10-.78-19.74l-5.55.33C197.78,266.56,198,272.94,198.19,279.47Zm-62.47-14.33q-.43,7.44-.87,15.07,8.53-.43,17.07-.69.14-4,.27-7.95c-3.74.1-7.47.22-11.21.36.12-2.48.24-4.88.36-7.32Zm41.37,14q8.52,0,17,.21c-.07-2.66-.14-5.31-.21-7.93q-5.59-.1-11.19-.15c0-3.4-.07-6.72-.1-10.06l-5.57.41C177.07,267.4,177.08,273.22,177.09,279.16Zm-20.65-15.9c-.15,5.32-.3,10.68-.46,16.15q8.53-.21,17-.24c0-2.66,0-5.29,0-7.9-3.73,0-7.47,0-11.2.1.06-2.88.12-5.73.18-8.57Z"/><path class="cls-8" d="M114.85,287.33H133l-.9,5.92H120.91l-1.12,7.46H130.4l-.87,5.89H118.91l-2.12,14.2h-6.91Zm21.93,0h6.95l-3,20.93a13.62,13.62,0,0,0-.1,1.38c0,3.58,1.92,5.37,5.78,5.37a6.67,6.67,0,0,0,5.45-2.23q1.86-2.22,2.58-7.22l2.67-18.23H164l-2.49,17.38a39.47,39.47,0,0,1-1.52,7.08,15.5,15.5,0,0,1-2.58,4.73,11.87,11.87,0,0,1-4.66,3.39,15.79,15.79,0,0,1-6.38,1.3q-6.15,0-9.4-2.87c-2.16-1.91-3.25-4.68-3.25-8.3a27.2,27.2,0,0,1,.33-4.13Zm32.81,0h6.88l-1.86,13.11,13.11-13.11h8.86l-16.77,16.81,10.91,16.66h-7.46l-9.55-14.57-2.13,14.57h-7Zm30.28,0h7l-3,20.93a13.62,13.62,0,0,0-.1,1.38q0,5.37,5.78,5.37a6.67,6.67,0,0,0,5.45-2.23q1.86-2.22,2.58-7.22l2.68-18.23h6.92l-2.49,17.38a39.47,39.47,0,0,1-1.52,7.08,15.69,15.69,0,0,1-2.57,4.73,12,12,0,0,1-4.67,3.39,15.76,15.76,0,0,1-6.38,1.3q-6.15,0-9.4-2.87t-3.24-8.3a26,26,0,0,1,.33-4.13Zm32.27,0H239l-5,33.47h-6.9Z"/><path class="cls-9" d="M140.68,308.59c0,.45-.07.82-.07,1.05,0,3.58,1.92,5.37,5.78,5.37a6.67,6.67,0,0,0,5.45-2.23,13.39,13.39,0,0,0,2.4-6.28q3.56-.5,7.16-.94a37.61,37.61,0,0,1-1.39,6.23,15.72,15.72,0,0,1-2.58,4.73,11.87,11.87,0,0,1-4.66,3.39,15.79,15.79,0,0,1-6.38,1.3q-6.15,0-9.4-2.87c-2.16-1.91-3.25-4.68-3.25-8.3,0-.07,0-.15,0-.23Q137.19,309.18,140.68,308.59ZM118,313q-3.61.81-7.16,1.67l-.91,6.11h6.91Zm86.76-11c-2.35.1-4.69.22-7,.34l-.52,3.58a26,26,0,0,0-.33,4.13q0,5.43,3.24,8.3t9.4,2.87a15.76,15.76,0,0,0,6.38-1.3,12,12,0,0,0,4.67-3.39,15.69,15.69,0,0,0,2.57-4.73,39.47,39.47,0,0,0,1.52-7.08l.46-3.2q-3.51,0-7,.08l-.58,4q-.72,5-2.58,7.22a6.67,6.67,0,0,1-5.45,2.23q-5.78,0-5.78-5.37a13.62,13.62,0,0,1,.1-1.38ZM167,304.9l-2.38,15.9h7l2.13-14.57,9.54,14.57h7.47l-10.91-16.66.58-.58Q173.6,304.15,167,304.9Zm60.22,15.9h6.9l2.84-19.24q-3.42,0-6.88-.06Z"/><path class="cls-5" d="M139.53,238.69l.49,0c2.28-.1,4.71-.24,7.31-.44h0l1.16-.09c16.45-1.32,33.11-10,48.17-25,.19-.19,18.89-19.64,18.89-26.36,0-.07,0-.15,0-.22a8.83,8.83,0,0,0,1.2-1.32l.44-.59.53-.63.55-.59c.23-.23.42-.48.63-.71a24.39,24.39,0,0,0,2.57,3.65,91.94,91.94,0,0,0,19.71,17.31,8.34,8.34,0,0,0,6.58,1.07,8.24,8.24,0,0,0,3.21-1.61c.37.79.78,1.51,1.2,2.22h0C265.57,190,275,167.07,275,129.85L275,47.36A92.08,92.08,0,0,0,259.79,39l-44.64,0c-5.46-.38-40.38-2-53.05,18.49a8,8,0,0,0-1,2.26,9.79,9.79,0,0,0-1.33.06l-.4.07a47.69,47.69,0,0,0-7.73,2.09c-1.13.37-2.32.76-3.65,1.16l-.13,0-1.45.4c-.62.16-1.21.34-1.79.54,0-.12,0-.24-.05-.35a31.84,31.84,0,0,0-.85-3.4c-.09-.28-.18-.57-.33-1-.26-.78-.55-1.55-.87-2.27-.14-.34-.3-.67-.47-1-.35-.75-.73-1.47-1.13-2.17l-.49-.83c-.51-.81-1.05-1.6-1.57-2.28l-.31-.42c-.53-.67-1.09-1.33-1.68-2a8.86,8.86,0,0,0-2.25-3c-.59-.5-1.2-1-1.83-1.45a8.81,8.81,0,0,0-3.36-1.5c-.56-.31-1.14-.61-1.74-.91a30.84,30.84,0,0,0-37.4,8.19,8.87,8.87,0,0,0-2.59,2.62c-.41.64-.8,1.3-1.14,1.95a8.8,8.8,0,0,0-1,3.54,30.54,30.54,0,0,0-2,15C78.91,74.66,75.62,77.18,72,84.89l-.59,1.27c-1,2.17-2,4.73-3.12,7.83l-.71,2c-1.2,3.37-2.51,7.27-4,11.9a8.53,8.53,0,0,0-.37,3.18c.09,1.19.2,2.5.36,4,.12,1.23.3,2.38.51,3.48a8.8,8.8,0,0,0-1.63.65,8.41,8.41,0,0,0-4.09,5.07c-5.1,17.91-6.84,33.32-5.31,47.11a77.37,77.37,0,0,0,1.79,10.17,74.06,74.06,0,0,0,12.77,26.87c1.18,1.59,2.43,3.15,3.7,4.62s2.62,2.92,4,4.28A69.09,69.09,0,0,0,89,227.82a74.16,74.16,0,0,0,16.37,7,8.45,8.45,0,0,0,4.46.07,7.57,7.57,0,0,0,.67.47,11.56,11.56,0,0,0,3.64,1.53,80,80,0,0,0,16.25,1.89l.31,0c.91,0,1.84,0,2.78,0s2.11,0,3.21,0C137.63,238.77,138.57,238.73,139.53,238.69Zm84.28-131.36h-.31Zm-98.15,57.58a13.1,13.1,0,0,0-6.26,6.25,74.4,74.4,0,0,1-10.33-3.25l.18-.13c.4-.35.78-.73,1.19-1.16a19.34,19.34,0,0,0,2.23-3,21.69,21.69,0,0,0,2.85-7.21l.25-.6c.36-.86.76-1.83,1.09-2.88a21.66,21.66,0,0,0,.6-2.22,21.3,21.3,0,0,0-1.09-12.29,16.6,16.6,0,0,0-2-3.66,15.94,15.94,0,0,0,4.45-6.15c.29-.73.7-1.63,1.14-2.6a18.53,18.53,0,0,0,2.83,9.92,33.59,33.59,0,0,0,3.49,4.4,22.52,22.52,0,0,0-2.26,7.26A32.48,32.48,0,0,0,125.66,164.91Z"/><path class="cls-8" d="M271.8,49.07c-.67-.43-1.61-1-2.8-1.7l-54.16.05s-35-2.72-45.65,14.54c0,0,19.53-7.42,24.53,3.18,0,0-26.5-6.06-35.43,16.35-1.51,3.78-10.45,25.11-10.45,25,.07-4.17,3.35-20.41,5.75-26.8,1.24-3.27,5.87-9.24,7.27-11.5-2.78.29-7.77,2.38-12.34,3.55A17,17,0,0,0,135.8,85.35c-2,9.54-6.3,32.4-7.34,39.14a10.24,10.24,0,0,0,1.49,7.15,53.86,53.86,0,0,0,6.38,7.05c1.75,1.5.19-.13,3,3.56a37.25,37.25,0,0,1,3.4,4.66c-5.76-4.4-6.09-3.87-8.48-3.07-1.11.41-1.74,4.17-2,5.29a24.08,24.08,0,0,0,2.05,14.78c1,2,2.33,4.53,4.42,5.65.92.5,3.09.25,3.66.66,0,0-8.38.82-11.25,1.49a4.58,4.58,0,0,0-.66.19c-2.21.78-4.38,2.56-3.31,4.07,0,0,33.69,4.39,44.74-17.08a31.08,31.08,0,0,0-12.86,8.45,36.55,36.55,0,0,1,.15-5.9c2.29-10.67,7-6.75,13.62-10.3a19.81,19.81,0,0,0,9.39-11.2c0,9.08-3.12,12.68-3.12,12.68,5.24-1.4,11.15,2.33,15.12,8.79a53.64,53.64,0,0,1,4.63,12.16c1,.81,6.72-5.88,10.65-15.51,2.48-6.1-4.21-12.11-2.82-14.34.58-.94,6.46,6.2,7,5.23,1.61-2.72,3.1-5.67,4.69-8.56s-9.12-8.36-9.12-8.36c3.52-2.28,11.47,2.95,11.47,2.95,2.93-6.58,4.42-11.74,3.9-17,0,0-1.46-4.17-1.22-19.43s-2.82-14.34-6-12c-.53.4-1.06.78-1.59,1.16-7.22,5.06-15.13,12-15.33,12.13.18-.2,10.51-11.59,15.36-22.73,3.24-7.47,4.12-11.87,8.72-10.66s16.2,12.87,34.75,9.08c0,0,3,4-17.49,7.27-13,2.05-14.81-12.74-14.54,2.27.46,24.84,13.78,32.1,33.16,38.46,0,0-22.8,6.49-27.7-.3,0,0-6.77,11.84-8.64,24.53-1.13,7.72,11.36,14.08,11.36,14.08-9.77-.68-12.54-5.71-12.63-4.55-.72,9.12.19,18.1,4.91,23.63a83.75,83.75,0,0,0,17.89,15.72,16.33,16.33,0,0,0,1.64-4.37c1.58-6.86,7.05-18.51,8.47-21.48.18-.68.35-.73.35-.73l-.35.73c-.36,1.35-.76,5.25.05,16.61a46.45,46.45,0,0,0,.85,6.36c9.14-14.54,15.05-34.67,15.05-64Z"/><path class="cls-10" d="M92.09,73.82a14.29,14.29,0,0,1,11.19,5.73c.91.93,5,3.71,18.89,11a22.29,22.29,0,0,0,7.42-4.6c.12-.59.24-1.18.35-1.7a23,23,0,0,1,6.71-12.59A22.55,22.55,0,1,0,92,73.58C92.05,73.66,92.08,73.74,92.09,73.82Z"/><path class="cls-11" d="M122.17,90.56a22.29,22.29,0,0,0,7.42-4.6c.12-.59.24-1.18.35-1.7a23,23,0,0,1,6.71-12.59,22.45,22.45,0,0,0-12.58-22.46A43.9,43.9,0,0,0,109.71,81.7c0,.7,0,1.4.07,2.09C112.62,85.43,116.61,87.63,122.17,90.56Z"/><path class="cls-12" d="M119.85,69.11a1.3,1.3,0,0,0,.62.84,1.32,1.32,0,0,0,1,.15c.52-.13,1-.25,1.49-.35a30.25,30.25,0,0,0,1.15,4.82c-.64.38-1.33.79-2.08,1.21a1.36,1.36,0,1,0,1.35,2.37l1.74-1A22.36,22.36,0,0,0,127,80.42a8,8,0,0,1-1.2.75,1.36,1.36,0,0,0,.2,2.51,1.28,1.28,0,0,0,1-.08,10.9,10.9,0,0,0,1.65-1A14.36,14.36,0,0,0,130,83.89a20.34,20.34,0,0,1,.79-3c-.07-.07-.14-.12-.2-.19.17-.21.33-.43.49-.65a22.82,22.82,0,0,1,1.13-2.49,1.36,1.36,0,0,0-2.5-.35,14.76,14.76,0,0,1-.81,1.24,20,20,0,0,1-1.43-2.72c.79-.5,1.47-1,2-1.34a1.37,1.37,0,0,0,.55-.89,1.34,1.34,0,0,0-.24-1,1.36,1.36,0,0,0-1.9-.31c-.39.28-.85.59-1.39.93a27,27,0,0,1-.85-3.78,17.17,17.17,0,0,1,1.72-.07,1.38,1.38,0,0,0,1-.39,1.36,1.36,0,0,0,.41-1,1.34,1.34,0,0,0-.4-1,1.32,1.32,0,0,0-1-.41,16.11,16.11,0,0,0-2,.1,27.4,27.4,0,0,1,.09-4.26,12.91,12.91,0,0,1,1.46.65,1.36,1.36,0,1,0,1.26-2.41,16.1,16.1,0,0,0-2.28-1,18.68,18.68,0,0,1,.68-2.37c.54.38,1,.75,1.46,1.08a1.36,1.36,0,0,0,1.91-.23,1.29,1.29,0,0,0,.28-1,1.32,1.32,0,0,0-.51-.91c-.53-.42-1.18-.9-2-1.45l.27-.43a10.47,10.47,0,0,1,1.24-1.62.56.56,0,0,0,.14-.41.51.51,0,0,0-.19-.39c-.42-.36-.86-.7-1.3-1a.54.54,0,0,0-.73.07,13.47,13.47,0,0,0-1.46,1.92l-.24.38-1.54-1a1.32,1.32,0,0,0-1-.17,1.35,1.35,0,0,0-.85.6,1.38,1.38,0,0,0-.17,1,1.33,1.33,0,0,0,.61.85c.62.39,1.21.76,1.77,1.13a21.91,21.91,0,0,0-1,3.24c-.59-.12-1.18-.21-1.79-.28a1.36,1.36,0,1,0-.31,2.7c.59.07,1.13.16,1.63.26a29.46,29.46,0,0,0-.13,5.41c-.6.12-1.22.27-1.86.43A1.36,1.36,0,0,0,119.85,69.11Z"/><path class="cls-12" d="M95.89,60.27l.4.31c-.54.8-1,1.48-1.33,2.07a1.37,1.37,0,0,0-.15,1,1.34,1.34,0,0,0,.62.83,1.48,1.48,0,0,0,1,.16A1.31,1.31,0,0,0,97.3,64c.28-.47.61-1,1-1.53a20.09,20.09,0,0,1,1.48,2A17.21,17.21,0,0,0,98,66.2a1.36,1.36,0,1,0,2,1.8,12,12,0,0,1,1.13-1.13,26.43,26.43,0,0,1,1.61,3.94,17.46,17.46,0,0,0-1.93.64,1.36,1.36,0,1,0,1,2.53c.5-.19,1-.38,1.63-.54a26.73,26.73,0,0,1,.56,3.84c-.62-.13-1.17-.26-1.63-.38a1.4,1.4,0,0,0-1,.14,1.32,1.32,0,0,0-.28.25,16.33,16.33,0,0,1,2.21,2.26,6.23,6.23,0,0,0,.53.46l.25.06a.5.5,0,0,1,0,.12c.55.41,1.38,1,2.59,1.72.05-.45.1-.9.13-1.36l2,.31a1.35,1.35,0,0,0,1.55-1.14,1.37,1.37,0,0,0-1.14-1.55c-.85-.12-1.64-.25-2.38-.38a28.62,28.62,0,0,0-.65-4.91c.49-.08,1-.15,1.52-.21a1.36,1.36,0,0,0,.91-.51,1.29,1.29,0,0,0,.28-1A1.35,1.35,0,0,0,107.32,70c-.66.07-1.29.16-1.89.26a29.28,29.28,0,0,0-2.07-5c.44-.27.92-.54,1.44-.82A1.36,1.36,0,1,0,103.53,62c-.53.28-1.06.58-1.56.9a21.1,21.1,0,0,0-2.09-2.67c.39-.54.81-1.1,1.25-1.69a1.36,1.36,0,0,0-1.27-2.17,1.29,1.29,0,0,0-.9.53c-.38.51-.75,1-1.09,1.47l-.36-.28a14.68,14.68,0,0,0-2.05-1.26.56.56,0,0,0-.71.2c-.29.46-.58.94-.84,1.43a.54.54,0,0,0,0,.43.61.61,0,0,0,.28.33A11.74,11.74,0,0,1,95.89,60.27Z"/><path class="cls-8" d="M216.29,168.52s1.3,1.95-.76,4.37-1.67,3.15-3.19,4.67a26.14,26.14,0,0,0-2.4,2.86s-3.8,2.5-9.73-.46c-.61-.31,8.21-6.54,11.06-14.41"/><path class="cls-8" d="M214.85,158.4s3.15,2,3.76,3.31c0,0-.57-8.33.11-9.93Z"/><path class="cls-8" d="M196.86,183.91c-2,3.31-16.11,11.3-18.4,12.78s-12.06,4.23-13.84,5.78-4.88,9.28-4.88,9.28-1,2.17-2.06-2.33c-1.88-7.56-5-4-10.08-4.76s-10.27-3-13.24-.47-5.64,9.21-5.64,9.21c1.41-6.39-.32-12.39-6.72-15.08s-10.62-5.39-15.18-7.41c-6.14-2.72-14.73,4.92-14.73,4.92,1.83-4.58,8.82-7.78,4.69-11.31-6.14-5.26-7.67-13.21-11.4-15.06-4.31-2.12-5.1-5.32-5.1-5.32s14.79-1.86,19.39-1.22,7.34-5.77,7.67-8.11,3.93-6.39,1.25-13.34-15.36-10.22-15.36-10.22,14.7,2.22,17.89-5.71,13.92-26.65,11-28.25-20.87-10.68-23.53-14-6.17-4.45-11.1-2.75c-4.52,1.56-6.58.57-16,29.89.08,1.13.18,2.36.33,3.78,1.33,12.79,8.33,13.19,8.33,13.19a30.13,30.13,0,0,1-13.8-.85c-9.67,33.89-6.45,57.55,7.91,76.89a62.26,62.26,0,0,0,33.44,23.41c1.27.37,1.59-17.06,4.58-16.18,0,0-2.34,16.72,3.75,18.14,9.2,2.13,19.82,2,31.78,1.06,35.36-2.84,59.39-43,59.39-43C201.44,188.3,196.86,183.91,196.86,183.91Z"/><path class="cls-6" d="M180.28,158.06s11.56.91,15.21,20.38c0,0-58,49-105.4-11C90.09,167.46,142.55,204,180.28,158.06Z"/><path class="cls-13" d="M185.73,160.38c-35.39,37.23-66.36,24.14-66.36,24.14,33.7,18.21,68.14-9.84,73.6-14.6A21.62,21.62,0,0,0,185.73,160.38Z"/><path class="cls-5" d="M189.41,161.1c-8.21,15.36-31,23.18-31,23.18,22.37-5.49,31.78-15.7,34.39-18.21C191.56,163.64,190.64,161.87,189.41,161.1Z"/><path class="cls-1" d="M107.71,226.81c.75.22,1.17-5.76,2-10.52-2.25.48-10.39,2-14.31.48-4.56-1.83-19.16-20.08-21.59-25.86s-2.44-53.24-.61-56.89S82,128.24,82,128.24s-3-8.51-3.35-12.77,6.09-23.42,10-27.38c2.56-2.56,5.24-5.61,6.81-7.46-2.17-1.14-4.78-1.25-8-.13-4.52,1.56-6.58.57-16,29.89.08,1.13.18,2.36.33,3.78,1.33,12.79,8.33,13.19,8.33,13.19a30.13,30.13,0,0,1-13.8-.85c-9.67,33.89-6.45,57.55,7.92,76.89A62.2,62.2,0,0,0,107.71,226.81Z"/><path class="cls-1" d="M207.21,186.8c-1.69.44-4.69,4.72-6.09,4.41-2.16,2.86-4.39,3.33-6.84,6.39-3.65,4.56-18.56,19.47-29.51,25s-44.72,2.43-48.37.91a11.19,11.19,0,0,1-4.52-4.4c.17,4.39,1.09,9,4.16,9.71,9.2,2.13,19.82,2,31.78,1.06C183.18,227,207.21,186.8,207.21,186.8Z"/><path class="cls-1" d="M140.19,176.11c.45-.74.94-1.58,1.46-2.54a4.68,4.68,0,0,0,.32-3.31c-1.71.17-8.34.87-10.83,1.45a4.58,4.58,0,0,0-.66.19c-2.21.78-4.38,2.56-3.31,4.07A69.28,69.28,0,0,0,140.19,176.11Z"/><path class="cls-1" d="M135.8,85.35c-2,9.54-6.3,32.4-7.34,39.14a10.24,10.24,0,0,0,1.49,7.15,53.86,53.86,0,0,0,6.38,7.05c1.75,1.5.19-.13,3,3.56a37.25,37.25,0,0,1,3.4,4.66s-3.78-11.67-6.21-15.32-4.26-4.26-3.95-7.6,6.38-40.77,10.64-45.33c3.22-3.45,12.87-8.29,17.39-10.44-2.83.39-7.62,2.37-12,3.5A17,17,0,0,0,135.8,85.35Z"/><path class="cls-1" d="M134.21,143.84c-1.11.41-1.74,4.17-2,5.29a24.08,24.08,0,0,0,2.05,14.78c1,2,2.33,4.53,4.42,5.65.75.41,2.34.32,3.2.5-.63-2.71-2.6-5.75-3-8.66-.6-4.26-5.17-14.9-1.52-14.6a30.68,30.68,0,0,0,5.3.11C136.93,142.51,136.6,143,134.21,143.84Z"/><path class="cls-1" d="M158.29,81.49c-1.14,2.86-6.54,15.77-9.1,21.83-.82,2-1.35,3.18-1.35,3.15s12.67-20.81,13.89-23.85,7.6-14,16.12-14.61a79.29,79.29,0,0,0,15.87-2.87S167.22,59.08,158.29,81.49Z"/><path class="cls-1" d="M161.42,152.88c-2.25,1.39-2.13,4.15-1.61,6.28,2.46-7.78,6.93-4.75,13-8a19.81,19.81,0,0,0,9.39-11.2,84.79,84.79,0,0,0-9.53,6.86C168.42,150.45,165.38,150.45,161.42,152.88Z"/><path class="cls-1" d="M183,150.15a16.18,16.18,0,0,0-.81-10.21c0,9.08-3.12,12.68-3.12,12.68,5.24-1.4,11.15,2.33,15.12,8.79.16.25.3.53.45.79C193.09,150.44,183,150.15,183,150.15Z"/><path class="cls-9" d="M212.34,177.56c1.52-1.52,1.25-2.39,3.19-4.67s.76-4.37.76-4.37L214,167.13c-1.16,2.15-4.35,7.7-5.38,8.72-.7.71-2-.52-2.93-1.55-3,3.31-5.78,5.48-5.43,5.66,5.93,3,9.73.46,9.73.46A26.14,26.14,0,0,1,212.34,177.56Z"/><path class="cls-9" d="M216.44,159.52a8.1,8.1,0,0,1,2.17,2.19s-.24-3.51-.22-6.41C217.78,156.55,216.91,158.48,216.44,159.52Z"/><path class="cls-9" d="M220.75,135c2.93-6.58,4.42-11.74,3.9-17,0,0-1.15-3.29-1.24-14.65a296.22,296.22,0,0,1-10,28.33A26.6,26.6,0,0,1,220.75,135Z"/><path class="cls-9" d="M206.78,145.78c-5.23,9.81-9.46,14.68-11.86,16.93a59.08,59.08,0,0,1,3.92,10.86c1,.81,6.72-5.88,10.65-15.51C211.41,153.34,207.85,148.68,206.78,145.78Z"/><path class="cls-9" d="M212.49,133.81c-1.67,3.87-3.29,7.28-4.82,10.27,1.85,1.39,5.58,5.63,6,4.87,1.6-2.72,3.1-5.67,4.69-8.56C219.45,138.47,215.52,135.63,212.49,133.81Z"/><path class="cls-9" d="M250.25,128.55a9.11,9.11,0,0,0,4.16-3.54c-7.12,1.42-18.35,2.8-21.62-1.73,0,0-6.77,11.84-8.64,24.53-1.13,7.72,11.36,14.08,11.36,14.08-3.95-1.82-1.08-28.78.44-30S246,130.37,250.25,128.55Z"/><path class="cls-9" d="M245.38,89.92c3.35-3.65,15.52-13.39,15.52-13.39-1.62-3-7.65-4.55-14.66-4.87-7.89-3.21-16.58-7.51-18.5-9.43-3.35-3.34-12.47,4.87-13.69,10s-13.52,27.62-13.52,27.62c.18-.2,10.51-11.59,15.36-22.73,3.24-7.47,4.12-11.87,8.72-10.66,2.36.62,6.59,4,12.65,6.63l.47.19c.62.26,1.25.51,1.91.75l.76.27c.59.2,1.19.39,1.81.57l1,.26q.89.22,1.8.42c.37.07.74.15,1.12.21.6.11,1.22.19,1.84.26.41,0,.81.11,1.22.14.65,0,1.31.07,2,.09.42,0,.83,0,1.26,0,.74,0,1.5-.06,2.27-.11.38,0,.75,0,1.13-.08,1.17-.12,2.36-.3,3.58-.54,0,0,3,4-17.49,7.26-13,2.05-14.81-12.74-14.54,2.27.41,22.37,11.28,30.48,27.58,36.51-1.39-3.08-5.4-11.64-8.61-15.59C242.34,101.17,242,93.57,245.38,89.92Z"/><path class="cls-9" d="M226.52,164.44a18.49,18.49,0,0,1,3-3.67c-5-1.65-6.61-4.31-6.68-3.43-.72,9.12.19,18.1,4.91,23.63a83.75,83.75,0,0,0,17.89,15.72,16.33,16.33,0,0,0,1.64-4.37c1.58-6.86,7.05-18.51,8.47-21.48,0,0-11.32,8.81-17.71,10.33S225,166.88,226.52,164.44Z"/><path class="cls-9" d="M223.44,96.61c-.06-13.17-3-12.27-6-10-.53.4-1.06.78-1.59,1.16-1.67,1.16-3.37,2.44-5,3.7C217.7,89.35,221.48,93.11,223.44,96.61Z"/><path class="cls-9" d="M94,157.6s-2,2.5-4.1,5.55a56.67,56.67,0,0,1,9.73-.23c4.61.65,7.34-5.77,7.67-8.11s3.93-6.39,1.25-13.34-15.36-10.22-15.36-10.22,14.7,2.22,17.89-5.71,13.92-26.65,11-28.25c-2-1.08-10.73-5.54-17.07-9.37a6.92,6.92,0,0,0,1.75,6.25c3.2,3.2,7.76,5.48,6.85,9.59s-4.57,13.69-7.31,16.88-15.51,10-15.51,10,11.41,10,11.41,16S94,157.6,94,157.6Z"/><path class="cls-9" d="M196.86,183.91c-2,3.31-16.11,11.3-18.4,12.78s-12.06,4.23-13.84,5.78-4.88,9.28-4.88,9.28-1,2.17-2.06-2.33c-1.88-7.56-5-4-10.08-4.76s-10.27-3-13.24-.47-5.64,9.21-5.64,9.21c1.41-6.39-.32-12.39-6.72-15.08s-10.62-5.39-15.18-7.41c-6.14-2.72-14.73,4.92-14.73,4.92,1.83-4.58,8.82-7.78,4.69-11.31-5.87-5-7.53-12.5-10.93-14.76-.84,1.69-1.28,3.1-.93,3.81,1.37,2.74,6.39,10,4.56,13.69s-.91,11.41,2.28,11,9.13-5.93,14.15-3.65,19.16,8.21,19.16,11.86,4.11,11.41,5.48,9.13,4.11-6.39,9.58-6.39,14.15-.46,14.6,1.83,5.48,6.38,6.85,4.56,5-9.58,11.4-11.86c3.66-1.31,12.47-9.21,20.84-13.39,5.81-2.9,12.11-2.3,13.39-3.5C206.06,186.09,196.86,183.91,196.86,183.91Z"/><path class="cls-14" d="M111,187c42,27.28,84.48-8.6,84.48-8.6A41.53,41.53,0,0,0,194,172.5C188.55,178.36,159.58,206.1,111,187Z"/><path class="cls-9" d="M175,136.15s6.5-2.73,8.84-1.14c.42.29,3.33-15,8.12-16.35,0,0-9.66-5.09-14.68-1.21-4.51,3.48-2.28,18.7-2.28,18.7"/><path class="cls-9" d="M154.9,116.22s6-6.76,7.82-9,3.88-7.53,7.75-8.44,2.06-4.34,0-3.65-18.15,11.69-15.57,21.13"/><path class="cls-9" d="M150.58,125.4s-1.87,16.93,1.09,21.49c0,0-5.61-2.29-6.29-9.82s2.28-9.36,4.56-9.81"/><path class="cls-1" d="M172.07,112.73s-6.69,6.08-8.21,9.13-3.35,14.9-6.39,17.34-4.26,5.17-1.52,4.86,10.87-7.45,12.28-14.22S172.07,112.73,172.07,112.73Z"/><path class="cls-9" d="M182.35,138s12.69-12.2,16.19-13.57,5.81-4.69,5.66-6.21-5.66,1.19-6.27-.33a6.12,6.12,0,0,1,0-3.5S187.9,121.81,182.35,138Z"/><path class="cls-15" d="M182.35,138c1.59-1.54,2.73-4.16,4.21-6a48.37,48.37,0,0,1,5.31-5.5,56.22,56.22,0,0,1,6.07-4.67c1.27-.85,4.72-3.76,6.26-3.65a19.37,19.37,0,0,0-11.31,3.27s3.25-5.34,8-8.14a9.56,9.56,0,0,1-2,.27C188.89,115.83,183.62,128.94,182.35,138Z"/><path class="cls-15" d="M163.37,138.19s5.74,6.61,10.25.62c0,0,3.36-2.64,2.8-10.28l-2.48-7.47a23.65,23.65,0,0,0-5.71,8.78c-2.31,5.88-4.19,8.07-4.86,8.35Z"/><circle class="cls-4" cx="170.91" cy="129.81" r="5.07"/><circle class="cls-6" cx="172.39" cy="127.47" r="1.41"/><path class="cls-15" d="M153.42,143.22s5.26,1,10.07-12.62,7.11-19.47,16.31-18.94c0,0-5.58.67-7.88,9.42,0,0,6.74-9.91,14.33-4.5,0,0-5.75-2-8.5,3.5,0,0,2.47,9.29-1.9,15.08,0,0-.25-7.65-2-11.34,0,0-2.52,1.54-5.44,7.77s-3.88,6.38-3.88,6.38,3.4,4.06,6.4,3.09c0,0-5.12,3-10.27,1.66,0,0-1.08.91-6.27,2.09Z"/><path class="cls-15" d="M166.36,146.22a41,41,0,0,0,3-2.81c1.11-.91,7.08-7.69,10-8.7a5.71,5.71,0,0,1-1.15-.08C172.47,134.72,168.09,141.36,166.36,146.22Z"/><path class="cls-5" d="M151.67,146.89a15.38,15.38,0,0,1-4.15-8c-1.46-7.39,3.06-13.5,3.06-13.5s-4.19,1.13-5.24,4a62.66,62.66,0,0,0-2.56,9.21C142.5,141.65,145.26,143.89,151.67,146.89Z"/><path class="cls-5" d="M154.9,116.22a18.09,18.09,0,0,1,3.17-8.76c7.91-10.22,15.11-11.88,15.11-11.88-2.45-.88-1.79-1.55-13.11,3.85-2.5,1.19-4.75,8.38-5.73,9.07C152.18,110,152.66,109.66,154.9,116.22Z"/><path class="cls-5" d="M156.21,167.41s-2.66-7.87.23-12.89c0,0-3.76,3.08-4.33,4.34s-.12,5.59.45,7.3S154.92,167.3,156.21,167.41Z"/><path class="cls-9" d="M255.79,170.84c-.36,1.35-.76,5.25.05,16.61a46.45,46.45,0,0,0,.85,6.36c1.35-2.14,2.63-4.4,3.83-6.8C256.5,180.5,255.79,170.84,255.79,170.84Z"/><path class="cls-1" d="M169.19,62s19.31-8.24,26.3-10.07S206.75,51,211.31,51s42,0,53.85.91c2.25.17,4.47.32,6.64.45V49.07c-.67-.43-1.61-1-2.8-1.7l-54.16.05S179.87,44.7,169.19,62Z"/></g></g></svg>