<svg xmlns="http://www.w3.org/2000/svg" viewBox="0 0 120.72 110"><defs><style>.cls-1{fill:#d2de94;}.cls-2{fill:#fff;}.cls-3{fill:#231815;}.cls-4{fill:#169e3d;}.cls-5{fill:#f2c81f;}.cls-6{fill:#07713e;}.cls-7{fill:#d71718;}.cls-8{fill:#8f4c2a;}.cls-9{fill:#f6d9e6;}.cls-10{fill:#169243;}</style></defs><g id="レイヤー_2" data-name="レイヤー 2"><g id="レイヤー_1-2" data-name="レイヤー 1"><path class="cls-1" d="M46.09,17.85A40.84,40.84,0,1,0,86.93,58.69,40.84,40.84,0,0,0,46.09,17.85Z"/><path class="cls-2" d="M28,21.1c.93.41,1.55.66,1.55.66l.33-.35A13.21,13.21,0,0,1,33,17c-6.65-2-12.59-3.1-12.82-2C19.78,16.75,25.33,19.77,28,21.1Z"/><path class="cls-2" d="M74.78,58.69A28.69,28.69,0,1,1,46.09,30,28.69,28.69,0,0,1,74.78,58.69Z"/><path class="cls-2" d="M28.88,32.84s-7.66,4.34-7.51,5.35c.11.8,6.25.46,11.38-.23,0,0,5.35,1.49,5.46,6.61.09,4.27-.63,6.42-3.36,7.45s-8.11,2-12.46,3.41c-4.09,1.37-7.19,3.44-6.82,5.47.34,1.87,12.63-.17,14.33-.86,0,0-2.85,11.55-.51,12.63s9.22-9,12-8.71,3.59,7.69,5.63,7.52,2.05-5.29,3.59-5.8,4.27,3.24,4.78,6.65c0,0,1.19-6-3.42-16.38a34.05,34.05,0,0,0,8.37-27.14c-2.22-16.56-13-16.45-18.95-15.71C36.21,13.73,26.49,18.05,28.88,32.84Z"/><path class="cls-3" d="M41.3,12.76a15.34,15.34,0,0,0-10.14,5.72,16.23,16.23,0,0,0-3,10,28.6,28.6,0,0,0,.34,4.21C25,34.64,21,37.14,21,38.18a.11.11,0,0,0,0,.06c.06.42.43.86,4.16.73,2.1-.07,4.91-.31,7.52-.66.57.17,5.05,1.66,5.15,6.26,0,.24,0,.47,0,.69,0,3.91-.83,5.57-3.14,6.44-1.32.49-3.33,1-5.45,1.5s-4.77,1.16-7,1.9c-4.49,1.5-7.09,3.52-7.09,5.46a2.56,2.56,0,0,0,0,.39.91.91,0,0,0,.52.64c2,1.13,11-.31,13.68-1.05a45,45,0,0,0-1.3,8.93c0,1.74.29,3.12,1.12,3.51,1.34.61,3.62-1.65,6.26-4.26,2.16-2.14,4.61-4.57,5.79-4.42s2.13,2.21,2.92,4,1.57,3.6,2.78,3.49,1.89-1.77,2.41-3.39c.34-1,.73-2.25,1.26-2.43a1.12,1.12,0,0,1,.88.21c1.32.81,3.06,3.54,3.45,6.18a.34.34,0,0,0,.67,0,11.55,11.55,0,0,0,.15-2.13c0-2.59-.53-7.46-3.5-14.25A34.87,34.87,0,0,0,60.93,33.3a34.08,34.08,0,0,0-.31-4.54C58.2,10.67,45.48,12.24,41.3,12.76ZM29,33.14a.34.34,0,0,0,.18-.3.09.09,0,0,0,0-.05,27.93,27.93,0,0,1-.37-4.33,15.52,15.52,0,0,1,2.87-9.57,14.67,14.67,0,0,1,9.67-5.45c2.83-.35,7-.6,10.68,1.33C56.34,17,59,21.75,60,28.85a34.39,34.39,0,0,1,.29,4.46A34.12,34.12,0,0,1,51.68,55.7a.31.31,0,0,0-.1.24.35.35,0,0,0,0,.14c3,6.72,3.5,11.58,3.51,14.14a9.55,9.55,0,0,0-3.22-4.6,1.72,1.72,0,0,0-1.46-.27c-.86.28-1.26,1.54-1.69,2.87s-.92,2.84-1.81,2.91c-.73.06-1.43-1.53-2.1-3.08-.9-2.07-1.84-4.22-3.46-4.42s-3.86,2.13-6.35,4.6c-2,2-4.59,4.55-5.5,4.13-1.44-.66-.46-7.56.7-12.24a.35.35,0,0,0-.1-.34.34.34,0,0,0-.35-.06C28.2,60.35,17.94,62,16.07,61c-.06,0-.16-.1-.17-.16-.3-1.65,2.29-3.64,6.6-5.08,2.2-.73,4.72-1.35,7-1.89A53.81,53.81,0,0,0,35,52.33c3.11-1.16,3.67-3.74,3.58-7.78-.12-5.31-5.66-6.91-5.71-6.92a.33.33,0,0,0-.14,0c-5.58.74-10.28.85-11,.46C22.06,37.41,25.72,35,29,33.14Z"/><path class="cls-3" d="M26.43,65.46c-.84.28-8.2,2.83-8.8,5.36a1.52,1.52,0,0,0,.47,1.46,2.89,2.89,0,0,0,2.53,1c1.82-.28,3.68-2.48,6.21-7.34a.34.34,0,0,0-.05-.38A.31.31,0,0,0,26.43,65.46Z"/><path class="cls-3" d="M40.18,71.89a14.39,14.39,0,0,1-2.11,4c-1.35,1.67-2,3.71-1.6,5a1.74,1.74,0,0,0,1.24,1.18,2.37,2.37,0,0,0,2.38-.45c2.24-2.09.8-9.34.74-9.66a.34.34,0,0,0-.31-.27A.36.36,0,0,0,40.18,71.89Z"/><path class="cls-3" d="M29.9,60c-1.7.68-14,2.73-14.33.85a1.92,1.92,0,0,1,.1-1,2.94,2.94,0,0,0-1.13,3.36c.74,2.08,12-.23,14.85-.87C29.67,61,29.9,60,29.9,60Z"/><path class="cls-3" d="M41.34,64c-2.69-.33-9.5,9.4-11.83,8.74a3.78,3.78,0,0,0,1.41,2.47c2.61,1.65,9.71-6.27,12.42-9.46C42.78,64.77,42.14,64.06,41.34,64Z"/><path class="cls-4" d="M51.58,25.19a2.47,2.47,0,0,0-1-.68s-1.64,1.83-2,6.71c-.34,4.1,1.92,9.48,5.58,10.36C46.68,33.73,52.14,25.76,51.58,25.19Z"/><polygon class="cls-5" points="120.72 16.95 95.65 23.89 116.53 0 98.28 1.6 64.27 40.51 83.78 35.11 40.33 85.28 120.72 16.95"/><path class="cls-2" d="M83.66,52.62c-1.38-12.74-18.35-15-20-8.43-.55,2.2,1.88,4.09,4.23,5.35-2.59-.92-5.63-1.48-6.25.55s.89,3.94,2.43,5.45c-1.43-.92-3-1.5-3.74-.33-1.23,2,1.12,5.78,2.07,7.17,2.82,2.6,4,6.27,2.1,8.16A2.6,2.6,0,0,1,62,71a10.58,10.58,0,0,1-.84.75,2.24,2.24,0,0,1,.52,2C69.14,72.84,85.43,69,83.66,52.62Z"/><path class="cls-3" d="M63.32,44.11a2.87,2.87,0,0,0-.08.71c0,1.26.84,2.53,2.47,3.75a5.24,5.24,0,0,0-3.32.13A2.08,2.08,0,0,0,61.31,50a3.43,3.43,0,0,0-.14,1,5.88,5.88,0,0,0,1.45,3.48,2.81,2.81,0,0,0-1.52-.17A1.62,1.62,0,0,0,60,55c-1.33,2.11,1,6,2.07,7.54l0,.07a8.3,8.3,0,0,1,2.92,5.44,2.88,2.88,0,0,1-.83,2.22,2.26,2.26,0,0,1-2.22.4.34.34,0,0,0-.32.09l-.82.73a.35.35,0,0,0-.06.46,1.92,1.92,0,0,1,.47,1.65.37.37,0,0,0,.06.32.36.36,0,0,0,.31.13C69,73.21,85.81,69.37,84,52.59h0c-.82-7.54-7.24-11.91-13.16-12.31C66.92,40,64,41.51,63.32,44.11Zm4.88,5.57a.35.35,0,0,0-.15-.44c-2.14-1.15-4.57-2.94-4.07-5,.57-2.27,3.24-3.57,6.81-3.33,5.64.39,11.75,4.54,12.53,11.71A21.16,21.16,0,0,1,83.45,55C83.45,68.9,69,72.44,62,73.34c0,0,0,0,0,0a2.84,2.84,0,0,0-.49-1.45c.2-.17.39-.35.51-.46a2.83,2.83,0,0,0,2.67-.6,3.6,3.6,0,0,0,1-2.63v-.08a9,9,0,0,0-3.11-5.9c-.64-1-2.35-3.65-2.35-5.6a2.18,2.18,0,0,1,.3-1.18,1,1,0,0,1,.64-.47,4,4,0,0,1,2.63.91.36.36,0,0,0,.46-.08.35.35,0,0,0,0-.46C62.94,54,61.43,52,62,50.19a1.43,1.43,0,0,1,.73-.88c.94-.48,2.7-.29,5.08.55A.35.35,0,0,0,68.2,49.68ZM62,73.74h0a.5.5,0,0,1,0,.12S62,73.77,62,73.74Z"/><path class="cls-3" d="M57.07,42.38a16.36,16.36,0,0,1-5.26,10.53c-2.3,2.13-3.74-.73-1.9-1.81C51.1,50.39,54,47.9,57.07,42.38Z"/><path class="cls-3" d="M26.82,55.77A20.86,20.86,0,0,0,19,58.2c-1.39.75-1.68,2.44.89,1.54C21,59.33,23,57.64,26.82,55.77Z"/><path class="cls-6" d="M62.84,21.89c-.4-3.63-1.76-9.55-10.24-12.95C41.22,4.4,36.56,8.49,33,14.38c0,0-12.1-2.11-13.58-.21-1,1.33-.75,3,9.89,7.59,0,0-9.68-4.44-9.16-6.83.46-2.18,25.25,4.92,30.37,9.58a2.47,2.47,0,0,1,1,.68c.57.57-4.9,8.54,2.5,16.39,4.27,1,8-1.71,8.19-11.38A20.18,20.18,0,0,0,62.84,21.89Z"/><path class="cls-3" d="M36.29,20.35c.05-.09.11-.17.15-.25Z"/><path class="cls-3" d="M36.67,28.51A27.4,27.4,0,0,1,35.78,21a.21.21,0,0,1,0-.06c-1,1.19-2.49,2.33-3,2.2-2.5,3.19-3.07,5.92-3.64,9.67,0,0-7.65,4.33-7.51,5.35.11.79,6.26.46,11.38-.23a29.88,29.88,0,0,0,9.56-2.27A6.67,6.67,0,0,0,47,29.42a13.73,13.73,0,0,0-7.55,4S37.69,32.61,36.67,28.51Z"/><path class="cls-3" d="M36.11,20.61a1.63,1.63,0,0,0,.11-.17A1.63,1.63,0,0,1,36.11,20.61Z"/><path class="cls-3" d="M35.91,20.87l.12-.16A1.67,1.67,0,0,0,35.91,20.87Z"/><path class="cls-7" d="M32.63,23.06s1.65-2.62,2.9-4.9a38.49,38.49,0,0,0,3.3-8.65,16.66,16.66,0,0,1-.12,4.79A11.68,11.68,0,0,0,42,9.06a12.74,12.74,0,0,1,.8,4.67A7.91,7.91,0,0,0,45.31,10a20.2,20.2,0,0,1-.22,5.69A8.45,8.45,0,0,0,47,13a17.21,17.21,0,0,1-.91,6.26s.68.12,1.82-1.82c0,0,0,7.85-.91,12,0,0,0-6.63-2.39-10.92-1.42-2.54-3.3-3.08-4.55-2.62s-2.73,2.62-3.64,4.21S33,23.74,32.63,23.06Z"/><path class="cls-2" d="M39.17,33.27A14.15,14.15,0,0,1,47,29.09H47c0-1.39-.29-6.86-2.38-10.58-1.43-2.54-3.3-3.08-4.55-2.62s-2.73,2.62-3.64,4.21a8.22,8.22,0,0,1-.67.93,27.8,27.8,0,0,0,.89,7.48C37.44,31.59,38.63,32.84,39.17,33.27Z"/><path class="cls-8" d="M39.39,33.06c.27-.28.59-.57,1-.88.34-1.45,0-4.37-.31-6.68-.39-2.85-1.46-6.46-2.73-6.78-.32.47-.61.94-.86,1.38l-.2.31a32.27,32.27,0,0,0,.54,5.83C37.17,28.64,38.2,32.62,39.39,33.06Z"/><path class="cls-9" d="M47,29.09a14.27,14.27,0,0,0-9,5.61.34.34,0,1,0,.56.38,13.87,13.87,0,0,1,8.53-5.31.35.35,0,0,0,.29-.39A.34.34,0,0,0,47,29.09Z"/><path class="cls-3" d="M39.09,31.73c1-.11.08-3.44-.26-5.94s-.79-5.88-1.94-5.58c-1,.26-.45,3.93-.11,6S38,31.85,39.09,31.73Z"/><path class="cls-3" d="M58.17,33.5c0,1.38-.71,2.5-1.59,2.5S55,34.88,55,33.5,55.7,31,56.58,31,58.17,32.12,58.17,33.5Z"/><path class="cls-4" d="M56.58,31a.75.75,0,0,0-.26,0,2.69,2.69,0,0,1,1.06,2.34,2.44,2.44,0,0,1-1.33,2.47,1.12,1.12,0,0,0,.53.15c.88,0,1.59-1.12,1.59-2.5S57.46,31,56.58,31Z"/><path class="cls-2" d="M52,79.72s5.41-.57,6.44-2.57-4.48-3.41-4.48-3.41,5.37,2.7,7.39.5-4.79-6.37-4.79-6.37,5.64,5,8,2.67c3.79-3.74-4.59-14.41-13.62-10.09-7.1,3.4-6.89,8.76-8,13.82-.5,2.38-3.74,1.53-8.69,1.36C34.22,75.63,40.2,81.09,52,79.72Z"/><path class="cls-3" d="M50.73,60.14c-6.2,3-7,7.47-7.73,11.82l-.41,2.25c-.33,1.52-2,1.47-5.49,1.24l-2.87-.16a.33.33,0,0,0-.33.21.36.36,0,0,0,.09.38c.25.23,6.23,5.55,18,4.18.25,0,5.61-.62,6.71-2.75a1.4,1.4,0,0,0,.17-.65,1.48,1.48,0,0,0-.13-.58,2.21,2.21,0,0,0-.53-.68,3.87,3.87,0,0,0,3.35-.93,1.67,1.67,0,0,0,.47-1.17A2.45,2.45,0,0,0,62,73a4.21,4.21,0,0,0-1.05-2c1.4.53,2.8.66,3.75-.28,1.55-1.53,1.35-4.21-.49-6.83C61.63,60.25,56.29,57.48,50.73,60.14ZM43.25,74.35l.42-2.28c.76-4.37,1.47-8.49,7.36-11.31,5.2-2.49,10.2.12,12.65,3.6,1.64,2.33,1.87,4.66.57,5.94-1.06,1-3.09.28-4.85-.77a24.49,24.49,0,0,0-2.69-1.94.34.34,0,0,0-.45.09.31.31,0,0,0-.07.2.35.35,0,0,0,.12.26A20.61,20.61,0,0,0,59,70.08c1.16,1,2.24,2.12,2.37,3a1.41,1.41,0,0,1,0,.18,1,1,0,0,1-.29.71c-.94,1-2.75.84-4.29.43a16.63,16.63,0,0,0-2.77-1,.34.34,0,0,0-.4.21.6.6,0,0,0,0,.12.34.34,0,0,0,.19.31,16.73,16.73,0,0,0,2.76,1,3.41,3.41,0,0,1,1.59,1.28.66.66,0,0,1,0,.63c-.78,1.5-4.72,2.23-6.18,2.39h0c-9,1-14.57-2-16.61-3.35l1.73.1C40.39,76.35,42.79,76.52,43.25,74.35Z"/><path class="cls-10" d="M86.15,96.22a1.67,1.67,0,0,0-.67-.36,5.69,5.69,0,0,0,.8-2.81,7.63,7.63,0,0,0-.73-3,4.51,4.51,0,0,1-.25-.65l-.38-2.08c-.35-2-.52-3-1-3.62a1.93,1.93,0,0,0-1.53-.7c-1.75,0-3.94,2.87-4,2.9a1.69,1.69,0,0,0-.34,1v.18s.08.44.12.63l-2.63,3.16c-1.48,1.8-3.3,4-3.66,4.37,0,0,0,0,0,0l-.74.78c-.26.28-.52.56-.79.82a13.67,13.67,0,0,1,1-2.15c6.22-9,7.94-11.63,8.21-12.78a4.07,4.07,0,0,0,1.11-.41,2.77,2.77,0,0,0,1.14.46,3.78,3.78,0,0,0,2.94-1.29,23.84,23.84,0,0,0,2.26-2.79,1.67,1.67,0,0,0,.34-1,1.71,1.71,0,0,0-.51-1.22l-.23-.23-.06,0a1.71,1.71,0,0,0,.17-.69,1.69,1.69,0,0,0-.29-1A1.72,1.72,0,0,0,84.68,73l-1.56.37a2.47,2.47,0,0,0-1.19-.3,6,6,0,0,0-3.45,1.24A2.86,2.86,0,0,0,77,73.21a2.41,2.41,0,0,0-2,.24,3.8,3.8,0,0,0-.5-.24,2.5,2.5,0,0,0-2,.3l-.23-.17a2.48,2.48,0,0,0-2.28,0A1.69,1.69,0,0,0,68.48,73L67,73.39a2.62,2.62,0,0,0-1.19-.3,5.58,5.58,0,0,0-2,.41A1.66,1.66,0,0,0,62.26,73l-1.64.39a1.5,1.5,0,0,0-.25-.19,2.16,2.16,0,0,0,.89-1.69c0-.76-.39-2.52-4-2.52a8.37,8.37,0,0,0-3.1.63,14.26,14.26,0,0,0-3.51-.51,9.79,9.79,0,0,0-5.51,1.52,1.63,1.63,0,0,0-.91-.59c-.58-.14-14.28-3.25-25.56-2.26S0,72.87,0,78.18a4.7,4.7,0,0,0,1.71,3.69c2.37,2,6.56,2.07,7.82,1.86A1.7,1.7,0,0,0,10,80.5a4.88,4.88,0,0,1-2.24-1.76s0-.1.11-.22,1.6-1.38,7.39-1.38a21.11,21.11,0,0,1,4.26.32c-.28.45-8.79,14.63-8.79,14.63a1.7,1.7,0,0,0-.25.88,1.73,1.73,0,0,0,.44,1.14,1.67,1.67,0,0,0,2,.4l2.19-1L7.7,107a1.72,1.72,0,0,0-.21.82,1.67,1.67,0,0,0,.74,1.41,1.7,1.7,0,0,0,2.27-.31l1.94-2.32a1.7,1.7,0,0,0,1.36.78,56,56,0,0,1,14,2.57,1.7,1.7,0,0,0,1.9-.6c.18-.23,4.52-5.79,16.16-5.28a81.85,81.85,0,0,1,8.81.84,74.92,74.92,0,0,0,13.86.78c14-.25,18.2-6.54,18.37-6.81a1.68,1.68,0,0,0,.27-.92,1.73,1.73,0,0,0-.52-1.23ZM54.79,86.9a12.19,12.19,0,0,0,4.6-4.48l.47-.78s0-.06.08-.08l.91-.46h0L61,81a.19.19,0,0,1,.23,0,2.55,2.55,0,0,0,1.43.6,3.11,3.11,0,0,0,1.86-.48.22.22,0,0,1,.21,0,2.4,2.4,0,0,0,1.07.45,2.1,2.1,0,0,0,1.44-.32.21.21,0,0,1,.19,0,1.3,1.3,0,0,0,.65.18h1.48a1,1,0,0,0,.65-.15.17.17,0,0,1,.17,0,1.36,1.36,0,0,0,.59.15H72.4a1.36,1.36,0,0,0,1-.5.17.17,0,0,1,.15-.06.16.16,0,0,1,.15.06l.24.25a.18.18,0,0,1,.06.15.16.16,0,0,1-.07.14,1.14,1.14,0,0,0-.27.31L72.4,83.87,70.48,87a.18.18,0,0,1-.22.08,3.09,3.09,0,0,0-1.18-.21,12.32,12.32,0,0,0-6.77,2.67.18.18,0,0,1-.22,0,.17.17,0,0,1-.06-.22,1.54,1.54,0,0,0,.13-.59,1.47,1.47,0,0,0-.07-.46c-.26-.77-1-1.15-2.17-1.13a6.11,6.11,0,0,0-3.28,1.81.2.2,0,0,1-.18,0,.21.21,0,0,1-.13-.13l0-.07-.16-.41a2.42,2.42,0,0,0-1.33-1.13.21.21,0,0,1-.13-.17A.18.18,0,0,1,54.79,86.9Zm13.39,3.65-.33.51-.19.32a22.71,22.71,0,0,0-1.74,3.24.21.21,0,0,1,0,.06l-.47.5a16.86,16.86,0,0,1-2.87,2.69.18.18,0,0,1-.21,0,.17.17,0,0,1-.07-.2,13.86,13.86,0,0,1,1.85-3.83,13.43,13.43,0,0,1,3.82-3.55.17.17,0,0,1,.23,0A.18.18,0,0,1,68.18,90.55ZM40.8,77.09l3.47-3.85a.18.18,0,0,1,.17-.06.19.19,0,0,1,.15.11,1.18,1.18,0,0,0,.43.53,1.32,1.32,0,0,0,1.52,0,4.69,4.69,0,0,1,3-1,.19.19,0,0,1,.18.11.2.2,0,0,1,0,.21,19.56,19.56,0,0,0-1.94,2.45c-2.11,3.13-3.39,3.13-4,3.13a.66.66,0,0,1-.53-.22.15.15,0,0,1-.12-.1h0a1.4,1.4,0,0,0-.94-.87l-.47-.12a1.52,1.52,0,0,0-.67,0,.18.18,0,0,1-.21-.08A.17.17,0,0,1,40.8,77.09ZM39,79.1l.72-.8a.2.2,0,0,1,.22,0,.2.2,0,0,1,.11.17v0a.78.78,0,0,0,0,.22A1.36,1.36,0,0,0,40,79s0,.12,0,.12a.07.07,0,0,1,0,0,.19.19,0,0,1,0,.12.18.18,0,0,1-.15.08,3.21,3.21,0,0,0-.73.07.18.18,0,0,1-.2-.09A.17.17,0,0,1,39,79.1ZM28,92.62l-.2.32c-1.62,2.59-3.11,5.51-2,7.51a2.83,2.83,0,0,0,.63.75.2.2,0,0,1-.09.34c-4.3.8-8.27,1.72-11.93,2.6a.22.22,0,0,1-.21-.09.18.18,0,0,1,0-.22L32.87,81.55a1.33,1.33,0,0,0-1.5-2.09L27.42,81A.19.19,0,0,1,27.2,81a.2.2,0,0,1,0-.22l1.3-2.17a.2.2,0,0,1,.09-.07c1-.44,5,.41,8,1.46a.17.17,0,0,1,.13.17.2.2,0,0,1-.11.18l-.25.1a1.55,1.55,0,0,0-.6.51l-3.19,4.77C30.55,88.72,28.45,91.86,28,92.62Zm2.14,6.11a.21.21,0,0,1-.23,0,.18.18,0,0,1,0-.22,7.22,7.22,0,0,1,.66-1.11,27.66,27.66,0,0,1,4.93-5.51.16.16,0,0,1,.22,0,.17.17,0,0,1,.07.21,8.29,8.29,0,0,1-1.26,2.33C32.35,97.19,30.94,98.29,30.14,98.73Zm8,1a.2.2,0,0,1-.16.1l-2.27.23a.19.19,0,0,1-.13-.35,14.06,14.06,0,0,0,1.77-1.53.17.17,0,0,1,.19,0,.18.18,0,0,1,.13.15,2.75,2.75,0,0,0,.32,1l.13.21A.21.21,0,0,1,38.19,99.78ZM42.8,88.27l-2.24,3.36a.18.18,0,0,1-.2.08.17.17,0,0,1-.14-.15,4.14,4.14,0,0,0-1.51-2.65,3.43,3.43,0,0,0-1.65-.66.21.21,0,0,1-.15-.11.21.21,0,0,1,0-.19c3.5-5,4.16-6.23,4.37-6.78a.17.17,0,0,1,.11-.11.2.2,0,0,1,.17,0,4,4,0,0,0,2.09.63A7.73,7.73,0,0,0,48.89,80,.17.17,0,0,1,49,80a.2.2,0,0,1,.13.09l.2.31a2.81,2.81,0,0,0,2.51,1.18.2.2,0,0,1,.2.12.19.19,0,0,1-.07.22,5.12,5.12,0,0,0-1.95,2.46.19.19,0,0,1-.19.13.2.2,0,0,1-.18-.16L49.62,84a2.16,2.16,0,0,0-1.21-1.41A3.53,3.53,0,0,0,44,85.85a2.59,2.59,0,0,0,.09.68,2.79,2.79,0,0,0,.26.59.18.18,0,0,1,0,.16.19.19,0,0,1-.1.12l-.89.37A1.5,1.5,0,0,0,42.8,88.27ZM47,98.06l-.29.46a1.28,1.28,0,0,0-.21.71l0,.28a.21.21,0,0,1,0,.16.23.23,0,0,1-.15.07l-.59,0h-.54a.19.19,0,0,1-.18-.13.2.2,0,0,1,.07-.21,16.26,16.26,0,0,0,1.61-1.52.18.18,0,0,1,.25,0A.18.18,0,0,1,47,98.06Zm.08-5.5h0a26.67,26.67,0,0,1-3.17,3.52.2.2,0,0,1-.25,0,.18.18,0,0,1,0-.25c3.74-5.28,4.82-7,4.82-7.77a1.06,1.06,0,0,0-.14-.48.2.2,0,0,1,.06-.23,4,4,0,0,0,.76-.83,3.87,3.87,0,0,0,.51-1.09.18.18,0,0,1,.19-.14.19.19,0,0,1,.18.16,2.52,2.52,0,0,0,.67,1.43,2.33,2.33,0,0,0,1,.59.19.19,0,0,1,.14.16.19.19,0,0,1-.09.18A19,19,0,0,0,47.05,92.56Zm13.15,8.8a.19.19,0,0,1-.21.15L56.86,101c-1.44-.24-3.25-.54-5.23-.79a.19.19,0,0,1-.14-.12.22.22,0,0,1,0-.08.27.27,0,0,1,0-.12l.13-.21A17.32,17.32,0,0,1,54,96.17a.17.17,0,0,1,.15-.07.18.18,0,0,1,.15.08,2.64,2.64,0,0,0,2.31,1,5.53,5.53,0,0,0,.93-.13.18.18,0,0,1,.16,0,.17.17,0,0,1,.07.15v.18a4.26,4.26,0,0,0,.66,2.43,3.24,3.24,0,0,0,1.66,1.26A.19.19,0,0,1,60.2,101.36Zm.13-10.13-.7.76s0,0,0,0l-.12.16A5,5,0,0,1,57.15,94a.21.21,0,0,1-.2,0,.21.21,0,0,1,0-.2l.36-.83a.1.1,0,0,1,0-.06,25.35,25.35,0,0,1,2.76-2,.21.21,0,0,1,.25,0A.2.2,0,0,1,60.33,91.23ZM74,101.46a33.26,33.26,0,0,1-5.85.6,49.23,49.23,0,0,1-6.3-.31.17.17,0,0,1-.16-.19.19.19,0,0,1,.18-.19,5.68,5.68,0,0,0,3.62-1.86.21.21,0,0,1,.17,0,.24.24,0,0,1,.15.11l.21.36a3.57,3.57,0,0,0,3.16,1.42,4.62,4.62,0,0,0,2.9-1.43.19.19,0,0,1,.26,0,5.74,5.74,0,0,0,1.06.84l.6.3.05,0a.19.19,0,0,1-.05.36Zm5.51-6.21h0a4.35,4.35,0,0,1-3.59,1.86,1.53,1.53,0,0,1-.68-.12.16.16,0,0,1-.11-.13.17.17,0,0,1,0-.17l4-5a.21.21,0,0,1,.17-.07.24.24,0,0,1,.15.11A4.51,4.51,0,0,1,80,93.61,3.07,3.07,0,0,1,79.5,95.25Z"/><path class="cls-2" d="M85.89,96.49a1.34,1.34,0,0,0-.72-.33.19.19,0,0,1-.14-.11.17.17,0,0,1,0-.18,5.33,5.33,0,0,0,.86-2.82,7.25,7.25,0,0,0-.71-2.85,7.66,7.66,0,0,1-.26-.73l-.39-2.08c-.33-2-.5-2.89-.94-3.44a1.51,1.51,0,0,0-1.23-.57c-1.55,0-3.66,2.72-3.67,2.75a1.35,1.35,0,0,0-.27.8v.14l.13.67a.25.25,0,0,1,0,.17l-2.71,3.26c-1.47,1.77-3.28,4-3.66,4.36l-.71.76c-.45.47-.92,1-1.36,1.37a.19.19,0,0,1-.31-.19,12.78,12.78,0,0,1,1.31-3c6.33-9.12,8-11.75,8.18-12.75a.18.18,0,0,1,.15-.15,3.87,3.87,0,0,0,1.22-.45.17.17,0,0,1,.2,0,2.48,2.48,0,0,0,1.08.44,3.4,3.4,0,0,0,2.62-1.17,24.75,24.75,0,0,0,2.23-2.75,1.34,1.34,0,0,0,.26-.79,1.31,1.31,0,0,0-.4-1l-.23-.23-.14-.09a.18.18,0,0,1-.06-.25,1.3,1.3,0,0,0,.2-.66,1.32,1.32,0,0,0-1.63-1.29l-1.62.38a.2.2,0,0,1-.13,0,2.22,2.22,0,0,0-1.09-.29,5.85,5.85,0,0,0-3.39,1.28.2.2,0,0,1-.15,0,.18.18,0,0,1-.12-.09,2.5,2.5,0,0,0-1.39-1.11,2.12,2.12,0,0,0-1.8.25.19.19,0,0,1-.19,0,2.18,2.18,0,0,0-.52-.24,2.2,2.2,0,0,0-1.87.32.18.18,0,0,1-.21,0l-.11-.09L72,73.68a2.12,2.12,0,0,0-2,.07.18.18,0,0,1-.21,0,1.31,1.31,0,0,0-1.22-.32L67,73.77a.15.15,0,0,1-.14,0,2.26,2.26,0,0,0-1.08-.28,5.28,5.28,0,0,0-2,.42.19.19,0,0,1-.22,0,1.28,1.28,0,0,0-1.29-.44l-1.73.41a.21.21,0,0,1-.18-.06,1.42,1.42,0,0,0-.48-.31.18.18,0,0,1-.13-.15.21.21,0,0,1,.09-.18,1.86,1.86,0,0,0,1-1.57c0-.64-.35-2.14-3.63-2.14a8,8,0,0,0-3,.63.14.14,0,0,1-.11,0,13.59,13.59,0,0,0-3.48-.52,9.35,9.35,0,0,0-5.42,1.54.17.17,0,0,1-.14,0A.14.14,0,0,1,45,71a1.33,1.33,0,0,0-.81-.56c-.58-.14-14.23-3.24-25.44-2.26S.42,73.09.39,78.22A4.29,4.29,0,0,0,2,81.58c2.28,1.94,6.3,2,7.51,1.79a1.33,1.33,0,0,0,.34-2.52c-1.14-.52-2.43-1.53-2.46-2.08a.6.6,0,0,1,.21-.5c.42-.45,2-1.5,7.67-1.5a20.81,20.81,0,0,1,4.59.37.22.22,0,0,1,.14.11.2.2,0,0,1,0,.17L11,92.29a1.28,1.28,0,0,0-.19.69,1.36,1.36,0,0,0,.34.89,1.33,1.33,0,0,0,1.55.31l2.71-1.27a.18.18,0,0,1,.22,0,.18.18,0,0,1,0,.22L8,107.16a1.27,1.27,0,0,0-.17.63,1.33,1.33,0,0,0,2.35.85l2.1-2.51a.17.17,0,0,1,.17-.07.19.19,0,0,1,.15.11,1.35,1.35,0,0,0,1.18.8,56.88,56.88,0,0,1,14.1,2.59,1.33,1.33,0,0,0,1.48-.47c.18-.24,4.64-6,16.48-5.43a82.8,82.8,0,0,1,8.85.84,74.16,74.16,0,0,0,13.8.78c13.81-.24,17.89-6.38,18.06-6.64a1.34,1.34,0,0,0,.21-.71,1.32,1.32,0,0,0-.41-1ZM44.38,73.68a2.25,2.25,0,0,0,.41.46,1.73,1.73,0,0,0,2,0,4.75,4.75,0,0,1,2.36-1,19,19,0,0,0-1.7,2.17c-2,3-3.14,3-3.69,3-.13,0-.27,0-.32-.15h0a1.74,1.74,0,0,0-1.17-1L41.74,77a1.24,1.24,0,0,0-.33,0Zm-15.6,5.14a7.88,7.88,0,0,1,2.92.2,1.5,1.5,0,0,0-.46.09L27.8,80.45Zm6.69,1.88-3.19,4.78c-2,3-4.15,6.17-4.61,6.94l-.19.32c-1.26,2-2.43,4.21-2.43,6.1a3.61,3.61,0,0,0,.44,1.8,3.28,3.28,0,0,0,.45.59c-4,.75-7.63,1.59-11,2.4L33.17,81.8h0a1.72,1.72,0,0,0,.08-2.1,1.81,1.81,0,0,0-.53-.47c1,.24,2.15.55,3.34.93A1.62,1.62,0,0,0,35.47,80.7Zm.89,19c.36-.29.72-.61,1.06-.94a3.1,3.1,0,0,0,.28.81C37.39,99.56,36.9,99.62,36.36,99.67Zm9.74-.33-.36,0h-.07c.16-.14.31-.26.46-.41a1.75,1.75,0,0,0,0,.32A.8.8,0,0,1,46.1,99.34Zm.64-7h0a18.89,18.89,0,0,1-1.5,1.82c3-4.28,3.56-5.39,3.56-6.09a1.33,1.33,0,0,0-.12-.52,4,4,0,0,0,.73-.81,4.26,4.26,0,0,0,.35-.62,2.9,2.9,0,0,0,.62,1,2.78,2.78,0,0,0,.84.55A20.38,20.38,0,0,0,46.74,92.34Zm3.19-8.6a2.51,2.51,0,0,0-1.36-1.51,3.62,3.62,0,0,0-4.26,1.56,3.7,3.7,0,0,0-.68,2.06,2.9,2.9,0,0,0,.11.79,2.64,2.64,0,0,0,.22.49l-.72.3a1.76,1.76,0,0,0-.75.63l-2,3a4.41,4.41,0,0,0-1.54-2.46A3.72,3.72,0,0,0,37.4,88a60.31,60.31,0,0,0,4.17-6.44,4.34,4.34,0,0,0,2.1.58A8,8,0,0,0,49,80.45l.11.18a3.17,3.17,0,0,0,2.35,1.31A5.81,5.81,0,0,0,49.93,83.74ZM52,99.85a16.13,16.13,0,0,1,2.15-3.26,3.09,3.09,0,0,0,2.47,1,4.93,4.93,0,0,0,.77-.1,4.65,4.65,0,0,0,.72,2.6A3.26,3.26,0,0,0,59,101l-2-.31c-1.38-.23-3.09-.51-5-.75A.15.15,0,0,1,52,99.85Zm20.41-18h0a1.64,1.64,0,0,0,1.16-.5s0,0,0,0a1.79,1.79,0,0,0-.23.25l-1.27,2.09-1.85,3a3.18,3.18,0,0,0-1.16-.19,12.22,12.22,0,0,0-6.56,2.43,1.23,1.23,0,0,0,0-.2,2.06,2.06,0,0,0-.09-.59c-.32-.94-1.17-1.4-2.53-1.38a6.1,6.1,0,0,0-3.32,1.74c-.06-.14-.12-.3-.12-.3a2.82,2.82,0,0,0-1.18-1.14,13,13,0,0,0,4.44-4.46l.12-.2.3-.51.89-.46.07-.05a3,3,0,0,0,1.52.61,3.64,3.64,0,0,0,2-.48,3,3,0,0,0,1.14.46,2.54,2.54,0,0,0,1.59-.33,1.63,1.63,0,0,0,.74.19h1.45a1.55,1.55,0,0,0,.77-.16,1.6,1.6,0,0,0,.66.16H72.4Zm-8,12.23a13.81,13.81,0,0,1,3-3,.61.61,0,0,1-.07.1,25.3,25.3,0,0,0-1.75,3.26l-.45.48a20.57,20.57,0,0,1-2.32,2.28A14.63,14.63,0,0,1,64.41,94.05Zm1.16,5.88a2.59,2.59,0,0,0,.14.24,3.77,3.77,0,0,0,2.56,1.5h-.14a46.22,46.22,0,0,1-5-.2A7,7,0,0,0,65.57,99.93Zm6.62.39a5.89,5.89,0,0,0,1,.78l.17.08a32.43,32.43,0,0,1-3.25.4A5.72,5.72,0,0,0,72.19,100.32Zm6.66-7.56.43-.53a3.8,3.8,0,0,1,.31,1.38,2.68,2.68,0,0,1-.41,1.44,4,4,0,0,1-3.28,1.68l-.27,0Zm-48,4.82a31.92,31.92,0,0,1,4.27-5,8.11,8.11,0,0,1-.92,1.53A19.17,19.17,0,0,1,30.62,98C30.7,97.84,30.76,97.7,30.85,97.58Z"/><path class="cls-10" d="M73.56,80.88a.15.15,0,0,0-.14.06,1.36,1.36,0,0,1-1,.5H71a1.28,1.28,0,0,1-.58-.15.19.19,0,0,0-.18,0,1,1,0,0,1-.65.15H68.08a1.3,1.3,0,0,1-.65-.18.21.21,0,0,0-.19,0,2.07,2.07,0,0,1-1.44.32,2.48,2.48,0,0,1-1.08-.44.17.17,0,0,0-.2,0,3.31,3.31,0,0,1-1.87.48A2.63,2.63,0,0,1,61.22,81,.18.18,0,0,0,61,81l-.16.11h0l-.91.47a.18.18,0,0,0-.08.07l-.46.79a12.38,12.38,0,0,1-4.61,4.48.17.17,0,0,0-.1.18.17.17,0,0,0,.12.16,2.39,2.39,0,0,1,1.33,1.13l.16.41,0,.08a.2.2,0,0,0,.13.12.18.18,0,0,0,.18,0,6.11,6.11,0,0,1,3.28-1.81c1.18,0,1.91.36,2.16,1.13a1.5,1.5,0,0,1,.08.47,1.57,1.57,0,0,1-.14.58.2.2,0,0,0,.06.22.18.18,0,0,0,.23,0,12.24,12.24,0,0,1,6.77-2.66,2.86,2.86,0,0,1,1.17.2.19.19,0,0,0,.23-.08l1.92-3.13,1.28-2.08a1.14,1.14,0,0,1,.27-.31.17.17,0,0,0,.07-.14.22.22,0,0,0-.06-.15l-.24-.25A.17.17,0,0,0,73.56,80.88Zm-1.16.94h0a1.64,1.64,0,0,0,1.16-.5s0,0,0,0a1.79,1.79,0,0,0-.23.25l-1.27,2.09-1.85,3a3.18,3.18,0,0,0-1.16-.19,12.22,12.22,0,0,0-6.56,2.43,1.23,1.23,0,0,0,0-.2,2.06,2.06,0,0,0-.09-.59c-.32-.94-1.17-1.4-2.53-1.38a6.1,6.1,0,0,0-3.32,1.74c-.06-.14-.12-.3-.12-.3a2.82,2.82,0,0,0-1.18-1.14,13,13,0,0,0,4.44-4.46l.12-.2.3-.51.89-.46.07-.05a3,3,0,0,0,1.52.61,3.64,3.64,0,0,0,2-.48,3,3,0,0,0,1.14.46,2.54,2.54,0,0,0,1.59-.33,1.63,1.63,0,0,0,.74.19h1.45a1.55,1.55,0,0,0,.77-.16,1.6,1.6,0,0,0,.66.16H72.4ZM61,81.42Z"/><path class="cls-10" d="M67.93,90.28a13.43,13.43,0,0,0-3.82,3.55,14,14,0,0,0-1.85,3.83.18.18,0,0,0,.07.21.2.2,0,0,0,.21,0,16.86,16.86,0,0,0,2.87-2.69l.47-.5,0-.05a23,23,0,0,1,1.74-3.25l.19-.31.33-.51a.18.18,0,0,0,0-.23A.19.19,0,0,0,67.93,90.28Zm-3.52,3.77a13.81,13.81,0,0,1,3-3,.61.61,0,0,1-.07.1,25.3,25.3,0,0,0-1.75,3.26l-.45.48a20.57,20.57,0,0,1-2.32,2.28A14.63,14.63,0,0,1,64.41,94.05Z"/><path class="cls-10" d="M49.53,72.79a4.83,4.83,0,0,0-3,1.06,1.32,1.32,0,0,1-1.51,0,1.24,1.24,0,0,1-.43-.53.19.19,0,0,0-.15-.11.16.16,0,0,0-.17.06L40.8,77.08a.18.18,0,0,0,0,.23.18.18,0,0,0,.21.08,1.47,1.47,0,0,1,.66,0l.47.11a1.4,1.4,0,0,1,.94.88h0a.2.2,0,0,0,.12.1.67.67,0,0,0,.53.22c.62,0,1.9,0,4-3.13a19.73,19.73,0,0,1,2-2.46.18.18,0,0,0,0-.2A.17.17,0,0,0,49.53,72.79ZM40.94,77h0Zm5.81-2.87a4.75,4.75,0,0,1,2.36-1,19,19,0,0,0-1.7,2.17c-2,3-3.14,3-3.69,3h0c-.13,0-.27,0-.32-.15h0a1.74,1.74,0,0,0-1.17-1L41.74,77a1.24,1.24,0,0,0-.33,0l3-3.3a2,2,0,0,0,.41.45A1.72,1.72,0,0,0,46.75,74.16Z"/><path class="cls-10" d="M39.7,78.31l-.72.8a.18.18,0,0,0,0,.22.21.21,0,0,0,.2.09,3.26,3.26,0,0,1,.73-.07.2.2,0,0,0,.15-.08.19.19,0,0,0,0-.12.13.13,0,0,0,0-.06L40,79a1.45,1.45,0,0,1,0-.3.75.75,0,0,1,0-.21v0a.19.19,0,0,0-.11-.16A.17.17,0,0,0,39.7,78.31Z"/><path class="cls-10" d="M28.58,78.49a.16.16,0,0,0-.09.07l-1.3,2.17a.2.2,0,0,0,0,.22.2.2,0,0,0,.22.06l3.95-1.55a1.33,1.33,0,0,1,1.5,2.09h0L14.25,103.83a.17.17,0,0,0,0,.22.21.21,0,0,0,.21.09c3.65-.88,7.63-1.8,11.93-2.6a.23.23,0,0,0,.15-.14.24.24,0,0,0-.06-.2,2.65,2.65,0,0,1-.63-.75c-1.13-2,.36-4.92,2-7.51l.2-.32c.45-.76,2.55-3.89,4.59-6.93l3.19-4.78a1.36,1.36,0,0,1,.59-.5l.25-.11a.2.2,0,0,0,.12-.18.21.21,0,0,0-.13-.17C33.56,78.9,29.62,78.05,28.58,78.49ZM31.7,79a1.5,1.5,0,0,0-.46.09L27.8,80.45l1-1.63A7.88,7.88,0,0,1,31.7,79Zm1.47,2.78h0a1.72,1.72,0,0,0,.08-2.1,1.81,1.81,0,0,0-.53-.47c1,.24,2.15.55,3.34.93a1.7,1.7,0,0,0-.59.54l-3.19,4.77c-2,3-4.15,6.18-4.61,6.94l-.19.33c-1.26,2-2.43,4.2-2.43,6.1a3.64,3.64,0,0,0,.44,1.8,3.68,3.68,0,0,0,.45.59c-4,.75-7.63,1.59-11,2.4Z"/><path class="cls-10" d="M35.47,91.85a27.66,27.66,0,0,0-4.93,5.51,7.32,7.32,0,0,0-.66,1.12.18.18,0,0,0,0,.22.24.24,0,0,0,.23,0c.8-.43,2.22-1.54,4.36-4.34a8,8,0,0,0,1.26-2.33.18.18,0,0,0-.07-.21A.18.18,0,0,0,35.47,91.85Zm-4.62,5.73a31.92,31.92,0,0,1,4.27-5,8.11,8.11,0,0,1-.92,1.53A19.17,19.17,0,0,1,30.62,98C30.7,97.84,30.76,97.7,30.85,97.58Z"/><path class="cls-10" d="M37.4,98.23a14.06,14.06,0,0,1-1.77,1.53.19.19,0,0,0,.13.35L38,99.88a.2.2,0,0,0,.16-.1.21.21,0,0,0,0-.19L38,99.38a2.75,2.75,0,0,1-.32-1,.18.18,0,0,0-.13-.15A.17.17,0,0,0,37.4,98.23Zm0,.5a3.1,3.1,0,0,0,.28.81l-1.34.13C36.72,99.38,37.08,99.06,37.42,98.73Z"/><path class="cls-10" d="M48.89,80a7.72,7.72,0,0,1-5.21,1.67,4.08,4.08,0,0,1-2.1-.63.18.18,0,0,0-.16,0,.18.18,0,0,0-.12.12c-.21.54-.87,1.74-4.37,6.78a.17.17,0,0,0,0,.18.18.18,0,0,0,.15.11,3.4,3.4,0,0,1,1.64.66,4.14,4.14,0,0,1,1.51,2.65.17.17,0,0,0,.15.15.17.17,0,0,0,.19-.08l2.24-3.36a1.42,1.42,0,0,1,.6-.49l.88-.38a.19.19,0,0,0,.11-.12.19.19,0,0,0,0-.15,2.36,2.36,0,0,1-.26-.59,2.61,2.61,0,0,1-.09-.69A3.32,3.32,0,0,1,44.63,84a3.23,3.23,0,0,1,3.79-1.42A2.16,2.16,0,0,1,49.63,84l.07.37a.2.2,0,0,0,.17.16.19.19,0,0,0,.19-.13,5.14,5.14,0,0,1,2-2.46.2.2,0,0,0,.06-.22.18.18,0,0,0-.19-.12,2.81,2.81,0,0,1-2.52-1.19l-.19-.3a.2.2,0,0,0-.13-.09A.21.21,0,0,0,48.89,80Zm.06.41.12.17a3.15,3.15,0,0,0,2.34,1.32,5.94,5.94,0,0,0-1.48,1.8,2.48,2.48,0,0,0-1.36-1.51,3.62,3.62,0,0,0-4.26,1.56,3.67,3.67,0,0,0-.68,2.06,3,3,0,0,0,.11.79,2.3,2.3,0,0,0,.22.48l-.72.3a1.85,1.85,0,0,0-.75.64h0l-2,3a4.41,4.41,0,0,0-1.54-2.46A3.59,3.59,0,0,0,37.4,88a61.51,61.51,0,0,0,4.17-6.44,4.45,4.45,0,0,0,2.1.58A8,8,0,0,0,49,80.45Z"/><path class="cls-10" d="M46.68,97.83a16.26,16.26,0,0,1-1.61,1.52.2.2,0,0,0-.07.21.19.19,0,0,0,.18.13h.54l.59,0a.23.23,0,0,0,.15-.07.25.25,0,0,0,0-.16l0-.28a1.28,1.28,0,0,1,.21-.71l.29-.46a.18.18,0,0,0,0-.25A.18.18,0,0,0,46.68,97.83Zm-.54,1.08a1.19,1.19,0,0,0,0,.32.8.8,0,0,1,0,.11l-.36,0h-.07C45.83,99.19,46,99.06,46.14,98.91Z"/><path class="cls-10" d="M49.61,85.43a3.4,3.4,0,0,1-.51,1.09,4,4,0,0,1-.76.83.2.2,0,0,0-.06.23,1.07,1.07,0,0,1,.14.49c0,.74-1.08,2.48-4.82,7.76a.19.19,0,0,0,0,.26.2.2,0,0,0,.25,0,24.83,24.83,0,0,0,3.17-3.52h0a19,19,0,0,1,4.67-4.75.19.19,0,0,0,.09-.18.19.19,0,0,0-.14-.16,2.24,2.24,0,0,1-1-.59A2.53,2.53,0,0,1,50,85.45a.19.19,0,0,0-.37,0Zm-.2,1.31a4.26,4.26,0,0,0,.35-.62,2.9,2.9,0,0,0,.62,1,2.71,2.71,0,0,0,.85.55,20.45,20.45,0,0,0-4.49,4.64h0a18.89,18.89,0,0,1-1.5,1.82c3-4.27,3.55-5.39,3.55-6.09a1.28,1.28,0,0,0-.11-.51A4.34,4.34,0,0,0,49.41,86.74Z"/><path class="cls-10" d="M54,96.16a17.2,17.2,0,0,0-2.35,3.54l-.13.21a.27.27,0,0,0,0,.12.15.15,0,0,0,0,.07.2.2,0,0,0,.14.13c2,.25,3.79.54,5.24.79l3.12.48a.17.17,0,0,0,.21-.14.18.18,0,0,0-.12-.22,3.34,3.34,0,0,1-1.67-1.26,4.35,4.35,0,0,1-.65-2.44v-.17a.24.24,0,0,0-.07-.16.2.2,0,0,0-.16,0,4.09,4.09,0,0,1-.93.13,2.61,2.61,0,0,1-2.31-1,.17.17,0,0,0-.15-.08A.19.19,0,0,0,54,96.16Zm-2,3.69a16.13,16.13,0,0,1,2.15-3.26,3.09,3.09,0,0,0,2.47,1,4.93,4.93,0,0,0,.77-.1,4.65,4.65,0,0,0,.72,2.6A3.26,3.26,0,0,0,59,101l-2-.31c-1.38-.23-3.09-.51-5-.75A.15.15,0,0,1,52,99.85ZM56.86,101Z"/><path class="cls-10" d="M60.09,90.93a27.46,27.46,0,0,0-2.76,2l0,.06-.36.83a.19.19,0,0,0,0,.2.21.21,0,0,0,.19,0,5,5,0,0,0,2.38-1.91l.12-.16s0,0,0,0l.7-.76a.2.2,0,0,0,0-.26A.23.23,0,0,0,60.09,90.93Zm-1,1.12a5.07,5.07,0,0,1-1.64,1.43l.14-.32Q58.29,92.61,59.1,92.05Z"/><path class="cls-10" d="M65.48,99.5a5.67,5.67,0,0,1-3.63,1.87.2.2,0,0,0-.18.18.2.2,0,0,0,.17.2,47.38,47.38,0,0,0,6.3.3h0a31.47,31.47,0,0,0,5.85-.6.18.18,0,0,0,.15-.16.2.2,0,0,0-.11-.2l0,0-.6-.3a5.3,5.3,0,0,1-1-.84.2.2,0,0,0-.27,0,4.58,4.58,0,0,1-2.9,1.42A3.57,3.57,0,0,1,66,99.94l-.22-.37a.2.2,0,0,0-.15-.1A.18.18,0,0,0,65.48,99.5Zm.09.43a2.59,2.59,0,0,0,.14.24,3.77,3.77,0,0,0,2.56,1.5h-.14a46.22,46.22,0,0,1-5-.2A7,7,0,0,0,65.57,99.93Zm6.62.39a5.89,5.89,0,0,0,1,.78l.17.08a32.43,32.43,0,0,1-3.25.4A5.72,5.72,0,0,0,72.19,100.32Z"/><path class="cls-10" d="M79.2,91.73l-4,5a.19.19,0,0,0,.07.3,1.5,1.5,0,0,0,.68.12,4.35,4.35,0,0,0,3.59-1.86h0A3,3,0,0,0,80,93.61a4.51,4.51,0,0,0-.45-1.84.24.24,0,0,0-.15-.11A.21.21,0,0,0,79.2,91.73Zm-.35,1,.43-.53a3.8,3.8,0,0,1,.31,1.38,2.68,2.68,0,0,1-.41,1.44,4,4,0,0,1-3.28,1.68l-.27,0Z"/><path class="cls-10" d="M36.77,81.34a.53.53,0,0,0-.14.12l-3.16,4.75c-1.95,2.9-4.16,6.19-4.6,6.93l-.21.34c-.88,1.42-2.94,4.72-1.95,6.48A2.66,2.66,0,0,0,29.27,101c5.27-.09,9.49-5.07,9.94-7.64a3.75,3.75,0,0,0-1.11-3.66,2.86,2.86,0,0,0-3.05-.1,5.59,5.59,0,0,0-1,.68l1.35-1.92c4.42-6.35,5-7.35,5-7.65a.31.31,0,0,0,0-.11C40.23,80.38,40,79.94,36.77,81.34ZM28.58,99.81c-.28-.54.36-2,1.14-3,2.13-2.92,5.1-6.34,6.51-6.37.43,0,.57.17.64.3a1.3,1.3,0,0,1,.1.52A7.45,7.45,0,0,1,35.31,95c-3.17,4.15-5.07,5-6.11,5C28.71,100.07,28.62,99.87,28.58,99.81Z"/><path class="cls-10" d="M74.66,82.23a.38.38,0,0,0-.14.11l-1.25,2c-.73,1.22-1.63,2.71-2.68,4.32a1.15,1.15,0,0,0-.2-.36,1.64,1.64,0,0,0-1.3-.46c-4.1.07-7.93,3.81-8.66,4.73l-.1.13c-.6.76-1.84,2.35-3.71,2.38-.39,0-.64-.09-.76-.28a.82.82,0,0,1-.1-.44,5.25,5.25,0,0,1,.73-2.16,28.19,28.19,0,0,1,4.21-2.89.89.89,0,0,0,.43-.64.34.34,0,0,0,0-.14c-.13-.4-.67-.44-1.18-.43-.9,0-3,1.61-4,3.23-.37.31-.7.6-1,.86a6,6,0,0,0,.6-2.3,2.23,2.23,0,0,0-.24-1.07,1.51,1.51,0,0,0-1.42-.76c-1.91,0-4.73,3.31-5.95,5-1.39,2-5.09,5.65-6.14,5.67-.26,0-.34-.08-.38-.17-.24-.45.17-1.67.92-2.72,5.29-7.44,5.13-7.81,5.07-8s-.3-.67-3.56.73a.36.36,0,0,0-.14.11l-2.67,4c-1.37,2-2.85,4.59-2,6.07.39.71,1.24,1.06,2.55,1,2.55,0,5.44-3.86,7-5.9l.3-.38c1.62-2.13,3.95-4.31,4.66-4.38v0c0,.33-.42,1.42-2.75,4.93-1.9,2.85-3.13,4.8-3.14,4.83a.3.3,0,0,0,0,.16.32.32,0,0,0,0,.16.33.33,0,0,0,.28.15l2.61,0a.31.31,0,0,0,.28-.19,19.94,19.94,0,0,1,4.2-5.61,3.71,3.71,0,0,0-.1.78,1.86,1.86,0,0,0,.28,1.06,1.63,1.63,0,0,0,1.5.66,5,5,0,0,0,2.54-.91,8.36,8.36,0,0,0-.35,2.18,3.3,3.3,0,0,0,.48,1.85,2.7,2.7,0,0,0,2.48,1c1.86,0,3.53-2,4.62-3.41a4,4,0,0,0,0,.5,3.22,3.22,0,0,0,.53,1.89,2.6,2.6,0,0,0,2.31,1c1.18,0,2.24-1.12,3.1-2l.07-.06a4.17,4.17,0,0,0,1.59,1.64c1,.62,2.81,1.18,5.71.74-1.79,1-5.43,2.33-11.46,2.44A58,58,0,0,1,56.69,102a91.58,91.58,0,0,0-11-1.3c-10.38-.53-24.37,2.82-31.89,4.63a.29.29,0,0,0-.23.33.29.29,0,0,0,.3.27,57.69,57.69,0,0,1,14.39,2.65.29.29,0,0,0,.34-.11c.05-.06,4.87-6.39,17.34-5.84a86.84,86.84,0,0,1,9,.84,72.73,72.73,0,0,0,13.64.77c13.27-.23,17.07-5.92,17.22-6.16a.32.32,0,0,0,0-.39l-.5-.49a.32.32,0,0,0-.39,0A9.9,9.9,0,0,1,78.3,99a8,8,0,0,0,4-1.64c2-1.67,2.55-3.13,2.55-4.36a6.25,6.25,0,0,0-.62-2.45,5.15,5.15,0,0,1-.32-.89l-.39-2.14a9.29,9.29,0,0,0-.74-3,.5.5,0,0,0-.42-.18c-.87,0-2.71,2.12-2.88,2.35a.28.28,0,0,0-.06.18v0a6,6,0,0,0,.27,1.12c-.58.67-1.8,2.14-3.1,3.71-1.63,2-3.32,4-3.72,4.44l-.71.75C71,98.23,70,99.31,69.07,99.32a.36.36,0,0,1-.38-.19c-.41-.71.32-3.19,1.53-5.19,8.24-11.88,8.08-12.25,8-12.44S77.93,80.83,74.66,82.23ZM61.21,99c-.5-1,.91-4.06,2.06-5.7,1.27-1.79,4-4.32,5.68-4.34a.72.72,0,0,1,.63.21.74.74,0,0,1,.13.48,2.56,2.56,0,0,1-.1.61l-.88,1.37-.21.34a20.18,20.18,0,0,0-1.75,3.3l-.61.65c-1,1.16-3,3.31-4.39,3.34h0C61.39,99.22,61.27,99.06,61.21,99Zm16.56-7.07,2.08-2.57a8.93,8.93,0,0,0,.58,2A5.2,5.2,0,0,1,81,93.61a4.08,4.08,0,0,1-.62,2.18,5.31,5.31,0,0,1-4.44,2.34,2.32,2.32,0,0,1-1.86-.73,1.06,1.06,0,0,1-.3-.65C74.6,95.82,76.28,93.73,77.77,91.88Z"/><path class="cls-10" d="M45.47,84.57a2.08,2.08,0,0,0-.39,1.69,1.16,1.16,0,0,0,.65.75A2.26,2.26,0,0,0,48.27,86a2.36,2.36,0,0,0,.43-1.27,1.77,1.77,0,0,0-.05-.41,1.15,1.15,0,0,0-.65-.76A2.24,2.24,0,0,0,45.47,84.57Z"/><path class="cls-10" d="M59.21,71.51c0,.27-.39.38-1.7.38A12.29,12.29,0,0,1,55,71.62C57.86,70.67,59.21,71.23,59.21,71.51Zm-4.94-.17-.34-.09a13.1,13.1,0,0,0-3.29-.51,8.1,8.1,0,0,0-4.75,1.34s0,0,0,.06l-.16.58a.1.1,0,0,0,0,.12.11.11,0,0,0,.11,0,5.89,5.89,0,0,1,3.75-1.26,21.39,21.39,0,0,1,2.49.4l.65.13a13.78,13.78,0,0,0-4,4.15c-2.18,3.24-3.77,3.67-5,3.67a1.84,1.84,0,0,1-1.81-1.17.09.09,0,0,0-.07-.06l-.48-.12a.11.11,0,0,0-.12.12,2.51,2.51,0,0,0,2.48,1.79c4.58.14,6.38-3.58,7-4.82l.15-.3,0-.08a7.69,7.69,0,0,1,2.8-3,18.86,18.86,0,0,0,3,.39c1.79,0,3-.58,3-1.12,0-.21-.18-.92-2.41-.92A7.24,7.24,0,0,0,54.27,71.34Z"/><path class="cls-10" d="M18.76,69C6.67,70.07,1.23,74.39,1.21,78.19A3.48,3.48,0,0,0,2.49,81c2,1.72,5.78,1.77,6.84,1.59a.5.5,0,0,0,.13-1c-.8-.37-2.88-1.59-2.94-2.79A1.44,1.44,0,0,1,7,77.7C7.58,77,9.48,76,15.23,76a20.66,20.66,0,0,1,5.27.48.61.61,0,0,1,.45.31,1.07,1.07,0,0,1-.17.89L11.72,92.72a.5.5,0,0,0,.06.59.52.52,0,0,0,.59.12l5.52-2.59L8.76,107.55a.53.53,0,0,0-.06.24.49.49,0,0,0,.22.41.48.48,0,0,0,.66-.09L32.24,81a.5.5,0,0,0,0-.61.5.5,0,0,0-.59-.17L25,82.86,27.86,78c.63-1.05,5.37-.14,9.41,1.3a.52.52,0,0,0,.54-.14l6.4-7.09a.51.51,0,0,0,.1-.49.5.5,0,0,0-.36-.34C43.81,71.22,29.84,68,18.76,69Z"/><path class="cls-5" d="M3.14,80.19a2.48,2.48,0,0,1-.93-2v0C2.23,75,7.45,71,18.85,70c9.39-.82,20.9,1.38,24,2l-5.59,6.2c-2-.7-9-2.92-10.29-.76h0L23.34,83.6a.5.5,0,0,0,.05.58.51.51,0,0,0,.57.15l6.26-2.45L12.08,103.56C14.84,98.5,19.51,90,19.51,90a.57.57,0,0,0,.06-.24.51.51,0,0,0-.72-.46l-5.42,2.55,8.21-13.68A2.38,2.38,0,0,0,22,77a1.51,1.51,0,0,0-1.26-1.52,21.44,21.44,0,0,0-5.51-.51c-4.67,0-7.7.7-9,2.07a2.43,2.43,0,0,0-.71,1.71v.15a4.06,4.06,0,0,0,2,2.72A7.94,7.94,0,0,1,3.14,80.19Z"/><path class="cls-10" d="M85.77,76.79l-.23-.23a.13.13,0,0,0-.08,0,.11.11,0,0,0-.08,0l-.46.6-.58.78c-.56.84-1.86,2-2.15,1.82a.2.2,0,0,1-.09-.09c0-.16.11-.5.22-.72l.1-.2c.1-.25,2-3,2.73-4a.09.09,0,0,0,0-.12.09.09,0,0,0-.11,0L83.26,75a.07.07,0,0,0-.06,0l-.36.55A1.15,1.15,0,0,0,82.6,75a.9.9,0,0,0-.68-.26,5.05,5.05,0,0,0-4.46,3.62c-.73,1-1.33,1.66-1.69,1.73a.24.24,0,0,1-.2-.05.32.32,0,0,1-.14-.22,1.16,1.16,0,0,1,.33-.77l.26-.31a7.89,7.89,0,0,0,1.31-1.92,1.81,1.81,0,0,0-.07-1.38,1.29,1.29,0,0,0-.76-.65c-.71-.23-1.38.57-1.75,1.14a1.52,1.52,0,0,0-.1-.55,1.05,1.05,0,0,0-.66-.59c-.69-.22-1.58.76-2,1.29v0a1.41,1.41,0,0,0-.56-1.24c-.57-.31-1.39.29-1.9,1.05,0,0-1,1.46-1.54,2.16-1.3,1.63-1.76,1.9-1.92,1.82s-.07,0-.08-.08.11-.5.22-.72l.09-.21c.11-.24,2-3,2.66-4a.08.08,0,0,0,0-.11s-.06,0-.11,0l-1.7.42a.12.12,0,0,0-.07,0s-.2.3-.35.55a1.07,1.07,0,0,0-.25-.65.89.89,0,0,0-.67-.26c-2,0-4.33,2-4.48,3.78a6.9,6.9,0,0,1-1.09.87l-.6.29,3.1-4.89a.13.13,0,0,0,0-.06.15.15,0,0,0,0-.06.1.1,0,0,0-.11,0L60.88,75a.07.07,0,0,0-.06,0l-2,2.91c-.55.84-1.86,2-2.14,1.82a.13.13,0,0,1-.09-.09c-.06-.16.11-.5.22-.72l.09-.2c.11-.25,2-3,2.66-4a.09.09,0,0,0,0-.12.09.09,0,0,0-.11,0l-1.7.42-.07,0-2,3.09,0,.08a10.28,10.28,0,0,1-1.63.9l.29-.28a5,5,0,0,0,1.49-3.06,1.35,1.35,0,0,0-.1-.55.89.89,0,0,0-.9-.53,5.65,5.65,0,0,0-4.49,2.84,2,2,0,0,0,0,2.13,1.63,1.63,0,0,0,1.8.66,8,8,0,0,0,3.34-1.46s0,.08,0,.12a1.5,1.5,0,0,0,.26.88,1.19,1.19,0,0,0,.86.5A1.59,1.59,0,0,0,57.65,80c-.22.36-.44.7-.45.73-1.14.48-2.32,1-3.27,1.46-2.24,1.13-2.76,2.45-2.77,2.87v0a1.35,1.35,0,0,0,.36,1,1.06,1.06,0,0,0,.8.3c2.48,0,5.13-2.94,6-4.51l.7-1.18A11.16,11.16,0,0,0,60.2,80a7.65,7.65,0,0,0,1.2-.9,1.85,1.85,0,0,0,.22.52,1.54,1.54,0,0,0,1.13.72,3,3,0,0,0,2.14-1.09A1.23,1.23,0,0,0,66,80.36c.67.1,1.33-.79,1.36-.83a18.92,18.92,0,0,0,1.55-2c.73-1,1.73-2.36,2-2.29,0,0,0,0,0,0,.17.48-1.71,3.17-2.93,4.75a.11.11,0,0,0,0,.11.12.12,0,0,0,.1,0h1.5c.06,0,.09,0,.26-.24,3.06-4.45,3.7-4.72,3.83-4.69l0,0c.18.46-1.64,3.16-2.83,4.75a.11.11,0,0,0,0,.11s0,0,.09,0h1.43s.07,0,.08,0,1.39-2.06,1.85-2.67l.36-.54c.44-.65,1.24-1.87,1.58-1.69l0,0c0,.12,0,.45-.6,1.45l-.21.36-.82,1.4A1.76,1.76,0,0,0,74.55,80a1.09,1.09,0,0,0,.9.57c.66.1,1.54-.78,1.58-.82a4.7,4.7,0,0,0,.47-.62,1.7,1.7,0,0,0,.24.53,1.51,1.51,0,0,0,1.13.72A3,3,0,0,0,81,79.29a1.23,1.23,0,0,0,1.08,1.07c.65.1,1.54-.78,1.57-.82a27.41,27.41,0,0,0,2.12-2.62A.09.09,0,0,0,85.77,76.79Zm-34.28,2.9a.34.34,0,0,1-.19-.24c-.15-.6.7-1.92,1-2.34.17-.23,1.68-2.2,2.63-1.78a.45.45,0,0,1,.27.3c.12.47-.33,1.41-1.22,2.59C53.58,78.74,52.26,80.06,51.49,79.69Zm5,2.16c-.76,1.36-2.6,3.93-4.11,3.93-.52,0-.61-.13-.61-.55,0-.75,1.18-1.83,2.27-2.4.46-.24,1.46-.67,2.54-1.15A1.58,1.58,0,0,0,56.53,81.85Zm9.17-4.67-.62,1-.08.12c-.42.59-1.61,1.78-2.3,1.44a.33.33,0,0,1-.17-.23c-.15-.6.65-1.94.95-2.36.57-.82,1.73-2.12,2.45-1.78a.42.42,0,0,1,.23.26A2.3,2.3,0,0,1,65.7,77.18Zm16.12,0-.63,1-.07.12c-.43.59-1.62,1.78-2.31,1.44a.4.4,0,0,1-.17-.23c-.15-.61.66-1.94,1-2.36.57-.82,1.73-2.12,2.46-1.78a.45.45,0,0,1,.23.26A2.41,2.41,0,0,1,81.82,77.18Z"/></g></g></svg>