<svg xmlns="http://www.w3.org/2000/svg" viewBox="0 0 138.57 110"><defs><style>.cls-1{fill:#f4c21f;}.cls-2{fill:#ec8615;}.cls-3{fill:#f5aa19;}.cls-4{fill:#d35b14;}.cls-5{fill:#e46f10;}.cls-6{fill:#21a3db;}.cls-7{fill:#10357b;}</style></defs><g id="レイヤー_2" data-name="レイヤー 2"><g id="レイヤー_1-2" data-name="レイヤー 1"><polygon class="cls-1" points="83.86 47.97 82.35 35.07 113.11 0 83.86 47.97"/><polygon class="cls-2" points="83.86 47.97 101.16 35.07 113.11 0 83.86 47.97"/><polygon class="cls-3" points="83.86 47.97 101.16 35.07 138.56 33.18 83.86 47.97"/><polygon class="cls-4" points="83.86 47.97 96.07 52.96 138.56 33.18 83.86 47.97"/><polygon class="cls-5" points="83.86 47.97 74.11 64.03 0 110 83.86 47.97"/><polygon class="cls-1" points="83.86 47.97 65.63 52.96 0 110 83.86 47.97"/><polygon class="cls-5" points="83.86 47.97 96.07 52.96 88.41 86.86 83.86 47.97"/><polygon class="cls-4" points="83.86 47.97 74.11 64.03 88.41 86.86 83.86 47.97"/><polygon class="cls-3" points="83.86 47.97 82.35 35.07 47.24 33.18 83.86 47.97"/><polygon class="cls-2" points="83.86 47.97 65.63 52.96 47.24 33.18 83.86 47.97"/><path class="cls-6" d="M60.11,37.86a.69.69,0,0,0-.59.35l-.14.25a.59.59,0,0,0-.09.32.73.73,0,0,0,.09.32l-1.31,2.26-.13.21a.7.7,0,0,0-.55.33l-.15.25a.67.67,0,0,0-.09.34.72.72,0,0,0,.09.34.68.68,0,0,0,.59.34h1.53a.67.67,0,0,0,.59-.34l.15-.26a.57.57,0,0,0,.08-.32.72.72,0,0,0-.08-.32l1.3-2.27a1,1,0,0,0,.13-.2.7.7,0,0,0,.55-.33l.16-.25a.77.77,0,0,0,.08-.34.62.62,0,0,0-.08-.33.7.7,0,0,0-.6-.35Z"/><path class="cls-6" d="M65.79,38.17a3,3,0,0,0-1,1,1.89,1.89,0,0,0-.27.93,1.61,1.61,0,0,0,.5,1.14l.09.08,0,0a1.17,1.17,0,0,0,0-.11.67.67,0,0,0-.56-.34h-.29a.68.68,0,0,0-.59.34l-.46.8a.72.72,0,0,0,0,.59.71.71,0,0,0,.43.4,3.66,3.66,0,0,0,1.1.18,2.76,2.76,0,0,0,1.48-.43,3,3,0,0,0,1.08-1.1,1.84,1.84,0,0,0,.27-.93,1.57,1.57,0,0,0-.25-.82l.1,0h.29a.68.68,0,0,0,.59-.34l.41-.71a.65.65,0,0,0,.05-.56.65.65,0,0,0-.38-.41,2.84,2.84,0,0,0-1.09-.23A2.44,2.44,0,0,0,65.79,38.17Z"/><path class="cls-6" d="M74.08,37.86a.9.9,0,0,0-.22.06.55.55,0,0,0-.22-.06H72.48a.66.66,0,0,0-.59.35l-.15.25a.69.69,0,0,0-.08.32.72.72,0,0,0,.08.32c-.24.43-1.3,2.25-1.3,2.26l-.13.21a.76.76,0,0,0-.56.33l-.15.25a.77.77,0,0,0-.08.34.84.84,0,0,0,.08.34.7.7,0,0,0,.59.34h1.53a.43.43,0,0,1,.44,0h1.17a.67.67,0,0,0,.58-.34l.15-.26a.57.57,0,0,0,.08-.32.69.69,0,0,0-.08-.32l1.31-2.26.12-.21a.73.73,0,0,0,.56-.33l.15-.25a.78.78,0,0,0,.09-.34.74.74,0,0,0-.09-.33.69.69,0,0,0-.59-.35Z"/><path class="cls-6" d="M79.94,37.86a.67.67,0,0,0-.59.35l-.15.25a.69.69,0,0,0-.08.32.72.72,0,0,0,.08.32l-1.3,2.26-.13.21a.73.73,0,0,0-.56.33l-.14.25a.67.67,0,0,0-.1.34.74.74,0,0,0,.1.34.67.67,0,0,0,.59.34h1.53a.67.67,0,0,0,.59-.34l.15-.26a.57.57,0,0,0,.09-.32.73.73,0,0,0-.09-.32l1.3-2.26a2.26,2.26,0,0,1,.14-.21.73.73,0,0,0,.55-.33l.15-.25a.67.67,0,0,0,.09-.34.63.63,0,0,0-.09-.33.67.67,0,0,0-.59-.35Z"/><path class="cls-6" d="M88.12,37.86a.64.64,0,0,0-.41.16.6.6,0,0,0-.41-.16H85.8a.66.66,0,0,0-.58.35l-.15.25a.59.59,0,0,0-.09.32.73.73,0,0,0,.09.32l-1.31,2.26-.12.21a.73.73,0,0,0-.56.33l-.14.25a.67.67,0,0,0-.1.34.63.63,0,0,0,.1.34.68.68,0,0,0,.58.34H85a.57.57,0,0,0,.28-.08.63.63,0,0,0,.29.08H87a.68.68,0,0,0,.59-.34l.14-.26a.59.59,0,0,0,.1-.34.58.58,0,0,0-.1-.33.68.68,0,0,0-.18-.2.3.3,0,0,1,0-.11s-.11-.67-.18-1.13l.9-.56.53-.34a1.57,1.57,0,0,1,.17-.09h0a.67.67,0,0,0,.59-.34l.15-.25a.67.67,0,0,0,.09-.34.63.63,0,0,0-.09-.33.67.67,0,0,0-.59-.35Z"/><path class="cls-6" d="M95.13,37.76a.71.71,0,0,0-.51.23l-2.91,3.27-.22.23-.09.08a.74.74,0,0,0-.46.33l-.15.25a.67.67,0,0,0-.09.34.72.72,0,0,0,.09.34.68.68,0,0,0,.59.34h.78a.61.61,0,0,0,.47-.23.65.65,0,0,0,.47.23h1.4a.67.67,0,0,0,.58-.34l.15-.26a.67.67,0,0,0,.09-.34.66.66,0,0,0-.09-.33h0v0L96,38.6a.44.44,0,0,0,0-.16.71.71,0,0,0-.14-.42.67.67,0,0,0-.54-.26Z"/><path class="cls-6" d="M104.28,37.86a.69.69,0,0,0-.54.29.64.64,0,0,0-.47-.21h-.36a.64.64,0,0,0-.4.15.71.71,0,0,0-.49-.23h-1.37a.66.66,0,0,0-.59.35l-.15.25a.59.59,0,0,0-.09.32.7.7,0,0,0,.1.34h0c-.06.2-1.05,3.19-1.05,3.19a.71.71,0,0,0,0,.21.61.61,0,0,0,.13.39.66.66,0,0,0,.55.29h.29a.69.69,0,0,0,.52-.24l.34-.4a.64.64,0,0,0,.13.37.68.68,0,0,0,.54.27h.29a.7.7,0,0,0,.53-.24l2.64-3.19.27-.32a.68.68,0,0,0,.48-.32l.15-.25a.69.69,0,0,0,0-.68.68.68,0,0,0-.59-.34h-.84Z"/><path class="cls-6" d="M110.63,37.76a.68.68,0,0,0-.51.23l-2.92,3.27-.22.23-.08.08a.76.76,0,0,0-.47.33l-.14.25a.67.67,0,0,0-.09.34.72.72,0,0,0,.09.34.67.67,0,0,0,.59.34h.78a.65.65,0,0,0,.47-.23.61.61,0,0,0,.47.23H110a.68.68,0,0,0,.59-.34l.15-.26a.67.67,0,0,0,.09-.34.66.66,0,0,0-.09-.33h0v0l.82-3.26a.88.88,0,0,0,0-.16.66.66,0,0,0-.15-.42.64.64,0,0,0-.53-.26Z"/><path class="cls-3" d="M60.11,38.35a.2.2,0,0,0-.16.09l-.15.26a.24.24,0,0,0,0,.08.54.54,0,0,0,0,.1A.25.25,0,0,0,60,39h0a2.65,2.65,0,0,0-.14.26L58.5,41.61l-.19.31s-.08.13-.33.13a.2.2,0,0,0-.17.09l-.14.26a.15.15,0,0,0,0,.18.17.17,0,0,0,.16.09h1.54a.19.19,0,0,0,.16-.09l.15-.25a.24.24,0,0,0,0-.08.12.12,0,0,0,0-.09.19.19,0,0,0-.16-.11h0l.14-.26L61,39.42l.19-.31s.08-.13.33-.13a.22.22,0,0,0,.17-.09l.14-.26a.21.21,0,0,0,0-.19.19.19,0,0,0-.16-.09Z"/><path class="cls-3" d="M66.05,38.59a2.5,2.5,0,0,0-.84.87,1.12,1.12,0,0,0,.16,1.47l.14.14a.34.34,0,0,1,0,.48,1,1,0,0,1-.82.59c-.16,0-.23,0-.24,0s0-.13.12-.36a.19.19,0,0,0,0-.18.18.18,0,0,0-.17-.1h-.28a.16.16,0,0,0-.16.1l-.47.8a.18.18,0,0,0,0,.16.2.2,0,0,0,.11.11,3.3,3.3,0,0,0,1,.15,2.38,2.38,0,0,0,1.22-.35,2.73,2.73,0,0,0,.91-.94A1.16,1.16,0,0,0,66.58,40l-.14-.15a.33.33,0,0,1-.06-.45.87.87,0,0,1,.73-.52c.11,0,.14,0,.14,0v0a.75.75,0,0,1-.12.31.18.18,0,0,0,0,.1.15.15,0,0,0,0,.09.2.2,0,0,0,.16.09h.29a.22.22,0,0,0,.16-.09l.41-.71a.22.22,0,0,0,0-.16.16.16,0,0,0-.1-.11,2.52,2.52,0,0,0-.91-.19A2.11,2.11,0,0,0,66.05,38.59Z"/><path class="cls-3" d="M74.08,38.35a.22.22,0,0,0-.16.09l-.14.26a.12.12,0,0,0,0,.08.44.44,0,0,0,0,.1.23.23,0,0,0,.16.1h0l-.14.26-.45.77H73l.8-1.38a.16.16,0,0,0,0-.09.17.17,0,0,0,0-.1.2.2,0,0,0-.16-.09H72.48a.22.22,0,0,0-.17.09l-.14.26a.24.24,0,0,0,0,.08.44.44,0,0,0,0,.1.27.27,0,0,0,.16.1h0l-.14.26-1.37,2.37-.19.31s-.08.13-.33.13a.17.17,0,0,0-.16.09L70,42.4a.15.15,0,0,0,0,.18.18.18,0,0,0,.16.09h1.53a.17.17,0,0,0,.16-.09l.15-.25a.24.24,0,0,0,0-.08.12.12,0,0,0,0-.09.19.19,0,0,0-.16-.11h0l.14-.26.63-1.09H73l-1,1.7a.2.2,0,0,0,0,.09.15.15,0,0,0,0,.09.19.19,0,0,0,.16.09h1.17a.19.19,0,0,0,.16-.09l.14-.26a.1.1,0,0,0,0-.07.3.3,0,0,0,0-.1.19.19,0,0,0-.16-.1h0l.14-.26,1.37-2.36.19-.31s.08-.13.33-.13a.18.18,0,0,0,.16-.1l.15-.26a.18.18,0,0,0-.16-.27Z"/><path class="cls-3" d="M79.94,38.35a.19.19,0,0,0-.16.09l-.15.26a.24.24,0,0,0,0,.08.44.44,0,0,0,0,.1.25.25,0,0,0,.16.1h0l-.14.26-1.36,2.37-.19.31s-.08.13-.33.13a.2.2,0,0,0-.17.09l-.14.26a.15.15,0,0,0,0,.18.17.17,0,0,0,.16.09h1.53a.17.17,0,0,0,.16-.09l.15-.25a.24.24,0,0,0,0-.08.2.2,0,0,0-.18-.2h0l.14-.26,1.37-2.37.19-.31s.07-.13.33-.13a.22.22,0,0,0,.17-.09l.14-.26a.21.21,0,0,0,0-.19.22.22,0,0,0-.16-.09Z"/><path class="cls-3" d="M88.12,38.35a.2.2,0,0,0-.16.09l-.14.26a.16.16,0,0,0,0,.09.19.19,0,0,0,0,.1h0l0,0-.37.24-1,.61.2-.34.19-.31.07-.1.23,0a.19.19,0,0,0,.15-.09l.15-.26a.24.24,0,0,0,0-.09.13.13,0,0,0,0-.09.19.19,0,0,0-.16-.09h-1.5a.17.17,0,0,0-.16.09l-.15.25a.24.24,0,0,0,0,.08.22.22,0,0,0,0,.1.18.18,0,0,0,.15.1h0l-.14.25-1.37,2.37-.19.31s-.08.13-.33.13a.19.19,0,0,0-.16.1l-.15.25a.19.19,0,0,0,0,.18.21.21,0,0,0,.17.1H85a.18.18,0,0,0,.16-.1l.15-.25a.19.19,0,0,0,0-.07.2.2,0,0,0,0-.11.2.2,0,0,0-.14-.09l.14-.27.33-.56.05.51,0,.26v0h0a.29.29,0,0,0-.16.1l-.14.25a.17.17,0,0,0,0,.1.19.19,0,0,0,0,.09.17.17,0,0,0,.16.09H87a.17.17,0,0,0,.16-.09l.15-.26a.19.19,0,0,0,0-.07.17.17,0,0,0,0-.1.28.28,0,0,0-.15-.11h0v0s-.08-.33-.08-.33-.17-1.1-.23-1.46L88,39.49l.54-.34A.8.8,0,0,1,88.9,39H89a.19.19,0,0,0,.16-.09l.15-.26a.24.24,0,0,0,0-.09.29.29,0,0,0,0-.09.2.2,0,0,0-.17-.09h-1Z"/><path class="cls-3" d="M93.73,40.94h-.3c.15-.17.22-.24.42-.48C93.79,40.7,93.76,40.86,93.73,40.94Zm1,.81.82-3.26v-.05a.2.2,0,0,0,0-.11.21.21,0,0,0-.15-.08h-.26a.19.19,0,0,0-.14.07l-2.91,3.26-.23.25c-.17.19-.25.21-.25.21h-.09a.26.26,0,0,0-.15.09l-.14.26a.32.32,0,0,0,0,.09.14.14,0,0,0,0,.09.19.19,0,0,0,.16.09h.78a.17.17,0,0,0,.16-.09l.15-.25a.31.31,0,0,0,0-.08.23.23,0,0,0,0-.11l-.07,0,.23-.26.24-.28h.72a.66.66,0,0,1,0,.1,1.84,1.84,0,0,1-.1.36.44.44,0,0,1-.2,0,.18.18,0,0,0-.16.09L93,42.4a.12.12,0,0,0,0,.09.16.16,0,0,0,0,.09.17.17,0,0,0,.16.09H94.5a.17.17,0,0,0,.16-.09l.15-.26a.19.19,0,0,0,0-.08.19.19,0,0,0,0-.1s-.06,0-.11-.07v0l.06-.3"/><path class="cls-3" d="M104.28,38.35a.19.19,0,0,0-.15.09l-.15.26a.13.13,0,0,0,0,.09.18.18,0,0,0,0,.09.2.2,0,0,0,.11.06L104,39l-.15.19-.94,1.12c.23-.74.5-1.67.5-1.67a.09.09,0,0,0,0,0,.15.15,0,0,0,0-.11.19.19,0,0,0-.15-.08h-.35a.21.21,0,0,0-.15.07L101.2,40.3l.3-.92a2.76,2.76,0,0,1,.15-.39.41.41,0,0,1,.16,0h.06a.17.17,0,0,0,.16-.09l.15-.26a.15.15,0,0,0,0-.09s0-.07,0-.09a.2.2,0,0,0-.16-.1h-1.38a.21.21,0,0,0-.17.1l-.14.25a.24.24,0,0,0,0,.09.37.37,0,0,0,0,.09.25.25,0,0,0,.15.1,2,2,0,0,1-.09.29l-1,3.19a.13.13,0,0,0,0,.06.25.25,0,0,0,0,.11.17.17,0,0,0,.15.07h.29a.17.17,0,0,0,.14-.06s1.11-1.32,1.76-2.07c-.23.81-.55,1.9-.55,1.9v0a.2.2,0,0,0,0,.11.21.21,0,0,0,.16.07h.29a.2.2,0,0,0,.14-.06l2.65-3.19.28-.34A.3.3,0,0,1,105,39a.19.19,0,0,0,.16-.09l.15-.26a.21.21,0,0,0,0-.19.18.18,0,0,0-.16-.09h-.84Z"/><path class="cls-3" d="M109.23,40.94h-.31c.15-.17.22-.24.42-.48C109.29,40.7,109.25,40.86,109.23,40.94Zm1,.81.81-3.26a.09.09,0,0,0,0-.05.15.15,0,0,0,0-.11.19.19,0,0,0-.15-.08h-.25a.21.21,0,0,0-.15.07l-2.91,3.26s-.23.25-.23.25c-.17.19-.25.21-.25.21H107a.2.2,0,0,0-.14.09l-.15.26a.16.16,0,0,0,0,.09.14.14,0,0,0,0,.09.17.17,0,0,0,.16.09h.78a.19.19,0,0,0,.17-.09l.14-.25a.13.13,0,0,0,0-.08.43.43,0,0,0,0-.11l-.08,0,.24-.26.23-.28h.72l0,.1a1.4,1.4,0,0,1-.11.36.36.36,0,0,1-.19,0,.2.2,0,0,0-.17.09l-.14.26a.12.12,0,0,0,0,.09.16.16,0,0,0,0,.09.17.17,0,0,0,.16.09H110a.2.2,0,0,0,.17-.09l.14-.26a.11.11,0,0,0,0-.08.19.19,0,0,0,0-.1s-.07,0-.12-.07v0l.07-.3"/><path class="cls-7" d="M57.83,42.49l.15-.25a.52.52,0,0,0,.49-.22l.19-.31L60,39.33,60.2,39c.09-.15,0-.23-.24-.23l.15-.25h1.53l-.14.25A.51.51,0,0,0,61,39l-.2.31-1.37,2.38-.17.31c-.09.15,0,.22.24.22l-.14.25Z"/><path class="cls-7" d="M63.71,42.44l.46-.8h.28c-.26.46-.17.7.29.7a1.14,1.14,0,0,0,1-.69.54.54,0,0,0-.08-.71l-.14-.15a.93.93,0,0,1-.12-1.25,2.33,2.33,0,0,1,.77-.79,1.83,1.83,0,0,1,1-.31,2.3,2.3,0,0,1,.83.18l-.41.71h-.29c.25-.42.19-.64-.18-.64a1,1,0,0,0-.89.62.51.51,0,0,0,.09.66l.14.15a1,1,0,0,1,.13,1.27,2.39,2.39,0,0,1-.85.88,2.18,2.18,0,0,1-1.12.31A2.84,2.84,0,0,1,63.71,42.44Z"/><path class="cls-7" d="M70.2,42.49l.14-.25a.52.52,0,0,0,.49-.22l.2-.31,1.37-2.38.16-.31c.09-.15,0-.23-.23-.23l.15-.25h1.16l-1,1.67h.81l.5-.87.18-.32c.08-.15,0-.22-.24-.22l.15-.25h1.53l-.15.25A.52.52,0,0,0,75,39l-.19.32-1.37,2.37-.17.31c-.08.15,0,.22.23.22l-.14.25H72.17l1.14-2H72.5l-.69,1.19-.17.31c-.08.15,0,.22.23.22l-.15.25Z"/><path class="cls-7" d="M77.66,42.49l.15-.25A.52.52,0,0,0,78.3,42l.19-.31,1.37-2.38L80,39c.09-.15,0-.23-.23-.23l.14-.25h1.54l-.15.25a.52.52,0,0,0-.49.23l-.19.31-1.37,2.38-.17.31c-.09.15,0,.22.23.22l-.15.25Z"/><path class="cls-7" d="M83.53,42.49l.14-.25a.51.51,0,0,0,.49-.22l.2-.31,1.37-2.38L85.9,39c.08-.15,0-.23-.24-.23l.14-.25h1.5l-.14.25a1.1,1.1,0,0,0-.29.05.36.36,0,0,0-.16.18l-.2.31-.56,1,1.58-1,.37-.26a2.08,2.08,0,0,0,.27-.19s0-.08-.13-.08H88l.14-.25h1l-.15.25h-.06a1,1,0,0,0-.5.2l-.54.34-1.27.8.25,1.6.08.32a.19.19,0,0,0,.21.19l-.14.25H85.57l.15-.25a.25.25,0,0,0,.18-.08V42l0-.27-.11-1.07h0l-.62,1.05L85,42c-.08.15,0,.21.18.21l-.15.26Z"/><path class="cls-7" d="M92.16,42.49l.15-.25c-.16,0-.21,0-.16-.12a3.71,3.71,0,0,1,.33-.4l.3-.33h1l-.08.33a2.59,2.59,0,0,1-.13.4c0,.08-.16.11-.36.11l-.14.26H94.5l.15-.25c-.13,0-.18-.07-.14-.22l.06-.3.82-3.28h-.26l-2.91,3.28L92,42q-.22.26-.36.27h-.1l-.14.25Zm2.06-2.71-.34,1.35H93l1.21-1.35"/><path class="cls-7" d="M99.53,42.53l1-3.2a2,2,0,0,0,.11-.43c0-.07,0-.11-.19-.11l.15-.25H102l-.14.25h-.06c-.18,0-.28,0-.32.1a2.34,2.34,0,0,0-.17.44l-.59,1.81,2.17-2.52h.36l-.77,2.54L104,39.33l.14-.18a2.22,2.22,0,0,0,.18-.23c.05-.08,0-.13-.21-.13l.14-.25h.84l-.14.25a.49.49,0,0,0-.41.21l-.28.33-2.65,3.2h-.29l.78-2.73-2.31,2.73Z"/><path class="cls-7" d="M107.66,42.49l.14-.25c-.15,0-.2,0-.16-.12a3.16,3.16,0,0,1,.34-.4l.3-.33h1l-.08.33c-.06.21-.1.36-.12.4s-.17.12-.36.12l-.15.25H110l.15-.25c-.13,0-.17-.07-.14-.22l.06-.3.82-3.28h-.25l-2.91,3.28-.23.24a.81.81,0,0,1-.37.27H107l-.14.25Zm2-2.71-.34,1.35h-.87l1.21-1.35"/><path class="cls-6" d="M43.27,54.13l-.55.95-.63,1.05a.52.52,0,0,1-.54.27.93.93,0,0,0-.64.25ZM49.72,44a1,1,0,0,0-.72.31l-4.84,5.14c.51-2.11,1-4.24,1-4.24a2,2,0,0,0,0-.23,1,1,0,0,0-.21-.61,1,1,0,0,0-.76-.37H40a1,1,0,0,0-.85.48l-.48.86a.89.89,0,0,0-.13.48,1,1,0,0,0,.13.5.87.87,0,0,0,.36.35c-.07.14-.15.28-.26.48l-4.61,8a7.35,7.35,0,0,1-.82,1.25,1.11,1.11,0,0,1-.52.07,1,1,0,0,0-.85.48l-.48.85a.93.93,0,0,0,0,1,1,1,0,0,0,.84.49h3.36a1,1,0,0,0,.85-.49l.48-.85a.8.8,0,0,0,.12-.45A1.07,1.07,0,0,0,37,56.9a1,1,0,0,0-.24-.26l.33-.61s.63-1.1,1.45-2.5c-.25,1-.61,2.52-.61,2.52a.83.83,0,0,0,0,.22,1,1,0,0,0,.21.61,1,1,0,0,0,.77.38h1a1,1,0,0,0,.72-.31s.17-.19.18-.19a.64.64,0,0,0-.1.13l-.49.84a1,1,0,0,0,0,1,1,1,0,0,0,.85.5h4.56a1,1,0,0,0,.85-.5l.49-.84a1.09,1.09,0,0,0,.13-.5,1,1,0,0,0-.13-.48,1,1,0,0,0-.37-.37l.26-.46,4.6-8a8.34,8.34,0,0,1,.83-1.25,1.24,1.24,0,0,1,.52-.07,1,1,0,0,0,.85-.48l.48-.85a1,1,0,0,0,.13-.49,1.05,1.05,0,0,0-.13-.49,1,1,0,0,0-.84-.49H49.72"/><path class="cls-6" d="M51.54,48.71a1,1,0,0,0-.84.5l-.39.66a.89.89,0,0,0-.12.45,1.17,1.17,0,0,0,.13.51,1.38,1.38,0,0,0,.23.26l-.15.26S48,55.61,48,55.61s-.51.83-.51.83-.3.13-.44.13a1,1,0,0,0-.84.49l-.39.67a1,1,0,0,0,0,1,1,1,0,0,0,.85.5h3.82a1,1,0,0,0,.84-.5l.39-.67a.89.89,0,0,0,.12-.45,1.09,1.09,0,0,0-.13-.5.85.85,0,0,0-.21-.25l.16-.28s2.45-4.26,2.45-4.26.52-.83.52-.83.24-.13.4-.13a1,1,0,0,0,.84-.49l.39-.67a.94.94,0,0,0,0-1,1,1,0,0,0-.85-.5Z"/><path class="cls-6" d="M56.26,48.71a1,1,0,0,0-.84.5l-.39.66a.89.89,0,0,0-.12.45,1.06,1.06,0,0,0,.14.51.91.91,0,0,0,.2.24c-.09.15-.15.28-.15.28l-2.46,4.26s-.51.83-.51.83-.19.13-.4.13a1,1,0,0,0-.85.49l-.39.67a1,1,0,0,0,0,1,1,1,0,0,0,.85.5h5.54a1,1,0,0,0,.85-.5L59,56.57a.94.94,0,0,0,0-1,1,1,0,0,0-.84-.5h-.81l-.15,0,1.62-2.82s.52-.83.52-.83.25-.13.4-.13a1,1,0,0,0,.85-.5l.38-.66a1,1,0,0,0,0-1,1,1,0,0,0-.85-.5H56.26Z"/><path class="cls-6" d="M62.69,48.71a1,1,0,0,0-.84.5l-.39.66a.89.89,0,0,0-.12.45,1.06,1.06,0,0,0,.14.51.91.91,0,0,0,.2.24l-.15.28-2.46,4.26s-.51.83-.51.83-.18.13-.4.13a1,1,0,0,0-.85.49l-.39.67a1,1,0,0,0,0,1,1,1,0,0,0,.85.5h5.55a1,1,0,0,0,.84-.5l1.23-2.14a.94.94,0,0,0,0-1,1,1,0,0,0-.84-.5h-.8l-.16,0c.72-1.23,1.63-2.82,1.63-2.82l.51-.83c.06-.11.25-.13.4-.13a1,1,0,0,0,.85-.5l.39-.66a1,1,0,0,0,0-1,1,1,0,0,0-.85-.5H62.69Z"/><path class="cls-6" d="M69.1,48.71a1,1,0,0,0-.85.5l-.39.66a.88.88,0,0,0-.11.45,1.16,1.16,0,0,0,.12.51,1.38,1.38,0,0,0,.23.26l-.14.26L65.5,55.61s-.51.83-.51.83-.3.13-.43.13a1,1,0,0,0-.85.49l-.39.67a1,1,0,0,0,0,1,1,1,0,0,0,.85.5H68a1,1,0,0,0,.84-.5l.39-.67a.89.89,0,0,0,.12-.45,1,1,0,0,0-.14-.5.82.82,0,0,0-.2-.25l.15-.28s2.46-4.26,2.46-4.26.51-.83.51-.83.25-.13.4-.13a1,1,0,0,0,.85-.49l.39-.67a1,1,0,0,0-.85-1.47Z"/><path class="cls-6" d="M74.81,53.4a16.35,16.35,0,0,1-1.94,2.8c.19-.42.48-1,.93-1.78a15.12,15.12,0,0,1,1.9-2.75A18.42,18.42,0,0,1,74.81,53.4Zm4.88-3a2.51,2.51,0,0,0-2.8-2,6.38,6.38,0,0,0-3.81,1.41A11.77,11.77,0,0,0,70,53.45a6.17,6.17,0,0,0-1.11,4,2.47,2.47,0,0,0,2.75,2,6.39,6.39,0,0,0,3.85-1.39,11.65,11.65,0,0,0,3.13-3.64,6,6,0,0,0,1.09-4"/><path class="cls-6" d="M85.72,48.71a1,1,0,0,0-.85.5l-.38.66a.8.8,0,0,0-.12.45,1,1,0,0,0,.33.75l-.16.3s-.21.35-.49.85l-.44-2.68a1,1,0,0,0-1-.83h-1.9a1,1,0,0,0-.84.5l-.39.66a.89.89,0,0,0-.12.45,1.17,1.17,0,0,0,.13.51.91.91,0,0,0,.2.24l-.13.26-2.48,4.28a6.57,6.57,0,0,1-.6.93,1.31,1.31,0,0,1-.31,0,1,1,0,0,0-.84.49l-.39.67a1,1,0,0,0,.84,1.48h2.82a1,1,0,0,0,.84-.5l.39-.67a.89.89,0,0,0,.12-.45,1.09,1.09,0,0,0-.13-.5.85.85,0,0,0-.21-.25l.16-.29.47-.8c.21,1.35.43,2.7.43,2.7a1,1,0,0,0,1,.83h1a1,1,0,0,0,.84-.49l3.74-6.47s.52-.84.52-.84v0c0-.07.17-.11.39-.11a1,1,0,0,0,.84-.49l.39-.67a1,1,0,0,0,.13-.49.89.89,0,0,0-.13-.48,1,1,0,0,0-.85-.5Z"/><path class="cls-6" d="M94.74,44.82a8.62,8.62,0,0,0-2.84,3,4.21,4.21,0,0,0,.32,5.32l.43.48c.21.24.41.56,0,1.26-1,1.81-2,1.81-2.3,1.81a1.22,1.22,0,0,1-.32,0,3,3,0,0,1,.37-.85.91.91,0,0,0,.13-.48,1,1,0,0,0-.13-.49,1,1,0,0,0-.85-.49h-.89a1,1,0,0,0-.85.49l-1.55,2.69A1,1,0,0,0,86.81,59a9.5,9.5,0,0,0,3.08.53A7.42,7.42,0,0,0,94,58.27,9.36,9.36,0,0,0,97.05,55a5.1,5.1,0,0,0,.76-2.57,4.34,4.34,0,0,0-1.08-2.8l-.42-.52a.87.87,0,0,1-.25-.57,1,1,0,0,1,.17-.53c.85-1.47,1.63-1.56,2-1.57a4.29,4.29,0,0,1-.33.67.94.94,0,0,0-.12.49,1,1,0,0,0,.12.49,1,1,0,0,0,.85.48h.89a1,1,0,0,0,.85-.48l1.38-2.39a1,1,0,0,0,.08-.79,1,1,0,0,0-.52-.59,7.08,7.08,0,0,0-2.95-.68A6.6,6.6,0,0,0,94.74,44.82Z"/><path class="cls-6" d="M99.1,48.71a1,1,0,0,0-.85.5L97,51.34a1,1,0,0,0,0,1,1,1,0,0,0,.84.49h.47L96.47,56c-.22.38-.34.56-.4.65l-.35,0a1.06,1.06,0,0,0-.84.49l-.32.54a1,1,0,0,0,0,1,1,1,0,0,0,.85.5h3.82a1,1,0,0,0,.85-.5l.31-.54a.87.87,0,0,0,.11-.44,1.16,1.16,0,0,0-.12-.51,1.27,1.27,0,0,0-.21-.25c0-.06,1.66-2.88,2.6-4.52a1,1,0,0,0,.76.36h.62a1,1,0,0,0,.85-.49l1.24-2.14a1,1,0,0,0,0-1,1,1,0,0,0-.85-.5Z"/><path class="cls-6" d="M109.14,48.43a1,1,0,0,0-.71.32l-6.66,7.12a3.89,3.89,0,0,1-.75.68,1,1,0,0,1-.19,0,1,1,0,0,0-.72.49l-.39.66a1,1,0,0,0-.13.5,1,1,0,0,0,.13.49,1,1,0,0,0,.85.49h2a1,1,0,0,0,.85-.49l.38-.67a1,1,0,0,0,.12-.47,1.12,1.12,0,0,0-.05-.31l.46-.5h.39a1,1,0,0,0-.28.3l-.39.66a1,1,0,0,0-.13.5,1,1,0,0,0,.13.49,1,1,0,0,0,.85.49h3.47a1,1,0,0,0,.85-.49l.39-.67a1.07,1.07,0,0,0,.12-.49,1,1,0,0,0-.1-.45,1,1,0,0,0-.29-.33v0s1.42-7.15,1.42-7.15a1,1,0,0,0,0-.18,1,1,0,0,0-.22-.62,1,1,0,0,0-.76-.37Z"/><path class="cls-6" d="M114.1,48.71a1,1,0,0,0-.84.5l-.39.66a.89.89,0,0,0-.12.45,1.17,1.17,0,0,0,.13.51,1.21,1.21,0,0,0,.21.24c-.09.15-.15.28-.15.28l-2.46,4.26s-.51.83-.51.83-.19.13-.4.13a1,1,0,0,0-.85.49l-.39.67a1,1,0,0,0,0,1,1,1,0,0,0,.85.5h3.67a1,1,0,0,0,.85-.5l0-.05a1,1,0,0,0,.13.22,1,1,0,0,0,.73.32h2.34a1,1,0,0,0,.85-.49l.38-.67a1,1,0,0,0,.14-.49.85.85,0,0,0-.06-.31,1,1,0,0,0-.36-.46v-.22s.09-1.19.14-1.94a5.75,5.75,0,0,0,2.77-2.38,3,3,0,0,0,.46-1.48,1.71,1.71,0,0,0-.23-.89c-.6-1-2-1.16-3-1.16Z"/><path class="cls-6" d="M120.56,51.36a2.93,2.93,0,0,0,.7,4l.38.33a1.1,1.1,0,0,1,.2.2s0,0,0,0a1.56,1.56,0,0,1-1.45.88h-.07a1.05,1.05,0,0,0,.13-.49,1,1,0,0,0-.13-.48,1,1,0,0,0-.85-.49h-.64a1,1,0,0,0-.84.49l-1,1.82a1,1,0,0,0-.06.86,1,1,0,0,0,.66.57,9.89,9.89,0,0,0,2.5.35,6.49,6.49,0,0,0,3.23-.84,5.92,5.92,0,0,0,2.34-2.26,3.59,3.59,0,0,0,.52-1.77,3,3,0,0,0-1.18-2.31l-.4-.32a.9.9,0,0,1-.18-.19,1.22,1.22,0,0,1,.93-.66,1.35,1.35,0,0,0,0,.29.91.91,0,0,0,.15.5,1,1,0,0,0,.84.47h.62a.94.94,0,0,0,.85-.49l.91-1.57a1,1,0,0,0,.07-.84,1,1,0,0,0-.59-.58,7.31,7.31,0,0,0-2.43-.44A5.58,5.58,0,0,0,120.56,51.36Z"/><path class="cls-3" d="M49.72,44.61a.33.33,0,0,0-.24.1L43,51.65c.42-1.71,1.6-6.64,1.6-6.64a.17.17,0,0,0,0-.07.27.27,0,0,0-.07-.2.31.31,0,0,0-.25-.13H40a.32.32,0,0,0-.29.17l-.48.84a.33.33,0,0,0-.05.16.26.26,0,0,0,.05.17.31.31,0,0,0,.28.16,1.5,1.5,0,0,1,.46,0,6.23,6.23,0,0,1-.64,1.27l-4.6,8a7.94,7.94,0,0,1-1,1.42,1.41,1.41,0,0,1-1,.24.29.29,0,0,0-.28.16l-.49.85a.28.28,0,0,0,0,.32.31.31,0,0,0,.28.16h3.36a.33.33,0,0,0,.28-.16l.49-.85a.31.31,0,0,0,0-.32.32.32,0,0,0-.28-.16.7.7,0,0,1-.32-.05.48.48,0,0,1,.09-.21l.58-1.07,3.7-6.42-1.66,6.9s0,0,0,.07a.34.34,0,0,0,.08.21.32.32,0,0,0,.25.12h1a.35.35,0,0,0,.24-.1l6.5-6.91c-1.4,2.41-3.36,5.81-3.36,5.81l-.64,1.06a1.15,1.15,0,0,1-1.1.59.33.33,0,0,0-.28.16l-.49.85a.31.31,0,0,0,0,.32.33.33,0,0,0,.28.16h4.57a.33.33,0,0,0,.28-.16l.49-.85a.29.29,0,0,0,0-.16.32.32,0,0,0,0-.16.33.33,0,0,0-.28-.16,1.65,1.65,0,0,1-.47-.05,7.67,7.67,0,0,1,.65-1.28l4.6-8a6.65,6.65,0,0,1,1-1.41,1.35,1.35,0,0,1,1-.24.33.33,0,0,0,.28-.16l.49-.84a.35.35,0,0,0,0-.17.32.32,0,0,0,0-.16.34.34,0,0,0-.28-.17Z"/><path class="cls-3" d="M51.54,49.36a.33.33,0,0,0-.28.16l-.39.68a.28.28,0,0,0,0,.32.34.34,0,0,0,.29.17,1,1,0,0,1,.32,0l0,.07s-.47.87-.47.87l-2.47,4.27-.51.84a1,1,0,0,1-1,.45.3.3,0,0,0-.28.17l-.39.66a.33.33,0,0,0-.05.16.34.34,0,0,0,.05.17.31.31,0,0,0,.28.16h3.82a.33.33,0,0,0,.28-.16l.39-.67a.32.32,0,0,0,0-.16.27.27,0,0,0,0-.16.32.32,0,0,0-.29-.17,1.35,1.35,0,0,1-.3,0,.59.59,0,0,1,0-.08l.47-.86L53.5,52l.52-.85a1,1,0,0,1,1-.43.33.33,0,0,0,.28-.17l.39-.68a.37.37,0,0,0,0-.15.47.47,0,0,0,0-.17.35.35,0,0,0-.29-.16Z"/><path class="cls-3" d="M56.26,49.36a.33.33,0,0,0-.28.16l-.39.68a.34.34,0,0,0,0,.32.34.34,0,0,0,.29.17.92.92,0,0,1,.3,0l0,.07-.47.87s-2.47,4.27-2.47,4.27l-.51.84a1,1,0,0,1-1,.45.32.32,0,0,0-.29.17l-.38.66a.33.33,0,0,0-.05.16.34.34,0,0,0,.05.17.31.31,0,0,0,.28.16h5.54a.31.31,0,0,0,.28-.16l1.24-2.14a.31.31,0,0,0,0-.32.34.34,0,0,0-.29-.16h-.8a.33.33,0,0,0-.28.16l-.13.21a9.13,9.13,0,0,1-.51.81s-.07.08-.25.08l-.53,0-.26,0a7.24,7.24,0,0,1,.4-.78L58.22,52l.52-.86a1,1,0,0,1,1-.43.33.33,0,0,0,.28-.17l.39-.67a.29.29,0,0,0,0-.16.33.33,0,0,0,0-.17.34.34,0,0,0-.29-.16Z"/><path class="cls-3" d="M62.69,49.36a.32.32,0,0,0-.28.16L62,50.2a.34.34,0,0,0,0,.32.34.34,0,0,0,.28.17.84.84,0,0,1,.3,0,.36.36,0,0,1,0,.07l-.47.87s-2.47,4.27-2.47,4.27l-.52.84a1,1,0,0,1-1,.45.31.31,0,0,0-.28.17l-.39.66a.32.32,0,0,0,0,.16.33.33,0,0,0,0,.17.32.32,0,0,0,.28.16h5.55a.33.33,0,0,0,.28-.16l1.23-2.14a.31.31,0,0,0,0-.32.33.33,0,0,0-.28-.16h-.8a.31.31,0,0,0-.28.16l-.13.21a9.13,9.13,0,0,1-.51.81.32.32,0,0,1-.25.08l-.54,0-.25,0a4.64,4.64,0,0,1,.4-.78L64.65,52l.52-.86a1,1,0,0,1,1-.43.32.32,0,0,0,.28-.17l.39-.67a.3.3,0,0,0,0-.16.34.34,0,0,0,0-.17.32.32,0,0,0-.28-.16Z"/><path class="cls-3" d="M69.1,49.36a.31.31,0,0,0-.28.16l-.39.68a.28.28,0,0,0,0,.32.32.32,0,0,0,.28.17,1.07,1.07,0,0,1,.33,0l0,.07-.47.87-2.46,4.27-.52.84a1,1,0,0,1-1,.45.32.32,0,0,0-.29.17l-.38.67a.28.28,0,0,0,0,.32.31.31,0,0,0,.28.16H68a.32.32,0,0,0,.28-.16l.39-.67a.32.32,0,0,0,0-.16.27.27,0,0,0,0-.16.32.32,0,0,0-.28-.17,1.19,1.19,0,0,1-.3,0,.2.2,0,0,1,0-.08l.47-.86S71.05,52,71.05,52l.52-.86a1,1,0,0,1,1-.43.32.32,0,0,0,.28-.17l.39-.67a.3.3,0,0,0,0-.16.34.34,0,0,0,0-.17.32.32,0,0,0-.28-.16Z"/><path class="cls-3" d="M75.37,53.72c-1.89,3.27-2.87,3.75-3.29,3.75-.13,0-.15,0-.15,0s-.24-.66,1.31-3.33c1.85-3.2,2.84-3.68,3.27-3.68.08,0,.13,0,.15.05S76.88,51.11,75.37,53.72Zm3.68-3.16c-.13-.67-.61-1.48-2.16-1.48a5.75,5.75,0,0,0-3.42,1.28,11.16,11.16,0,0,0-2.93,3.42,5.59,5.59,0,0,0-1,3.52c.12.68.58,1.49,2.11,1.49a5.83,5.83,0,0,0,3.46-1.27,11,11,0,0,0,3-3.43,5.44,5.44,0,0,0,1-3.53"/><path class="cls-3" d="M85.72,49.36a.32.32,0,0,0-.28.16l-.39.68a.28.28,0,0,0,0,.32.34.34,0,0,0,.28.17.88.88,0,0,1,.3,0,.23.23,0,0,1,0,.07s-.47.88-.47.88L83.7,54.11c-.21-1.24-.74-4.48-.74-4.48a.32.32,0,0,0-.32-.27h-1.9a.33.33,0,0,0-.28.16l-.39.68a.27.27,0,0,0,0,.16.29.29,0,0,0,0,.16.34.34,0,0,0,.28.17h.29a5.64,5.64,0,0,1-.49.94l-2.47,4.29A5,5,0,0,1,76.93,57c-.07.07-.25.18-.73.18a.31.31,0,0,0-.28.16l-.38.67a.28.28,0,0,0,0,.32.3.3,0,0,0,.28.17h2.81a.32.32,0,0,0,.29-.17l.38-.66a.37.37,0,0,0,0-.17.3.3,0,0,0,0-.16.29.29,0,0,0-.28-.16.79.79,0,0,1-.3,0l0-.08.47-.87,1.4-2.41c.2,1.26.71,4.52.71,4.52a.33.33,0,0,0,.32.28h1a.31.31,0,0,0,.28-.17L86.66,52l.53-.85a1,1,0,0,1,1-.43.33.33,0,0,0,.28-.17l.39-.68a.31.31,0,0,0,0-.32.33.33,0,0,0-.28-.16Z"/><path class="cls-3" d="M95.09,45.36a8.35,8.35,0,0,0-2.63,2.81,3.61,3.61,0,0,0,.25,4.57l.42.49a1.57,1.57,0,0,1,.11,2c-.83,1.44-1.77,2.15-2.87,2.15-.35,0-.79-.05-.93-.3s-.16-.55.42-1.56a.36.36,0,0,0,0-.32.34.34,0,0,0-.29-.16h-.89a.33.33,0,0,0-.28.16l-1.56,2.7a.38.38,0,0,0,0,.28.34.34,0,0,0,.2.19,8.79,8.79,0,0,0,2.87.51,6.84,6.84,0,0,0,3.71-1.15,8.91,8.91,0,0,0,2.89-3,3.74,3.74,0,0,0-.25-4.63l-.43-.51a1.46,1.46,0,0,1-.13-1.86,3.06,3.06,0,0,1,2.57-1.89c.19,0,.51,0,.61.19s.14.46-.43,1.46a.29.29,0,0,0,0,.33.33.33,0,0,0,.28.16h.89a.32.32,0,0,0,.28-.16l1.38-2.4a.32.32,0,0,0-.14-.45,6.36,6.36,0,0,0-2.69-.63A6.08,6.08,0,0,0,95.09,45.36Z"/><path class="cls-3" d="M99.1,49.36a.34.34,0,0,0-.29.16l-1.23,2.14a.33.33,0,0,0,0,.33.34.34,0,0,0,.28.17h.64a.34.34,0,0,0,.28-.17l.1-.17a6.82,6.82,0,0,1,.56-.86s.12-.1.53-.1h.23L97,56.34a5.22,5.22,0,0,1-.55.85.47.47,0,0,1-.34.12l-.42,0a.38.38,0,0,0-.28.17l-.31.55a.28.28,0,0,0,0,.32.31.31,0,0,0,.28.16h3.82a.3.3,0,0,0,.28-.16l.32-.54a.28.28,0,0,0,0-.15.35.35,0,0,0-.32-.34l-.32,0c.06-.11.16-.32.35-.64l3.36-5.82h.74c-.06.12-.16.32-.34.62l-.1.17a.34.34,0,0,0,0,.17.37.37,0,0,0,0,.16.34.34,0,0,0,.28.17h.63a.32.32,0,0,0,.28-.17l1.24-2.15a.31.31,0,0,0,0-.32.32.32,0,0,0-.28-.16Z"/><path class="cls-3" d="M106.28,54.78h-1l1.32-1.41C106.42,54.05,106.32,54.54,106.28,54.78Zm3.8-5.29a.42.42,0,0,0-.07-.29.33.33,0,0,0-.25-.12h-.62a.32.32,0,0,0-.24.11l-6.65,7.12c-.73.79-1,.87-1.09.88l-.25,0a.3.3,0,0,0-.24.17l-.38.66a.33.33,0,0,0,.28.49h2a.32.32,0,0,0,.29-.17l.38-.66a.3.3,0,0,0,0-.33.34.34,0,0,0-.23-.16c.09-.1.21-.24.43-.46l.61-.66h2l-.08.45a3.83,3.83,0,0,1-.16.59,1.2,1.2,0,0,1-.54.07.3.3,0,0,0-.28.17l-.39.67a.34.34,0,0,0,0,.32.33.33,0,0,0,.28.16h3.47a.32.32,0,0,0,.29-.16l.39-.67a.29.29,0,0,0,0-.3.29.29,0,0,0-.26-.18c-.07,0-.08,0-.08,0s-.1-.15,0-.57l1.41-7.12"/><path class="cls-3" d="M117.63,51.68a2.78,2.78,0,0,1-2.28,1.53l1.45-2.52h.34c.38,0,.65.07.72.18a.31.31,0,0,1,0,.13A1.54,1.54,0,0,1,117.63,51.68Zm2.82-1.49c-.31-.55-1.11-.83-2.42-.83H114.1a.3.3,0,0,0-.27.16l-.39.68a.28.28,0,0,0,0,.32.32.32,0,0,0,.28.17.88.88,0,0,1,.3,0l0,.07-.47.87L111,55.93l-.51.84a1,1,0,0,1-1,.45.32.32,0,0,0-.29.17l-.38.66a.33.33,0,0,0-.05.16.34.34,0,0,0,.05.17.32.32,0,0,0,.28.16h3.67a.34.34,0,0,0,.29-.16l.38-.67a.33.33,0,0,0,0-.16.4.4,0,0,0,0-.15.34.34,0,0,0-.26-.18l-.2,0,0-.09.47-.86s.71-1.24,1-1.68h.08c-.06.6-.38,3.63-.38,3.63v0a.29.29,0,0,0,.09.21.3.3,0,0,0,.24.11h2.34a.33.33,0,0,0,.28-.16l.39-.67a.32.32,0,0,0,0-.16.41.41,0,0,0,0-.11.34.34,0,0,0-.19-.2c-.14-.06-.21-.24-.21-.55v-.17s.13-1.76.17-2.36a5.11,5.11,0,0,0,2.83-2.25,2.33,2.33,0,0,0,.37-1.15,1.11,1.11,0,0,0-.16-.57"/><path class="cls-3" d="M121.12,51.69a2.28,2.28,0,0,0,.55,3.18l.39.32c.55.46.46.81.33,1.06a2.19,2.19,0,0,1-2,1.22c-.45,0-.76-.08-.84-.23s-.09-.25.2-.75a.33.33,0,0,0-.28-.49h-.64a.32.32,0,0,0-.28.17l-1,1.82a.36.36,0,0,0,0,.29.31.31,0,0,0,.22.18,8.73,8.73,0,0,0,2.34.33,5.93,5.93,0,0,0,2.92-.75A5.3,5.3,0,0,0,125,56a2.34,2.34,0,0,0-.51-3.26l-.4-.32c-.63-.53-.44-.85-.36-1a2,2,0,0,1,1.8-1.06c.34,0,.5.07.54.15s0,.29-.17.67a.33.33,0,0,0,0,.32.32.32,0,0,0,.28.16h.63a.31.31,0,0,0,.28-.17L128,50a.32.32,0,0,0,0-.27.33.33,0,0,0-.2-.2,6.57,6.57,0,0,0-2.21-.41A4.94,4.94,0,0,0,121.12,51.69Z"/><path class="cls-7" d="M40,44.94h4.27l-1.89,7.83,7.37-7.83h3.57l-.49.84a1.66,1.66,0,0,0-1.18.33,7.54,7.54,0,0,0-1,1.48l-4.6,8a5.45,5.45,0,0,0-.71,1.48c0,.21.24.32.81.32l-.49.85H41.06l.48-.85a1.5,1.5,0,0,0,1.39-.75l.63-1,4.76-8.25-8.42,9h-1L41,47.2l-4.83,8.37-.58,1q-.42.75.51.75l-.49.85H32.29l.49-.85A1.73,1.73,0,0,0,34,57.05a7.51,7.51,0,0,0,1-1.48l4.61-8a5.62,5.62,0,0,0,.7-1.48q0-.33-.81-.33Z"/><path class="cls-7" d="M50.44,58.22H46.62l.38-.67a1.33,1.33,0,0,0,1.27-.6l.52-.85,2.48-4.29.46-.86c.23-.39,0-.59-.57-.59l.39-.67h3.82l-.39.67a1.29,1.29,0,0,0-1.23.59l-.53.86L50.75,56.1l-.46.85c-.24.39,0,.6.54.6Z"/><path class="cls-7" d="M51.34,58.22l.39-.67A1.3,1.3,0,0,0,53,57l.52-.85L56,51.81l.46-.86c.23-.39,0-.59-.54-.59l.38-.67h3.82l-.38.67a1.32,1.32,0,0,0-1.24.59l-.52.86-2.47,4.28a2.64,2.64,0,0,0-.48,1.1q0,.18.63.18l.52,0a.63.63,0,0,0,.49-.19,8,8,0,0,0,.56-.87l.12-.21h.8l-1.23,2.14Z"/><path class="cls-7" d="M57.77,58.22l.39-.67a1.3,1.3,0,0,0,1.23-.6l.52-.85,2.48-4.29.46-.86c.23-.39,0-.59-.54-.59l.38-.67h3.83l-.39.67a1.32,1.32,0,0,0-1.24.59l-.52.86L61.9,56.09c-.35.6-.51,1-.47,1.1s.24.18.63.18l.52,0a.63.63,0,0,0,.49-.19,7,7,0,0,0,.55-.87l.13-.21h.8l-1.23,2.14Z"/><path class="cls-7" d="M68,58.22H64.17l.39-.67a1.33,1.33,0,0,0,1.26-.6l.53-.85,2.47-4.29.46-.86c.23-.39,0-.59-.57-.59l.38-.67h3.82l-.39.67a1.31,1.31,0,0,0-1.23.59l-.52.86L68.3,56.1l-.47.85c-.23.39,0,.6.54.6Z"/><path class="cls-7" d="M74.89,57.27a11,11,0,0,0,2.87-3.34,5.28,5.28,0,0,0,1-3.3c-.15-.81-.77-1.22-1.84-1.22a5.44,5.44,0,0,0-3.23,1.22,10.71,10.71,0,0,0-2.83,3.31,5.33,5.33,0,0,0-1,3.3c.14.82.73,1.23,1.79,1.23A5.55,5.55,0,0,0,74.89,57.27ZM73,53.93q2.22-3.84,3.56-3.84c.89,0,.6,1.26-.86,3.8S73,57.8,72.08,57.8s-.61-1.29.87-3.87"/><path class="cls-7" d="M75.82,58.22l.39-.67a1.38,1.38,0,0,0,1-.26A6.6,6.6,0,0,0,78,56.1l2.47-4.29A4.69,4.69,0,0,0,81,50.62c0-.17-.2-.26-.65-.26l.39-.67h1.9l.88,5.38,1.87-3.24.47-.87q.36-.6-.54-.6l.39-.67h2.82l-.39.67a1.31,1.31,0,0,0-1.23.59l-.53.86-3.74,6.48h-1l-.85-5.43L79,56.08l-.47.87c-.23.39,0,.6.54.6l-.39.67Z"/><path class="cls-7" d="M87.13,58.05l1.55-2.69h.89c-.9,1.56-.63,2.33.8,2.33,1.22,0,2.26-.77,3.16-2.31A1.91,1.91,0,0,0,93.38,53L93,52.51a3.29,3.29,0,0,1-.21-4.18,7.82,7.82,0,0,1,2.53-2.7,5.71,5.71,0,0,1,3.16-1,6,6,0,0,1,2.55.6L99.6,47.59h-.89q1.23-2.13-.45-2.13a3.37,3.37,0,0,0-2.86,2,1.79,1.79,0,0,0,.17,2.23l.42.51a3.43,3.43,0,0,1,.22,4.26,8.44,8.44,0,0,1-2.78,2.94,6.55,6.55,0,0,1-3.53,1.09A8.48,8.48,0,0,1,87.13,58.05Z"/><path class="cls-7" d="M95.4,58.22l.32-.55.45,0a.8.8,0,0,0,.55-.23,5.43,5.43,0,0,0,.59-.9l3.45-6H100a1,1,0,0,0-.76.21,5,5,0,0,0-.61.91l-.1.17h-.63l1.24-2.14h6.28l-1.23,2.14h-.63l.1-.17a5.25,5.25,0,0,0,.45-.91c0-.14-.14-.21-.53-.21h-.8l-3.45,6a5.25,5.25,0,0,0-.45.9c0,.13.06.21.28.23l.42,0-.32.55Z"/><path class="cls-7" d="M102.52,58.22l.39-.67c-.38,0-.52-.09-.42-.26a7.07,7.07,0,0,1,.66-.75l.71-.76h2.56l-.17.84a3,3,0,0,1-.2.7c-.09.15-.36.23-.82.23l-.38.67h3.47l.39-.67c-.38,0-.5-.38-.37-1l1.42-7.12h-.62l-6.66,7.12c-.58.62-1,1-1.29,1l-.24,0-.38.66Zm4.57-5.89-.54,2.78h-2.06l2.6-2.78"/><path class="cls-7" d="M112.85,58.22l.4-.67c-.35,0-.54-.1-.57-.16s0-.22.17-.44l.46-.87,1.07-1.84H115l-.41,4h2.34l.4-.67c-.32-.14-.46-.49-.42-1.06l.18-2.55A4.85,4.85,0,0,0,120,51.75c.8-1.38.15-2.06-1.92-2.06h-3.92l-.39.67c.59,0,.77.2.55.6l-.47.86-2.47,4.28-.52.85a1.32,1.32,0,0,1-1.24.61l-.38.66Zm4.29-7.86c1.09,0,1.34.49.77,1.48a3.12,3.12,0,0,1-2.84,1.73h-.3l1.85-3.21h.52"/><path class="cls-7" d="M127.76,49.79l-.92,1.59h-.63c.45-.87.24-1.3-.65-1.3a2.28,2.28,0,0,0-2.09,1.21c-.27.47-.13.93.44,1.4l.39.33a2,2,0,0,1,.44,2.85,5,5,0,0,1-2,1.88,5.51,5.51,0,0,1-2.75.72,8.58,8.58,0,0,1-2.26-.33l1-1.81h.64c-.57,1-.26,1.47.92,1.47a2.54,2.54,0,0,0,2.3-1.38,1.08,1.08,0,0,0-.4-1.47l-.39-.32a2,2,0,0,1-.48-2.78,4.6,4.6,0,0,1,4.25-2.43A6.43,6.43,0,0,1,127.76,49.79Z"/></g></g></svg>