<svg xmlns="http://www.w3.org/2000/svg" xmlns:xlink="http://www.w3.org/1999/xlink" viewBox="0 0 280 226.67"><defs><style>.cls-1{fill:none;}.cls-2{fill:#eaeef1;}.cls-3{fill:url(#名称未設定グラデーション_59);}.cls-4{fill:url(#名称未設定グラデーション_59-2);}.cls-5{fill:url(#名称未設定グラデーション_59-3);}.cls-6{fill:url(#名称未設定グラデーション_59-4);}.cls-7{fill:url(#名称未設定グラデーション_59-5);}.cls-8{fill:url(#名称未設定グラデーション_59-6);}.cls-9{fill:url(#名称未設定グラデーション_59-7);}.cls-10{fill:url(#名称未設定グラデーション_59-8);}.cls-11{fill:url(#名称未設定グラデーション_59-9);}.cls-12{fill:url(#名称未設定グラデーション_59-10);}.cls-13{fill:url(#名称未設定グラデーション_59-11);}.cls-14{fill:url(#名称未設定グラデーション_59-12);}.cls-15{fill:url(#名称未設定グラデーション_59-13);}.cls-16{fill:url(#名称未設定グラデーション_59-14);}.cls-17{fill:url(#名称未設定グラデーション_59-15);}.cls-18{fill:url(#名称未設定グラデーション_59-16);}.cls-19{fill:url(#名称未設定グラデーション_59-17);}.cls-20{fill:url(#名称未設定グラデーション_59-18);}.cls-21{fill:url(#名称未設定グラデーション_59-19);}.cls-22{fill:url(#名称未設定グラデーション_59-20);}.cls-23{fill:url(#名称未設定グラデーション_59-21);}.cls-24{fill:url(#名称未設定グラデーション_59-22);}.cls-25{fill:url(#名称未設定グラデーション_59-23);}.cls-26{fill:url(#名称未設定グラデーション_59-24);}.cls-27{fill:url(#名称未設定グラデーション_59-25);}.cls-28{fill:url(#名称未設定グラデーション_59-26);}.cls-29{fill:url(#名称未設定グラデーション_59-27);}.cls-30{fill:url(#名称未設定グラデーション_59-28);}.cls-31{fill:url(#名称未設定グラデーション_59-29);}.cls-32{fill:url(#名称未設定グラデーション_59-30);}.cls-33{fill:url(#名称未設定グラデーション_59-31);}.cls-34{fill:url(#名称未設定グラデーション_59-32);}.cls-35{fill:url(#名称未設定グラデーション_59-33);}.cls-36{fill:url(#名称未設定グラデーション_59-34);}.cls-37{fill:url(#名称未設定グラデーション_59-35);}.cls-38{fill:url(#名称未設定グラデーション_59-36);}.cls-39{fill:url(#名称未設定グラデーション_59-37);}.cls-40{fill:url(#名称未設定グラデーション_59-38);}.cls-41{fill:url(#名称未設定グラデーション_59-39);}.cls-42{fill:url(#名称未設定グラデーション_59-40);}.cls-43{fill:url(#名称未設定グラデーション_59-41);}.cls-44{fill:url(#名称未設定グラデーション_59-42);}.cls-45{fill:url(#名称未設定グラデーション_59-43);}.cls-46{fill:url(#名称未設定グラデーション_59-44);}.cls-47{fill:url(#名称未設定グラデーション_59-45);}.cls-48{fill:url(#名称未設定グラデーション_59-46);}.cls-49{fill:url(#名称未設定グラデーション_59-47);}.cls-50{fill:url(#名称未設定グラデーション_59-48);}.cls-51{fill:url(#名称未設定グラデーション_59-49);}.cls-52{fill:url(#名称未設定グラデーション_59-50);}.cls-53{fill:url(#名称未設定グラデーション_59-51);}.cls-54{fill:url(#名称未設定グラデーション_59-52);}.cls-55{fill:url(#名称未設定グラデーション_59-53);}.cls-56{fill:url(#名称未設定グラデーション_59-54);}.cls-57{fill:url(#名称未設定グラデーション_59-55);}.cls-58{fill:url(#名称未設定グラデーション_59-56);}.cls-59{fill:url(#名称未設定グラデーション_59-57);}.cls-60{fill:url(#名称未設定グラデーション_59-58);}.cls-61{fill:url(#名称未設定グラデーション_59-59);}.cls-62{fill:url(#名称未設定グラデーション_59-60);}.cls-63{fill:url(#名称未設定グラデーション_59-61);}.cls-64{fill:url(#名称未設定グラデーション_59-62);}.cls-65{fill:url(#名称未設定グラデーション_59-63);}.cls-66{fill:url(#名称未設定グラデーション_59-64);}.cls-67{fill:url(#名称未設定グラデーション_59-65);}.cls-68{fill:url(#名称未設定グラデーション_59-66);}.cls-69{fill:url(#名称未設定グラデーション_59-67);}.cls-70{fill:url(#名称未設定グラデーション_59-68);}.cls-71{fill:url(#名称未設定グラデーション_59-69);}.cls-72{fill:url(#名称未設定グラデーション_59-70);}.cls-73{fill:url(#名称未設定グラデーション_59-71);}.cls-74{fill:url(#名称未設定グラデーション_59-72);}.cls-75{fill:url(#名称未設定グラデーション_59-73);}.cls-76{fill:url(#名称未設定グラデーション_59-74);}.cls-77{fill:url(#名称未設定グラデーション_59-75);}.cls-78{fill:url(#名称未設定グラデーション_59-76);}.cls-79{fill:url(#名称未設定グラデーション_59-77);}.cls-80{fill:url(#名称未設定グラデーション_59-78);}.cls-81{fill:url(#名称未設定グラデーション_59-79);}.cls-82{fill:url(#名称未設定グラデーション_59-80);}.cls-83{fill:url(#名称未設定グラデーション_59-81);}.cls-84{fill:url(#名称未設定グラデーション_59-82);}.cls-85{fill:url(#名称未設定グラデーション_59-83);}.cls-86{fill:url(#名称未設定グラデーション_59-84);}.cls-87{fill:url(#名称未設定グラデーション_59-85);}.cls-88{fill:url(#名称未設定グラデーション_59-86);}.cls-89{fill:url(#名称未設定グラデーション_59-87);}.cls-90{fill:url(#名称未設定グラデーション_59-88);}.cls-91{fill:url(#名称未設定グラデーション_59-89);}.cls-92{fill:url(#名称未設定グラデーション_59-90);}.cls-93{fill:url(#名称未設定グラデーション_59-91);}.cls-94{fill:url(#名称未設定グラデーション_59-92);}.cls-95{fill:url(#名称未設定グラデーション_59-93);}.cls-96{fill:url(#名称未設定グラデーション_59-94);}.cls-97{fill:url(#名称未設定グラデーション_116);}</style><linearGradient id="名称未設定グラデーション_59" x1="246.63" y1="90.17" x2="247.6" y2="90.17" gradientUnits="userSpaceOnUse"><stop offset="0" stop-color="#fccf00"/><stop offset="0.3" stop-color="#f08c00"/><stop offset="0.6" stop-color="#ffd800"/></linearGradient><linearGradient id="名称未設定グラデーション_59-2" x1="248.82" y1="88.05" x2="249.59" y2="88.05" xlink:href="#名称未設定グラデーション_59"/><linearGradient id="名称未設定グラデーション_59-3" x1="206.38" y1="131.17" x2="206.52" y2="131.17" xlink:href="#名称未設定グラデーション_59"/><linearGradient id="名称未設定グラデーション_59-4" x1="205.87" y1="131.56" x2="206.38" y2="131.56" xlink:href="#名称未設定グラデーション_59"/><linearGradient id="名称未設定グラデーション_59-5" x1="268.95" y1="46.47" x2="269.78" y2="46.47" xlink:href="#名称未設定グラデーション_59"/><linearGradient id="名称未設定グラデーション_59-6" x1="268.49" y1="47.66" x2="269.31" y2="47.66" xlink:href="#名称未設定グラデーション_59"/><linearGradient id="名称未設定グラデーション_59-7" x1="237.45" y1="73.31" x2="240.72" y2="73.31" xlink:href="#名称未設定グラデーション_59"/><linearGradient id="名称未設定グラデーション_59-8" x1="140.26" y1="183.3" x2="140.3" y2="183.3" xlink:href="#名称未設定グラデーション_59"/><linearGradient id="名称未設定グラデーション_59-9" x1="270.16" y1="44.08" x2="274.67" y2="44.08" xlink:href="#名称未設定グラデーション_59"/><linearGradient id="名称未設定グラデーション_59-10" x1="224.72" y1="88.23" x2="226.61" y2="88.23" xlink:href="#名称未設定グラデーション_59"/><linearGradient id="名称未設定グラデーション_59-11" x1="259.92" y1="55.79" x2="260.57" y2="55.79" xlink:href="#名称未設定グラデーション_59"/><linearGradient id="名称未設定グラデーション_59-12" x1="254.44" y1="57.15" x2="255.13" y2="57.15" xlink:href="#名称未設定グラデーション_59"/><linearGradient id="名称未設定グラデーション_59-13" x1="261.09" y1="54.57" x2="261.8" y2="54.57" xlink:href="#名称未設定グラデーション_59"/><linearGradient id="名称未設定グラデーション_59-14" x1="263.96" y1="50.46" x2="265.39" y2="50.46" xlink:href="#名称未設定グラデーション_59"/><linearGradient id="名称未設定グラデーション_59-15" x1="255.54" y1="55.97" x2="256.43" y2="55.97" xlink:href="#名称未設定グラデーション_59"/><linearGradient id="名称未設定グラデーション_59-16" x1="251.71" y1="60.12" x2="252.55" y2="60.12" xlink:href="#名称未設定グラデーション_59"/><linearGradient id="名称未設定グラデーション_59-17" x1="223.74" y1="106.21" x2="224.45" y2="106.21" xlink:href="#名称未設定グラデーション_59"/><linearGradient id="名称未設定グラデーション_59-18" x1="242.87" y1="68.79" x2="243.55" y2="68.79" xlink:href="#名称未設定グラデーション_59"/><linearGradient id="名称未設定グラデーション_59-19" x1="249.04" y1="62.11" x2="251.57" y2="62.11" xlink:href="#名称未設定グラデーション_59"/><linearGradient id="名称未設定グラデーション_59-20" x1="222.57" y1="105.19" x2="223.15" y2="105.19" xlink:href="#名称未設定グラデーション_59"/><linearGradient id="名称未設定グラデーション_59-21" x1="230.02" y1="84.37" x2="232.15" y2="84.37" xlink:href="#名称未設定グラデーション_59"/><linearGradient id="名称未設定グラデーション_59-22" x1="233.45" y1="82.14" x2="234.34" y2="82.14" xlink:href="#名称未設定グラデーション_59"/><linearGradient id="名称未設定グラデーション_59-23" x1="231.93" y1="83.78" x2="233.04" y2="83.78" xlink:href="#名称未設定グラデーション_59"/><linearGradient id="名称未設定グラデーション_59-24" x1="229.51" y1="86.62" x2="230.32" y2="86.62" xlink:href="#名称未設定グラデーション_59"/><linearGradient id="名称未設定グラデーション_59-25" x1="237.86" y1="76.18" x2="238.62" y2="76.18" xlink:href="#名称未設定グラデーション_59"/><linearGradient id="名称未設定グラデーション_59-26" x1="236.62" y1="78.94" x2="237.29" y2="78.94" xlink:href="#名称未設定グラデーション_59"/><linearGradient id="名称未設定グラデーション_59-27" x1="245.87" y1="69.74" x2="246.62" y2="69.74" xlink:href="#名称未設定グラデーション_59"/><linearGradient id="名称未設定グラデーション_59-28" x1="238.5" y1="76.81" x2="239.26" y2="76.81" xlink:href="#名称未設定グラデーション_59"/><linearGradient id="名称未設定グラデーション_59-29" x1="228.43" y1="87.85" x2="229.15" y2="87.85" xlink:href="#名称未設定グラデーション_59"/><linearGradient id="名称未設定グラデーション_59-30" x1="223.33" y1="93.01" x2="224.61" y2="93.01" xlink:href="#名称未設定グラデーション_59"/><linearGradient id="名称未設定グラデーション_59-31" x1="213.85" y1="102.83" x2="217.15" y2="102.83" xlink:href="#名称未設定グラデーション_59"/><linearGradient id="名称未設定グラデーション_59-32" x1="218.13" y1="98.89" x2="219.1" y2="98.89" xlink:href="#名称未設定グラデーション_59"/><linearGradient id="名称未設定グラデーション_59-33" x1="260.4" y1="67.12" x2="260.88" y2="67.12" xlink:href="#名称未設定グラデーション_59"/><linearGradient id="名称未設定グラデーション_59-34" x1="260.73" y1="66.06" x2="261.67" y2="66.06" xlink:href="#名称未設定グラデーション_59"/><linearGradient id="名称未設定グラデーション_59-35" x1="225.91" y1="89.92" x2="227.75" y2="89.92" xlink:href="#名称未設定グラデーション_59"/><linearGradient id="名称未設定グラデーション_59-36" x1="215.63" y1="101.33" x2="216.96" y2="101.33" xlink:href="#名称未設定グラデーション_59"/><linearGradient id="名称未設定グラデーション_59-37" x1="205.64" y1="132.41" x2="206.12" y2="132.41" xlink:href="#名称未設定グラデーション_59"/><linearGradient id="名称未設定グラデーション_59-38" x1="224.78" y1="91.75" x2="225.75" y2="91.75" xlink:href="#名称未設定グラデーション_59"/><linearGradient id="名称未設定グラデーション_59-39" x1="219.3" y1="97.14" x2="221.59" y2="97.14" xlink:href="#名称未設定グラデーション_59"/><linearGradient id="名称未設定グラデーション_59-40" x1="234.22" y1="102.02" x2="235.46" y2="102.02" xlink:href="#名称未設定グラデーション_59"/><linearGradient id="名称未設定グラデーション_59-41" x1="238.47" y1="97.24" x2="240.05" y2="97.24" xlink:href="#名称未設定グラデーション_59"/><linearGradient id="名称未設定グラデーション_59-42" x1="238.64" y1="97.62" x2="240.29" y2="97.62" xlink:href="#名称未設定グラデーション_59"/><linearGradient id="名称未設定グラデーション_59-43" x1="229.27" y1="107.4" x2="230.16" y2="107.4" xlink:href="#名称未設定グラデーション_59"/><linearGradient id="名称未設定グラデーション_59-44" x1="233.75" y1="103.02" x2="235" y2="103.02" xlink:href="#名称未設定グラデーション_59"/><linearGradient id="名称未設定グラデーション_59-45" x1="226.11" y1="110.69" x2="226.76" y2="110.69" xlink:href="#名称未設定グラデーション_59"/><linearGradient id="名称未設定グラデーション_59-46" x1="220.04" y1="117.61" x2="221.3" y2="117.61" xlink:href="#名称未設定グラデーション_59"/><linearGradient id="名称未設定グラデーション_59-47" x1="218.86" y1="118.49" x2="219.8" y2="118.49" xlink:href="#名称未設定グラデーション_59"/><linearGradient id="名称未設定グラデーション_59-48" x1="218.34" y1="119.63" x2="218.91" y2="119.63" xlink:href="#名称未設定グラデーション_59"/><linearGradient id="名称未設定グラデーション_59-49" x1="212.36" y1="126" x2="212.74" y2="126" xlink:href="#名称未設定グラデーション_59"/><linearGradient id="名称未設定グラデーション_59-50" x1="220.17" y1="116.34" x2="221.71" y2="116.34" xlink:href="#名称未設定グラデーション_59"/><linearGradient id="名称未設定グラデーション_59-51" x1="217.07" y1="119.56" x2="217.76" y2="119.56" xlink:href="#名称未設定グラデーション_59"/><linearGradient id="名称未設定グラデーション_59-52" x1="220.06" y1="117.44" x2="220.51" y2="117.44" xlink:href="#名称未設定グラデーション_59"/><linearGradient id="名称未設定グラデーション_59-53" x1="222.77" y1="113.7" x2="225.12" y2="113.7" xlink:href="#名称未設定グラデーション_59"/><linearGradient id="名称未設定グラデーション_59-54" x1="221.89" y1="115.46" x2="223.1" y2="115.46" xlink:href="#名称未設定グラデーション_59"/><linearGradient id="名称未設定グラデーション_59-55" x1="224.74" y1="112.37" x2="225.5" y2="112.37" xlink:href="#名称未設定グラデーション_59"/><linearGradient id="名称未設定グラデーション_59-56" x1="206.78" y1="131.43" x2="207.32" y2="131.43" xlink:href="#名称未設定グラデーション_59"/><linearGradient id="名称未設定グラデーション_59-57" x1="254.81" y1="64.38" x2="255.74" y2="64.38" xlink:href="#名称未設定グラデーション_59"/><linearGradient id="名称未設定グラデーション_59-58" x1="213.44" y1="116.87" x2="214.19" y2="116.87" xlink:href="#名称未設定グラデーション_59"/><linearGradient id="名称未設定グラデーション_59-59" x1="207.3" y1="124.03" x2="208.3" y2="124.03" xlink:href="#名称未設定グラデーション_59"/><linearGradient id="名称未設定グラデーション_59-60" x1="267.08" y1="49.22" x2="267.78" y2="49.22" xlink:href="#名称未設定グラデーション_59"/><linearGradient id="名称未設定グラデーション_59-61" x1="221.51" y1="108.03" x2="222.11" y2="108.03" xlink:href="#名称未設定グラデーション_59"/><linearGradient id="名称未設定グラデーション_59-62" x1="261.29" y1="66.04" x2="261.94" y2="66.04" xlink:href="#名称未設定グラデーション_59"/><linearGradient id="名称未設定グラデーション_59-63" x1="266.07" y1="49.49" x2="266.73" y2="49.49" xlink:href="#名称未設定グラデーション_59"/><linearGradient id="名称未設定グラデーション_59-64" x1="202.28" y1="128.85" x2="203.17" y2="128.85" xlink:href="#名称未設定グラデーション_59"/><linearGradient id="名称未設定グラデーション_59-65" x1="205.13" y1="125.62" x2="205.79" y2="125.62" xlink:href="#名称未設定グラデーション_59"/><linearGradient id="名称未設定グラデーション_59-66" x1="264.41" y1="66.19" x2="265.39" y2="66.19" xlink:href="#名称未設定グラデーション_59"/><linearGradient id="名称未設定グラデーション_59-67" x1="196.77" y1="134.38" x2="199.01" y2="134.38" xlink:href="#名称未設定グラデーション_59"/><linearGradient id="名称未設定グラデーション_59-68" x1="250.49" y1="78.9" x2="251.14" y2="78.9" xlink:href="#名称未設定グラデーション_59"/><linearGradient id="名称未設定グラデーション_59-69" x1="265.79" y1="64.56" x2="266.52" y2="64.56" xlink:href="#名称未設定グラデーション_59"/><linearGradient id="名称未設定グラデーション_59-70" x1="194.11" y1="138.48" x2="194.71" y2="138.48" xlink:href="#名称未設定グラデーション_59"/><linearGradient id="名称未設定グラデーション_59-71" x1="255.4" y1="73.69" x2="256.42" y2="73.69" xlink:href="#名称未設定グラデーション_59"/><linearGradient id="名称未設定グラデーション_59-72" x1="192.99" y1="139.48" x2="193.94" y2="139.48" xlink:href="#名称未設定グラデーション_59"/><linearGradient id="名称未設定グラデーション_59-73" x1="258.68" y1="70.41" x2="259.8" y2="70.41" xlink:href="#名称未設定グラデーション_59"/><linearGradient id="名称未設定グラデーション_59-74" x1="208.39" y1="122.67" x2="209.34" y2="122.67" xlink:href="#名称未設定グラデーション_59"/><linearGradient id="名称未設定グラデーション_59-75" x1="253.46" y1="72.73" x2="254.35" y2="72.73" xlink:href="#名称未設定グラデーション_59"/><linearGradient id="名称未設定グラデーション_59-76" x1="250.68" y1="71.23" x2="253.3" y2="71.23" xlink:href="#名称未設定グラデーション_59"/><linearGradient id="名称未設定グラデーション_59-77" x1="232.06" y1="95.94" x2="233.14" y2="95.94" xlink:href="#名称未設定グラデーション_59"/><linearGradient id="名称未設定グラデーション_59-78" x1="250.69" y1="68.55" x2="251.9" y2="68.55" xlink:href="#名称未設定グラデーション_59"/><linearGradient id="名称未設定グラデーション_59-79" x1="248.39" y1="72.77" x2="248.94" y2="72.77" xlink:href="#名称未設定グラデーション_59"/><linearGradient id="名称未設定グラデーション_59-80" x1="251.33" y1="69.78" x2="252.14" y2="69.78" xlink:href="#名称未設定グラデーション_59"/><linearGradient id="名称未設定グラデーション_59-81" x1="259.47" y1="58.18" x2="260.22" y2="58.18" xlink:href="#名称未設定グラデーション_59"/><linearGradient id="名称未設定グラデーション_59-82" x1="256.6" y1="61.2" x2="257.48" y2="61.2" xlink:href="#名称未設定グラデーション_59"/><linearGradient id="名称未設定グラデーション_59-83" x1="254.43" y1="67.91" x2="255.16" y2="67.91" xlink:href="#名称未設定グラデーション_59"/><linearGradient id="名称未設定グラデーション_59-84" x1="224.45" y1="105.82" x2="224.45" y2="105.82" xlink:href="#名称未設定グラデーション_59"/><linearGradient id="名称未設定グラデーション_59-85" x1="253.5" y1="69.01" x2="254.28" y2="69.01" xlink:href="#名称未設定グラデーション_59"/><linearGradient id="名称未設定グラデーション_59-86" x1="249.8" y1="76.95" x2="250.34" y2="76.95" xlink:href="#名称未設定グラデーション_59"/><linearGradient id="名称未設定グラデーション_59-87" x1="243.19" y1="83.89" x2="244.28" y2="83.89" xlink:href="#名称未設定グラデーション_59"/><linearGradient id="名称未設定グラデーション_59-88" x1="245.3" y1="77.86" x2="246.55" y2="77.86" xlink:href="#名称未設定グラデーション_59"/><linearGradient id="名称未設定グラデーション_59-89" x1="241.13" y1="86.47" x2="241.61" y2="86.47" xlink:href="#名称未設定グラデーション_59"/><linearGradient id="名称未設定グラデーション_59-90" x1="246.32" y1="73.44" x2="246.95" y2="73.44" xlink:href="#名称未設定グラデーション_59"/><linearGradient id="名称未設定グラデーション_59-91" x1="247.31" y1="74.56" x2="250" y2="74.56" xlink:href="#名称未設定グラデーション_59"/><linearGradient id="名称未設定グラデーション_59-92" x1="246.79" y1="76.1" x2="247.69" y2="76.1" xlink:href="#名称未設定グラデーション_59"/><linearGradient id="名称未設定グラデーション_59-93" x1="233.78" y1="79.09" x2="234.27" y2="79.09" xlink:href="#名称未設定グラデーション_59"/><linearGradient id="名称未設定グラデーション_59-94" x1="56.76" y1="132.71" x2="264.25" y2="132.71" xlink:href="#名称未設定グラデーション_59"/><linearGradient id="名称未設定グラデーション_116" x1="56.84" y1="124.72" x2="231.93" y2="124.72" gradientUnits="userSpaceOnUse"><stop offset="0" stop-color="#bec7cb"/><stop offset="1" stop-color="#e3e8ea"/></linearGradient></defs><g id="レイヤー_2" data-name="レイヤー 2"><g id="レイヤー_1-2" data-name="レイヤー 1"><rect class="cls-1" width="280" height="226.67"/><path class="cls-2" d="M166.49,139.2,165,118l-6.73-93.7H139.87L120.62,37.1l-7.16,102.1h0L140,166.53Zm-35.23-5.43L133.39,40l6.49-4.5h6.39l2.41,98.22L140,142.2Z"/><polygon class="cls-2" points="101.71 24.29 97.02 56.28 94.15 24.29 81.91 24.29 66.95 91.31 79.99 104.74 85.57 73.06 88.61 113.61 103.55 128.99 113.29 30.91 123.66 24.29 101.71 24.29"/><polygon class="cls-2" points="214.33 13.33 65.39 13.33 39.94 98.23 140.01 213.3 140.01 213.3 56.76 93.92 75.43 19.99 204.3 19.99 216.52 68.03 188.55 95.13 179.01 30.91 187.74 24.29 165.79 24.29 176.38 128.99 231.93 71.69 231.93 71.69 214.33 13.33"/><path class="cls-3" d="M247.6,89.48a3.57,3.57,0,0,0-1,1.38C247,90.43,247.64,89.71,247.6,89.48Z"/><path class="cls-4" d="M249.46,87.77c-.16.11-.33.21-.27.06a1.78,1.78,0,0,0-.37.63c.27-.22.5-.51.76-.76C249.63,87.56,249.5,87.69,249.46,87.77Z"/><path class="cls-5" d="M206.38,131.25a2,2,0,0,1,.14-.16l-.11.08A.41.41,0,0,1,206.38,131.25Z"/><path class="cls-6" d="M206.38,131.25c-.16.18-.34.34-.5.54S206.27,131.55,206.38,131.25Z"/><path class="cls-7" d="M269,46.92c.27-.32.65-.46.83-.89A1.85,1.85,0,0,0,269,46.92Z"/><path class="cls-8" d="M268.49,48.1c.3-.26.68-.4.82-.89C269.07,47.56,268.67,47.67,268.49,48.1Z"/><path class="cls-9" d="M239,73.64c.06-.61,1.26-1.38,1.68-2.21-1.24,1.28-2.23,2.57-3.25,3.64-.12.37.3-.28.45-.27A3.05,3.05,0,0,1,239,73.64Z"/><path class="cls-10" d="M140.26,183.36h0l0-.13Z"/><path class="cls-11" d="M274.1,41.85a24.23,24.23,0,0,1-2.41,2.54c-.24.55-.39.64-.65.68,0,.14.18,0,.1.15-.28.46-.2,0-.57.33.05.26-.15.46-.41,1.26a5,5,0,0,0,.85-1.32c.41-.1.58-.55.83-.89.81-.35,1.56-1.56,2-1.78.29-.61-.64.27-.79.48.24-.58.79-.72,1-1.31.2-.08-.15.48.27.14.1-.24.27-.37.37-.62C273.93,42.33,274.51,40.53,274.1,41.85Z"/><path class="cls-12" d="M224.72,89.3l1.89-2.13A9.5,9.5,0,0,0,224.72,89.3Z"/><path class="cls-13" d="M260.57,55.42l-.45.27a.44.44,0,0,1-.19.42C259.86,56.37,260.52,55.76,260.57,55.42Z"/><path class="cls-14" d="M254.88,57.38l.25-.56c-.34.4-.43.29-.68.41C254.39,57.51,254.56,57.54,254.88,57.38Z"/><path class="cls-15" d="M261.8,54.19c0-.26-.65.43-.71.82C261.44,54.9,261.47,54.33,261.8,54.19Z"/><path class="cls-16" d="M265.39,49.64A9.17,9.17,0,0,0,264,51.29c.38-.31.21,0,.51-.2C264.42,50.61,265.06,50.22,265.39,49.64Z"/><path class="cls-17" d="M256.43,55.45l-.46.27c-.08.34-.32.46-.43.76A2,2,0,0,0,256.43,55.45Z"/><path class="cls-18" d="M251.71,60.68a3.69,3.69,0,0,0,.84-1.11C252.19,59.82,252,60.33,251.71,60.68Z"/><path class="cls-19" d="M223.76,106.44c-.11.53.38-.41.69-.61A3.32,3.32,0,0,0,223.76,106.44Z"/><path class="cls-20" d="M242.89,69.24a5.09,5.09,0,0,0,.66-.9C243.21,68.53,242.78,69.09,242.89,69.24Z"/><path class="cls-21" d="M249.91,63c-.14-.19.08-.29.39-.84.06,0,.12,0,.28-.06a1.85,1.85,0,0,1,.71-.82c.17-.36.32-.68.27-.77-.14.14-.35.49-.29.27-.24.13-.28.53-.44.76a2.63,2.63,0,0,0-1,.68c.21.28-.41,1-.82,1.6A2.94,2.94,0,0,1,249.91,63Z"/><path class="cls-22" d="M223.15,104.88l-.45.26a.25.25,0,0,1-.13.28C222.49,105.72,223.11,105.16,223.15,104.88Z"/><path class="cls-23" d="M231.87,83.65c.08-.39.35-.64.27-.77-.44.21-.16.35-.26.56-.19.37-.11-.08-.45.27a4.67,4.67,0,0,1-1.38,1.72c0,.17,0,.25,0,.42A10.18,10.18,0,0,1,231.87,83.65Z"/><path class="cls-24" d="M234.2,82.16c.3-.5,0-.32.1-.56a10.56,10.56,0,0,0-.82.68c-.16.4.34-.06.57-.33s-.24.52-.37.62C233.63,83,234,82.15,234.2,82.16Z"/><path class="cls-25" d="M233,83.26c-.13-.25-.76.75-1.1.95C231.86,84.73,232.74,83.64,233,83.26Z"/><path class="cls-26" d="M229.51,87c.08.12.64-.25.81-.68C230.25,86.17,229.66,86.49,229.51,87Z"/><path class="cls-27" d="M237.86,76.56c0,.3.55-.56.76-.75C238.57,75.46,238.07,76.38,237.86,76.56Z"/><path class="cls-28" d="M236.64,79.2c-.12.39.22,0,.51-.2s.09-.32.14-.48a1.65,1.65,0,0,0-.37.62C236.86,79.12,236.8,79.1,236.64,79.2Z"/><path class="cls-29" d="M246.27,70c0-.39.55-.72.27-.77-.43.39-.26.49-.67,1.11A1.61,1.61,0,0,1,246.27,70Z"/><path class="cls-30" d="M239.22,76.66c.09-.28,0-.37-.2-.28-.13.46-.63.73-.5.9C238.82,77.18,238.88,76.72,239.22,76.66Z"/><path class="cls-31" d="M228.45,88.2c-.09.3.36-.52.63-.47.2-.35-.13-.07,0-.29A3.43,3.43,0,0,0,228.45,88.2Z"/><path class="cls-32" d="M223.33,93.55c.64-.52,0,.42.61,0-.17-.27.49-.66.67-1.11C224,93,223.68,92.87,223.33,93.55Z"/><path class="cls-33" d="M214.64,103.45c.15,0-.1.39.33,0,.22-.28.29-.43.25-.55.21-.14.16,0,.39-.13a7.76,7.76,0,0,1,1.54-1.72c-.3-.19-1,1-1.56,1.22a1.61,1.61,0,0,1-.93,1,10.79,10.79,0,0,0-.81,1.39l.58-.55c.21-.34-.12-.07,0-.28S214.58,103.59,214.64,103.45Z"/><path class="cls-34" d="M218.46,99.47c.28-.13.33-.59.64-.68-.18-.05.25-.68-.29-.43a3.11,3.11,0,0,1-.67.9c-.11.31.38-.34.52-.41S218.24,99.45,218.46,99.47Z"/><path class="cls-35" d="M260.87,67c.05-.23-.13-.2-.38-.08-.17.35,0,.32-.09.56C260.57,67.31,260.69,67.1,260.87,67Z"/><path class="cls-36" d="M261.67,65.58c-.35.26-.76.44-.94,1A4.09,4.09,0,0,0,261.67,65.58Z"/><path class="cls-37" d="M225.91,91c.81-1,1.51-1,1.84-2.21-.14.15-.28.29-.23.14C227.07,89.77,226.35,90.19,225.91,91Z"/><path class="cls-38" d="M217,100.56c-.49.37-.72,1.12-1.29,1.37-.19.47.31-.19.21.08A17.6,17.6,0,0,0,217,100.56Z"/><path class="cls-39" d="M205.73,132.27c-.07.24.22.06-.09.57C206.09,132.39,206.4,131.54,205.73,132.27Z"/><path class="cls-40" d="M225.42,91.71a1.33,1.33,0,0,1,.31-.49c.12-.37-.3.28-.45.27.32,0-.3.38-.5.9C225.11,92.34,225.09,91.76,225.42,91.71Z"/><path class="cls-41" d="M221.59,95.9c-.47.25-.73.8-1.11,1.17-.24.12-.09-.21.09-.56-.69.62-.4.93-1.27,1.86.28-.05.25-.14.68-.4.29-.59-.17.11-.39.13A19.16,19.16,0,0,0,221.59,95.9Z"/><path class="cls-42" d="M235.35,101.89c.35-.53-.32.11,0-.42-.41.36-.77.3-1.16,1.09C234.52,102.72,235.23,101.47,235.35,101.89Z"/><path class="cls-43" d="M239.14,97.63c0-.44.62-.82.91-1.46-.46.33-.75.92-1.27,1.17-.11.26.17.09.26.14-.2.36-.68.67-.55.83C238.73,98.13,238.83,97.72,239.14,97.63Z"/><path class="cls-44" d="M239.22,98c.41-.32.58-1,1.07-1.24.08-.26-1.36,1.08-1.65,1.79C238.79,98.41,239.26,97.63,239.22,98Z"/><path class="cls-45" d="M230.16,106.89a3.44,3.44,0,0,0-.89,1A3.72,3.72,0,0,0,230.16,106.89Z"/><path class="cls-46" d="M233.75,103.75A6.54,6.54,0,0,1,235,102.3C234.84,102.16,233.64,103.47,233.75,103.75Z"/><path class="cls-47" d="M226.51,110.87l.25-.55c-.25.17-.39.51-.64.68C226.06,111.17,226.35,111,226.51,110.87Z"/><path class="cls-48" d="M221.3,116.79c-.5.48-1.24,1.15-1.26,1.65C220.44,117.85,221,117.56,221.3,116.79Z"/><path class="cls-49" d="M219.8,118.08c0-.13-.19,0-.1-.14a6.65,6.65,0,0,0-.84,1.1C219.18,118.74,219.45,118.35,219.8,118.08Z"/><path class="cls-50" d="M218.34,120.16c.18-.14.3-.36.47-.49.28-.47-.19-.08.1-.56A7,7,0,0,0,218.34,120.16Z"/><path class="cls-51" d="M212.68,125.63c-.54.45,0,.47-.32.7C212.5,126.59,212.89,125.54,212.68,125.63Z"/><path class="cls-52" d="M221.71,115.53c-.22,0-1.06,1.09-1.52,1.51-.17.44.67-.66.51-.2A4.38,4.38,0,0,1,221.71,115.53Z"/><path class="cls-53" d="M217.54,119.92a1.33,1.33,0,0,0,.22-.84C217,120.06,216.76,120.16,217.54,119.92Z"/><path class="cls-54" d="M220.29,117.18c-.41.4-.2.62,0,.49C220.76,117.15,220.3,117.36,220.29,117.18Z"/><path class="cls-55" d="M223.63,114.6c-.19-.44.6-.61,1.18-1.31,0-.13,0-.27.31-.48-.1-.13-.83.79-1.17,1.09,0-.33-.88.37-1.18.6C222.93,114.68,223.32,114.59,223.63,114.6Z"/><path class="cls-56" d="M221.9,116c-.05.17.23-.06.39-.13a2,2,0,0,1,.71-.83c.29-.5-.13-.08-.23.14s-.24.07-.21-.08c-.17.14-.29.35-.47.48C222.3,115.48,222.59,115.57,221.9,116Z"/><path class="cls-57" d="M224.74,112.72c-.05.21.7-.36.76-.75C225.18,112.12,225,112.52,224.74,112.72Z"/><path class="cls-58" d="M207,131.74a.8.8,0,0,1,.24-.34c.27-.23,0-.14-.11.07-.11,0-.07-.17,0-.42C206.81,131.34,206.61,132,207,131.74Z"/><path class="cls-59" d="M254.81,64.69c0,.25.61-.49.91-.53C255.87,63.69,255.12,64.46,254.81,64.69Z"/><path class="cls-60" d="M213.94,116.8c.2-.15,0-.18.24-.34.09-.36-.37.34-.52.41-.13.25,0,.24-.19.41-.07.13,0,.11.05.07l.23-.13C213.61,117.28,214,116.46,213.94,116.8Z"/><path class="cls-61" d="M208,123.89c-.17.11-.33.21-.28.06a2.14,2.14,0,0,0-.37.63l.57-.34c.09-.34.32-.45.43-.76C208.13,123.54,208,123.71,208,123.89Z"/><path class="cls-62" d="M267.08,49.54c.1.13.24-.2.57-.33a.25.25,0,0,1,.13-.28C267.84,48.67,267.16,49.24,267.08,49.54Z"/><path class="cls-63" d="M221.57,108.14c-.22.43.18.25.44-.06.35-.53-.32.11,0-.42C221.89,107.83,221.69,107.93,221.57,108.14Z"/><path class="cls-64" d="M261.94,65.73c0-.28-.56.41-.65.68C261.63,66.37,261.69,65.91,261.94,65.73Z"/><path class="cls-65" d="M266.07,49.94a2.29,2.29,0,0,0,.52-.41c.13-.26,0-.21.14-.49C266.39,49.29,266.47,49.41,266.07,49.94Z"/><path class="cls-66" d="M202.28,129.37a3.44,3.44,0,0,0,.89-1A2.58,2.58,0,0,0,202.28,129.37Z"/><path class="cls-67" d="M205.79,125.17a2.92,2.92,0,0,0-.66.9A1.58,1.58,0,0,0,205.79,125.17Z"/><path class="cls-68" d="M265.39,65.4a5.29,5.29,0,0,0-1,1.59A8.89,8.89,0,0,0,265.39,65.4Z"/><path class="cls-69" d="M198.59,133.07c-.69,1.17-1.53,1.86-1.82,2.7a25,25,0,0,0,1.86-2.42c.12,0,0,.2-.08.35C199.24,133.13,199.06,132.82,198.59,133.07Z"/><path class="cls-70" d="M250.69,79.36c.26-.5.42-.63.45-1C250.7,78.83,250.2,79.61,250.69,79.36Z"/><path class="cls-71" d="M266.14,64.85c-.1-.12.25-.4.38-.83a2.53,2.53,0,0,0-.72,1C265.75,65.23,266,64.91,266.14,64.85Z"/><path class="cls-72" d="M194.11,138.86c.19-.27.45-.42.6-.76l-.46.27C194.12,138.63,194.25,138.58,194.11,138.86Z"/><path class="cls-73" d="M256.42,73c-.4.32-.46.55-.75.54-.06.14.09,0,.16,0-.1.3-.34.42-.43.76A3.4,3.4,0,0,0,256.42,73Z"/><path class="cls-74" d="M193,140c.42-.17.63-.65.94-1,0-.14-.18,0-.1-.15-.14.11-.13.18-.06.14C193.58,139.49,193.1,139.5,193,140Z"/><path class="cls-75" d="M258.68,71c.33-.46.86-.62,1.12-1.17A2.76,2.76,0,0,0,258.68,71Z"/><path class="cls-76" d="M209.11,122.09c-.08.13,0,.11,0,.07-.1.18-.26.24-.41.35-.18.28.07.37-.32.69-.21.48.51-.52.28-.06C209,122.8,209.71,121.7,209.11,122.09Z"/><path class="cls-77" d="M253.68,73.25c.13-.51.46-.72.67-1.11C254,72.34,253,73.62,253.68,73.25Z"/><path class="cls-78" d="M251.25,72.06c.4-.3.23,0,.57-.34-.13-.21.42-.75.63-1.18.3-.1.47-.38.74-.54.35-.53-.32.11,0-.42-.08,0-.13.12-.18.2-.83.65-1.42,1.65-2.23,2.34-.31.57,0,.4-.11.77C251.18,72.53,250.93,72.4,251.25,72.06Z"/><path class="cls-79" d="M233.14,95.22a4.86,4.86,0,0,0-1.08,1.45C232.38,96.18,233.18,95.5,233.14,95.22Z"/><path class="cls-80" d="M250.69,69.16a14.83,14.83,0,0,1,1.16-1.09c.26-.43-.58.41-.32,0A4.7,4.7,0,0,0,250.69,69.16Z"/><path class="cls-81" d="M248.52,73c.07,0,0,.25.21.08.19-.35.23-.52.21-.63-.22.14-.29.51-.54.62C248.35,73.18,248.48,73.05,248.52,73Z"/><path class="cls-82" d="M252.14,69.41c-.34.12-.55.44-.81.68C251.3,70.32,252.07,69.79,252.14,69.41Z"/><path class="cls-83" d="M260.2,57.66a3.08,3.08,0,0,0-.73,1C259.77,58.4,260.31,57.85,260.2,57.66Z"/><path class="cls-84" d="M257.48,60.69c-.3.32-.73.48-.88,1A4,4,0,0,0,257.48,60.69Z"/><path class="cls-85" d="M254.91,68.08l.25-.56c-.27.07-.38.37-.63.47C254.28,68.46,254.57,68.29,254.91,68.08Z"/><polygon class="cls-86" points="224.45 105.83 224.45 105.82 224.45 105.82 224.45 105.83"/><path class="cls-87" d="M254.21,68.69c.33-.46-.58.63-.68.4-.1.27.05.24.08.36C254.08,69.1,253.74,69,254.21,68.69Z"/><path class="cls-88" d="M250.34,76.54c-.31.08-.37.53-.54.83a1.61,1.61,0,0,1,.4-.34C250.17,77,250.22,76.78,250.34,76.54Z"/><path class="cls-89" d="M243.34,84a5,5,0,0,1-.15.7,14,14,0,0,0,1.09-1.66C243.89,83.69,243.83,83.44,243.34,84Z"/><path class="cls-90" d="M246.55,77.07c-.2-.12-1,.84-1.25,1.44.22-.16.17,0,.1.15C245.93,78.35,246.06,77.44,246.55,77.07Z"/><path class="cls-91" d="M241.16,86.43c-.1.26.06.23.08.35a1.65,1.65,0,0,0,.37-.62C241.28,86.52,241.48,86.23,241.16,86.43Z"/><path class="cls-92" d="M246.86,73.35q.24-.48-.15-.21c.06.09-.12.37-.37.62S246.72,73.42,246.86,73.35Z"/><path class="cls-93" d="M250,72.8a34.1,34.1,0,0,0-2.69,3.52c.18-.09.4-.42.34-.21.44-.39.19-.32.55-.83.05.26,1.36-1.52,1.1-1C249.62,74.2,250,73.17,250,72.8Z"/><path class="cls-94" d="M247.69,75.48a5.72,5.72,0,0,0-.9,1.24C247.23,76.51,247.39,75.9,247.69,75.48Z"/><path class="cls-95" d="M234.27,78.79l-.49.59C233.9,79.25,234.25,79,234.27,78.79Z"/><path class="cls-96" d="M263.07,68.29c-.39.13-.07-.38-.78.26a1.34,1.34,0,0,1,.82-.89c.23-.58-.44.28-.55.12a.86.86,0,0,1-.54.62c-.13.41-.41.56-.32.7.35-.26.53-.64.57-.34-.16.31-.52.33-.64.69-.26,0,.11-.47-.45.06.36,0-.39.45-.71.82-.08,0-.14-.29.15-.49-.25.3-1,.73-1.35,1.3-.55.09-.95.93-1.42,1-.41.6-.25.68-.74,1.25-.14,0,.06-.29.14-.49-.54.22-.83.8-1.28,1.16-.07.25,0,.19.28-.06-.13.46-.63.73-.5.9-.05,0-.28-.09-.46.27-.27.07,0-.13.15-.49-.57.42-.92,1.15-1.57,1.44.1.56-.79.59-1,1.38-.07-.33-.44.35-.62.26a2.92,2.92,0,0,1,1.05-1c.08-.64,1.09-1.37,1.77-1.86,0-.14-.09-.28.21-.83-.61,1.33-2.9,2.46-3.27,4.06a22.14,22.14,0,0,1-1.76,1.85c-.07.25,0,.19.27-.06l-.38.83a2,2,0,0,1-.58.55c.18-.42.54-.61.67-1.11-.33.22-.59.54-.92.75l-.26.56a3.55,3.55,0,0,1-.47.48c-.24.12-.08-.21.1-.56-.71.7-.11.75-.92,1.45,0,.14,0,.2.21.08a2.56,2.56,0,0,1-.48.69c.13-.72-1.31.8-1.89,1.21.46-.69,1.92-2,1.68-2.2.53-.63,1.15-1.12,1.65-1.79-.09-.26-.69.69-1,.89.36-.58.41-.51.57-1,.43,0,.54-.57,1-.47.36-.64.06-.54-.18-.49.3-.46.47-.25.68-.41a5.52,5.52,0,0,0,.5-.9c.38-.31.2,0,.5-.2.27-.63.23-.27.65-.68.34-.6.82-1,1.15-1.59.42-.34.07.22.26.15-.39.56-1.31,1.32-1,1.52a9.38,9.38,0,0,0,.61-1c.06,0,.12,0,.28-.07.27-.6.35-.71.77-1,.42-.72-.24-.19.17-.91.08-.13.18-.21.25-.35.38-.27.15.16.19.29.36-.1.49-.54.81-.68.15-.26,0-.21-.1-.14.48-.71,1.24-1,1.55-1.93a29.34,29.34,0,0,1,2.64-2.68c.17-.52.56-.73.84-1.1,0-.29-.17-.19,0-.63a4.09,4.09,0,0,1-.91.54c-.07.4.06.16-.15.69a6.6,6.6,0,0,0-1.08,1.45c-.32.14.19-.7.17-.91-.28.16-.86,1.06-.93.75-.63.64-1,1.58-1.82,2,.28-.53.68-.88,1-1.39a2.45,2.45,0,0,1-.81.69c0,.26-.07.35-.35.41-.5,1-1.45,1.45-2.07,2.34-.41.34-.06-.2,0-.42-.33.14-.47.55-.76.75a1.27,1.27,0,0,0,.89-.33c.06,0,.06.15,0,.28a8.53,8.53,0,0,1-.65.69c-.15,0,.11-.38-.32,0-.19.32-.1.32-.15.49s-.27.23-.35.41c-.33.1.13-.3,0-.42.2-.4.62-.49.77-1-2.86,3-5.61,6.25-8.54,9.2,0,.5-1,1.38-1.29,1.37-.07.37.32.19.23.57-.45.66-.61.33-1,1-.12,0,0-.2.08-.35-.47.47-.8,1.16-1.31,1.58.26-1-1.21,1-2.12,1.56-.31.49.14.1.32,0a8.42,8.42,0,0,1-1.16,1.1c-.07.18.32-.16.21.07a2,2,0,0,1-.58.55c0,.1,0,.28-.21.63-.31.57-.4.13-.71.82-.18.09-.15-.08,0-.42a14.5,14.5,0,0,0-2.3,2.47c-.11,0-.15,0,0-.28-.69,1.18-1.66,1.94-2.39,3-.07,0-.15,0-.1-.14a5.06,5.06,0,0,0-.8,1.39c-.34.26-.39.18-.15-.22-1,1.33-2.35,2.16-3.15,3.79-.4.31,0-.25-.44.06.13-.28.39-.36.48-.69a25.86,25.86,0,0,1-2.85,3.51c0,.31.77-.7.37.08-.29.2-.46.42-.7.61a5.55,5.55,0,0,1-.9,1.25.88.88,0,0,1-.07-.57,23.09,23.09,0,0,1-2.45,3.17c-.11,0,.05-.23-.1-.14s-.32.31-.52.41a3.11,3.11,0,0,1-.39.83c-.07,0-.22,0-.5.2a15.69,15.69,0,0,1-1.31,1.58c-.27.15.19-.44.31-.48-.5.18-1.06,1.3-1.16,1.8-.53.44-.19-.13,0-.5a20.14,20.14,0,0,1-1.74,2.35c-.25.19.12-.53.3-.48-.21,0-.59.31-1,.81.12-.17.5-.67.07-.35.15-.24.42-.33.49-.69-.39.21-.59.69-.94,1,.18,0,.07.42-.32.7,0,.18.17-.14.34-.2a6.94,6.94,0,0,0-.87,1.52c-.49.4.06-.41-.37-.08-.18.42-.64,1-.52,1.11a30,30,0,0,0-2.18,2.41c.05.09.21.06-.09.56-.44.13,0-.57-.78.26.13-.42.44-.6.66-.9-.17-.14-.81,1-1.18,1.31,0,.09.19,0,0,.28-.34.26-.49.54-.86.61-.27.47,0,.29-.27.77s-.74.29-1,1.09c-.3.22-.13-.1-.5.2a2.38,2.38,0,0,1,.59-.76c-1.58,1.2-3.44,4-5.14,5.78-.08-.08,0-.35.16-.7-.36.33-.6.83-1,1.1-.18.36,0,.33.08.35-.77.92-2.47,2.27-2.92,3.65-.38.15.22-.48.09-.56-.57.66-.69.82-1.18,1.31,0,.16.1.1,0,.28-.53.75-1.81,1.49-1.89,2.13-.27.16-.23,0-.62.27-.24.35-.39.83-.78,1-.14.85-1.58,1.69-2.09,2.76,0-.15-.43.24-.33,0a3.58,3.58,0,0,1-1.36,1.51,2.71,2.71,0,0,1-.43.77c-.06,0-.12,0-.28.06,0,.21-.48.77-.35.41a5.54,5.54,0,0,1-1.25,1.45c.23,0,0,.3-.32.69-.12.06,0-.2.08-.35-.48.46-.87,1-1.36,1.51.23-.57.49-.5.5-.9a4.73,4.73,0,0,0-.82.9c-.14,0,.06-.3.14-.49.33-.38.81-.52,1-1.1-.36.5-.39,0-.74.54-.23,0,.1-.44.38-.83.22-.1.06.23.08.35a1.3,1.3,0,0,0,.5-.9,3.9,3.9,0,0,1,.94-1c-.68.73-.33.79-.85,1.31-.08.33.61-.59.15.22-.26.51-.09-.31-.34.2-.36.69,0,.15.32,0a1.76,1.76,0,0,1-.35.41c.47-.31,1.48-1.86,2.24-2.54-.33,0,.31-.44.21-.63a11.15,11.15,0,0,0-1.15,1.59c-.55-.22,1-1.77,1.37-2.43.78-.58.29.32.82,0-.14-.26.63-.62.79-1.17-.25.35-1.09,1.18-1,.68.67-.35.38-.67,1.18-1.31.44-.31.06.33.49,0l.32-.69c-.16.11-.33.21-.27.06.7-1.14,1.58-2,2.34-3.1-.39.14-.57.58-.88.82.41-.7,1.24-1.83,1.65-1.79a2.37,2.37,0,0,0-.61,1c0,.25.46-.45.39-.13.53-.68.8-1.52,1.42-1.65.11-.39.38-.54.6-.76,0-.05.11-.34,0-.28.74-.64,1.69-2.2,2.24-2.33.31-.43.74-1,1.08-1.45.06,0,.05.15,0,.28.39-.32.14-.41.32-.69.44-.3.32.06.25.35.45-.4.9-1.07,1.22-1,0-.28-.43,0-.13-.63-.63.54,0,.54-.78,1.17-.22,0-.14-.25.15-.7.64-.86,1.56-1.3,2.17-2.19.39-.1-.21.45-.38.83a3.64,3.64,0,0,0,.84-1.1c-.06,0-.12,0-.28.06.2-.31.38-.3.3-.48.61-.44.85-1.41,1.59-1.65-.06-.23.67-1.12.89-1a4.48,4.48,0,0,1,1.56-2.14c.14-.25,0-.18.08-.35.55-.42,1-1.13,1.15-.89l.45-1c.69-.59,0,.45.43.15a3.84,3.84,0,0,1,1.13-1.37,8.39,8.39,0,0,1,.28-1c.35-.14-.23.78.3.43-.24-.35.91-1.66,1.56-2.14.41-.6.2-.75.74-1.25.07.15-.16.69.33,0,.17,0,0,.39-.22.84.08,0,.13-.12.18-.21l.22-.13c.22-.43-.06-.28.16-.7.38-.64.52-.28,1.09-.75.23-.52.69-.69,1-1.17a2.7,2.7,0,0,0-1.12,1.17c-.06-.08-.32.08-.61.26.41-.41.25-.51.82-.89.35-.53-.32.11,0-.42a14.21,14.21,0,0,0,2-2c0-.22-.6.5-.76.76-.32-.14.58-1.12,1-1.53.39-.13-.61.74-.26.56.58-.34.27-.53.78-1-.28.94,1.33-1.63,2.15-2,.1-.38.71-1.24,1.06-1.94.18.37,1.42-1.58,1.55-1.93.17-.11.34-.21.28-.06.07-.28.52-.58.79-1.18.47-.07.62-.71,1.19-1.51.19-.07,0,.27.44-.06,1-1.47,1.69-2,2.75-3.45.19-.06,0,.29.39-.13-.19-.3.53-.83.94-1-.34,0,.13-.82.69-1.31.28,0-.56.65-.32.69s.32-.31.52-.41-.22-.07.14-.49c.15-.06-.15.39,0,.28.63-.56.74-.88.62-1,.39-.58.15.22.56-.34-.18-.11.17-.61.52-1.11.3,0,.28-.32.74-.55-.11-.15.36-.66.66-.89.1,0-.15.26,0,.28,0-.38,1.54-1.75,1.11-1.87.39-.28.5-1,.9-1.24s-.21.45-.33.9c.36-.32.63-.77,1-1.1-.17-.61,1.19-1.81,1.46-2.28.07.17-.32.72-.44,1s-.17,0-.1-.14c-.45.37-.2.43-.62,1a3.69,3.69,0,0,1,1.45-1.16c.3-.5-.16-.11-.09-.35.72-.36,2.59-3,3.43-3.85.1-.16.64-1,.27-.77.35-.69,1-.87.79-1.17.33-.22.1.22.2.28a1.46,1.46,0,0,1-.52.41c-.18.47.37,0-.16.7a8.52,8.52,0,0,0,.92-1.45c.06,0,.12,0,.28-.07.2-.46-.25.13-.27-.14.22-.38.58-.56.73-1-1.48,1.41-2.86,3-4.24,4.53-.44.39.12-.4-.32,0s-.18.36-.32.7c-.46.27,0-.54.23-1a17.78,17.78,0,0,0,2.65-2.89c.26-.31.63-.48.88-.82-.37.14-.28.07.3-.48.26-.43-.09-.15,0-.42.86-.51.87-.9,1.47-1.58.3-.22.13.1.51-.2-.15-.11.06-.54.5-.9.29-.22-.36.67.14.21a.81.81,0,0,1,.36-.41c0-.07,0-.24.14-.49a16.69,16.69,0,0,1,2-1.77c-.06-.48.64-.62.9-1.25.28-.08-.31.44-.32.7a7,7,0,0,1,1-1.1c.16-.24.2-.64.44-.76-.25-.06-.13-.16.22-.84-.65.83-1.1.93-1.54,1.72-.44.22.13-.38-.26-.15-.29.53-.23.66,0,.63a8,8,0,0,0-.55.83c-.19-.21-.67.57-.94,1-.33.11.29-.57.22-.84a1.29,1.29,0,0,0-.43.77,3,3,0,0,0-1,.81c.08.09-.16.54-.33.91-.2,0-.15-.26-.61,0-.16.38-.48.54-.71.83,0-.2-.24,0-.26-.15a35.91,35.91,0,0,1-2.89,3.23c-.38.85-1.13,1.15-1.55,1.93-1.2.72-2.13,2.87-3.11,3.15-.09.34-.33.46-.43.77a4,4,0,0,0-.86.61c.3-.51.7-.71.67-1.11,0,.37.28-.17.63-.48.12-.4-.19,0-.45.27a6.46,6.46,0,0,1,1.19-1.51c.22-.12-.32.58-.48.69.28,0,1.06-1.25,1.54-1.72-.31.1-.4.51-.7.61A24,24,0,0,0,240,80.63c.32-.23-.46.84.09.35l.25-.55a12.17,12.17,0,0,0,2.15-2.69c-.37.79.44-.25.92-.75,0-.15.16-.5-.21-.08.43-1,.81-.68,1.19-1.51.33-.19.28.06.32.22a1.69,1.69,0,0,0,.45-1c.3-.51,1.23-1,1.13-1.37.16-.19.82-.78.74-.55a9.34,9.34,0,0,1,2.09-2.55,3.77,3.77,0,0,0-.63,1.18l1-.81c.23-.35-.45.06,0-.29,0-.37-.4.48-.53.62-.24-.14.69-1.51,1.32-1.79.6-.67.87-1.83,1.63-2.28l.26-.55c.35-.28.08.15.14.21.4-.35.56-1,1-1.31.28-.08-.27.49-.32.69a11.41,11.41,0,0,1,2.6-3,3.87,3.87,0,0,0,.79-1.18c-.25.18-.34.19-.21-.07.48-.24,1.28-1.59,2-2.13a1.85,1.85,0,0,1-.54.83,12.92,12.92,0,0,0,1.7-1.71c.28-.66-.31.35-.57.33.21-.46.59-.69.79-1.17-.12,0-.15,0,0-.28-.3.17-.33.36-.45.26a2.06,2.06,0,0,0,.3-.48c.65-.26.72-.48,1.38-1-.17.52-.66.59-.84,1.11.3-.11.45-.44.75-.55-.29.07.45-1,.8-1.38.13-.06,0,.19-.08.35.36-.11.49-.54.81-.69.1-.24-.34.15-.32,0,.53-.84,1.28-1.38,1.84-2.2-.13-.19-.43.56-.76.76-.08,0-.05-.08-.17,0a5.52,5.52,0,0,0,1-1.38c-.17-.17-.55.39-.59.76-.48.38.24-.67-.33,0,.19-.43.78-1.18.22-.84-.26.3-.29.49,0,.28-.09.18-.26.24-.4.35-.28.47-.12.43-.27.76A11.81,11.81,0,0,0,261,55.5c-.91.4-1.33,1.47-2.06,2.13-.16-.33.93-1.26.82-1.6-.9,1.26-1.68,1.7-2.56,3.24a1.33,1.33,0,0,0-.94,1c-.35.12-.35-.19,0-.7-.21.07-.28.36-.47.48.26-.09-.23.69.25.36-.75.53-1.19,1.52-1.84,2.2.63-1,1.19-1.93,1.29-2.08-.45,0-1.23,1.62-1.75,2.35-.17-.14-.75.63-1.05,1,0,.14.18,0,.1.15a4.15,4.15,0,0,0-.24.34c-.07,0,0-.25-.21-.07-.75.85-1.38,1.86-2.1,2.75-.08,0-.05-.07-.16,0,.73-1,.9-1.42,1.58-2.35-.74.56-1.26,1.43-1.95,2.06-.11.37.31-.28.46-.27a3.39,3.39,0,0,1-.37.62c-.48.38-.32-.14-.73.34-.13.25,0,.21-.14.48.11-.06.16-.22.24-.34.26-.16.41.18.45-.27.66-.42.1.39-.27.77.37-.63-.6.46-.37-.08-.29.21-.35.74-.62,1s.21-.67.45-1-.35.07-.2-.28c-.39.28-.6.83-1,1.1-.09-.18.28-.53.34-.91-.47.17-.61.83-1.06,1-.07.31.45-.41.69-.41a7.9,7.9,0,0,1-.83.9c.5-.32.35,0,.36.29-.07.12-.17.2-.24.34-.45.39.12-.4-.33,0-.22.68-2.42,2.93-2.46,2.47-.14.41-.49.69-.38.84-.54.43-.31,0-.67.19.47-.48.82-1.14,1.31-1.58A8.91,8.91,0,0,0,242.34,74c-.22.13,0-.3-.33,0a3.85,3.85,0,0,1-1.3,1.58c.08.24-.32.65.07.56-.38.16-.55.78-1.12,1.17.44,0-.65,1-.51,1.11-.72.64.22-.64-.31-.22a2.47,2.47,0,0,1-.73,1c-.09,0-.06-.24-.08-.35.84-1.16,1.82-2,2.39-3-.31.11-.36.56-.7.62-.87,1.75-2.47,2.46-3.39,4.13-1.38,1-3.18,3.73-4,4l-1.12,1.17c0,.49-.74,1-1.14,1.59-.08,0,0-.25-.22-.08.1.23-.53,1-.59.76-.83,1.35-2,2.18-2.91,3.44.35-.22-.1.41-.21.63s.25-.59.09-.56a21.41,21.41,0,0,0-2.43,3c-.17-.29-1.18.85-1.23,1.24-.27.07-.39.36-.64.47-.16.9-2.38,2.48-3.16,4-1.06.52-2,2.83-2.94,3.15a6.74,6.74,0,0,0,.77-1c-.34,0-1,1.35-1.78,2.07-.3.29-1.47,1.25-1.35,1.51-.12.29-.43.3-.63.47-.53.87-1.24,1.46-1.75,2.35-.83.72-2.37,2.59-3.54,3.91q-18.45,20.57-36.44,41.78l-18,21.28-12.81,15.59L124.93,173.7c-.18-.36,3.06,3.06,3.27,3.15,2,2.8,4.69,5.1,6.75,7.87.29.08.39.23.78.6,0,.16-.18-.15-.37-.24.28.48.88.7,1.06,1.26.35.24.12-.21.44,0a9.84,9.84,0,0,0,1.56,2.22c.48.55.48.43.75.57.19.33.41.8.71.79a.36.36,0,0,1,0,.19,1.32,1.32,0,0,1,.52.47,2,2,0,0,0,.58-.92c.08.08,0,.19.12.13s-.05-.12-.08-.17c.26-.08.46-.41.63-.69a2.37,2.37,0,0,1,.31-.43,19.58,19.58,0,0,1,1.54-1.65c0-.44,1.18-1.42,1.67-2,.81-1,1.21-1.88,1.72-2.14a8.74,8.74,0,0,1,2.14-2.47c.34-.54-.32.11,0-.43,0-.17.63-.54.45-.26.34-.75.93-1.13,1.32-1.8.22-.16.17,0,.1.14.49-.91,1.19-1.51,1.74-2.34.27.18.07,0,.64-.48-.07-.09.09-.43.32-.69,0,0,.19,0,.39-.13.22-.75,1.35-1.42,2-2.69.2-.13.25-.08.21.07,1-1.3,3.45-4.08,3.59-4.55.5-.66,1.19-1.05,1.55-1.93a5,5,0,0,0,1.65-1.78l9.84-11.49c.13-.24,0-.18.07-.35.35-.22.42-.37.93-.75,1.67-2.38,4.54-5,6.42-7.85.22-.14.17,0,.39-.13a34,34,0,0,1,2.44-3c-.11-.06-.53-.12.19-1.12.34-.14.2.17.73-.34.21,0-.29.8-.55.83-.2.55.78-.45.59-.54,1.31-1,2.15-2.75,3.47-3.78a3.37,3.37,0,0,1,1.54-1.72c.15-.26,0-.21-.1-.14,1.09-1.06,2-2.32,3.12-3.37,0-.16-.1-.1,0-.28,1.53-1.57,3.34-4.14,4.66-5.08.06-.14-.09,0-.16,0,1.64-1.79,3.15-3.78,4.89-5.43,1-1.47,3-3.52,4.45-5.16.28-.47-.19-.08.09-.55a1.63,1.63,0,0,1,.36-.42c-.06.79,1.22-1.1,1.79-1.57,0-.38-.42.43-.63.48s.33-.58.44-.76c.92-.24,1.9-1.91,2.91-2.74.28-.48-.19-.08.09-.56.1-.17.27-.23.36-.41s-.07.29-.14.48a2,2,0,0,0,.77-1c1-.75.75-.94,1.7-1.72.1-.24-.35.15-.33,0s.19-.19.29-.28c.07-.25,0-.19-.27.07.3-.72.8-1.16,1.11-1.87.32-.25.48-.42.5-.2.38-.45.56-1.2,1-1.52.26-.17-.17.46-.2.62.36-.24.48-.7.32-.69.19-.42.63-.47.82-.89.15,0-.1.38.33,0,.21-.74,1.52-2.39,1.72-2.14A4.86,4.86,0,0,0,220,96.63c.69-.28,1.17-1.44,1.58-1.43.16-1,1.8-1.69,2.32-2.9.81-.76,1.47-1.74,2.3-2.47.32-.19-.45.54.1.14.95-1.71,2.45-2.62,3.5-4.2-.19.11-.32.32-.52.41s.05-.23-.1-.14c.56-.59,1.21-1,1.75-1.64,0-.2-.2.1-.34.2s.42-.44.44-.76c.09.06.21,0,.45-.27.17-.94,1.51-1.5,2-2.62.39-.28.45-.18.2.28.33-.14.47-.55.76-.75.05-.17-.23.06-.39.13a3.35,3.35,0,0,1,.61-1c.19-.08.15.09,0,.42a20.88,20.88,0,0,1,1.85-2.2c.15,0-.11.38.32,0,.09-.78,2.17-2.73,2.65-3.59.32-.06,1-.93.55-.12.41-.41.37-.54.32-.7.36-.46.71-.21,1.1-1-.26.09-.35.42-.58.55.09-.17.09-.23,0-.21a16,16,0,0,0,2.62-3.16c.12.22.17.11.6-.06.2-.42-.24-.11-.48,0,.27-.85,1.06-.93,1.37-1.73.63-.5,0,.52.36.29.23-.5,0-.43,0-.7.25-.52.45-.27.59-.55.13,0-.07.3-.15.49.35-.31.76-1,.5-.9.79-.49.63-.68,1.26-1a4.63,4.63,0,0,1,1.25-1.45c0-.18-.38.1,0-.49l-.57.34c-.33.37,0,.36-.53.62-.15.26,0,.21.1.14-.56.63-2.22,2.7-2.16,2-.23.13-.28.53-.43.77-.41.21-.25-.2,0-.64-.21.18-1.11,1.25-.61,1-.35.51-.84.79-1.08,1.45-.22.11.25-.59.09-.56-.41.22-1.12,1.55-1.1,1-.28.18-.24.47-.08.35a5.33,5.33,0,0,1-1,1c0,.16.1.1,0,.29s-.44.45-.6.76c-.06,0-.06-.16,0-.29a16.56,16.56,0,0,1-2.26,2.76c-.27.14.27-.33.26-.56-.34.21-.49.68-.88.82-.42.86-.8.38-1.22,1.24l.58-.55c-.11.46-.51.5-.61,1-.28.21-.13-.07,0-.28-.16.15-.26.39-.47.48,0,.41-1.6,2-2.37,2.82-.07,0-.07,0,0-.06-1,1.24-2.05,2.45-3.15,3.56-.13,0,.07-.29.14-.49-.5.27-.61.84-.49.9-.5.66-.15-.2-.73.34s.47-.25.26.15a14.5,14.5,0,0,1-2.25,2.54c-.09.56-.5.83-.92,1.45-.37.31-.2,0-.5.2a13,13,0,0,1-1.61,2.07c-.23,0,.4-.63.54-.83a5.37,5.37,0,0,0-1.43,1.86c-.4.31-.05-.25-.44.06.16-.41.61-.76.5-.91A25.85,25.85,0,0,0,221,93.91c-.57.48.16-.57-.31-.22a22.28,22.28,0,0,1-3,3.17,2.73,2.73,0,0,1-1.06,1.23c-.13.28.23,0,0,.42-.86.57-2.19,2.82-2.52,2.61a44.73,44.73,0,0,0-3.44,4.06c-.71.45-1.12,1.32-1.87,1.71-.24.65-.75.92-1,1.59-.37.31-.2,0-.5.2-2.08,2.4-4.09,4.9-6.32,7.08,0,.15-.15.5.21.07a63.24,63.24,0,0,0-5.2,5.92c-.35.57-1,.79-1.35,1.3,0,.13.19,0,.1.14a10.81,10.81,0,0,0-2,2.27l-.68.4a63.51,63.51,0,0,1-5.45,6.26c0,.1.05.08,0,.22-3.25,3.49-6.27,7.3-9.47,10.86-.32.78-2.62,3.09-4,4.68a11.8,11.8,0,0,1-1.89,2.13l-.25.56c-.55.16-1.09,1.44-1.88,1.92-1.3,2-3.68,4.2-5.3,6.47l-.45.27c-2.1,2.91-4.59,4.72-6.68,7.65-1.15,1-1.77,2.09-2.92,3-.45.91-1.35,1.31-1.82,2.18a60.65,60.65,0,0,0-4.93,5.4c-1.85,2.12-3.64,2.91-5.43,5.11l-1.27.52v0s0,0-.05,0l0,.2a1.3,1.3,0,0,1,0-.16.74.74,0,0,1,0,.18s0-.06-.1,0,0,.13,0,0l.05-.12c0-.07,0,0-.05.1a9.92,9.92,0,0,0-.74-.72L56.76,93.92,140,213.3l0,0,1.1-1.27,1-1.18.46-.53.14-.16,1.62-1.87.87-1,.07-.08,1.18-1.37.84-1,.5-.57.7-.81.52-.6,5.39-6.21.31-.36,2.35-2.71c.26-.33.59-.7.95-1.1a30.16,30.16,0,0,0,2-2.33l.35-.4.49-.56.41-.48.26-.29L162,188l1.92-2.21.59-.68,1-1.16.42-.49.43-.5,2.73-3.14.73-.84.85-1,1.42-1.64,2.07-2.39.59-.67a14.13,14.13,0,0,1,1.11-1.28l.62-.72,1.18-1.36.39-.44,4.18-4.83.23-.26.63-.72,1.44-1.66,2-2.35.19-.22.83-1,.15-.17.38-.45.25-.29.34-.38.15-.18.3-.35.12-.13.73-.85,0,0h0l.53-.61h0l0,0,.59-.67.12-.14.54-.62,1.38-1.59.33-.39.28-.32.09-.11.6-.68.91-1.05.1-.12.76-.87,2.4-2.77.85-1,1.65-1.9,1.82-2.1.08-.09,7.16-8.25.21-.24.89-1,.26-.29,1-1.14h0l3.8-4.38a6.16,6.16,0,0,0,2.34-2.68c.39-.28-.27.66.2.28.17-.56,1.21-1.35,1.78-2.06.13-.26,0-.21.14-.49.08,0,0,.25.21.08.32-.39.08-.17.26-.56.11,0-.05.23.1.15.49-.3.79-.88.61-1a.65.65,0,0,0,.29-.28c.13,0,0,.2-.07.35.83-.95,2.31-2.2,2.66-3.09,1-.75.55-.76,1.12-1.17a9,9,0,0,1,1.06-1.94l1.81-1.78c.12-.06,0,.19-.08.35a3.78,3.78,0,0,0,.78-1c0-.71,2.16-2.25,2.85-3.51l-3.23,3.43a7.13,7.13,0,0,1,1.07-1.24c0-.32-.49.5-.7.62L230,109c.21-.13.16,0,.38-.12.68-1,.41-1.24,1.41-2.15.16,0-.48.83-.63,1.18.09,0,.36-.12.26.15a3.81,3.81,0,0,1,1.11-1.87c.19-.09.15.08,0,.42.46-.3.48-1.11,1.1-1.66.44-.34-.12.48.37.08.08-.13,0-.11-.05-.07s.47-.57.21-.63c.18-.15.81-.8.55-.83.23-.21.37-.54.65-.68.11.1-.42,1-.18.9l.68-1.1c.3-.22.13.1.5-.2.5-.67,1.07-1.24,1.6-1.86.25-.13-.3.44-.32.7.77-.69.56-1.35,1.44-1.86.15-.24.2-.64.43-.77.14-.34-.28.31-.45.27l.19-.42c.63-.48,1.06-1.24,1.7-1.71.15.16-.56,1-.95,1.17a3.93,3.93,0,0,1-.62,1c.29-.35,1.17-.89,1.43-1.65.44-.31,0,.33.49,0a11.69,11.69,0,0,1,2.05-2.83c.29-.11-.25.36-.26.56.38-.45.29-.12.68-.41.4-.65.94-1.11,1.32-1.79.82-.54.61-.79,1.41-2.14A10.3,10.3,0,0,1,245.36,92c-.16.26,0,.21.09.15a3,3,0,0,1-.71.82c-.25.18.21-.41.31-.48a3.19,3.19,0,0,0-1.57,1.43A7.08,7.08,0,0,0,241.54,96c-.29.15-.24-.06-.47.48a14.29,14.29,0,0,0-2.88,3c-.21-.2-1,1.08-.91.54a6.64,6.64,0,0,1-.73,1c-.31.16-.49.52-.8.68-.14.24,0,.18-.08.35a1,1,0,0,0-.65.69,1.15,1.15,0,0,0-.52.41c-.3.21.36-.68-.15-.22a6.89,6.89,0,0,1-2.25,2.54c-.38.3,0,.24-.25.56a2.93,2.93,0,0,0-.24.34c-.4.31-.23,0-.62.27a15.52,15.52,0,0,1-2.6,3,7.75,7.75,0,0,1-.5.9c.56-.37.26-.54.78-1-.14.36-.1.26.26.15-.41.89-1,1.36-1.3,1.37.15-.4.59-.38.71-.82-.39.45-.73.47-.49,0l-1.76,1.85c0-.38,0-.21-.5.2a2.63,2.63,0,0,1,1-.89c.1-.26-.33.12-.15-.22-.29.43-.69.7-1,1.1-.15.35.26.05.56-.12a12.94,12.94,0,0,0-1.44,1.86c0,.17.25,0,.2.28-.49.67-.14-.17-.62.27-.14,0,.13-.21.19-.42-.69.36-1.75,1.89-2.55,2.33a13.42,13.42,0,0,1-2.09,2.54c-.37.11.38-.72.29-1-.64.49-.5,1-.88.82-.07.3,0,.42.25.36a13.38,13.38,0,0,1-1.89,2.13c0,.49-.68,1.1-1.14,1.59-.13.05,0-.2.07-.35a1.46,1.46,0,0,1,.52-.41c.1-.18.09-.24,0-.21l.13-.28c-.39.29-.57.87-1,1,.14-.33.41-.48.59-.75,0-.32-.59.52-.81.68.37-1-.72.74-1.28,1.16.12.07.15.4-.22.84.11-.46-.36.09-.54-.08a.72.72,0,0,1-.24.34c.31,0-.31.67-.29,1a6.28,6.28,0,0,0-1.53,1.72c-.39.27-.16-.16-.2-.29a16,16,0,0,1-1.39,1.23l-.26.56.46-.27c.18-.58.67-.73,1-1.1-.31.63-.88.89-1.2,1.51-.29-.44-1.1,1-2,1.57.3-.26.5-.67.83-.89-.1-.21-.79.7-1,1,0,.19.08.25,0,.5a1.39,1.39,0,0,1-.16.17l-.11.11c-.16.08-.18-.14-.35,0a.79.79,0,0,1-.36.42c.06.09,0,.24-.13.39l-.32.31a1.88,1.88,0,0,1-.44.33h.09l-.47.46s-.06,0-.2.08c0,0,0,.09,0,.14l-3.87,3.69c.06-.08.08-.14-.05-.06.46-.41.85-.93,1.29-1.37,0-.14-.18,0-.1-.15.28-.46.2,0,.57-.33a1.5,1.5,0,0,1,.42-.56c-.28-.47.94-.9,1.21-1.72.38-.28.08.3.5-.2.16-.44-.29-.18-.12-.64-.31.17-.46.58-.76.76-.06.15.15,0,.28-.07a3.48,3.48,0,0,1-.89,1c-.15-.07.24-.39.21-.63a10.33,10.33,0,0,0,1-1.31c.39-.28.08.3.51-.2.19-1.17,2.4-3.06,3.52-4.41.12,0-.22.6,0,.5-.89.95-1.79,1.89-2.66,2.87.31-.21.56-.51.33,0l.84-1.11c.14,0-.11.48.38.08.13-.52.27-.56.72-1,.4-.31.05.25.44-.06a9.58,9.58,0,0,0,1.63-2.28c0,.07.27-.1.21.08-.18.39-.15-.15-.35.41.63-.48,1.08-1.22,1.7-1.71l.45-1a2,2,0,0,0,.73-.33c.19-.66-.4,0-.61.06.24-.51.83-.52,1-1.1.52-.35-.16.69.47.22.06-.13-.09,0-.16,0a15.45,15.45,0,0,1,2.07-2.33c.25-.57-.44-.06-.74.33.28-.45.37-1.17.81-1.39.25,0-.34.47-.14.49s.29-.5.58-.55c.1-.36-.17-.14.27-.76q.39-.26.15.21c.59-.42.23-.79.79-1.17.21-.05-.33.77.13.42.28-.47.12-.43.27-.76a1.61,1.61,0,0,1,.36-.41c.1.09-.39.66-.16.69.44-.54.42-.31,1-.67a22.46,22.46,0,0,0,2.25-2.76c-.31.84,1.54-1.51,2.22-2.12.1.23-.84.93-1,1.52.85-.67,1.22-1.77,1.89-2.13.06-.15-.15,0-.27.06.11-.45.46-.56.61-1,.91-.42,1.56-1.77,2.15-2a29.93,29.93,0,0,0,1.81-2.48c-.33.36-.14.07-.46.26.82-1.36,1.39-1.3,1.66-1.08.12-.4-.17-.32-.12-.63a16,16,0,0,1,1.23-1.24c.18-.05-.3.51-.45.82.25-.31,1.42-1.41,1.6-1.7s.37,0,.1.14c.13.16.36-.41.53-.62s-.15,0-.27.06c.71-.85,2.14-1.74,3-3.08l.57-.34c.12-.28.39-.36.48-.69,1-.51,1.54-1.79,2.56-2.32a8.86,8.86,0,0,1,2.52-2.61c-.41.68-.38.79-.69,1.32.88-1,1.6-2.33,2.2-2.62-.24-.27.29-1.15-.19-1.2.4-.38,1-1,1.45-1.37-.26-.26-1.7,1.78-1.94,1.36.12-.29.43-.3.63-.48-.09-.3.71-.85.92-1.45,0,.18.06.35.6-.05-.16-.13.09-.49.4-1,.37-.18,1-.6.87-.82.39-.28.31,0,.69-.4.27-.08,0,.13-.15.49a6.94,6.94,0,0,0,1.13-1.38c.39-.24-.15.61.25.35.12-.23,0-.66.5-.9,0-.14.16-.48-.26-.14.44-.67.38-.54.45-1s.49-.22.58-.54c.31-.61-.33.11-.51.19.22-.3.53-.47.72-.82.24-.12-.24.62.19.28,0-.27.58-.79.47-.48a6.25,6.25,0,0,1,2.3-2.47c0-.11.12-.44.09-.56-.43.37-.26.17-.68.41-.19.32,0,.16.21.07a21,21,0,0,1-2.39,2.33c.53-.85,1.35-1.29,1.89-2.13a12.39,12.39,0,0,1-1.1,1c.29-.5.78-.73,1-1.39.25-.11,0,.36.38.08.1-.23.27-.37.37-.62.27-.21.13.07,0,.28.22-.13.31-.46.58-.54-.06-.31.61-.86.51-1.12.57-.44.16.25.6,0,.29-.53,1.2-1.35,1.35-1.3.45-.77.61-.54,1.06-1.24.3-.11-.24.36-.25.56.61-.44,1-1.18,1.58-1.65.12-.33.13-.42,0-.63.33-.31.85-1,.75-1.25.44-.39-.12.4.32,0s.47-.71.83-.89c.27-.49,0-.31.32-.7.37-.22-.25.72-.11.77-.14.35-.58.25-.65.69.21.06.89-.77,1.18-1.31.38-.3.21,0,.51-.2.36-.64,1.17-1.84,1.43-1.86s.12-.25,0-.21a2.92,2.92,0,0,1,1.05-1c.11-.38.38-.53.5-.9C264,67.55,263.31,67.63,263.07,68.29Z"/><path class="cls-97" d="M165,118l1.53,21.21L140,166.53,113.46,139.2h0l4.42-63.08q7.17-3.93,14.87-7.75l-1.49,65.4L140,142.2l8.7-8.44-1.77-72.08q6.61-3,13.59-5.82Zm-61.41,11,4.71-47.41C100.77,86,93.76,90.4,87.2,94.83l1.41,18.78ZM81,99.12c-1.29.9-2.55,1.81-3.81,2.72l2.82,2.9Zm140.23-63c-4.07,1-8.06,2.07-12,3.16L216.52,68l-28,27.1-7-47.21q-6.58,2.3-12.88,4.71L176.38,129l55.55-57.3h0ZM56.84,117.66,140,213.3h0L67.39,109.16Q61.83,113.48,56.84,117.66Z"/></g></g></svg>